<svg width="274" height="130" viewBox="0 0 274 130" fill="none" xmlns="http://www.w3.org/2000/svg">
<path fill-rule="evenodd" clip-rule="evenodd" d="M15.2136 29.8836H258.788C267.072 29.8836 274 36.61 274 44.977V114.759C274 123.127 267.072 130 258.788 130H15.2136C6.92732 130 -0.00012207 123.127 -0.00012207 114.759V44.977C-0.00012207 36.61 6.92732 29.8836 15.2136 29.8836Z" fill="#1C1C1C"/>
<path fill-rule="evenodd" clip-rule="evenodd" d="M14.6098 28.9874H259.388C267.522 28.9874 273.998 35.4121 273.998 43.3318V110.126C273.998 118.194 267.522 124.619 259.388 124.619H14.6098C6.62619 124.619 -0.00012207 118.194 -0.00012207 110.126V43.3318C-0.00012207 35.4121 6.62619 28.9874 14.6098 28.9874Z" fill="#353535"/>
<path fill-rule="evenodd" clip-rule="evenodd" d="M15.2136 21.5165H258.788C267.072 21.5165 274 28.39 274 36.6099V106.541C274 114.911 267.072 121.633 258.788 121.633H15.2136C6.92732 121.633 -0.00012207 114.91 -0.00012207 106.541V36.6099C-0.00012207 28.39 6.92732 21.5165 15.2136 21.5165Z" fill="#1C1C1C"/>
<path fill-rule="evenodd" clip-rule="evenodd" d="M23.9493 12.1032H248.092C255.926 12.1032 262.251 18.3793 262.251 26.0003V90.5515C262.251 98.1725 255.925 104.449 248.092 104.449H23.9493C16.2698 104.449 9.94312 98.1725 9.94312 90.5515V26.0003C9.94312 18.3793 16.2698 12.1032 23.9493 12.1032Z" fill="#19CFD8"/>
<path fill-rule="evenodd" clip-rule="evenodd" d="M23.9493 2.68846H248.092C255.926 2.68846 262.251 8.96599 262.251 16.587V81.1397C262.251 88.7577 255.925 95.0352 248.092 95.0352H23.9493C16.2698 95.0352 9.94312 88.7577 9.94312 81.1397V16.587C9.94312 8.96599 16.2698 2.68846 23.9493 2.68846Z" fill="#48F6FF"/>
<path fill-rule="evenodd" clip-rule="evenodd" d="M23.9493 -1.14441e-05H248.092C255.926 -1.14441e-05 262.251 6.27603 262.251 13.8955V78.4497C262.251 86.0677 255.925 92.3468 248.092 92.3468H23.9493C16.2698 92.3468 9.94312 86.0677 9.94312 78.4497V13.8955C9.94312 6.27603 16.2698 -1.14441e-05 23.9493 -1.14441e-05Z" fill="#18EBFF"/>
<path d="M88.1363 57.1714C88.5363 57.6514 88.7896 57.9847 88.8963 58.1714C89.003 58.3581 89.0163 58.4781 88.9363 58.5314C88.7763 58.6381 88.723 58.7581 88.7763 58.8914C88.8296 59.0247 88.7763 59.0514 88.6163 58.9714C88.4563 58.9181 88.3896 58.9314 88.4163 59.0114L88.6563 59.4914C88.7363 59.6514 88.7763 59.7714 88.7763 59.8514C88.7763 59.9314 88.7363 60.0514 88.6563 60.2114C88.5763 60.3447 88.5096 60.4514 88.4563 60.5314C88.163 60.9314 87.6963 61.4381 87.0563 62.0514C86.443 62.6647 86.043 62.9981 85.8563 63.0514C85.643 63.1047 85.5096 63.1847 85.4563 63.2914C85.4296 63.3447 84.9363 62.9181 83.9763 62.0114C83.0163 61.1047 81.9363 60.0647 80.7363 58.8914C77.6696 55.8781 76.0963 54.3714 76.0163 54.3714C75.9896 54.5581 75.963 54.9447 75.9363 55.5314C75.9096 56.1181 75.8963 56.8381 75.8963 57.6914C75.8963 58.5714 75.883 59.3847 75.8563 60.1314C75.8296 60.8781 75.7896 61.3181 75.7363 61.4514L75.6563 61.6914C75.6296 61.6914 75.603 61.5047 75.5763 61.1314V60.4114L75.4563 61.0114C75.2696 61.7581 74.9763 62.3981 74.5763 62.9314C74.4963 63.0381 74.4163 63.1047 74.3363 63.1314C74.283 63.1581 74.243 63.1314 74.2163 63.0514C74.1896 62.8914 74.043 62.8114 73.7763 62.8114C73.5363 62.8114 73.3763 62.8914 73.2963 63.0514C73.1896 63.2381 73.1363 63.2647 73.1363 63.1314C73.1363 62.9981 73.0296 62.9581 72.8163 63.0114H72.7363C72.603 63.0114 72.4163 62.9181 72.1763 62.7314C72.043 62.5714 71.9363 62.4914 71.8563 62.4914C71.803 62.4647 71.7363 62.5047 71.6563 62.6114C71.523 62.7447 71.4163 62.8114 71.3363 62.8114C70.8296 62.8114 70.4563 61.1714 70.2163 57.8914L70.1363 56.5314L69.8963 52.9314L69.6563 49.0114C69.6296 48.7714 69.6163 48.3447 69.6163 47.7314C69.6163 47.0914 69.6296 46.6514 69.6563 46.4114C69.763 45.3447 69.843 44.6914 69.8963 44.4514C69.9496 44.1847 70.0296 44.0781 70.1363 44.1314C70.2696 44.1847 70.363 44.1447 70.4163 44.0114C70.4696 43.8781 70.5363 43.8914 70.6163 44.0514C70.6696 44.1047 70.7096 44.1314 70.7363 44.1314C70.843 44.1314 70.9763 43.8647 71.1363 43.3314C71.2696 43.0114 71.923 42.8514 73.0963 42.8514C73.843 42.8514 74.3496 42.8781 74.6163 42.9314C74.9096 42.9581 75.1896 43.0247 75.4563 43.1314L75.8563 43.2514C76.0163 43.3047 76.1096 43.4247 76.1363 43.6114C76.163 43.7714 76.1763 44.3181 76.1763 45.2514V46.0914C76.1763 46.8114 76.1896 47.1847 76.2163 47.2114C76.2696 47.2647 76.6696 46.9981 77.4163 46.4114C78.1896 45.8247 78.803 45.3047 79.2563 44.8514C79.683 44.3981 80.0963 43.8381 80.4963 43.1714C80.923 42.4781 81.203 41.9047 81.3363 41.4514L81.4163 41.1314L79.6563 41.2114C78.8296 41.2647 77.5896 41.2914 75.9363 41.2914C74.0163 41.2914 72.683 41.2381 71.9363 41.1314C71.2963 41.0514 70.8696 40.9714 70.6563 40.8914C70.443 40.7847 70.3763 40.6647 70.4563 40.5314C70.5096 40.4781 70.4696 40.4514 70.3363 40.4514C70.203 40.4514 70.203 40.3847 70.3363 40.2514C70.363 40.2247 70.3763 40.1581 70.3763 40.0514C70.3763 39.9714 70.3363 39.8914 70.2563 39.8114C70.1763 39.7314 70.083 39.6914 69.9763 39.6914C69.6296 39.6914 69.4563 39.1714 69.4563 38.1314C69.4563 37.2514 69.4696 36.6647 69.4963 36.3714C69.5496 36.0514 69.643 35.6647 69.7763 35.2114L69.9763 34.5714L71.7363 34.6914C73.7363 34.7714 76.323 34.8514 79.4963 34.9314C83.5496 35.0381 85.683 35.1314 85.8963 35.2114C86.163 35.3181 86.4296 35.5181 86.6963 35.8114C86.9896 36.0781 87.2163 36.3847 87.3763 36.7314C87.483 36.9181 87.5496 37.0914 87.5763 37.2514C87.6296 37.4114 87.6563 37.6381 87.6563 37.9314C87.6563 43.1047 85.7496 47.1581 81.9363 50.0914L80.8563 50.9314L81.5363 51.5314C82.9496 52.7581 84.0963 53.7047 84.9763 54.3714C85.883 55.0381 86.5096 55.5181 86.8563 55.8114C87.203 56.1047 87.6296 56.5581 88.1363 57.1714ZM72.1763 40.4114C72.4163 40.4114 72.3896 40.3714 72.0963 40.2914C71.883 40.2114 71.6696 40.1714 71.4563 40.1714C71.1896 40.1714 71.2163 40.2114 71.5363 40.2914C71.9363 40.3714 72.1496 40.4114 72.1763 40.4114ZM70.6963 45.2114C70.723 44.7581 70.7096 44.6247 70.6563 44.8114C70.603 44.9981 70.563 45.2781 70.5363 45.6514C70.5096 45.9981 70.523 46.1447 70.5763 46.0914L70.6963 45.2114ZM88.3363 58.7314C88.363 58.7314 88.283 58.5981 88.0963 58.3314C87.883 58.0114 87.6963 57.8114 87.5363 57.7314C87.3763 57.5981 87.363 57.6247 87.4963 57.8114C87.9763 58.4247 88.2563 58.7314 88.3363 58.7314Z" fill="#00BBC4"/>
<path d="M96.7757 56.5714L98.2957 56.6914L103.936 56.9314C107.242 57.0381 108.896 57.1981 108.896 57.4114C108.896 57.4114 108.869 57.4247 108.816 57.4514C108.789 57.4514 108.736 57.4514 108.656 57.4514L108.136 57.4114C107.736 57.4114 107.602 57.4247 107.736 57.4514C108.376 57.5847 108.949 57.8114 109.456 58.1314C109.962 58.4247 110.122 58.6647 109.936 58.8514C109.829 58.9581 109.776 59.0914 109.776 59.2514C109.776 59.4647 109.856 59.6114 110.016 59.6914C110.069 59.7181 110.109 59.7581 110.136 59.8114C110.162 59.8381 110.149 59.8514 110.096 59.8514C109.962 59.8514 109.896 59.9181 109.896 60.0514C109.896 60.2114 109.962 60.2914 110.096 60.2914C110.149 60.2914 110.162 60.3181 110.136 60.3714C110.109 60.3981 110.069 60.4247 110.016 60.4514C109.856 60.5314 109.776 60.6514 109.776 60.8114C109.776 60.9447 109.696 61.0114 109.536 61.0114C109.402 61.0114 109.336 61.0381 109.336 61.0914C109.336 61.1447 109.402 61.2647 109.536 61.4514C109.642 61.5581 109.696 61.6381 109.696 61.6914C109.696 61.9047 109.482 62.0781 109.056 62.2114C108.656 62.3447 107.896 62.4514 106.776 62.5314C105.682 62.6114 104.042 62.6914 101.856 62.7714C99.909 62.8247 98.349 62.8781 97.1757 62.9314C96.029 62.9847 95.309 63.0381 95.0157 63.0914C94.749 63.1714 94.5223 63.3181 94.3357 63.5314C94.2023 63.6914 94.0957 63.7847 94.0157 63.8114C93.9623 63.8647 93.9357 63.8381 93.9357 63.7314C93.909 63.5981 93.8157 63.4781 93.6557 63.3714C93.4957 63.2647 93.3623 63.2514 93.2557 63.3314C93.149 63.3847 93.069 63.4781 93.0157 63.6114C92.989 63.6914 92.9623 63.7314 92.9357 63.7314C92.909 63.7314 92.8957 63.6914 92.8957 63.6114C92.8957 63.4247 92.829 63.3314 92.6957 63.3314C92.5623 63.3314 92.469 63.4247 92.4157 63.6114C92.4157 63.6914 92.4023 63.7181 92.3757 63.6914C92.349 63.6914 92.3357 63.6514 92.3357 63.5714C92.309 63.3847 92.2023 63.1981 92.0157 63.0114C91.829 62.8514 91.629 62.7581 91.4157 62.7314C91.2023 62.7314 91.0157 62.7047 90.8557 62.6514C90.7223 62.5981 90.629 62.5047 90.5757 62.3714C90.549 62.2381 90.6023 62.1714 90.7357 62.1714C90.789 62.1714 90.8023 62.1581 90.7757 62.1314C90.7757 62.0781 90.7357 62.0381 90.6557 62.0114C90.469 61.9047 90.4423 61.8114 90.5757 61.7314L90.6157 61.6514C90.6157 61.5981 90.4823 61.5314 90.2157 61.4514C89.9223 61.3714 89.7223 61.2247 89.6157 61.0114C89.5357 60.7714 89.4957 60.3047 89.4957 59.6114C89.4957 58.3047 89.589 57.4514 89.7757 57.0514C89.989 56.7314 90.069 56.5314 90.0157 56.4514C90.0157 56.3981 90.1757 56.3714 90.4957 56.3714H90.9757L91.0557 54.9314L91.1357 52.8914V52.2914H90.5357L89.5357 52.1714L89.4157 52.0914C89.4157 52.0647 89.6023 52.0514 89.9757 52.0514C90.509 51.9981 90.789 51.9581 90.8157 51.9314C90.869 51.8781 90.709 51.8514 90.3357 51.8514C90.069 51.8514 89.7223 51.7714 89.2957 51.6114C88.8957 51.4514 88.5623 51.2781 88.2957 51.0914C88.029 50.9047 87.9623 50.7714 88.0957 50.6914C88.1757 50.6114 88.2423 50.4781 88.2957 50.2914C88.349 50.1581 88.3623 50.0647 88.3357 50.0114C88.309 49.9581 88.2423 49.9047 88.1357 49.8514C88.0023 49.8247 87.9223 49.7981 87.8957 49.7714C87.8957 49.7447 87.949 49.6781 88.0557 49.5714C88.1623 49.4381 88.2023 49.3581 88.1757 49.3314C88.1757 49.3047 88.1223 49.2781 88.0157 49.2514C87.909 49.1981 87.8557 49.1581 87.8557 49.1314C87.8557 49.1047 87.909 49.0781 88.0157 49.0514C88.069 49.0247 88.1223 48.9847 88.1757 48.9314C88.229 48.8781 88.2557 48.8114 88.2557 48.7314C88.2557 48.5981 88.3223 48.5314 88.4557 48.5314C88.589 48.5314 88.6557 48.4914 88.6557 48.4114C88.6557 48.3047 88.589 48.1981 88.4557 48.0914C88.3757 47.9581 88.3357 47.8781 88.3357 47.8514C88.3357 47.7981 88.4023 47.7047 88.5357 47.5714C88.8023 47.3581 89.2557 47.1847 89.8957 47.0514L90.9357 46.8114L90.9757 46.2114C91.029 45.8381 90.9757 45.1981 90.8157 44.2914C90.6557 43.3314 90.5757 42.7314 90.5757 42.4914C90.5757 41.5581 90.429 41.0914 90.1357 41.0914C89.9757 41.0914 89.8823 41.0247 89.8557 40.8914C89.829 40.7314 89.8823 40.6514 90.0157 40.6514C90.069 40.6514 90.069 40.6381 90.0157 40.6114C89.989 40.5581 89.9357 40.5181 89.8557 40.4914C89.7223 40.4381 89.6423 40.3981 89.6157 40.3714C89.589 40.3181 89.629 40.2781 89.7357 40.2514C89.8157 40.1981 89.8557 40.1714 89.8557 40.1714C89.8557 40.1181 89.7223 40.0514 89.4557 39.9714C89.189 39.8914 89.0157 39.8114 88.9357 39.7314C88.8557 39.6247 88.7757 39.4114 88.6957 39.0914C88.6423 38.9047 88.6157 38.5447 88.6157 38.0114C88.6157 36.8647 88.7223 36.0114 88.9357 35.4514L89.1757 34.8514L96.6957 34.8914C102.322 34.8914 105.536 34.8647 106.336 34.8114C107.696 34.7581 108.349 34.7447 108.296 34.7714C108.109 34.8247 107.842 34.8781 107.496 34.9314C107.256 34.9581 107.136 34.9981 107.136 35.0514L107.936 35.1314C108.469 35.1847 108.962 35.3181 109.416 35.5314C109.896 35.7181 110.029 35.8514 109.816 35.9314C109.709 35.9847 109.656 36.0781 109.656 36.2114C109.656 36.2914 109.709 36.4647 109.816 36.7314C109.922 36.8914 109.976 37.0381 109.976 37.1714C109.976 37.3047 110.029 37.3714 110.136 37.3714H110.176C110.202 37.3714 110.216 37.3847 110.216 37.4114C110.216 37.4914 110.176 37.6114 110.096 37.7714C109.909 38.0381 109.789 38.1714 109.736 38.1714C109.656 38.1714 109.616 38.2114 109.616 38.2914C109.616 38.4247 109.722 38.5314 109.936 38.6114C110.069 38.6381 110.136 38.6781 110.136 38.7314C110.136 38.7847 110.002 38.9447 109.736 39.2114L109.256 39.7314V45.3714C109.256 47.9047 109.242 49.5181 109.216 50.2114C109.189 50.8781 109.109 51.3314 108.976 51.5714C108.816 51.9447 108.602 52.1581 108.336 52.2114C108.069 52.2647 106.122 52.2914 102.496 52.2914L97.0557 52.2514L96.9357 53.6914L96.7757 56.5714ZM97.0957 41.2114C97.069 41.2381 97.0557 41.5581 97.0557 42.1714C97.0557 43.0247 97.0823 43.9314 97.1357 44.8914C97.189 45.8514 97.2423 46.3314 97.2957 46.3314L99.3357 46.1714C100.696 46.0647 101.602 45.9714 102.056 45.8914L102.896 45.7314L102.976 43.2914V40.8114C102.922 40.7581 101.936 40.7981 100.016 40.9314C98.0957 41.0647 97.1223 41.1581 97.0957 41.2114ZM103.376 40.8114C103.349 40.8114 103.336 40.8914 103.336 41.0514C103.336 41.2114 103.349 41.3581 103.376 41.4914C103.402 41.5981 103.429 41.6647 103.456 41.6914C103.482 41.6914 103.496 41.5447 103.496 41.2514C103.496 40.9581 103.456 40.8114 103.376 40.8114ZM103.896 40.9314C103.869 40.8781 103.842 40.8781 103.816 40.9314C103.816 40.9581 103.816 41.0114 103.816 41.0914C103.816 41.1714 103.816 41.2381 103.816 41.2914C103.842 41.3447 103.869 41.3447 103.896 41.2914C103.949 41.1581 103.949 41.0381 103.896 40.9314ZM103.736 42.6514C103.736 42.6781 103.722 42.7314 103.696 42.8114C103.696 42.8914 103.696 42.9981 103.696 43.1314C103.696 43.3181 103.696 43.4647 103.696 43.5714C103.722 43.6514 103.749 43.6381 103.776 43.5314V42.7314L103.736 42.6514ZM103.736 44.5314C103.736 44.5581 103.722 44.6114 103.696 44.6914C103.696 44.7714 103.696 44.8781 103.696 45.0114C103.696 45.1981 103.696 45.3447 103.696 45.4514C103.722 45.5314 103.749 45.5181 103.776 45.4114V44.6114L103.736 44.5314Z" fill="#00BBC4"/>
<path d="M130.689 49.3714C130.849 49.5314 130.876 49.6114 130.769 49.6114C130.636 49.6114 130.596 49.7047 130.649 49.8914L130.689 50.0114C130.689 50.0914 130.623 50.2647 130.489 50.5314C130.383 50.6647 130.316 50.7581 130.289 50.8114C130.289 50.8647 130.329 50.9581 130.409 51.0914C130.489 51.1714 130.529 51.2514 130.529 51.3314C130.529 51.4114 130.449 51.5314 130.289 51.6914C129.969 51.9581 129.623 52.1047 129.249 52.1314C128.929 52.1847 128.729 52.2514 128.649 52.3314C128.596 52.4114 128.529 52.6114 128.449 52.9314C128.289 53.5447 127.943 54.3447 127.409 55.3314C126.903 56.2914 126.409 57.0514 125.929 57.6114C125.156 58.5181 124.236 59.3714 123.169 60.1714C122.129 60.9447 121.183 61.4914 120.329 61.8114C119.636 62.0781 118.823 62.2914 117.889 62.4514C116.956 62.6114 116.076 62.6914 115.249 62.6914C114.476 62.6914 113.863 62.6114 113.409 62.4514L113.009 62.3314C113.009 62.3047 113.076 62.2914 113.209 62.2914C113.876 62.2914 114.289 62.3047 114.449 62.3314C114.636 62.3314 114.729 62.3314 114.729 62.3314C114.463 62.3314 113.983 62.2247 113.289 62.0114C112.623 61.7981 112.249 61.6381 112.169 61.5314L111.689 61.1314C111.583 61.0247 111.503 60.9447 111.449 60.8914C111.396 60.8381 111.409 60.8114 111.489 60.8114C111.623 60.8114 111.716 60.7181 111.769 60.5314C111.849 60.3181 111.836 60.1447 111.729 60.0114C111.623 59.8514 111.596 59.7047 111.649 59.5714C111.703 59.5181 111.716 59.4647 111.689 59.4114C111.663 59.3581 111.623 59.3314 111.569 59.3314C111.543 59.3314 111.529 59.3181 111.529 59.2914C111.529 59.2381 111.609 59.1314 111.769 58.9714C112.063 58.7314 112.249 58.6114 112.329 58.6114C112.409 58.6114 112.449 58.5714 112.449 58.4914C112.449 58.3847 112.396 58.3047 112.289 58.2514C112.209 58.1981 112.169 58.1314 112.169 58.0514C112.169 57.8647 112.303 57.7314 112.569 57.6514C112.703 57.5714 113.343 57.4514 114.489 57.2914C115.796 57.1581 116.889 56.9181 117.769 56.5714C118.676 56.2247 119.463 55.7314 120.129 55.0914C120.503 54.7447 120.863 54.3314 121.209 53.8514C121.583 53.3714 121.769 53.0647 121.769 52.9314C121.769 52.8514 121.596 52.8114 121.249 52.8114C120.743 52.8114 120.023 52.8914 119.089 53.0514C118.476 53.1581 117.889 53.2114 117.329 53.2114C117.169 53.2114 116.556 53.1847 115.489 53.1314C113.463 53.0247 112.689 52.8247 113.169 52.5314C113.249 52.4781 113.263 52.4381 113.209 52.4114C113.183 52.3581 113.116 52.3181 113.009 52.2914C112.876 52.2647 112.796 52.2381 112.769 52.2114C112.769 52.1581 112.836 52.1181 112.969 52.0914C113.076 52.0381 113.129 51.9981 113.129 51.9714C113.129 51.9447 112.983 51.9047 112.689 51.8514C112.369 51.7981 112.143 51.6781 112.009 51.4914C111.903 51.3047 111.823 50.9314 111.769 50.3714C111.716 49.8381 111.769 48.9181 111.929 47.6114C112.089 46.2781 112.263 45.3181 112.449 44.7314C113.489 41.3447 116.049 38.4781 120.129 36.1314C120.983 35.6514 121.796 35.3047 122.569 35.0914C123.369 34.8781 124.263 34.7714 125.249 34.7714C126.183 34.7714 126.796 34.7981 127.089 34.8514C127.409 34.9047 127.569 35.0114 127.569 35.1714C127.569 35.3047 127.623 35.3714 127.729 35.3714C127.836 35.3714 127.836 35.4381 127.729 35.5714C127.649 35.6514 127.609 35.7181 127.609 35.7714C127.636 35.8247 127.716 35.8781 127.849 35.9314C128.063 36.0381 128.236 36.0914 128.369 36.0914C128.529 36.0914 128.623 36.1314 128.649 36.2114C128.836 36.5047 128.929 37.2647 128.929 38.4914C128.929 39.4781 128.863 40.1047 128.729 40.3714C128.543 40.6914 128.476 40.8781 128.529 40.9314C128.583 40.9847 128.383 41.0381 127.929 41.0914C127.503 41.1447 126.876 41.1847 126.049 41.2114C124.343 41.2914 122.809 41.7181 121.449 42.4914C120.089 43.2647 119.023 44.3314 118.249 45.6914C118.089 45.9314 117.969 46.1314 117.889 46.2914C117.809 46.4514 117.756 46.5714 117.729 46.6514L120.129 46.7714C120.663 46.7981 121.223 46.8114 121.809 46.8114C122.129 46.8114 122.316 46.7981 122.369 46.7714C122.449 46.7447 122.489 46.6781 122.489 46.5714C122.489 46.3847 122.543 46.2514 122.649 46.1714C122.756 46.0914 122.849 46.1181 122.929 46.2514C122.983 46.3847 123.049 46.3314 123.129 46.0914C123.156 45.9314 123.183 45.8514 123.209 45.8514C123.263 45.8514 123.316 45.9181 123.369 46.0514C123.396 46.0781 123.409 46.1181 123.409 46.1714C123.409 46.1981 123.423 46.2114 123.449 46.2114C123.503 46.2114 123.543 46.0514 123.569 45.7314C123.623 45.4381 123.689 45.2514 123.769 45.1714C123.876 45.0647 124.116 44.9447 124.489 44.8114C125.023 44.5981 125.316 44.5181 125.369 44.5714H125.489C125.863 44.5714 126.169 44.5581 126.409 44.5314C126.783 44.4781 127.063 44.4514 127.249 44.4514C127.516 44.4514 127.756 44.4781 127.969 44.5314L128.569 44.6914L128.769 45.8114C128.849 46.2914 128.916 46.5981 128.969 46.7314C129.049 46.8647 129.169 46.9581 129.329 47.0114C129.463 47.0381 129.516 47.0647 129.489 47.0914C129.489 47.1181 129.409 47.1314 129.249 47.1314C129.169 47.1314 129.103 47.1447 129.049 47.1714C128.996 47.1714 128.956 47.1714 128.929 47.1714C128.929 47.1981 129.103 47.2914 129.449 47.4514C130.409 47.8781 130.796 48.2647 130.609 48.6114C130.529 48.7714 130.489 48.8914 130.489 48.9714C130.489 49.1047 130.556 49.2381 130.689 49.3714ZM125.169 35.5714L125.889 35.6514C126.956 35.8114 127.276 35.8114 126.849 35.6514C126.636 35.5714 126.289 35.5314 125.809 35.5314L125.169 35.5714ZM123.209 45.4514C123.209 45.2647 123.249 45.2381 123.329 45.3714C123.356 45.4247 123.356 45.4781 123.329 45.5314C123.329 45.5847 123.316 45.6247 123.289 45.6514C123.236 45.7047 123.209 45.6381 123.209 45.4514ZM113.889 52.1714C114.156 52.1714 114.249 52.1581 114.169 52.1314C114.009 52.0781 113.836 52.0781 113.649 52.1314C113.569 52.1581 113.649 52.1714 113.889 52.1714ZM115.129 52.3314C115.263 52.3314 115.369 52.3314 115.449 52.3314C115.529 52.3047 115.543 52.2781 115.489 52.2514C115.436 52.2514 115.343 52.2514 115.209 52.2514C115.076 52.2247 114.969 52.2247 114.889 52.2514L114.809 52.2914C114.809 52.3181 114.916 52.3314 115.129 52.3314Z" fill="#00BBC4"/>
<path d="M149.314 42.7314C149.501 42.8381 149.554 43.0247 149.474 43.2914C149.448 43.3981 149.328 43.5314 149.114 43.6914C148.901 43.8514 148.528 44.0914 147.994 44.4114C147.301 44.7847 146.394 45.2247 145.274 45.7314C144.181 46.2114 143.568 46.4514 143.434 46.4514C143.354 46.4514 143.301 46.9981 143.274 48.0914C143.274 49.1847 143.274 51.1581 143.274 54.0114C143.248 58.1447 143.181 60.3047 143.074 60.4914C143.048 60.5714 143.008 60.6114 142.954 60.6114C142.954 60.6114 142.941 60.5981 142.914 60.5714C142.914 60.5447 142.914 60.5181 142.914 60.4914L142.954 60.0514L142.994 59.5314C142.994 59.2914 142.968 59.0914 142.914 58.9314C142.861 58.8247 142.821 58.7714 142.794 58.7714C142.768 58.7714 142.754 59.0114 142.754 59.4914C142.728 59.9714 142.674 60.3981 142.594 60.7714C142.514 61.1181 142.354 61.5181 142.114 61.9714C141.981 62.2647 141.874 62.4381 141.794 62.4914C141.741 62.5181 141.661 62.4781 141.554 62.3714C141.421 62.2381 141.274 62.1714 141.114 62.1714C140.928 62.1714 140.794 62.2647 140.714 62.4514C140.688 62.5581 140.661 62.6247 140.634 62.6514C140.608 62.6781 140.568 62.6381 140.514 62.5314C140.461 62.3714 140.381 62.2914 140.274 62.2914C140.194 62.2914 140.128 62.3714 140.074 62.5314C140.074 62.6114 140.061 62.6514 140.034 62.6514C140.008 62.6514 139.994 62.6247 139.994 62.5714C139.994 62.4647 139.888 62.3314 139.674 62.1714C139.488 62.0647 139.394 61.9181 139.394 61.7314C139.394 61.6247 139.381 61.5714 139.354 61.5714C139.328 61.5714 139.248 61.6514 139.114 61.8114C138.954 62.0247 138.834 62.1314 138.754 62.1314C138.701 62.1314 138.594 61.9847 138.434 61.6914C137.954 60.8114 137.608 57.6514 137.394 52.2114C137.368 50.3981 137.288 49.4914 137.154 49.4914C137.048 49.4914 136.488 49.6381 135.474 49.9314L133.954 50.3714L133.634 50.0114C133.368 49.7714 133.314 49.6381 133.474 49.6114C133.581 49.5581 133.434 49.5314 133.034 49.5314H132.914C132.648 49.5314 132.421 49.4781 132.234 49.3714C132.074 49.2647 131.994 49.1447 131.994 49.0114C131.994 48.8781 131.914 48.7581 131.754 48.6514C131.594 48.4914 131.448 48.1581 131.314 47.6514C131.234 47.3847 131.168 47.1581 131.114 46.9714C131.034 46.7581 130.981 46.5847 130.954 46.4514C130.874 46.2381 130.834 45.9047 130.834 45.4514L130.874 44.8514L132.194 44.3314L133.274 43.9314C134.421 43.5047 135.048 43.2647 135.154 43.2114L136.834 42.6114L136.794 40.9314C136.768 39.8647 136.808 38.7581 136.914 37.6114C137.021 36.4381 137.141 35.8514 137.274 35.8514C137.408 35.8514 137.501 35.9314 137.554 36.0914C137.554 36.1714 137.568 36.2114 137.594 36.2114C137.621 36.1847 137.634 36.1181 137.634 36.0114C137.634 35.8514 137.674 35.7581 137.754 35.7314C137.861 35.6781 137.928 35.7314 137.954 35.8914C137.954 35.9981 138.021 35.8914 138.154 35.5714C138.288 35.2781 138.474 35.0647 138.714 34.9314C138.901 34.8247 139.461 34.7714 140.394 34.7714C141.568 34.7714 142.328 34.8381 142.674 34.9714C142.888 35.0781 143.061 35.1314 143.194 35.1314C143.274 35.1314 143.314 35.9714 143.314 37.6514C143.314 39.3581 143.354 40.2114 143.434 40.2114C143.488 40.2114 144.008 40.0381 144.994 39.6914C145.981 39.3447 146.634 39.1714 146.954 39.1714L147.474 39.2114L146.914 39.4114C146.754 39.4381 146.528 39.5314 146.234 39.6914C146.208 39.7714 146.274 39.7847 146.434 39.7314C146.728 39.5981 147.021 39.5314 147.314 39.5314C147.554 39.5314 147.834 39.5847 148.154 39.6914C148.528 39.7981 148.754 39.8914 148.834 39.9714C148.914 40.0247 148.928 40.1447 148.874 40.3314V40.4914C148.874 40.6781 148.928 40.8247 149.034 40.9314C149.194 41.0381 149.274 41.1847 149.274 41.3714C149.274 41.5314 149.314 41.5981 149.394 41.5714C149.448 41.5181 149.474 41.5581 149.474 41.6914C149.474 41.8781 149.394 42.1047 149.234 42.3714C149.101 42.5047 149.128 42.6247 149.314 42.7314ZM138.034 35.4914C138.008 35.5181 137.981 35.5181 137.954 35.4914C137.954 35.4647 137.954 35.4114 137.954 35.3314C137.954 35.1447 137.981 35.1047 138.034 35.2114C138.088 35.3447 138.088 35.4381 138.034 35.4914ZM137.794 37.7314C137.874 37.3314 137.914 37.0914 137.914 37.0114C137.914 36.8514 137.901 36.7714 137.874 36.7714L137.794 37.0914C137.714 37.2781 137.674 37.5181 137.674 37.8114C137.674 38.0247 137.714 37.9981 137.794 37.7314ZM135.314 49.1314H135.274L134.954 49.1714C134.554 49.2247 134.288 49.2914 134.154 49.3714L134.114 49.4114L134.194 49.4514C134.328 49.4514 134.648 49.3581 135.154 49.1714L135.314 49.1314Z" fill="#00BBC4"/>
<path d="M166.826 59.4114C166.88 60.1047 166.866 60.4514 166.786 60.4514C166.733 60.4514 166.693 60.3047 166.666 60.0114C166.64 59.7714 166.6 59.5714 166.546 59.4114C166.493 59.2514 166.453 59.1581 166.426 59.1314C166.4 59.1047 166.4 59.1847 166.426 59.3714L166.466 60.0914C166.466 60.8114 166.413 61.4647 166.306 62.0514C166.2 62.6381 166.093 62.8381 165.986 62.6514C165.96 62.5981 165.893 62.5447 165.786 62.4914C165.706 62.4381 165.613 62.4114 165.506 62.4114C165.373 62.4114 165.28 62.4247 165.226 62.4514C165.173 62.4781 165.133 62.5447 165.106 62.6514C165.08 62.7847 165.04 62.8514 164.986 62.8514C164.96 62.8781 164.893 62.8647 164.786 62.8114C164.68 62.7847 164.6 62.7714 164.546 62.7714C164.52 62.7981 164.52 62.8781 164.546 63.0114C164.546 63.1714 164.52 63.1981 164.466 63.0914C164.36 62.9314 164.226 62.8514 164.066 62.8514C163.88 62.7981 163.733 62.6647 163.626 62.4514L163.466 62.0914L163.266 62.5714C163.186 62.7847 163.133 62.9047 163.106 62.9314C163.08 62.9581 163.013 62.9181 162.906 62.8114L162.466 62.4114C162.28 62.2247 162.066 61.2114 161.826 59.3714C161.586 57.5047 161.426 56.2381 161.346 55.5714H156.946L156.826 57.9314C156.773 59.4247 156.693 60.3981 156.586 60.8514L156.466 61.4514V60.7714C156.52 59.9447 156.506 59.5314 156.426 59.5314C156.373 59.5314 156.333 59.7447 156.306 60.1714C156.28 60.5714 156.186 61.0247 156.026 61.5314C155.866 62.0114 155.693 62.3981 155.506 62.6914C155.32 62.9581 155.186 63.0381 155.106 62.9314C155 62.7447 154.84 62.6514 154.626 62.6514C154.466 62.6514 154.32 62.7581 154.186 62.9714C154.133 63.0781 154.08 63.1447 154.026 63.1714C154 63.1981 153.986 63.1581 153.986 63.0514C153.986 62.8914 153.906 62.8247 153.746 62.8514H153.626C153.36 62.8514 153.106 62.6247 152.866 62.1714C152.786 62.0381 152.733 61.9714 152.706 61.9714C152.706 61.9714 152.64 62.0781 152.506 62.2914C152.426 62.4781 152.346 62.5714 152.266 62.5714C152.186 62.5714 152.066 62.3981 151.906 62.0514C151.666 61.5181 151.466 60.2514 151.306 58.2514C151.173 56.2514 151.093 53.8381 151.066 51.0114C151.066 49.0914 151.013 47.0647 150.906 44.9314C150.8 43.1981 150.746 41.6914 150.746 40.4114C150.746 39.2381 150.8 38.2381 150.906 37.4114C151.04 36.4247 151.173 35.9314 151.306 35.9314C151.44 35.9314 151.506 36.0247 151.506 36.2114C151.533 36.3447 151.586 36.3047 151.666 36.0914C151.773 35.8247 151.866 35.7714 151.946 35.9314C152 36.0114 152.04 36.0381 152.066 36.0114C152.12 35.9581 152.16 35.8781 152.186 35.7714C152.24 35.5047 152.333 35.3181 152.466 35.2114C152.6 35.1047 152.84 35.0381 153.186 35.0114C153.666 34.9581 155.733 34.9047 159.386 34.8514L163.346 34.7714C164.466 34.7714 165.066 34.8381 165.146 34.9714C165.306 35.1314 165.52 35.2381 165.786 35.2914L166.226 35.3714L166.146 37.6514C166.066 38.9314 166.026 41.5181 166.026 45.4114C166.026 47.9447 166.226 51.6514 166.626 56.5314C166.76 58.0781 166.826 59.0381 166.826 59.4114ZM152.026 35.6114C151.973 35.6647 151.946 35.5981 151.946 35.4114C151.946 35.3581 151.96 35.3181 151.986 35.2914C152.013 35.2647 152.04 35.2781 152.066 35.3314C152.12 35.4914 152.106 35.5847 152.026 35.6114ZM157.946 40.3314C157.92 40.3314 157.893 40.3447 157.866 40.3714C157.84 40.3714 157.826 40.3714 157.826 40.3714C157.853 40.3714 157.92 40.3847 158.026 40.4114C158.16 40.4114 158.32 40.4114 158.506 40.4114C158.746 40.4114 158.933 40.4114 159.066 40.4114C159.2 40.3847 159.186 40.3581 159.026 40.3314C158.946 40.3047 158.773 40.2914 158.506 40.2914C158.24 40.2914 158.053 40.3047 157.946 40.3314ZM158.546 49.2114L160.066 49.1314L160.026 48.7714C159.973 48.3981 159.92 47.6514 159.866 46.5314C159.84 45.6514 159.76 44.4647 159.626 42.9714L159.466 41.1714H158.386C157.693 41.1714 157.32 41.2114 157.266 41.2914C157.213 41.3447 157.16 42.6914 157.106 45.3314L156.986 49.2514L158.546 49.2114ZM157.026 54.5714C156.973 54.5981 156.96 54.6247 156.986 54.6514C157.013 54.6781 157.053 54.6914 157.106 54.6914C157.293 54.6914 157.36 54.6647 157.306 54.6114C157.2 54.5581 157.106 54.5447 157.026 54.5714ZM159.226 54.6514C159.306 54.6514 159.36 54.6514 159.386 54.6514C159.44 54.6247 159.44 54.5981 159.386 54.5714H159.026C158.973 54.5981 158.973 54.6247 159.026 54.6514C159.08 54.6514 159.146 54.6514 159.226 54.6514ZM160.386 54.8114C160.546 54.8114 160.666 54.8114 160.746 54.8114C160.826 54.7847 160.813 54.7581 160.706 54.7314C160.653 54.7047 160.546 54.6914 160.386 54.6914C160.226 54.6914 160.12 54.7047 160.066 54.7314L159.986 54.7714C159.986 54.7981 160.12 54.8114 160.386 54.8114ZM157.266 55.0914C157.373 55.0914 157.453 55.0914 157.506 55.0914C157.56 55.0647 157.56 55.0381 157.506 55.0114C157.4 54.9581 157.253 54.9581 157.066 55.0114C157.013 55.0381 157 55.0647 157.026 55.0914C157.08 55.0914 157.16 55.0914 157.266 55.0914Z" fill="#00BBC4"/>
<path d="M186.6 36.2114C186.707 36.9314 186.76 37.7847 186.76 38.7714C186.76 40.7981 186.547 42.6247 186.12 44.2514C185.987 44.7047 185.787 45.2781 185.52 45.9714C185.253 46.6647 185 47.2247 184.76 47.6514C184.573 48.0247 184.187 48.5581 183.6 49.2514C183.013 49.9181 182.587 50.3181 182.32 50.4514C182.213 50.5047 182.147 50.5181 182.12 50.4914C182.12 50.4647 182.16 50.4114 182.24 50.3314C182.48 50.0381 182.6 49.8647 182.6 49.8114C182.6 49.7581 182.493 49.8114 182.28 49.9714C181.933 50.1847 181.573 50.3181 181.2 50.3714C181.093 50.3981 180.973 50.4114 180.84 50.4114C180.733 50.4114 180.653 50.3981 180.6 50.3714C180.547 50.3181 180.493 50.2247 180.44 50.0914C180.333 49.8781 180.187 49.7447 180 49.6914C179.813 49.6914 179.667 49.6114 179.56 49.4514C179.533 49.3981 179.493 49.3581 179.44 49.3314C179.413 49.3047 179.387 49.3047 179.36 49.3314H179.32C179.24 49.3314 179.16 49.2381 179.08 49.0514C179.027 48.8647 179.013 48.7047 179.04 48.5714C179.04 48.4381 178.947 48.3714 178.76 48.3714C178.44 48.3714 178.28 48.2114 178.28 47.8914C178.28 47.5981 178.4 47.2381 178.64 46.8114L179.56 45.0514C179.773 44.5981 179.973 44.0514 180.16 43.4114C180.347 42.7714 180.4 42.4114 180.32 42.3314C180.267 42.2781 179.627 42.5447 178.4 43.1314C177.173 43.6914 176.373 44.0914 176 44.3314C175.573 44.5714 175.36 44.7847 175.36 44.9714L175.16 49.5314C174.92 54.4647 174.48 58.1181 173.84 60.4914C173.68 61.0781 173.573 61.3714 173.52 61.3714C173.52 61.3714 173.507 61.3581 173.48 61.3314C173.48 61.3047 173.48 61.2781 173.48 61.2514C173.48 61.0914 173.52 60.8381 173.6 60.4914C173.707 59.9047 173.76 59.5581 173.76 59.4514V59.3714C173.707 59.3714 173.64 59.5714 173.56 59.9714C173.373 60.8781 172.933 61.7847 172.24 62.6914C172.08 62.8781 171.96 62.9981 171.88 63.0514C171.8 63.1047 171.76 63.0647 171.76 62.9314C171.76 62.7181 171.667 62.5714 171.48 62.4914L171.28 62.4114C171.173 62.4114 171.08 62.4781 171 62.6114C170.867 62.8781 170.773 62.9047 170.72 62.6914C170.667 62.5581 170.587 62.4914 170.48 62.4914C170.4 62.4914 170.333 62.5714 170.28 62.7314C170.28 62.8114 170.267 62.8381 170.24 62.8114C170.213 62.8114 170.2 62.7581 170.2 62.6514C170.2 62.5714 170.173 62.4914 170.12 62.4114C170.067 62.3314 170.013 62.2781 169.96 62.2514C169.8 62.1447 169.72 61.9847 169.72 61.7714V61.4114L169.36 61.7314C169.2 61.8914 169.093 61.9847 169.04 62.0114C169.013 62.0114 168.973 61.9447 168.92 61.8114C168.867 61.5981 168.8 61.4114 168.72 61.2514C168.693 61.1981 168.68 61.0514 168.68 60.8114C168.68 60.1181 168.813 57.9047 169.08 54.1714C169.213 51.8514 169.28 49.8381 169.28 48.1314L169.24 45.8514L168.8 45.8914H168.64C168.507 45.8914 168.387 45.8514 168.28 45.7714C168.2 45.6914 168.067 45.5047 167.88 45.2114C167.56 44.6781 167.4 44.3581 167.4 44.2514C167.4 44.0914 167.36 43.9981 167.28 43.9714C167.2 43.8914 167.093 43.5981 166.96 43.0914C166.853 42.5581 166.8 42.1447 166.8 41.8514V41.6514C166.8 41.4914 166.84 41.3714 166.92 41.2914C167.027 41.2114 167.28 41.0781 167.68 40.8914L168.6 40.4514V38.0114C168.573 36.9714 168.573 36.3047 168.6 36.0114C168.627 35.7181 168.693 35.5714 168.8 35.5714C168.907 35.5714 168.987 35.6381 169.04 35.7714C169.04 35.8247 169.053 35.8247 169.08 35.7714C169.133 35.7181 169.173 35.6514 169.2 35.5714C169.253 35.4114 169.293 35.3314 169.32 35.3314C169.347 35.3314 169.387 35.3981 169.44 35.5314C169.44 35.5581 169.44 35.5847 169.44 35.6114C169.467 35.6381 169.48 35.6514 169.48 35.6514C169.507 35.6514 169.573 35.5047 169.68 35.2114C169.733 34.9714 169.8 34.8114 169.88 34.7314C169.987 34.6247 170.16 34.5314 170.4 34.4514C171.013 34.2647 171.84 34.1714 172.88 34.1714C173.44 34.1714 173.867 34.2114 174.16 34.2914L174.8 34.4514L174.88 35.4114L174.96 37.1314C174.96 37.6647 175.027 37.9314 175.16 37.9314C175.427 37.9314 176.76 37.4114 179.16 36.3714C179.96 36.0514 180.533 35.8114 180.88 35.6514C181.253 35.4647 181.507 35.3047 181.64 35.1714C181.747 35.0647 181.893 35.0114 182.08 35.0114C182.24 35.0114 182.373 34.9581 182.48 34.8514C182.64 34.6914 183.213 34.6114 184.2 34.6114C185 34.6114 185.56 34.6781 185.88 34.8114C186.147 34.9447 186.307 35.0647 186.36 35.1714C186.413 35.2781 186.493 35.6247 186.6 36.2114ZM169.4 37.3714C169.453 37.1314 169.453 36.9181 169.4 36.7314L169.36 36.6514V37.0514C169.36 37.3714 169.373 37.4781 169.4 37.3714Z" fill="#00BBC4"/>
<path d="M204.861 42.7314C205.048 42.8381 205.101 43.0247 205.021 43.2914C204.995 43.3981 204.875 43.5314 204.661 43.6914C204.448 43.8514 204.075 44.0914 203.541 44.4114C202.848 44.7847 201.941 45.2247 200.821 45.7314C199.728 46.2114 199.115 46.4514 198.981 46.4514C198.901 46.4514 198.848 46.9981 198.821 48.0914C198.821 49.1847 198.821 51.1581 198.821 54.0114C198.795 58.1447 198.728 60.3047 198.621 60.4914C198.595 60.5714 198.555 60.6114 198.501 60.6114C198.501 60.6114 198.488 60.5981 198.461 60.5714C198.461 60.5447 198.461 60.5181 198.461 60.4914L198.501 60.0514L198.541 59.5314C198.541 59.2914 198.515 59.0914 198.461 58.9314C198.408 58.8247 198.368 58.7714 198.341 58.7714C198.315 58.7714 198.301 59.0114 198.301 59.4914C198.275 59.9714 198.221 60.3981 198.141 60.7714C198.061 61.1181 197.901 61.5181 197.661 61.9714C197.528 62.2647 197.421 62.4381 197.341 62.4914C197.288 62.5181 197.208 62.4781 197.101 62.3714C196.968 62.2381 196.821 62.1714 196.661 62.1714C196.475 62.1714 196.341 62.2647 196.261 62.4514C196.235 62.5581 196.208 62.6247 196.181 62.6514C196.155 62.6781 196.115 62.6381 196.061 62.5314C196.008 62.3714 195.928 62.2914 195.821 62.2914C195.741 62.2914 195.675 62.3714 195.621 62.5314C195.621 62.6114 195.608 62.6514 195.581 62.6514C195.555 62.6514 195.541 62.6247 195.541 62.5714C195.541 62.4647 195.435 62.3314 195.221 62.1714C195.035 62.0647 194.941 61.9181 194.941 61.7314C194.941 61.6247 194.928 61.5714 194.901 61.5714C194.875 61.5714 194.795 61.6514 194.661 61.8114C194.501 62.0247 194.381 62.1314 194.301 62.1314C194.248 62.1314 194.141 61.9847 193.981 61.6914C193.501 60.8114 193.155 57.6514 192.941 52.2114C192.915 50.3981 192.835 49.4914 192.701 49.4914C192.595 49.4914 192.035 49.6381 191.021 49.9314L189.501 50.3714L189.181 50.0114C188.915 49.7714 188.861 49.6381 189.021 49.6114C189.128 49.5581 188.981 49.5314 188.581 49.5314H188.461C188.195 49.5314 187.968 49.4781 187.781 49.3714C187.621 49.2647 187.541 49.1447 187.541 49.0114C187.541 48.8781 187.461 48.7581 187.301 48.6514C187.141 48.4914 186.995 48.1581 186.861 47.6514C186.781 47.3847 186.715 47.1581 186.661 46.9714C186.581 46.7581 186.528 46.5847 186.501 46.4514C186.421 46.2381 186.381 45.9047 186.381 45.4514L186.421 44.8514L187.741 44.3314L188.821 43.9314C189.968 43.5047 190.595 43.2647 190.701 43.2114L192.381 42.6114L192.341 40.9314C192.315 39.8647 192.355 38.7581 192.461 37.6114C192.568 36.4381 192.688 35.8514 192.821 35.8514C192.955 35.8514 193.048 35.9314 193.101 36.0914C193.101 36.1714 193.115 36.2114 193.141 36.2114C193.168 36.1847 193.181 36.1181 193.181 36.0114C193.181 35.8514 193.221 35.7581 193.301 35.7314C193.408 35.6781 193.475 35.7314 193.501 35.8914C193.501 35.9981 193.568 35.8914 193.701 35.5714C193.835 35.2781 194.021 35.0647 194.261 34.9314C194.448 34.8247 195.008 34.7714 195.941 34.7714C197.115 34.7714 197.875 34.8381 198.221 34.9714C198.435 35.0781 198.608 35.1314 198.741 35.1314C198.821 35.1314 198.861 35.9714 198.861 37.6514C198.861 39.3581 198.901 40.2114 198.981 40.2114C199.035 40.2114 199.555 40.0381 200.541 39.6914C201.528 39.3447 202.181 39.1714 202.501 39.1714L203.021 39.2114L202.461 39.4114C202.301 39.4381 202.075 39.5314 201.781 39.6914C201.755 39.7714 201.821 39.7847 201.981 39.7314C202.275 39.5981 202.568 39.5314 202.861 39.5314C203.101 39.5314 203.381 39.5847 203.701 39.6914C204.075 39.7981 204.301 39.8914 204.381 39.9714C204.461 40.0247 204.475 40.1447 204.421 40.3314V40.4914C204.421 40.6781 204.475 40.8247 204.581 40.9314C204.741 41.0381 204.821 41.1847 204.821 41.3714C204.821 41.5314 204.861 41.5981 204.941 41.5714C204.995 41.5181 205.021 41.5581 205.021 41.6914C205.021 41.8781 204.941 42.1047 204.781 42.3714C204.648 42.5047 204.675 42.6247 204.861 42.7314ZM193.581 35.4914C193.555 35.5181 193.528 35.5181 193.501 35.4914C193.501 35.4647 193.501 35.4114 193.501 35.3314C193.501 35.1447 193.528 35.1047 193.581 35.2114C193.635 35.3447 193.635 35.4381 193.581 35.4914ZM193.341 37.7314C193.421 37.3314 193.461 37.0914 193.461 37.0114C193.461 36.8514 193.448 36.7714 193.421 36.7714L193.341 37.0914C193.261 37.2781 193.221 37.5181 193.221 37.8114C193.221 38.0247 193.261 37.9981 193.341 37.7314ZM190.861 49.1314H190.821L190.501 49.1714C190.101 49.2247 189.835 49.2914 189.701 49.3714L189.661 49.4114L189.741 49.4514C189.875 49.4514 190.195 49.3581 190.701 49.1714L190.861 49.1314Z" fill="#00BBC4"/>
</svg>
