<svg width="274" height="130" viewBox="0 0 274 130" fill="none" xmlns="http://www.w3.org/2000/svg">
<g clip-path="url(#clip0_30_637)">
<g filter="url(#filter0_d_30_637)">
<path fill-rule="evenodd" clip-rule="evenodd" d="M15.2136 29.9492H258.788C267.072 29.9492 274 36.6712 274 45.0327V114.77C274 123.131 267.072 130 258.788 130H15.2136C6.92732 130 -0.00012207 123.131 -0.00012207 114.77V45.0327C-0.00012207 36.6712 6.92732 29.9492 15.2136 29.9492Z" fill="#1C1C1C"/>
<path fill-rule="evenodd" clip-rule="evenodd" d="M14.6098 29.0551H259.388C267.522 29.0551 273.998 35.4756 273.998 43.3901V110.14C273.998 118.203 267.522 124.624 259.388 124.624H14.6098C6.62619 124.624 -0.00012207 118.203 -0.00012207 110.14V43.3901C-0.00012207 35.4756 6.62619 29.0551 14.6098 29.0551Z" fill="#353535"/>
<path fill-rule="evenodd" clip-rule="evenodd" d="M15.2136 21.5876H258.788C267.072 21.5876 274 28.4565 274 36.6711V106.556C274 114.921 267.072 121.638 258.788 121.638H15.2136C6.92732 121.638 -0.00012207 114.919 -0.00012207 106.556V36.6711C-0.00012207 28.4565 6.92732 21.5876 15.2136 21.5876Z" fill="#1C1C1C"/>
<path fill-rule="evenodd" clip-rule="evenodd" d="M23.9493 18.0953H248.092C255.926 18.0953 262.251 23.9652 262.251 31.0937V91.4684C262.251 98.5968 255.925 104.467 248.092 104.467H23.9493C16.2698 104.467 9.94312 98.5968 9.94312 91.4684V31.0937C9.94312 23.9652 16.2698 18.0953 23.9493 18.0953Z" fill="#19CFD8"/>
<path fill-rule="evenodd" clip-rule="evenodd" d="M23.9493 8.68665H248.092C255.926 8.68665 262.251 14.9601 262.251 22.5761V87.0865C262.251 94.6995 255.925 100.973 248.092 100.973H23.9493C16.2698 100.973 9.94312 94.6995 9.94312 87.0865V22.5761C9.94312 14.9601 16.2698 8.68665 23.9493 8.68665Z" fill="#48F6FF"/>
<path fill-rule="evenodd" clip-rule="evenodd" d="M23.9493 6.00003H248.092C255.926 6.00003 262.251 12.272 262.251 19.8865V84.3984C262.251 92.0114 255.925 98.2864 248.092 98.2864H23.9493C16.2698 98.2864 9.94312 92.0114 9.94312 84.3984V19.8865C9.94312 12.272 16.2698 6.00003 23.9493 6.00003Z" fill="#18EBFF"/>
<path d="M88.1363 62.7457C88.5363 63.2257 88.7896 63.5591 88.8963 63.7457C89.003 63.9324 89.0163 64.0524 88.9363 64.1057C88.7763 64.2124 88.723 64.3324 88.7763 64.4657C88.8296 64.5991 88.7763 64.6257 88.6163 64.5457C88.4563 64.4924 88.3896 64.5057 88.4163 64.5857L88.6563 65.0657C88.7363 65.2257 88.7763 65.3457 88.7763 65.4257C88.7763 65.5057 88.7363 65.6257 88.6563 65.7857C88.5763 65.9191 88.5096 66.0257 88.4563 66.1057C88.163 66.5057 87.6963 67.0124 87.0563 67.6257C86.443 68.2391 86.043 68.5724 85.8563 68.6257C85.643 68.6791 85.5096 68.7591 85.4563 68.8657C85.4296 68.9191 84.9363 68.4924 83.9763 67.5857C83.0163 66.6791 81.9363 65.6391 80.7363 64.4657C77.6696 61.4524 76.0963 59.9457 76.0163 59.9457C75.9896 60.1324 75.963 60.5191 75.9363 61.1057C75.9096 61.6924 75.8963 62.4124 75.8963 63.2657C75.8963 64.1457 75.883 64.9591 75.8563 65.7057C75.8296 66.4524 75.7896 66.8924 75.7363 67.0257L75.6563 67.2657C75.6296 67.2657 75.603 67.0791 75.5763 66.7057V65.9857L75.4563 66.5857C75.2696 67.3324 74.9763 67.9724 74.5763 68.5057C74.4963 68.6124 74.4163 68.6791 74.3363 68.7057C74.283 68.7324 74.243 68.7057 74.2163 68.6257C74.1896 68.4657 74.043 68.3857 73.7763 68.3857C73.5363 68.3857 73.3763 68.4657 73.2963 68.6257C73.1896 68.8124 73.1363 68.8391 73.1363 68.7057C73.1363 68.5724 73.0296 68.5324 72.8163 68.5857H72.7363C72.603 68.5857 72.4163 68.4924 72.1763 68.3057C72.043 68.1457 71.9363 68.0657 71.8563 68.0657C71.803 68.0391 71.7363 68.0791 71.6563 68.1857C71.523 68.3191 71.4163 68.3857 71.3363 68.3857C70.8296 68.3857 70.4563 66.7457 70.2163 63.4657L70.1363 62.1057L69.8963 58.5057L69.6563 54.5857C69.6296 54.3457 69.6163 53.9191 69.6163 53.3057C69.6163 52.6657 69.6296 52.2257 69.6563 51.9857C69.763 50.9191 69.843 50.2657 69.8963 50.0257C69.9496 49.7591 70.0296 49.6524 70.1363 49.7057C70.2696 49.7591 70.363 49.7191 70.4163 49.5857C70.4696 49.4524 70.5363 49.4657 70.6163 49.6257C70.6696 49.6791 70.7096 49.7057 70.7363 49.7057C70.843 49.7057 70.9763 49.4391 71.1363 48.9057C71.2696 48.5857 71.923 48.4257 73.0963 48.4257C73.843 48.4257 74.3496 48.4524 74.6163 48.5057C74.9096 48.5324 75.1896 48.5991 75.4563 48.7057L75.8563 48.8257C76.0163 48.8791 76.1096 48.9991 76.1363 49.1857C76.163 49.3457 76.1763 49.8924 76.1763 50.8257V51.6657C76.1763 52.3857 76.1896 52.7591 76.2163 52.7857C76.2696 52.8391 76.6696 52.5724 77.4163 51.9857C78.1896 51.3991 78.803 50.8791 79.2563 50.4257C79.683 49.9724 80.0963 49.4124 80.4963 48.7457C80.923 48.0524 81.203 47.4791 81.3363 47.0257L81.4163 46.7057L79.6563 46.7857C78.8296 46.8391 77.5896 46.8657 75.9363 46.8657C74.0163 46.8657 72.683 46.8124 71.9363 46.7057C71.2963 46.6257 70.8696 46.5457 70.6563 46.4657C70.443 46.3591 70.3763 46.2391 70.4563 46.1057C70.5096 46.0524 70.4696 46.0257 70.3363 46.0257C70.203 46.0257 70.203 45.9591 70.3363 45.8257C70.363 45.7991 70.3763 45.7324 70.3763 45.6257C70.3763 45.5457 70.3363 45.4657 70.2563 45.3857C70.1763 45.3057 70.083 45.2657 69.9763 45.2657C69.6296 45.2657 69.4563 44.7457 69.4563 43.7057C69.4563 42.8257 69.4696 42.2391 69.4963 41.9457C69.5496 41.6257 69.643 41.2391 69.7763 40.7857L69.9763 40.1457L71.7363 40.2657C73.7363 40.3457 76.323 40.4257 79.4963 40.5057C83.5496 40.6124 85.683 40.7057 85.8963 40.7857C86.163 40.8924 86.4296 41.0924 86.6963 41.3857C86.9896 41.6524 87.2163 41.9591 87.3763 42.3057C87.483 42.4924 87.5496 42.6657 87.5763 42.8257C87.6296 42.9857 87.6563 43.2124 87.6563 43.5057C87.6563 48.6791 85.7496 52.7324 81.9363 55.6657L80.8563 56.5057L81.5363 57.1057C82.9496 58.3324 84.0963 59.2791 84.9763 59.9457C85.883 60.6124 86.5096 61.0924 86.8563 61.3857C87.203 61.6791 87.6296 62.1324 88.1363 62.7457ZM72.1763 45.9857C72.4163 45.9857 72.3896 45.9457 72.0963 45.8657C71.883 45.7857 71.6696 45.7457 71.4563 45.7457C71.1896 45.7457 71.2163 45.7857 71.5363 45.8657C71.9363 45.9457 72.1496 45.9857 72.1763 45.9857ZM70.6963 50.7857C70.723 50.3324 70.7096 50.1991 70.6563 50.3857C70.603 50.5724 70.563 50.8524 70.5363 51.2257C70.5096 51.5724 70.523 51.7191 70.5763 51.6657L70.6963 50.7857ZM88.3363 64.3057C88.363 64.3057 88.283 64.1724 88.0963 63.9057C87.883 63.5857 87.6963 63.3857 87.5363 63.3057C87.3763 63.1724 87.363 63.1991 87.4963 63.3857C87.9763 63.9991 88.2563 64.3057 88.3363 64.3057Z" fill="white"/>
<path d="M96.7757 62.1457L98.2957 62.2657L103.936 62.5057C107.242 62.6124 108.896 62.7724 108.896 62.9857C108.896 62.9857 108.869 62.9991 108.816 63.0257C108.789 63.0257 108.736 63.0257 108.656 63.0257L108.136 62.9857C107.736 62.9857 107.602 62.9991 107.736 63.0257C108.376 63.1591 108.949 63.3857 109.456 63.7057C109.962 63.9991 110.122 64.2391 109.936 64.4257C109.829 64.5324 109.776 64.6657 109.776 64.8257C109.776 65.0391 109.856 65.1857 110.016 65.2657C110.069 65.2924 110.109 65.3324 110.136 65.3857C110.162 65.4124 110.149 65.4257 110.096 65.4257C109.962 65.4257 109.896 65.4924 109.896 65.6257C109.896 65.7857 109.962 65.8657 110.096 65.8657C110.149 65.8657 110.162 65.8924 110.136 65.9457C110.109 65.9724 110.069 65.9991 110.016 66.0257C109.856 66.1057 109.776 66.2257 109.776 66.3857C109.776 66.5191 109.696 66.5857 109.536 66.5857C109.402 66.5857 109.336 66.6124 109.336 66.6657C109.336 66.7191 109.402 66.8391 109.536 67.0257C109.642 67.1324 109.696 67.2124 109.696 67.2657C109.696 67.4791 109.482 67.6524 109.056 67.7857C108.656 67.9191 107.896 68.0257 106.776 68.1057C105.682 68.1857 104.042 68.2657 101.856 68.3457C99.909 68.3991 98.349 68.4524 97.1757 68.5057C96.029 68.5591 95.309 68.6124 95.0157 68.6657C94.749 68.7457 94.5223 68.8924 94.3357 69.1057C94.2023 69.2657 94.0957 69.3591 94.0157 69.3857C93.9623 69.4391 93.9357 69.4124 93.9357 69.3057C93.909 69.1724 93.8157 69.0524 93.6557 68.9457C93.4957 68.8391 93.3623 68.8257 93.2557 68.9057C93.149 68.9591 93.069 69.0524 93.0157 69.1857C92.989 69.2657 92.9623 69.3057 92.9357 69.3057C92.909 69.3057 92.8957 69.2657 92.8957 69.1857C92.8957 68.9991 92.829 68.9057 92.6957 68.9057C92.5623 68.9057 92.469 68.9991 92.4157 69.1857C92.4157 69.2657 92.4023 69.2924 92.3757 69.2657C92.349 69.2657 92.3357 69.2257 92.3357 69.1457C92.309 68.9591 92.2023 68.7724 92.0157 68.5857C91.829 68.4257 91.629 68.3324 91.4157 68.3057C91.2023 68.3057 91.0157 68.2791 90.8557 68.2257C90.7223 68.1724 90.629 68.0791 90.5757 67.9457C90.549 67.8124 90.6023 67.7457 90.7357 67.7457C90.789 67.7457 90.8023 67.7324 90.7757 67.7057C90.7757 67.6524 90.7357 67.6124 90.6557 67.5857C90.469 67.4791 90.4423 67.3857 90.5757 67.3057L90.6157 67.2257C90.6157 67.1724 90.4823 67.1057 90.2157 67.0257C89.9223 66.9457 89.7223 66.7991 89.6157 66.5857C89.5357 66.3457 89.4957 65.8791 89.4957 65.1857C89.4957 63.8791 89.589 63.0257 89.7757 62.6257C89.989 62.3057 90.069 62.1057 90.0157 62.0257C90.0157 61.9724 90.1757 61.9457 90.4957 61.9457H90.9757L91.0557 60.5057L91.1357 58.4657V57.8657H90.5357L89.5357 57.7457L89.4157 57.6657C89.4157 57.6391 89.6023 57.6257 89.9757 57.6257C90.509 57.5724 90.789 57.5324 90.8157 57.5057C90.869 57.4524 90.709 57.4257 90.3357 57.4257C90.069 57.4257 89.7223 57.3457 89.2957 57.1857C88.8957 57.0257 88.5623 56.8524 88.2957 56.6657C88.029 56.4791 87.9623 56.3457 88.0957 56.2657C88.1757 56.1857 88.2423 56.0524 88.2957 55.8657C88.349 55.7324 88.3623 55.6391 88.3357 55.5857C88.309 55.5324 88.2423 55.4791 88.1357 55.4257C88.0023 55.3991 87.9223 55.3724 87.8957 55.3457C87.8957 55.3191 87.949 55.2524 88.0557 55.1457C88.1623 55.0124 88.2023 54.9324 88.1757 54.9057C88.1757 54.8791 88.1223 54.8524 88.0157 54.8257C87.909 54.7724 87.8557 54.7324 87.8557 54.7057C87.8557 54.6791 87.909 54.6524 88.0157 54.6257C88.069 54.5991 88.1223 54.5591 88.1757 54.5057C88.229 54.4524 88.2557 54.3857 88.2557 54.3057C88.2557 54.1724 88.3223 54.1057 88.4557 54.1057C88.589 54.1057 88.6557 54.0657 88.6557 53.9857C88.6557 53.8791 88.589 53.7724 88.4557 53.6657C88.3757 53.5324 88.3357 53.4524 88.3357 53.4257C88.3357 53.3724 88.4023 53.2791 88.5357 53.1457C88.8023 52.9324 89.2557 52.7591 89.8957 52.6257L90.9357 52.3857L90.9757 51.7857C91.029 51.4124 90.9757 50.7724 90.8157 49.8657C90.6557 48.9057 90.5757 48.3057 90.5757 48.0657C90.5757 47.1324 90.429 46.6657 90.1357 46.6657C89.9757 46.6657 89.8823 46.5991 89.8557 46.4657C89.829 46.3057 89.8823 46.2257 90.0157 46.2257C90.069 46.2257 90.069 46.2124 90.0157 46.1857C89.989 46.1324 89.9357 46.0924 89.8557 46.0657C89.7223 46.0124 89.6423 45.9724 89.6157 45.9457C89.589 45.8924 89.629 45.8524 89.7357 45.8257C89.8157 45.7724 89.8557 45.7457 89.8557 45.7457C89.8557 45.6924 89.7223 45.6257 89.4557 45.5457C89.189 45.4657 89.0157 45.3857 88.9357 45.3057C88.8557 45.1991 88.7757 44.9857 88.6957 44.6657C88.6423 44.4791 88.6157 44.1191 88.6157 43.5857C88.6157 42.4391 88.7223 41.5857 88.9357 41.0257L89.1757 40.4257L96.6957 40.4657C102.322 40.4657 105.536 40.4391 106.336 40.3857C107.696 40.3324 108.349 40.3191 108.296 40.3457C108.109 40.3991 107.842 40.4524 107.496 40.5057C107.256 40.5324 107.136 40.5724 107.136 40.6257L107.936 40.7057C108.469 40.7591 108.962 40.8924 109.416 41.1057C109.896 41.2924 110.029 41.4257 109.816 41.5057C109.709 41.5591 109.656 41.6524 109.656 41.7857C109.656 41.8657 109.709 42.0391 109.816 42.3057C109.922 42.4657 109.976 42.6124 109.976 42.7457C109.976 42.8791 110.029 42.9457 110.136 42.9457H110.176C110.202 42.9457 110.216 42.9591 110.216 42.9857C110.216 43.0657 110.176 43.1857 110.096 43.3457C109.909 43.6124 109.789 43.7457 109.736 43.7457C109.656 43.7457 109.616 43.7857 109.616 43.8657C109.616 43.9991 109.722 44.1057 109.936 44.1857C110.069 44.2124 110.136 44.2524 110.136 44.3057C110.136 44.3591 110.002 44.5191 109.736 44.7857L109.256 45.3057V50.9457C109.256 53.4791 109.242 55.0924 109.216 55.7857C109.189 56.4524 109.109 56.9057 108.976 57.1457C108.816 57.5191 108.602 57.7324 108.336 57.7857C108.069 57.8391 106.122 57.8657 102.496 57.8657L97.0557 57.8257L96.9357 59.2657L96.7757 62.1457ZM97.0957 46.7857C97.069 46.8124 97.0557 47.1324 97.0557 47.7457C97.0557 48.5991 97.0823 49.5057 97.1357 50.4657C97.189 51.4257 97.2423 51.9057 97.2957 51.9057L99.3357 51.7457C100.696 51.6391 101.602 51.5457 102.056 51.4657L102.896 51.3057L102.976 48.8657V46.3857C102.922 46.3324 101.936 46.3724 100.016 46.5057C98.0957 46.6391 97.1223 46.7324 97.0957 46.7857ZM103.376 46.3857C103.349 46.3857 103.336 46.4657 103.336 46.6257C103.336 46.7857 103.349 46.9324 103.376 47.0657C103.402 47.1724 103.429 47.2391 103.456 47.2657C103.482 47.2657 103.496 47.1191 103.496 46.8257C103.496 46.5324 103.456 46.3857 103.376 46.3857ZM103.896 46.5057C103.869 46.4524 103.842 46.4524 103.816 46.5057C103.816 46.5324 103.816 46.5857 103.816 46.6657C103.816 46.7457 103.816 46.8124 103.816 46.8657C103.842 46.9191 103.869 46.9191 103.896 46.8657C103.949 46.7324 103.949 46.6124 103.896 46.5057ZM103.736 48.2257C103.736 48.2524 103.722 48.3057 103.696 48.3857C103.696 48.4657 103.696 48.5724 103.696 48.7057C103.696 48.8924 103.696 49.0391 103.696 49.1457C103.722 49.2257 103.749 49.2124 103.776 49.1057V48.3057L103.736 48.2257ZM103.736 50.1057C103.736 50.1324 103.722 50.1857 103.696 50.2657C103.696 50.3457 103.696 50.4524 103.696 50.5857C103.696 50.7724 103.696 50.9191 103.696 51.0257C103.722 51.1057 103.749 51.0924 103.776 50.9857V50.1857L103.736 50.1057Z" fill="white"/>
<path d="M130.689 54.9457C130.849 55.1057 130.876 55.1857 130.769 55.1857C130.636 55.1857 130.596 55.2791 130.649 55.4657L130.689 55.5857C130.689 55.6657 130.623 55.8391 130.489 56.1057C130.383 56.2391 130.316 56.3324 130.289 56.3857C130.289 56.4391 130.329 56.5324 130.409 56.6657C130.489 56.7457 130.529 56.8257 130.529 56.9057C130.529 56.9857 130.449 57.1057 130.289 57.2657C129.969 57.5324 129.623 57.6791 129.249 57.7057C128.929 57.7591 128.729 57.8257 128.649 57.9057C128.596 57.9857 128.529 58.1857 128.449 58.5057C128.289 59.1191 127.943 59.9191 127.409 60.9057C126.903 61.8657 126.409 62.6257 125.929 63.1857C125.156 64.0924 124.236 64.9457 123.169 65.7457C122.129 66.5191 121.183 67.0657 120.329 67.3857C119.636 67.6524 118.823 67.8657 117.889 68.0257C116.956 68.1857 116.076 68.2657 115.249 68.2657C114.476 68.2657 113.863 68.1857 113.409 68.0257L113.009 67.9057C113.009 67.8791 113.076 67.8657 113.209 67.8657C113.876 67.8657 114.289 67.8791 114.449 67.9057C114.636 67.9057 114.729 67.9057 114.729 67.9057C114.463 67.9057 113.983 67.7991 113.289 67.5857C112.623 67.3724 112.249 67.2124 112.169 67.1057L111.689 66.7057C111.583 66.5991 111.503 66.5191 111.449 66.4657C111.396 66.4124 111.409 66.3857 111.489 66.3857C111.623 66.3857 111.716 66.2924 111.769 66.1057C111.849 65.8924 111.836 65.7191 111.729 65.5857C111.623 65.4257 111.596 65.2791 111.649 65.1457C111.703 65.0924 111.716 65.0391 111.689 64.9857C111.663 64.9324 111.623 64.9057 111.569 64.9057C111.543 64.9057 111.529 64.8924 111.529 64.8657C111.529 64.8124 111.609 64.7057 111.769 64.5457C112.063 64.3057 112.249 64.1857 112.329 64.1857C112.409 64.1857 112.449 64.1457 112.449 64.0657C112.449 63.9591 112.396 63.8791 112.289 63.8257C112.209 63.7724 112.169 63.7057 112.169 63.6257C112.169 63.4391 112.303 63.3057 112.569 63.2257C112.703 63.1457 113.343 63.0257 114.489 62.8657C115.796 62.7324 116.889 62.4924 117.769 62.1457C118.676 61.7991 119.463 61.3057 120.129 60.6657C120.503 60.3191 120.863 59.9057 121.209 59.4257C121.583 58.9457 121.769 58.6391 121.769 58.5057C121.769 58.4257 121.596 58.3857 121.249 58.3857C120.743 58.3857 120.023 58.4657 119.089 58.6257C118.476 58.7324 117.889 58.7857 117.329 58.7857C117.169 58.7857 116.556 58.7591 115.489 58.7057C113.463 58.5991 112.689 58.3991 113.169 58.1057C113.249 58.0524 113.263 58.0124 113.209 57.9857C113.183 57.9324 113.116 57.8924 113.009 57.8657C112.876 57.8391 112.796 57.8124 112.769 57.7857C112.769 57.7324 112.836 57.6924 112.969 57.6657C113.076 57.6124 113.129 57.5724 113.129 57.5457C113.129 57.5191 112.983 57.4791 112.689 57.4257C112.369 57.3724 112.143 57.2524 112.009 57.0657C111.903 56.8791 111.823 56.5057 111.769 55.9457C111.716 55.4124 111.769 54.4924 111.929 53.1857C112.089 51.8524 112.263 50.8924 112.449 50.3057C113.489 46.9191 116.049 44.0524 120.129 41.7057C120.983 41.2257 121.796 40.8791 122.569 40.6657C123.369 40.4524 124.263 40.3457 125.249 40.3457C126.183 40.3457 126.796 40.3724 127.089 40.4257C127.409 40.4791 127.569 40.5857 127.569 40.7457C127.569 40.8791 127.623 40.9457 127.729 40.9457C127.836 40.9457 127.836 41.0124 127.729 41.1457C127.649 41.2257 127.609 41.2924 127.609 41.3457C127.636 41.3991 127.716 41.4524 127.849 41.5057C128.063 41.6124 128.236 41.6657 128.369 41.6657C128.529 41.6657 128.623 41.7057 128.649 41.7857C128.836 42.0791 128.929 42.8391 128.929 44.0657C128.929 45.0524 128.863 45.6791 128.729 45.9457C128.543 46.2657 128.476 46.4524 128.529 46.5057C128.583 46.5591 128.383 46.6124 127.929 46.6657C127.503 46.7191 126.876 46.7591 126.049 46.7857C124.343 46.8657 122.809 47.2924 121.449 48.0657C120.089 48.8391 119.023 49.9057 118.249 51.2657C118.089 51.5057 117.969 51.7057 117.889 51.8657C117.809 52.0257 117.756 52.1457 117.729 52.2257L120.129 52.3457C120.663 52.3724 121.223 52.3857 121.809 52.3857C122.129 52.3857 122.316 52.3724 122.369 52.3457C122.449 52.3191 122.489 52.2524 122.489 52.1457C122.489 51.9591 122.543 51.8257 122.649 51.7457C122.756 51.6657 122.849 51.6924 122.929 51.8257C122.983 51.9591 123.049 51.9057 123.129 51.6657C123.156 51.5057 123.183 51.4257 123.209 51.4257C123.263 51.4257 123.316 51.4924 123.369 51.6257C123.396 51.6524 123.409 51.6924 123.409 51.7457C123.409 51.7724 123.423 51.7857 123.449 51.7857C123.503 51.7857 123.543 51.6257 123.569 51.3057C123.623 51.0124 123.689 50.8257 123.769 50.7457C123.876 50.6391 124.116 50.5191 124.489 50.3857C125.023 50.1724 125.316 50.0924 125.369 50.1457H125.489C125.863 50.1457 126.169 50.1324 126.409 50.1057C126.783 50.0524 127.063 50.0257 127.249 50.0257C127.516 50.0257 127.756 50.0524 127.969 50.1057L128.569 50.2657L128.769 51.3857C128.849 51.8657 128.916 52.1724 128.969 52.3057C129.049 52.4391 129.169 52.5324 129.329 52.5857C129.463 52.6124 129.516 52.6391 129.489 52.6657C129.489 52.6924 129.409 52.7057 129.249 52.7057C129.169 52.7057 129.103 52.7191 129.049 52.7457C128.996 52.7457 128.956 52.7457 128.929 52.7457C128.929 52.7724 129.103 52.8657 129.449 53.0257C130.409 53.4524 130.796 53.8391 130.609 54.1857C130.529 54.3457 130.489 54.4657 130.489 54.5457C130.489 54.6791 130.556 54.8124 130.689 54.9457ZM125.169 41.1457L125.889 41.2257C126.956 41.3857 127.276 41.3857 126.849 41.2257C126.636 41.1457 126.289 41.1057 125.809 41.1057L125.169 41.1457ZM123.209 51.0257C123.209 50.8391 123.249 50.8124 123.329 50.9457C123.356 50.9991 123.356 51.0524 123.329 51.1057C123.329 51.1591 123.316 51.1991 123.289 51.2257C123.236 51.2791 123.209 51.2124 123.209 51.0257ZM113.889 57.7457C114.156 57.7457 114.249 57.7324 114.169 57.7057C114.009 57.6524 113.836 57.6524 113.649 57.7057C113.569 57.7324 113.649 57.7457 113.889 57.7457ZM115.129 57.9057C115.263 57.9057 115.369 57.9057 115.449 57.9057C115.529 57.8791 115.543 57.8524 115.489 57.8257C115.436 57.8257 115.343 57.8257 115.209 57.8257C115.076 57.7991 114.969 57.7991 114.889 57.8257L114.809 57.8657C114.809 57.8924 114.916 57.9057 115.129 57.9057Z" fill="white"/>
<path d="M149.314 48.3057C149.501 48.4124 149.554 48.5991 149.474 48.8657C149.448 48.9724 149.328 49.1057 149.114 49.2657C148.901 49.4257 148.528 49.6657 147.994 49.9857C147.301 50.3591 146.394 50.7991 145.274 51.3057C144.181 51.7857 143.568 52.0257 143.434 52.0257C143.354 52.0257 143.301 52.5724 143.274 53.6657C143.274 54.7591 143.274 56.7324 143.274 59.5857C143.248 63.7191 143.181 65.8791 143.074 66.0657C143.048 66.1457 143.008 66.1857 142.954 66.1857C142.954 66.1857 142.941 66.1724 142.914 66.1457C142.914 66.1191 142.914 66.0924 142.914 66.0657L142.954 65.6257L142.994 65.1057C142.994 64.8657 142.968 64.6657 142.914 64.5057C142.861 64.3991 142.821 64.3457 142.794 64.3457C142.768 64.3457 142.754 64.5857 142.754 65.0657C142.728 65.5457 142.674 65.9724 142.594 66.3457C142.514 66.6924 142.354 67.0924 142.114 67.5457C141.981 67.8391 141.874 68.0124 141.794 68.0657C141.741 68.0924 141.661 68.0524 141.554 67.9457C141.421 67.8124 141.274 67.7457 141.114 67.7457C140.928 67.7457 140.794 67.8391 140.714 68.0257C140.688 68.1324 140.661 68.1991 140.634 68.2257C140.608 68.2524 140.568 68.2124 140.514 68.1057C140.461 67.9457 140.381 67.8657 140.274 67.8657C140.194 67.8657 140.128 67.9457 140.074 68.1057C140.074 68.1857 140.061 68.2257 140.034 68.2257C140.008 68.2257 139.994 68.1991 139.994 68.1457C139.994 68.0391 139.888 67.9057 139.674 67.7457C139.488 67.6391 139.394 67.4924 139.394 67.3057C139.394 67.1991 139.381 67.1457 139.354 67.1457C139.328 67.1457 139.248 67.2257 139.114 67.3857C138.954 67.5991 138.834 67.7057 138.754 67.7057C138.701 67.7057 138.594 67.5591 138.434 67.2657C137.954 66.3857 137.608 63.2257 137.394 57.7857C137.368 55.9724 137.288 55.0657 137.154 55.0657C137.048 55.0657 136.488 55.2124 135.474 55.5057L133.954 55.9457L133.634 55.5857C133.368 55.3457 133.314 55.2124 133.474 55.1857C133.581 55.1324 133.434 55.1057 133.034 55.1057H132.914C132.648 55.1057 132.421 55.0524 132.234 54.9457C132.074 54.8391 131.994 54.7191 131.994 54.5857C131.994 54.4524 131.914 54.3324 131.754 54.2257C131.594 54.0657 131.448 53.7324 131.314 53.2257C131.234 52.9591 131.168 52.7324 131.114 52.5457C131.034 52.3324 130.981 52.1591 130.954 52.0257C130.874 51.8124 130.834 51.4791 130.834 51.0257L130.874 50.4257L132.194 49.9057L133.274 49.5057C134.421 49.0791 135.048 48.8391 135.154 48.7857L136.834 48.1857L136.794 46.5057C136.768 45.4391 136.808 44.3324 136.914 43.1857C137.021 42.0124 137.141 41.4257 137.274 41.4257C137.408 41.4257 137.501 41.5057 137.554 41.6657C137.554 41.7457 137.568 41.7857 137.594 41.7857C137.621 41.7591 137.634 41.6924 137.634 41.5857C137.634 41.4257 137.674 41.3324 137.754 41.3057C137.861 41.2524 137.928 41.3057 137.954 41.4657C137.954 41.5724 138.021 41.4657 138.154 41.1457C138.288 40.8524 138.474 40.6391 138.714 40.5057C138.901 40.3991 139.461 40.3457 140.394 40.3457C141.568 40.3457 142.328 40.4124 142.674 40.5457C142.888 40.6524 143.061 40.7057 143.194 40.7057C143.274 40.7057 143.314 41.5457 143.314 43.2257C143.314 44.9324 143.354 45.7857 143.434 45.7857C143.488 45.7857 144.008 45.6124 144.994 45.2657C145.981 44.9191 146.634 44.7457 146.954 44.7457L147.474 44.7857L146.914 44.9857C146.754 45.0124 146.528 45.1057 146.234 45.2657C146.208 45.3457 146.274 45.3591 146.434 45.3057C146.728 45.1724 147.021 45.1057 147.314 45.1057C147.554 45.1057 147.834 45.1591 148.154 45.2657C148.528 45.3724 148.754 45.4657 148.834 45.5457C148.914 45.5991 148.928 45.7191 148.874 45.9057V46.0657C148.874 46.2524 148.928 46.3991 149.034 46.5057C149.194 46.6124 149.274 46.7591 149.274 46.9457C149.274 47.1057 149.314 47.1724 149.394 47.1457C149.448 47.0924 149.474 47.1324 149.474 47.2657C149.474 47.4524 149.394 47.6791 149.234 47.9457C149.101 48.0791 149.128 48.1991 149.314 48.3057ZM138.034 41.0657C138.008 41.0924 137.981 41.0924 137.954 41.0657C137.954 41.0391 137.954 40.9857 137.954 40.9057C137.954 40.7191 137.981 40.6791 138.034 40.7857C138.088 40.9191 138.088 41.0124 138.034 41.0657ZM137.794 43.3057C137.874 42.9057 137.914 42.6657 137.914 42.5857C137.914 42.4257 137.901 42.3457 137.874 42.3457L137.794 42.6657C137.714 42.8524 137.674 43.0924 137.674 43.3857C137.674 43.5991 137.714 43.5724 137.794 43.3057ZM135.314 54.7057H135.274L134.954 54.7457C134.554 54.7991 134.288 54.8657 134.154 54.9457L134.114 54.9857L134.194 55.0257C134.328 55.0257 134.648 54.9324 135.154 54.7457L135.314 54.7057Z" fill="white"/>
<path d="M166.826 64.9857C166.88 65.6791 166.866 66.0257 166.786 66.0257C166.733 66.0257 166.693 65.8791 166.666 65.5857C166.64 65.3457 166.6 65.1457 166.546 64.9857C166.493 64.8257 166.453 64.7324 166.426 64.7057C166.4 64.6791 166.4 64.7591 166.426 64.9457L166.466 65.6657C166.466 66.3857 166.413 67.0391 166.306 67.6257C166.2 68.2124 166.093 68.4124 165.986 68.2257C165.96 68.1724 165.893 68.1191 165.786 68.0657C165.706 68.0124 165.613 67.9857 165.506 67.9857C165.373 67.9857 165.28 67.9991 165.226 68.0257C165.173 68.0524 165.133 68.1191 165.106 68.2257C165.08 68.3591 165.04 68.4257 164.986 68.4257C164.96 68.4524 164.893 68.4391 164.786 68.3857C164.68 68.3591 164.6 68.3457 164.546 68.3457C164.52 68.3724 164.52 68.4524 164.546 68.5857C164.546 68.7457 164.52 68.7724 164.466 68.6657C164.36 68.5057 164.226 68.4257 164.066 68.4257C163.88 68.3724 163.733 68.2391 163.626 68.0257L163.466 67.6657L163.266 68.1457C163.186 68.3591 163.133 68.4791 163.106 68.5057C163.08 68.5324 163.013 68.4924 162.906 68.3857L162.466 67.9857C162.28 67.7991 162.066 66.7857 161.826 64.9457C161.586 63.0791 161.426 61.8124 161.346 61.1457H156.946L156.826 63.5057C156.773 64.9991 156.693 65.9724 156.586 66.4257L156.466 67.0257V66.3457C156.52 65.5191 156.506 65.1057 156.426 65.1057C156.373 65.1057 156.333 65.3191 156.306 65.7457C156.28 66.1457 156.186 66.5991 156.026 67.1057C155.866 67.5857 155.693 67.9724 155.506 68.2657C155.32 68.5324 155.186 68.6124 155.106 68.5057C155 68.3191 154.84 68.2257 154.626 68.2257C154.466 68.2257 154.32 68.3324 154.186 68.5457C154.133 68.6524 154.08 68.7191 154.026 68.7457C154 68.7724 153.986 68.7324 153.986 68.6257C153.986 68.4657 153.906 68.3991 153.746 68.4257H153.626C153.36 68.4257 153.106 68.1991 152.866 67.7457C152.786 67.6124 152.733 67.5457 152.706 67.5457C152.706 67.5457 152.64 67.6524 152.506 67.8657C152.426 68.0524 152.346 68.1457 152.266 68.1457C152.186 68.1457 152.066 67.9724 151.906 67.6257C151.666 67.0924 151.466 65.8257 151.306 63.8257C151.173 61.8257 151.093 59.4124 151.066 56.5857C151.066 54.6657 151.013 52.6391 150.906 50.5057C150.8 48.7724 150.746 47.2657 150.746 45.9857C150.746 44.8124 150.8 43.8124 150.906 42.9857C151.04 41.9991 151.173 41.5057 151.306 41.5057C151.44 41.5057 151.506 41.5991 151.506 41.7857C151.533 41.9191 151.586 41.8791 151.666 41.6657C151.773 41.3991 151.866 41.3457 151.946 41.5057C152 41.5857 152.04 41.6124 152.066 41.5857C152.12 41.5324 152.16 41.4524 152.186 41.3457C152.24 41.0791 152.333 40.8924 152.466 40.7857C152.6 40.6791 152.84 40.6124 153.186 40.5857C153.666 40.5324 155.733 40.4791 159.386 40.4257L163.346 40.3457C164.466 40.3457 165.066 40.4124 165.146 40.5457C165.306 40.7057 165.52 40.8124 165.786 40.8657L166.226 40.9457L166.146 43.2257C166.066 44.5057 166.026 47.0924 166.026 50.9857C166.026 53.5191 166.226 57.2257 166.626 62.1057C166.76 63.6524 166.826 64.6124 166.826 64.9857ZM152.026 41.1857C151.973 41.2391 151.946 41.1724 151.946 40.9857C151.946 40.9324 151.96 40.8924 151.986 40.8657C152.013 40.8391 152.04 40.8524 152.066 40.9057C152.12 41.0657 152.106 41.1591 152.026 41.1857ZM157.946 45.9057C157.92 45.9057 157.893 45.9191 157.866 45.9457C157.84 45.9457 157.826 45.9457 157.826 45.9457C157.853 45.9457 157.92 45.9591 158.026 45.9857C158.16 45.9857 158.32 45.9857 158.506 45.9857C158.746 45.9857 158.933 45.9857 159.066 45.9857C159.2 45.9591 159.186 45.9324 159.026 45.9057C158.946 45.8791 158.773 45.8657 158.506 45.8657C158.24 45.8657 158.053 45.8791 157.946 45.9057ZM158.546 54.7857L160.066 54.7057L160.026 54.3457C159.973 53.9724 159.92 53.2257 159.866 52.1057C159.84 51.2257 159.76 50.0391 159.626 48.5457L159.466 46.7457H158.386C157.693 46.7457 157.32 46.7857 157.266 46.8657C157.213 46.9191 157.16 48.2657 157.106 50.9057L156.986 54.8257L158.546 54.7857ZM157.026 60.1457C156.973 60.1724 156.96 60.1991 156.986 60.2257C157.013 60.2524 157.053 60.2657 157.106 60.2657C157.293 60.2657 157.36 60.2391 157.306 60.1857C157.2 60.1324 157.106 60.1191 157.026 60.1457ZM159.226 60.2257C159.306 60.2257 159.36 60.2257 159.386 60.2257C159.44 60.1991 159.44 60.1724 159.386 60.1457H159.026C158.973 60.1724 158.973 60.1991 159.026 60.2257C159.08 60.2257 159.146 60.2257 159.226 60.2257ZM160.386 60.3857C160.546 60.3857 160.666 60.3857 160.746 60.3857C160.826 60.3591 160.813 60.3324 160.706 60.3057C160.653 60.2791 160.546 60.2657 160.386 60.2657C160.226 60.2657 160.12 60.2791 160.066 60.3057L159.986 60.3457C159.986 60.3724 160.12 60.3857 160.386 60.3857ZM157.266 60.6657C157.373 60.6657 157.453 60.6657 157.506 60.6657C157.56 60.6391 157.56 60.6124 157.506 60.5857C157.4 60.5324 157.253 60.5324 157.066 60.5857C157.013 60.6124 157 60.6391 157.026 60.6657C157.08 60.6657 157.16 60.6657 157.266 60.6657Z" fill="white"/>
<path d="M186.6 41.7857C186.707 42.5057 186.76 43.3591 186.76 44.3457C186.76 46.3724 186.547 48.1991 186.12 49.8257C185.987 50.2791 185.787 50.8524 185.52 51.5457C185.253 52.2391 185 52.7991 184.76 53.2257C184.573 53.5991 184.187 54.1324 183.6 54.8257C183.013 55.4924 182.587 55.8924 182.32 56.0257C182.213 56.0791 182.147 56.0924 182.12 56.0657C182.12 56.0391 182.16 55.9857 182.24 55.9057C182.48 55.6124 182.6 55.4391 182.6 55.3857C182.6 55.3324 182.493 55.3857 182.28 55.5457C181.933 55.7591 181.573 55.8924 181.2 55.9457C181.093 55.9724 180.973 55.9857 180.84 55.9857C180.733 55.9857 180.653 55.9724 180.6 55.9457C180.547 55.8924 180.493 55.7991 180.44 55.6657C180.333 55.4524 180.187 55.3191 180 55.2657C179.813 55.2657 179.667 55.1857 179.56 55.0257C179.533 54.9724 179.493 54.9324 179.44 54.9057C179.413 54.8791 179.387 54.8791 179.36 54.9057H179.32C179.24 54.9057 179.16 54.8124 179.08 54.6257C179.027 54.4391 179.013 54.2791 179.04 54.1457C179.04 54.0124 178.947 53.9457 178.76 53.9457C178.44 53.9457 178.28 53.7857 178.28 53.4657C178.28 53.1724 178.4 52.8124 178.64 52.3857L179.56 50.6257C179.773 50.1724 179.973 49.6257 180.16 48.9857C180.347 48.3457 180.4 47.9857 180.32 47.9057C180.267 47.8524 179.627 48.1191 178.4 48.7057C177.173 49.2657 176.373 49.6657 176 49.9057C175.573 50.1457 175.36 50.3591 175.36 50.5457L175.16 55.1057C174.92 60.0391 174.48 63.6924 173.84 66.0657C173.68 66.6524 173.573 66.9457 173.52 66.9457C173.52 66.9457 173.507 66.9324 173.48 66.9057C173.48 66.8791 173.48 66.8524 173.48 66.8257C173.48 66.6657 173.52 66.4124 173.6 66.0657C173.707 65.4791 173.76 65.1324 173.76 65.0257V64.9457C173.707 64.9457 173.64 65.1457 173.56 65.5457C173.373 66.4524 172.933 67.3591 172.24 68.2657C172.08 68.4524 171.96 68.5724 171.88 68.6257C171.8 68.6791 171.76 68.6391 171.76 68.5057C171.76 68.2924 171.667 68.1457 171.48 68.0657L171.28 67.9857C171.173 67.9857 171.08 68.0524 171 68.1857C170.867 68.4524 170.773 68.4791 170.72 68.2657C170.667 68.1324 170.587 68.0657 170.48 68.0657C170.4 68.0657 170.333 68.1457 170.28 68.3057C170.28 68.3857 170.267 68.4124 170.24 68.3857C170.213 68.3857 170.2 68.3324 170.2 68.2257C170.2 68.1457 170.173 68.0657 170.12 67.9857C170.067 67.9057 170.013 67.8524 169.96 67.8257C169.8 67.7191 169.72 67.5591 169.72 67.3457V66.9857L169.36 67.3057C169.2 67.4657 169.093 67.5591 169.04 67.5857C169.013 67.5857 168.973 67.5191 168.92 67.3857C168.867 67.1724 168.8 66.9857 168.72 66.8257C168.693 66.7724 168.68 66.6257 168.68 66.3857C168.68 65.6924 168.813 63.4791 169.08 59.7457C169.213 57.4257 169.28 55.4124 169.28 53.7057L169.24 51.4257L168.8 51.4657H168.64C168.507 51.4657 168.387 51.4257 168.28 51.3457C168.2 51.2657 168.067 51.0791 167.88 50.7857C167.56 50.2524 167.4 49.9324 167.4 49.8257C167.4 49.6657 167.36 49.5724 167.28 49.5457C167.2 49.4657 167.093 49.1724 166.96 48.6657C166.853 48.1324 166.8 47.7191 166.8 47.4257V47.2257C166.8 47.0657 166.84 46.9457 166.92 46.8657C167.027 46.7857 167.28 46.6524 167.68 46.4657L168.6 46.0257V43.5857C168.573 42.5457 168.573 41.8791 168.6 41.5857C168.627 41.2924 168.693 41.1457 168.8 41.1457C168.907 41.1457 168.987 41.2124 169.04 41.3457C169.04 41.3991 169.053 41.3991 169.08 41.3457C169.133 41.2924 169.173 41.2257 169.2 41.1457C169.253 40.9857 169.293 40.9057 169.32 40.9057C169.347 40.9057 169.387 40.9724 169.44 41.1057C169.44 41.1324 169.44 41.1591 169.44 41.1857C169.467 41.2124 169.48 41.2257 169.48 41.2257C169.507 41.2257 169.573 41.0791 169.68 40.7857C169.733 40.5457 169.8 40.3857 169.88 40.3057C169.987 40.1991 170.16 40.1057 170.4 40.0257C171.013 39.8391 171.84 39.7457 172.88 39.7457C173.44 39.7457 173.867 39.7857 174.16 39.8657L174.8 40.0257L174.88 40.9857L174.96 42.7057C174.96 43.2391 175.027 43.5057 175.16 43.5057C175.427 43.5057 176.76 42.9857 179.16 41.9457C179.96 41.6257 180.533 41.3857 180.88 41.2257C181.253 41.0391 181.507 40.8791 181.64 40.7457C181.747 40.6391 181.893 40.5857 182.08 40.5857C182.24 40.5857 182.373 40.5324 182.48 40.4257C182.64 40.2657 183.213 40.1857 184.2 40.1857C185 40.1857 185.56 40.2524 185.88 40.3857C186.147 40.5191 186.307 40.6391 186.36 40.7457C186.413 40.8524 186.493 41.1991 186.6 41.7857ZM169.4 42.9457C169.453 42.7057 169.453 42.4924 169.4 42.3057L169.36 42.2257V42.6257C169.36 42.9457 169.373 43.0524 169.4 42.9457Z" fill="white"/>
<path d="M204.861 48.3057C205.048 48.4124 205.101 48.5991 205.021 48.8657C204.995 48.9724 204.875 49.1057 204.661 49.2657C204.448 49.4257 204.075 49.6657 203.541 49.9857C202.848 50.3591 201.941 50.7991 200.821 51.3057C199.728 51.7857 199.115 52.0257 198.981 52.0257C198.901 52.0257 198.848 52.5724 198.821 53.6657C198.821 54.7591 198.821 56.7324 198.821 59.5857C198.795 63.7191 198.728 65.8791 198.621 66.0657C198.595 66.1457 198.555 66.1857 198.501 66.1857C198.501 66.1857 198.488 66.1724 198.461 66.1457C198.461 66.1191 198.461 66.0924 198.461 66.0657L198.501 65.6257L198.541 65.1057C198.541 64.8657 198.515 64.6657 198.461 64.5057C198.408 64.3991 198.368 64.3457 198.341 64.3457C198.315 64.3457 198.301 64.5857 198.301 65.0657C198.275 65.5457 198.221 65.9724 198.141 66.3457C198.061 66.6924 197.901 67.0924 197.661 67.5457C197.528 67.8391 197.421 68.0124 197.341 68.0657C197.288 68.0924 197.208 68.0524 197.101 67.9457C196.968 67.8124 196.821 67.7457 196.661 67.7457C196.475 67.7457 196.341 67.8391 196.261 68.0257C196.235 68.1324 196.208 68.1991 196.181 68.2257C196.155 68.2524 196.115 68.2124 196.061 68.1057C196.008 67.9457 195.928 67.8657 195.821 67.8657C195.741 67.8657 195.675 67.9457 195.621 68.1057C195.621 68.1857 195.608 68.2257 195.581 68.2257C195.555 68.2257 195.541 68.1991 195.541 68.1457C195.541 68.0391 195.435 67.9057 195.221 67.7457C195.035 67.6391 194.941 67.4924 194.941 67.3057C194.941 67.1991 194.928 67.1457 194.901 67.1457C194.875 67.1457 194.795 67.2257 194.661 67.3857C194.501 67.5991 194.381 67.7057 194.301 67.7057C194.248 67.7057 194.141 67.5591 193.981 67.2657C193.501 66.3857 193.155 63.2257 192.941 57.7857C192.915 55.9724 192.835 55.0657 192.701 55.0657C192.595 55.0657 192.035 55.2124 191.021 55.5057L189.501 55.9457L189.181 55.5857C188.915 55.3457 188.861 55.2124 189.021 55.1857C189.128 55.1324 188.981 55.1057 188.581 55.1057H188.461C188.195 55.1057 187.968 55.0524 187.781 54.9457C187.621 54.8391 187.541 54.7191 187.541 54.5857C187.541 54.4524 187.461 54.3324 187.301 54.2257C187.141 54.0657 186.995 53.7324 186.861 53.2257C186.781 52.9591 186.715 52.7324 186.661 52.5457C186.581 52.3324 186.528 52.1591 186.501 52.0257C186.421 51.8124 186.381 51.4791 186.381 51.0257L186.421 50.4257L187.741 49.9057L188.821 49.5057C189.968 49.0791 190.595 48.8391 190.701 48.7857L192.381 48.1857L192.341 46.5057C192.315 45.4391 192.355 44.3324 192.461 43.1857C192.568 42.0124 192.688 41.4257 192.821 41.4257C192.955 41.4257 193.048 41.5057 193.101 41.6657C193.101 41.7457 193.115 41.7857 193.141 41.7857C193.168 41.7591 193.181 41.6924 193.181 41.5857C193.181 41.4257 193.221 41.3324 193.301 41.3057C193.408 41.2524 193.475 41.3057 193.501 41.4657C193.501 41.5724 193.568 41.4657 193.701 41.1457C193.835 40.8524 194.021 40.6391 194.261 40.5057C194.448 40.3991 195.008 40.3457 195.941 40.3457C197.115 40.3457 197.875 40.4124 198.221 40.5457C198.435 40.6524 198.608 40.7057 198.741 40.7057C198.821 40.7057 198.861 41.5457 198.861 43.2257C198.861 44.9324 198.901 45.7857 198.981 45.7857C199.035 45.7857 199.555 45.6124 200.541 45.2657C201.528 44.9191 202.181 44.7457 202.501 44.7457L203.021 44.7857L202.461 44.9857C202.301 45.0124 202.075 45.1057 201.781 45.2657C201.755 45.3457 201.821 45.3591 201.981 45.3057C202.275 45.1724 202.568 45.1057 202.861 45.1057C203.101 45.1057 203.381 45.1591 203.701 45.2657C204.075 45.3724 204.301 45.4657 204.381 45.5457C204.461 45.5991 204.475 45.7191 204.421 45.9057V46.0657C204.421 46.2524 204.475 46.3991 204.581 46.5057C204.741 46.6124 204.821 46.7591 204.821 46.9457C204.821 47.1057 204.861 47.1724 204.941 47.1457C204.995 47.0924 205.021 47.1324 205.021 47.2657C205.021 47.4524 204.941 47.6791 204.781 47.9457C204.648 48.0791 204.675 48.1991 204.861 48.3057ZM193.581 41.0657C193.555 41.0924 193.528 41.0924 193.501 41.0657C193.501 41.0391 193.501 40.9857 193.501 40.9057C193.501 40.7191 193.528 40.6791 193.581 40.7857C193.635 40.9191 193.635 41.0124 193.581 41.0657ZM193.341 43.3057C193.421 42.9057 193.461 42.6657 193.461 42.5857C193.461 42.4257 193.448 42.3457 193.421 42.3457L193.341 42.6657C193.261 42.8524 193.221 43.0924 193.221 43.3857C193.221 43.5991 193.261 43.5724 193.341 43.3057ZM190.861 54.7057H190.821L190.501 54.7457C190.101 54.7991 189.835 54.8657 189.701 54.9457L189.661 54.9857L189.741 55.0257C189.875 55.0257 190.195 54.9324 190.701 54.7457L190.861 54.7057Z" fill="white"/>
</g>
</g>
<defs>
<filter id="filter0_d_30_637" x="-4.00012" y="6" width="282" height="132" filterUnits="userSpaceOnUse" color-interpolation-filters="sRGB">
<feFlood flood-opacity="0" result="BackgroundImageFix"/>
<feColorMatrix in="SourceAlpha" type="matrix" values="0 0 0 0 0 0 0 0 0 0 0 0 0 0 0 0 0 0 127 0" result="hardAlpha"/>
<feOffset dy="4"/>
<feGaussianBlur stdDeviation="2"/>
<feComposite in2="hardAlpha" operator="out"/>
<feColorMatrix type="matrix" values="0 0 0 0 0 0 0 0 0 0 0 0 0 0 0 0 0 0 0.25 0"/>
<feBlend mode="normal" in2="BackgroundImageFix" result="effect1_dropShadow_30_637"/>
<feBlend mode="normal" in="SourceGraphic" in2="effect1_dropShadow_30_637" result="shape"/>
</filter>
<clipPath id="clip0_30_637">
<rect width="274" height="130" fill="white"/>
</clipPath>
</defs>
</svg>
