<svg width="274" height="130" viewBox="0 0 274 130" fill="none" xmlns="http://www.w3.org/2000/svg">
<g clip-path="url(#clip0_30_533)">
<g filter="url(#filter0_d_30_533)">
<path fill-rule="evenodd" clip-rule="evenodd" d="M15.2137 29.9492H258.788C267.073 29.9492 274 36.6712 274 45.0327V114.77C274 123.131 267.073 130 258.788 130H15.2137C6.92744 130 0 123.131 0 114.77V45.0327C0 36.6712 6.92744 29.9492 15.2137 29.9492Z" fill="#1C1C1C"/>
<path fill-rule="evenodd" clip-rule="evenodd" d="M14.61 29.0551H259.389C267.522 29.0551 273.998 35.4756 273.998 43.3901V110.14C273.998 118.203 267.522 124.624 259.389 124.624H14.61C6.62631 124.624 0 118.203 0 110.14V43.3901C0 35.4756 6.62631 29.0551 14.61 29.0551Z" fill="#353535"/>
<path fill-rule="evenodd" clip-rule="evenodd" d="M15.2137 21.5876H258.788C267.073 21.5876 274 28.4565 274 36.6711V106.556C274 114.921 267.073 121.638 258.788 121.638H15.2137C6.92744 121.638 0 114.919 0 106.556V36.6711C0 28.4565 6.92744 21.5876 15.2137 21.5876Z" fill="#1C1C1C"/>
<path fill-rule="evenodd" clip-rule="evenodd" d="M23.9493 18.0953H248.092C255.926 18.0953 262.251 23.9652 262.251 31.0937V91.4684C262.251 98.5968 255.925 104.467 248.092 104.467H23.9493C16.2698 104.467 9.94312 98.5968 9.94312 91.4684V31.0937C9.94312 23.9652 16.2698 18.0953 23.9493 18.0953Z" fill="#19CFD8"/>
<path fill-rule="evenodd" clip-rule="evenodd" d="M23.9493 8.68665H248.092C255.926 8.68665 262.251 14.9601 262.251 22.5761V87.0865C262.251 94.6995 255.925 100.973 248.092 100.973H23.9493C16.2698 100.973 9.94312 94.6995 9.94312 87.0865V22.5761C9.94312 14.9601 16.2698 8.68665 23.9493 8.68665Z" fill="#48F6FF"/>
<path fill-rule="evenodd" clip-rule="evenodd" d="M23.9493 6.00003H248.092C255.926 6.00003 262.251 12.272 262.251 19.8865V84.3984C262.251 92.0114 255.925 98.2864 248.092 98.2864H23.9493C16.2698 98.2864 9.94312 92.0114 9.94312 84.3984V19.8865C9.94312 12.272 16.2698 6.00003 23.9493 6.00003Z" fill="#18EBFF"/>
<path d="M89.2691 62.7457C89.6691 63.2257 89.9224 63.5591 90.0291 63.7457C90.1358 63.9324 90.1491 64.0524 90.0691 64.1057C89.9091 64.2124 89.8558 64.3324 89.9091 64.4657C89.9624 64.5991 89.9091 64.6257 89.7491 64.5457C89.5891 64.4924 89.5224 64.5057 89.5491 64.5857L89.7891 65.0657C89.8691 65.2257 89.9091 65.3457 89.9091 65.4257C89.9091 65.5057 89.8691 65.6257 89.7891 65.7857C89.7091 65.9191 89.6424 66.0257 89.5891 66.1057C89.2958 66.5057 88.8291 67.0124 88.1891 67.6257C87.5758 68.2391 87.1758 68.5724 86.9891 68.6257C86.7758 68.6791 86.6424 68.7591 86.5891 68.8657C86.5624 68.9191 86.0691 68.4924 85.1091 67.5857C84.1491 66.6791 83.0691 65.6391 81.8691 64.4657C78.8024 61.4524 77.2291 59.9457 77.1491 59.9457C77.1224 60.1324 77.0958 60.5191 77.0691 61.1057C77.0424 61.6924 77.0291 62.4124 77.0291 63.2657C77.0291 64.1457 77.0158 64.9591 76.9891 65.7057C76.9624 66.4524 76.9224 66.8924 76.8691 67.0257L76.7891 67.2657C76.7624 67.2657 76.7358 67.0791 76.7091 66.7057V65.9857L76.5891 66.5857C76.4024 67.3324 76.1091 67.9724 75.7091 68.5057C75.6291 68.6124 75.5491 68.6791 75.4691 68.7057C75.4158 68.7324 75.3758 68.7057 75.3491 68.6257C75.3224 68.4657 75.1758 68.3857 74.9091 68.3857C74.6691 68.3857 74.5091 68.4657 74.4291 68.6257C74.3224 68.8124 74.2691 68.8391 74.2691 68.7057C74.2691 68.5724 74.1624 68.5324 73.9491 68.5857H73.8691C73.7358 68.5857 73.5491 68.4924 73.3091 68.3057C73.1758 68.1457 73.0691 68.0657 72.9891 68.0657C72.9358 68.0391 72.8691 68.0791 72.7891 68.1857C72.6558 68.3191 72.5491 68.3857 72.4691 68.3857C71.9624 68.3857 71.5891 66.7457 71.3491 63.4657L71.2691 62.1057L71.0291 58.5057L70.7891 54.5857C70.7624 54.3457 70.7491 53.9191 70.7491 53.3057C70.7491 52.6657 70.7624 52.2257 70.7891 51.9857C70.8958 50.9191 70.9758 50.2657 71.0291 50.0257C71.0824 49.7591 71.1624 49.6524 71.2691 49.7057C71.4024 49.7591 71.4958 49.7191 71.5491 49.5857C71.6024 49.4524 71.6691 49.4657 71.7491 49.6257C71.8024 49.6791 71.8424 49.7057 71.8691 49.7057C71.9758 49.7057 72.1091 49.4391 72.2691 48.9057C72.4024 48.5857 73.0558 48.4257 74.2291 48.4257C74.9758 48.4257 75.4824 48.4524 75.7491 48.5057C76.0424 48.5324 76.3224 48.5991 76.5891 48.7057L76.9891 48.8257C77.1491 48.8791 77.2424 48.9991 77.2691 49.1857C77.2958 49.3457 77.3091 49.8924 77.3091 50.8257V51.6657C77.3091 52.3857 77.3224 52.7591 77.3491 52.7857C77.4024 52.8391 77.8024 52.5724 78.5491 51.9857C79.3224 51.3991 79.9358 50.8791 80.3891 50.4257C80.8158 49.9724 81.2291 49.4124 81.6291 48.7457C82.0558 48.0524 82.3358 47.4791 82.4691 47.0257L82.5491 46.7057L80.7891 46.7857C79.9624 46.8391 78.7224 46.8657 77.0691 46.8657C75.1491 46.8657 73.8158 46.8124 73.0691 46.7057C72.4291 46.6257 72.0024 46.5457 71.7891 46.4657C71.5758 46.3591 71.5091 46.2391 71.5891 46.1057C71.6424 46.0524 71.6024 46.0257 71.4691 46.0257C71.3358 46.0257 71.3358 45.9591 71.4691 45.8257C71.4958 45.7991 71.5091 45.7324 71.5091 45.6257C71.5091 45.5457 71.4691 45.4657 71.3891 45.3857C71.3091 45.3057 71.2158 45.2657 71.1091 45.2657C70.7624 45.2657 70.5891 44.7457 70.5891 43.7057C70.5891 42.8257 70.6024 42.2391 70.6291 41.9457C70.6824 41.6257 70.7758 41.2391 70.9091 40.7857L71.1091 40.1457L72.8691 40.2657C74.8691 40.3457 77.4558 40.4257 80.6291 40.5057C84.6824 40.6124 86.8158 40.7057 87.0291 40.7857C87.2958 40.8924 87.5624 41.0924 87.8291 41.3857C88.1224 41.6524 88.3491 41.9591 88.5091 42.3057C88.6158 42.4924 88.6824 42.6657 88.7091 42.8257C88.7624 42.9857 88.7891 43.2124 88.7891 43.5057C88.7891 48.6791 86.8824 52.7324 83.0691 55.6657L81.9891 56.5057L82.6691 57.1057C84.0824 58.3324 85.2291 59.2791 86.1091 59.9457C87.0158 60.6124 87.6424 61.0924 87.9891 61.3857C88.3358 61.6791 88.7624 62.1324 89.2691 62.7457ZM73.3091 45.9857C73.5491 45.9857 73.5224 45.9457 73.2291 45.8657C73.0158 45.7857 72.8024 45.7457 72.5891 45.7457C72.3224 45.7457 72.3491 45.7857 72.6691 45.8657C73.0691 45.9457 73.2824 45.9857 73.3091 45.9857ZM71.8291 50.7857C71.8558 50.3324 71.8424 50.1991 71.7891 50.3857C71.7358 50.5724 71.6958 50.8524 71.6691 51.2257C71.6424 51.5724 71.6558 51.7191 71.7091 51.6657L71.8291 50.7857ZM89.4691 64.3057C89.4958 64.3057 89.4158 64.1724 89.2291 63.9057C89.0158 63.5857 88.8291 63.3857 88.6691 63.3057C88.5091 63.1724 88.4958 63.1991 88.6291 63.3857C89.1091 63.9991 89.3891 64.3057 89.4691 64.3057Z" fill="white"/>
<path d="M97.9085 62.1457L99.4285 62.2657L105.068 62.5057C108.375 62.6124 110.028 62.7724 110.028 62.9857C110.028 62.9857 110.002 62.9991 109.948 63.0257C109.922 63.0257 109.868 63.0257 109.788 63.0257L109.268 62.9857C108.868 62.9857 108.735 62.9991 108.868 63.0257C109.508 63.1591 110.082 63.3857 110.588 63.7057C111.095 63.9991 111.255 64.2391 111.068 64.4257C110.962 64.5324 110.908 64.6657 110.908 64.8257C110.908 65.0391 110.988 65.1857 111.148 65.2657C111.202 65.2924 111.242 65.3324 111.268 65.3857C111.295 65.4124 111.282 65.4257 111.228 65.4257C111.095 65.4257 111.028 65.4924 111.028 65.6257C111.028 65.7857 111.095 65.8657 111.228 65.8657C111.282 65.8657 111.295 65.8924 111.268 65.9457C111.242 65.9724 111.202 65.9991 111.148 66.0257C110.988 66.1057 110.908 66.2257 110.908 66.3857C110.908 66.5191 110.828 66.5857 110.668 66.5857C110.535 66.5857 110.468 66.6124 110.468 66.6657C110.468 66.7191 110.535 66.8391 110.668 67.0257C110.775 67.1324 110.828 67.2124 110.828 67.2657C110.828 67.4791 110.615 67.6524 110.188 67.7857C109.788 67.9191 109.028 68.0257 107.908 68.1057C106.815 68.1857 105.175 68.2657 102.988 68.3457C101.042 68.3991 99.4818 68.4524 98.3085 68.5057C97.1618 68.5591 96.4418 68.6124 96.1485 68.6657C95.8818 68.7457 95.6552 68.8924 95.4685 69.1057C95.3352 69.2657 95.2285 69.3591 95.1485 69.3857C95.0952 69.4391 95.0685 69.4124 95.0685 69.3057C95.0418 69.1724 94.9485 69.0524 94.7885 68.9457C94.6285 68.8391 94.4952 68.8257 94.3885 68.9057C94.2818 68.9591 94.2018 69.0524 94.1485 69.1857C94.1218 69.2657 94.0952 69.3057 94.0685 69.3057C94.0418 69.3057 94.0285 69.2657 94.0285 69.1857C94.0285 68.9991 93.9618 68.9057 93.8285 68.9057C93.6952 68.9057 93.6018 68.9991 93.5485 69.1857C93.5485 69.2657 93.5352 69.2924 93.5085 69.2657C93.4818 69.2657 93.4685 69.2257 93.4685 69.1457C93.4418 68.9591 93.3352 68.7724 93.1485 68.5857C92.9618 68.4257 92.7618 68.3324 92.5485 68.3057C92.3352 68.3057 92.1485 68.2791 91.9885 68.2257C91.8552 68.1724 91.7618 68.0791 91.7085 67.9457C91.6818 67.8124 91.7352 67.7457 91.8685 67.7457C91.9218 67.7457 91.9352 67.7324 91.9085 67.7057C91.9085 67.6524 91.8685 67.6124 91.7885 67.5857C91.6018 67.4791 91.5752 67.3857 91.7085 67.3057L91.7485 67.2257C91.7485 67.1724 91.6152 67.1057 91.3485 67.0257C91.0552 66.9457 90.8552 66.7991 90.7485 66.5857C90.6685 66.3457 90.6285 65.8791 90.6285 65.1857C90.6285 63.8791 90.7218 63.0257 90.9085 62.6257C91.1218 62.3057 91.2018 62.1057 91.1485 62.0257C91.1485 61.9724 91.3085 61.9457 91.6285 61.9457H92.1085L92.1885 60.5057L92.2685 58.4657V57.8657H91.6685L90.6685 57.7457L90.5485 57.6657C90.5485 57.6391 90.7352 57.6257 91.1085 57.6257C91.6418 57.5724 91.9218 57.5324 91.9485 57.5057C92.0018 57.4524 91.8418 57.4257 91.4685 57.4257C91.2018 57.4257 90.8552 57.3457 90.4285 57.1857C90.0285 57.0257 89.6952 56.8524 89.4285 56.6657C89.1618 56.4791 89.0952 56.3457 89.2285 56.2657C89.3085 56.1857 89.3752 56.0524 89.4285 55.8657C89.4818 55.7324 89.4952 55.6391 89.4685 55.5857C89.4418 55.5324 89.3752 55.4791 89.2685 55.4257C89.1352 55.3991 89.0552 55.3724 89.0285 55.3457C89.0285 55.3191 89.0818 55.2524 89.1885 55.1457C89.2952 55.0124 89.3352 54.9324 89.3085 54.9057C89.3085 54.8791 89.2552 54.8524 89.1485 54.8257C89.0418 54.7724 88.9885 54.7324 88.9885 54.7057C88.9885 54.6791 89.0418 54.6524 89.1485 54.6257C89.2018 54.5991 89.2552 54.5591 89.3085 54.5057C89.3618 54.4524 89.3885 54.3857 89.3885 54.3057C89.3885 54.1724 89.4552 54.1057 89.5885 54.1057C89.7218 54.1057 89.7885 54.0657 89.7885 53.9857C89.7885 53.8791 89.7218 53.7724 89.5885 53.6657C89.5085 53.5324 89.4685 53.4524 89.4685 53.4257C89.4685 53.3724 89.5352 53.2791 89.6685 53.1457C89.9352 52.9324 90.3885 52.7591 91.0285 52.6257L92.0685 52.3857L92.1085 51.7857C92.1618 51.4124 92.1085 50.7724 91.9485 49.8657C91.7885 48.9057 91.7085 48.3057 91.7085 48.0657C91.7085 47.1324 91.5618 46.6657 91.2685 46.6657C91.1085 46.6657 91.0152 46.5991 90.9885 46.4657C90.9618 46.3057 91.0152 46.2257 91.1485 46.2257C91.2018 46.2257 91.2018 46.2124 91.1485 46.1857C91.1218 46.1324 91.0685 46.0924 90.9885 46.0657C90.8552 46.0124 90.7752 45.9724 90.7485 45.9457C90.7218 45.8924 90.7618 45.8524 90.8685 45.8257C90.9485 45.7724 90.9885 45.7457 90.9885 45.7457C90.9885 45.6924 90.8552 45.6257 90.5885 45.5457C90.3218 45.4657 90.1485 45.3857 90.0685 45.3057C89.9885 45.1991 89.9085 44.9857 89.8285 44.6657C89.7752 44.4791 89.7485 44.1191 89.7485 43.5857C89.7485 42.4391 89.8552 41.5857 90.0685 41.0257L90.3085 40.4257L97.8285 40.4657C103.455 40.4657 106.668 40.4391 107.468 40.3857C108.828 40.3324 109.482 40.3191 109.428 40.3457C109.242 40.3991 108.975 40.4524 108.628 40.5057C108.388 40.5324 108.268 40.5724 108.268 40.6257L109.068 40.7057C109.602 40.7591 110.095 40.8924 110.548 41.1057C111.028 41.2924 111.162 41.4257 110.948 41.5057C110.842 41.5591 110.788 41.6524 110.788 41.7857C110.788 41.8657 110.842 42.0391 110.948 42.3057C111.055 42.4657 111.108 42.6124 111.108 42.7457C111.108 42.8791 111.162 42.9457 111.268 42.9457H111.308C111.335 42.9457 111.348 42.9591 111.348 42.9857C111.348 43.0657 111.308 43.1857 111.228 43.3457C111.042 43.6124 110.922 43.7457 110.868 43.7457C110.788 43.7457 110.748 43.7857 110.748 43.8657C110.748 43.9991 110.855 44.1057 111.068 44.1857C111.202 44.2124 111.268 44.2524 111.268 44.3057C111.268 44.3591 111.135 44.5191 110.868 44.7857L110.388 45.3057V50.9457C110.388 53.4791 110.375 55.0924 110.348 55.7857C110.322 56.4524 110.242 56.9057 110.108 57.1457C109.948 57.5191 109.735 57.7324 109.468 57.7857C109.202 57.8391 107.255 57.8657 103.628 57.8657L98.1885 57.8257L98.0685 59.2657L97.9085 62.1457ZM98.2285 46.7857C98.2018 46.8124 98.1885 47.1324 98.1885 47.7457C98.1885 48.5991 98.2152 49.5057 98.2685 50.4657C98.3218 51.4257 98.3752 51.9057 98.4285 51.9057L100.468 51.7457C101.828 51.6391 102.735 51.5457 103.188 51.4657L104.028 51.3057L104.108 48.8657V46.3857C104.055 46.3324 103.068 46.3724 101.148 46.5057C99.2285 46.6391 98.2552 46.7324 98.2285 46.7857ZM104.508 46.3857C104.482 46.3857 104.468 46.4657 104.468 46.6257C104.468 46.7857 104.482 46.9324 104.508 47.0657C104.535 47.1724 104.562 47.2391 104.588 47.2657C104.615 47.2657 104.628 47.1191 104.628 46.8257C104.628 46.5324 104.588 46.3857 104.508 46.3857ZM105.028 46.5057C105.002 46.4524 104.975 46.4524 104.948 46.5057C104.948 46.5324 104.948 46.5857 104.948 46.6657C104.948 46.7457 104.948 46.8124 104.948 46.8657C104.975 46.9191 105.002 46.9191 105.028 46.8657C105.082 46.7324 105.082 46.6124 105.028 46.5057ZM104.868 48.2257C104.868 48.2524 104.855 48.3057 104.828 48.3857C104.828 48.4657 104.828 48.5724 104.828 48.7057C104.828 48.8924 104.828 49.0391 104.828 49.1457C104.855 49.2257 104.882 49.2124 104.908 49.1057V48.3057L104.868 48.2257ZM104.868 50.1057C104.868 50.1324 104.855 50.1857 104.828 50.2657C104.828 50.3457 104.828 50.4524 104.828 50.5857C104.828 50.7724 104.828 50.9191 104.828 51.0257C104.855 51.1057 104.882 51.0924 104.908 50.9857V50.1857L104.868 50.1057Z" fill="white"/>
<path d="M131.822 54.9457C131.982 55.1057 132.009 55.1857 131.902 55.1857C131.769 55.1857 131.729 55.2791 131.782 55.4657L131.822 55.5857C131.822 55.6657 131.756 55.8391 131.622 56.1057C131.516 56.2391 131.449 56.3324 131.422 56.3857C131.422 56.4391 131.462 56.5324 131.542 56.6657C131.622 56.7457 131.662 56.8257 131.662 56.9057C131.662 56.9857 131.582 57.1057 131.422 57.2657C131.102 57.5324 130.756 57.6791 130.382 57.7057C130.062 57.7591 129.862 57.8257 129.782 57.9057C129.729 57.9857 129.662 58.1857 129.582 58.5057C129.422 59.1191 129.076 59.9191 128.542 60.9057C128.036 61.8657 127.542 62.6257 127.062 63.1857C126.289 64.0924 125.369 64.9457 124.302 65.7457C123.262 66.5191 122.316 67.0657 121.462 67.3857C120.769 67.6524 119.956 67.8657 119.022 68.0257C118.089 68.1857 117.209 68.2657 116.382 68.2657C115.609 68.2657 114.996 68.1857 114.542 68.0257L114.142 67.9057C114.142 67.8791 114.209 67.8657 114.342 67.8657C115.009 67.8657 115.422 67.8791 115.582 67.9057C115.769 67.9057 115.862 67.9057 115.862 67.9057C115.596 67.9057 115.116 67.7991 114.422 67.5857C113.756 67.3724 113.382 67.2124 113.302 67.1057L112.822 66.7057C112.716 66.5991 112.636 66.5191 112.582 66.4657C112.529 66.4124 112.542 66.3857 112.622 66.3857C112.756 66.3857 112.849 66.2924 112.902 66.1057C112.982 65.8924 112.969 65.7191 112.862 65.5857C112.756 65.4257 112.729 65.2791 112.782 65.1457C112.836 65.0924 112.849 65.0391 112.822 64.9857C112.796 64.9324 112.756 64.9057 112.702 64.9057C112.676 64.9057 112.662 64.8924 112.662 64.8657C112.662 64.8124 112.742 64.7057 112.902 64.5457C113.196 64.3057 113.382 64.1857 113.462 64.1857C113.542 64.1857 113.582 64.1457 113.582 64.0657C113.582 63.9591 113.529 63.8791 113.422 63.8257C113.342 63.7724 113.302 63.7057 113.302 63.6257C113.302 63.4391 113.436 63.3057 113.702 63.2257C113.836 63.1457 114.476 63.0257 115.622 62.8657C116.929 62.7324 118.022 62.4924 118.902 62.1457C119.809 61.7991 120.596 61.3057 121.262 60.6657C121.636 60.3191 121.996 59.9057 122.342 59.4257C122.716 58.9457 122.902 58.6391 122.902 58.5057C122.902 58.4257 122.729 58.3857 122.382 58.3857C121.876 58.3857 121.156 58.4657 120.222 58.6257C119.609 58.7324 119.022 58.7857 118.462 58.7857C118.302 58.7857 117.689 58.7591 116.622 58.7057C114.596 58.5991 113.822 58.3991 114.302 58.1057C114.382 58.0524 114.396 58.0124 114.342 57.9857C114.316 57.9324 114.249 57.8924 114.142 57.8657C114.009 57.8391 113.929 57.8124 113.902 57.7857C113.902 57.7324 113.969 57.6924 114.102 57.6657C114.209 57.6124 114.262 57.5724 114.262 57.5457C114.262 57.5191 114.116 57.4791 113.822 57.4257C113.502 57.3724 113.276 57.2524 113.142 57.0657C113.036 56.8791 112.956 56.5057 112.902 55.9457C112.849 55.4124 112.902 54.4924 113.062 53.1857C113.222 51.8524 113.396 50.8924 113.582 50.3057C114.622 46.9191 117.182 44.0524 121.262 41.7057C122.116 41.2257 122.929 40.8791 123.702 40.6657C124.502 40.4524 125.396 40.3457 126.382 40.3457C127.316 40.3457 127.929 40.3724 128.222 40.4257C128.542 40.4791 128.702 40.5857 128.702 40.7457C128.702 40.8791 128.756 40.9457 128.862 40.9457C128.969 40.9457 128.969 41.0124 128.862 41.1457C128.782 41.2257 128.742 41.2924 128.742 41.3457C128.769 41.3991 128.849 41.4524 128.982 41.5057C129.196 41.6124 129.369 41.6657 129.502 41.6657C129.662 41.6657 129.756 41.7057 129.782 41.7857C129.969 42.0791 130.062 42.8391 130.062 44.0657C130.062 45.0524 129.996 45.6791 129.862 45.9457C129.676 46.2657 129.609 46.4524 129.662 46.5057C129.716 46.5591 129.516 46.6124 129.062 46.6657C128.636 46.7191 128.009 46.7591 127.182 46.7857C125.476 46.8657 123.942 47.2924 122.582 48.0657C121.222 48.8391 120.156 49.9057 119.382 51.2657C119.222 51.5057 119.102 51.7057 119.022 51.8657C118.942 52.0257 118.889 52.1457 118.862 52.2257L121.262 52.3457C121.796 52.3724 122.356 52.3857 122.942 52.3857C123.262 52.3857 123.449 52.3724 123.502 52.3457C123.582 52.3191 123.622 52.2524 123.622 52.1457C123.622 51.9591 123.676 51.8257 123.782 51.7457C123.889 51.6657 123.982 51.6924 124.062 51.8257C124.116 51.9591 124.182 51.9057 124.262 51.6657C124.289 51.5057 124.316 51.4257 124.342 51.4257C124.396 51.4257 124.449 51.4924 124.502 51.6257C124.529 51.6524 124.542 51.6924 124.542 51.7457C124.542 51.7724 124.556 51.7857 124.582 51.7857C124.636 51.7857 124.676 51.6257 124.702 51.3057C124.756 51.0124 124.822 50.8257 124.902 50.7457C125.009 50.6391 125.249 50.5191 125.622 50.3857C126.156 50.1724 126.449 50.0924 126.502 50.1457H126.622C126.996 50.1457 127.302 50.1324 127.542 50.1057C127.916 50.0524 128.196 50.0257 128.382 50.0257C128.649 50.0257 128.889 50.0524 129.102 50.1057L129.702 50.2657L129.902 51.3857C129.982 51.8657 130.049 52.1724 130.102 52.3057C130.182 52.4391 130.302 52.5324 130.462 52.5857C130.596 52.6124 130.649 52.6391 130.622 52.6657C130.622 52.6924 130.542 52.7057 130.382 52.7057C130.302 52.7057 130.236 52.7191 130.182 52.7457C130.129 52.7457 130.089 52.7457 130.062 52.7457C130.062 52.7724 130.236 52.8657 130.582 53.0257C131.542 53.4524 131.929 53.8391 131.742 54.1857C131.662 54.3457 131.622 54.4657 131.622 54.5457C131.622 54.6791 131.689 54.8124 131.822 54.9457ZM126.302 41.1457L127.022 41.2257C128.089 41.3857 128.409 41.3857 127.982 41.2257C127.769 41.1457 127.422 41.1057 126.942 41.1057L126.302 41.1457ZM124.342 51.0257C124.342 50.8391 124.382 50.8124 124.462 50.9457C124.489 50.9991 124.489 51.0524 124.462 51.1057C124.462 51.1591 124.449 51.1991 124.422 51.2257C124.369 51.2791 124.342 51.2124 124.342 51.0257ZM115.022 57.7457C115.289 57.7457 115.382 57.7324 115.302 57.7057C115.142 57.6524 114.969 57.6524 114.782 57.7057C114.702 57.7324 114.782 57.7457 115.022 57.7457ZM116.262 57.9057C116.396 57.9057 116.502 57.9057 116.582 57.9057C116.662 57.8791 116.676 57.8524 116.622 57.8257C116.569 57.8257 116.476 57.8257 116.342 57.8257C116.209 57.7991 116.102 57.7991 116.022 57.8257L115.942 57.8657C115.942 57.8924 116.049 57.9057 116.262 57.9057Z" fill="white"/>
<path d="M152.186 58.3457C152.266 60.4257 152.306 62.4124 152.306 64.3057C152.306 65.2657 152.293 65.8257 152.266 65.9857L152.146 66.6257L152.106 65.7457C152.053 64.9457 151.986 64.5457 151.906 64.5457C151.879 64.5457 151.866 64.7857 151.866 65.2657C151.866 65.7724 151.786 66.3057 151.626 66.8657C151.466 67.4257 151.279 67.8391 151.066 68.1057C150.906 68.3457 150.799 68.3857 150.746 68.2257C150.719 68.0924 150.599 68.0257 150.386 68.0257C150.173 68.0257 150.026 68.1191 149.946 68.3057C149.919 68.4124 149.893 68.4657 149.866 68.4657C149.839 68.4924 149.773 68.4524 149.666 68.3457C149.559 68.2391 149.479 68.1991 149.426 68.2257C149.399 68.2257 149.359 68.3057 149.306 68.4657C149.279 68.6791 149.239 68.7191 149.186 68.5857C149.186 68.3991 149.053 68.2124 148.786 68.0257C148.546 67.8391 148.346 67.7857 148.186 67.8657C148.026 67.8924 147.773 67.9324 147.426 67.9857C147.079 68.0391 146.679 68.0924 146.226 68.1457C145.533 68.1991 145.013 68.2257 144.666 68.2257C141.999 68.2257 139.759 67.5457 137.946 66.1857C137.226 65.6791 136.613 65.0924 136.106 64.4257C135.626 63.7591 135.173 62.8924 134.746 61.8257C134.239 60.5457 133.839 59.1591 133.546 57.6657C133.279 56.1724 132.973 53.8257 132.626 50.6257C132.466 49.1857 132.386 47.7457 132.386 46.3057C132.386 44.4924 132.506 43.0124 132.746 41.8657C132.853 41.3057 132.933 40.9724 132.986 40.8657C133.039 40.7591 133.119 40.7724 133.226 40.9057C133.306 40.9857 133.373 41.0391 133.426 41.0657C133.479 41.0657 133.506 41.0124 133.506 40.9057C133.506 40.7724 133.546 40.7057 133.626 40.7057C133.733 40.6791 133.799 40.7324 133.826 40.8657L133.866 40.9057C133.919 40.9057 133.986 40.7991 134.066 40.5857C134.119 40.4524 134.186 40.3324 134.266 40.2257C134.373 40.1191 134.466 40.0524 134.546 40.0257C134.759 39.9724 135.106 39.9457 135.586 39.9457C136.386 39.9457 136.919 39.9857 137.186 40.0657C137.479 40.1724 137.693 40.1991 137.826 40.1457H137.866C137.999 40.1457 138.199 40.2124 138.466 40.3457C138.786 40.5057 138.986 40.5857 139.066 40.5857C139.146 40.5857 139.186 40.7724 139.186 41.1457C139.186 41.6524 139.133 42.4924 139.026 43.6657C138.919 45.1591 138.866 46.5324 138.866 47.7857C138.866 49.5724 138.933 51.3724 139.066 53.1857C139.199 54.9991 139.359 56.3991 139.546 57.3857C139.706 58.2124 139.919 58.9724 140.186 59.6657C140.453 60.3324 140.719 60.8257 140.986 61.1457C141.306 61.4924 141.746 61.8124 142.306 62.1057C142.733 62.2924 143.333 62.4524 144.106 62.5857C144.879 62.7191 145.519 62.7857 146.026 62.7857C146.399 62.7857 146.599 62.7457 146.626 62.6657C146.679 62.6124 146.653 62.1591 146.546 61.3057L146.306 57.5457C146.039 52.7991 145.813 49.8257 145.626 48.6257C145.493 47.7991 145.426 46.5724 145.426 44.9457C145.426 43.9591 145.453 43.1324 145.506 42.4657C145.586 41.7724 145.679 41.4257 145.786 41.4257C145.919 41.4257 145.986 41.4791 145.986 41.5857C146.013 41.6657 146.066 41.6124 146.146 41.4257C146.226 41.2391 146.279 41.1457 146.306 41.1457C146.333 41.1457 146.373 41.2124 146.426 41.3457L146.506 41.5057C146.559 41.5057 146.599 41.3991 146.626 41.1857C146.679 40.9191 146.759 40.7324 146.866 40.6257C146.999 40.4924 147.213 40.3857 147.506 40.3057C147.666 40.2524 148.106 40.2257 148.826 40.2257C149.813 40.2257 150.599 40.2791 151.186 40.3857C151.506 40.4924 151.693 40.5857 151.746 40.6657C151.799 40.7191 151.826 40.8924 151.826 41.1857L151.866 43.8257C151.919 45.6124 151.973 48.1057 152.026 51.3057C152.079 54.6391 152.133 56.9857 152.186 58.3457ZM133.706 41.7057C133.733 41.3857 133.719 41.3057 133.666 41.4657C133.639 41.4924 133.559 41.7591 133.426 42.2657C133.399 42.5857 133.413 42.6657 133.466 42.5057C133.493 42.4791 133.573 42.2124 133.706 41.7057ZM146.266 43.1457C146.373 42.9857 146.426 42.7991 146.426 42.5857C146.426 42.3991 146.413 42.3057 146.386 42.3057C146.359 42.3057 146.306 42.4924 146.226 42.8657C146.199 42.9991 146.186 43.1057 146.186 43.1857C146.186 43.2391 146.213 43.2257 146.266 43.1457ZM146.346 63.2257C146.453 63.2257 146.533 63.2124 146.586 63.1857C146.639 63.1591 146.679 63.1324 146.706 63.1057C146.706 63.0524 146.639 63.0257 146.506 63.0257C146.373 63.0257 146.253 63.0391 146.146 63.0657C146.066 63.0924 146.013 63.1191 145.986 63.1457C145.986 63.1991 146.106 63.2257 146.346 63.2257Z" fill="white"/>
<path d="M181.119 49.6657C181.119 52.7591 180.919 56.0924 180.519 59.6657C180.119 63.2391 179.679 65.5457 179.199 66.5857C179.145 66.7191 179.092 66.8124 179.039 66.8657C179.012 66.8924 179.025 66.8524 179.079 66.7457C179.159 66.3457 179.199 65.9724 179.199 65.6257L179.279 64.9057L179.119 65.5457C179.039 65.9457 178.879 66.3724 178.639 66.8257C178.425 67.2791 178.185 67.6657 177.919 67.9857C177.705 68.1991 177.572 68.3191 177.519 68.3457C177.465 68.3724 177.399 68.3324 177.319 68.2257C177.265 68.1457 177.132 68.0791 176.919 68.0257C176.732 67.9724 176.545 67.9457 176.359 67.9457C176.252 67.9457 176.145 67.9591 176.039 67.9857C175.959 68.0124 175.919 68.0524 175.919 68.1057C175.919 68.1324 175.905 68.1457 175.879 68.1457C175.825 68.1457 175.719 68.0257 175.559 67.7857C175.425 67.5457 175.359 67.3724 175.359 67.2657C175.359 67.1057 175.305 67.0257 175.199 67.0257C175.092 67.0257 174.985 67.1191 174.879 67.3057C174.799 67.4391 174.732 67.5057 174.679 67.5057C174.625 67.5057 174.545 67.3724 174.439 67.1057C174.332 66.9191 174.279 66.5457 174.279 65.9857C174.279 65.1591 174.372 63.7591 174.559 61.7857C174.879 58.0257 175.039 55.4124 175.039 53.9457L174.999 52.4257C174.945 50.6924 174.905 49.8124 174.879 49.7857H174.839C174.732 49.7857 174.372 49.8791 173.759 50.0657C172.959 50.3057 172.412 50.4524 172.119 50.5057C171.852 50.5324 171.719 50.4924 171.719 50.3857C171.719 50.2524 171.785 50.1591 171.919 50.1057C171.972 50.0791 171.959 50.0657 171.879 50.0657C171.825 50.0391 171.745 50.0391 171.639 50.0657H171.439C171.252 50.0657 171.052 50.0391 170.839 49.9857C170.652 49.9324 170.559 49.9057 170.559 49.9057L170.919 49.8657C171.479 49.8124 171.759 49.7591 171.759 49.7057C171.759 49.6791 171.572 49.6657 171.199 49.6657H170.279L170.199 54.9857C170.145 58.5857 170.079 60.6391 169.999 61.1457C169.865 61.9457 169.785 62.4924 169.759 62.7857C169.652 63.4257 169.519 63.8924 169.359 64.1857C169.332 64.2924 169.292 64.3724 169.239 64.4257C169.212 64.4791 169.185 64.5057 169.159 64.5057C169.159 64.5057 169.172 64.4924 169.199 64.4657C169.225 64.3857 169.265 64.0257 169.319 63.3857L169.399 62.5857L169.199 63.3857C169.012 64.2124 168.639 64.9457 168.079 65.5857C167.945 65.7724 167.839 65.8791 167.759 65.9057C167.705 65.9324 167.625 65.8924 167.519 65.7857C167.385 65.6524 167.225 65.5857 167.039 65.5857C166.879 65.5857 166.745 65.6524 166.639 65.7857C166.612 65.8924 166.585 65.9457 166.559 65.9457C166.532 65.9457 166.492 65.8924 166.439 65.7857C166.385 65.6524 166.305 65.5857 166.199 65.5857C166.119 65.5857 166.052 65.6657 165.999 65.8257C165.999 65.9057 165.985 65.9457 165.959 65.9457C165.932 65.9191 165.919 65.8524 165.919 65.7457C165.919 65.5857 165.852 65.4391 165.719 65.3057C165.585 65.2524 165.492 65.1191 165.439 64.9057C165.412 64.7724 165.372 64.7191 165.319 64.7457C165.292 64.7457 165.239 64.7857 165.159 64.8657C164.999 65.0257 164.865 65.1057 164.759 65.1057C164.492 65.1057 164.359 64.2924 164.359 62.6657C164.359 61.7057 164.372 60.9191 164.399 60.3057V58.5057C164.399 56.6657 164.359 54.9057 164.279 53.2257C164.225 51.5457 164.145 50.6657 164.039 50.5857C164.012 50.5057 163.505 50.6124 162.519 50.9057C161.559 51.1991 161.025 51.2924 160.919 51.1857C160.812 51.0791 160.879 50.9857 161.119 50.9057C161.225 50.8791 161.279 50.8391 161.279 50.7857L160.879 50.8257C160.665 50.8791 160.399 50.9057 160.079 50.9057C159.999 50.9057 159.932 51.0524 159.879 51.3457C159.852 51.6124 159.825 52.3457 159.799 53.5457C159.799 54.7191 159.799 56.2657 159.799 58.1857C159.799 60.1057 159.785 61.7591 159.759 63.1457C159.732 64.5324 159.705 65.4791 159.679 65.9857C159.625 66.1724 159.585 66.2657 159.559 66.2657C159.532 66.2657 159.519 65.9857 159.519 65.4257L159.479 64.3457L159.359 65.2657C159.305 65.7991 159.185 66.3324 158.999 66.8657C158.812 67.3724 158.625 67.7591 158.439 68.0257C158.252 68.2657 158.119 68.2657 158.039 68.0257C157.985 67.9191 157.852 67.8657 157.639 67.8657H157.519C157.359 67.8657 157.239 67.9724 157.159 68.1857C157.132 68.3991 157.092 68.4391 157.039 68.3057C157.039 68.1991 157.012 68.1191 156.959 68.0657C156.905 68.0124 156.852 67.9857 156.799 67.9857C156.692 67.9857 156.612 68.0657 156.559 68.2257L156.479 68.5457V68.2257C156.479 68.1457 156.439 68.0657 156.359 67.9857C156.305 67.9057 156.239 67.8524 156.159 67.8257C155.972 67.7191 155.879 67.5857 155.879 67.4257C155.879 67.2657 155.825 67.1857 155.719 67.1857C155.612 67.1591 155.532 67.2257 155.479 67.3857C155.425 67.5191 155.359 67.5857 155.279 67.5857C155.145 67.5857 154.999 67.4124 154.839 67.0657C154.439 66.1324 154.105 61.7057 153.839 53.7857L153.639 48.9057C153.559 48.4257 153.519 47.7457 153.519 46.8657C153.519 45.6124 153.572 44.3724 153.679 43.1457C153.812 41.9191 153.945 41.3057 154.079 41.3057C154.185 41.3057 154.265 41.3591 154.319 41.4657C154.319 41.5191 154.332 41.5324 154.359 41.5057C154.385 41.4791 154.399 41.4391 154.399 41.3857C154.425 41.2524 154.479 41.1724 154.559 41.1457C154.639 41.1191 154.705 41.1724 154.759 41.3057V41.3457C154.865 41.3457 154.959 41.2124 155.039 40.9457C155.225 40.5991 155.452 40.3857 155.719 40.3057C155.852 40.2524 156.292 40.2257 157.039 40.2257C157.545 40.2257 158.025 40.2391 158.479 40.2657C158.959 40.2924 159.225 40.3324 159.279 40.3857C159.385 40.4924 159.479 40.5457 159.559 40.5457C159.825 40.6257 159.985 40.7057 160.039 40.7857C160.119 40.8657 160.159 41.0924 160.159 41.4657C160.159 41.9724 160.145 42.4524 160.119 42.9057L160.039 45.1057L160.399 44.9857C161.439 44.6657 162.212 44.3324 162.719 43.9857C162.932 43.8524 163.065 43.7324 163.119 43.6257C163.199 43.4924 163.252 43.2791 163.279 42.9857C163.305 42.6924 163.332 42.5057 163.359 42.4257C163.412 42.3457 163.492 42.3191 163.599 42.3457H163.719C163.825 42.3457 163.905 42.2791 163.959 42.1457C163.985 42.0391 164.012 41.9724 164.039 41.9457C164.092 41.9191 164.132 41.9457 164.159 42.0257L164.239 42.0657C164.319 42.0657 164.372 41.9457 164.399 41.7057C164.452 41.4924 164.532 41.3457 164.639 41.2657C164.745 41.1857 164.932 41.0924 165.199 40.9857C165.785 40.7724 166.639 40.6657 167.759 40.6657C168.319 40.6657 168.719 40.7057 168.959 40.7857C169.172 40.8657 169.319 40.9591 169.399 41.0657C169.479 41.1457 169.532 41.3191 169.559 41.5857C169.639 41.9324 169.679 42.3857 169.679 42.9457C169.679 43.4524 169.745 43.8257 169.879 44.0657C170.012 44.2791 170.239 44.3857 170.559 44.3857C170.745 44.3857 171.039 44.3191 171.439 44.1857C172.159 43.9457 172.719 43.7057 173.119 43.4657C173.545 43.1991 174.225 42.6657 175.159 41.8657L176.879 40.4257L177.159 40.7457C177.319 40.9057 177.465 40.9991 177.599 41.0257C177.732 41.0524 178.119 41.0657 178.759 41.0657C179.212 41.0657 179.625 41.1191 179.999 41.2257C180.399 41.3057 180.625 41.3991 180.679 41.5057C180.732 41.6657 180.799 42.4524 180.879 43.8657C180.985 45.2791 181.065 46.7724 181.119 48.3457V49.6657ZM154.679 42.3857C154.679 42.1457 154.639 42.1724 154.559 42.4657C154.479 42.8657 154.439 43.1057 154.439 43.1857C154.439 43.3457 154.452 43.4257 154.479 43.4257L154.559 43.1057C154.639 42.8657 154.679 42.6257 154.679 42.3857ZM172.359 49.9857C172.545 50.0391 172.612 50.0124 172.559 49.9057C172.532 49.8791 172.492 49.8657 172.439 49.8657C172.385 49.8657 172.332 49.8791 172.279 49.9057C172.225 49.9057 172.212 49.9191 172.239 49.9457C172.265 49.9724 172.305 49.9857 172.359 49.9857ZM161.319 50.3057L160.759 50.3857C160.305 50.4391 160.025 50.4924 159.919 50.5457C159.812 50.5991 159.825 50.6657 159.959 50.7457C160.092 50.8257 160.185 50.8257 160.239 50.7457L160.799 50.4657L161.319 50.3057Z" fill="white"/>
<path d="M190.487 62.1457L192.007 62.2657L197.647 62.5057C200.953 62.6124 202.607 62.7724 202.607 62.9857C202.607 62.9857 202.58 62.9991 202.527 63.0257C202.5 63.0257 202.447 63.0257 202.367 63.0257L201.847 62.9857C201.447 62.9857 201.313 62.9991 201.447 63.0257C202.087 63.1591 202.66 63.3857 203.167 63.7057C203.673 63.9991 203.833 64.2391 203.647 64.4257C203.54 64.5324 203.487 64.6657 203.487 64.8257C203.487 65.0391 203.567 65.1857 203.727 65.2657C203.78 65.2924 203.82 65.3324 203.847 65.3857C203.873 65.4124 203.86 65.4257 203.807 65.4257C203.673 65.4257 203.607 65.4924 203.607 65.6257C203.607 65.7857 203.673 65.8657 203.807 65.8657C203.86 65.8657 203.873 65.8924 203.847 65.9457C203.82 65.9724 203.78 65.9991 203.727 66.0257C203.567 66.1057 203.487 66.2257 203.487 66.3857C203.487 66.5191 203.407 66.5857 203.247 66.5857C203.113 66.5857 203.047 66.6124 203.047 66.6657C203.047 66.7191 203.113 66.8391 203.247 67.0257C203.353 67.1324 203.407 67.2124 203.407 67.2657C203.407 67.4791 203.193 67.6524 202.767 67.7857C202.367 67.9191 201.607 68.0257 200.487 68.1057C199.393 68.1857 197.753 68.2657 195.567 68.3457C193.62 68.3991 192.06 68.4524 190.887 68.5057C189.74 68.5591 189.02 68.6124 188.727 68.6657C188.46 68.7457 188.233 68.8924 188.047 69.1057C187.913 69.2657 187.807 69.3591 187.727 69.3857C187.673 69.4391 187.647 69.4124 187.647 69.3057C187.62 69.1724 187.527 69.0524 187.367 68.9457C187.207 68.8391 187.073 68.8257 186.967 68.9057C186.86 68.9591 186.78 69.0524 186.727 69.1857C186.7 69.2657 186.673 69.3057 186.647 69.3057C186.62 69.3057 186.607 69.2657 186.607 69.1857C186.607 68.9991 186.54 68.9057 186.407 68.9057C186.273 68.9057 186.18 68.9991 186.127 69.1857C186.127 69.2657 186.113 69.2924 186.087 69.2657C186.06 69.2657 186.047 69.2257 186.047 69.1457C186.02 68.9591 185.913 68.7724 185.727 68.5857C185.54 68.4257 185.34 68.3324 185.127 68.3057C184.913 68.3057 184.727 68.2791 184.567 68.2257C184.433 68.1724 184.34 68.0791 184.287 67.9457C184.26 67.8124 184.313 67.7457 184.447 67.7457C184.5 67.7457 184.513 67.7324 184.487 67.7057C184.487 67.6524 184.447 67.6124 184.367 67.5857C184.18 67.4791 184.153 67.3857 184.287 67.3057L184.327 67.2257C184.327 67.1724 184.193 67.1057 183.927 67.0257C183.633 66.9457 183.433 66.7991 183.327 66.5857C183.247 66.3457 183.207 65.8791 183.207 65.1857C183.207 63.8791 183.3 63.0257 183.487 62.6257C183.7 62.3057 183.78 62.1057 183.727 62.0257C183.727 61.9724 183.887 61.9457 184.207 61.9457H184.687L184.767 60.5057L184.847 58.4657V57.8657H184.247L183.247 57.7457L183.127 57.6657C183.127 57.6391 183.313 57.6257 183.687 57.6257C184.22 57.5724 184.5 57.5324 184.527 57.5057C184.58 57.4524 184.42 57.4257 184.047 57.4257C183.78 57.4257 183.433 57.3457 183.007 57.1857C182.607 57.0257 182.273 56.8524 182.007 56.6657C181.74 56.4791 181.673 56.3457 181.807 56.2657C181.887 56.1857 181.953 56.0524 182.007 55.8657C182.06 55.7324 182.073 55.6391 182.047 55.5857C182.02 55.5324 181.953 55.4791 181.847 55.4257C181.713 55.3991 181.633 55.3724 181.607 55.3457C181.607 55.3191 181.66 55.2524 181.767 55.1457C181.873 55.0124 181.913 54.9324 181.887 54.9057C181.887 54.8791 181.833 54.8524 181.727 54.8257C181.62 54.7724 181.567 54.7324 181.567 54.7057C181.567 54.6791 181.62 54.6524 181.727 54.6257C181.78 54.5991 181.833 54.5591 181.887 54.5057C181.94 54.4524 181.967 54.3857 181.967 54.3057C181.967 54.1724 182.033 54.1057 182.167 54.1057C182.3 54.1057 182.367 54.0657 182.367 53.9857C182.367 53.8791 182.3 53.7724 182.167 53.6657C182.087 53.5324 182.047 53.4524 182.047 53.4257C182.047 53.3724 182.113 53.2791 182.247 53.1457C182.513 52.9324 182.967 52.7591 183.607 52.6257L184.647 52.3857L184.687 51.7857C184.74 51.4124 184.687 50.7724 184.527 49.8657C184.367 48.9057 184.287 48.3057 184.287 48.0657C184.287 47.1324 184.14 46.6657 183.847 46.6657C183.687 46.6657 183.593 46.5991 183.567 46.4657C183.54 46.3057 183.593 46.2257 183.727 46.2257C183.78 46.2257 183.78 46.2124 183.727 46.1857C183.7 46.1324 183.647 46.0924 183.567 46.0657C183.433 46.0124 183.353 45.9724 183.327 45.9457C183.3 45.8924 183.34 45.8524 183.447 45.8257C183.527 45.7724 183.567 45.7457 183.567 45.7457C183.567 45.6924 183.433 45.6257 183.167 45.5457C182.9 45.4657 182.727 45.3857 182.647 45.3057C182.567 45.1991 182.487 44.9857 182.407 44.6657C182.353 44.4791 182.327 44.1191 182.327 43.5857C182.327 42.4391 182.433 41.5857 182.647 41.0257L182.887 40.4257L190.407 40.4657C196.033 40.4657 199.247 40.4391 200.047 40.3857C201.407 40.3324 202.06 40.3191 202.007 40.3457C201.82 40.3991 201.553 40.4524 201.207 40.5057C200.967 40.5324 200.847 40.5724 200.847 40.6257L201.647 40.7057C202.18 40.7591 202.673 40.8924 203.127 41.1057C203.607 41.2924 203.74 41.4257 203.527 41.5057C203.42 41.5591 203.367 41.6524 203.367 41.7857C203.367 41.8657 203.42 42.0391 203.527 42.3057C203.633 42.4657 203.687 42.6124 203.687 42.7457C203.687 42.8791 203.74 42.9457 203.847 42.9457H203.887C203.913 42.9457 203.927 42.9591 203.927 42.9857C203.927 43.0657 203.887 43.1857 203.807 43.3457C203.62 43.6124 203.5 43.7457 203.447 43.7457C203.367 43.7457 203.327 43.7857 203.327 43.8657C203.327 43.9991 203.433 44.1057 203.647 44.1857C203.78 44.2124 203.847 44.2524 203.847 44.3057C203.847 44.3591 203.713 44.5191 203.447 44.7857L202.967 45.3057V50.9457C202.967 53.4791 202.953 55.0924 202.927 55.7857C202.9 56.4524 202.82 56.9057 202.687 57.1457C202.527 57.5191 202.313 57.7324 202.047 57.7857C201.78 57.8391 199.833 57.8657 196.207 57.8657L190.767 57.8257L190.647 59.2657L190.487 62.1457ZM190.807 46.7857C190.78 46.8124 190.767 47.1324 190.767 47.7457C190.767 48.5991 190.793 49.5057 190.847 50.4657C190.9 51.4257 190.953 51.9057 191.007 51.9057L193.047 51.7457C194.407 51.6391 195.313 51.5457 195.767 51.4657L196.607 51.3057L196.687 48.8657V46.3857C196.633 46.3324 195.647 46.3724 193.727 46.5057C191.807 46.6391 190.833 46.7324 190.807 46.7857ZM197.087 46.3857C197.06 46.3857 197.047 46.4657 197.047 46.6257C197.047 46.7857 197.06 46.9324 197.087 47.0657C197.113 47.1724 197.14 47.2391 197.167 47.2657C197.193 47.2657 197.207 47.1191 197.207 46.8257C197.207 46.5324 197.167 46.3857 197.087 46.3857ZM197.607 46.5057C197.58 46.4524 197.553 46.4524 197.527 46.5057C197.527 46.5324 197.527 46.5857 197.527 46.6657C197.527 46.7457 197.527 46.8124 197.527 46.8657C197.553 46.9191 197.58 46.9191 197.607 46.8657C197.66 46.7324 197.66 46.6124 197.607 46.5057ZM197.447 48.2257C197.447 48.2524 197.433 48.3057 197.407 48.3857C197.407 48.4657 197.407 48.5724 197.407 48.7057C197.407 48.8924 197.407 49.0391 197.407 49.1457C197.433 49.2257 197.46 49.2124 197.487 49.1057V48.3057L197.447 48.2257ZM197.447 50.1057C197.447 50.1324 197.433 50.1857 197.407 50.2657C197.407 50.3457 197.407 50.4524 197.407 50.5857C197.407 50.7724 197.407 50.9191 197.407 51.0257C197.433 51.1057 197.46 51.0924 197.487 50.9857V50.1857L197.447 50.1057Z" fill="white"/>
</g>
</g>
<defs>
<filter id="filter0_d_30_533" x="-4" y="6" width="282" height="132" filterUnits="userSpaceOnUse" color-interpolation-filters="sRGB">
<feFlood flood-opacity="0" result="BackgroundImageFix"/>
<feColorMatrix in="SourceAlpha" type="matrix" values="0 0 0 0 0 0 0 0 0 0 0 0 0 0 0 0 0 0 127 0" result="hardAlpha"/>
<feOffset dy="4"/>
<feGaussianBlur stdDeviation="2"/>
<feComposite in2="hardAlpha" operator="out"/>
<feColorMatrix type="matrix" values="0 0 0 0 0 0 0 0 0 0 0 0 0 0 0 0 0 0 0.25 0"/>
<feBlend mode="normal" in2="BackgroundImageFix" result="effect1_dropShadow_30_533"/>
<feBlend mode="normal" in="SourceGraphic" in2="effect1_dropShadow_30_533" result="shape"/>
</filter>
<clipPath id="clip0_30_533">
<rect width="274" height="130" fill="white"/>
</clipPath>
</defs>
</svg>
