<svg width="282" height="138" viewBox="0 0 282 138" fill="none" xmlns="http://www.w3.org/2000/svg">
<g filter="url(#filter0_d_30_525)">
<path fill-rule="evenodd" clip-rule="evenodd" d="M19.2137 29.8837H262.788C271.073 29.8837 278 36.61 278 44.9771V114.76C278 123.127 271.073 130 262.788 130H19.2137C10.9274 130 4 123.127 4 114.76V44.9771C4 36.61 10.9274 29.8837 19.2137 29.8837Z" fill="#1C1C1C"/>
<path fill-rule="evenodd" clip-rule="evenodd" d="M18.61 28.9875H263.389C271.522 28.9875 277.998 35.4122 277.998 43.3319V110.126C277.998 118.194 271.522 124.619 263.389 124.619H18.61C10.6263 124.619 4 118.194 4 110.126V43.3319C4 35.4122 10.6263 28.9875 18.61 28.9875Z" fill="#353535"/>
<path fill-rule="evenodd" clip-rule="evenodd" d="M19.2137 21.5166H262.788C271.073 21.5166 278 28.3901 278 36.61V106.541C278 114.911 271.073 121.633 262.788 121.633H19.2137C10.9274 121.633 4 114.91 4 106.541V36.61C4 28.3901 10.9274 21.5166 19.2137 21.5166Z" fill="#1C1C1C"/>
<path fill-rule="evenodd" clip-rule="evenodd" d="M27.9493 12.1033H252.092C259.926 12.1033 266.251 18.3794 266.251 26.0004V90.5515C266.251 98.1726 259.925 104.449 252.092 104.449H27.9493C20.2698 104.449 13.9431 98.1726 13.9431 90.5515V26.0004C13.9431 18.3794 20.2698 12.1033 27.9493 12.1033Z" fill="#19CFD8"/>
<path fill-rule="evenodd" clip-rule="evenodd" d="M27.9493 2.68854H252.092C259.926 2.68854 266.251 8.96608 266.251 16.5871V81.1398C266.251 88.7578 259.925 95.0353 252.092 95.0353H27.9493C20.2698 95.0353 13.9431 88.7578 13.9431 81.1398V16.5871C13.9431 8.96608 20.2698 2.68854 27.9493 2.68854Z" fill="#48F6FF"/>
<path fill-rule="evenodd" clip-rule="evenodd" d="M27.9493 4.57764e-05H252.092C259.926 4.57764e-05 266.251 6.27608 266.251 13.8956V78.4498C266.251 86.0678 259.925 92.3468 252.092 92.3468H27.9493C20.2698 92.3468 13.9431 86.0678 13.9431 78.4498V13.8956C13.9431 6.27608 20.2698 4.57764e-05 27.9493 4.57764e-05Z" fill="#18EBFF"/>
<path d="M93.2691 56.4752C93.6691 56.9552 93.9224 57.2885 94.0291 57.4752C94.1358 57.6618 94.1491 57.7818 94.0691 57.8352C93.9091 57.9418 93.8558 58.0618 93.9091 58.1952C93.9624 58.3285 93.9091 58.3552 93.7491 58.2752C93.5891 58.2218 93.5224 58.2352 93.5491 58.3152L93.7891 58.7952C93.8691 58.9552 93.9091 59.0752 93.9091 59.1552C93.9091 59.2352 93.8691 59.3552 93.7891 59.5152C93.7091 59.6485 93.6424 59.7552 93.5891 59.8352C93.2958 60.2352 92.8291 60.7418 92.1891 61.3552C91.5758 61.9685 91.1758 62.3018 90.9891 62.3552C90.7758 62.4085 90.6424 62.4885 90.5891 62.5952C90.5624 62.6485 90.0691 62.2218 89.1091 61.3152C88.1491 60.4085 87.0691 59.3685 85.8691 58.1952C82.8024 55.1818 81.2291 53.6752 81.1491 53.6752C81.1224 53.8618 81.0958 54.2485 81.0691 54.8352C81.0424 55.4218 81.0291 56.1418 81.0291 56.9952C81.0291 57.8752 81.0158 58.6885 80.9891 59.4352C80.9624 60.1818 80.9224 60.6218 80.8691 60.7552L80.7891 60.9952C80.7624 60.9952 80.7358 60.8085 80.7091 60.4352V59.7152L80.5891 60.3152C80.4024 61.0618 80.1091 61.7018 79.7091 62.2352C79.6291 62.3418 79.5491 62.4085 79.4691 62.4352C79.4158 62.4618 79.3758 62.4352 79.3491 62.3552C79.3224 62.1952 79.1758 62.1152 78.9091 62.1152C78.6691 62.1152 78.5091 62.1952 78.4291 62.3552C78.3224 62.5418 78.2691 62.5685 78.2691 62.4352C78.2691 62.3018 78.1624 62.2618 77.9491 62.3152H77.8691C77.7358 62.3152 77.5491 62.2218 77.3091 62.0352C77.1758 61.8752 77.0691 61.7952 76.9891 61.7952C76.9358 61.7685 76.8691 61.8085 76.7891 61.9152C76.6558 62.0485 76.5491 62.1152 76.4691 62.1152C75.9624 62.1152 75.5891 60.4752 75.3491 57.1952L75.2691 55.8352L75.0291 52.2352L74.7891 48.3152C74.7624 48.0752 74.7491 47.6485 74.7491 47.0352C74.7491 46.3952 74.7624 45.9552 74.7891 45.7152C74.8958 44.6485 74.9758 43.9952 75.0291 43.7552C75.0824 43.4885 75.1624 43.3818 75.2691 43.4352C75.4024 43.4885 75.4958 43.4485 75.5491 43.3152C75.6024 43.1818 75.6691 43.1952 75.7491 43.3552C75.8024 43.4085 75.8424 43.4352 75.8691 43.4352C75.9758 43.4352 76.1091 43.1685 76.2691 42.6352C76.4024 42.3152 77.0558 42.1552 78.2291 42.1552C78.9758 42.1552 79.4824 42.1818 79.7491 42.2352C80.0424 42.2618 80.3224 42.3285 80.5891 42.4352L80.9891 42.5552C81.1491 42.6085 81.2424 42.7285 81.2691 42.9152C81.2958 43.0752 81.3091 43.6218 81.3091 44.5552V45.3952C81.3091 46.1152 81.3224 46.4885 81.3491 46.5152C81.4024 46.5685 81.8024 46.3018 82.5491 45.7152C83.3224 45.1285 83.9358 44.6085 84.3891 44.1552C84.8158 43.7018 85.2291 43.1418 85.6291 42.4752C86.0558 41.7818 86.3358 41.2085 86.4691 40.7552L86.5491 40.4352L84.7891 40.5152C83.9624 40.5685 82.7224 40.5952 81.0691 40.5952C79.1491 40.5952 77.8158 40.5418 77.0691 40.4352C76.4291 40.3552 76.0024 40.2752 75.7891 40.1952C75.5758 40.0885 75.5091 39.9685 75.5891 39.8352C75.6424 39.7818 75.6024 39.7552 75.4691 39.7552C75.3358 39.7552 75.3358 39.6885 75.4691 39.5552C75.4958 39.5285 75.5091 39.4618 75.5091 39.3552C75.5091 39.2752 75.4691 39.1952 75.3891 39.1152C75.3091 39.0352 75.2158 38.9952 75.1091 38.9952C74.7624 38.9952 74.5891 38.4752 74.5891 37.4352C74.5891 36.5552 74.6024 35.9685 74.6291 35.6752C74.6824 35.3552 74.7758 34.9685 74.9091 34.5152L75.1091 33.8752L76.8691 33.9952C78.8691 34.0752 81.4558 34.1552 84.6291 34.2352C88.6824 34.3418 90.8158 34.4352 91.0291 34.5152C91.2958 34.6218 91.5624 34.8218 91.8291 35.1152C92.1224 35.3818 92.3491 35.6885 92.5091 36.0352C92.6158 36.2218 92.6824 36.3952 92.7091 36.5552C92.7624 36.7152 92.7891 36.9418 92.7891 37.2352C92.7891 42.4085 90.8824 46.4618 87.0691 49.3952L85.9891 50.2352L86.6691 50.8352C88.0824 52.0618 89.2291 53.0085 90.1091 53.6752C91.0158 54.3418 91.6424 54.8218 91.9891 55.1152C92.3358 55.4085 92.7624 55.8618 93.2691 56.4752ZM77.3091 39.7152C77.5491 39.7152 77.5224 39.6752 77.2291 39.5952C77.0158 39.5152 76.8024 39.4752 76.5891 39.4752C76.3224 39.4752 76.3491 39.5152 76.6691 39.5952C77.0691 39.6752 77.2824 39.7152 77.3091 39.7152ZM75.8291 44.5152C75.8558 44.0618 75.8424 43.9285 75.7891 44.1152C75.7358 44.3018 75.6958 44.5818 75.6691 44.9552C75.6424 45.3018 75.6558 45.4485 75.7091 45.3952L75.8291 44.5152ZM93.4691 58.0352C93.4958 58.0352 93.4158 57.9018 93.2291 57.6352C93.0158 57.3152 92.8291 57.1152 92.6691 57.0352C92.5091 56.9018 92.4958 56.9285 92.6291 57.1152C93.1091 57.7285 93.3891 58.0352 93.4691 58.0352Z" fill="white"/>
<path d="M101.908 55.8752L103.428 55.9952L109.068 56.2352C112.375 56.3418 114.028 56.5018 114.028 56.7152C114.028 56.7152 114.002 56.7285 113.948 56.7552C113.922 56.7552 113.868 56.7552 113.788 56.7552L113.268 56.7152C112.868 56.7152 112.735 56.7285 112.868 56.7552C113.508 56.8885 114.082 57.1152 114.588 57.4352C115.095 57.7285 115.255 57.9685 115.068 58.1552C114.962 58.2618 114.908 58.3952 114.908 58.5552C114.908 58.7685 114.988 58.9152 115.148 58.9952C115.202 59.0218 115.242 59.0618 115.268 59.1152C115.295 59.1418 115.282 59.1552 115.228 59.1552C115.095 59.1552 115.028 59.2218 115.028 59.3552C115.028 59.5152 115.095 59.5952 115.228 59.5952C115.282 59.5952 115.295 59.6218 115.268 59.6752C115.242 59.7018 115.202 59.7285 115.148 59.7552C114.988 59.8352 114.908 59.9552 114.908 60.1152C114.908 60.2485 114.828 60.3152 114.668 60.3152C114.535 60.3152 114.468 60.3418 114.468 60.3952C114.468 60.4485 114.535 60.5685 114.668 60.7552C114.775 60.8618 114.828 60.9418 114.828 60.9952C114.828 61.2085 114.615 61.3818 114.188 61.5152C113.788 61.6485 113.028 61.7552 111.908 61.8352C110.815 61.9152 109.175 61.9952 106.988 62.0752C105.042 62.1285 103.482 62.1818 102.308 62.2352C101.162 62.2885 100.442 62.3418 100.148 62.3952C99.8818 62.4752 99.6552 62.6218 99.4685 62.8352C99.3352 62.9952 99.2285 63.0885 99.1485 63.1152C99.0952 63.1685 99.0685 63.1418 99.0685 63.0352C99.0418 62.9018 98.9485 62.7818 98.7885 62.6752C98.6285 62.5685 98.4952 62.5552 98.3885 62.6352C98.2818 62.6885 98.2018 62.7818 98.1485 62.9152C98.1218 62.9952 98.0952 63.0352 98.0685 63.0352C98.0418 63.0352 98.0285 62.9952 98.0285 62.9152C98.0285 62.7285 97.9618 62.6352 97.8285 62.6352C97.6952 62.6352 97.6018 62.7285 97.5485 62.9152C97.5485 62.9952 97.5352 63.0218 97.5085 62.9952C97.4818 62.9952 97.4685 62.9552 97.4685 62.8752C97.4418 62.6885 97.3352 62.5018 97.1485 62.3152C96.9618 62.1552 96.7618 62.0618 96.5485 62.0352C96.3352 62.0352 96.1485 62.0085 95.9885 61.9552C95.8552 61.9018 95.7618 61.8085 95.7085 61.6752C95.6818 61.5418 95.7352 61.4752 95.8685 61.4752C95.9218 61.4752 95.9352 61.4618 95.9085 61.4352C95.9085 61.3818 95.8685 61.3418 95.7885 61.3152C95.6018 61.2085 95.5752 61.1152 95.7085 61.0352L95.7485 60.9552C95.7485 60.9018 95.6152 60.8352 95.3485 60.7552C95.0552 60.6752 94.8552 60.5285 94.7485 60.3152C94.6685 60.0752 94.6285 59.6085 94.6285 58.9152C94.6285 57.6085 94.7218 56.7552 94.9085 56.3552C95.1218 56.0352 95.2018 55.8352 95.1485 55.7552C95.1485 55.7018 95.3085 55.6752 95.6285 55.6752H96.1085L96.1885 54.2352L96.2685 52.1952V51.5952H95.6685L94.6685 51.4752L94.5485 51.3952C94.5485 51.3685 94.7352 51.3552 95.1085 51.3552C95.6418 51.3018 95.9218 51.2618 95.9485 51.2352C96.0018 51.1818 95.8418 51.1552 95.4685 51.1552C95.2018 51.1552 94.8552 51.0752 94.4285 50.9152C94.0285 50.7552 93.6952 50.5818 93.4285 50.3952C93.1618 50.2085 93.0952 50.0752 93.2285 49.9952C93.3085 49.9152 93.3752 49.7818 93.4285 49.5952C93.4818 49.4618 93.4952 49.3685 93.4685 49.3152C93.4418 49.2618 93.3752 49.2085 93.2685 49.1552C93.1352 49.1285 93.0552 49.1018 93.0285 49.0752C93.0285 49.0485 93.0818 48.9818 93.1885 48.8752C93.2952 48.7418 93.3352 48.6618 93.3085 48.6352C93.3085 48.6085 93.2552 48.5818 93.1485 48.5552C93.0418 48.5018 92.9885 48.4618 92.9885 48.4352C92.9885 48.4085 93.0418 48.3818 93.1485 48.3552C93.2018 48.3285 93.2552 48.2885 93.3085 48.2352C93.3618 48.1818 93.3885 48.1152 93.3885 48.0352C93.3885 47.9018 93.4552 47.8352 93.5885 47.8352C93.7218 47.8352 93.7885 47.7952 93.7885 47.7152C93.7885 47.6085 93.7218 47.5018 93.5885 47.3952C93.5085 47.2618 93.4685 47.1818 93.4685 47.1552C93.4685 47.1018 93.5352 47.0085 93.6685 46.8752C93.9352 46.6618 94.3885 46.4885 95.0285 46.3552L96.0685 46.1152L96.1085 45.5152C96.1618 45.1418 96.1085 44.5018 95.9485 43.5952C95.7885 42.6352 95.7085 42.0352 95.7085 41.7952C95.7085 40.8618 95.5618 40.3952 95.2685 40.3952C95.1085 40.3952 95.0152 40.3285 94.9885 40.1952C94.9618 40.0352 95.0152 39.9552 95.1485 39.9552C95.2018 39.9552 95.2018 39.9418 95.1485 39.9152C95.1218 39.8618 95.0685 39.8218 94.9885 39.7952C94.8552 39.7418 94.7752 39.7018 94.7485 39.6752C94.7218 39.6218 94.7618 39.5818 94.8685 39.5552C94.9485 39.5018 94.9885 39.4752 94.9885 39.4752C94.9885 39.4218 94.8552 39.3552 94.5885 39.2752C94.3218 39.1952 94.1485 39.1152 94.0685 39.0352C93.9885 38.9285 93.9085 38.7152 93.8285 38.3952C93.7752 38.2085 93.7485 37.8485 93.7485 37.3152C93.7485 36.1685 93.8552 35.3152 94.0685 34.7552L94.3085 34.1552L101.828 34.1952C107.455 34.1952 110.668 34.1685 111.468 34.1152C112.828 34.0618 113.482 34.0485 113.428 34.0752C113.242 34.1285 112.975 34.1818 112.628 34.2352C112.388 34.2618 112.268 34.3018 112.268 34.3552L113.068 34.4352C113.602 34.4885 114.095 34.6218 114.548 34.8352C115.028 35.0218 115.162 35.1552 114.948 35.2352C114.842 35.2885 114.788 35.3818 114.788 35.5152C114.788 35.5952 114.842 35.7685 114.948 36.0352C115.055 36.1952 115.108 36.3418 115.108 36.4752C115.108 36.6085 115.162 36.6752 115.268 36.6752H115.308C115.335 36.6752 115.348 36.6885 115.348 36.7152C115.348 36.7952 115.308 36.9152 115.228 37.0752C115.042 37.3418 114.922 37.4752 114.868 37.4752C114.788 37.4752 114.748 37.5152 114.748 37.5952C114.748 37.7285 114.855 37.8352 115.068 37.9152C115.202 37.9418 115.268 37.9818 115.268 38.0352C115.268 38.0885 115.135 38.2485 114.868 38.5152L114.388 39.0352V44.6752C114.388 47.2085 114.375 48.8218 114.348 49.5152C114.322 50.1818 114.242 50.6352 114.108 50.8752C113.948 51.2485 113.735 51.4618 113.468 51.5152C113.202 51.5685 111.255 51.5952 107.628 51.5952L102.188 51.5552L102.068 52.9952L101.908 55.8752ZM102.228 40.5152C102.202 40.5418 102.188 40.8618 102.188 41.4752C102.188 42.3285 102.215 43.2352 102.268 44.1952C102.322 45.1552 102.375 45.6352 102.428 45.6352L104.468 45.4752C105.828 45.3685 106.735 45.2752 107.188 45.1952L108.028 45.0352L108.108 42.5952V40.1152C108.055 40.0618 107.068 40.1018 105.148 40.2352C103.228 40.3685 102.255 40.4618 102.228 40.5152ZM108.508 40.1152C108.482 40.1152 108.468 40.1952 108.468 40.3552C108.468 40.5152 108.482 40.6618 108.508 40.7952C108.535 40.9018 108.562 40.9685 108.588 40.9952C108.615 40.9952 108.628 40.8485 108.628 40.5552C108.628 40.2618 108.588 40.1152 108.508 40.1152ZM109.028 40.2352C109.002 40.1818 108.975 40.1818 108.948 40.2352C108.948 40.2618 108.948 40.3152 108.948 40.3952C108.948 40.4752 108.948 40.5418 108.948 40.5952C108.975 40.6485 109.002 40.6485 109.028 40.5952C109.082 40.4618 109.082 40.3418 109.028 40.2352ZM108.868 41.9552C108.868 41.9818 108.855 42.0352 108.828 42.1152C108.828 42.1952 108.828 42.3018 108.828 42.4352C108.828 42.6218 108.828 42.7685 108.828 42.8752C108.855 42.9552 108.882 42.9418 108.908 42.8352V42.0352L108.868 41.9552ZM108.868 43.8352C108.868 43.8618 108.855 43.9152 108.828 43.9952C108.828 44.0752 108.828 44.1818 108.828 44.3152C108.828 44.5018 108.828 44.6485 108.828 44.7552C108.855 44.8352 108.882 44.8218 108.908 44.7152V43.9152L108.868 43.8352Z" fill="white"/>
<path d="M135.822 48.6752C135.982 48.8352 136.009 48.9152 135.902 48.9152C135.769 48.9152 135.729 49.0085 135.782 49.1952L135.822 49.3152C135.822 49.3952 135.756 49.5685 135.622 49.8352C135.516 49.9685 135.449 50.0618 135.422 50.1152C135.422 50.1685 135.462 50.2618 135.542 50.3952C135.622 50.4752 135.662 50.5552 135.662 50.6352C135.662 50.7152 135.582 50.8352 135.422 50.9952C135.102 51.2618 134.756 51.4085 134.382 51.4352C134.062 51.4885 133.862 51.5552 133.782 51.6352C133.729 51.7152 133.662 51.9152 133.582 52.2352C133.422 52.8485 133.076 53.6485 132.542 54.6352C132.036 55.5952 131.542 56.3552 131.062 56.9152C130.289 57.8218 129.369 58.6752 128.302 59.4752C127.262 60.2485 126.316 60.7952 125.462 61.1152C124.769 61.3818 123.956 61.5952 123.022 61.7552C122.089 61.9152 121.209 61.9952 120.382 61.9952C119.609 61.9952 118.996 61.9152 118.542 61.7552L118.142 61.6352C118.142 61.6085 118.209 61.5952 118.342 61.5952C119.009 61.5952 119.422 61.6085 119.582 61.6352C119.769 61.6352 119.862 61.6352 119.862 61.6352C119.596 61.6352 119.116 61.5285 118.422 61.3152C117.756 61.1018 117.382 60.9418 117.302 60.8352L116.822 60.4352C116.716 60.3285 116.636 60.2485 116.582 60.1952C116.529 60.1418 116.542 60.1152 116.622 60.1152C116.756 60.1152 116.849 60.0218 116.902 59.8352C116.982 59.6218 116.969 59.4485 116.862 59.3152C116.756 59.1552 116.729 59.0085 116.782 58.8752C116.836 58.8218 116.849 58.7685 116.822 58.7152C116.796 58.6618 116.756 58.6352 116.702 58.6352C116.676 58.6352 116.662 58.6218 116.662 58.5952C116.662 58.5418 116.742 58.4352 116.902 58.2752C117.196 58.0352 117.382 57.9152 117.462 57.9152C117.542 57.9152 117.582 57.8752 117.582 57.7952C117.582 57.6885 117.529 57.6085 117.422 57.5552C117.342 57.5018 117.302 57.4352 117.302 57.3552C117.302 57.1685 117.436 57.0352 117.702 56.9552C117.836 56.8752 118.476 56.7552 119.622 56.5952C120.929 56.4618 122.022 56.2218 122.902 55.8752C123.809 55.5285 124.596 55.0352 125.262 54.3952C125.636 54.0485 125.996 53.6352 126.342 53.1552C126.716 52.6752 126.902 52.3685 126.902 52.2352C126.902 52.1552 126.729 52.1152 126.382 52.1152C125.876 52.1152 125.156 52.1952 124.222 52.3552C123.609 52.4618 123.022 52.5152 122.462 52.5152C122.302 52.5152 121.689 52.4885 120.622 52.4352C118.596 52.3285 117.822 52.1285 118.302 51.8352C118.382 51.7818 118.396 51.7418 118.342 51.7152C118.316 51.6618 118.249 51.6218 118.142 51.5952C118.009 51.5685 117.929 51.5418 117.902 51.5152C117.902 51.4618 117.969 51.4218 118.102 51.3952C118.209 51.3418 118.262 51.3018 118.262 51.2752C118.262 51.2485 118.116 51.2085 117.822 51.1552C117.502 51.1018 117.276 50.9818 117.142 50.7952C117.036 50.6085 116.956 50.2352 116.902 49.6752C116.849 49.1418 116.902 48.2218 117.062 46.9152C117.222 45.5818 117.396 44.6218 117.582 44.0352C118.622 40.6485 121.182 37.7818 125.262 35.4352C126.116 34.9552 126.929 34.6085 127.702 34.3952C128.502 34.1818 129.396 34.0752 130.382 34.0752C131.316 34.0752 131.929 34.1018 132.222 34.1552C132.542 34.2085 132.702 34.3152 132.702 34.4752C132.702 34.6085 132.756 34.6752 132.862 34.6752C132.969 34.6752 132.969 34.7418 132.862 34.8752C132.782 34.9552 132.742 35.0218 132.742 35.0752C132.769 35.1285 132.849 35.1818 132.982 35.2352C133.196 35.3418 133.369 35.3952 133.502 35.3952C133.662 35.3952 133.756 35.4352 133.782 35.5152C133.969 35.8085 134.062 36.5685 134.062 37.7952C134.062 38.7818 133.996 39.4085 133.862 39.6752C133.676 39.9952 133.609 40.1818 133.662 40.2352C133.716 40.2885 133.516 40.3418 133.062 40.3952C132.636 40.4485 132.009 40.4885 131.182 40.5152C129.476 40.5952 127.942 41.0218 126.582 41.7952C125.222 42.5685 124.156 43.6352 123.382 44.9952C123.222 45.2352 123.102 45.4352 123.022 45.5952C122.942 45.7552 122.889 45.8752 122.862 45.9552L125.262 46.0752C125.796 46.1018 126.356 46.1152 126.942 46.1152C127.262 46.1152 127.449 46.1018 127.502 46.0752C127.582 46.0485 127.622 45.9818 127.622 45.8752C127.622 45.6885 127.676 45.5552 127.782 45.4752C127.889 45.3952 127.982 45.4218 128.062 45.5552C128.116 45.6885 128.182 45.6352 128.262 45.3952C128.289 45.2352 128.316 45.1552 128.342 45.1552C128.396 45.1552 128.449 45.2218 128.502 45.3552C128.529 45.3818 128.542 45.4218 128.542 45.4752C128.542 45.5018 128.556 45.5152 128.582 45.5152C128.636 45.5152 128.676 45.3552 128.702 45.0352C128.756 44.7418 128.822 44.5552 128.902 44.4752C129.009 44.3685 129.249 44.2485 129.622 44.1152C130.156 43.9018 130.449 43.8218 130.502 43.8752H130.622C130.996 43.8752 131.302 43.8618 131.542 43.8352C131.916 43.7818 132.196 43.7552 132.382 43.7552C132.649 43.7552 132.889 43.7818 133.102 43.8352L133.702 43.9952L133.902 45.1152C133.982 45.5952 134.049 45.9018 134.102 46.0352C134.182 46.1685 134.302 46.2618 134.462 46.3152C134.596 46.3418 134.649 46.3685 134.622 46.3952C134.622 46.4218 134.542 46.4352 134.382 46.4352C134.302 46.4352 134.236 46.4485 134.182 46.4752C134.129 46.4752 134.089 46.4752 134.062 46.4752C134.062 46.5018 134.236 46.5952 134.582 46.7552C135.542 47.1818 135.929 47.5685 135.742 47.9152C135.662 48.0752 135.622 48.1952 135.622 48.2752C135.622 48.4085 135.689 48.5418 135.822 48.6752ZM130.302 34.8752L131.022 34.9552C132.089 35.1152 132.409 35.1152 131.982 34.9552C131.769 34.8752 131.422 34.8352 130.942 34.8352L130.302 34.8752ZM128.342 44.7552C128.342 44.5685 128.382 44.5418 128.462 44.6752C128.489 44.7285 128.489 44.7818 128.462 44.8352C128.462 44.8885 128.449 44.9285 128.422 44.9552C128.369 45.0085 128.342 44.9418 128.342 44.7552ZM119.022 51.4752C119.289 51.4752 119.382 51.4618 119.302 51.4352C119.142 51.3818 118.969 51.3818 118.782 51.4352C118.702 51.4618 118.782 51.4752 119.022 51.4752ZM120.262 51.6352C120.396 51.6352 120.502 51.6352 120.582 51.6352C120.662 51.6085 120.676 51.5818 120.622 51.5552C120.569 51.5552 120.476 51.5552 120.342 51.5552C120.209 51.5285 120.102 51.5285 120.022 51.5552L119.942 51.5952C119.942 51.6218 120.049 51.6352 120.262 51.6352Z" fill="white"/>
<path d="M156.186 52.0752C156.266 54.1552 156.306 56.1418 156.306 58.0352C156.306 58.9952 156.293 59.5552 156.266 59.7152L156.146 60.3552L156.106 59.4752C156.053 58.6752 155.986 58.2752 155.906 58.2752C155.879 58.2752 155.866 58.5152 155.866 58.9952C155.866 59.5018 155.786 60.0352 155.626 60.5952C155.466 61.1552 155.279 61.5685 155.066 61.8352C154.906 62.0752 154.799 62.1152 154.746 61.9552C154.719 61.8218 154.599 61.7552 154.386 61.7552C154.173 61.7552 154.026 61.8485 153.946 62.0352C153.919 62.1418 153.893 62.1952 153.866 62.1952C153.839 62.2218 153.773 62.1818 153.666 62.0752C153.559 61.9685 153.479 61.9285 153.426 61.9552C153.399 61.9552 153.359 62.0352 153.306 62.1952C153.279 62.4085 153.239 62.4485 153.186 62.3152C153.186 62.1285 153.053 61.9418 152.786 61.7552C152.546 61.5685 152.346 61.5152 152.186 61.5952C152.026 61.6218 151.773 61.6618 151.426 61.7152C151.079 61.7685 150.679 61.8218 150.226 61.8752C149.533 61.9285 149.013 61.9552 148.666 61.9552C145.999 61.9552 143.759 61.2752 141.946 59.9152C141.226 59.4085 140.613 58.8218 140.106 58.1552C139.626 57.4885 139.173 56.6218 138.746 55.5552C138.239 54.2752 137.839 52.8885 137.546 51.3952C137.279 49.9018 136.973 47.5552 136.626 44.3552C136.466 42.9152 136.386 41.4752 136.386 40.0352C136.386 38.2218 136.506 36.7418 136.746 35.5952C136.853 35.0352 136.933 34.7018 136.986 34.5952C137.039 34.4885 137.119 34.5018 137.226 34.6352C137.306 34.7152 137.373 34.7685 137.426 34.7952C137.479 34.7952 137.506 34.7418 137.506 34.6352C137.506 34.5018 137.546 34.4352 137.626 34.4352C137.733 34.4085 137.799 34.4618 137.826 34.5952L137.866 34.6352C137.919 34.6352 137.986 34.5285 138.066 34.3152C138.119 34.1818 138.186 34.0618 138.266 33.9552C138.373 33.8485 138.466 33.7818 138.546 33.7552C138.759 33.7018 139.106 33.6752 139.586 33.6752C140.386 33.6752 140.919 33.7152 141.186 33.7952C141.479 33.9018 141.693 33.9285 141.826 33.8752H141.866C141.999 33.8752 142.199 33.9418 142.466 34.0752C142.786 34.2352 142.986 34.3152 143.066 34.3152C143.146 34.3152 143.186 34.5018 143.186 34.8752C143.186 35.3818 143.133 36.2218 143.026 37.3952C142.919 38.8885 142.866 40.2618 142.866 41.5152C142.866 43.3018 142.933 45.1018 143.066 46.9152C143.199 48.7285 143.359 50.1285 143.546 51.1152C143.706 51.9418 143.919 52.7018 144.186 53.3952C144.453 54.0618 144.719 54.5552 144.986 54.8752C145.306 55.2218 145.746 55.5418 146.306 55.8352C146.733 56.0218 147.333 56.1818 148.106 56.3152C148.879 56.4485 149.519 56.5152 150.026 56.5152C150.399 56.5152 150.599 56.4752 150.626 56.3952C150.679 56.3418 150.653 55.8885 150.546 55.0352L150.306 51.2752C150.039 46.5285 149.813 43.5552 149.626 42.3552C149.493 41.5285 149.426 40.3018 149.426 38.6752C149.426 37.6885 149.453 36.8618 149.506 36.1952C149.586 35.5018 149.679 35.1552 149.786 35.1552C149.919 35.1552 149.986 35.2085 149.986 35.3152C150.013 35.3952 150.066 35.3418 150.146 35.1552C150.226 34.9685 150.279 34.8752 150.306 34.8752C150.333 34.8752 150.373 34.9418 150.426 35.0752L150.506 35.2352C150.559 35.2352 150.599 35.1285 150.626 34.9152C150.679 34.6485 150.759 34.4618 150.866 34.3552C150.999 34.2218 151.213 34.1152 151.506 34.0352C151.666 33.9818 152.106 33.9552 152.826 33.9552C153.813 33.9552 154.599 34.0085 155.186 34.1152C155.506 34.2218 155.693 34.3152 155.746 34.3952C155.799 34.4485 155.826 34.6218 155.826 34.9152L155.866 37.5552C155.919 39.3418 155.973 41.8352 156.026 45.0352C156.079 48.3685 156.133 50.7152 156.186 52.0752ZM137.706 35.4352C137.733 35.1152 137.719 35.0352 137.666 35.1952C137.639 35.2218 137.559 35.4885 137.426 35.9952C137.399 36.3152 137.413 36.3952 137.466 36.2352C137.493 36.2085 137.573 35.9418 137.706 35.4352ZM150.266 36.8752C150.373 36.7152 150.426 36.5285 150.426 36.3152C150.426 36.1285 150.413 36.0352 150.386 36.0352C150.359 36.0352 150.306 36.2218 150.226 36.5952C150.199 36.7285 150.186 36.8352 150.186 36.9152C150.186 36.9685 150.213 36.9552 150.266 36.8752ZM150.346 56.9552C150.453 56.9552 150.533 56.9418 150.586 56.9152C150.639 56.8885 150.679 56.8618 150.706 56.8352C150.706 56.7818 150.639 56.7552 150.506 56.7552C150.373 56.7552 150.253 56.7685 150.146 56.7952C150.066 56.8218 150.013 56.8485 149.986 56.8752C149.986 56.9285 150.106 56.9552 150.346 56.9552Z" fill="white"/>
<path d="M185.119 43.3952C185.119 46.4885 184.919 49.8218 184.519 53.3952C184.119 56.9685 183.679 59.2752 183.199 60.3152C183.145 60.4485 183.092 60.5418 183.039 60.5952C183.012 60.6218 183.025 60.5818 183.079 60.4752C183.159 60.0752 183.199 59.7018 183.199 59.3552L183.279 58.6352L183.119 59.2752C183.039 59.6752 182.879 60.1018 182.639 60.5552C182.425 61.0085 182.185 61.3952 181.919 61.7152C181.705 61.9285 181.572 62.0485 181.519 62.0752C181.465 62.1018 181.399 62.0618 181.319 61.9552C181.265 61.8752 181.132 61.8085 180.919 61.7552C180.732 61.7018 180.545 61.6752 180.359 61.6752C180.252 61.6752 180.145 61.6885 180.039 61.7152C179.959 61.7418 179.919 61.7818 179.919 61.8352C179.919 61.8618 179.905 61.8752 179.879 61.8752C179.825 61.8752 179.719 61.7552 179.559 61.5152C179.425 61.2752 179.359 61.1018 179.359 60.9952C179.359 60.8352 179.305 60.7552 179.199 60.7552C179.092 60.7552 178.985 60.8485 178.879 61.0352C178.799 61.1685 178.732 61.2352 178.679 61.2352C178.625 61.2352 178.545 61.1018 178.439 60.8352C178.332 60.6485 178.279 60.2752 178.279 59.7152C178.279 58.8885 178.372 57.4885 178.559 55.5152C178.879 51.7552 179.039 49.1418 179.039 47.6752L178.999 46.1552C178.945 44.4218 178.905 43.5418 178.879 43.5152H178.839C178.732 43.5152 178.372 43.6085 177.759 43.7952C176.959 44.0352 176.412 44.1818 176.119 44.2352C175.852 44.2618 175.719 44.2218 175.719 44.1152C175.719 43.9818 175.785 43.8885 175.919 43.8352C175.972 43.8085 175.959 43.7952 175.879 43.7952C175.825 43.7685 175.745 43.7685 175.639 43.7952H175.439C175.252 43.7952 175.052 43.7685 174.839 43.7152C174.652 43.6618 174.559 43.6352 174.559 43.6352L174.919 43.5952C175.479 43.5418 175.759 43.4885 175.759 43.4352C175.759 43.4085 175.572 43.3952 175.199 43.3952H174.279L174.199 48.7152C174.145 52.3152 174.079 54.3685 173.999 54.8752C173.865 55.6752 173.785 56.2218 173.759 56.5152C173.652 57.1552 173.519 57.6218 173.359 57.9152C173.332 58.0218 173.292 58.1018 173.239 58.1552C173.212 58.2085 173.185 58.2352 173.159 58.2352C173.159 58.2352 173.172 58.2218 173.199 58.1952C173.225 58.1152 173.265 57.7552 173.319 57.1152L173.399 56.3152L173.199 57.1152C173.012 57.9418 172.639 58.6752 172.079 59.3152C171.945 59.5018 171.839 59.6085 171.759 59.6352C171.705 59.6618 171.625 59.6218 171.519 59.5152C171.385 59.3818 171.225 59.3152 171.039 59.3152C170.879 59.3152 170.745 59.3818 170.639 59.5152C170.612 59.6218 170.585 59.6752 170.559 59.6752C170.532 59.6752 170.492 59.6218 170.439 59.5152C170.385 59.3818 170.305 59.3152 170.199 59.3152C170.119 59.3152 170.052 59.3952 169.999 59.5552C169.999 59.6352 169.985 59.6752 169.959 59.6752C169.932 59.6485 169.919 59.5818 169.919 59.4752C169.919 59.3152 169.852 59.1685 169.719 59.0352C169.585 58.9818 169.492 58.8485 169.439 58.6352C169.412 58.5018 169.372 58.4485 169.319 58.4752C169.292 58.4752 169.239 58.5152 169.159 58.5952C168.999 58.7552 168.865 58.8352 168.759 58.8352C168.492 58.8352 168.359 58.0218 168.359 56.3952C168.359 55.4352 168.372 54.6485 168.399 54.0352V52.2352C168.399 50.3952 168.359 48.6352 168.279 46.9552C168.225 45.2752 168.145 44.3952 168.039 44.3152C168.012 44.2352 167.505 44.3418 166.519 44.6352C165.559 44.9285 165.025 45.0218 164.919 44.9152C164.812 44.8085 164.879 44.7152 165.119 44.6352C165.225 44.6085 165.279 44.5685 165.279 44.5152L164.879 44.5552C164.665 44.6085 164.399 44.6352 164.079 44.6352C163.999 44.6352 163.932 44.7818 163.879 45.0752C163.852 45.3418 163.825 46.0752 163.799 47.2752C163.799 48.4485 163.799 49.9952 163.799 51.9152C163.799 53.8352 163.785 55.4885 163.759 56.8752C163.732 58.2618 163.705 59.2085 163.679 59.7152C163.625 59.9018 163.585 59.9952 163.559 59.9952C163.532 59.9952 163.519 59.7152 163.519 59.1552L163.479 58.0752L163.359 58.9952C163.305 59.5285 163.185 60.0618 162.999 60.5952C162.812 61.1018 162.625 61.4885 162.439 61.7552C162.252 61.9952 162.119 61.9952 162.039 61.7552C161.985 61.6485 161.852 61.5952 161.639 61.5952H161.519C161.359 61.5952 161.239 61.7018 161.159 61.9152C161.132 62.1285 161.092 62.1685 161.039 62.0352C161.039 61.9285 161.012 61.8485 160.959 61.7952C160.905 61.7418 160.852 61.7152 160.799 61.7152C160.692 61.7152 160.612 61.7952 160.559 61.9552L160.479 62.2752V61.9552C160.479 61.8752 160.439 61.7952 160.359 61.7152C160.305 61.6352 160.239 61.5818 160.159 61.5552C159.972 61.4485 159.879 61.3152 159.879 61.1552C159.879 60.9952 159.825 60.9152 159.719 60.9152C159.612 60.8885 159.532 60.9552 159.479 61.1152C159.425 61.2485 159.359 61.3152 159.279 61.3152C159.145 61.3152 158.999 61.1418 158.839 60.7952C158.439 59.8618 158.105 55.4352 157.839 47.5152L157.639 42.6352C157.559 42.1552 157.519 41.4752 157.519 40.5952C157.519 39.3418 157.572 38.1018 157.679 36.8752C157.812 35.6485 157.945 35.0352 158.079 35.0352C158.185 35.0352 158.265 35.0885 158.319 35.1952C158.319 35.2485 158.332 35.2618 158.359 35.2352C158.385 35.2085 158.399 35.1685 158.399 35.1152C158.425 34.9818 158.479 34.9018 158.559 34.8752C158.639 34.8485 158.705 34.9018 158.759 35.0352V35.0752C158.865 35.0752 158.959 34.9418 159.039 34.6752C159.225 34.3285 159.452 34.1152 159.719 34.0352C159.852 33.9818 160.292 33.9552 161.039 33.9552C161.545 33.9552 162.025 33.9685 162.479 33.9952C162.959 34.0218 163.225 34.0618 163.279 34.1152C163.385 34.2218 163.479 34.2752 163.559 34.2752C163.825 34.3552 163.985 34.4352 164.039 34.5152C164.119 34.5952 164.159 34.8218 164.159 35.1952C164.159 35.7018 164.145 36.1818 164.119 36.6352L164.039 38.8352L164.399 38.7152C165.439 38.3952 166.212 38.0618 166.719 37.7152C166.932 37.5818 167.065 37.4618 167.119 37.3552C167.199 37.2218 167.252 37.0085 167.279 36.7152C167.305 36.4218 167.332 36.2352 167.359 36.1552C167.412 36.0752 167.492 36.0485 167.599 36.0752H167.719C167.825 36.0752 167.905 36.0085 167.959 35.8752C167.985 35.7685 168.012 35.7018 168.039 35.6752C168.092 35.6485 168.132 35.6752 168.159 35.7552L168.239 35.7952C168.319 35.7952 168.372 35.6752 168.399 35.4352C168.452 35.2218 168.532 35.0752 168.639 34.9952C168.745 34.9152 168.932 34.8218 169.199 34.7152C169.785 34.5018 170.639 34.3952 171.759 34.3952C172.319 34.3952 172.719 34.4352 172.959 34.5152C173.172 34.5952 173.319 34.6885 173.399 34.7952C173.479 34.8752 173.532 35.0485 173.559 35.3152C173.639 35.6618 173.679 36.1152 173.679 36.6752C173.679 37.1818 173.745 37.5552 173.879 37.7952C174.012 38.0085 174.239 38.1152 174.559 38.1152C174.745 38.1152 175.039 38.0485 175.439 37.9152C176.159 37.6752 176.719 37.4352 177.119 37.1952C177.545 36.9285 178.225 36.3952 179.159 35.5952L180.879 34.1552L181.159 34.4752C181.319 34.6352 181.465 34.7285 181.599 34.7552C181.732 34.7818 182.119 34.7952 182.759 34.7952C183.212 34.7952 183.625 34.8485 183.999 34.9552C184.399 35.0352 184.625 35.1285 184.679 35.2352C184.732 35.3952 184.799 36.1818 184.879 37.5952C184.985 39.0085 185.065 40.5018 185.119 42.0752V43.3952ZM158.679 36.1152C158.679 35.8752 158.639 35.9018 158.559 36.1952C158.479 36.5952 158.439 36.8352 158.439 36.9152C158.439 37.0752 158.452 37.1552 158.479 37.1552L158.559 36.8352C158.639 36.5952 158.679 36.3552 158.679 36.1152ZM176.359 43.7152C176.545 43.7685 176.612 43.7418 176.559 43.6352C176.532 43.6085 176.492 43.5952 176.439 43.5952C176.385 43.5952 176.332 43.6085 176.279 43.6352C176.225 43.6352 176.212 43.6485 176.239 43.6752C176.265 43.7018 176.305 43.7152 176.359 43.7152ZM165.319 44.0352L164.759 44.1152C164.305 44.1685 164.025 44.2218 163.919 44.2752C163.812 44.3285 163.825 44.3952 163.959 44.4752C164.092 44.5552 164.185 44.5552 164.239 44.4752L164.799 44.1952L165.319 44.0352Z" fill="white"/>
<path d="M194.487 55.8752L196.007 55.9952L201.647 56.2352C204.953 56.3418 206.607 56.5018 206.607 56.7152C206.607 56.7152 206.58 56.7285 206.527 56.7552C206.5 56.7552 206.447 56.7552 206.367 56.7552L205.847 56.7152C205.447 56.7152 205.313 56.7285 205.447 56.7552C206.087 56.8885 206.66 57.1152 207.167 57.4352C207.673 57.7285 207.833 57.9685 207.647 58.1552C207.54 58.2618 207.487 58.3952 207.487 58.5552C207.487 58.7685 207.567 58.9152 207.727 58.9952C207.78 59.0218 207.82 59.0618 207.847 59.1152C207.873 59.1418 207.86 59.1552 207.807 59.1552C207.673 59.1552 207.607 59.2218 207.607 59.3552C207.607 59.5152 207.673 59.5952 207.807 59.5952C207.86 59.5952 207.873 59.6218 207.847 59.6752C207.82 59.7018 207.78 59.7285 207.727 59.7552C207.567 59.8352 207.487 59.9552 207.487 60.1152C207.487 60.2485 207.407 60.3152 207.247 60.3152C207.113 60.3152 207.047 60.3418 207.047 60.3952C207.047 60.4485 207.113 60.5685 207.247 60.7552C207.353 60.8618 207.407 60.9418 207.407 60.9952C207.407 61.2085 207.193 61.3818 206.767 61.5152C206.367 61.6485 205.607 61.7552 204.487 61.8352C203.393 61.9152 201.753 61.9952 199.567 62.0752C197.62 62.1285 196.06 62.1818 194.887 62.2352C193.74 62.2885 193.02 62.3418 192.727 62.3952C192.46 62.4752 192.233 62.6218 192.047 62.8352C191.913 62.9952 191.807 63.0885 191.727 63.1152C191.673 63.1685 191.647 63.1418 191.647 63.0352C191.62 62.9018 191.527 62.7818 191.367 62.6752C191.207 62.5685 191.073 62.5552 190.967 62.6352C190.86 62.6885 190.78 62.7818 190.727 62.9152C190.7 62.9952 190.673 63.0352 190.647 63.0352C190.62 63.0352 190.607 62.9952 190.607 62.9152C190.607 62.7285 190.54 62.6352 190.407 62.6352C190.273 62.6352 190.18 62.7285 190.127 62.9152C190.127 62.9952 190.113 63.0218 190.087 62.9952C190.06 62.9952 190.047 62.9552 190.047 62.8752C190.02 62.6885 189.913 62.5018 189.727 62.3152C189.54 62.1552 189.34 62.0618 189.127 62.0352C188.913 62.0352 188.727 62.0085 188.567 61.9552C188.433 61.9018 188.34 61.8085 188.287 61.6752C188.26 61.5418 188.313 61.4752 188.447 61.4752C188.5 61.4752 188.513 61.4618 188.487 61.4352C188.487 61.3818 188.447 61.3418 188.367 61.3152C188.18 61.2085 188.153 61.1152 188.287 61.0352L188.327 60.9552C188.327 60.9018 188.193 60.8352 187.927 60.7552C187.633 60.6752 187.433 60.5285 187.327 60.3152C187.247 60.0752 187.207 59.6085 187.207 58.9152C187.207 57.6085 187.3 56.7552 187.487 56.3552C187.7 56.0352 187.78 55.8352 187.727 55.7552C187.727 55.7018 187.887 55.6752 188.207 55.6752H188.687L188.767 54.2352L188.847 52.1952V51.5952H188.247L187.247 51.4752L187.127 51.3952C187.127 51.3685 187.313 51.3552 187.687 51.3552C188.22 51.3018 188.5 51.2618 188.527 51.2352C188.58 51.1818 188.42 51.1552 188.047 51.1552C187.78 51.1552 187.433 51.0752 187.007 50.9152C186.607 50.7552 186.273 50.5818 186.007 50.3952C185.74 50.2085 185.673 50.0752 185.807 49.9952C185.887 49.9152 185.953 49.7818 186.007 49.5952C186.06 49.4618 186.073 49.3685 186.047 49.3152C186.02 49.2618 185.953 49.2085 185.847 49.1552C185.713 49.1285 185.633 49.1018 185.607 49.0752C185.607 49.0485 185.66 48.9818 185.767 48.8752C185.873 48.7418 185.913 48.6618 185.887 48.6352C185.887 48.6085 185.833 48.5818 185.727 48.5552C185.62 48.5018 185.567 48.4618 185.567 48.4352C185.567 48.4085 185.62 48.3818 185.727 48.3552C185.78 48.3285 185.833 48.2885 185.887 48.2352C185.94 48.1818 185.967 48.1152 185.967 48.0352C185.967 47.9018 186.033 47.8352 186.167 47.8352C186.3 47.8352 186.367 47.7952 186.367 47.7152C186.367 47.6085 186.3 47.5018 186.167 47.3952C186.087 47.2618 186.047 47.1818 186.047 47.1552C186.047 47.1018 186.113 47.0085 186.247 46.8752C186.513 46.6618 186.967 46.4885 187.607 46.3552L188.647 46.1152L188.687 45.5152C188.74 45.1418 188.687 44.5018 188.527 43.5952C188.367 42.6352 188.287 42.0352 188.287 41.7952C188.287 40.8618 188.14 40.3952 187.847 40.3952C187.687 40.3952 187.593 40.3285 187.567 40.1952C187.54 40.0352 187.593 39.9552 187.727 39.9552C187.78 39.9552 187.78 39.9418 187.727 39.9152C187.7 39.8618 187.647 39.8218 187.567 39.7952C187.433 39.7418 187.353 39.7018 187.327 39.6752C187.3 39.6218 187.34 39.5818 187.447 39.5552C187.527 39.5018 187.567 39.4752 187.567 39.4752C187.567 39.4218 187.433 39.3552 187.167 39.2752C186.9 39.1952 186.727 39.1152 186.647 39.0352C186.567 38.9285 186.487 38.7152 186.407 38.3952C186.353 38.2085 186.327 37.8485 186.327 37.3152C186.327 36.1685 186.433 35.3152 186.647 34.7552L186.887 34.1552L194.407 34.1952C200.033 34.1952 203.247 34.1685 204.047 34.1152C205.407 34.0618 206.06 34.0485 206.007 34.0752C205.82 34.1285 205.553 34.1818 205.207 34.2352C204.967 34.2618 204.847 34.3018 204.847 34.3552L205.647 34.4352C206.18 34.4885 206.673 34.6218 207.127 34.8352C207.607 35.0218 207.74 35.1552 207.527 35.2352C207.42 35.2885 207.367 35.3818 207.367 35.5152C207.367 35.5952 207.42 35.7685 207.527 36.0352C207.633 36.1952 207.687 36.3418 207.687 36.4752C207.687 36.6085 207.74 36.6752 207.847 36.6752H207.887C207.913 36.6752 207.927 36.6885 207.927 36.7152C207.927 36.7952 207.887 36.9152 207.807 37.0752C207.62 37.3418 207.5 37.4752 207.447 37.4752C207.367 37.4752 207.327 37.5152 207.327 37.5952C207.327 37.7285 207.433 37.8352 207.647 37.9152C207.78 37.9418 207.847 37.9818 207.847 38.0352C207.847 38.0885 207.713 38.2485 207.447 38.5152L206.967 39.0352V44.6752C206.967 47.2085 206.953 48.8218 206.927 49.5152C206.9 50.1818 206.82 50.6352 206.687 50.8752C206.527 51.2485 206.313 51.4618 206.047 51.5152C205.78 51.5685 203.833 51.5952 200.207 51.5952L194.767 51.5552L194.647 52.9952L194.487 55.8752ZM194.807 40.5152C194.78 40.5418 194.767 40.8618 194.767 41.4752C194.767 42.3285 194.793 43.2352 194.847 44.1952C194.9 45.1552 194.953 45.6352 195.007 45.6352L197.047 45.4752C198.407 45.3685 199.313 45.2752 199.767 45.1952L200.607 45.0352L200.687 42.5952V40.1152C200.633 40.0618 199.647 40.1018 197.727 40.2352C195.807 40.3685 194.833 40.4618 194.807 40.5152ZM201.087 40.1152C201.06 40.1152 201.047 40.1952 201.047 40.3552C201.047 40.5152 201.06 40.6618 201.087 40.7952C201.113 40.9018 201.14 40.9685 201.167 40.9952C201.193 40.9952 201.207 40.8485 201.207 40.5552C201.207 40.2618 201.167 40.1152 201.087 40.1152ZM201.607 40.2352C201.58 40.1818 201.553 40.1818 201.527 40.2352C201.527 40.2618 201.527 40.3152 201.527 40.3952C201.527 40.4752 201.527 40.5418 201.527 40.5952C201.553 40.6485 201.58 40.6485 201.607 40.5952C201.66 40.4618 201.66 40.3418 201.607 40.2352ZM201.447 41.9552C201.447 41.9818 201.433 42.0352 201.407 42.1152C201.407 42.1952 201.407 42.3018 201.407 42.4352C201.407 42.6218 201.407 42.7685 201.407 42.8752C201.433 42.9552 201.46 42.9418 201.487 42.8352V42.0352L201.447 41.9552ZM201.447 43.8352C201.447 43.8618 201.433 43.9152 201.407 43.9952C201.407 44.0752 201.407 44.1818 201.407 44.3152C201.407 44.5018 201.407 44.6485 201.407 44.7552C201.433 44.8352 201.46 44.8218 201.487 44.7152V43.9152L201.447 43.8352Z" fill="white"/>
</g>
<defs>
<filter id="filter0_d_30_525" x="0" y="0" width="282" height="138" filterUnits="userSpaceOnUse" color-interpolation-filters="sRGB">
<feFlood flood-opacity="0" result="BackgroundImageFix"/>
<feColorMatrix in="SourceAlpha" type="matrix" values="0 0 0 0 0 0 0 0 0 0 0 0 0 0 0 0 0 0 127 0" result="hardAlpha"/>
<feOffset dy="4"/>
<feGaussianBlur stdDeviation="2"/>
<feComposite in2="hardAlpha" operator="out"/>
<feColorMatrix type="matrix" values="0 0 0 0 0 0 0 0 0 0 0 0 0 0 0 0 0 0 0.25 0"/>
<feBlend mode="normal" in2="BackgroundImageFix" result="effect1_dropShadow_30_525"/>
<feBlend mode="normal" in="SourceGraphic" in2="effect1_dropShadow_30_525" result="shape"/>
</filter>
</defs>
</svg>
