<svg width="274" height="130" viewBox="0 0 274 130" fill="none" xmlns="http://www.w3.org/2000/svg">
<path fill-rule="evenodd" clip-rule="evenodd" d="M15.2137 29.8836H258.788C267.073 29.8836 274 36.61 274 44.977V114.759C274 123.127 267.073 130 258.788 130H15.2137C6.92744 130 0 123.127 0 114.759V44.977C0 36.61 6.92744 29.8836 15.2137 29.8836Z" fill="#1C1C1C"/>
<path fill-rule="evenodd" clip-rule="evenodd" d="M14.61 28.9874H259.389C267.522 28.9874 273.998 35.4121 273.998 43.3318V110.126C273.998 118.194 267.522 124.619 259.389 124.619H14.61C6.62631 124.619 0 118.194 0 110.126V43.3318C0 35.4121 6.62631 28.9874 14.61 28.9874Z" fill="#353535"/>
<path fill-rule="evenodd" clip-rule="evenodd" d="M15.2137 21.5165H258.788C267.073 21.5165 274 28.39 274 36.6099V106.541C274 114.911 267.073 121.633 258.788 121.633H15.2137C6.92744 121.633 0 114.91 0 106.541V36.6099C0 28.39 6.92744 21.5165 15.2137 21.5165Z" fill="#1C1C1C"/>
<path fill-rule="evenodd" clip-rule="evenodd" d="M23.9496 12.1032H248.093C255.926 12.1032 262.252 18.3793 262.252 26.0003V90.5515C262.252 98.1725 255.925 104.449 248.093 104.449H23.9496C16.2701 104.449 9.94336 98.1725 9.94336 90.5515V26.0003C9.94336 18.3793 16.2701 12.1032 23.9496 12.1032Z" fill="#D30243"/>
<path fill-rule="evenodd" clip-rule="evenodd" d="M23.9496 2.68846H248.093C255.926 2.68846 262.252 8.96599 262.252 16.587V81.1397C262.252 88.7577 255.925 95.0352 248.093 95.0352H23.9496C16.2701 95.0352 9.94336 88.7577 9.94336 81.1397V16.587C9.94336 8.96599 16.2701 2.68846 23.9496 2.68846Z" fill="#FF1D63"/>
<path fill-rule="evenodd" clip-rule="evenodd" d="M23.9496 -1.14441e-05H248.093C255.926 -1.14441e-05 262.252 6.27603 262.252 13.8955V78.4497C262.252 86.0677 255.925 92.3468 248.093 92.3468H23.9496C16.2701 92.3468 9.94336 86.0677 9.94336 78.4497V13.8955C9.94336 6.27603 16.2701 -1.14441e-05 23.9496 -1.14441e-05Z" fill="#EA003D"/>
<path d="M125.737 60.2114C125.817 60.4514 125.857 60.6914 125.857 60.9314C125.857 61.1714 125.817 61.2914 125.737 61.2914C125.657 61.2914 125.537 61.4381 125.377 61.7314C125.217 62.0247 125.177 62.1714 125.257 62.1714C125.284 62.1714 125.284 62.1981 125.257 62.2514C125.231 62.2781 125.177 62.3047 125.097 62.3314C124.937 62.4381 124.884 62.5314 124.937 62.6114C124.964 62.6647 124.897 62.7314 124.737 62.8114C124.577 62.8914 124.404 62.9447 124.217 62.9714C124.111 62.9714 124.057 63.0647 124.057 63.2514C124.057 63.5981 123.884 63.7714 123.537 63.7714C123.217 63.7714 122.711 63.6114 122.017 63.2914C121.564 63.0514 121.271 62.9181 121.137 62.8914C121.004 62.8647 120.897 62.9047 120.817 63.0114C120.764 63.1181 120.724 63.1581 120.697 63.1314C120.671 63.1314 120.657 63.0914 120.657 63.0114C120.657 62.8247 120.551 62.7314 120.337 62.7314C120.231 62.7314 120.111 62.7581 119.977 62.8114C119.871 62.8914 119.804 62.9847 119.777 63.0914C119.751 63.1181 119.724 63.1581 119.697 63.2114C119.671 63.2914 119.644 63.3181 119.617 63.2914C119.617 63.2647 119.617 63.2247 119.617 63.1714C119.617 63.0114 119.577 62.9314 119.497 62.9314C119.364 62.9314 119.257 63.0381 119.177 63.2514C119.097 63.4914 119.057 63.5047 119.057 63.2914C119.057 63.2381 119.044 63.1847 119.017 63.1314C118.991 63.0781 118.964 63.0647 118.937 63.0914C118.777 63.1714 118.257 63.2781 117.377 63.4114C116.151 63.5981 114.857 63.6914 113.497 63.6914C112.991 63.6914 112.471 63.6647 111.937 63.6114C110.364 63.4247 108.911 62.9714 107.577 62.2514C106.271 61.5314 105.244 60.6247 104.497 59.5314C103.591 58.2247 102.964 56.4914 102.617 54.3314C102.297 52.1447 102.137 48.7981 102.137 44.2914C102.137 42.5847 102.151 41.3447 102.177 40.5714C102.204 39.7714 102.271 39.1047 102.377 38.5714C102.697 36.5714 103.017 35.5714 103.337 35.5714C103.497 35.5714 103.631 35.5181 103.737 35.4114C103.871 35.2781 103.937 35.2914 103.937 35.4514C103.937 35.4781 103.951 35.4914 103.977 35.4914C104.031 35.4914 104.124 35.4114 104.257 35.2514C104.524 34.9314 105.017 34.7714 105.737 34.7714C105.897 34.7714 106.217 34.7981 106.697 34.8514C107.017 34.9047 107.311 34.9314 107.577 34.9314C107.817 34.9314 108.257 34.9047 108.897 34.8514C109.911 34.7447 111.377 34.6914 113.297 34.6914C115.564 34.6914 117.311 34.8514 118.537 35.1714C119.764 35.4914 120.684 36.0381 121.297 36.8114C121.911 37.5847 122.364 38.7447 122.657 40.2914C122.764 40.8247 122.831 41.5314 122.857 42.4114C122.884 43.2914 122.897 44.8647 122.897 47.1314C122.897 50.6781 122.844 53.1981 122.737 54.6914L122.657 56.2914C122.657 56.6381 122.711 56.8514 122.817 56.9314C124.764 58.5047 125.751 59.3714 125.777 59.5314C125.777 59.5581 125.777 59.5714 125.777 59.5714C125.804 59.5714 125.817 59.5714 125.817 59.5714C125.817 59.5981 125.804 59.6114 125.777 59.6114C125.724 59.6114 125.631 59.5447 125.497 59.4114C125.231 59.2247 125.057 59.1314 124.977 59.1314C124.977 59.1314 124.964 59.1314 124.937 59.1314C124.937 59.1314 124.937 59.1447 124.937 59.1714C124.937 59.1981 124.964 59.2381 125.017 59.2914C125.071 59.3447 125.137 59.4114 125.217 59.4914C125.484 59.7581 125.657 59.9981 125.737 60.2114ZM103.777 36.3714C103.777 36.3181 103.751 36.3047 103.697 36.3314C103.671 36.3581 103.644 36.3981 103.617 36.4514C103.537 36.6914 103.497 36.8381 103.497 36.8914C103.497 36.9447 103.511 36.9714 103.537 36.9714C103.564 36.9447 103.604 36.8781 103.657 36.7714C103.711 36.6381 103.751 36.5047 103.777 36.3714ZM117.017 52.0114C117.124 52.0114 117.177 51.2247 117.177 49.6514C117.177 47.9447 117.124 46.1314 117.017 44.2114C116.911 42.2914 116.791 41.2647 116.657 41.1314C116.604 41.0781 116.257 41.0514 115.617 41.0514C114.471 41.0514 113.057 41.1047 111.377 41.2114C109.724 41.2914 108.844 41.3847 108.737 41.4914C108.684 41.5447 108.617 42.2114 108.537 43.4914C108.457 44.7447 108.404 46.1047 108.377 47.5714L108.337 49.2514C108.337 52.0514 108.497 54.0247 108.817 55.1714C109.217 56.5847 110.471 57.5181 112.577 57.9714C112.977 58.0514 113.271 58.0914 113.457 58.0914C113.671 58.0914 113.711 58.0114 113.577 57.8514C113.444 57.6914 113.044 57.2781 112.377 56.6114C111.364 55.6514 110.857 55.1314 110.857 55.0514C110.857 54.9981 110.951 54.9447 111.137 54.8914C111.217 54.8647 111.257 54.8381 111.257 54.8114C111.284 54.7847 111.271 54.7714 111.217 54.7714C111.111 54.7714 111.057 54.7047 111.057 54.5714C111.057 54.4114 111.137 54.3581 111.297 54.4114L111.377 54.4514C111.404 54.4514 111.391 54.4114 111.337 54.3314C111.311 54.2247 111.244 54.1047 111.137 53.9714C110.897 53.5714 110.791 53.3581 110.817 53.3314L111.137 52.6514C111.271 52.2781 111.417 52.0114 111.577 51.8514L112.417 50.9714C112.791 50.5714 113.177 50.2647 113.577 50.0514L114.097 49.8114L114.857 50.3714C115.071 50.5047 115.324 50.7047 115.617 50.9714C115.937 51.2114 116.151 51.3714 116.257 51.4514C116.684 51.8247 116.937 52.0114 117.017 52.0114ZM113.337 56.3714C113.417 56.3714 113.337 56.2647 113.097 56.0514C112.884 55.8114 112.737 55.6514 112.657 55.5714C112.177 55.0914 111.937 54.8914 111.937 54.9714C111.937 55.0514 112.151 55.3047 112.577 55.7314C113.031 56.1581 113.284 56.3714 113.337 56.3714Z" fill="#B80039"/>
<path d="M144.867 52.7714C144.947 54.8514 144.987 56.8381 144.987 58.7314C144.987 59.6914 144.974 60.2514 144.947 60.4114L144.827 61.0514L144.787 60.1714C144.734 59.3714 144.667 58.9714 144.587 58.9714C144.56 58.9714 144.547 59.2114 144.547 59.6914C144.547 60.1981 144.467 60.7314 144.307 61.2914C144.147 61.8514 143.96 62.2647 143.747 62.5314C143.587 62.7714 143.48 62.8114 143.427 62.6514C143.4 62.5181 143.28 62.4514 143.067 62.4514C142.854 62.4514 142.707 62.5447 142.627 62.7314C142.6 62.8381 142.574 62.8914 142.547 62.8914C142.52 62.9181 142.454 62.8781 142.347 62.7714C142.24 62.6647 142.16 62.6247 142.107 62.6514C142.08 62.6514 142.04 62.7314 141.987 62.8914C141.96 63.1047 141.92 63.1447 141.867 63.0114C141.867 62.8247 141.734 62.6381 141.467 62.4514C141.227 62.2647 141.027 62.2114 140.867 62.2914C140.707 62.3181 140.454 62.3581 140.107 62.4114C139.76 62.4647 139.36 62.5181 138.907 62.5714C138.214 62.6247 137.694 62.6514 137.347 62.6514C134.68 62.6514 132.44 61.9714 130.627 60.6114C129.907 60.1047 129.294 59.5181 128.787 58.8514C128.307 58.1847 127.854 57.3181 127.427 56.2514C126.92 54.9714 126.52 53.5847 126.227 52.0914C125.96 50.5981 125.654 48.2514 125.307 45.0514C125.147 43.6114 125.067 42.1714 125.067 40.7314C125.067 38.9181 125.187 37.4381 125.427 36.2914C125.534 35.7314 125.614 35.3981 125.667 35.2914C125.72 35.1847 125.8 35.1981 125.907 35.3314C125.987 35.4114 126.054 35.4647 126.107 35.4914C126.16 35.4914 126.187 35.4381 126.187 35.3314C126.187 35.1981 126.227 35.1314 126.307 35.1314C126.414 35.1047 126.48 35.1581 126.507 35.2914L126.547 35.3314C126.6 35.3314 126.667 35.2247 126.747 35.0114C126.8 34.8781 126.867 34.7581 126.947 34.6514C127.054 34.5447 127.147 34.4781 127.227 34.4514C127.44 34.3981 127.787 34.3714 128.267 34.3714C129.067 34.3714 129.6 34.4114 129.867 34.4914C130.16 34.5981 130.374 34.6247 130.507 34.5714H130.547C130.68 34.5714 130.88 34.6381 131.147 34.7714C131.467 34.9314 131.667 35.0114 131.747 35.0114C131.827 35.0114 131.867 35.1981 131.867 35.5714C131.867 36.0781 131.814 36.9181 131.707 38.0914C131.6 39.5847 131.547 40.9581 131.547 42.2114C131.547 43.9981 131.614 45.7981 131.747 47.6114C131.88 49.4247 132.04 50.8247 132.227 51.8114C132.387 52.6381 132.6 53.3981 132.867 54.0914C133.134 54.7581 133.4 55.2514 133.667 55.5714C133.987 55.9181 134.427 56.2381 134.987 56.5314C135.414 56.7181 136.014 56.8781 136.787 57.0114C137.56 57.1447 138.2 57.2114 138.707 57.2114C139.08 57.2114 139.28 57.1714 139.307 57.0914C139.36 57.0381 139.334 56.5847 139.227 55.7314L138.987 51.9714C138.72 47.2247 138.494 44.2514 138.307 43.0514C138.174 42.2247 138.107 40.9981 138.107 39.3714C138.107 38.3847 138.134 37.5581 138.187 36.8914C138.267 36.1981 138.36 35.8514 138.467 35.8514C138.6 35.8514 138.667 35.9047 138.667 36.0114C138.694 36.0914 138.747 36.0381 138.827 35.8514C138.907 35.6647 138.96 35.5714 138.987 35.5714C139.014 35.5714 139.054 35.6381 139.107 35.7714L139.187 35.9314C139.24 35.9314 139.28 35.8247 139.307 35.6114C139.36 35.3447 139.44 35.1581 139.547 35.0514C139.68 34.9181 139.894 34.8114 140.187 34.7314C140.347 34.6781 140.787 34.6514 141.507 34.6514C142.494 34.6514 143.28 34.7047 143.867 34.8114C144.187 34.9181 144.374 35.0114 144.427 35.0914C144.48 35.1447 144.507 35.3181 144.507 35.6114L144.547 38.2514C144.6 40.0381 144.654 42.5314 144.707 45.7314C144.76 49.0647 144.814 51.4114 144.867 52.7714ZM126.387 36.1314C126.414 35.8114 126.4 35.7314 126.347 35.8914C126.32 35.9181 126.24 36.1847 126.107 36.6914C126.08 37.0114 126.094 37.0914 126.147 36.9314C126.174 36.9047 126.254 36.6381 126.387 36.1314ZM138.947 37.5714C139.054 37.4114 139.107 37.2247 139.107 37.0114C139.107 36.8247 139.094 36.7314 139.067 36.7314C139.04 36.7314 138.987 36.9181 138.907 37.2914C138.88 37.4247 138.867 37.5314 138.867 37.6114C138.867 37.6647 138.894 37.6514 138.947 37.5714ZM139.027 57.6514C139.134 57.6514 139.214 57.6381 139.267 57.6114C139.32 57.5847 139.36 57.5581 139.387 57.5314C139.387 57.4781 139.32 57.4514 139.187 57.4514C139.054 57.4514 138.934 57.4647 138.827 57.4914C138.747 57.5181 138.694 57.5447 138.667 57.5714C138.667 57.6247 138.787 57.6514 139.027 57.6514Z" fill="#B80039"/>
<path d="M147.32 44.3314C147 43.9581 146.84 43.7047 146.84 43.5714C146.84 43.5181 146.813 43.4781 146.76 43.4514C146.733 43.4247 146.693 43.4247 146.64 43.4514C146.453 43.5047 146.32 41.3714 146.24 37.0514L146.2 34.8514L146.76 34.7714C147.24 34.7181 148.32 34.6647 150 34.6114L152.64 34.4914V38.0914C152.64 39.3181 152.626 40.2247 152.6 40.8114C152.6 41.3714 152.546 41.6514 152.44 41.6514C152.306 41.6514 152.213 41.4781 152.16 41.1314C152.16 40.9981 152.146 40.9047 152.12 40.8514C152.12 40.7981 152.12 40.7581 152.12 40.7314L152.08 41.2114C152.08 41.6381 152.026 41.9581 151.92 42.1714C151.893 42.2514 151.866 42.2914 151.84 42.2914C151.84 42.2914 151.813 42.1314 151.76 41.8114C151.76 41.5181 151.746 41.3714 151.72 41.3714C151.693 41.3714 151.626 41.9047 151.52 42.9714C151.466 43.3981 151.413 43.7447 151.36 44.0114C151.306 44.2781 151.226 44.4514 151.12 44.5314C151.066 44.5847 151 44.6247 150.92 44.6514C150.84 44.6514 150.786 44.6381 150.76 44.6114H150.72C150.693 44.6114 150.6 44.6914 150.44 44.8514C150.333 45.0381 150.173 45.1314 149.96 45.1314C149.853 45.1314 149.76 45.0781 149.68 44.9714C149.573 44.8647 149.413 44.8514 149.2 44.9314H149.04C148.853 44.9314 148.666 44.8781 148.48 44.7714C148.373 44.6914 148.266 44.6514 148.16 44.6514C148.08 44.6247 148.013 44.6381 147.96 44.6914C147.933 44.7181 147.893 44.7314 147.84 44.7314C147.76 44.7314 147.586 44.5981 147.32 44.3314ZM151.88 36.3314C151.88 36.3047 151.866 36.2781 151.84 36.2514C151.84 36.2247 151.84 36.2114 151.84 36.2114V36.6514C151.84 37.0247 151.853 37.1581 151.88 37.0514C151.906 36.9714 151.92 36.8514 151.92 36.6914C151.92 36.5047 151.906 36.3847 151.88 36.3314ZM151.76 38.7314C151.733 39.0514 151.72 39.2781 151.72 39.4114C151.72 39.5181 151.746 39.4647 151.8 39.2514C151.88 38.6114 151.92 38.2247 151.92 38.0914C151.92 37.7447 151.906 37.5714 151.88 37.5714C151.853 37.5714 151.813 37.9581 151.76 38.7314ZM151.76 43.4914C151.813 43.2247 151.853 43.0914 151.88 43.0914C151.906 43.0914 151.92 43.2247 151.92 43.4914C151.92 43.7314 151.88 43.8514 151.8 43.8514C151.72 43.8514 151.706 43.7314 151.76 43.4914ZM153.12 56.5714C153.226 57.2381 153.28 58.0914 153.28 59.1314C153.28 59.9047 153.24 60.5847 153.16 61.1714C153.08 61.7314 152.986 62.0114 152.88 62.0114C152.72 62.0114 152.64 61.9447 152.64 61.8114C152.64 61.7581 152.613 61.7581 152.56 61.8114C152.533 61.8647 152.506 61.9314 152.48 62.0114C152.426 62.1714 152.386 62.2647 152.36 62.2914C152.333 62.2914 152.293 62.2247 152.24 62.0914C152.213 61.9847 152.173 61.9314 152.12 61.9314C152.093 61.9314 152.04 62.0647 151.96 62.3314C151.8 62.7047 151.6 62.9047 151.36 62.9314C150.933 63.0381 150.266 63.0914 149.36 63.0914C148.986 63.0914 148.733 63.0781 148.6 63.0514C148.44 63.0514 148.053 62.9847 147.44 62.8514L146.8 62.6914L146.88 58.6114C146.96 55.4114 147.026 53.0914 147.08 51.6514C147.133 50.1847 147.2 49.3581 147.28 49.1714L147.36 49.0114C147.386 49.0114 147.413 49.1714 147.44 49.4914C147.44 49.8381 147.453 50.0114 147.48 50.0114C147.506 50.0114 147.56 49.7847 147.64 49.3314C147.666 49.1714 147.76 48.9447 147.92 48.6514C148.106 48.3581 148.28 48.1314 148.44 47.9714C148.626 47.7847 148.72 47.7581 148.72 47.8914C148.72 47.9981 148.96 48.0381 149.44 48.0114C149.626 48.0114 149.8 47.9981 149.96 47.9714C150.12 47.9447 150.2 47.9047 150.2 47.8514C150.2 47.8247 150.213 47.8114 150.24 47.8114C150.293 47.8114 150.4 47.8647 150.56 47.9714C150.72 48.0514 150.84 48.1447 150.92 48.2514C150.946 48.2781 151 48.2914 151.08 48.2914C151.24 48.2914 151.36 48.2647 151.44 48.2114C151.6 48.1047 151.706 48.0647 151.76 48.0914C151.84 48.0914 151.906 48.1581 151.96 48.2914C152.226 48.7447 152.426 49.3714 152.56 50.1714C152.72 50.9714 152.826 52.0781 152.88 53.4914C152.933 54.6114 153.013 55.6381 153.12 56.5714ZM152.44 60.4514C152.493 60.3181 152.493 60.1981 152.44 60.0914C152.413 60.0114 152.4 60.0647 152.4 60.2514C152.4 60.4381 152.413 60.5047 152.44 60.4514ZM152.32 61.3714C152.373 61.2114 152.373 61.0514 152.32 60.8914C152.293 60.8114 152.266 60.8114 152.24 60.8914C152.24 60.9447 152.24 61.0247 152.24 61.1314C152.24 61.2381 152.24 61.3314 152.24 61.4114C152.266 61.4647 152.293 61.4514 152.32 61.3714Z" fill="#B80039"/>
<path d="M171.761 42.7314C171.948 42.8381 172.001 43.0247 171.921 43.2914C171.894 43.3981 171.774 43.5314 171.561 43.6914C171.348 43.8514 170.974 44.0914 170.441 44.4114C169.748 44.7847 168.841 45.2247 167.721 45.7314C166.628 46.2114 166.014 46.4514 165.881 46.4514C165.801 46.4514 165.748 46.9981 165.721 48.0914C165.721 49.1847 165.721 51.1581 165.721 54.0114C165.694 58.1447 165.628 60.3047 165.521 60.4914C165.494 60.5714 165.454 60.6114 165.401 60.6114C165.401 60.6114 165.388 60.5981 165.361 60.5714C165.361 60.5447 165.361 60.5181 165.361 60.4914L165.401 60.0514L165.441 59.5314C165.441 59.2914 165.414 59.0914 165.361 58.9314C165.308 58.8247 165.268 58.7714 165.241 58.7714C165.214 58.7714 165.201 59.0114 165.201 59.4914C165.174 59.9714 165.121 60.3981 165.041 60.7714C164.961 61.1181 164.801 61.5181 164.561 61.9714C164.428 62.2647 164.321 62.4381 164.241 62.4914C164.188 62.5181 164.108 62.4781 164.001 62.3714C163.868 62.2381 163.721 62.1714 163.561 62.1714C163.374 62.1714 163.241 62.2647 163.161 62.4514C163.134 62.5581 163.108 62.6247 163.081 62.6514C163.054 62.6781 163.014 62.6381 162.961 62.5314C162.908 62.3714 162.828 62.2914 162.721 62.2914C162.641 62.2914 162.574 62.3714 162.521 62.5314C162.521 62.6114 162.508 62.6514 162.481 62.6514C162.454 62.6514 162.441 62.6247 162.441 62.5714C162.441 62.4647 162.334 62.3314 162.121 62.1714C161.934 62.0647 161.841 61.9181 161.841 61.7314C161.841 61.6247 161.828 61.5714 161.801 61.5714C161.774 61.5714 161.694 61.6514 161.561 61.8114C161.401 62.0247 161.281 62.1314 161.201 62.1314C161.148 62.1314 161.041 61.9847 160.881 61.6914C160.401 60.8114 160.054 57.6514 159.841 52.2114C159.814 50.3981 159.734 49.4914 159.601 49.4914C159.494 49.4914 158.934 49.6381 157.921 49.9314L156.401 50.3714L156.081 50.0114C155.814 49.7714 155.761 49.6381 155.921 49.6114C156.028 49.5581 155.881 49.5314 155.481 49.5314H155.361C155.094 49.5314 154.868 49.4781 154.681 49.3714C154.521 49.2647 154.441 49.1447 154.441 49.0114C154.441 48.8781 154.361 48.7581 154.201 48.6514C154.041 48.4914 153.894 48.1581 153.761 47.6514C153.681 47.3847 153.614 47.1581 153.561 46.9714C153.481 46.7581 153.428 46.5847 153.401 46.4514C153.321 46.2381 153.281 45.9047 153.281 45.4514L153.321 44.8514L154.641 44.3314L155.721 43.9314C156.868 43.5047 157.494 43.2647 157.601 43.2114L159.281 42.6114L159.241 40.9314C159.214 39.8647 159.254 38.7581 159.361 37.6114C159.468 36.4381 159.588 35.8514 159.721 35.8514C159.854 35.8514 159.948 35.9314 160.001 36.0914C160.001 36.1714 160.014 36.2114 160.041 36.2114C160.068 36.1847 160.081 36.1181 160.081 36.0114C160.081 35.8514 160.121 35.7581 160.201 35.7314C160.308 35.6781 160.374 35.7314 160.401 35.8914C160.401 35.9981 160.468 35.8914 160.601 35.5714C160.734 35.2781 160.921 35.0647 161.161 34.9314C161.348 34.8247 161.908 34.7714 162.841 34.7714C164.014 34.7714 164.774 34.8381 165.121 34.9714C165.334 35.0781 165.508 35.1314 165.641 35.1314C165.721 35.1314 165.761 35.9714 165.761 37.6514C165.761 39.3581 165.801 40.2114 165.881 40.2114C165.934 40.2114 166.454 40.0381 167.441 39.6914C168.428 39.3447 169.081 39.1714 169.401 39.1714L169.921 39.2114L169.361 39.4114C169.201 39.4381 168.974 39.5314 168.681 39.6914C168.654 39.7714 168.721 39.7847 168.881 39.7314C169.174 39.5981 169.468 39.5314 169.761 39.5314C170.001 39.5314 170.281 39.5847 170.601 39.6914C170.974 39.7981 171.201 39.8914 171.281 39.9714C171.361 40.0247 171.374 40.1447 171.321 40.3314V40.4914C171.321 40.6781 171.374 40.8247 171.481 40.9314C171.641 41.0381 171.721 41.1847 171.721 41.3714C171.721 41.5314 171.761 41.5981 171.841 41.5714C171.894 41.5181 171.921 41.5581 171.921 41.6914C171.921 41.8781 171.841 42.1047 171.681 42.3714C171.548 42.5047 171.574 42.6247 171.761 42.7314ZM160.481 35.4914C160.454 35.5181 160.428 35.5181 160.401 35.4914C160.401 35.4647 160.401 35.4114 160.401 35.3314C160.401 35.1447 160.428 35.1047 160.481 35.2114C160.534 35.3447 160.534 35.4381 160.481 35.4914ZM160.241 37.7314C160.321 37.3314 160.361 37.0914 160.361 37.0114C160.361 36.8514 160.348 36.7714 160.321 36.7714L160.241 37.0914C160.161 37.2781 160.121 37.5181 160.121 37.8114C160.121 38.0247 160.161 37.9981 160.241 37.7314ZM157.761 49.1314H157.721L157.401 49.1714C157.001 49.2247 156.734 49.2914 156.601 49.3714L156.561 49.4114L156.641 49.4514C156.774 49.4514 157.094 49.3581 157.601 49.1714L157.761 49.1314Z" fill="#B80039"/>
</svg>
