<svg width="282" height="138" viewBox="0 0 282 138" fill="none" xmlns="http://www.w3.org/2000/svg">
<g filter="url(#filter0_d_26_365)">
<path fill-rule="evenodd" clip-rule="evenodd" d="M19.2137 29.8837H262.788C271.073 29.8837 278 36.61 278 44.9771V114.76C278 123.127 271.073 130 262.788 130H19.2137C10.9274 130 4 123.127 4 114.76V44.9771C4 36.61 10.9274 29.8837 19.2137 29.8837Z" fill="#1C1C1C"/>
<path fill-rule="evenodd" clip-rule="evenodd" d="M18.61 28.9875H263.389C271.522 28.9875 277.998 35.4122 277.998 43.3319V110.126C277.998 118.194 271.522 124.619 263.389 124.619H18.61C10.6263 124.619 4 118.194 4 110.126V43.3319C4 35.4122 10.6263 28.9875 18.61 28.9875Z" fill="#353535"/>
<path fill-rule="evenodd" clip-rule="evenodd" d="M19.2137 21.5166H262.788C271.073 21.5166 278 28.3901 278 36.61V106.541C278 114.911 271.073 121.633 262.788 121.633H19.2137C10.9274 121.633 4 114.91 4 106.541V36.61C4 28.3901 10.9274 21.5166 19.2137 21.5166Z" fill="#1C1C1C"/>
<path fill-rule="evenodd" clip-rule="evenodd" d="M27.9493 12.1033H252.092C259.926 12.1033 266.251 18.3794 266.251 26.0004V90.5515C266.251 98.1726 259.925 104.449 252.092 104.449H27.9493C20.2698 104.449 13.9431 98.1726 13.9431 90.5515V26.0004C13.9431 18.3794 20.2698 12.1033 27.9493 12.1033Z" fill="#19CFD8"/>
<path fill-rule="evenodd" clip-rule="evenodd" d="M27.9493 2.68854H252.092C259.926 2.68854 266.251 8.96608 266.251 16.5871V81.1398C266.251 88.7578 259.925 95.0353 252.092 95.0353H27.9493C20.2698 95.0353 13.9431 88.7578 13.9431 81.1398V16.5871C13.9431 8.96608 20.2698 2.68854 27.9493 2.68854Z" fill="#48F6FF"/>
<path fill-rule="evenodd" clip-rule="evenodd" d="M27.9493 4.57764e-05H252.092C259.926 4.57764e-05 266.251 6.27608 266.251 13.8956V78.4498C266.251 86.0678 259.925 92.3468 252.092 92.3468H27.9493C20.2698 92.3468 13.9431 86.0678 13.9431 78.4498V13.8956C13.9431 6.27608 20.2698 4.57764e-05 27.9493 4.57764e-05Z" fill="#18EBFF"/>
<path d="M98.7765 61.9952C97.6831 61.9952 96.9898 61.9418 96.6965 61.8352L96.0965 61.6352L97.9765 61.7552L97.2165 61.5552C96.7631 61.4485 96.3898 61.3285 96.0965 61.1952C95.8298 61.0352 95.5498 60.8352 95.2565 60.5952C95.0698 60.4352 94.9765 60.3152 94.9765 60.2352C94.9765 60.1818 95.0165 60.1152 95.0965 60.0352C95.2298 59.9018 95.2965 59.7685 95.2965 59.6352C95.2965 59.5018 95.2165 59.3818 95.0565 59.2752C94.8965 59.1952 94.8698 59.1552 94.9765 59.1552C95.0831 59.1552 95.1365 59.0885 95.1365 58.9552C95.1631 58.7952 95.1231 58.7152 95.0165 58.7152C94.9365 58.7152 95.0165 58.5952 95.2565 58.3552C95.5231 58.0885 95.6831 57.9552 95.7365 57.9552C95.8431 57.9552 95.8831 57.9152 95.8565 57.8352C95.8298 57.7285 95.7498 57.6352 95.6165 57.5552C95.5098 57.4752 95.4565 57.4218 95.4565 57.3952C95.4831 57.3418 95.5765 57.2485 95.7365 57.1152C95.9498 56.9285 96.6031 56.7818 97.6965 56.6752C99.2431 56.4885 100.483 56.2218 101.416 55.8752C102.35 55.5285 103.163 55.0352 103.856 54.3952C104.336 53.9685 104.696 53.5552 104.936 53.1552C105.203 52.7552 105.336 52.4218 105.336 52.1552C105.336 51.8885 105.203 51.7152 104.936 51.6352C103.363 51.2885 101.883 50.6618 100.496 49.7552C99.1365 48.8485 98.0698 47.7952 97.2965 46.5952C96.6298 45.5818 96.0565 44.5018 95.5765 43.3552C95.1231 42.1818 94.8431 41.1285 94.7365 40.1952C94.6565 39.6618 94.6165 39.1952 94.6165 38.7952C94.6165 38.3685 94.6565 37.7952 94.7365 37.0752C94.8431 35.8485 94.9365 35.2085 95.0165 35.1552C95.1231 35.0485 95.2165 34.8618 95.2965 34.5952C95.4031 34.3818 95.5098 34.2485 95.6165 34.1952C95.7231 34.1418 96.0031 34.1152 96.4565 34.1152C96.6431 34.0885 96.9498 34.0752 97.3765 34.0752C97.8031 34.0752 98.0831 34.0885 98.2165 34.1152L103.736 34.1952C105.843 34.2485 107.47 34.2885 108.616 34.3152C109.763 34.3418 110.496 34.3685 110.816 34.3952C111.163 34.4218 111.376 34.4752 111.456 34.5552C111.536 34.6352 111.55 34.6752 111.496 34.6752C111.47 34.6752 111.39 34.6618 111.256 34.6352C110.936 34.5818 110.723 34.6085 110.616 34.7152C110.51 34.7685 110.47 34.8085 110.496 34.8352C110.55 34.8618 110.656 34.8752 110.816 34.8752C111.35 34.8752 111.83 35.0752 112.256 35.4752C112.416 35.6352 112.496 35.8352 112.496 36.0752V36.3152L112.456 36.6752C112.456 36.8352 112.483 36.9152 112.536 36.9152C112.67 36.9152 112.696 37.1018 112.616 37.4752C112.536 37.8485 112.416 38.1018 112.256 38.2352C112.176 38.2885 112.203 38.4218 112.336 38.6352C112.603 39.0618 112.216 39.3952 111.176 39.6352C110.136 39.8752 108.136 40.0752 105.176 40.2352C103.496 40.3152 102.416 40.4218 101.936 40.5552C101.776 40.5818 101.656 40.6218 101.576 40.6752C101.496 40.7018 101.456 40.7685 101.456 40.8752C101.456 40.9818 101.47 41.0752 101.496 41.1552C101.55 41.3952 101.723 41.9018 102.016 42.6752C102.603 44.0885 103.723 45.1152 105.376 45.7552C105.936 45.9952 106.376 46.1418 106.696 46.1952C107.016 46.2218 107.75 46.2485 108.896 46.2752C110.47 46.3285 111.363 46.3952 111.576 46.4752C111.79 46.5552 111.963 46.5952 112.096 46.5952C112.256 46.5418 112.336 47.1952 112.336 48.5552C112.336 49.2752 112.323 49.8352 112.296 50.2352C112.163 52.1018 111.696 53.7685 110.896 55.2352C110.123 56.7018 108.99 58.0085 107.496 59.1552C106.963 59.5818 106.15 60.0752 105.056 60.6352C103.963 61.1685 103.11 61.5152 102.496 61.6752C102.15 61.7818 101.616 61.8618 100.896 61.9152C100.203 61.9685 99.4965 61.9952 98.7765 61.9952Z" fill="white"/>
<path d="M131.154 42.0352C131.341 42.1418 131.394 42.3285 131.314 42.5952C131.288 42.7018 131.168 42.8352 130.954 42.9952C130.741 43.1552 130.368 43.3952 129.834 43.7152C129.141 44.0885 128.234 44.5285 127.114 45.0352C126.021 45.5152 125.408 45.7552 125.274 45.7552C125.194 45.7552 125.141 46.3018 125.114 47.3952C125.114 48.4885 125.114 50.4618 125.114 53.3152C125.088 57.4485 125.021 59.6085 124.914 59.7952C124.888 59.8752 124.848 59.9152 124.794 59.9152C124.794 59.9152 124.781 59.9018 124.754 59.8752C124.754 59.8485 124.754 59.8218 124.754 59.7952L124.794 59.3552L124.834 58.8352C124.834 58.5952 124.808 58.3952 124.754 58.2352C124.701 58.1285 124.661 58.0752 124.634 58.0752C124.608 58.0752 124.594 58.3152 124.594 58.7952C124.568 59.2752 124.514 59.7018 124.434 60.0752C124.354 60.4218 124.194 60.8218 123.954 61.2752C123.821 61.5685 123.714 61.7418 123.634 61.7952C123.581 61.8218 123.501 61.7818 123.394 61.6752C123.261 61.5418 123.114 61.4752 122.954 61.4752C122.768 61.4752 122.634 61.5685 122.554 61.7552C122.528 61.8618 122.501 61.9285 122.474 61.9552C122.448 61.9818 122.408 61.9418 122.354 61.8352C122.301 61.6752 122.221 61.5952 122.114 61.5952C122.034 61.5952 121.968 61.6752 121.914 61.8352C121.914 61.9152 121.901 61.9552 121.874 61.9552C121.848 61.9552 121.834 61.9285 121.834 61.8752C121.834 61.7685 121.728 61.6352 121.514 61.4752C121.328 61.3685 121.234 61.2218 121.234 61.0352C121.234 60.9285 121.221 60.8752 121.194 60.8752C121.168 60.8752 121.088 60.9552 120.954 61.1152C120.794 61.3285 120.674 61.4352 120.594 61.4352C120.541 61.4352 120.434 61.2885 120.274 60.9952C119.794 60.1152 119.448 56.9552 119.234 51.5152C119.208 49.7018 119.128 48.7952 118.994 48.7952C118.888 48.7952 118.328 48.9418 117.314 49.2352L115.794 49.6752L115.474 49.3152C115.208 49.0752 115.154 48.9418 115.314 48.9152C115.421 48.8618 115.274 48.8352 114.874 48.8352H114.754C114.488 48.8352 114.261 48.7818 114.074 48.6752C113.914 48.5685 113.834 48.4485 113.834 48.3152C113.834 48.1818 113.754 48.0618 113.594 47.9552C113.434 47.7952 113.288 47.4618 113.154 46.9552C113.074 46.6885 113.008 46.4618 112.954 46.2752C112.874 46.0618 112.821 45.8885 112.794 45.7552C112.714 45.5418 112.674 45.2085 112.674 44.7552L112.714 44.1552L114.034 43.6352L115.114 43.2352C116.261 42.8085 116.888 42.5685 116.994 42.5152L118.674 41.9152L118.634 40.2352C118.608 39.1685 118.648 38.0618 118.754 36.9152C118.861 35.7418 118.981 35.1552 119.114 35.1552C119.248 35.1552 119.341 35.2352 119.394 35.3952C119.394 35.4752 119.408 35.5152 119.434 35.5152C119.461 35.4885 119.474 35.4218 119.474 35.3152C119.474 35.1552 119.514 35.0618 119.594 35.0352C119.701 34.9818 119.768 35.0352 119.794 35.1952C119.794 35.3018 119.861 35.1952 119.994 34.8752C120.128 34.5818 120.314 34.3685 120.554 34.2352C120.741 34.1285 121.301 34.0752 122.234 34.0752C123.408 34.0752 124.168 34.1418 124.514 34.2752C124.728 34.3818 124.901 34.4352 125.034 34.4352C125.114 34.4352 125.154 35.2752 125.154 36.9552C125.154 38.6618 125.194 39.5152 125.274 39.5152C125.328 39.5152 125.848 39.3418 126.834 38.9952C127.821 38.6485 128.474 38.4752 128.794 38.4752L129.314 38.5152L128.754 38.7152C128.594 38.7418 128.368 38.8352 128.074 38.9952C128.048 39.0752 128.114 39.0885 128.274 39.0352C128.568 38.9018 128.861 38.8352 129.154 38.8352C129.394 38.8352 129.674 38.8885 129.994 38.9952C130.368 39.1018 130.594 39.1952 130.674 39.2752C130.754 39.3285 130.768 39.4485 130.714 39.6352V39.7952C130.714 39.9818 130.768 40.1285 130.874 40.2352C131.034 40.3418 131.114 40.4885 131.114 40.6752C131.114 40.8352 131.154 40.9018 131.234 40.8752C131.288 40.8218 131.314 40.8618 131.314 40.9952C131.314 41.1818 131.234 41.4085 131.074 41.6752C130.941 41.8085 130.968 41.9285 131.154 42.0352ZM119.874 34.7952C119.848 34.8218 119.821 34.8218 119.794 34.7952C119.794 34.7685 119.794 34.7152 119.794 34.6352C119.794 34.4485 119.821 34.4085 119.874 34.5152C119.928 34.6485 119.928 34.7418 119.874 34.7952ZM119.634 37.0352C119.714 36.6352 119.754 36.3952 119.754 36.3152C119.754 36.1552 119.741 36.0752 119.714 36.0752L119.634 36.3952C119.554 36.5818 119.514 36.8218 119.514 37.1152C119.514 37.3285 119.554 37.3018 119.634 37.0352ZM117.154 48.4352H117.114L116.794 48.4752C116.394 48.5285 116.128 48.5952 115.994 48.6752L115.954 48.7152L116.034 48.7552C116.168 48.7552 116.488 48.6618 116.994 48.4752L117.154 48.4352Z" fill="white"/>
<path d="M148.666 58.7152C148.719 59.4085 148.706 59.7552 148.626 59.7552C148.573 59.7552 148.533 59.6085 148.506 59.3152C148.479 59.0752 148.439 58.8752 148.386 58.7152C148.333 58.5552 148.293 58.4618 148.266 58.4352C148.239 58.4085 148.239 58.4885 148.266 58.6752L148.306 59.3952C148.306 60.1152 148.253 60.7685 148.146 61.3552C148.039 61.9418 147.933 62.1418 147.826 61.9552C147.799 61.9018 147.733 61.8485 147.626 61.7952C147.546 61.7418 147.453 61.7152 147.346 61.7152C147.213 61.7152 147.119 61.7285 147.066 61.7552C147.013 61.7818 146.973 61.8485 146.946 61.9552C146.919 62.0885 146.879 62.1552 146.826 62.1552C146.799 62.1818 146.733 62.1685 146.626 62.1152C146.519 62.0885 146.439 62.0752 146.386 62.0752C146.359 62.1018 146.359 62.1818 146.386 62.3152C146.386 62.4752 146.359 62.5018 146.306 62.3952C146.199 62.2352 146.066 62.1552 145.906 62.1552C145.719 62.1018 145.573 61.9685 145.466 61.7552L145.306 61.3952L145.106 61.8752C145.026 62.0885 144.973 62.2085 144.946 62.2352C144.919 62.2618 144.853 62.2218 144.746 62.1152L144.306 61.7152C144.119 61.5285 143.906 60.5152 143.666 58.6752C143.426 56.8085 143.266 55.5418 143.186 54.8752H138.786L138.666 57.2352C138.613 58.7285 138.533 59.7018 138.426 60.1552L138.306 60.7552V60.0752C138.359 59.2485 138.346 58.8352 138.266 58.8352C138.213 58.8352 138.173 59.0485 138.146 59.4752C138.119 59.8752 138.026 60.3285 137.866 60.8352C137.706 61.3152 137.533 61.7018 137.346 61.9952C137.159 62.2618 137.026 62.3418 136.946 62.2352C136.839 62.0485 136.679 61.9552 136.466 61.9552C136.306 61.9552 136.159 62.0618 136.026 62.2752C135.973 62.3818 135.919 62.4485 135.866 62.4752C135.839 62.5018 135.826 62.4618 135.826 62.3552C135.826 62.1952 135.746 62.1285 135.586 62.1552H135.466C135.199 62.1552 134.946 61.9285 134.706 61.4752C134.626 61.3418 134.573 61.2752 134.546 61.2752C134.546 61.2752 134.479 61.3818 134.346 61.5952C134.266 61.7818 134.186 61.8752 134.106 61.8752C134.026 61.8752 133.906 61.7018 133.746 61.3552C133.506 60.8218 133.306 59.5552 133.146 57.5552C133.013 55.5552 132.933 53.1418 132.906 50.3152C132.906 48.3952 132.853 46.3685 132.746 44.2352C132.639 42.5018 132.586 40.9952 132.586 39.7152C132.586 38.5418 132.639 37.5418 132.746 36.7152C132.879 35.7285 133.013 35.2352 133.146 35.2352C133.279 35.2352 133.346 35.3285 133.346 35.5152C133.373 35.6485 133.426 35.6085 133.506 35.3952C133.613 35.1285 133.706 35.0752 133.786 35.2352C133.839 35.3152 133.879 35.3418 133.906 35.3152C133.959 35.2618 133.999 35.1818 134.026 35.0752C134.079 34.8085 134.173 34.6218 134.306 34.5152C134.439 34.4085 134.679 34.3418 135.026 34.3152C135.506 34.2618 137.573 34.2085 141.226 34.1552L145.186 34.0752C146.306 34.0752 146.906 34.1418 146.986 34.2752C147.146 34.4352 147.359 34.5418 147.626 34.5952L148.066 34.6752L147.986 36.9552C147.906 38.2352 147.866 40.8218 147.866 44.7152C147.866 47.2485 148.066 50.9552 148.466 55.8352C148.599 57.3818 148.666 58.3418 148.666 58.7152ZM133.866 34.9152C133.813 34.9685 133.786 34.9018 133.786 34.7152C133.786 34.6618 133.799 34.6218 133.826 34.5952C133.853 34.5685 133.879 34.5818 133.906 34.6352C133.959 34.7952 133.946 34.8885 133.866 34.9152ZM139.786 39.6352C139.759 39.6352 139.733 39.6485 139.706 39.6752C139.679 39.6752 139.666 39.6752 139.666 39.6752C139.693 39.6752 139.759 39.6885 139.866 39.7152C139.999 39.7152 140.159 39.7152 140.346 39.7152C140.586 39.7152 140.773 39.7152 140.906 39.7152C141.039 39.6885 141.026 39.6618 140.866 39.6352C140.786 39.6085 140.613 39.5952 140.346 39.5952C140.079 39.5952 139.893 39.6085 139.786 39.6352ZM140.386 48.5152L141.906 48.4352L141.866 48.0752C141.813 47.7018 141.759 46.9552 141.706 45.8352C141.679 44.9552 141.599 43.7685 141.466 42.2752L141.306 40.4752H140.226C139.533 40.4752 139.159 40.5152 139.106 40.5952C139.053 40.6485 138.999 41.9952 138.946 44.6352L138.826 48.5552L140.386 48.5152ZM138.866 53.8752C138.813 53.9018 138.799 53.9285 138.826 53.9552C138.853 53.9818 138.893 53.9952 138.946 53.9952C139.133 53.9952 139.199 53.9685 139.146 53.9152C139.039 53.8618 138.946 53.8485 138.866 53.8752ZM141.066 53.9552C141.146 53.9552 141.199 53.9552 141.226 53.9552C141.279 53.9285 141.279 53.9018 141.226 53.8752H140.866C140.813 53.9018 140.813 53.9285 140.866 53.9552C140.919 53.9552 140.986 53.9552 141.066 53.9552ZM142.226 54.1152C142.386 54.1152 142.506 54.1152 142.586 54.1152C142.666 54.0885 142.653 54.0618 142.546 54.0352C142.493 54.0085 142.386 53.9952 142.226 53.9952C142.066 53.9952 141.959 54.0085 141.906 54.0352L141.826 54.0752C141.826 54.1018 141.959 54.1152 142.226 54.1152ZM139.106 54.3952C139.213 54.3952 139.293 54.3952 139.346 54.3952C139.399 54.3685 139.399 54.3418 139.346 54.3152C139.239 54.2618 139.093 54.2618 138.906 54.3152C138.853 54.3418 138.839 54.3685 138.866 54.3952C138.919 54.3952 138.999 54.3952 139.106 54.3952Z" fill="white"/>
<path d="M168.44 35.5152C168.547 36.2352 168.6 37.0885 168.6 38.0752C168.6 40.1018 168.387 41.9285 167.96 43.5552C167.827 44.0085 167.627 44.5818 167.36 45.2752C167.093 45.9685 166.84 46.5285 166.6 46.9552C166.413 47.3285 166.027 47.8618 165.44 48.5552C164.853 49.2218 164.427 49.6218 164.16 49.7552C164.053 49.8085 163.987 49.8218 163.96 49.7952C163.96 49.7685 164 49.7152 164.08 49.6352C164.32 49.3418 164.44 49.1685 164.44 49.1152C164.44 49.0618 164.333 49.1152 164.12 49.2752C163.773 49.4885 163.413 49.6218 163.04 49.6752C162.933 49.7018 162.813 49.7152 162.68 49.7152C162.573 49.7152 162.493 49.7018 162.44 49.6752C162.387 49.6218 162.333 49.5285 162.28 49.3952C162.173 49.1818 162.027 49.0485 161.84 48.9952C161.653 48.9952 161.507 48.9152 161.4 48.7552C161.373 48.7018 161.333 48.6618 161.28 48.6352C161.253 48.6085 161.227 48.6085 161.2 48.6352H161.16C161.08 48.6352 161 48.5418 160.92 48.3552C160.867 48.1685 160.853 48.0085 160.88 47.8752C160.88 47.7418 160.787 47.6752 160.6 47.6752C160.28 47.6752 160.12 47.5152 160.12 47.1952C160.12 46.9018 160.24 46.5418 160.48 46.1152L161.4 44.3552C161.613 43.9018 161.813 43.3552 162 42.7152C162.187 42.0752 162.24 41.7152 162.16 41.6352C162.107 41.5818 161.467 41.8485 160.24 42.4352C159.013 42.9952 158.213 43.3952 157.84 43.6352C157.413 43.8752 157.2 44.0885 157.2 44.2752L157 48.8352C156.76 53.7685 156.32 57.4218 155.68 59.7952C155.52 60.3818 155.413 60.6752 155.36 60.6752C155.36 60.6752 155.347 60.6618 155.32 60.6352C155.32 60.6085 155.32 60.5818 155.32 60.5552C155.32 60.3952 155.36 60.1418 155.44 59.7952C155.547 59.2085 155.6 58.8618 155.6 58.7552V58.6752C155.547 58.6752 155.48 58.8752 155.4 59.2752C155.213 60.1818 154.773 61.0885 154.08 61.9952C153.92 62.1818 153.8 62.3018 153.72 62.3552C153.64 62.4085 153.6 62.3685 153.6 62.2352C153.6 62.0218 153.507 61.8752 153.32 61.7952L153.12 61.7152C153.013 61.7152 152.92 61.7818 152.84 61.9152C152.707 62.1818 152.613 62.2085 152.56 61.9952C152.507 61.8618 152.427 61.7952 152.32 61.7952C152.24 61.7952 152.173 61.8752 152.12 62.0352C152.12 62.1152 152.107 62.1418 152.08 62.1152C152.053 62.1152 152.04 62.0618 152.04 61.9552C152.04 61.8752 152.013 61.7952 151.96 61.7152C151.907 61.6352 151.853 61.5818 151.8 61.5552C151.64 61.4485 151.56 61.2885 151.56 61.0752V60.7152L151.2 61.0352C151.04 61.1952 150.933 61.2885 150.88 61.3152C150.853 61.3152 150.813 61.2485 150.76 61.1152C150.707 60.9018 150.64 60.7152 150.56 60.5552C150.533 60.5018 150.52 60.3552 150.52 60.1152C150.52 59.4218 150.653 57.2085 150.92 53.4752C151.053 51.1552 151.12 49.1418 151.12 47.4352L151.08 45.1552L150.64 45.1952H150.48C150.347 45.1952 150.227 45.1552 150.12 45.0752C150.04 44.9952 149.907 44.8085 149.72 44.5152C149.4 43.9818 149.24 43.6618 149.24 43.5552C149.24 43.3952 149.2 43.3018 149.12 43.2752C149.04 43.1952 148.933 42.9018 148.8 42.3952C148.693 41.8618 148.64 41.4485 148.64 41.1552V40.9552C148.64 40.7952 148.68 40.6752 148.76 40.5952C148.867 40.5152 149.12 40.3818 149.52 40.1952L150.44 39.7552V37.3152C150.413 36.2752 150.413 35.6085 150.44 35.3152C150.467 35.0218 150.533 34.8752 150.64 34.8752C150.747 34.8752 150.827 34.9418 150.88 35.0752C150.88 35.1285 150.893 35.1285 150.92 35.0752C150.973 35.0218 151.013 34.9552 151.04 34.8752C151.093 34.7152 151.133 34.6352 151.16 34.6352C151.187 34.6352 151.227 34.7018 151.28 34.8352C151.28 34.8618 151.28 34.8885 151.28 34.9152C151.307 34.9418 151.32 34.9552 151.32 34.9552C151.347 34.9552 151.413 34.8085 151.52 34.5152C151.573 34.2752 151.64 34.1152 151.72 34.0352C151.827 33.9285 152 33.8352 152.24 33.7552C152.853 33.5685 153.68 33.4752 154.72 33.4752C155.28 33.4752 155.707 33.5152 156 33.5952L156.64 33.7552L156.72 34.7152L156.8 36.4352C156.8 36.9685 156.867 37.2352 157 37.2352C157.267 37.2352 158.6 36.7152 161 35.6752C161.8 35.3552 162.373 35.1152 162.72 34.9552C163.093 34.7685 163.347 34.6085 163.48 34.4752C163.587 34.3685 163.733 34.3152 163.92 34.3152C164.08 34.3152 164.213 34.2618 164.32 34.1552C164.48 33.9952 165.053 33.9152 166.04 33.9152C166.84 33.9152 167.4 33.9818 167.72 34.1152C167.987 34.2485 168.147 34.3685 168.2 34.4752C168.253 34.5818 168.333 34.9285 168.44 35.5152ZM151.24 36.6752C151.293 36.4352 151.293 36.2218 151.24 36.0352L151.2 35.9552V36.3552C151.2 36.6752 151.213 36.7818 151.24 36.6752Z" fill="white"/>
<path d="M186.701 42.0352C186.888 42.1418 186.941 42.3285 186.861 42.5952C186.834 42.7018 186.714 42.8352 186.501 42.9952C186.288 43.1552 185.914 43.3952 185.381 43.7152C184.688 44.0885 183.781 44.5285 182.661 45.0352C181.568 45.5152 180.954 45.7552 180.821 45.7552C180.741 45.7552 180.688 46.3018 180.661 47.3952C180.661 48.4885 180.661 50.4618 180.661 53.3152C180.634 57.4485 180.568 59.6085 180.461 59.7952C180.434 59.8752 180.394 59.9152 180.341 59.9152C180.341 59.9152 180.328 59.9018 180.301 59.8752C180.301 59.8485 180.301 59.8218 180.301 59.7952L180.341 59.3552L180.381 58.8352C180.381 58.5952 180.354 58.3952 180.301 58.2352C180.248 58.1285 180.208 58.0752 180.181 58.0752C180.154 58.0752 180.141 58.3152 180.141 58.7952C180.114 59.2752 180.061 59.7018 179.981 60.0752C179.901 60.4218 179.741 60.8218 179.501 61.2752C179.368 61.5685 179.261 61.7418 179.181 61.7952C179.128 61.8218 179.048 61.7818 178.941 61.6752C178.808 61.5418 178.661 61.4752 178.501 61.4752C178.314 61.4752 178.181 61.5685 178.101 61.7552C178.074 61.8618 178.048 61.9285 178.021 61.9552C177.994 61.9818 177.954 61.9418 177.901 61.8352C177.848 61.6752 177.768 61.5952 177.661 61.5952C177.581 61.5952 177.514 61.6752 177.461 61.8352C177.461 61.9152 177.448 61.9552 177.421 61.9552C177.394 61.9552 177.381 61.9285 177.381 61.8752C177.381 61.7685 177.274 61.6352 177.061 61.4752C176.874 61.3685 176.781 61.2218 176.781 61.0352C176.781 60.9285 176.768 60.8752 176.741 60.8752C176.714 60.8752 176.634 60.9552 176.501 61.1152C176.341 61.3285 176.221 61.4352 176.141 61.4352C176.088 61.4352 175.981 61.2885 175.821 60.9952C175.341 60.1152 174.994 56.9552 174.781 51.5152C174.754 49.7018 174.674 48.7952 174.541 48.7952C174.434 48.7952 173.874 48.9418 172.861 49.2352L171.341 49.6752L171.021 49.3152C170.754 49.0752 170.701 48.9418 170.861 48.9152C170.968 48.8618 170.821 48.8352 170.421 48.8352H170.301C170.034 48.8352 169.808 48.7818 169.621 48.6752C169.461 48.5685 169.381 48.4485 169.381 48.3152C169.381 48.1818 169.301 48.0618 169.141 47.9552C168.981 47.7952 168.834 47.4618 168.701 46.9552C168.621 46.6885 168.554 46.4618 168.501 46.2752C168.421 46.0618 168.368 45.8885 168.341 45.7552C168.261 45.5418 168.221 45.2085 168.221 44.7552L168.261 44.1552L169.581 43.6352L170.661 43.2352C171.808 42.8085 172.434 42.5685 172.541 42.5152L174.221 41.9152L174.181 40.2352C174.154 39.1685 174.194 38.0618 174.301 36.9152C174.408 35.7418 174.528 35.1552 174.661 35.1552C174.794 35.1552 174.888 35.2352 174.941 35.3952C174.941 35.4752 174.954 35.5152 174.981 35.5152C175.008 35.4885 175.021 35.4218 175.021 35.3152C175.021 35.1552 175.061 35.0618 175.141 35.0352C175.248 34.9818 175.314 35.0352 175.341 35.1952C175.341 35.3018 175.408 35.1952 175.541 34.8752C175.674 34.5818 175.861 34.3685 176.101 34.2352C176.288 34.1285 176.848 34.0752 177.781 34.0752C178.954 34.0752 179.714 34.1418 180.061 34.2752C180.274 34.3818 180.448 34.4352 180.581 34.4352C180.661 34.4352 180.701 35.2752 180.701 36.9552C180.701 38.6618 180.741 39.5152 180.821 39.5152C180.874 39.5152 181.394 39.3418 182.381 38.9952C183.368 38.6485 184.021 38.4752 184.341 38.4752L184.861 38.5152L184.301 38.7152C184.141 38.7418 183.914 38.8352 183.621 38.9952C183.594 39.0752 183.661 39.0885 183.821 39.0352C184.114 38.9018 184.408 38.8352 184.701 38.8352C184.941 38.8352 185.221 38.8885 185.541 38.9952C185.914 39.1018 186.141 39.1952 186.221 39.2752C186.301 39.3285 186.314 39.4485 186.261 39.6352V39.7952C186.261 39.9818 186.314 40.1285 186.421 40.2352C186.581 40.3418 186.661 40.4885 186.661 40.6752C186.661 40.8352 186.701 40.9018 186.781 40.8752C186.834 40.8218 186.861 40.8618 186.861 40.9952C186.861 41.1818 186.781 41.4085 186.621 41.6752C186.488 41.8085 186.514 41.9285 186.701 42.0352ZM175.421 34.7952C175.394 34.8218 175.368 34.8218 175.341 34.7952C175.341 34.7685 175.341 34.7152 175.341 34.6352C175.341 34.4485 175.368 34.4085 175.421 34.5152C175.474 34.6485 175.474 34.7418 175.421 34.7952ZM175.181 37.0352C175.261 36.6352 175.301 36.3952 175.301 36.3152C175.301 36.1552 175.288 36.0752 175.261 36.0752L175.181 36.3952C175.101 36.5818 175.061 36.8218 175.061 37.1152C175.061 37.3285 175.101 37.3018 175.181 37.0352ZM172.701 48.4352H172.661L172.341 48.4752C171.941 48.5285 171.674 48.5952 171.541 48.6752L171.501 48.7152L171.581 48.7552C171.714 48.7552 172.034 48.6618 172.541 48.4752L172.701 48.4352Z" fill="white"/>
</g>
<defs>
<filter id="filter0_d_26_365" x="0" y="0" width="282" height="138" filterUnits="userSpaceOnUse" color-interpolation-filters="sRGB">
<feFlood flood-opacity="0" result="BackgroundImageFix"/>
<feColorMatrix in="SourceAlpha" type="matrix" values="0 0 0 0 0 0 0 0 0 0 0 0 0 0 0 0 0 0 127 0" result="hardAlpha"/>
<feOffset dy="4"/>
<feGaussianBlur stdDeviation="2"/>
<feComposite in2="hardAlpha" operator="out"/>
<feColorMatrix type="matrix" values="0 0 0 0 0 0 0 0 0 0 0 0 0 0 0 0 0 0 0.25 0"/>
<feBlend mode="normal" in2="BackgroundImageFix" result="effect1_dropShadow_26_365"/>
<feBlend mode="normal" in="SourceGraphic" in2="effect1_dropShadow_26_365" result="shape"/>
</filter>
</defs>
</svg>
