<svg width="274" height="130" viewBox="0 0 274 130" fill="none" xmlns="http://www.w3.org/2000/svg">
<g clip-path="url(#clip0_26_364)">
<g filter="url(#filter0_d_26_364)">
<path fill-rule="evenodd" clip-rule="evenodd" d="M15.2137 29.9492H258.788C267.073 29.9492 274 36.6712 274 45.0327V114.77C274 123.131 267.073 130 258.788 130H15.2137C6.92744 130 0 123.131 0 114.77V45.0327C0 36.6712 6.92744 29.9492 15.2137 29.9492Z" fill="#1C1C1C"/>
<path fill-rule="evenodd" clip-rule="evenodd" d="M14.61 29.0551H259.389C267.522 29.0551 273.998 35.4756 273.998 43.3901V110.14C273.998 118.203 267.522 124.624 259.389 124.624H14.61C6.62631 124.624 0 118.203 0 110.14V43.3901C0 35.4756 6.62631 29.0551 14.61 29.0551Z" fill="#353535"/>
<path fill-rule="evenodd" clip-rule="evenodd" d="M15.2137 21.5876H258.788C267.073 21.5876 274 28.4565 274 36.6711V106.556C274 114.921 267.073 121.638 258.788 121.638H15.2137C6.92744 121.638 0 114.919 0 106.556V36.6711C0 28.4565 6.92744 21.5876 15.2137 21.5876Z" fill="#1C1C1C"/>
<path fill-rule="evenodd" clip-rule="evenodd" d="M23.9496 18.0953H248.093C255.926 18.0953 262.252 23.9652 262.252 31.0937V91.4684C262.252 98.5968 255.925 104.467 248.093 104.467H23.9496C16.2701 104.467 9.94336 98.5968 9.94336 91.4684V31.0937C9.94336 23.9652 16.2701 18.0953 23.9496 18.0953Z" fill="#D30243"/>
<path fill-rule="evenodd" clip-rule="evenodd" d="M23.9496 8.68665H248.093C255.926 8.68665 262.252 14.9601 262.252 22.5761V87.0865C262.252 94.6995 255.925 100.973 248.093 100.973H23.9496C16.2701 100.973 9.94336 94.6995 9.94336 87.0865V22.5761C9.94336 14.9601 16.2701 8.68665 23.9496 8.68665Z" fill="#FF1D63"/>
<path fill-rule="evenodd" clip-rule="evenodd" d="M23.9496 6.00003H248.093C255.926 6.00003 262.252 12.272 262.252 19.8865V84.3984C262.252 92.0114 255.925 98.2864 248.093 98.2864H23.9496C16.2701 98.2864 9.94336 92.0114 9.94336 84.3984V19.8865C9.94336 12.272 16.2701 6.00003 23.9496 6.00003Z" fill="#EA003D"/>
<path d="M125.737 65.7857C125.817 66.0257 125.857 66.2657 125.857 66.5057C125.857 66.7457 125.817 66.8657 125.737 66.8657C125.657 66.8657 125.537 67.0124 125.377 67.3057C125.217 67.5991 125.177 67.7457 125.257 67.7457C125.284 67.7457 125.284 67.7724 125.257 67.8257C125.231 67.8524 125.177 67.8791 125.097 67.9057C124.937 68.0124 124.884 68.1057 124.937 68.1857C124.964 68.2391 124.897 68.3057 124.737 68.3857C124.577 68.4657 124.404 68.5191 124.217 68.5457C124.111 68.5457 124.057 68.6391 124.057 68.8257C124.057 69.1724 123.884 69.3457 123.537 69.3457C123.217 69.3457 122.711 69.1857 122.017 68.8657C121.564 68.6257 121.271 68.4924 121.137 68.4657C121.004 68.4391 120.897 68.4791 120.817 68.5857C120.764 68.6924 120.724 68.7324 120.697 68.7057C120.671 68.7057 120.657 68.6657 120.657 68.5857C120.657 68.3991 120.551 68.3057 120.337 68.3057C120.231 68.3057 120.111 68.3324 119.977 68.3857C119.871 68.4657 119.804 68.5591 119.777 68.6657C119.751 68.6924 119.724 68.7324 119.697 68.7857C119.671 68.8657 119.644 68.8924 119.617 68.8657C119.617 68.8391 119.617 68.7991 119.617 68.7457C119.617 68.5857 119.577 68.5057 119.497 68.5057C119.364 68.5057 119.257 68.6124 119.177 68.8257C119.097 69.0657 119.057 69.0791 119.057 68.8657C119.057 68.8124 119.044 68.7591 119.017 68.7057C118.991 68.6524 118.964 68.6391 118.937 68.6657C118.777 68.7457 118.257 68.8524 117.377 68.9857C116.151 69.1724 114.857 69.2657 113.497 69.2657C112.991 69.2657 112.471 69.2391 111.937 69.1857C110.364 68.9991 108.911 68.5457 107.577 67.8257C106.271 67.1057 105.244 66.1991 104.497 65.1057C103.591 63.7991 102.964 62.0657 102.617 59.9057C102.297 57.7191 102.137 54.3724 102.137 49.8657C102.137 48.1591 102.151 46.9191 102.177 46.1457C102.204 45.3457 102.271 44.6791 102.377 44.1457C102.697 42.1457 103.017 41.1457 103.337 41.1457C103.497 41.1457 103.631 41.0924 103.737 40.9857C103.871 40.8524 103.937 40.8657 103.937 41.0257C103.937 41.0524 103.951 41.0657 103.977 41.0657C104.031 41.0657 104.124 40.9857 104.257 40.8257C104.524 40.5057 105.017 40.3457 105.737 40.3457C105.897 40.3457 106.217 40.3724 106.697 40.4257C107.017 40.4791 107.311 40.5057 107.577 40.5057C107.817 40.5057 108.257 40.4791 108.897 40.4257C109.911 40.3191 111.377 40.2657 113.297 40.2657C115.564 40.2657 117.311 40.4257 118.537 40.7457C119.764 41.0657 120.684 41.6124 121.297 42.3857C121.911 43.1591 122.364 44.3191 122.657 45.8657C122.764 46.3991 122.831 47.1057 122.857 47.9857C122.884 48.8657 122.897 50.4391 122.897 52.7057C122.897 56.2524 122.844 58.7724 122.737 60.2657L122.657 61.8657C122.657 62.2124 122.711 62.4257 122.817 62.5057C124.764 64.0791 125.751 64.9457 125.777 65.1057C125.777 65.1324 125.777 65.1457 125.777 65.1457C125.804 65.1457 125.817 65.1457 125.817 65.1457C125.817 65.1724 125.804 65.1857 125.777 65.1857C125.724 65.1857 125.631 65.1191 125.497 64.9857C125.231 64.7991 125.057 64.7057 124.977 64.7057C124.977 64.7057 124.964 64.7057 124.937 64.7057C124.937 64.7057 124.937 64.7191 124.937 64.7457C124.937 64.7724 124.964 64.8124 125.017 64.8657C125.071 64.9191 125.137 64.9857 125.217 65.0657C125.484 65.3324 125.657 65.5724 125.737 65.7857ZM103.777 41.9457C103.777 41.8924 103.751 41.8791 103.697 41.9057C103.671 41.9324 103.644 41.9724 103.617 42.0257C103.537 42.2657 103.497 42.4124 103.497 42.4657C103.497 42.5191 103.511 42.5457 103.537 42.5457C103.564 42.5191 103.604 42.4524 103.657 42.3457C103.711 42.2124 103.751 42.0791 103.777 41.9457ZM117.017 57.5857C117.124 57.5857 117.177 56.7991 117.177 55.2257C117.177 53.5191 117.124 51.7057 117.017 49.7857C116.911 47.8657 116.791 46.8391 116.657 46.7057C116.604 46.6524 116.257 46.6257 115.617 46.6257C114.471 46.6257 113.057 46.6791 111.377 46.7857C109.724 46.8657 108.844 46.9591 108.737 47.0657C108.684 47.1191 108.617 47.7857 108.537 49.0657C108.457 50.3191 108.404 51.6791 108.377 53.1457L108.337 54.8257C108.337 57.6257 108.497 59.5991 108.817 60.7457C109.217 62.1591 110.471 63.0924 112.577 63.5457C112.977 63.6257 113.271 63.6657 113.457 63.6657C113.671 63.6657 113.711 63.5857 113.577 63.4257C113.444 63.2657 113.044 62.8524 112.377 62.1857C111.364 61.2257 110.857 60.7057 110.857 60.6257C110.857 60.5724 110.951 60.5191 111.137 60.4657C111.217 60.4391 111.257 60.4124 111.257 60.3857C111.284 60.3591 111.271 60.3457 111.217 60.3457C111.111 60.3457 111.057 60.2791 111.057 60.1457C111.057 59.9857 111.137 59.9324 111.297 59.9857L111.377 60.0257C111.404 60.0257 111.391 59.9857 111.337 59.9057C111.311 59.7991 111.244 59.6791 111.137 59.5457C110.897 59.1457 110.791 58.9324 110.817 58.9057L111.137 58.2257C111.271 57.8524 111.417 57.5857 111.577 57.4257L112.417 56.5457C112.791 56.1457 113.177 55.8391 113.577 55.6257L114.097 55.3857L114.857 55.9457C115.071 56.0791 115.324 56.2791 115.617 56.5457C115.937 56.7857 116.151 56.9457 116.257 57.0257C116.684 57.3991 116.937 57.5857 117.017 57.5857ZM113.337 61.9457C113.417 61.9457 113.337 61.8391 113.097 61.6257C112.884 61.3857 112.737 61.2257 112.657 61.1457C112.177 60.6657 111.937 60.4657 111.937 60.5457C111.937 60.6257 112.151 60.8791 112.577 61.3057C113.031 61.7324 113.284 61.9457 113.337 61.9457Z" fill="white"/>
<path d="M144.867 58.3457C144.947 60.4257 144.987 62.4124 144.987 64.3057C144.987 65.2657 144.974 65.8257 144.947 65.9857L144.827 66.6257L144.787 65.7457C144.734 64.9457 144.667 64.5457 144.587 64.5457C144.56 64.5457 144.547 64.7857 144.547 65.2657C144.547 65.7724 144.467 66.3057 144.307 66.8657C144.147 67.4257 143.96 67.8391 143.747 68.1057C143.587 68.3457 143.48 68.3857 143.427 68.2257C143.4 68.0924 143.28 68.0257 143.067 68.0257C142.854 68.0257 142.707 68.1191 142.627 68.3057C142.6 68.4124 142.574 68.4657 142.547 68.4657C142.52 68.4924 142.454 68.4524 142.347 68.3457C142.24 68.2391 142.16 68.1991 142.107 68.2257C142.08 68.2257 142.04 68.3057 141.987 68.4657C141.96 68.6791 141.92 68.7191 141.867 68.5857C141.867 68.3991 141.734 68.2124 141.467 68.0257C141.227 67.8391 141.027 67.7857 140.867 67.8657C140.707 67.8924 140.454 67.9324 140.107 67.9857C139.76 68.0391 139.36 68.0924 138.907 68.1457C138.214 68.1991 137.694 68.2257 137.347 68.2257C134.68 68.2257 132.44 67.5457 130.627 66.1857C129.907 65.6791 129.294 65.0924 128.787 64.4257C128.307 63.7591 127.854 62.8924 127.427 61.8257C126.92 60.5457 126.52 59.1591 126.227 57.6657C125.96 56.1724 125.654 53.8257 125.307 50.6257C125.147 49.1857 125.067 47.7457 125.067 46.3057C125.067 44.4924 125.187 43.0124 125.427 41.8657C125.534 41.3057 125.614 40.9724 125.667 40.8657C125.72 40.7591 125.8 40.7724 125.907 40.9057C125.987 40.9857 126.054 41.0391 126.107 41.0657C126.16 41.0657 126.187 41.0124 126.187 40.9057C126.187 40.7724 126.227 40.7057 126.307 40.7057C126.414 40.6791 126.48 40.7324 126.507 40.8657L126.547 40.9057C126.6 40.9057 126.667 40.7991 126.747 40.5857C126.8 40.4524 126.867 40.3324 126.947 40.2257C127.054 40.1191 127.147 40.0524 127.227 40.0257C127.44 39.9724 127.787 39.9457 128.267 39.9457C129.067 39.9457 129.6 39.9857 129.867 40.0657C130.16 40.1724 130.374 40.1991 130.507 40.1457H130.547C130.68 40.1457 130.88 40.2124 131.147 40.3457C131.467 40.5057 131.667 40.5857 131.747 40.5857C131.827 40.5857 131.867 40.7724 131.867 41.1457C131.867 41.6524 131.814 42.4924 131.707 43.6657C131.6 45.1591 131.547 46.5324 131.547 47.7857C131.547 49.5724 131.614 51.3724 131.747 53.1857C131.88 54.9991 132.04 56.3991 132.227 57.3857C132.387 58.2124 132.6 58.9724 132.867 59.6657C133.134 60.3324 133.4 60.8257 133.667 61.1457C133.987 61.4924 134.427 61.8124 134.987 62.1057C135.414 62.2924 136.014 62.4524 136.787 62.5857C137.56 62.7191 138.2 62.7857 138.707 62.7857C139.08 62.7857 139.28 62.7457 139.307 62.6657C139.36 62.6124 139.334 62.1591 139.227 61.3057L138.987 57.5457C138.72 52.7991 138.494 49.8257 138.307 48.6257C138.174 47.7991 138.107 46.5724 138.107 44.9457C138.107 43.9591 138.134 43.1324 138.187 42.4657C138.267 41.7724 138.36 41.4257 138.467 41.4257C138.6 41.4257 138.667 41.4791 138.667 41.5857C138.694 41.6657 138.747 41.6124 138.827 41.4257C138.907 41.2391 138.96 41.1457 138.987 41.1457C139.014 41.1457 139.054 41.2124 139.107 41.3457L139.187 41.5057C139.24 41.5057 139.28 41.3991 139.307 41.1857C139.36 40.9191 139.44 40.7324 139.547 40.6257C139.68 40.4924 139.894 40.3857 140.187 40.3057C140.347 40.2524 140.787 40.2257 141.507 40.2257C142.494 40.2257 143.28 40.2791 143.867 40.3857C144.187 40.4924 144.374 40.5857 144.427 40.6657C144.48 40.7191 144.507 40.8924 144.507 41.1857L144.547 43.8257C144.6 45.6124 144.654 48.1057 144.707 51.3057C144.76 54.6391 144.814 56.9857 144.867 58.3457ZM126.387 41.7057C126.414 41.3857 126.4 41.3057 126.347 41.4657C126.32 41.4924 126.24 41.7591 126.107 42.2657C126.08 42.5857 126.094 42.6657 126.147 42.5057C126.174 42.4791 126.254 42.2124 126.387 41.7057ZM138.947 43.1457C139.054 42.9857 139.107 42.7991 139.107 42.5857C139.107 42.3991 139.094 42.3057 139.067 42.3057C139.04 42.3057 138.987 42.4924 138.907 42.8657C138.88 42.9991 138.867 43.1057 138.867 43.1857C138.867 43.2391 138.894 43.2257 138.947 43.1457ZM139.027 63.2257C139.134 63.2257 139.214 63.2124 139.267 63.1857C139.32 63.1591 139.36 63.1324 139.387 63.1057C139.387 63.0524 139.32 63.0257 139.187 63.0257C139.054 63.0257 138.934 63.0391 138.827 63.0657C138.747 63.0924 138.694 63.1191 138.667 63.1457C138.667 63.1991 138.787 63.2257 139.027 63.2257Z" fill="white"/>
<path d="M147.32 49.9057C147 49.5324 146.84 49.2791 146.84 49.1457C146.84 49.0924 146.813 49.0524 146.76 49.0257C146.733 48.9991 146.693 48.9991 146.64 49.0257C146.453 49.0791 146.32 46.9457 146.24 42.6257L146.2 40.4257L146.76 40.3457C147.24 40.2924 148.32 40.2391 150 40.1857L152.64 40.0657V43.6657C152.64 44.8924 152.626 45.7991 152.6 46.3857C152.6 46.9457 152.546 47.2257 152.44 47.2257C152.306 47.2257 152.213 47.0524 152.16 46.7057C152.16 46.5724 152.146 46.4791 152.12 46.4257C152.12 46.3724 152.12 46.3324 152.12 46.3057L152.08 46.7857C152.08 47.2124 152.026 47.5324 151.92 47.7457C151.893 47.8257 151.866 47.8657 151.84 47.8657C151.84 47.8657 151.813 47.7057 151.76 47.3857C151.76 47.0924 151.746 46.9457 151.72 46.9457C151.693 46.9457 151.626 47.4791 151.52 48.5457C151.466 48.9724 151.413 49.3191 151.36 49.5857C151.306 49.8524 151.226 50.0257 151.12 50.1057C151.066 50.1591 151 50.1991 150.92 50.2257C150.84 50.2257 150.786 50.2124 150.76 50.1857H150.72C150.693 50.1857 150.6 50.2657 150.44 50.4257C150.333 50.6124 150.173 50.7057 149.96 50.7057C149.853 50.7057 149.76 50.6524 149.68 50.5457C149.573 50.4391 149.413 50.4257 149.2 50.5057H149.04C148.853 50.5057 148.666 50.4524 148.48 50.3457C148.373 50.2657 148.266 50.2257 148.16 50.2257C148.08 50.1991 148.013 50.2124 147.96 50.2657C147.933 50.2924 147.893 50.3057 147.84 50.3057C147.76 50.3057 147.586 50.1724 147.32 49.9057ZM151.88 41.9057C151.88 41.8791 151.866 41.8524 151.84 41.8257C151.84 41.7991 151.84 41.7857 151.84 41.7857V42.2257C151.84 42.5991 151.853 42.7324 151.88 42.6257C151.906 42.5457 151.92 42.4257 151.92 42.2657C151.92 42.0791 151.906 41.9591 151.88 41.9057ZM151.76 44.3057C151.733 44.6257 151.72 44.8524 151.72 44.9857C151.72 45.0924 151.746 45.0391 151.8 44.8257C151.88 44.1857 151.92 43.7991 151.92 43.6657C151.92 43.3191 151.906 43.1457 151.88 43.1457C151.853 43.1457 151.813 43.5324 151.76 44.3057ZM151.76 49.0657C151.813 48.7991 151.853 48.6657 151.88 48.6657C151.906 48.6657 151.92 48.7991 151.92 49.0657C151.92 49.3057 151.88 49.4257 151.8 49.4257C151.72 49.4257 151.706 49.3057 151.76 49.0657ZM153.12 62.1457C153.226 62.8124 153.28 63.6657 153.28 64.7057C153.28 65.4791 153.24 66.1591 153.16 66.7457C153.08 67.3057 152.986 67.5857 152.88 67.5857C152.72 67.5857 152.64 67.5191 152.64 67.3857C152.64 67.3324 152.613 67.3324 152.56 67.3857C152.533 67.4391 152.506 67.5057 152.48 67.5857C152.426 67.7457 152.386 67.8391 152.36 67.8657C152.333 67.8657 152.293 67.7991 152.24 67.6657C152.213 67.5591 152.173 67.5057 152.12 67.5057C152.093 67.5057 152.04 67.6391 151.96 67.9057C151.8 68.2791 151.6 68.4791 151.36 68.5057C150.933 68.6124 150.266 68.6657 149.36 68.6657C148.986 68.6657 148.733 68.6524 148.6 68.6257C148.44 68.6257 148.053 68.5591 147.44 68.4257L146.8 68.2657L146.88 64.1857C146.96 60.9857 147.026 58.6657 147.08 57.2257C147.133 55.7591 147.2 54.9324 147.28 54.7457L147.36 54.5857C147.386 54.5857 147.413 54.7457 147.44 55.0657C147.44 55.4124 147.453 55.5857 147.48 55.5857C147.506 55.5857 147.56 55.3591 147.64 54.9057C147.666 54.7457 147.76 54.5191 147.92 54.2257C148.106 53.9324 148.28 53.7057 148.44 53.5457C148.626 53.3591 148.72 53.3324 148.72 53.4657C148.72 53.5724 148.96 53.6124 149.44 53.5857C149.626 53.5857 149.8 53.5724 149.96 53.5457C150.12 53.5191 150.2 53.4791 150.2 53.4257C150.2 53.3991 150.213 53.3857 150.24 53.3857C150.293 53.3857 150.4 53.4391 150.56 53.5457C150.72 53.6257 150.84 53.7191 150.92 53.8257C150.946 53.8524 151 53.8657 151.08 53.8657C151.24 53.8657 151.36 53.8391 151.44 53.7857C151.6 53.6791 151.706 53.6391 151.76 53.6657C151.84 53.6657 151.906 53.7324 151.96 53.8657C152.226 54.3191 152.426 54.9457 152.56 55.7457C152.72 56.5457 152.826 57.6524 152.88 59.0657C152.933 60.1857 153.013 61.2124 153.12 62.1457ZM152.44 66.0257C152.493 65.8924 152.493 65.7724 152.44 65.6657C152.413 65.5857 152.4 65.6391 152.4 65.8257C152.4 66.0124 152.413 66.0791 152.44 66.0257ZM152.32 66.9457C152.373 66.7857 152.373 66.6257 152.32 66.4657C152.293 66.3857 152.266 66.3857 152.24 66.4657C152.24 66.5191 152.24 66.5991 152.24 66.7057C152.24 66.8124 152.24 66.9057 152.24 66.9857C152.266 67.0391 152.293 67.0257 152.32 66.9457Z" fill="white"/>
<path d="M171.761 48.3057C171.948 48.4124 172.001 48.5991 171.921 48.8657C171.894 48.9724 171.774 49.1057 171.561 49.2657C171.348 49.4257 170.974 49.6657 170.441 49.9857C169.748 50.3591 168.841 50.7991 167.721 51.3057C166.628 51.7857 166.014 52.0257 165.881 52.0257C165.801 52.0257 165.748 52.5724 165.721 53.6657C165.721 54.7591 165.721 56.7324 165.721 59.5857C165.694 63.7191 165.628 65.8791 165.521 66.0657C165.494 66.1457 165.454 66.1857 165.401 66.1857C165.401 66.1857 165.388 66.1724 165.361 66.1457C165.361 66.1191 165.361 66.0924 165.361 66.0657L165.401 65.6257L165.441 65.1057C165.441 64.8657 165.414 64.6657 165.361 64.5057C165.308 64.3991 165.268 64.3457 165.241 64.3457C165.214 64.3457 165.201 64.5857 165.201 65.0657C165.174 65.5457 165.121 65.9724 165.041 66.3457C164.961 66.6924 164.801 67.0924 164.561 67.5457C164.428 67.8391 164.321 68.0124 164.241 68.0657C164.188 68.0924 164.108 68.0524 164.001 67.9457C163.868 67.8124 163.721 67.7457 163.561 67.7457C163.374 67.7457 163.241 67.8391 163.161 68.0257C163.134 68.1324 163.108 68.1991 163.081 68.2257C163.054 68.2524 163.014 68.2124 162.961 68.1057C162.908 67.9457 162.828 67.8657 162.721 67.8657C162.641 67.8657 162.574 67.9457 162.521 68.1057C162.521 68.1857 162.508 68.2257 162.481 68.2257C162.454 68.2257 162.441 68.1991 162.441 68.1457C162.441 68.0391 162.334 67.9057 162.121 67.7457C161.934 67.6391 161.841 67.4924 161.841 67.3057C161.841 67.1991 161.828 67.1457 161.801 67.1457C161.774 67.1457 161.694 67.2257 161.561 67.3857C161.401 67.5991 161.281 67.7057 161.201 67.7057C161.148 67.7057 161.041 67.5591 160.881 67.2657C160.401 66.3857 160.054 63.2257 159.841 57.7857C159.814 55.9724 159.734 55.0657 159.601 55.0657C159.494 55.0657 158.934 55.2124 157.921 55.5057L156.401 55.9457L156.081 55.5857C155.814 55.3457 155.761 55.2124 155.921 55.1857C156.028 55.1324 155.881 55.1057 155.481 55.1057H155.361C155.094 55.1057 154.868 55.0524 154.681 54.9457C154.521 54.8391 154.441 54.7191 154.441 54.5857C154.441 54.4524 154.361 54.3324 154.201 54.2257C154.041 54.0657 153.894 53.7324 153.761 53.2257C153.681 52.9591 153.614 52.7324 153.561 52.5457C153.481 52.3324 153.428 52.1591 153.401 52.0257C153.321 51.8124 153.281 51.4791 153.281 51.0257L153.321 50.4257L154.641 49.9057L155.721 49.5057C156.868 49.0791 157.494 48.8391 157.601 48.7857L159.281 48.1857L159.241 46.5057C159.214 45.4391 159.254 44.3324 159.361 43.1857C159.468 42.0124 159.588 41.4257 159.721 41.4257C159.854 41.4257 159.948 41.5057 160.001 41.6657C160.001 41.7457 160.014 41.7857 160.041 41.7857C160.068 41.7591 160.081 41.6924 160.081 41.5857C160.081 41.4257 160.121 41.3324 160.201 41.3057C160.308 41.2524 160.374 41.3057 160.401 41.4657C160.401 41.5724 160.468 41.4657 160.601 41.1457C160.734 40.8524 160.921 40.6391 161.161 40.5057C161.348 40.3991 161.908 40.3457 162.841 40.3457C164.014 40.3457 164.774 40.4124 165.121 40.5457C165.334 40.6524 165.508 40.7057 165.641 40.7057C165.721 40.7057 165.761 41.5457 165.761 43.2257C165.761 44.9324 165.801 45.7857 165.881 45.7857C165.934 45.7857 166.454 45.6124 167.441 45.2657C168.428 44.9191 169.081 44.7457 169.401 44.7457L169.921 44.7857L169.361 44.9857C169.201 45.0124 168.974 45.1057 168.681 45.2657C168.654 45.3457 168.721 45.3591 168.881 45.3057C169.174 45.1724 169.468 45.1057 169.761 45.1057C170.001 45.1057 170.281 45.1591 170.601 45.2657C170.974 45.3724 171.201 45.4657 171.281 45.5457C171.361 45.5991 171.374 45.7191 171.321 45.9057V46.0657C171.321 46.2524 171.374 46.3991 171.481 46.5057C171.641 46.6124 171.721 46.7591 171.721 46.9457C171.721 47.1057 171.761 47.1724 171.841 47.1457C171.894 47.0924 171.921 47.1324 171.921 47.2657C171.921 47.4524 171.841 47.6791 171.681 47.9457C171.548 48.0791 171.574 48.1991 171.761 48.3057ZM160.481 41.0657C160.454 41.0924 160.428 41.0924 160.401 41.0657C160.401 41.0391 160.401 40.9857 160.401 40.9057C160.401 40.7191 160.428 40.6791 160.481 40.7857C160.534 40.9191 160.534 41.0124 160.481 41.0657ZM160.241 43.3057C160.321 42.9057 160.361 42.6657 160.361 42.5857C160.361 42.4257 160.348 42.3457 160.321 42.3457L160.241 42.6657C160.161 42.8524 160.121 43.0924 160.121 43.3857C160.121 43.5991 160.161 43.5724 160.241 43.3057ZM157.761 54.7057H157.721L157.401 54.7457C157.001 54.7991 156.734 54.8657 156.601 54.9457L156.561 54.9857L156.641 55.0257C156.774 55.0257 157.094 54.9324 157.601 54.7457L157.761 54.7057Z" fill="white"/>
</g>
</g>
<defs>
<filter id="filter0_d_26_364" x="-4" y="6" width="282" height="132" filterUnits="userSpaceOnUse" color-interpolation-filters="sRGB">
<feFlood flood-opacity="0" result="BackgroundImageFix"/>
<feColorMatrix in="SourceAlpha" type="matrix" values="0 0 0 0 0 0 0 0 0 0 0 0 0 0 0 0 0 0 127 0" result="hardAlpha"/>
<feOffset dy="4"/>
<feGaussianBlur stdDeviation="2"/>
<feComposite in2="hardAlpha" operator="out"/>
<feColorMatrix type="matrix" values="0 0 0 0 0 0 0 0 0 0 0 0 0 0 0 0 0 0 0.25 0"/>
<feBlend mode="normal" in2="BackgroundImageFix" result="effect1_dropShadow_26_364"/>
<feBlend mode="normal" in="SourceGraphic" in2="effect1_dropShadow_26_364" result="shape"/>
</filter>
<clipPath id="clip0_26_364">
<rect width="274" height="130" fill="white"/>
</clipPath>
</defs>
</svg>
