<svg width="274" height="130" viewBox="0 0 274 130" fill="none" xmlns="http://www.w3.org/2000/svg">
<path fill-rule="evenodd" clip-rule="evenodd" d="M15.2137 29.8836H258.788C267.073 29.8836 274 36.61 274 44.977V114.759C274 123.127 267.073 130 258.788 130H15.2137C6.92744 130 0 123.127 0 114.759V44.977C0 36.61 6.92744 29.8836 15.2137 29.8836Z" fill="#1C1C1C"/>
<path fill-rule="evenodd" clip-rule="evenodd" d="M14.61 28.9874H259.389C267.522 28.9874 273.998 35.4121 273.998 43.3318V110.126C273.998 118.194 267.522 124.619 259.389 124.619H14.61C6.62631 124.619 0 118.194 0 110.126V43.3318C0 35.4121 6.62631 28.9874 14.61 28.9874Z" fill="#353535"/>
<path fill-rule="evenodd" clip-rule="evenodd" d="M15.2137 21.5165H258.788C267.073 21.5165 274 28.39 274 36.6099V106.541C274 114.911 267.073 121.633 258.788 121.633H15.2137C6.92744 121.633 0 114.91 0 106.541V36.6099C0 28.39 6.92744 21.5165 15.2137 21.5165Z" fill="#1C1C1C"/>
<path fill-rule="evenodd" clip-rule="evenodd" d="M23.9493 12.1032H248.092C255.926 12.1032 262.251 18.3793 262.251 26.0003V90.5515C262.251 98.1725 255.925 104.449 248.092 104.449H23.9493C16.2698 104.449 9.94312 98.1725 9.94312 90.5515V26.0003C9.94312 18.3793 16.2698 12.1032 23.9493 12.1032Z" fill="#19CFD8"/>
<path fill-rule="evenodd" clip-rule="evenodd" d="M23.9493 2.68846H248.092C255.926 2.68846 262.251 8.96599 262.251 16.587V81.1397C262.251 88.7577 255.925 95.0352 248.092 95.0352H23.9493C16.2698 95.0352 9.94312 88.7577 9.94312 81.1397V16.587C9.94312 8.96599 16.2698 2.68846 23.9493 2.68846Z" fill="#48F6FF"/>
<path fill-rule="evenodd" clip-rule="evenodd" d="M23.9493 -1.14441e-05H248.092C255.926 -1.14441e-05 262.251 6.27603 262.251 13.8955V78.4497C262.251 86.0677 255.925 92.3468 248.092 92.3468H23.9493C16.2698 92.3468 9.94312 86.0677 9.94312 78.4497V13.8955C9.94312 6.27603 16.2698 -1.14441e-05 23.9493 -1.14441e-05Z" fill="#18EBFF"/>
<path d="M94.7765 62.6914C93.6831 62.6914 92.9898 62.6381 92.6965 62.5314L92.0965 62.3314L93.9765 62.4514L93.2165 62.2514C92.7631 62.1447 92.3898 62.0247 92.0965 61.8914C91.8298 61.7314 91.5498 61.5314 91.2565 61.2914C91.0698 61.1314 90.9765 61.0114 90.9765 60.9314C90.9765 60.8781 91.0165 60.8114 91.0965 60.7314C91.2298 60.5981 91.2965 60.4647 91.2965 60.3314C91.2965 60.1981 91.2165 60.0781 91.0565 59.9714C90.8965 59.8914 90.8698 59.8514 90.9765 59.8514C91.0831 59.8514 91.1365 59.7847 91.1365 59.6514C91.1631 59.4914 91.1231 59.4114 91.0165 59.4114C90.9365 59.4114 91.0165 59.2914 91.2565 59.0514C91.5231 58.7847 91.6831 58.6514 91.7365 58.6514C91.8431 58.6514 91.8831 58.6114 91.8565 58.5314C91.8298 58.4247 91.7498 58.3314 91.6165 58.2514C91.5098 58.1714 91.4565 58.1181 91.4565 58.0914C91.4831 58.0381 91.5765 57.9447 91.7365 57.8114C91.9498 57.6247 92.6031 57.4781 93.6965 57.3714C95.2431 57.1847 96.4831 56.9181 97.4165 56.5714C98.3498 56.2247 99.1631 55.7314 99.8565 55.0914C100.336 54.6647 100.696 54.2514 100.936 53.8514C101.203 53.4514 101.336 53.1181 101.336 52.8514C101.336 52.5847 101.203 52.4114 100.936 52.3314C99.3631 51.9847 97.8831 51.3581 96.4965 50.4514C95.1365 49.5447 94.0698 48.4914 93.2965 47.2914C92.6298 46.2781 92.0565 45.1981 91.5765 44.0514C91.1231 42.8781 90.8431 41.8247 90.7365 40.8914C90.6565 40.3581 90.6165 39.8914 90.6165 39.4914C90.6165 39.0647 90.6565 38.4914 90.7365 37.7714C90.8431 36.5447 90.9365 35.9047 91.0165 35.8514C91.1231 35.7447 91.2165 35.5581 91.2965 35.2914C91.4031 35.0781 91.5098 34.9447 91.6165 34.8914C91.7231 34.8381 92.0031 34.8114 92.4565 34.8114C92.6431 34.7847 92.9498 34.7714 93.3765 34.7714C93.8031 34.7714 94.0831 34.7847 94.2165 34.8114L99.7365 34.8914C101.843 34.9447 103.47 34.9847 104.616 35.0114C105.763 35.0381 106.496 35.0647 106.816 35.0914C107.163 35.1181 107.376 35.1714 107.456 35.2514C107.536 35.3314 107.55 35.3714 107.496 35.3714C107.47 35.3714 107.39 35.3581 107.256 35.3314C106.936 35.2781 106.723 35.3047 106.616 35.4114C106.51 35.4647 106.47 35.5047 106.496 35.5314C106.55 35.5581 106.656 35.5714 106.816 35.5714C107.35 35.5714 107.83 35.7714 108.256 36.1714C108.416 36.3314 108.496 36.5314 108.496 36.7714V37.0114L108.456 37.3714C108.456 37.5314 108.483 37.6114 108.536 37.6114C108.67 37.6114 108.696 37.7981 108.616 38.1714C108.536 38.5447 108.416 38.7981 108.256 38.9314C108.176 38.9847 108.203 39.1181 108.336 39.3314C108.603 39.7581 108.216 40.0914 107.176 40.3314C106.136 40.5714 104.136 40.7714 101.176 40.9314C99.4965 41.0114 98.4165 41.1181 97.9365 41.2514C97.7765 41.2781 97.6565 41.3181 97.5765 41.3714C97.4965 41.3981 97.4565 41.4647 97.4565 41.5714C97.4565 41.6781 97.4698 41.7714 97.4965 41.8514C97.5498 42.0914 97.7231 42.5981 98.0165 43.3714C98.6031 44.7847 99.7231 45.8114 101.376 46.4514C101.936 46.6914 102.376 46.8381 102.696 46.8914C103.016 46.9181 103.75 46.9447 104.896 46.9714C106.47 47.0247 107.363 47.0914 107.576 47.1714C107.79 47.2514 107.963 47.2914 108.096 47.2914C108.256 47.2381 108.336 47.8914 108.336 49.2514C108.336 49.9714 108.323 50.5314 108.296 50.9314C108.163 52.7981 107.696 54.4647 106.896 55.9314C106.123 57.3981 104.99 58.7047 103.496 59.8514C102.963 60.2781 102.15 60.7714 101.056 61.3314C99.9631 61.8647 99.1098 62.2114 98.4965 62.3714C98.1498 62.4781 97.6165 62.5581 96.8965 62.6114C96.2031 62.6647 95.4965 62.6914 94.7765 62.6914Z" fill="#00BBC4"/>
<path d="M127.154 42.7314C127.341 42.8381 127.394 43.0247 127.314 43.2914C127.288 43.3981 127.168 43.5314 126.954 43.6914C126.741 43.8514 126.368 44.0914 125.834 44.4114C125.141 44.7847 124.234 45.2247 123.114 45.7314C122.021 46.2114 121.408 46.4514 121.274 46.4514C121.194 46.4514 121.141 46.9981 121.114 48.0914C121.114 49.1847 121.114 51.1581 121.114 54.0114C121.088 58.1447 121.021 60.3047 120.914 60.4914C120.888 60.5714 120.848 60.6114 120.794 60.6114C120.794 60.6114 120.781 60.5981 120.754 60.5714C120.754 60.5447 120.754 60.5181 120.754 60.4914L120.794 60.0514L120.834 59.5314C120.834 59.2914 120.808 59.0914 120.754 58.9314C120.701 58.8247 120.661 58.7714 120.634 58.7714C120.608 58.7714 120.594 59.0114 120.594 59.4914C120.568 59.9714 120.514 60.3981 120.434 60.7714C120.354 61.1181 120.194 61.5181 119.954 61.9714C119.821 62.2647 119.714 62.4381 119.634 62.4914C119.581 62.5181 119.501 62.4781 119.394 62.3714C119.261 62.2381 119.114 62.1714 118.954 62.1714C118.768 62.1714 118.634 62.2647 118.554 62.4514C118.528 62.5581 118.501 62.6247 118.474 62.6514C118.448 62.6781 118.408 62.6381 118.354 62.5314C118.301 62.3714 118.221 62.2914 118.114 62.2914C118.034 62.2914 117.968 62.3714 117.914 62.5314C117.914 62.6114 117.901 62.6514 117.874 62.6514C117.848 62.6514 117.834 62.6247 117.834 62.5714C117.834 62.4647 117.728 62.3314 117.514 62.1714C117.328 62.0647 117.234 61.9181 117.234 61.7314C117.234 61.6247 117.221 61.5714 117.194 61.5714C117.168 61.5714 117.088 61.6514 116.954 61.8114C116.794 62.0247 116.674 62.1314 116.594 62.1314C116.541 62.1314 116.434 61.9847 116.274 61.6914C115.794 60.8114 115.448 57.6514 115.234 52.2114C115.208 50.3981 115.128 49.4914 114.994 49.4914C114.888 49.4914 114.328 49.6381 113.314 49.9314L111.794 50.3714L111.474 50.0114C111.208 49.7714 111.154 49.6381 111.314 49.6114C111.421 49.5581 111.274 49.5314 110.874 49.5314H110.754C110.488 49.5314 110.261 49.4781 110.074 49.3714C109.914 49.2647 109.834 49.1447 109.834 49.0114C109.834 48.8781 109.754 48.7581 109.594 48.6514C109.434 48.4914 109.288 48.1581 109.154 47.6514C109.074 47.3847 109.008 47.1581 108.954 46.9714C108.874 46.7581 108.821 46.5847 108.794 46.4514C108.714 46.2381 108.674 45.9047 108.674 45.4514L108.714 44.8514L110.034 44.3314L111.114 43.9314C112.261 43.5047 112.888 43.2647 112.994 43.2114L114.674 42.6114L114.634 40.9314C114.608 39.8647 114.648 38.7581 114.754 37.6114C114.861 36.4381 114.981 35.8514 115.114 35.8514C115.248 35.8514 115.341 35.9314 115.394 36.0914C115.394 36.1714 115.408 36.2114 115.434 36.2114C115.461 36.1847 115.474 36.1181 115.474 36.0114C115.474 35.8514 115.514 35.7581 115.594 35.7314C115.701 35.6781 115.768 35.7314 115.794 35.8914C115.794 35.9981 115.861 35.8914 115.994 35.5714C116.128 35.2781 116.314 35.0647 116.554 34.9314C116.741 34.8247 117.301 34.7714 118.234 34.7714C119.408 34.7714 120.168 34.8381 120.514 34.9714C120.728 35.0781 120.901 35.1314 121.034 35.1314C121.114 35.1314 121.154 35.9714 121.154 37.6514C121.154 39.3581 121.194 40.2114 121.274 40.2114C121.328 40.2114 121.848 40.0381 122.834 39.6914C123.821 39.3447 124.474 39.1714 124.794 39.1714L125.314 39.2114L124.754 39.4114C124.594 39.4381 124.368 39.5314 124.074 39.6914C124.048 39.7714 124.114 39.7847 124.274 39.7314C124.568 39.5981 124.861 39.5314 125.154 39.5314C125.394 39.5314 125.674 39.5847 125.994 39.6914C126.368 39.7981 126.594 39.8914 126.674 39.9714C126.754 40.0247 126.768 40.1447 126.714 40.3314V40.4914C126.714 40.6781 126.768 40.8247 126.874 40.9314C127.034 41.0381 127.114 41.1847 127.114 41.3714C127.114 41.5314 127.154 41.5981 127.234 41.5714C127.288 41.5181 127.314 41.5581 127.314 41.6914C127.314 41.8781 127.234 42.1047 127.074 42.3714C126.941 42.5047 126.968 42.6247 127.154 42.7314ZM115.874 35.4914C115.848 35.5181 115.821 35.5181 115.794 35.4914C115.794 35.4647 115.794 35.4114 115.794 35.3314C115.794 35.1447 115.821 35.1047 115.874 35.2114C115.928 35.3447 115.928 35.4381 115.874 35.4914ZM115.634 37.7314C115.714 37.3314 115.754 37.0914 115.754 37.0114C115.754 36.8514 115.741 36.7714 115.714 36.7714L115.634 37.0914C115.554 37.2781 115.514 37.5181 115.514 37.8114C115.514 38.0247 115.554 37.9981 115.634 37.7314ZM113.154 49.1314H113.114L112.794 49.1714C112.394 49.2247 112.128 49.2914 111.994 49.3714L111.954 49.4114L112.034 49.4514C112.168 49.4514 112.488 49.3581 112.994 49.1714L113.154 49.1314Z" fill="#00BBC4"/>
<path d="M144.666 59.4114C144.719 60.1047 144.706 60.4514 144.626 60.4514C144.573 60.4514 144.533 60.3047 144.506 60.0114C144.479 59.7714 144.439 59.5714 144.386 59.4114C144.333 59.2514 144.293 59.1581 144.266 59.1314C144.239 59.1047 144.239 59.1847 144.266 59.3714L144.306 60.0914C144.306 60.8114 144.253 61.4647 144.146 62.0514C144.039 62.6381 143.933 62.8381 143.826 62.6514C143.799 62.5981 143.733 62.5447 143.626 62.4914C143.546 62.4381 143.453 62.4114 143.346 62.4114C143.213 62.4114 143.119 62.4247 143.066 62.4514C143.013 62.4781 142.973 62.5447 142.946 62.6514C142.919 62.7847 142.879 62.8514 142.826 62.8514C142.799 62.8781 142.733 62.8647 142.626 62.8114C142.519 62.7847 142.439 62.7714 142.386 62.7714C142.359 62.7981 142.359 62.8781 142.386 63.0114C142.386 63.1714 142.359 63.1981 142.306 63.0914C142.199 62.9314 142.066 62.8514 141.906 62.8514C141.719 62.7981 141.573 62.6647 141.466 62.4514L141.306 62.0914L141.106 62.5714C141.026 62.7847 140.973 62.9047 140.946 62.9314C140.919 62.9581 140.853 62.9181 140.746 62.8114L140.306 62.4114C140.119 62.2247 139.906 61.2114 139.666 59.3714C139.426 57.5047 139.266 56.2381 139.186 55.5714H134.786L134.666 57.9314C134.613 59.4247 134.533 60.3981 134.426 60.8514L134.306 61.4514V60.7714C134.359 59.9447 134.346 59.5314 134.266 59.5314C134.213 59.5314 134.173 59.7447 134.146 60.1714C134.119 60.5714 134.026 61.0247 133.866 61.5314C133.706 62.0114 133.533 62.3981 133.346 62.6914C133.159 62.9581 133.026 63.0381 132.946 62.9314C132.839 62.7447 132.679 62.6514 132.466 62.6514C132.306 62.6514 132.159 62.7581 132.026 62.9714C131.973 63.0781 131.919 63.1447 131.866 63.1714C131.839 63.1981 131.826 63.1581 131.826 63.0514C131.826 62.8914 131.746 62.8247 131.586 62.8514H131.466C131.199 62.8514 130.946 62.6247 130.706 62.1714C130.626 62.0381 130.573 61.9714 130.546 61.9714C130.546 61.9714 130.479 62.0781 130.346 62.2914C130.266 62.4781 130.186 62.5714 130.106 62.5714C130.026 62.5714 129.906 62.3981 129.746 62.0514C129.506 61.5181 129.306 60.2514 129.146 58.2514C129.013 56.2514 128.933 53.8381 128.906 51.0114C128.906 49.0914 128.853 47.0647 128.746 44.9314C128.639 43.1981 128.586 41.6914 128.586 40.4114C128.586 39.2381 128.639 38.2381 128.746 37.4114C128.879 36.4247 129.013 35.9314 129.146 35.9314C129.279 35.9314 129.346 36.0247 129.346 36.2114C129.373 36.3447 129.426 36.3047 129.506 36.0914C129.613 35.8247 129.706 35.7714 129.786 35.9314C129.839 36.0114 129.879 36.0381 129.906 36.0114C129.959 35.9581 129.999 35.8781 130.026 35.7714C130.079 35.5047 130.173 35.3181 130.306 35.2114C130.439 35.1047 130.679 35.0381 131.026 35.0114C131.506 34.9581 133.573 34.9047 137.226 34.8514L141.186 34.7714C142.306 34.7714 142.906 34.8381 142.986 34.9714C143.146 35.1314 143.359 35.2381 143.626 35.2914L144.066 35.3714L143.986 37.6514C143.906 38.9314 143.866 41.5181 143.866 45.4114C143.866 47.9447 144.066 51.6514 144.466 56.5314C144.599 58.0781 144.666 59.0381 144.666 59.4114ZM129.866 35.6114C129.813 35.6647 129.786 35.5981 129.786 35.4114C129.786 35.3581 129.799 35.3181 129.826 35.2914C129.853 35.2647 129.879 35.2781 129.906 35.3314C129.959 35.4914 129.946 35.5847 129.866 35.6114ZM135.786 40.3314C135.759 40.3314 135.733 40.3447 135.706 40.3714C135.679 40.3714 135.666 40.3714 135.666 40.3714C135.693 40.3714 135.759 40.3847 135.866 40.4114C135.999 40.4114 136.159 40.4114 136.346 40.4114C136.586 40.4114 136.773 40.4114 136.906 40.4114C137.039 40.3847 137.026 40.3581 136.866 40.3314C136.786 40.3047 136.613 40.2914 136.346 40.2914C136.079 40.2914 135.893 40.3047 135.786 40.3314ZM136.386 49.2114L137.906 49.1314L137.866 48.7714C137.813 48.3981 137.759 47.6514 137.706 46.5314C137.679 45.6514 137.599 44.4647 137.466 42.9714L137.306 41.1714H136.226C135.533 41.1714 135.159 41.2114 135.106 41.2914C135.053 41.3447 134.999 42.6914 134.946 45.3314L134.826 49.2514L136.386 49.2114ZM134.866 54.5714C134.813 54.5981 134.799 54.6247 134.826 54.6514C134.853 54.6781 134.893 54.6914 134.946 54.6914C135.133 54.6914 135.199 54.6647 135.146 54.6114C135.039 54.5581 134.946 54.5447 134.866 54.5714ZM137.066 54.6514C137.146 54.6514 137.199 54.6514 137.226 54.6514C137.279 54.6247 137.279 54.5981 137.226 54.5714H136.866C136.813 54.5981 136.813 54.6247 136.866 54.6514C136.919 54.6514 136.986 54.6514 137.066 54.6514ZM138.226 54.8114C138.386 54.8114 138.506 54.8114 138.586 54.8114C138.666 54.7847 138.653 54.7581 138.546 54.7314C138.493 54.7047 138.386 54.6914 138.226 54.6914C138.066 54.6914 137.959 54.7047 137.906 54.7314L137.826 54.7714C137.826 54.7981 137.959 54.8114 138.226 54.8114ZM135.106 55.0914C135.213 55.0914 135.293 55.0914 135.346 55.0914C135.399 55.0647 135.399 55.0381 135.346 55.0114C135.239 54.9581 135.093 54.9581 134.906 55.0114C134.853 55.0381 134.839 55.0647 134.866 55.0914C134.919 55.0914 134.999 55.0914 135.106 55.0914Z" fill="#00BBC4"/>
<path d="M164.44 36.2114C164.547 36.9314 164.6 37.7847 164.6 38.7714C164.6 40.7981 164.387 42.6247 163.96 44.2514C163.827 44.7047 163.627 45.2781 163.36 45.9714C163.093 46.6647 162.84 47.2247 162.6 47.6514C162.413 48.0247 162.027 48.5581 161.44 49.2514C160.853 49.9181 160.427 50.3181 160.16 50.4514C160.053 50.5047 159.987 50.5181 159.96 50.4914C159.96 50.4647 160 50.4114 160.08 50.3314C160.32 50.0381 160.44 49.8647 160.44 49.8114C160.44 49.7581 160.333 49.8114 160.12 49.9714C159.773 50.1847 159.413 50.3181 159.04 50.3714C158.933 50.3981 158.813 50.4114 158.68 50.4114C158.573 50.4114 158.493 50.3981 158.44 50.3714C158.387 50.3181 158.333 50.2247 158.28 50.0914C158.173 49.8781 158.027 49.7447 157.84 49.6914C157.653 49.6914 157.507 49.6114 157.4 49.4514C157.373 49.3981 157.333 49.3581 157.28 49.3314C157.253 49.3047 157.227 49.3047 157.2 49.3314H157.16C157.08 49.3314 157 49.2381 156.92 49.0514C156.867 48.8647 156.853 48.7047 156.88 48.5714C156.88 48.4381 156.787 48.3714 156.6 48.3714C156.28 48.3714 156.12 48.2114 156.12 47.8914C156.12 47.5981 156.24 47.2381 156.48 46.8114L157.4 45.0514C157.613 44.5981 157.813 44.0514 158 43.4114C158.187 42.7714 158.24 42.4114 158.16 42.3314C158.107 42.2781 157.467 42.5447 156.24 43.1314C155.013 43.6914 154.213 44.0914 153.84 44.3314C153.413 44.5714 153.2 44.7847 153.2 44.9714L153 49.5314C152.76 54.4647 152.32 58.1181 151.68 60.4914C151.52 61.0781 151.413 61.3714 151.36 61.3714C151.36 61.3714 151.347 61.3581 151.32 61.3314C151.32 61.3047 151.32 61.2781 151.32 61.2514C151.32 61.0914 151.36 60.8381 151.44 60.4914C151.547 59.9047 151.6 59.5581 151.6 59.4514V59.3714C151.547 59.3714 151.48 59.5714 151.4 59.9714C151.213 60.8781 150.773 61.7847 150.08 62.6914C149.92 62.8781 149.8 62.9981 149.72 63.0514C149.64 63.1047 149.6 63.0647 149.6 62.9314C149.6 62.7181 149.507 62.5714 149.32 62.4914L149.12 62.4114C149.013 62.4114 148.92 62.4781 148.84 62.6114C148.707 62.8781 148.613 62.9047 148.56 62.6914C148.507 62.5581 148.427 62.4914 148.32 62.4914C148.24 62.4914 148.173 62.5714 148.12 62.7314C148.12 62.8114 148.107 62.8381 148.08 62.8114C148.053 62.8114 148.04 62.7581 148.04 62.6514C148.04 62.5714 148.013 62.4914 147.96 62.4114C147.907 62.3314 147.853 62.2781 147.8 62.2514C147.64 62.1447 147.56 61.9847 147.56 61.7714V61.4114L147.2 61.7314C147.04 61.8914 146.933 61.9847 146.88 62.0114C146.853 62.0114 146.813 61.9447 146.76 61.8114C146.707 61.5981 146.64 61.4114 146.56 61.2514C146.533 61.1981 146.52 61.0514 146.52 60.8114C146.52 60.1181 146.653 57.9047 146.92 54.1714C147.053 51.8514 147.12 49.8381 147.12 48.1314L147.08 45.8514L146.64 45.8914H146.48C146.347 45.8914 146.227 45.8514 146.12 45.7714C146.04 45.6914 145.907 45.5047 145.72 45.2114C145.4 44.6781 145.24 44.3581 145.24 44.2514C145.24 44.0914 145.2 43.9981 145.12 43.9714C145.04 43.8914 144.933 43.5981 144.8 43.0914C144.693 42.5581 144.64 42.1447 144.64 41.8514V41.6514C144.64 41.4914 144.68 41.3714 144.76 41.2914C144.867 41.2114 145.12 41.0781 145.52 40.8914L146.44 40.4514V38.0114C146.413 36.9714 146.413 36.3047 146.44 36.0114C146.467 35.7181 146.533 35.5714 146.64 35.5714C146.747 35.5714 146.827 35.6381 146.88 35.7714C146.88 35.8247 146.893 35.8247 146.92 35.7714C146.973 35.7181 147.013 35.6514 147.04 35.5714C147.093 35.4114 147.133 35.3314 147.16 35.3314C147.187 35.3314 147.227 35.3981 147.28 35.5314C147.28 35.5581 147.28 35.5847 147.28 35.6114C147.307 35.6381 147.32 35.6514 147.32 35.6514C147.347 35.6514 147.413 35.5047 147.52 35.2114C147.573 34.9714 147.64 34.8114 147.72 34.7314C147.827 34.6247 148 34.5314 148.24 34.4514C148.853 34.2647 149.68 34.1714 150.72 34.1714C151.28 34.1714 151.707 34.2114 152 34.2914L152.64 34.4514L152.72 35.4114L152.8 37.1314C152.8 37.6647 152.867 37.9314 153 37.9314C153.267 37.9314 154.6 37.4114 157 36.3714C157.8 36.0514 158.373 35.8114 158.72 35.6514C159.093 35.4647 159.347 35.3047 159.48 35.1714C159.587 35.0647 159.733 35.0114 159.92 35.0114C160.08 35.0114 160.213 34.9581 160.32 34.8514C160.48 34.6914 161.053 34.6114 162.04 34.6114C162.84 34.6114 163.4 34.6781 163.72 34.8114C163.987 34.9447 164.147 35.0647 164.2 35.1714C164.253 35.2781 164.333 35.6247 164.44 36.2114ZM147.24 37.3714C147.293 37.1314 147.293 36.9181 147.24 36.7314L147.2 36.6514V37.0514C147.2 37.3714 147.213 37.4781 147.24 37.3714Z" fill="#00BBC4"/>
<path d="M182.701 42.7314C182.888 42.8381 182.941 43.0247 182.861 43.2914C182.834 43.3981 182.714 43.5314 182.501 43.6914C182.288 43.8514 181.914 44.0914 181.381 44.4114C180.688 44.7847 179.781 45.2247 178.661 45.7314C177.568 46.2114 176.954 46.4514 176.821 46.4514C176.741 46.4514 176.688 46.9981 176.661 48.0914C176.661 49.1847 176.661 51.1581 176.661 54.0114C176.634 58.1447 176.568 60.3047 176.461 60.4914C176.434 60.5714 176.394 60.6114 176.341 60.6114C176.341 60.6114 176.328 60.5981 176.301 60.5714C176.301 60.5447 176.301 60.5181 176.301 60.4914L176.341 60.0514L176.381 59.5314C176.381 59.2914 176.354 59.0914 176.301 58.9314C176.248 58.8247 176.208 58.7714 176.181 58.7714C176.154 58.7714 176.141 59.0114 176.141 59.4914C176.114 59.9714 176.061 60.3981 175.981 60.7714C175.901 61.1181 175.741 61.5181 175.501 61.9714C175.368 62.2647 175.261 62.4381 175.181 62.4914C175.128 62.5181 175.048 62.4781 174.941 62.3714C174.808 62.2381 174.661 62.1714 174.501 62.1714C174.314 62.1714 174.181 62.2647 174.101 62.4514C174.074 62.5581 174.048 62.6247 174.021 62.6514C173.994 62.6781 173.954 62.6381 173.901 62.5314C173.848 62.3714 173.768 62.2914 173.661 62.2914C173.581 62.2914 173.514 62.3714 173.461 62.5314C173.461 62.6114 173.448 62.6514 173.421 62.6514C173.394 62.6514 173.381 62.6247 173.381 62.5714C173.381 62.4647 173.274 62.3314 173.061 62.1714C172.874 62.0647 172.781 61.9181 172.781 61.7314C172.781 61.6247 172.768 61.5714 172.741 61.5714C172.714 61.5714 172.634 61.6514 172.501 61.8114C172.341 62.0247 172.221 62.1314 172.141 62.1314C172.088 62.1314 171.981 61.9847 171.821 61.6914C171.341 60.8114 170.994 57.6514 170.781 52.2114C170.754 50.3981 170.674 49.4914 170.541 49.4914C170.434 49.4914 169.874 49.6381 168.861 49.9314L167.341 50.3714L167.021 50.0114C166.754 49.7714 166.701 49.6381 166.861 49.6114C166.968 49.5581 166.821 49.5314 166.421 49.5314H166.301C166.034 49.5314 165.808 49.4781 165.621 49.3714C165.461 49.2647 165.381 49.1447 165.381 49.0114C165.381 48.8781 165.301 48.7581 165.141 48.6514C164.981 48.4914 164.834 48.1581 164.701 47.6514C164.621 47.3847 164.554 47.1581 164.501 46.9714C164.421 46.7581 164.368 46.5847 164.341 46.4514C164.261 46.2381 164.221 45.9047 164.221 45.4514L164.261 44.8514L165.581 44.3314L166.661 43.9314C167.808 43.5047 168.434 43.2647 168.541 43.2114L170.221 42.6114L170.181 40.9314C170.154 39.8647 170.194 38.7581 170.301 37.6114C170.408 36.4381 170.528 35.8514 170.661 35.8514C170.794 35.8514 170.888 35.9314 170.941 36.0914C170.941 36.1714 170.954 36.2114 170.981 36.2114C171.008 36.1847 171.021 36.1181 171.021 36.0114C171.021 35.8514 171.061 35.7581 171.141 35.7314C171.248 35.6781 171.314 35.7314 171.341 35.8914C171.341 35.9981 171.408 35.8914 171.541 35.5714C171.674 35.2781 171.861 35.0647 172.101 34.9314C172.288 34.8247 172.848 34.7714 173.781 34.7714C174.954 34.7714 175.714 34.8381 176.061 34.9714C176.274 35.0781 176.448 35.1314 176.581 35.1314C176.661 35.1314 176.701 35.9714 176.701 37.6514C176.701 39.3581 176.741 40.2114 176.821 40.2114C176.874 40.2114 177.394 40.0381 178.381 39.6914C179.368 39.3447 180.021 39.1714 180.341 39.1714L180.861 39.2114L180.301 39.4114C180.141 39.4381 179.914 39.5314 179.621 39.6914C179.594 39.7714 179.661 39.7847 179.821 39.7314C180.114 39.5981 180.408 39.5314 180.701 39.5314C180.941 39.5314 181.221 39.5847 181.541 39.6914C181.914 39.7981 182.141 39.8914 182.221 39.9714C182.301 40.0247 182.314 40.1447 182.261 40.3314V40.4914C182.261 40.6781 182.314 40.8247 182.421 40.9314C182.581 41.0381 182.661 41.1847 182.661 41.3714C182.661 41.5314 182.701 41.5981 182.781 41.5714C182.834 41.5181 182.861 41.5581 182.861 41.6914C182.861 41.8781 182.781 42.1047 182.621 42.3714C182.488 42.5047 182.514 42.6247 182.701 42.7314ZM171.421 35.4914C171.394 35.5181 171.368 35.5181 171.341 35.4914C171.341 35.4647 171.341 35.4114 171.341 35.3314C171.341 35.1447 171.368 35.1047 171.421 35.2114C171.474 35.3447 171.474 35.4381 171.421 35.4914ZM171.181 37.7314C171.261 37.3314 171.301 37.0914 171.301 37.0114C171.301 36.8514 171.288 36.7714 171.261 36.7714L171.181 37.0914C171.101 37.2781 171.061 37.5181 171.061 37.8114C171.061 38.0247 171.101 37.9981 171.181 37.7314ZM168.701 49.1314H168.661L168.341 49.1714C167.941 49.2247 167.674 49.2914 167.541 49.3714L167.501 49.4114L167.581 49.4514C167.714 49.4514 168.034 49.3581 168.541 49.1714L168.701 49.1314Z" fill="#00BBC4"/>
</svg>
