<svg width="274" height="130" viewBox="0 0 274 130" fill="none" xmlns="http://www.w3.org/2000/svg">
<g clip-path="url(#clip0_26_363)">
<g filter="url(#filter0_d_26_363)">
<path fill-rule="evenodd" clip-rule="evenodd" d="M15.2137 29.9492H258.788C267.073 29.9492 274 36.6712 274 45.0327V114.77C274 123.131 267.073 130 258.788 130H15.2137C6.92744 130 0 123.131 0 114.77V45.0327C0 36.6712 6.92744 29.9492 15.2137 29.9492Z" fill="#1C1C1C"/>
<path fill-rule="evenodd" clip-rule="evenodd" d="M14.61 29.0551H259.389C267.522 29.0551 273.998 35.4756 273.998 43.3901V110.14C273.998 118.203 267.522 124.624 259.389 124.624H14.61C6.62631 124.624 0 118.203 0 110.14V43.3901C0 35.4756 6.62631 29.0551 14.61 29.0551Z" fill="#353535"/>
<path fill-rule="evenodd" clip-rule="evenodd" d="M15.2137 21.5876H258.788C267.073 21.5876 274 28.4565 274 36.6711V106.556C274 114.921 267.073 121.638 258.788 121.638H15.2137C6.92744 121.638 0 114.919 0 106.556V36.6711C0 28.4565 6.92744 21.5876 15.2137 21.5876Z" fill="#1C1C1C"/>
<path fill-rule="evenodd" clip-rule="evenodd" d="M23.9493 18.0953H248.092C255.926 18.0953 262.251 23.9652 262.251 31.0937V91.4684C262.251 98.5968 255.925 104.467 248.092 104.467H23.9493C16.2698 104.467 9.94312 98.5968 9.94312 91.4684V31.0937C9.94312 23.9652 16.2698 18.0953 23.9493 18.0953Z" fill="#19CFD8"/>
<path fill-rule="evenodd" clip-rule="evenodd" d="M23.9493 8.68665H248.092C255.926 8.68665 262.251 14.9601 262.251 22.5761V87.0865C262.251 94.6995 255.925 100.973 248.092 100.973H23.9493C16.2698 100.973 9.94312 94.6995 9.94312 87.0865V22.5761C9.94312 14.9601 16.2698 8.68665 23.9493 8.68665Z" fill="#48F6FF"/>
<path fill-rule="evenodd" clip-rule="evenodd" d="M23.9493 6.00003H248.092C255.926 6.00003 262.251 12.272 262.251 19.8865V84.3984C262.251 92.0114 255.925 98.2864 248.092 98.2864H23.9493C16.2698 98.2864 9.94312 92.0114 9.94312 84.3984V19.8865C9.94312 12.272 16.2698 6.00003 23.9493 6.00003Z" fill="#18EBFF"/>
<path d="M94.7765 68.2657C93.6831 68.2657 92.9898 68.2124 92.6965 68.1057L92.0965 67.9057L93.9765 68.0257L93.2165 67.8257C92.7631 67.7191 92.3898 67.5991 92.0965 67.4657C91.8298 67.3057 91.5498 67.1057 91.2565 66.8657C91.0698 66.7057 90.9765 66.5857 90.9765 66.5057C90.9765 66.4524 91.0165 66.3857 91.0965 66.3057C91.2298 66.1724 91.2965 66.0391 91.2965 65.9057C91.2965 65.7724 91.2165 65.6524 91.0565 65.5457C90.8965 65.4657 90.8698 65.4257 90.9765 65.4257C91.0831 65.4257 91.1365 65.3591 91.1365 65.2257C91.1631 65.0657 91.1231 64.9857 91.0165 64.9857C90.9365 64.9857 91.0165 64.8657 91.2565 64.6257C91.5231 64.3591 91.6831 64.2257 91.7365 64.2257C91.8431 64.2257 91.8831 64.1857 91.8565 64.1057C91.8298 63.9991 91.7498 63.9057 91.6165 63.8257C91.5098 63.7457 91.4565 63.6924 91.4565 63.6657C91.4831 63.6124 91.5765 63.5191 91.7365 63.3857C91.9498 63.1991 92.6031 63.0524 93.6965 62.9457C95.2431 62.7591 96.4831 62.4924 97.4165 62.1457C98.3498 61.7991 99.1631 61.3057 99.8565 60.6657C100.336 60.2391 100.696 59.8257 100.936 59.4257C101.203 59.0257 101.336 58.6924 101.336 58.4257C101.336 58.1591 101.203 57.9857 100.936 57.9057C99.3631 57.5591 97.8831 56.9324 96.4965 56.0257C95.1365 55.1191 94.0698 54.0657 93.2965 52.8657C92.6298 51.8524 92.0565 50.7724 91.5765 49.6257C91.1231 48.4524 90.8431 47.3991 90.7365 46.4657C90.6565 45.9324 90.6165 45.4657 90.6165 45.0657C90.6165 44.6391 90.6565 44.0657 90.7365 43.3457C90.8431 42.1191 90.9365 41.4791 91.0165 41.4257C91.1231 41.3191 91.2165 41.1324 91.2965 40.8657C91.4031 40.6524 91.5098 40.5191 91.6165 40.4657C91.7231 40.4124 92.0031 40.3857 92.4565 40.3857C92.6431 40.3591 92.9498 40.3457 93.3765 40.3457C93.8031 40.3457 94.0831 40.3591 94.2165 40.3857L99.7365 40.4657C101.843 40.5191 103.47 40.5591 104.616 40.5857C105.763 40.6124 106.496 40.6391 106.816 40.6657C107.163 40.6924 107.376 40.7457 107.456 40.8257C107.536 40.9057 107.55 40.9457 107.496 40.9457C107.47 40.9457 107.39 40.9324 107.256 40.9057C106.936 40.8524 106.723 40.8791 106.616 40.9857C106.51 41.0391 106.47 41.0791 106.496 41.1057C106.55 41.1324 106.656 41.1457 106.816 41.1457C107.35 41.1457 107.83 41.3457 108.256 41.7457C108.416 41.9057 108.496 42.1057 108.496 42.3457V42.5857L108.456 42.9457C108.456 43.1057 108.483 43.1857 108.536 43.1857C108.67 43.1857 108.696 43.3724 108.616 43.7457C108.536 44.1191 108.416 44.3724 108.256 44.5057C108.176 44.5591 108.203 44.6924 108.336 44.9057C108.603 45.3324 108.216 45.6657 107.176 45.9057C106.136 46.1457 104.136 46.3457 101.176 46.5057C99.4965 46.5857 98.4165 46.6924 97.9365 46.8257C97.7765 46.8524 97.6565 46.8924 97.5765 46.9457C97.4965 46.9724 97.4565 47.0391 97.4565 47.1457C97.4565 47.2524 97.4698 47.3457 97.4965 47.4257C97.5498 47.6657 97.7231 48.1724 98.0165 48.9457C98.6031 50.3591 99.7231 51.3857 101.376 52.0257C101.936 52.2657 102.376 52.4124 102.696 52.4657C103.016 52.4924 103.75 52.5191 104.896 52.5457C106.47 52.5991 107.363 52.6657 107.576 52.7457C107.79 52.8257 107.963 52.8657 108.096 52.8657C108.256 52.8124 108.336 53.4657 108.336 54.8257C108.336 55.5457 108.323 56.1057 108.296 56.5057C108.163 58.3724 107.696 60.0391 106.896 61.5057C106.123 62.9724 104.99 64.2791 103.496 65.4257C102.963 65.8524 102.15 66.3457 101.056 66.9057C99.9631 67.4391 99.1098 67.7857 98.4965 67.9457C98.1498 68.0524 97.6165 68.1324 96.8965 68.1857C96.2031 68.2391 95.4965 68.2657 94.7765 68.2657Z" fill="white"/>
<path d="M127.154 48.3057C127.341 48.4124 127.394 48.5991 127.314 48.8657C127.288 48.9724 127.168 49.1057 126.954 49.2657C126.741 49.4257 126.368 49.6657 125.834 49.9857C125.141 50.3591 124.234 50.7991 123.114 51.3057C122.021 51.7857 121.408 52.0257 121.274 52.0257C121.194 52.0257 121.141 52.5724 121.114 53.6657C121.114 54.7591 121.114 56.7324 121.114 59.5857C121.088 63.7191 121.021 65.8791 120.914 66.0657C120.888 66.1457 120.848 66.1857 120.794 66.1857C120.794 66.1857 120.781 66.1724 120.754 66.1457C120.754 66.1191 120.754 66.0924 120.754 66.0657L120.794 65.6257L120.834 65.1057C120.834 64.8657 120.808 64.6657 120.754 64.5057C120.701 64.3991 120.661 64.3457 120.634 64.3457C120.608 64.3457 120.594 64.5857 120.594 65.0657C120.568 65.5457 120.514 65.9724 120.434 66.3457C120.354 66.6924 120.194 67.0924 119.954 67.5457C119.821 67.8391 119.714 68.0124 119.634 68.0657C119.581 68.0924 119.501 68.0524 119.394 67.9457C119.261 67.8124 119.114 67.7457 118.954 67.7457C118.768 67.7457 118.634 67.8391 118.554 68.0257C118.528 68.1324 118.501 68.1991 118.474 68.2257C118.448 68.2524 118.408 68.2124 118.354 68.1057C118.301 67.9457 118.221 67.8657 118.114 67.8657C118.034 67.8657 117.968 67.9457 117.914 68.1057C117.914 68.1857 117.901 68.2257 117.874 68.2257C117.848 68.2257 117.834 68.1991 117.834 68.1457C117.834 68.0391 117.728 67.9057 117.514 67.7457C117.328 67.6391 117.234 67.4924 117.234 67.3057C117.234 67.1991 117.221 67.1457 117.194 67.1457C117.168 67.1457 117.088 67.2257 116.954 67.3857C116.794 67.5991 116.674 67.7057 116.594 67.7057C116.541 67.7057 116.434 67.5591 116.274 67.2657C115.794 66.3857 115.448 63.2257 115.234 57.7857C115.208 55.9724 115.128 55.0657 114.994 55.0657C114.888 55.0657 114.328 55.2124 113.314 55.5057L111.794 55.9457L111.474 55.5857C111.208 55.3457 111.154 55.2124 111.314 55.1857C111.421 55.1324 111.274 55.1057 110.874 55.1057H110.754C110.488 55.1057 110.261 55.0524 110.074 54.9457C109.914 54.8391 109.834 54.7191 109.834 54.5857C109.834 54.4524 109.754 54.3324 109.594 54.2257C109.434 54.0657 109.288 53.7324 109.154 53.2257C109.074 52.9591 109.008 52.7324 108.954 52.5457C108.874 52.3324 108.821 52.1591 108.794 52.0257C108.714 51.8124 108.674 51.4791 108.674 51.0257L108.714 50.4257L110.034 49.9057L111.114 49.5057C112.261 49.0791 112.888 48.8391 112.994 48.7857L114.674 48.1857L114.634 46.5057C114.608 45.4391 114.648 44.3324 114.754 43.1857C114.861 42.0124 114.981 41.4257 115.114 41.4257C115.248 41.4257 115.341 41.5057 115.394 41.6657C115.394 41.7457 115.408 41.7857 115.434 41.7857C115.461 41.7591 115.474 41.6924 115.474 41.5857C115.474 41.4257 115.514 41.3324 115.594 41.3057C115.701 41.2524 115.768 41.3057 115.794 41.4657C115.794 41.5724 115.861 41.4657 115.994 41.1457C116.128 40.8524 116.314 40.6391 116.554 40.5057C116.741 40.3991 117.301 40.3457 118.234 40.3457C119.408 40.3457 120.168 40.4124 120.514 40.5457C120.728 40.6524 120.901 40.7057 121.034 40.7057C121.114 40.7057 121.154 41.5457 121.154 43.2257C121.154 44.9324 121.194 45.7857 121.274 45.7857C121.328 45.7857 121.848 45.6124 122.834 45.2657C123.821 44.9191 124.474 44.7457 124.794 44.7457L125.314 44.7857L124.754 44.9857C124.594 45.0124 124.368 45.1057 124.074 45.2657C124.048 45.3457 124.114 45.3591 124.274 45.3057C124.568 45.1724 124.861 45.1057 125.154 45.1057C125.394 45.1057 125.674 45.1591 125.994 45.2657C126.368 45.3724 126.594 45.4657 126.674 45.5457C126.754 45.5991 126.768 45.7191 126.714 45.9057V46.0657C126.714 46.2524 126.768 46.3991 126.874 46.5057C127.034 46.6124 127.114 46.7591 127.114 46.9457C127.114 47.1057 127.154 47.1724 127.234 47.1457C127.288 47.0924 127.314 47.1324 127.314 47.2657C127.314 47.4524 127.234 47.6791 127.074 47.9457C126.941 48.0791 126.968 48.1991 127.154 48.3057ZM115.874 41.0657C115.848 41.0924 115.821 41.0924 115.794 41.0657C115.794 41.0391 115.794 40.9857 115.794 40.9057C115.794 40.7191 115.821 40.6791 115.874 40.7857C115.928 40.9191 115.928 41.0124 115.874 41.0657ZM115.634 43.3057C115.714 42.9057 115.754 42.6657 115.754 42.5857C115.754 42.4257 115.741 42.3457 115.714 42.3457L115.634 42.6657C115.554 42.8524 115.514 43.0924 115.514 43.3857C115.514 43.5991 115.554 43.5724 115.634 43.3057ZM113.154 54.7057H113.114L112.794 54.7457C112.394 54.7991 112.128 54.8657 111.994 54.9457L111.954 54.9857L112.034 55.0257C112.168 55.0257 112.488 54.9324 112.994 54.7457L113.154 54.7057Z" fill="white"/>
<path d="M144.666 64.9857C144.719 65.6791 144.706 66.0257 144.626 66.0257C144.573 66.0257 144.533 65.8791 144.506 65.5857C144.479 65.3457 144.439 65.1457 144.386 64.9857C144.333 64.8257 144.293 64.7324 144.266 64.7057C144.239 64.6791 144.239 64.7591 144.266 64.9457L144.306 65.6657C144.306 66.3857 144.253 67.0391 144.146 67.6257C144.039 68.2124 143.933 68.4124 143.826 68.2257C143.799 68.1724 143.733 68.1191 143.626 68.0657C143.546 68.0124 143.453 67.9857 143.346 67.9857C143.213 67.9857 143.119 67.9991 143.066 68.0257C143.013 68.0524 142.973 68.1191 142.946 68.2257C142.919 68.3591 142.879 68.4257 142.826 68.4257C142.799 68.4524 142.733 68.4391 142.626 68.3857C142.519 68.3591 142.439 68.3457 142.386 68.3457C142.359 68.3724 142.359 68.4524 142.386 68.5857C142.386 68.7457 142.359 68.7724 142.306 68.6657C142.199 68.5057 142.066 68.4257 141.906 68.4257C141.719 68.3724 141.573 68.2391 141.466 68.0257L141.306 67.6657L141.106 68.1457C141.026 68.3591 140.973 68.4791 140.946 68.5057C140.919 68.5324 140.853 68.4924 140.746 68.3857L140.306 67.9857C140.119 67.7991 139.906 66.7857 139.666 64.9457C139.426 63.0791 139.266 61.8124 139.186 61.1457H134.786L134.666 63.5057C134.613 64.9991 134.533 65.9724 134.426 66.4257L134.306 67.0257V66.3457C134.359 65.5191 134.346 65.1057 134.266 65.1057C134.213 65.1057 134.173 65.3191 134.146 65.7457C134.119 66.1457 134.026 66.5991 133.866 67.1057C133.706 67.5857 133.533 67.9724 133.346 68.2657C133.159 68.5324 133.026 68.6124 132.946 68.5057C132.839 68.3191 132.679 68.2257 132.466 68.2257C132.306 68.2257 132.159 68.3324 132.026 68.5457C131.973 68.6524 131.919 68.7191 131.866 68.7457C131.839 68.7724 131.826 68.7324 131.826 68.6257C131.826 68.4657 131.746 68.3991 131.586 68.4257H131.466C131.199 68.4257 130.946 68.1991 130.706 67.7457C130.626 67.6124 130.573 67.5457 130.546 67.5457C130.546 67.5457 130.479 67.6524 130.346 67.8657C130.266 68.0524 130.186 68.1457 130.106 68.1457C130.026 68.1457 129.906 67.9724 129.746 67.6257C129.506 67.0924 129.306 65.8257 129.146 63.8257C129.013 61.8257 128.933 59.4124 128.906 56.5857C128.906 54.6657 128.853 52.6391 128.746 50.5057C128.639 48.7724 128.586 47.2657 128.586 45.9857C128.586 44.8124 128.639 43.8124 128.746 42.9857C128.879 41.9991 129.013 41.5057 129.146 41.5057C129.279 41.5057 129.346 41.5991 129.346 41.7857C129.373 41.9191 129.426 41.8791 129.506 41.6657C129.613 41.3991 129.706 41.3457 129.786 41.5057C129.839 41.5857 129.879 41.6124 129.906 41.5857C129.959 41.5324 129.999 41.4524 130.026 41.3457C130.079 41.0791 130.173 40.8924 130.306 40.7857C130.439 40.6791 130.679 40.6124 131.026 40.5857C131.506 40.5324 133.573 40.4791 137.226 40.4257L141.186 40.3457C142.306 40.3457 142.906 40.4124 142.986 40.5457C143.146 40.7057 143.359 40.8124 143.626 40.8657L144.066 40.9457L143.986 43.2257C143.906 44.5057 143.866 47.0924 143.866 50.9857C143.866 53.5191 144.066 57.2257 144.466 62.1057C144.599 63.6524 144.666 64.6124 144.666 64.9857ZM129.866 41.1857C129.813 41.2391 129.786 41.1724 129.786 40.9857C129.786 40.9324 129.799 40.8924 129.826 40.8657C129.853 40.8391 129.879 40.8524 129.906 40.9057C129.959 41.0657 129.946 41.1591 129.866 41.1857ZM135.786 45.9057C135.759 45.9057 135.733 45.9191 135.706 45.9457C135.679 45.9457 135.666 45.9457 135.666 45.9457C135.693 45.9457 135.759 45.9591 135.866 45.9857C135.999 45.9857 136.159 45.9857 136.346 45.9857C136.586 45.9857 136.773 45.9857 136.906 45.9857C137.039 45.9591 137.026 45.9324 136.866 45.9057C136.786 45.8791 136.613 45.8657 136.346 45.8657C136.079 45.8657 135.893 45.8791 135.786 45.9057ZM136.386 54.7857L137.906 54.7057L137.866 54.3457C137.813 53.9724 137.759 53.2257 137.706 52.1057C137.679 51.2257 137.599 50.0391 137.466 48.5457L137.306 46.7457H136.226C135.533 46.7457 135.159 46.7857 135.106 46.8657C135.053 46.9191 134.999 48.2657 134.946 50.9057L134.826 54.8257L136.386 54.7857ZM134.866 60.1457C134.813 60.1724 134.799 60.1991 134.826 60.2257C134.853 60.2524 134.893 60.2657 134.946 60.2657C135.133 60.2657 135.199 60.2391 135.146 60.1857C135.039 60.1324 134.946 60.1191 134.866 60.1457ZM137.066 60.2257C137.146 60.2257 137.199 60.2257 137.226 60.2257C137.279 60.1991 137.279 60.1724 137.226 60.1457H136.866C136.813 60.1724 136.813 60.1991 136.866 60.2257C136.919 60.2257 136.986 60.2257 137.066 60.2257ZM138.226 60.3857C138.386 60.3857 138.506 60.3857 138.586 60.3857C138.666 60.3591 138.653 60.3324 138.546 60.3057C138.493 60.2791 138.386 60.2657 138.226 60.2657C138.066 60.2657 137.959 60.2791 137.906 60.3057L137.826 60.3457C137.826 60.3724 137.959 60.3857 138.226 60.3857ZM135.106 60.6657C135.213 60.6657 135.293 60.6657 135.346 60.6657C135.399 60.6391 135.399 60.6124 135.346 60.5857C135.239 60.5324 135.093 60.5324 134.906 60.5857C134.853 60.6124 134.839 60.6391 134.866 60.6657C134.919 60.6657 134.999 60.6657 135.106 60.6657Z" fill="white"/>
<path d="M164.44 41.7857C164.547 42.5057 164.6 43.3591 164.6 44.3457C164.6 46.3724 164.387 48.1991 163.96 49.8257C163.827 50.2791 163.627 50.8524 163.36 51.5457C163.093 52.2391 162.84 52.7991 162.6 53.2257C162.413 53.5991 162.027 54.1324 161.44 54.8257C160.853 55.4924 160.427 55.8924 160.16 56.0257C160.053 56.0791 159.987 56.0924 159.96 56.0657C159.96 56.0391 160 55.9857 160.08 55.9057C160.32 55.6124 160.44 55.4391 160.44 55.3857C160.44 55.3324 160.333 55.3857 160.12 55.5457C159.773 55.7591 159.413 55.8924 159.04 55.9457C158.933 55.9724 158.813 55.9857 158.68 55.9857C158.573 55.9857 158.493 55.9724 158.44 55.9457C158.387 55.8924 158.333 55.7991 158.28 55.6657C158.173 55.4524 158.027 55.3191 157.84 55.2657C157.653 55.2657 157.507 55.1857 157.4 55.0257C157.373 54.9724 157.333 54.9324 157.28 54.9057C157.253 54.8791 157.227 54.8791 157.2 54.9057H157.16C157.08 54.9057 157 54.8124 156.92 54.6257C156.867 54.4391 156.853 54.2791 156.88 54.1457C156.88 54.0124 156.787 53.9457 156.6 53.9457C156.28 53.9457 156.12 53.7857 156.12 53.4657C156.12 53.1724 156.24 52.8124 156.48 52.3857L157.4 50.6257C157.613 50.1724 157.813 49.6257 158 48.9857C158.187 48.3457 158.24 47.9857 158.16 47.9057C158.107 47.8524 157.467 48.1191 156.24 48.7057C155.013 49.2657 154.213 49.6657 153.84 49.9057C153.413 50.1457 153.2 50.3591 153.2 50.5457L153 55.1057C152.76 60.0391 152.32 63.6924 151.68 66.0657C151.52 66.6524 151.413 66.9457 151.36 66.9457C151.36 66.9457 151.347 66.9324 151.32 66.9057C151.32 66.8791 151.32 66.8524 151.32 66.8257C151.32 66.6657 151.36 66.4124 151.44 66.0657C151.547 65.4791 151.6 65.1324 151.6 65.0257V64.9457C151.547 64.9457 151.48 65.1457 151.4 65.5457C151.213 66.4524 150.773 67.3591 150.08 68.2657C149.92 68.4524 149.8 68.5724 149.72 68.6257C149.64 68.6791 149.6 68.6391 149.6 68.5057C149.6 68.2924 149.507 68.1457 149.32 68.0657L149.12 67.9857C149.013 67.9857 148.92 68.0524 148.84 68.1857C148.707 68.4524 148.613 68.4791 148.56 68.2657C148.507 68.1324 148.427 68.0657 148.32 68.0657C148.24 68.0657 148.173 68.1457 148.12 68.3057C148.12 68.3857 148.107 68.4124 148.08 68.3857C148.053 68.3857 148.04 68.3324 148.04 68.2257C148.04 68.1457 148.013 68.0657 147.96 67.9857C147.907 67.9057 147.853 67.8524 147.8 67.8257C147.64 67.7191 147.56 67.5591 147.56 67.3457V66.9857L147.2 67.3057C147.04 67.4657 146.933 67.5591 146.88 67.5857C146.853 67.5857 146.813 67.5191 146.76 67.3857C146.707 67.1724 146.64 66.9857 146.56 66.8257C146.533 66.7724 146.52 66.6257 146.52 66.3857C146.52 65.6924 146.653 63.4791 146.92 59.7457C147.053 57.4257 147.12 55.4124 147.12 53.7057L147.08 51.4257L146.64 51.4657H146.48C146.347 51.4657 146.227 51.4257 146.12 51.3457C146.04 51.2657 145.907 51.0791 145.72 50.7857C145.4 50.2524 145.24 49.9324 145.24 49.8257C145.24 49.6657 145.2 49.5724 145.12 49.5457C145.04 49.4657 144.933 49.1724 144.8 48.6657C144.693 48.1324 144.64 47.7191 144.64 47.4257V47.2257C144.64 47.0657 144.68 46.9457 144.76 46.8657C144.867 46.7857 145.12 46.6524 145.52 46.4657L146.44 46.0257V43.5857C146.413 42.5457 146.413 41.8791 146.44 41.5857C146.467 41.2924 146.533 41.1457 146.64 41.1457C146.747 41.1457 146.827 41.2124 146.88 41.3457C146.88 41.3991 146.893 41.3991 146.92 41.3457C146.973 41.2924 147.013 41.2257 147.04 41.1457C147.093 40.9857 147.133 40.9057 147.16 40.9057C147.187 40.9057 147.227 40.9724 147.28 41.1057C147.28 41.1324 147.28 41.1591 147.28 41.1857C147.307 41.2124 147.32 41.2257 147.32 41.2257C147.347 41.2257 147.413 41.0791 147.52 40.7857C147.573 40.5457 147.64 40.3857 147.72 40.3057C147.827 40.1991 148 40.1057 148.24 40.0257C148.853 39.8391 149.68 39.7457 150.72 39.7457C151.28 39.7457 151.707 39.7857 152 39.8657L152.64 40.0257L152.72 40.9857L152.8 42.7057C152.8 43.2391 152.867 43.5057 153 43.5057C153.267 43.5057 154.6 42.9857 157 41.9457C157.8 41.6257 158.373 41.3857 158.72 41.2257C159.093 41.0391 159.347 40.8791 159.48 40.7457C159.587 40.6391 159.733 40.5857 159.92 40.5857C160.08 40.5857 160.213 40.5324 160.32 40.4257C160.48 40.2657 161.053 40.1857 162.04 40.1857C162.84 40.1857 163.4 40.2524 163.72 40.3857C163.987 40.5191 164.147 40.6391 164.2 40.7457C164.253 40.8524 164.333 41.1991 164.44 41.7857ZM147.24 42.9457C147.293 42.7057 147.293 42.4924 147.24 42.3057L147.2 42.2257V42.6257C147.2 42.9457 147.213 43.0524 147.24 42.9457Z" fill="white"/>
<path d="M182.701 48.3057C182.888 48.4124 182.941 48.5991 182.861 48.8657C182.834 48.9724 182.714 49.1057 182.501 49.2657C182.288 49.4257 181.914 49.6657 181.381 49.9857C180.688 50.3591 179.781 50.7991 178.661 51.3057C177.568 51.7857 176.954 52.0257 176.821 52.0257C176.741 52.0257 176.688 52.5724 176.661 53.6657C176.661 54.7591 176.661 56.7324 176.661 59.5857C176.634 63.7191 176.568 65.8791 176.461 66.0657C176.434 66.1457 176.394 66.1857 176.341 66.1857C176.341 66.1857 176.328 66.1724 176.301 66.1457C176.301 66.1191 176.301 66.0924 176.301 66.0657L176.341 65.6257L176.381 65.1057C176.381 64.8657 176.354 64.6657 176.301 64.5057C176.248 64.3991 176.208 64.3457 176.181 64.3457C176.154 64.3457 176.141 64.5857 176.141 65.0657C176.114 65.5457 176.061 65.9724 175.981 66.3457C175.901 66.6924 175.741 67.0924 175.501 67.5457C175.368 67.8391 175.261 68.0124 175.181 68.0657C175.128 68.0924 175.048 68.0524 174.941 67.9457C174.808 67.8124 174.661 67.7457 174.501 67.7457C174.314 67.7457 174.181 67.8391 174.101 68.0257C174.074 68.1324 174.048 68.1991 174.021 68.2257C173.994 68.2524 173.954 68.2124 173.901 68.1057C173.848 67.9457 173.768 67.8657 173.661 67.8657C173.581 67.8657 173.514 67.9457 173.461 68.1057C173.461 68.1857 173.448 68.2257 173.421 68.2257C173.394 68.2257 173.381 68.1991 173.381 68.1457C173.381 68.0391 173.274 67.9057 173.061 67.7457C172.874 67.6391 172.781 67.4924 172.781 67.3057C172.781 67.1991 172.768 67.1457 172.741 67.1457C172.714 67.1457 172.634 67.2257 172.501 67.3857C172.341 67.5991 172.221 67.7057 172.141 67.7057C172.088 67.7057 171.981 67.5591 171.821 67.2657C171.341 66.3857 170.994 63.2257 170.781 57.7857C170.754 55.9724 170.674 55.0657 170.541 55.0657C170.434 55.0657 169.874 55.2124 168.861 55.5057L167.341 55.9457L167.021 55.5857C166.754 55.3457 166.701 55.2124 166.861 55.1857C166.968 55.1324 166.821 55.1057 166.421 55.1057H166.301C166.034 55.1057 165.808 55.0524 165.621 54.9457C165.461 54.8391 165.381 54.7191 165.381 54.5857C165.381 54.4524 165.301 54.3324 165.141 54.2257C164.981 54.0657 164.834 53.7324 164.701 53.2257C164.621 52.9591 164.554 52.7324 164.501 52.5457C164.421 52.3324 164.368 52.1591 164.341 52.0257C164.261 51.8124 164.221 51.4791 164.221 51.0257L164.261 50.4257L165.581 49.9057L166.661 49.5057C167.808 49.0791 168.434 48.8391 168.541 48.7857L170.221 48.1857L170.181 46.5057C170.154 45.4391 170.194 44.3324 170.301 43.1857C170.408 42.0124 170.528 41.4257 170.661 41.4257C170.794 41.4257 170.888 41.5057 170.941 41.6657C170.941 41.7457 170.954 41.7857 170.981 41.7857C171.008 41.7591 171.021 41.6924 171.021 41.5857C171.021 41.4257 171.061 41.3324 171.141 41.3057C171.248 41.2524 171.314 41.3057 171.341 41.4657C171.341 41.5724 171.408 41.4657 171.541 41.1457C171.674 40.8524 171.861 40.6391 172.101 40.5057C172.288 40.3991 172.848 40.3457 173.781 40.3457C174.954 40.3457 175.714 40.4124 176.061 40.5457C176.274 40.6524 176.448 40.7057 176.581 40.7057C176.661 40.7057 176.701 41.5457 176.701 43.2257C176.701 44.9324 176.741 45.7857 176.821 45.7857C176.874 45.7857 177.394 45.6124 178.381 45.2657C179.368 44.9191 180.021 44.7457 180.341 44.7457L180.861 44.7857L180.301 44.9857C180.141 45.0124 179.914 45.1057 179.621 45.2657C179.594 45.3457 179.661 45.3591 179.821 45.3057C180.114 45.1724 180.408 45.1057 180.701 45.1057C180.941 45.1057 181.221 45.1591 181.541 45.2657C181.914 45.3724 182.141 45.4657 182.221 45.5457C182.301 45.5991 182.314 45.7191 182.261 45.9057V46.0657C182.261 46.2524 182.314 46.3991 182.421 46.5057C182.581 46.6124 182.661 46.7591 182.661 46.9457C182.661 47.1057 182.701 47.1724 182.781 47.1457C182.834 47.0924 182.861 47.1324 182.861 47.2657C182.861 47.4524 182.781 47.6791 182.621 47.9457C182.488 48.0791 182.514 48.1991 182.701 48.3057ZM171.421 41.0657C171.394 41.0924 171.368 41.0924 171.341 41.0657C171.341 41.0391 171.341 40.9857 171.341 40.9057C171.341 40.7191 171.368 40.6791 171.421 40.7857C171.474 40.9191 171.474 41.0124 171.421 41.0657ZM171.181 43.3057C171.261 42.9057 171.301 42.6657 171.301 42.5857C171.301 42.4257 171.288 42.3457 171.261 42.3457L171.181 42.6657C171.101 42.8524 171.061 43.0924 171.061 43.3857C171.061 43.5991 171.101 43.5724 171.181 43.3057ZM168.701 54.7057H168.661L168.341 54.7457C167.941 54.7991 167.674 54.8657 167.541 54.9457L167.501 54.9857L167.581 55.0257C167.714 55.0257 168.034 54.9324 168.541 54.7457L168.701 54.7057Z" fill="white"/>
</g>
</g>
<defs>
<filter id="filter0_d_26_363" x="-4" y="6" width="282" height="132" filterUnits="userSpaceOnUse" color-interpolation-filters="sRGB">
<feFlood flood-opacity="0" result="BackgroundImageFix"/>
<feColorMatrix in="SourceAlpha" type="matrix" values="0 0 0 0 0 0 0 0 0 0 0 0 0 0 0 0 0 0 127 0" result="hardAlpha"/>
<feOffset dy="4"/>
<feGaussianBlur stdDeviation="2"/>
<feComposite in2="hardAlpha" operator="out"/>
<feColorMatrix type="matrix" values="0 0 0 0 0 0 0 0 0 0 0 0 0 0 0 0 0 0 0.25 0"/>
<feBlend mode="normal" in2="BackgroundImageFix" result="effect1_dropShadow_26_363"/>
<feBlend mode="normal" in="SourceGraphic" in2="effect1_dropShadow_26_363" result="shape"/>
</filter>
<clipPath id="clip0_26_363">
<rect width="274" height="130" fill="white"/>
</clipPath>
</defs>
</svg>
