<svg width="274" height="130" viewBox="0 0 274 130" fill="none" xmlns="http://www.w3.org/2000/svg">
<path fill-rule="evenodd" clip-rule="evenodd" d="M15.2137 29.8836H258.788C267.073 29.8836 274 36.61 274 44.977V114.759C274 123.127 267.073 130 258.788 130H15.2137C6.92744 130 0 123.127 0 114.759V44.977C0 36.61 6.92744 29.8836 15.2137 29.8836Z" fill="#1C1C1C"/>
<path fill-rule="evenodd" clip-rule="evenodd" d="M14.61 28.9874H259.389C267.522 28.9874 273.998 35.4121 273.998 43.3318V110.126C273.998 118.194 267.522 124.619 259.389 124.619H14.61C6.62631 124.619 0 118.194 0 110.126V43.3318C0 35.4121 6.62631 28.9874 14.61 28.9874Z" fill="#353535"/>
<path fill-rule="evenodd" clip-rule="evenodd" d="M15.2137 21.5165H258.788C267.073 21.5165 274 28.39 274 36.6099V106.541C274 114.911 267.073 121.633 258.788 121.633H15.2137C6.92744 121.633 0 114.91 0 106.541V36.6099C0 28.39 6.92744 21.5165 15.2137 21.5165Z" fill="#1C1C1C"/>
<path fill-rule="evenodd" clip-rule="evenodd" d="M23.9493 12.1032H248.092C255.926 12.1032 262.251 18.3793 262.251 26.0003V90.5515C262.251 98.1725 255.925 104.449 248.092 104.449H23.9493C16.2698 104.449 9.94312 98.1725 9.94312 90.5515V26.0003C9.94312 18.3793 16.2698 12.1032 23.9493 12.1032Z" fill="#19CFD8"/>
<path fill-rule="evenodd" clip-rule="evenodd" d="M23.9493 2.68846H248.092C255.926 2.68846 262.251 8.96599 262.251 16.587V81.1397C262.251 88.7577 255.925 95.0352 248.092 95.0352H23.9493C16.2698 95.0352 9.94312 88.7577 9.94312 81.1397V16.587C9.94312 8.96599 16.2698 2.68846 23.9493 2.68846Z" fill="#48F6FF"/>
<path fill-rule="evenodd" clip-rule="evenodd" d="M23.9493 -1.14441e-05H248.092C255.926 -1.14441e-05 262.251 6.27603 262.251 13.8955V78.4497C262.251 86.0677 255.925 92.3468 248.092 92.3468H23.9493C16.2698 92.3468 9.94312 86.0677 9.94312 78.4497V13.8955C9.94312 6.27603 16.2698 -1.14441e-05 23.9493 -1.14441e-05Z" fill="#18EBFF"/>
<path d="M89.2691 57.1714C89.6691 57.6514 89.9224 57.9847 90.0291 58.1714C90.1358 58.3581 90.1491 58.4781 90.0691 58.5314C89.9091 58.6381 89.8558 58.7581 89.9091 58.8914C89.9624 59.0247 89.9091 59.0514 89.7491 58.9714C89.5891 58.9181 89.5224 58.9314 89.5491 59.0114L89.7891 59.4914C89.8691 59.6514 89.9091 59.7714 89.9091 59.8514C89.9091 59.9314 89.8691 60.0514 89.7891 60.2114C89.7091 60.3447 89.6424 60.4514 89.5891 60.5314C89.2958 60.9314 88.8291 61.4381 88.1891 62.0514C87.5758 62.6647 87.1758 62.9981 86.9891 63.0514C86.7758 63.1047 86.6424 63.1847 86.5891 63.2914C86.5624 63.3447 86.0691 62.9181 85.1091 62.0114C84.1491 61.1047 83.0691 60.0647 81.8691 58.8914C78.8024 55.8781 77.2291 54.3714 77.1491 54.3714C77.1224 54.5581 77.0958 54.9447 77.0691 55.5314C77.0424 56.1181 77.0291 56.8381 77.0291 57.6914C77.0291 58.5714 77.0158 59.3847 76.9891 60.1314C76.9624 60.8781 76.9224 61.3181 76.8691 61.4514L76.7891 61.6914C76.7624 61.6914 76.7358 61.5047 76.7091 61.1314V60.4114L76.5891 61.0114C76.4024 61.7581 76.1091 62.3981 75.7091 62.9314C75.6291 63.0381 75.5491 63.1047 75.4691 63.1314C75.4158 63.1581 75.3758 63.1314 75.3491 63.0514C75.3224 62.8914 75.1758 62.8114 74.9091 62.8114C74.6691 62.8114 74.5091 62.8914 74.4291 63.0514C74.3224 63.2381 74.2691 63.2647 74.2691 63.1314C74.2691 62.9981 74.1624 62.9581 73.9491 63.0114H73.8691C73.7358 63.0114 73.5491 62.9181 73.3091 62.7314C73.1758 62.5714 73.0691 62.4914 72.9891 62.4914C72.9358 62.4647 72.8691 62.5047 72.7891 62.6114C72.6558 62.7447 72.5491 62.8114 72.4691 62.8114C71.9624 62.8114 71.5891 61.1714 71.3491 57.8914L71.2691 56.5314L71.0291 52.9314L70.7891 49.0114C70.7624 48.7714 70.7491 48.3447 70.7491 47.7314C70.7491 47.0914 70.7624 46.6514 70.7891 46.4114C70.8958 45.3447 70.9758 44.6914 71.0291 44.4514C71.0824 44.1847 71.1624 44.0781 71.2691 44.1314C71.4024 44.1847 71.4958 44.1447 71.5491 44.0114C71.6024 43.8781 71.6691 43.8914 71.7491 44.0514C71.8024 44.1047 71.8424 44.1314 71.8691 44.1314C71.9758 44.1314 72.1091 43.8647 72.2691 43.3314C72.4024 43.0114 73.0558 42.8514 74.2291 42.8514C74.9758 42.8514 75.4824 42.8781 75.7491 42.9314C76.0424 42.9581 76.3224 43.0247 76.5891 43.1314L76.9891 43.2514C77.1491 43.3047 77.2424 43.4247 77.2691 43.6114C77.2958 43.7714 77.3091 44.3181 77.3091 45.2514V46.0914C77.3091 46.8114 77.3224 47.1847 77.3491 47.2114C77.4024 47.2647 77.8024 46.9981 78.5491 46.4114C79.3224 45.8247 79.9358 45.3047 80.3891 44.8514C80.8158 44.3981 81.2291 43.8381 81.6291 43.1714C82.0558 42.4781 82.3358 41.9047 82.4691 41.4514L82.5491 41.1314L80.7891 41.2114C79.9624 41.2647 78.7224 41.2914 77.0691 41.2914C75.1491 41.2914 73.8158 41.2381 73.0691 41.1314C72.4291 41.0514 72.0024 40.9714 71.7891 40.8914C71.5758 40.7847 71.5091 40.6647 71.5891 40.5314C71.6424 40.4781 71.6024 40.4514 71.4691 40.4514C71.3358 40.4514 71.3358 40.3847 71.4691 40.2514C71.4958 40.2247 71.5091 40.1581 71.5091 40.0514C71.5091 39.9714 71.4691 39.8914 71.3891 39.8114C71.3091 39.7314 71.2158 39.6914 71.1091 39.6914C70.7624 39.6914 70.5891 39.1714 70.5891 38.1314C70.5891 37.2514 70.6024 36.6647 70.6291 36.3714C70.6824 36.0514 70.7758 35.6647 70.9091 35.2114L71.1091 34.5714L72.8691 34.6914C74.8691 34.7714 77.4558 34.8514 80.6291 34.9314C84.6824 35.0381 86.8158 35.1314 87.0291 35.2114C87.2958 35.3181 87.5624 35.5181 87.8291 35.8114C88.1224 36.0781 88.3491 36.3847 88.5091 36.7314C88.6158 36.9181 88.6824 37.0914 88.7091 37.2514C88.7624 37.4114 88.7891 37.6381 88.7891 37.9314C88.7891 43.1047 86.8824 47.1581 83.0691 50.0914L81.9891 50.9314L82.6691 51.5314C84.0824 52.7581 85.2291 53.7047 86.1091 54.3714C87.0158 55.0381 87.6424 55.5181 87.9891 55.8114C88.3358 56.1047 88.7624 56.5581 89.2691 57.1714ZM73.3091 40.4114C73.5491 40.4114 73.5224 40.3714 73.2291 40.2914C73.0158 40.2114 72.8024 40.1714 72.5891 40.1714C72.3224 40.1714 72.3491 40.2114 72.6691 40.2914C73.0691 40.3714 73.2824 40.4114 73.3091 40.4114ZM71.8291 45.2114C71.8558 44.7581 71.8424 44.6247 71.7891 44.8114C71.7358 44.9981 71.6958 45.2781 71.6691 45.6514C71.6424 45.9981 71.6558 46.1447 71.7091 46.0914L71.8291 45.2114ZM89.4691 58.7314C89.4958 58.7314 89.4158 58.5981 89.2291 58.3314C89.0158 58.0114 88.8291 57.8114 88.6691 57.7314C88.5091 57.5981 88.4958 57.6247 88.6291 57.8114C89.1091 58.4247 89.3891 58.7314 89.4691 58.7314Z" fill="#00BBC4"/>
<path d="M97.9085 56.5714L99.4285 56.6914L105.068 56.9314C108.375 57.0381 110.028 57.1981 110.028 57.4114C110.028 57.4114 110.002 57.4247 109.948 57.4514C109.922 57.4514 109.868 57.4514 109.788 57.4514L109.268 57.4114C108.868 57.4114 108.735 57.4247 108.868 57.4514C109.508 57.5847 110.082 57.8114 110.588 58.1314C111.095 58.4247 111.255 58.6647 111.068 58.8514C110.962 58.9581 110.908 59.0914 110.908 59.2514C110.908 59.4647 110.988 59.6114 111.148 59.6914C111.202 59.7181 111.242 59.7581 111.268 59.8114C111.295 59.8381 111.282 59.8514 111.228 59.8514C111.095 59.8514 111.028 59.9181 111.028 60.0514C111.028 60.2114 111.095 60.2914 111.228 60.2914C111.282 60.2914 111.295 60.3181 111.268 60.3714C111.242 60.3981 111.202 60.4247 111.148 60.4514C110.988 60.5314 110.908 60.6514 110.908 60.8114C110.908 60.9447 110.828 61.0114 110.668 61.0114C110.535 61.0114 110.468 61.0381 110.468 61.0914C110.468 61.1447 110.535 61.2647 110.668 61.4514C110.775 61.5581 110.828 61.6381 110.828 61.6914C110.828 61.9047 110.615 62.0781 110.188 62.2114C109.788 62.3447 109.028 62.4514 107.908 62.5314C106.815 62.6114 105.175 62.6914 102.988 62.7714C101.042 62.8247 99.4818 62.8781 98.3085 62.9314C97.1618 62.9847 96.4418 63.0381 96.1485 63.0914C95.8818 63.1714 95.6552 63.3181 95.4685 63.5314C95.3352 63.6914 95.2285 63.7847 95.1485 63.8114C95.0952 63.8647 95.0685 63.8381 95.0685 63.7314C95.0418 63.5981 94.9485 63.4781 94.7885 63.3714C94.6285 63.2647 94.4952 63.2514 94.3885 63.3314C94.2818 63.3847 94.2018 63.4781 94.1485 63.6114C94.1218 63.6914 94.0952 63.7314 94.0685 63.7314C94.0418 63.7314 94.0285 63.6914 94.0285 63.6114C94.0285 63.4247 93.9618 63.3314 93.8285 63.3314C93.6952 63.3314 93.6018 63.4247 93.5485 63.6114C93.5485 63.6914 93.5352 63.7181 93.5085 63.6914C93.4818 63.6914 93.4685 63.6514 93.4685 63.5714C93.4418 63.3847 93.3352 63.1981 93.1485 63.0114C92.9618 62.8514 92.7618 62.7581 92.5485 62.7314C92.3352 62.7314 92.1485 62.7047 91.9885 62.6514C91.8552 62.5981 91.7618 62.5047 91.7085 62.3714C91.6818 62.2381 91.7352 62.1714 91.8685 62.1714C91.9218 62.1714 91.9352 62.1581 91.9085 62.1314C91.9085 62.0781 91.8685 62.0381 91.7885 62.0114C91.6018 61.9047 91.5752 61.8114 91.7085 61.7314L91.7485 61.6514C91.7485 61.5981 91.6152 61.5314 91.3485 61.4514C91.0552 61.3714 90.8552 61.2247 90.7485 61.0114C90.6685 60.7714 90.6285 60.3047 90.6285 59.6114C90.6285 58.3047 90.7218 57.4514 90.9085 57.0514C91.1218 56.7314 91.2018 56.5314 91.1485 56.4514C91.1485 56.3981 91.3085 56.3714 91.6285 56.3714H92.1085L92.1885 54.9314L92.2685 52.8914V52.2914H91.6685L90.6685 52.1714L90.5485 52.0914C90.5485 52.0647 90.7352 52.0514 91.1085 52.0514C91.6418 51.9981 91.9218 51.9581 91.9485 51.9314C92.0018 51.8781 91.8418 51.8514 91.4685 51.8514C91.2018 51.8514 90.8552 51.7714 90.4285 51.6114C90.0285 51.4514 89.6952 51.2781 89.4285 51.0914C89.1618 50.9047 89.0952 50.7714 89.2285 50.6914C89.3085 50.6114 89.3752 50.4781 89.4285 50.2914C89.4818 50.1581 89.4952 50.0647 89.4685 50.0114C89.4418 49.9581 89.3752 49.9047 89.2685 49.8514C89.1352 49.8247 89.0552 49.7981 89.0285 49.7714C89.0285 49.7447 89.0818 49.6781 89.1885 49.5714C89.2952 49.4381 89.3352 49.3581 89.3085 49.3314C89.3085 49.3047 89.2552 49.2781 89.1485 49.2514C89.0418 49.1981 88.9885 49.1581 88.9885 49.1314C88.9885 49.1047 89.0418 49.0781 89.1485 49.0514C89.2018 49.0247 89.2552 48.9847 89.3085 48.9314C89.3618 48.8781 89.3885 48.8114 89.3885 48.7314C89.3885 48.5981 89.4552 48.5314 89.5885 48.5314C89.7218 48.5314 89.7885 48.4914 89.7885 48.4114C89.7885 48.3047 89.7218 48.1981 89.5885 48.0914C89.5085 47.9581 89.4685 47.8781 89.4685 47.8514C89.4685 47.7981 89.5352 47.7047 89.6685 47.5714C89.9352 47.3581 90.3885 47.1847 91.0285 47.0514L92.0685 46.8114L92.1085 46.2114C92.1618 45.8381 92.1085 45.1981 91.9485 44.2914C91.7885 43.3314 91.7085 42.7314 91.7085 42.4914C91.7085 41.5581 91.5618 41.0914 91.2685 41.0914C91.1085 41.0914 91.0152 41.0247 90.9885 40.8914C90.9618 40.7314 91.0152 40.6514 91.1485 40.6514C91.2018 40.6514 91.2018 40.6381 91.1485 40.6114C91.1218 40.5581 91.0685 40.5181 90.9885 40.4914C90.8552 40.4381 90.7752 40.3981 90.7485 40.3714C90.7218 40.3181 90.7618 40.2781 90.8685 40.2514C90.9485 40.1981 90.9885 40.1714 90.9885 40.1714C90.9885 40.1181 90.8552 40.0514 90.5885 39.9714C90.3218 39.8914 90.1485 39.8114 90.0685 39.7314C89.9885 39.6247 89.9085 39.4114 89.8285 39.0914C89.7752 38.9047 89.7485 38.5447 89.7485 38.0114C89.7485 36.8647 89.8552 36.0114 90.0685 35.4514L90.3085 34.8514L97.8285 34.8914C103.455 34.8914 106.668 34.8647 107.468 34.8114C108.828 34.7581 109.482 34.7447 109.428 34.7714C109.242 34.8247 108.975 34.8781 108.628 34.9314C108.388 34.9581 108.268 34.9981 108.268 35.0514L109.068 35.1314C109.602 35.1847 110.095 35.3181 110.548 35.5314C111.028 35.7181 111.162 35.8514 110.948 35.9314C110.842 35.9847 110.788 36.0781 110.788 36.2114C110.788 36.2914 110.842 36.4647 110.948 36.7314C111.055 36.8914 111.108 37.0381 111.108 37.1714C111.108 37.3047 111.162 37.3714 111.268 37.3714H111.308C111.335 37.3714 111.348 37.3847 111.348 37.4114C111.348 37.4914 111.308 37.6114 111.228 37.7714C111.042 38.0381 110.922 38.1714 110.868 38.1714C110.788 38.1714 110.748 38.2114 110.748 38.2914C110.748 38.4247 110.855 38.5314 111.068 38.6114C111.202 38.6381 111.268 38.6781 111.268 38.7314C111.268 38.7847 111.135 38.9447 110.868 39.2114L110.388 39.7314V45.3714C110.388 47.9047 110.375 49.5181 110.348 50.2114C110.322 50.8781 110.242 51.3314 110.108 51.5714C109.948 51.9447 109.735 52.1581 109.468 52.2114C109.202 52.2647 107.255 52.2914 103.628 52.2914L98.1885 52.2514L98.0685 53.6914L97.9085 56.5714ZM98.2285 41.2114C98.2018 41.2381 98.1885 41.5581 98.1885 42.1714C98.1885 43.0247 98.2152 43.9314 98.2685 44.8914C98.3218 45.8514 98.3752 46.3314 98.4285 46.3314L100.468 46.1714C101.828 46.0647 102.735 45.9714 103.188 45.8914L104.028 45.7314L104.108 43.2914V40.8114C104.055 40.7581 103.068 40.7981 101.148 40.9314C99.2285 41.0647 98.2552 41.1581 98.2285 41.2114ZM104.508 40.8114C104.482 40.8114 104.468 40.8914 104.468 41.0514C104.468 41.2114 104.482 41.3581 104.508 41.4914C104.535 41.5981 104.562 41.6647 104.588 41.6914C104.615 41.6914 104.628 41.5447 104.628 41.2514C104.628 40.9581 104.588 40.8114 104.508 40.8114ZM105.028 40.9314C105.002 40.8781 104.975 40.8781 104.948 40.9314C104.948 40.9581 104.948 41.0114 104.948 41.0914C104.948 41.1714 104.948 41.2381 104.948 41.2914C104.975 41.3447 105.002 41.3447 105.028 41.2914C105.082 41.1581 105.082 41.0381 105.028 40.9314ZM104.868 42.6514C104.868 42.6781 104.855 42.7314 104.828 42.8114C104.828 42.8914 104.828 42.9981 104.828 43.1314C104.828 43.3181 104.828 43.4647 104.828 43.5714C104.855 43.6514 104.882 43.6381 104.908 43.5314V42.7314L104.868 42.6514ZM104.868 44.5314C104.868 44.5581 104.855 44.6114 104.828 44.6914C104.828 44.7714 104.828 44.8781 104.828 45.0114C104.828 45.1981 104.828 45.3447 104.828 45.4514C104.855 45.5314 104.882 45.5181 104.908 45.4114V44.6114L104.868 44.5314Z" fill="#00BBC4"/>
<path d="M131.822 49.3714C131.982 49.5314 132.009 49.6114 131.902 49.6114C131.769 49.6114 131.729 49.7047 131.782 49.8914L131.822 50.0114C131.822 50.0914 131.756 50.2647 131.622 50.5314C131.516 50.6647 131.449 50.7581 131.422 50.8114C131.422 50.8647 131.462 50.9581 131.542 51.0914C131.622 51.1714 131.662 51.2514 131.662 51.3314C131.662 51.4114 131.582 51.5314 131.422 51.6914C131.102 51.9581 130.756 52.1047 130.382 52.1314C130.062 52.1847 129.862 52.2514 129.782 52.3314C129.729 52.4114 129.662 52.6114 129.582 52.9314C129.422 53.5447 129.076 54.3447 128.542 55.3314C128.036 56.2914 127.542 57.0514 127.062 57.6114C126.289 58.5181 125.369 59.3714 124.302 60.1714C123.262 60.9447 122.316 61.4914 121.462 61.8114C120.769 62.0781 119.956 62.2914 119.022 62.4514C118.089 62.6114 117.209 62.6914 116.382 62.6914C115.609 62.6914 114.996 62.6114 114.542 62.4514L114.142 62.3314C114.142 62.3047 114.209 62.2914 114.342 62.2914C115.009 62.2914 115.422 62.3047 115.582 62.3314C115.769 62.3314 115.862 62.3314 115.862 62.3314C115.596 62.3314 115.116 62.2247 114.422 62.0114C113.756 61.7981 113.382 61.6381 113.302 61.5314L112.822 61.1314C112.716 61.0247 112.636 60.9447 112.582 60.8914C112.529 60.8381 112.542 60.8114 112.622 60.8114C112.756 60.8114 112.849 60.7181 112.902 60.5314C112.982 60.3181 112.969 60.1447 112.862 60.0114C112.756 59.8514 112.729 59.7047 112.782 59.5714C112.836 59.5181 112.849 59.4647 112.822 59.4114C112.796 59.3581 112.756 59.3314 112.702 59.3314C112.676 59.3314 112.662 59.3181 112.662 59.2914C112.662 59.2381 112.742 59.1314 112.902 58.9714C113.196 58.7314 113.382 58.6114 113.462 58.6114C113.542 58.6114 113.582 58.5714 113.582 58.4914C113.582 58.3847 113.529 58.3047 113.422 58.2514C113.342 58.1981 113.302 58.1314 113.302 58.0514C113.302 57.8647 113.436 57.7314 113.702 57.6514C113.836 57.5714 114.476 57.4514 115.622 57.2914C116.929 57.1581 118.022 56.9181 118.902 56.5714C119.809 56.2247 120.596 55.7314 121.262 55.0914C121.636 54.7447 121.996 54.3314 122.342 53.8514C122.716 53.3714 122.902 53.0647 122.902 52.9314C122.902 52.8514 122.729 52.8114 122.382 52.8114C121.876 52.8114 121.156 52.8914 120.222 53.0514C119.609 53.1581 119.022 53.2114 118.462 53.2114C118.302 53.2114 117.689 53.1847 116.622 53.1314C114.596 53.0247 113.822 52.8247 114.302 52.5314C114.382 52.4781 114.396 52.4381 114.342 52.4114C114.316 52.3581 114.249 52.3181 114.142 52.2914C114.009 52.2647 113.929 52.2381 113.902 52.2114C113.902 52.1581 113.969 52.1181 114.102 52.0914C114.209 52.0381 114.262 51.9981 114.262 51.9714C114.262 51.9447 114.116 51.9047 113.822 51.8514C113.502 51.7981 113.276 51.6781 113.142 51.4914C113.036 51.3047 112.956 50.9314 112.902 50.3714C112.849 49.8381 112.902 48.9181 113.062 47.6114C113.222 46.2781 113.396 45.3181 113.582 44.7314C114.622 41.3447 117.182 38.4781 121.262 36.1314C122.116 35.6514 122.929 35.3047 123.702 35.0914C124.502 34.8781 125.396 34.7714 126.382 34.7714C127.316 34.7714 127.929 34.7981 128.222 34.8514C128.542 34.9047 128.702 35.0114 128.702 35.1714C128.702 35.3047 128.756 35.3714 128.862 35.3714C128.969 35.3714 128.969 35.4381 128.862 35.5714C128.782 35.6514 128.742 35.7181 128.742 35.7714C128.769 35.8247 128.849 35.8781 128.982 35.9314C129.196 36.0381 129.369 36.0914 129.502 36.0914C129.662 36.0914 129.756 36.1314 129.782 36.2114C129.969 36.5047 130.062 37.2647 130.062 38.4914C130.062 39.4781 129.996 40.1047 129.862 40.3714C129.676 40.6914 129.609 40.8781 129.662 40.9314C129.716 40.9847 129.516 41.0381 129.062 41.0914C128.636 41.1447 128.009 41.1847 127.182 41.2114C125.476 41.2914 123.942 41.7181 122.582 42.4914C121.222 43.2647 120.156 44.3314 119.382 45.6914C119.222 45.9314 119.102 46.1314 119.022 46.2914C118.942 46.4514 118.889 46.5714 118.862 46.6514L121.262 46.7714C121.796 46.7981 122.356 46.8114 122.942 46.8114C123.262 46.8114 123.449 46.7981 123.502 46.7714C123.582 46.7447 123.622 46.6781 123.622 46.5714C123.622 46.3847 123.676 46.2514 123.782 46.1714C123.889 46.0914 123.982 46.1181 124.062 46.2514C124.116 46.3847 124.182 46.3314 124.262 46.0914C124.289 45.9314 124.316 45.8514 124.342 45.8514C124.396 45.8514 124.449 45.9181 124.502 46.0514C124.529 46.0781 124.542 46.1181 124.542 46.1714C124.542 46.1981 124.556 46.2114 124.582 46.2114C124.636 46.2114 124.676 46.0514 124.702 45.7314C124.756 45.4381 124.822 45.2514 124.902 45.1714C125.009 45.0647 125.249 44.9447 125.622 44.8114C126.156 44.5981 126.449 44.5181 126.502 44.5714H126.622C126.996 44.5714 127.302 44.5581 127.542 44.5314C127.916 44.4781 128.196 44.4514 128.382 44.4514C128.649 44.4514 128.889 44.4781 129.102 44.5314L129.702 44.6914L129.902 45.8114C129.982 46.2914 130.049 46.5981 130.102 46.7314C130.182 46.8647 130.302 46.9581 130.462 47.0114C130.596 47.0381 130.649 47.0647 130.622 47.0914C130.622 47.1181 130.542 47.1314 130.382 47.1314C130.302 47.1314 130.236 47.1447 130.182 47.1714C130.129 47.1714 130.089 47.1714 130.062 47.1714C130.062 47.1981 130.236 47.2914 130.582 47.4514C131.542 47.8781 131.929 48.2647 131.742 48.6114C131.662 48.7714 131.622 48.8914 131.622 48.9714C131.622 49.1047 131.689 49.2381 131.822 49.3714ZM126.302 35.5714L127.022 35.6514C128.089 35.8114 128.409 35.8114 127.982 35.6514C127.769 35.5714 127.422 35.5314 126.942 35.5314L126.302 35.5714ZM124.342 45.4514C124.342 45.2647 124.382 45.2381 124.462 45.3714C124.489 45.4247 124.489 45.4781 124.462 45.5314C124.462 45.5847 124.449 45.6247 124.422 45.6514C124.369 45.7047 124.342 45.6381 124.342 45.4514ZM115.022 52.1714C115.289 52.1714 115.382 52.1581 115.302 52.1314C115.142 52.0781 114.969 52.0781 114.782 52.1314C114.702 52.1581 114.782 52.1714 115.022 52.1714ZM116.262 52.3314C116.396 52.3314 116.502 52.3314 116.582 52.3314C116.662 52.3047 116.676 52.2781 116.622 52.2514C116.569 52.2514 116.476 52.2514 116.342 52.2514C116.209 52.2247 116.102 52.2247 116.022 52.2514L115.942 52.2914C115.942 52.3181 116.049 52.3314 116.262 52.3314Z" fill="#00BBC4"/>
<path d="M152.186 52.7714C152.266 54.8514 152.306 56.8381 152.306 58.7314C152.306 59.6914 152.293 60.2514 152.266 60.4114L152.146 61.0514L152.106 60.1714C152.053 59.3714 151.986 58.9714 151.906 58.9714C151.879 58.9714 151.866 59.2114 151.866 59.6914C151.866 60.1981 151.786 60.7314 151.626 61.2914C151.466 61.8514 151.279 62.2647 151.066 62.5314C150.906 62.7714 150.799 62.8114 150.746 62.6514C150.719 62.5181 150.599 62.4514 150.386 62.4514C150.173 62.4514 150.026 62.5447 149.946 62.7314C149.919 62.8381 149.893 62.8914 149.866 62.8914C149.839 62.9181 149.773 62.8781 149.666 62.7714C149.559 62.6647 149.479 62.6247 149.426 62.6514C149.399 62.6514 149.359 62.7314 149.306 62.8914C149.279 63.1047 149.239 63.1447 149.186 63.0114C149.186 62.8247 149.053 62.6381 148.786 62.4514C148.546 62.2647 148.346 62.2114 148.186 62.2914C148.026 62.3181 147.773 62.3581 147.426 62.4114C147.079 62.4647 146.679 62.5181 146.226 62.5714C145.533 62.6247 145.013 62.6514 144.666 62.6514C141.999 62.6514 139.759 61.9714 137.946 60.6114C137.226 60.1047 136.613 59.5181 136.106 58.8514C135.626 58.1847 135.173 57.3181 134.746 56.2514C134.239 54.9714 133.839 53.5847 133.546 52.0914C133.279 50.5981 132.973 48.2514 132.626 45.0514C132.466 43.6114 132.386 42.1714 132.386 40.7314C132.386 38.9181 132.506 37.4381 132.746 36.2914C132.853 35.7314 132.933 35.3981 132.986 35.2914C133.039 35.1847 133.119 35.1981 133.226 35.3314C133.306 35.4114 133.373 35.4647 133.426 35.4914C133.479 35.4914 133.506 35.4381 133.506 35.3314C133.506 35.1981 133.546 35.1314 133.626 35.1314C133.733 35.1047 133.799 35.1581 133.826 35.2914L133.866 35.3314C133.919 35.3314 133.986 35.2247 134.066 35.0114C134.119 34.8781 134.186 34.7581 134.266 34.6514C134.373 34.5447 134.466 34.4781 134.546 34.4514C134.759 34.3981 135.106 34.3714 135.586 34.3714C136.386 34.3714 136.919 34.4114 137.186 34.4914C137.479 34.5981 137.693 34.6247 137.826 34.5714H137.866C137.999 34.5714 138.199 34.6381 138.466 34.7714C138.786 34.9314 138.986 35.0114 139.066 35.0114C139.146 35.0114 139.186 35.1981 139.186 35.5714C139.186 36.0781 139.133 36.9181 139.026 38.0914C138.919 39.5847 138.866 40.9581 138.866 42.2114C138.866 43.9981 138.933 45.7981 139.066 47.6114C139.199 49.4247 139.359 50.8247 139.546 51.8114C139.706 52.6381 139.919 53.3981 140.186 54.0914C140.453 54.7581 140.719 55.2514 140.986 55.5714C141.306 55.9181 141.746 56.2381 142.306 56.5314C142.733 56.7181 143.333 56.8781 144.106 57.0114C144.879 57.1447 145.519 57.2114 146.026 57.2114C146.399 57.2114 146.599 57.1714 146.626 57.0914C146.679 57.0381 146.653 56.5847 146.546 55.7314L146.306 51.9714C146.039 47.2247 145.813 44.2514 145.626 43.0514C145.493 42.2247 145.426 40.9981 145.426 39.3714C145.426 38.3847 145.453 37.5581 145.506 36.8914C145.586 36.1981 145.679 35.8514 145.786 35.8514C145.919 35.8514 145.986 35.9047 145.986 36.0114C146.013 36.0914 146.066 36.0381 146.146 35.8514C146.226 35.6647 146.279 35.5714 146.306 35.5714C146.333 35.5714 146.373 35.6381 146.426 35.7714L146.506 35.9314C146.559 35.9314 146.599 35.8247 146.626 35.6114C146.679 35.3447 146.759 35.1581 146.866 35.0514C146.999 34.9181 147.213 34.8114 147.506 34.7314C147.666 34.6781 148.106 34.6514 148.826 34.6514C149.813 34.6514 150.599 34.7047 151.186 34.8114C151.506 34.9181 151.693 35.0114 151.746 35.0914C151.799 35.1447 151.826 35.3181 151.826 35.6114L151.866 38.2514C151.919 40.0381 151.973 42.5314 152.026 45.7314C152.079 49.0647 152.133 51.4114 152.186 52.7714ZM133.706 36.1314C133.733 35.8114 133.719 35.7314 133.666 35.8914C133.639 35.9181 133.559 36.1847 133.426 36.6914C133.399 37.0114 133.413 37.0914 133.466 36.9314C133.493 36.9047 133.573 36.6381 133.706 36.1314ZM146.266 37.5714C146.373 37.4114 146.426 37.2247 146.426 37.0114C146.426 36.8247 146.413 36.7314 146.386 36.7314C146.359 36.7314 146.306 36.9181 146.226 37.2914C146.199 37.4247 146.186 37.5314 146.186 37.6114C146.186 37.6647 146.213 37.6514 146.266 37.5714ZM146.346 57.6514C146.453 57.6514 146.533 57.6381 146.586 57.6114C146.639 57.5847 146.679 57.5581 146.706 57.5314C146.706 57.4781 146.639 57.4514 146.506 57.4514C146.373 57.4514 146.253 57.4647 146.146 57.4914C146.066 57.5181 146.013 57.5447 145.986 57.5714C145.986 57.6247 146.106 57.6514 146.346 57.6514Z" fill="#00BBC4"/>
<path d="M181.119 44.0914C181.119 47.1847 180.919 50.5181 180.519 54.0914C180.119 57.6647 179.679 59.9714 179.199 61.0114C179.145 61.1447 179.092 61.2381 179.039 61.2914C179.012 61.3181 179.025 61.2781 179.079 61.1714C179.159 60.7714 179.199 60.3981 179.199 60.0514L179.279 59.3314L179.119 59.9714C179.039 60.3714 178.879 60.7981 178.639 61.2514C178.425 61.7047 178.185 62.0914 177.919 62.4114C177.705 62.6247 177.572 62.7447 177.519 62.7714C177.465 62.7981 177.399 62.7581 177.319 62.6514C177.265 62.5714 177.132 62.5047 176.919 62.4514C176.732 62.3981 176.545 62.3714 176.359 62.3714C176.252 62.3714 176.145 62.3847 176.039 62.4114C175.959 62.4381 175.919 62.4781 175.919 62.5314C175.919 62.5581 175.905 62.5714 175.879 62.5714C175.825 62.5714 175.719 62.4514 175.559 62.2114C175.425 61.9714 175.359 61.7981 175.359 61.6914C175.359 61.5314 175.305 61.4514 175.199 61.4514C175.092 61.4514 174.985 61.5447 174.879 61.7314C174.799 61.8647 174.732 61.9314 174.679 61.9314C174.625 61.9314 174.545 61.7981 174.439 61.5314C174.332 61.3447 174.279 60.9714 174.279 60.4114C174.279 59.5847 174.372 58.1847 174.559 56.2114C174.879 52.4514 175.039 49.8381 175.039 48.3714L174.999 46.8514C174.945 45.1181 174.905 44.2381 174.879 44.2114H174.839C174.732 44.2114 174.372 44.3047 173.759 44.4914C172.959 44.7314 172.412 44.8781 172.119 44.9314C171.852 44.9581 171.719 44.9181 171.719 44.8114C171.719 44.6781 171.785 44.5847 171.919 44.5314C171.972 44.5047 171.959 44.4914 171.879 44.4914C171.825 44.4647 171.745 44.4647 171.639 44.4914H171.439C171.252 44.4914 171.052 44.4647 170.839 44.4114C170.652 44.3581 170.559 44.3314 170.559 44.3314L170.919 44.2914C171.479 44.2381 171.759 44.1847 171.759 44.1314C171.759 44.1047 171.572 44.0914 171.199 44.0914H170.279L170.199 49.4114C170.145 53.0114 170.079 55.0647 169.999 55.5714C169.865 56.3714 169.785 56.9181 169.759 57.2114C169.652 57.8514 169.519 58.3181 169.359 58.6114C169.332 58.7181 169.292 58.7981 169.239 58.8514C169.212 58.9047 169.185 58.9314 169.159 58.9314C169.159 58.9314 169.172 58.9181 169.199 58.8914C169.225 58.8114 169.265 58.4514 169.319 57.8114L169.399 57.0114L169.199 57.8114C169.012 58.6381 168.639 59.3714 168.079 60.0114C167.945 60.1981 167.839 60.3047 167.759 60.3314C167.705 60.3581 167.625 60.3181 167.519 60.2114C167.385 60.0781 167.225 60.0114 167.039 60.0114C166.879 60.0114 166.745 60.0781 166.639 60.2114C166.612 60.3181 166.585 60.3714 166.559 60.3714C166.532 60.3714 166.492 60.3181 166.439 60.2114C166.385 60.0781 166.305 60.0114 166.199 60.0114C166.119 60.0114 166.052 60.0914 165.999 60.2514C165.999 60.3314 165.985 60.3714 165.959 60.3714C165.932 60.3447 165.919 60.2781 165.919 60.1714C165.919 60.0114 165.852 59.8647 165.719 59.7314C165.585 59.6781 165.492 59.5447 165.439 59.3314C165.412 59.1981 165.372 59.1447 165.319 59.1714C165.292 59.1714 165.239 59.2114 165.159 59.2914C164.999 59.4514 164.865 59.5314 164.759 59.5314C164.492 59.5314 164.359 58.7181 164.359 57.0914C164.359 56.1314 164.372 55.3447 164.399 54.7314V52.9314C164.399 51.0914 164.359 49.3314 164.279 47.6514C164.225 45.9714 164.145 45.0914 164.039 45.0114C164.012 44.9314 163.505 45.0381 162.519 45.3314C161.559 45.6247 161.025 45.7181 160.919 45.6114C160.812 45.5047 160.879 45.4114 161.119 45.3314C161.225 45.3047 161.279 45.2647 161.279 45.2114L160.879 45.2514C160.665 45.3047 160.399 45.3314 160.079 45.3314C159.999 45.3314 159.932 45.4781 159.879 45.7714C159.852 46.0381 159.825 46.7714 159.799 47.9714C159.799 49.1447 159.799 50.6914 159.799 52.6114C159.799 54.5314 159.785 56.1847 159.759 57.5714C159.732 58.9581 159.705 59.9047 159.679 60.4114C159.625 60.5981 159.585 60.6914 159.559 60.6914C159.532 60.6914 159.519 60.4114 159.519 59.8514L159.479 58.7714L159.359 59.6914C159.305 60.2247 159.185 60.7581 158.999 61.2914C158.812 61.7981 158.625 62.1847 158.439 62.4514C158.252 62.6914 158.119 62.6914 158.039 62.4514C157.985 62.3447 157.852 62.2914 157.639 62.2914H157.519C157.359 62.2914 157.239 62.3981 157.159 62.6114C157.132 62.8247 157.092 62.8647 157.039 62.7314C157.039 62.6247 157.012 62.5447 156.959 62.4914C156.905 62.4381 156.852 62.4114 156.799 62.4114C156.692 62.4114 156.612 62.4914 156.559 62.6514L156.479 62.9714V62.6514C156.479 62.5714 156.439 62.4914 156.359 62.4114C156.305 62.3314 156.239 62.2781 156.159 62.2514C155.972 62.1447 155.879 62.0114 155.879 61.8514C155.879 61.6914 155.825 61.6114 155.719 61.6114C155.612 61.5847 155.532 61.6514 155.479 61.8114C155.425 61.9447 155.359 62.0114 155.279 62.0114C155.145 62.0114 154.999 61.8381 154.839 61.4914C154.439 60.5581 154.105 56.1314 153.839 48.2114L153.639 43.3314C153.559 42.8514 153.519 42.1714 153.519 41.2914C153.519 40.0381 153.572 38.7981 153.679 37.5714C153.812 36.3447 153.945 35.7314 154.079 35.7314C154.185 35.7314 154.265 35.7847 154.319 35.8914C154.319 35.9447 154.332 35.9581 154.359 35.9314C154.385 35.9047 154.399 35.8647 154.399 35.8114C154.425 35.6781 154.479 35.5981 154.559 35.5714C154.639 35.5447 154.705 35.5981 154.759 35.7314V35.7714C154.865 35.7714 154.959 35.6381 155.039 35.3714C155.225 35.0247 155.452 34.8114 155.719 34.7314C155.852 34.6781 156.292 34.6514 157.039 34.6514C157.545 34.6514 158.025 34.6647 158.479 34.6914C158.959 34.7181 159.225 34.7581 159.279 34.8114C159.385 34.9181 159.479 34.9714 159.559 34.9714C159.825 35.0514 159.985 35.1314 160.039 35.2114C160.119 35.2914 160.159 35.5181 160.159 35.8914C160.159 36.3981 160.145 36.8781 160.119 37.3314L160.039 39.5314L160.399 39.4114C161.439 39.0914 162.212 38.7581 162.719 38.4114C162.932 38.2781 163.065 38.1581 163.119 38.0514C163.199 37.9181 163.252 37.7047 163.279 37.4114C163.305 37.1181 163.332 36.9314 163.359 36.8514C163.412 36.7714 163.492 36.7447 163.599 36.7714H163.719C163.825 36.7714 163.905 36.7047 163.959 36.5714C163.985 36.4647 164.012 36.3981 164.039 36.3714C164.092 36.3447 164.132 36.3714 164.159 36.4514L164.239 36.4914C164.319 36.4914 164.372 36.3714 164.399 36.1314C164.452 35.9181 164.532 35.7714 164.639 35.6914C164.745 35.6114 164.932 35.5181 165.199 35.4114C165.785 35.1981 166.639 35.0914 167.759 35.0914C168.319 35.0914 168.719 35.1314 168.959 35.2114C169.172 35.2914 169.319 35.3847 169.399 35.4914C169.479 35.5714 169.532 35.7447 169.559 36.0114C169.639 36.3581 169.679 36.8114 169.679 37.3714C169.679 37.8781 169.745 38.2514 169.879 38.4914C170.012 38.7047 170.239 38.8114 170.559 38.8114C170.745 38.8114 171.039 38.7447 171.439 38.6114C172.159 38.3714 172.719 38.1314 173.119 37.8914C173.545 37.6247 174.225 37.0914 175.159 36.2914L176.879 34.8514L177.159 35.1714C177.319 35.3314 177.465 35.4247 177.599 35.4514C177.732 35.4781 178.119 35.4914 178.759 35.4914C179.212 35.4914 179.625 35.5447 179.999 35.6514C180.399 35.7314 180.625 35.8247 180.679 35.9314C180.732 36.0914 180.799 36.8781 180.879 38.2914C180.985 39.7047 181.065 41.1981 181.119 42.7714V44.0914ZM154.679 36.8114C154.679 36.5714 154.639 36.5981 154.559 36.8914C154.479 37.2914 154.439 37.5314 154.439 37.6114C154.439 37.7714 154.452 37.8514 154.479 37.8514L154.559 37.5314C154.639 37.2914 154.679 37.0514 154.679 36.8114ZM172.359 44.4114C172.545 44.4647 172.612 44.4381 172.559 44.3314C172.532 44.3047 172.492 44.2914 172.439 44.2914C172.385 44.2914 172.332 44.3047 172.279 44.3314C172.225 44.3314 172.212 44.3447 172.239 44.3714C172.265 44.3981 172.305 44.4114 172.359 44.4114ZM161.319 44.7314L160.759 44.8114C160.305 44.8647 160.025 44.9181 159.919 44.9714C159.812 45.0247 159.825 45.0914 159.959 45.1714C160.092 45.2514 160.185 45.2514 160.239 45.1714L160.799 44.8914L161.319 44.7314Z" fill="#00BBC4"/>
<path d="M190.487 56.5714L192.007 56.6914L197.647 56.9314C200.953 57.0381 202.607 57.1981 202.607 57.4114C202.607 57.4114 202.58 57.4247 202.527 57.4514C202.5 57.4514 202.447 57.4514 202.367 57.4514L201.847 57.4114C201.447 57.4114 201.313 57.4247 201.447 57.4514C202.087 57.5847 202.66 57.8114 203.167 58.1314C203.673 58.4247 203.833 58.6647 203.647 58.8514C203.54 58.9581 203.487 59.0914 203.487 59.2514C203.487 59.4647 203.567 59.6114 203.727 59.6914C203.78 59.7181 203.82 59.7581 203.847 59.8114C203.873 59.8381 203.86 59.8514 203.807 59.8514C203.673 59.8514 203.607 59.9181 203.607 60.0514C203.607 60.2114 203.673 60.2914 203.807 60.2914C203.86 60.2914 203.873 60.3181 203.847 60.3714C203.82 60.3981 203.78 60.4247 203.727 60.4514C203.567 60.5314 203.487 60.6514 203.487 60.8114C203.487 60.9447 203.407 61.0114 203.247 61.0114C203.113 61.0114 203.047 61.0381 203.047 61.0914C203.047 61.1447 203.113 61.2647 203.247 61.4514C203.353 61.5581 203.407 61.6381 203.407 61.6914C203.407 61.9047 203.193 62.0781 202.767 62.2114C202.367 62.3447 201.607 62.4514 200.487 62.5314C199.393 62.6114 197.753 62.6914 195.567 62.7714C193.62 62.8247 192.06 62.8781 190.887 62.9314C189.74 62.9847 189.02 63.0381 188.727 63.0914C188.46 63.1714 188.233 63.3181 188.047 63.5314C187.913 63.6914 187.807 63.7847 187.727 63.8114C187.673 63.8647 187.647 63.8381 187.647 63.7314C187.62 63.5981 187.527 63.4781 187.367 63.3714C187.207 63.2647 187.073 63.2514 186.967 63.3314C186.86 63.3847 186.78 63.4781 186.727 63.6114C186.7 63.6914 186.673 63.7314 186.647 63.7314C186.62 63.7314 186.607 63.6914 186.607 63.6114C186.607 63.4247 186.54 63.3314 186.407 63.3314C186.273 63.3314 186.18 63.4247 186.127 63.6114C186.127 63.6914 186.113 63.7181 186.087 63.6914C186.06 63.6914 186.047 63.6514 186.047 63.5714C186.02 63.3847 185.913 63.1981 185.727 63.0114C185.54 62.8514 185.34 62.7581 185.127 62.7314C184.913 62.7314 184.727 62.7047 184.567 62.6514C184.433 62.5981 184.34 62.5047 184.287 62.3714C184.26 62.2381 184.313 62.1714 184.447 62.1714C184.5 62.1714 184.513 62.1581 184.487 62.1314C184.487 62.0781 184.447 62.0381 184.367 62.0114C184.18 61.9047 184.153 61.8114 184.287 61.7314L184.327 61.6514C184.327 61.5981 184.193 61.5314 183.927 61.4514C183.633 61.3714 183.433 61.2247 183.327 61.0114C183.247 60.7714 183.207 60.3047 183.207 59.6114C183.207 58.3047 183.3 57.4514 183.487 57.0514C183.7 56.7314 183.78 56.5314 183.727 56.4514C183.727 56.3981 183.887 56.3714 184.207 56.3714H184.687L184.767 54.9314L184.847 52.8914V52.2914H184.247L183.247 52.1714L183.127 52.0914C183.127 52.0647 183.313 52.0514 183.687 52.0514C184.22 51.9981 184.5 51.9581 184.527 51.9314C184.58 51.8781 184.42 51.8514 184.047 51.8514C183.78 51.8514 183.433 51.7714 183.007 51.6114C182.607 51.4514 182.273 51.2781 182.007 51.0914C181.74 50.9047 181.673 50.7714 181.807 50.6914C181.887 50.6114 181.953 50.4781 182.007 50.2914C182.06 50.1581 182.073 50.0647 182.047 50.0114C182.02 49.9581 181.953 49.9047 181.847 49.8514C181.713 49.8247 181.633 49.7981 181.607 49.7714C181.607 49.7447 181.66 49.6781 181.767 49.5714C181.873 49.4381 181.913 49.3581 181.887 49.3314C181.887 49.3047 181.833 49.2781 181.727 49.2514C181.62 49.1981 181.567 49.1581 181.567 49.1314C181.567 49.1047 181.62 49.0781 181.727 49.0514C181.78 49.0247 181.833 48.9847 181.887 48.9314C181.94 48.8781 181.967 48.8114 181.967 48.7314C181.967 48.5981 182.033 48.5314 182.167 48.5314C182.3 48.5314 182.367 48.4914 182.367 48.4114C182.367 48.3047 182.3 48.1981 182.167 48.0914C182.087 47.9581 182.047 47.8781 182.047 47.8514C182.047 47.7981 182.113 47.7047 182.247 47.5714C182.513 47.3581 182.967 47.1847 183.607 47.0514L184.647 46.8114L184.687 46.2114C184.74 45.8381 184.687 45.1981 184.527 44.2914C184.367 43.3314 184.287 42.7314 184.287 42.4914C184.287 41.5581 184.14 41.0914 183.847 41.0914C183.687 41.0914 183.593 41.0247 183.567 40.8914C183.54 40.7314 183.593 40.6514 183.727 40.6514C183.78 40.6514 183.78 40.6381 183.727 40.6114C183.7 40.5581 183.647 40.5181 183.567 40.4914C183.433 40.4381 183.353 40.3981 183.327 40.3714C183.3 40.3181 183.34 40.2781 183.447 40.2514C183.527 40.1981 183.567 40.1714 183.567 40.1714C183.567 40.1181 183.433 40.0514 183.167 39.9714C182.9 39.8914 182.727 39.8114 182.647 39.7314C182.567 39.6247 182.487 39.4114 182.407 39.0914C182.353 38.9047 182.327 38.5447 182.327 38.0114C182.327 36.8647 182.433 36.0114 182.647 35.4514L182.887 34.8514L190.407 34.8914C196.033 34.8914 199.247 34.8647 200.047 34.8114C201.407 34.7581 202.06 34.7447 202.007 34.7714C201.82 34.8247 201.553 34.8781 201.207 34.9314C200.967 34.9581 200.847 34.9981 200.847 35.0514L201.647 35.1314C202.18 35.1847 202.673 35.3181 203.127 35.5314C203.607 35.7181 203.74 35.8514 203.527 35.9314C203.42 35.9847 203.367 36.0781 203.367 36.2114C203.367 36.2914 203.42 36.4647 203.527 36.7314C203.633 36.8914 203.687 37.0381 203.687 37.1714C203.687 37.3047 203.74 37.3714 203.847 37.3714H203.887C203.913 37.3714 203.927 37.3847 203.927 37.4114C203.927 37.4914 203.887 37.6114 203.807 37.7714C203.62 38.0381 203.5 38.1714 203.447 38.1714C203.367 38.1714 203.327 38.2114 203.327 38.2914C203.327 38.4247 203.433 38.5314 203.647 38.6114C203.78 38.6381 203.847 38.6781 203.847 38.7314C203.847 38.7847 203.713 38.9447 203.447 39.2114L202.967 39.7314V45.3714C202.967 47.9047 202.953 49.5181 202.927 50.2114C202.9 50.8781 202.82 51.3314 202.687 51.5714C202.527 51.9447 202.313 52.1581 202.047 52.2114C201.78 52.2647 199.833 52.2914 196.207 52.2914L190.767 52.2514L190.647 53.6914L190.487 56.5714ZM190.807 41.2114C190.78 41.2381 190.767 41.5581 190.767 42.1714C190.767 43.0247 190.793 43.9314 190.847 44.8914C190.9 45.8514 190.953 46.3314 191.007 46.3314L193.047 46.1714C194.407 46.0647 195.313 45.9714 195.767 45.8914L196.607 45.7314L196.687 43.2914V40.8114C196.633 40.7581 195.647 40.7981 193.727 40.9314C191.807 41.0647 190.833 41.1581 190.807 41.2114ZM197.087 40.8114C197.06 40.8114 197.047 40.8914 197.047 41.0514C197.047 41.2114 197.06 41.3581 197.087 41.4914C197.113 41.5981 197.14 41.6647 197.167 41.6914C197.193 41.6914 197.207 41.5447 197.207 41.2514C197.207 40.9581 197.167 40.8114 197.087 40.8114ZM197.607 40.9314C197.58 40.8781 197.553 40.8781 197.527 40.9314C197.527 40.9581 197.527 41.0114 197.527 41.0914C197.527 41.1714 197.527 41.2381 197.527 41.2914C197.553 41.3447 197.58 41.3447 197.607 41.2914C197.66 41.1581 197.66 41.0381 197.607 40.9314ZM197.447 42.6514C197.447 42.6781 197.433 42.7314 197.407 42.8114C197.407 42.8914 197.407 42.9981 197.407 43.1314C197.407 43.3181 197.407 43.4647 197.407 43.5714C197.433 43.6514 197.46 43.6381 197.487 43.5314V42.7314L197.447 42.6514ZM197.447 44.5314C197.447 44.5581 197.433 44.6114 197.407 44.6914C197.407 44.7714 197.407 44.8781 197.407 45.0114C197.407 45.1981 197.407 45.3447 197.407 45.4514C197.433 45.5314 197.46 45.5181 197.487 45.4114V44.6114L197.447 44.5314Z" fill="#00BBC4"/>
</svg>
