<svg width="282" height="138" viewBox="0 0 282 138" fill="none" xmlns="http://www.w3.org/2000/svg">
<g filter="url(#filter0_d_30_629)">
<path fill-rule="evenodd" clip-rule="evenodd" d="M19.2136 29.8837H262.788C271.072 29.8837 278 36.61 278 44.9771V114.76C278 123.127 271.072 130 262.788 130H19.2136C10.9273 130 3.99988 123.127 3.99988 114.76V44.9771C3.99988 36.61 10.9273 29.8837 19.2136 29.8837Z" fill="#1C1C1C"/>
<path fill-rule="evenodd" clip-rule="evenodd" d="M18.6098 28.9875H263.388C271.522 28.9875 277.998 35.4122 277.998 43.3319V110.126C277.998 118.194 271.522 124.619 263.388 124.619H18.6098C10.6262 124.619 3.99988 118.194 3.99988 110.126V43.3319C3.99988 35.4122 10.6262 28.9875 18.6098 28.9875Z" fill="#353535"/>
<path fill-rule="evenodd" clip-rule="evenodd" d="M19.2136 21.5166H262.788C271.072 21.5166 278 28.3901 278 36.61V106.541C278 114.911 271.072 121.633 262.788 121.633H19.2136C10.9273 121.633 3.99988 114.91 3.99988 106.541V36.61C3.99988 28.3901 10.9273 21.5166 19.2136 21.5166Z" fill="#1C1C1C"/>
<path fill-rule="evenodd" clip-rule="evenodd" d="M27.9493 12.1033H252.092C259.926 12.1033 266.251 18.3794 266.251 26.0004V90.5515C266.251 98.1726 259.925 104.449 252.092 104.449H27.9493C20.2698 104.449 13.9431 98.1726 13.9431 90.5515V26.0004C13.9431 18.3794 20.2698 12.1033 27.9493 12.1033Z" fill="#19CFD8"/>
<path fill-rule="evenodd" clip-rule="evenodd" d="M27.9493 2.68854H252.092C259.926 2.68854 266.251 8.96608 266.251 16.5871V81.1398C266.251 88.7578 259.925 95.0353 252.092 95.0353H27.9493C20.2698 95.0353 13.9431 88.7578 13.9431 81.1398V16.5871C13.9431 8.96608 20.2698 2.68854 27.9493 2.68854Z" fill="#48F6FF"/>
<path fill-rule="evenodd" clip-rule="evenodd" d="M27.9493 4.57764e-05H252.092C259.926 4.57764e-05 266.251 6.27608 266.251 13.8956V78.4498C266.251 86.0678 259.925 92.3468 252.092 92.3468H27.9493C20.2698 92.3468 13.9431 86.0678 13.9431 78.4498V13.8956C13.9431 6.27608 20.2698 4.57764e-05 27.9493 4.57764e-05Z" fill="#18EBFF"/>
<path d="M92.1363 56.4752C92.5363 56.9552 92.7896 57.2885 92.8963 57.4752C93.003 57.6618 93.0163 57.7818 92.9363 57.8352C92.7763 57.9418 92.723 58.0618 92.7763 58.1952C92.8296 58.3285 92.7763 58.3552 92.6163 58.2752C92.4563 58.2218 92.3896 58.2352 92.4163 58.3152L92.6563 58.7952C92.7363 58.9552 92.7763 59.0752 92.7763 59.1552C92.7763 59.2352 92.7363 59.3552 92.6563 59.5152C92.5763 59.6485 92.5096 59.7552 92.4563 59.8352C92.163 60.2352 91.6963 60.7418 91.0563 61.3552C90.443 61.9685 90.043 62.3018 89.8563 62.3552C89.643 62.4085 89.5096 62.4885 89.4563 62.5952C89.4296 62.6485 88.9363 62.2218 87.9763 61.3152C87.0163 60.4085 85.9363 59.3685 84.7363 58.1952C81.6696 55.1818 80.0963 53.6752 80.0163 53.6752C79.9896 53.8618 79.963 54.2485 79.9363 54.8352C79.9096 55.4218 79.8963 56.1418 79.8963 56.9952C79.8963 57.8752 79.883 58.6885 79.8563 59.4352C79.8296 60.1818 79.7896 60.6218 79.7363 60.7552L79.6563 60.9952C79.6296 60.9952 79.603 60.8085 79.5763 60.4352V59.7152L79.4563 60.3152C79.2696 61.0618 78.9763 61.7018 78.5763 62.2352C78.4963 62.3418 78.4163 62.4085 78.3363 62.4352C78.283 62.4618 78.243 62.4352 78.2163 62.3552C78.1896 62.1952 78.043 62.1152 77.7763 62.1152C77.5363 62.1152 77.3763 62.1952 77.2963 62.3552C77.1896 62.5418 77.1363 62.5685 77.1363 62.4352C77.1363 62.3018 77.0296 62.2618 76.8163 62.3152H76.7363C76.603 62.3152 76.4163 62.2218 76.1763 62.0352C76.043 61.8752 75.9363 61.7952 75.8563 61.7952C75.803 61.7685 75.7363 61.8085 75.6563 61.9152C75.523 62.0485 75.4163 62.1152 75.3363 62.1152C74.8296 62.1152 74.4563 60.4752 74.2163 57.1952L74.1363 55.8352L73.8963 52.2352L73.6563 48.3152C73.6296 48.0752 73.6163 47.6485 73.6163 47.0352C73.6163 46.3952 73.6296 45.9552 73.6563 45.7152C73.763 44.6485 73.843 43.9952 73.8963 43.7552C73.9496 43.4885 74.0296 43.3818 74.1363 43.4352C74.2696 43.4885 74.363 43.4485 74.4163 43.3152C74.4696 43.1818 74.5363 43.1952 74.6163 43.3552C74.6696 43.4085 74.7096 43.4352 74.7363 43.4352C74.843 43.4352 74.9763 43.1685 75.1363 42.6352C75.2696 42.3152 75.923 42.1552 77.0963 42.1552C77.843 42.1552 78.3496 42.1818 78.6163 42.2352C78.9096 42.2618 79.1896 42.3285 79.4563 42.4352L79.8563 42.5552C80.0163 42.6085 80.1096 42.7285 80.1363 42.9152C80.163 43.0752 80.1763 43.6218 80.1763 44.5552V45.3952C80.1763 46.1152 80.1896 46.4885 80.2163 46.5152C80.2696 46.5685 80.6696 46.3018 81.4163 45.7152C82.1896 45.1285 82.803 44.6085 83.2563 44.1552C83.683 43.7018 84.0963 43.1418 84.4963 42.4752C84.923 41.7818 85.203 41.2085 85.3363 40.7552L85.4163 40.4352L83.6563 40.5152C82.8296 40.5685 81.5896 40.5952 79.9363 40.5952C78.0163 40.5952 76.683 40.5418 75.9363 40.4352C75.2963 40.3552 74.8696 40.2752 74.6563 40.1952C74.443 40.0885 74.3763 39.9685 74.4563 39.8352C74.5096 39.7818 74.4696 39.7552 74.3363 39.7552C74.203 39.7552 74.203 39.6885 74.3363 39.5552C74.363 39.5285 74.3763 39.4618 74.3763 39.3552C74.3763 39.2752 74.3363 39.1952 74.2563 39.1152C74.1763 39.0352 74.083 38.9952 73.9763 38.9952C73.6296 38.9952 73.4563 38.4752 73.4563 37.4352C73.4563 36.5552 73.4696 35.9685 73.4963 35.6752C73.5496 35.3552 73.643 34.9685 73.7763 34.5152L73.9763 33.8752L75.7363 33.9952C77.7363 34.0752 80.323 34.1552 83.4963 34.2352C87.5496 34.3418 89.683 34.4352 89.8963 34.5152C90.163 34.6218 90.4296 34.8218 90.6963 35.1152C90.9896 35.3818 91.2163 35.6885 91.3763 36.0352C91.483 36.2218 91.5496 36.3952 91.5763 36.5552C91.6296 36.7152 91.6563 36.9418 91.6563 37.2352C91.6563 42.4085 89.7496 46.4618 85.9363 49.3952L84.8563 50.2352L85.5363 50.8352C86.9496 52.0618 88.0963 53.0085 88.9763 53.6752C89.883 54.3418 90.5096 54.8218 90.8563 55.1152C91.203 55.4085 91.6296 55.8618 92.1363 56.4752ZM76.1763 39.7152C76.4163 39.7152 76.3896 39.6752 76.0963 39.5952C75.883 39.5152 75.6696 39.4752 75.4563 39.4752C75.1896 39.4752 75.2163 39.5152 75.5363 39.5952C75.9363 39.6752 76.1496 39.7152 76.1763 39.7152ZM74.6963 44.5152C74.723 44.0618 74.7096 43.9285 74.6563 44.1152C74.603 44.3018 74.563 44.5818 74.5363 44.9552C74.5096 45.3018 74.523 45.4485 74.5763 45.3952L74.6963 44.5152ZM92.3363 58.0352C92.363 58.0352 92.283 57.9018 92.0963 57.6352C91.883 57.3152 91.6963 57.1152 91.5363 57.0352C91.3763 56.9018 91.363 56.9285 91.4963 57.1152C91.9763 57.7285 92.2563 58.0352 92.3363 58.0352Z" fill="white"/>
<path d="M100.776 55.8752L102.296 55.9952L107.936 56.2352C111.242 56.3418 112.896 56.5018 112.896 56.7152C112.896 56.7152 112.869 56.7285 112.816 56.7552C112.789 56.7552 112.736 56.7552 112.656 56.7552L112.136 56.7152C111.736 56.7152 111.602 56.7285 111.736 56.7552C112.376 56.8885 112.949 57.1152 113.456 57.4352C113.962 57.7285 114.122 57.9685 113.936 58.1552C113.829 58.2618 113.776 58.3952 113.776 58.5552C113.776 58.7685 113.856 58.9152 114.016 58.9952C114.069 59.0218 114.109 59.0618 114.136 59.1152C114.162 59.1418 114.149 59.1552 114.096 59.1552C113.962 59.1552 113.896 59.2218 113.896 59.3552C113.896 59.5152 113.962 59.5952 114.096 59.5952C114.149 59.5952 114.162 59.6218 114.136 59.6752C114.109 59.7018 114.069 59.7285 114.016 59.7552C113.856 59.8352 113.776 59.9552 113.776 60.1152C113.776 60.2485 113.696 60.3152 113.536 60.3152C113.402 60.3152 113.336 60.3418 113.336 60.3952C113.336 60.4485 113.402 60.5685 113.536 60.7552C113.642 60.8618 113.696 60.9418 113.696 60.9952C113.696 61.2085 113.482 61.3818 113.056 61.5152C112.656 61.6485 111.896 61.7552 110.776 61.8352C109.682 61.9152 108.042 61.9952 105.856 62.0752C103.909 62.1285 102.349 62.1818 101.176 62.2352C100.029 62.2885 99.309 62.3418 99.0157 62.3952C98.749 62.4752 98.5223 62.6218 98.3357 62.8352C98.2023 62.9952 98.0957 63.0885 98.0157 63.1152C97.9623 63.1685 97.9357 63.1418 97.9357 63.0352C97.909 62.9018 97.8157 62.7818 97.6557 62.6752C97.4957 62.5685 97.3623 62.5552 97.2557 62.6352C97.149 62.6885 97.069 62.7818 97.0157 62.9152C96.989 62.9952 96.9623 63.0352 96.9357 63.0352C96.909 63.0352 96.8957 62.9952 96.8957 62.9152C96.8957 62.7285 96.829 62.6352 96.6957 62.6352C96.5623 62.6352 96.469 62.7285 96.4157 62.9152C96.4157 62.9952 96.4023 63.0218 96.3757 62.9952C96.349 62.9952 96.3357 62.9552 96.3357 62.8752C96.309 62.6885 96.2023 62.5018 96.0157 62.3152C95.829 62.1552 95.629 62.0618 95.4157 62.0352C95.2023 62.0352 95.0157 62.0085 94.8557 61.9552C94.7223 61.9018 94.629 61.8085 94.5757 61.6752C94.549 61.5418 94.6023 61.4752 94.7357 61.4752C94.789 61.4752 94.8023 61.4618 94.7757 61.4352C94.7757 61.3818 94.7357 61.3418 94.6557 61.3152C94.469 61.2085 94.4423 61.1152 94.5757 61.0352L94.6157 60.9552C94.6157 60.9018 94.4823 60.8352 94.2157 60.7552C93.9223 60.6752 93.7223 60.5285 93.6157 60.3152C93.5357 60.0752 93.4957 59.6085 93.4957 58.9152C93.4957 57.6085 93.589 56.7552 93.7757 56.3552C93.989 56.0352 94.069 55.8352 94.0157 55.7552C94.0157 55.7018 94.1757 55.6752 94.4957 55.6752H94.9757L95.0557 54.2352L95.1357 52.1952V51.5952H94.5357L93.5357 51.4752L93.4157 51.3952C93.4157 51.3685 93.6023 51.3552 93.9757 51.3552C94.509 51.3018 94.789 51.2618 94.8157 51.2352C94.869 51.1818 94.709 51.1552 94.3357 51.1552C94.069 51.1552 93.7223 51.0752 93.2957 50.9152C92.8957 50.7552 92.5623 50.5818 92.2957 50.3952C92.029 50.2085 91.9623 50.0752 92.0957 49.9952C92.1757 49.9152 92.2423 49.7818 92.2957 49.5952C92.349 49.4618 92.3623 49.3685 92.3357 49.3152C92.309 49.2618 92.2423 49.2085 92.1357 49.1552C92.0023 49.1285 91.9223 49.1018 91.8957 49.0752C91.8957 49.0485 91.949 48.9818 92.0557 48.8752C92.1623 48.7418 92.2023 48.6618 92.1757 48.6352C92.1757 48.6085 92.1223 48.5818 92.0157 48.5552C91.909 48.5018 91.8557 48.4618 91.8557 48.4352C91.8557 48.4085 91.909 48.3818 92.0157 48.3552C92.069 48.3285 92.1223 48.2885 92.1757 48.2352C92.229 48.1818 92.2557 48.1152 92.2557 48.0352C92.2557 47.9018 92.3223 47.8352 92.4557 47.8352C92.589 47.8352 92.6557 47.7952 92.6557 47.7152C92.6557 47.6085 92.589 47.5018 92.4557 47.3952C92.3757 47.2618 92.3357 47.1818 92.3357 47.1552C92.3357 47.1018 92.4023 47.0085 92.5357 46.8752C92.8023 46.6618 93.2557 46.4885 93.8957 46.3552L94.9357 46.1152L94.9757 45.5152C95.029 45.1418 94.9757 44.5018 94.8157 43.5952C94.6557 42.6352 94.5757 42.0352 94.5757 41.7952C94.5757 40.8618 94.429 40.3952 94.1357 40.3952C93.9757 40.3952 93.8823 40.3285 93.8557 40.1952C93.829 40.0352 93.8823 39.9552 94.0157 39.9552C94.069 39.9552 94.069 39.9418 94.0157 39.9152C93.989 39.8618 93.9357 39.8218 93.8557 39.7952C93.7223 39.7418 93.6423 39.7018 93.6157 39.6752C93.589 39.6218 93.629 39.5818 93.7357 39.5552C93.8157 39.5018 93.8557 39.4752 93.8557 39.4752C93.8557 39.4218 93.7223 39.3552 93.4557 39.2752C93.189 39.1952 93.0157 39.1152 92.9357 39.0352C92.8557 38.9285 92.7757 38.7152 92.6957 38.3952C92.6423 38.2085 92.6157 37.8485 92.6157 37.3152C92.6157 36.1685 92.7223 35.3152 92.9357 34.7552L93.1757 34.1552L100.696 34.1952C106.322 34.1952 109.536 34.1685 110.336 34.1152C111.696 34.0618 112.349 34.0485 112.296 34.0752C112.109 34.1285 111.842 34.1818 111.496 34.2352C111.256 34.2618 111.136 34.3018 111.136 34.3552L111.936 34.4352C112.469 34.4885 112.962 34.6218 113.416 34.8352C113.896 35.0218 114.029 35.1552 113.816 35.2352C113.709 35.2885 113.656 35.3818 113.656 35.5152C113.656 35.5952 113.709 35.7685 113.816 36.0352C113.922 36.1952 113.976 36.3418 113.976 36.4752C113.976 36.6085 114.029 36.6752 114.136 36.6752H114.176C114.202 36.6752 114.216 36.6885 114.216 36.7152C114.216 36.7952 114.176 36.9152 114.096 37.0752C113.909 37.3418 113.789 37.4752 113.736 37.4752C113.656 37.4752 113.616 37.5152 113.616 37.5952C113.616 37.7285 113.722 37.8352 113.936 37.9152C114.069 37.9418 114.136 37.9818 114.136 38.0352C114.136 38.0885 114.002 38.2485 113.736 38.5152L113.256 39.0352V44.6752C113.256 47.2085 113.242 48.8218 113.216 49.5152C113.189 50.1818 113.109 50.6352 112.976 50.8752C112.816 51.2485 112.602 51.4618 112.336 51.5152C112.069 51.5685 110.122 51.5952 106.496 51.5952L101.056 51.5552L100.936 52.9952L100.776 55.8752ZM101.096 40.5152C101.069 40.5418 101.056 40.8618 101.056 41.4752C101.056 42.3285 101.082 43.2352 101.136 44.1952C101.189 45.1552 101.242 45.6352 101.296 45.6352L103.336 45.4752C104.696 45.3685 105.602 45.2752 106.056 45.1952L106.896 45.0352L106.976 42.5952V40.1152C106.922 40.0618 105.936 40.1018 104.016 40.2352C102.096 40.3685 101.122 40.4618 101.096 40.5152ZM107.376 40.1152C107.349 40.1152 107.336 40.1952 107.336 40.3552C107.336 40.5152 107.349 40.6618 107.376 40.7952C107.402 40.9018 107.429 40.9685 107.456 40.9952C107.482 40.9952 107.496 40.8485 107.496 40.5552C107.496 40.2618 107.456 40.1152 107.376 40.1152ZM107.896 40.2352C107.869 40.1818 107.842 40.1818 107.816 40.2352C107.816 40.2618 107.816 40.3152 107.816 40.3952C107.816 40.4752 107.816 40.5418 107.816 40.5952C107.842 40.6485 107.869 40.6485 107.896 40.5952C107.949 40.4618 107.949 40.3418 107.896 40.2352ZM107.736 41.9552C107.736 41.9818 107.722 42.0352 107.696 42.1152C107.696 42.1952 107.696 42.3018 107.696 42.4352C107.696 42.6218 107.696 42.7685 107.696 42.8752C107.722 42.9552 107.749 42.9418 107.776 42.8352V42.0352L107.736 41.9552ZM107.736 43.8352C107.736 43.8618 107.722 43.9152 107.696 43.9952C107.696 44.0752 107.696 44.1818 107.696 44.3152C107.696 44.5018 107.696 44.6485 107.696 44.7552C107.722 44.8352 107.749 44.8218 107.776 44.7152V43.9152L107.736 43.8352Z" fill="white"/>
<path d="M134.689 48.6752C134.849 48.8352 134.876 48.9152 134.769 48.9152C134.636 48.9152 134.596 49.0085 134.649 49.1952L134.689 49.3152C134.689 49.3952 134.623 49.5685 134.489 49.8352C134.383 49.9685 134.316 50.0618 134.289 50.1152C134.289 50.1685 134.329 50.2618 134.409 50.3952C134.489 50.4752 134.529 50.5552 134.529 50.6352C134.529 50.7152 134.449 50.8352 134.289 50.9952C133.969 51.2618 133.623 51.4085 133.249 51.4352C132.929 51.4885 132.729 51.5552 132.649 51.6352C132.596 51.7152 132.529 51.9152 132.449 52.2352C132.289 52.8485 131.943 53.6485 131.409 54.6352C130.903 55.5952 130.409 56.3552 129.929 56.9152C129.156 57.8218 128.236 58.6752 127.169 59.4752C126.129 60.2485 125.183 60.7952 124.329 61.1152C123.636 61.3818 122.823 61.5952 121.889 61.7552C120.956 61.9152 120.076 61.9952 119.249 61.9952C118.476 61.9952 117.863 61.9152 117.409 61.7552L117.009 61.6352C117.009 61.6085 117.076 61.5952 117.209 61.5952C117.876 61.5952 118.289 61.6085 118.449 61.6352C118.636 61.6352 118.729 61.6352 118.729 61.6352C118.463 61.6352 117.983 61.5285 117.289 61.3152C116.623 61.1018 116.249 60.9418 116.169 60.8352L115.689 60.4352C115.583 60.3285 115.503 60.2485 115.449 60.1952C115.396 60.1418 115.409 60.1152 115.489 60.1152C115.623 60.1152 115.716 60.0218 115.769 59.8352C115.849 59.6218 115.836 59.4485 115.729 59.3152C115.623 59.1552 115.596 59.0085 115.649 58.8752C115.703 58.8218 115.716 58.7685 115.689 58.7152C115.663 58.6618 115.623 58.6352 115.569 58.6352C115.543 58.6352 115.529 58.6218 115.529 58.5952C115.529 58.5418 115.609 58.4352 115.769 58.2752C116.063 58.0352 116.249 57.9152 116.329 57.9152C116.409 57.9152 116.449 57.8752 116.449 57.7952C116.449 57.6885 116.396 57.6085 116.289 57.5552C116.209 57.5018 116.169 57.4352 116.169 57.3552C116.169 57.1685 116.303 57.0352 116.569 56.9552C116.703 56.8752 117.343 56.7552 118.489 56.5952C119.796 56.4618 120.889 56.2218 121.769 55.8752C122.676 55.5285 123.463 55.0352 124.129 54.3952C124.503 54.0485 124.863 53.6352 125.209 53.1552C125.583 52.6752 125.769 52.3685 125.769 52.2352C125.769 52.1552 125.596 52.1152 125.249 52.1152C124.743 52.1152 124.023 52.1952 123.089 52.3552C122.476 52.4618 121.889 52.5152 121.329 52.5152C121.169 52.5152 120.556 52.4885 119.489 52.4352C117.463 52.3285 116.689 52.1285 117.169 51.8352C117.249 51.7818 117.263 51.7418 117.209 51.7152C117.183 51.6618 117.116 51.6218 117.009 51.5952C116.876 51.5685 116.796 51.5418 116.769 51.5152C116.769 51.4618 116.836 51.4218 116.969 51.3952C117.076 51.3418 117.129 51.3018 117.129 51.2752C117.129 51.2485 116.983 51.2085 116.689 51.1552C116.369 51.1018 116.143 50.9818 116.009 50.7952C115.903 50.6085 115.823 50.2352 115.769 49.6752C115.716 49.1418 115.769 48.2218 115.929 46.9152C116.089 45.5818 116.263 44.6218 116.449 44.0352C117.489 40.6485 120.049 37.7818 124.129 35.4352C124.983 34.9552 125.796 34.6085 126.569 34.3952C127.369 34.1818 128.263 34.0752 129.249 34.0752C130.183 34.0752 130.796 34.1018 131.089 34.1552C131.409 34.2085 131.569 34.3152 131.569 34.4752C131.569 34.6085 131.623 34.6752 131.729 34.6752C131.836 34.6752 131.836 34.7418 131.729 34.8752C131.649 34.9552 131.609 35.0218 131.609 35.0752C131.636 35.1285 131.716 35.1818 131.849 35.2352C132.063 35.3418 132.236 35.3952 132.369 35.3952C132.529 35.3952 132.623 35.4352 132.649 35.5152C132.836 35.8085 132.929 36.5685 132.929 37.7952C132.929 38.7818 132.863 39.4085 132.729 39.6752C132.543 39.9952 132.476 40.1818 132.529 40.2352C132.583 40.2885 132.383 40.3418 131.929 40.3952C131.503 40.4485 130.876 40.4885 130.049 40.5152C128.343 40.5952 126.809 41.0218 125.449 41.7952C124.089 42.5685 123.023 43.6352 122.249 44.9952C122.089 45.2352 121.969 45.4352 121.889 45.5952C121.809 45.7552 121.756 45.8752 121.729 45.9552L124.129 46.0752C124.663 46.1018 125.223 46.1152 125.809 46.1152C126.129 46.1152 126.316 46.1018 126.369 46.0752C126.449 46.0485 126.489 45.9818 126.489 45.8752C126.489 45.6885 126.543 45.5552 126.649 45.4752C126.756 45.3952 126.849 45.4218 126.929 45.5552C126.983 45.6885 127.049 45.6352 127.129 45.3952C127.156 45.2352 127.183 45.1552 127.209 45.1552C127.263 45.1552 127.316 45.2218 127.369 45.3552C127.396 45.3818 127.409 45.4218 127.409 45.4752C127.409 45.5018 127.423 45.5152 127.449 45.5152C127.503 45.5152 127.543 45.3552 127.569 45.0352C127.623 44.7418 127.689 44.5552 127.769 44.4752C127.876 44.3685 128.116 44.2485 128.489 44.1152C129.023 43.9018 129.316 43.8218 129.369 43.8752H129.489C129.863 43.8752 130.169 43.8618 130.409 43.8352C130.783 43.7818 131.063 43.7552 131.249 43.7552C131.516 43.7552 131.756 43.7818 131.969 43.8352L132.569 43.9952L132.769 45.1152C132.849 45.5952 132.916 45.9018 132.969 46.0352C133.049 46.1685 133.169 46.2618 133.329 46.3152C133.463 46.3418 133.516 46.3685 133.489 46.3952C133.489 46.4218 133.409 46.4352 133.249 46.4352C133.169 46.4352 133.103 46.4485 133.049 46.4752C132.996 46.4752 132.956 46.4752 132.929 46.4752C132.929 46.5018 133.103 46.5952 133.449 46.7552C134.409 47.1818 134.796 47.5685 134.609 47.9152C134.529 48.0752 134.489 48.1952 134.489 48.2752C134.489 48.4085 134.556 48.5418 134.689 48.6752ZM129.169 34.8752L129.889 34.9552C130.956 35.1152 131.276 35.1152 130.849 34.9552C130.636 34.8752 130.289 34.8352 129.809 34.8352L129.169 34.8752ZM127.209 44.7552C127.209 44.5685 127.249 44.5418 127.329 44.6752C127.356 44.7285 127.356 44.7818 127.329 44.8352C127.329 44.8885 127.316 44.9285 127.289 44.9552C127.236 45.0085 127.209 44.9418 127.209 44.7552ZM117.889 51.4752C118.156 51.4752 118.249 51.4618 118.169 51.4352C118.009 51.3818 117.836 51.3818 117.649 51.4352C117.569 51.4618 117.649 51.4752 117.889 51.4752ZM119.129 51.6352C119.263 51.6352 119.369 51.6352 119.449 51.6352C119.529 51.6085 119.543 51.5818 119.489 51.5552C119.436 51.5552 119.343 51.5552 119.209 51.5552C119.076 51.5285 118.969 51.5285 118.889 51.5552L118.809 51.5952C118.809 51.6218 118.916 51.6352 119.129 51.6352Z" fill="white"/>
<path d="M153.314 42.0352C153.501 42.1418 153.554 42.3285 153.474 42.5952C153.448 42.7018 153.328 42.8352 153.114 42.9952C152.901 43.1552 152.528 43.3952 151.994 43.7152C151.301 44.0885 150.394 44.5285 149.274 45.0352C148.181 45.5152 147.568 45.7552 147.434 45.7552C147.354 45.7552 147.301 46.3018 147.274 47.3952C147.274 48.4885 147.274 50.4618 147.274 53.3152C147.248 57.4485 147.181 59.6085 147.074 59.7952C147.048 59.8752 147.008 59.9152 146.954 59.9152C146.954 59.9152 146.941 59.9018 146.914 59.8752C146.914 59.8485 146.914 59.8218 146.914 59.7952L146.954 59.3552L146.994 58.8352C146.994 58.5952 146.968 58.3952 146.914 58.2352C146.861 58.1285 146.821 58.0752 146.794 58.0752C146.768 58.0752 146.754 58.3152 146.754 58.7952C146.728 59.2752 146.674 59.7018 146.594 60.0752C146.514 60.4218 146.354 60.8218 146.114 61.2752C145.981 61.5685 145.874 61.7418 145.794 61.7952C145.741 61.8218 145.661 61.7818 145.554 61.6752C145.421 61.5418 145.274 61.4752 145.114 61.4752C144.928 61.4752 144.794 61.5685 144.714 61.7552C144.688 61.8618 144.661 61.9285 144.634 61.9552C144.608 61.9818 144.568 61.9418 144.514 61.8352C144.461 61.6752 144.381 61.5952 144.274 61.5952C144.194 61.5952 144.128 61.6752 144.074 61.8352C144.074 61.9152 144.061 61.9552 144.034 61.9552C144.008 61.9552 143.994 61.9285 143.994 61.8752C143.994 61.7685 143.888 61.6352 143.674 61.4752C143.488 61.3685 143.394 61.2218 143.394 61.0352C143.394 60.9285 143.381 60.8752 143.354 60.8752C143.328 60.8752 143.248 60.9552 143.114 61.1152C142.954 61.3285 142.834 61.4352 142.754 61.4352C142.701 61.4352 142.594 61.2885 142.434 60.9952C141.954 60.1152 141.608 56.9552 141.394 51.5152C141.368 49.7018 141.288 48.7952 141.154 48.7952C141.048 48.7952 140.488 48.9418 139.474 49.2352L137.954 49.6752L137.634 49.3152C137.368 49.0752 137.314 48.9418 137.474 48.9152C137.581 48.8618 137.434 48.8352 137.034 48.8352H136.914C136.648 48.8352 136.421 48.7818 136.234 48.6752C136.074 48.5685 135.994 48.4485 135.994 48.3152C135.994 48.1818 135.914 48.0618 135.754 47.9552C135.594 47.7952 135.448 47.4618 135.314 46.9552C135.234 46.6885 135.168 46.4618 135.114 46.2752C135.034 46.0618 134.981 45.8885 134.954 45.7552C134.874 45.5418 134.834 45.2085 134.834 44.7552L134.874 44.1552L136.194 43.6352L137.274 43.2352C138.421 42.8085 139.048 42.5685 139.154 42.5152L140.834 41.9152L140.794 40.2352C140.768 39.1685 140.808 38.0618 140.914 36.9152C141.021 35.7418 141.141 35.1552 141.274 35.1552C141.408 35.1552 141.501 35.2352 141.554 35.3952C141.554 35.4752 141.568 35.5152 141.594 35.5152C141.621 35.4885 141.634 35.4218 141.634 35.3152C141.634 35.1552 141.674 35.0618 141.754 35.0352C141.861 34.9818 141.928 35.0352 141.954 35.1952C141.954 35.3018 142.021 35.1952 142.154 34.8752C142.288 34.5818 142.474 34.3685 142.714 34.2352C142.901 34.1285 143.461 34.0752 144.394 34.0752C145.568 34.0752 146.328 34.1418 146.674 34.2752C146.888 34.3818 147.061 34.4352 147.194 34.4352C147.274 34.4352 147.314 35.2752 147.314 36.9552C147.314 38.6618 147.354 39.5152 147.434 39.5152C147.488 39.5152 148.008 39.3418 148.994 38.9952C149.981 38.6485 150.634 38.4752 150.954 38.4752L151.474 38.5152L150.914 38.7152C150.754 38.7418 150.528 38.8352 150.234 38.9952C150.208 39.0752 150.274 39.0885 150.434 39.0352C150.728 38.9018 151.021 38.8352 151.314 38.8352C151.554 38.8352 151.834 38.8885 152.154 38.9952C152.528 39.1018 152.754 39.1952 152.834 39.2752C152.914 39.3285 152.928 39.4485 152.874 39.6352V39.7952C152.874 39.9818 152.928 40.1285 153.034 40.2352C153.194 40.3418 153.274 40.4885 153.274 40.6752C153.274 40.8352 153.314 40.9018 153.394 40.8752C153.448 40.8218 153.474 40.8618 153.474 40.9952C153.474 41.1818 153.394 41.4085 153.234 41.6752C153.101 41.8085 153.128 41.9285 153.314 42.0352ZM142.034 34.7952C142.008 34.8218 141.981 34.8218 141.954 34.7952C141.954 34.7685 141.954 34.7152 141.954 34.6352C141.954 34.4485 141.981 34.4085 142.034 34.5152C142.088 34.6485 142.088 34.7418 142.034 34.7952ZM141.794 37.0352C141.874 36.6352 141.914 36.3952 141.914 36.3152C141.914 36.1552 141.901 36.0752 141.874 36.0752L141.794 36.3952C141.714 36.5818 141.674 36.8218 141.674 37.1152C141.674 37.3285 141.714 37.3018 141.794 37.0352ZM139.314 48.4352H139.274L138.954 48.4752C138.554 48.5285 138.288 48.5952 138.154 48.6752L138.114 48.7152L138.194 48.7552C138.328 48.7552 138.648 48.6618 139.154 48.4752L139.314 48.4352Z" fill="white"/>
<path d="M170.826 58.7152C170.88 59.4085 170.866 59.7552 170.786 59.7552C170.733 59.7552 170.693 59.6085 170.666 59.3152C170.64 59.0752 170.6 58.8752 170.546 58.7152C170.493 58.5552 170.453 58.4618 170.426 58.4352C170.4 58.4085 170.4 58.4885 170.426 58.6752L170.466 59.3952C170.466 60.1152 170.413 60.7685 170.306 61.3552C170.2 61.9418 170.093 62.1418 169.986 61.9552C169.96 61.9018 169.893 61.8485 169.786 61.7952C169.706 61.7418 169.613 61.7152 169.506 61.7152C169.373 61.7152 169.28 61.7285 169.226 61.7552C169.173 61.7818 169.133 61.8485 169.106 61.9552C169.08 62.0885 169.04 62.1552 168.986 62.1552C168.96 62.1818 168.893 62.1685 168.786 62.1152C168.68 62.0885 168.6 62.0752 168.546 62.0752C168.52 62.1018 168.52 62.1818 168.546 62.3152C168.546 62.4752 168.52 62.5018 168.466 62.3952C168.36 62.2352 168.226 62.1552 168.066 62.1552C167.88 62.1018 167.733 61.9685 167.626 61.7552L167.466 61.3952L167.266 61.8752C167.186 62.0885 167.133 62.2085 167.106 62.2352C167.08 62.2618 167.013 62.2218 166.906 62.1152L166.466 61.7152C166.28 61.5285 166.066 60.5152 165.826 58.6752C165.586 56.8085 165.426 55.5418 165.346 54.8752H160.946L160.826 57.2352C160.773 58.7285 160.693 59.7018 160.586 60.1552L160.466 60.7552V60.0752C160.52 59.2485 160.506 58.8352 160.426 58.8352C160.373 58.8352 160.333 59.0485 160.306 59.4752C160.28 59.8752 160.186 60.3285 160.026 60.8352C159.866 61.3152 159.693 61.7018 159.506 61.9952C159.32 62.2618 159.186 62.3418 159.106 62.2352C159 62.0485 158.84 61.9552 158.626 61.9552C158.466 61.9552 158.32 62.0618 158.186 62.2752C158.133 62.3818 158.08 62.4485 158.026 62.4752C158 62.5018 157.986 62.4618 157.986 62.3552C157.986 62.1952 157.906 62.1285 157.746 62.1552H157.626C157.36 62.1552 157.106 61.9285 156.866 61.4752C156.786 61.3418 156.733 61.2752 156.706 61.2752C156.706 61.2752 156.64 61.3818 156.506 61.5952C156.426 61.7818 156.346 61.8752 156.266 61.8752C156.186 61.8752 156.066 61.7018 155.906 61.3552C155.666 60.8218 155.466 59.5552 155.306 57.5552C155.173 55.5552 155.093 53.1418 155.066 50.3152C155.066 48.3952 155.013 46.3685 154.906 44.2352C154.8 42.5018 154.746 40.9952 154.746 39.7152C154.746 38.5418 154.8 37.5418 154.906 36.7152C155.04 35.7285 155.173 35.2352 155.306 35.2352C155.44 35.2352 155.506 35.3285 155.506 35.5152C155.533 35.6485 155.586 35.6085 155.666 35.3952C155.773 35.1285 155.866 35.0752 155.946 35.2352C156 35.3152 156.04 35.3418 156.066 35.3152C156.12 35.2618 156.16 35.1818 156.186 35.0752C156.24 34.8085 156.333 34.6218 156.466 34.5152C156.6 34.4085 156.84 34.3418 157.186 34.3152C157.666 34.2618 159.733 34.2085 163.386 34.1552L167.346 34.0752C168.466 34.0752 169.066 34.1418 169.146 34.2752C169.306 34.4352 169.52 34.5418 169.786 34.5952L170.226 34.6752L170.146 36.9552C170.066 38.2352 170.026 40.8218 170.026 44.7152C170.026 47.2485 170.226 50.9552 170.626 55.8352C170.76 57.3818 170.826 58.3418 170.826 58.7152ZM156.026 34.9152C155.973 34.9685 155.946 34.9018 155.946 34.7152C155.946 34.6618 155.96 34.6218 155.986 34.5952C156.013 34.5685 156.04 34.5818 156.066 34.6352C156.12 34.7952 156.106 34.8885 156.026 34.9152ZM161.946 39.6352C161.92 39.6352 161.893 39.6485 161.866 39.6752C161.84 39.6752 161.826 39.6752 161.826 39.6752C161.853 39.6752 161.92 39.6885 162.026 39.7152C162.16 39.7152 162.32 39.7152 162.506 39.7152C162.746 39.7152 162.933 39.7152 163.066 39.7152C163.2 39.6885 163.186 39.6618 163.026 39.6352C162.946 39.6085 162.773 39.5952 162.506 39.5952C162.24 39.5952 162.053 39.6085 161.946 39.6352ZM162.546 48.5152L164.066 48.4352L164.026 48.0752C163.973 47.7018 163.92 46.9552 163.866 45.8352C163.84 44.9552 163.76 43.7685 163.626 42.2752L163.466 40.4752H162.386C161.693 40.4752 161.32 40.5152 161.266 40.5952C161.213 40.6485 161.16 41.9952 161.106 44.6352L160.986 48.5552L162.546 48.5152ZM161.026 53.8752C160.973 53.9018 160.96 53.9285 160.986 53.9552C161.013 53.9818 161.053 53.9952 161.106 53.9952C161.293 53.9952 161.36 53.9685 161.306 53.9152C161.2 53.8618 161.106 53.8485 161.026 53.8752ZM163.226 53.9552C163.306 53.9552 163.36 53.9552 163.386 53.9552C163.44 53.9285 163.44 53.9018 163.386 53.8752H163.026C162.973 53.9018 162.973 53.9285 163.026 53.9552C163.08 53.9552 163.146 53.9552 163.226 53.9552ZM164.386 54.1152C164.546 54.1152 164.666 54.1152 164.746 54.1152C164.826 54.0885 164.813 54.0618 164.706 54.0352C164.653 54.0085 164.546 53.9952 164.386 53.9952C164.226 53.9952 164.12 54.0085 164.066 54.0352L163.986 54.0752C163.986 54.1018 164.12 54.1152 164.386 54.1152ZM161.266 54.3952C161.373 54.3952 161.453 54.3952 161.506 54.3952C161.56 54.3685 161.56 54.3418 161.506 54.3152C161.4 54.2618 161.253 54.2618 161.066 54.3152C161.013 54.3418 161 54.3685 161.026 54.3952C161.08 54.3952 161.16 54.3952 161.266 54.3952Z" fill="white"/>
<path d="M190.6 35.5152C190.707 36.2352 190.76 37.0885 190.76 38.0752C190.76 40.1018 190.547 41.9285 190.12 43.5552C189.987 44.0085 189.787 44.5818 189.52 45.2752C189.253 45.9685 189 46.5285 188.76 46.9552C188.573 47.3285 188.187 47.8618 187.6 48.5552C187.013 49.2218 186.587 49.6218 186.32 49.7552C186.213 49.8085 186.147 49.8218 186.12 49.7952C186.12 49.7685 186.16 49.7152 186.24 49.6352C186.48 49.3418 186.6 49.1685 186.6 49.1152C186.6 49.0618 186.493 49.1152 186.28 49.2752C185.933 49.4885 185.573 49.6218 185.2 49.6752C185.093 49.7018 184.973 49.7152 184.84 49.7152C184.733 49.7152 184.653 49.7018 184.6 49.6752C184.547 49.6218 184.493 49.5285 184.44 49.3952C184.333 49.1818 184.187 49.0485 184 48.9952C183.813 48.9952 183.667 48.9152 183.56 48.7552C183.533 48.7018 183.493 48.6618 183.44 48.6352C183.413 48.6085 183.387 48.6085 183.36 48.6352H183.32C183.24 48.6352 183.16 48.5418 183.08 48.3552C183.027 48.1685 183.013 48.0085 183.04 47.8752C183.04 47.7418 182.947 47.6752 182.76 47.6752C182.44 47.6752 182.28 47.5152 182.28 47.1952C182.28 46.9018 182.4 46.5418 182.64 46.1152L183.56 44.3552C183.773 43.9018 183.973 43.3552 184.16 42.7152C184.347 42.0752 184.4 41.7152 184.32 41.6352C184.267 41.5818 183.627 41.8485 182.4 42.4352C181.173 42.9952 180.373 43.3952 180 43.6352C179.573 43.8752 179.36 44.0885 179.36 44.2752L179.16 48.8352C178.92 53.7685 178.48 57.4218 177.84 59.7952C177.68 60.3818 177.573 60.6752 177.52 60.6752C177.52 60.6752 177.507 60.6618 177.48 60.6352C177.48 60.6085 177.48 60.5818 177.48 60.5552C177.48 60.3952 177.52 60.1418 177.6 59.7952C177.707 59.2085 177.76 58.8618 177.76 58.7552V58.6752C177.707 58.6752 177.64 58.8752 177.56 59.2752C177.373 60.1818 176.933 61.0885 176.24 61.9952C176.08 62.1818 175.96 62.3018 175.88 62.3552C175.8 62.4085 175.76 62.3685 175.76 62.2352C175.76 62.0218 175.667 61.8752 175.48 61.7952L175.28 61.7152C175.173 61.7152 175.08 61.7818 175 61.9152C174.867 62.1818 174.773 62.2085 174.72 61.9952C174.667 61.8618 174.587 61.7952 174.48 61.7952C174.4 61.7952 174.333 61.8752 174.28 62.0352C174.28 62.1152 174.267 62.1418 174.24 62.1152C174.213 62.1152 174.2 62.0618 174.2 61.9552C174.2 61.8752 174.173 61.7952 174.12 61.7152C174.067 61.6352 174.013 61.5818 173.96 61.5552C173.8 61.4485 173.72 61.2885 173.72 61.0752V60.7152L173.36 61.0352C173.2 61.1952 173.093 61.2885 173.04 61.3152C173.013 61.3152 172.973 61.2485 172.92 61.1152C172.867 60.9018 172.8 60.7152 172.72 60.5552C172.693 60.5018 172.68 60.3552 172.68 60.1152C172.68 59.4218 172.813 57.2085 173.08 53.4752C173.213 51.1552 173.28 49.1418 173.28 47.4352L173.24 45.1552L172.8 45.1952H172.64C172.507 45.1952 172.387 45.1552 172.28 45.0752C172.2 44.9952 172.067 44.8085 171.88 44.5152C171.56 43.9818 171.4 43.6618 171.4 43.5552C171.4 43.3952 171.36 43.3018 171.28 43.2752C171.2 43.1952 171.093 42.9018 170.96 42.3952C170.853 41.8618 170.8 41.4485 170.8 41.1552V40.9552C170.8 40.7952 170.84 40.6752 170.92 40.5952C171.027 40.5152 171.28 40.3818 171.68 40.1952L172.6 39.7552V37.3152C172.573 36.2752 172.573 35.6085 172.6 35.3152C172.627 35.0218 172.693 34.8752 172.8 34.8752C172.907 34.8752 172.987 34.9418 173.04 35.0752C173.04 35.1285 173.053 35.1285 173.08 35.0752C173.133 35.0218 173.173 34.9552 173.2 34.8752C173.253 34.7152 173.293 34.6352 173.32 34.6352C173.347 34.6352 173.387 34.7018 173.44 34.8352C173.44 34.8618 173.44 34.8885 173.44 34.9152C173.467 34.9418 173.48 34.9552 173.48 34.9552C173.507 34.9552 173.573 34.8085 173.68 34.5152C173.733 34.2752 173.8 34.1152 173.88 34.0352C173.987 33.9285 174.16 33.8352 174.4 33.7552C175.013 33.5685 175.84 33.4752 176.88 33.4752C177.44 33.4752 177.867 33.5152 178.16 33.5952L178.8 33.7552L178.88 34.7152L178.96 36.4352C178.96 36.9685 179.027 37.2352 179.16 37.2352C179.427 37.2352 180.76 36.7152 183.16 35.6752C183.96 35.3552 184.533 35.1152 184.88 34.9552C185.253 34.7685 185.507 34.6085 185.64 34.4752C185.747 34.3685 185.893 34.3152 186.08 34.3152C186.24 34.3152 186.373 34.2618 186.48 34.1552C186.64 33.9952 187.213 33.9152 188.2 33.9152C189 33.9152 189.56 33.9818 189.88 34.1152C190.147 34.2485 190.307 34.3685 190.36 34.4752C190.413 34.5818 190.493 34.9285 190.6 35.5152ZM173.4 36.6752C173.453 36.4352 173.453 36.2218 173.4 36.0352L173.36 35.9552V36.3552C173.36 36.6752 173.373 36.7818 173.4 36.6752Z" fill="white"/>
<path d="M208.861 42.0352C209.048 42.1418 209.101 42.3285 209.021 42.5952C208.995 42.7018 208.875 42.8352 208.661 42.9952C208.448 43.1552 208.075 43.3952 207.541 43.7152C206.848 44.0885 205.941 44.5285 204.821 45.0352C203.728 45.5152 203.115 45.7552 202.981 45.7552C202.901 45.7552 202.848 46.3018 202.821 47.3952C202.821 48.4885 202.821 50.4618 202.821 53.3152C202.795 57.4485 202.728 59.6085 202.621 59.7952C202.595 59.8752 202.555 59.9152 202.501 59.9152C202.501 59.9152 202.488 59.9018 202.461 59.8752C202.461 59.8485 202.461 59.8218 202.461 59.7952L202.501 59.3552L202.541 58.8352C202.541 58.5952 202.515 58.3952 202.461 58.2352C202.408 58.1285 202.368 58.0752 202.341 58.0752C202.315 58.0752 202.301 58.3152 202.301 58.7952C202.275 59.2752 202.221 59.7018 202.141 60.0752C202.061 60.4218 201.901 60.8218 201.661 61.2752C201.528 61.5685 201.421 61.7418 201.341 61.7952C201.288 61.8218 201.208 61.7818 201.101 61.6752C200.968 61.5418 200.821 61.4752 200.661 61.4752C200.475 61.4752 200.341 61.5685 200.261 61.7552C200.235 61.8618 200.208 61.9285 200.181 61.9552C200.155 61.9818 200.115 61.9418 200.061 61.8352C200.008 61.6752 199.928 61.5952 199.821 61.5952C199.741 61.5952 199.675 61.6752 199.621 61.8352C199.621 61.9152 199.608 61.9552 199.581 61.9552C199.555 61.9552 199.541 61.9285 199.541 61.8752C199.541 61.7685 199.435 61.6352 199.221 61.4752C199.035 61.3685 198.941 61.2218 198.941 61.0352C198.941 60.9285 198.928 60.8752 198.901 60.8752C198.875 60.8752 198.795 60.9552 198.661 61.1152C198.501 61.3285 198.381 61.4352 198.301 61.4352C198.248 61.4352 198.141 61.2885 197.981 60.9952C197.501 60.1152 197.155 56.9552 196.941 51.5152C196.915 49.7018 196.835 48.7952 196.701 48.7952C196.595 48.7952 196.035 48.9418 195.021 49.2352L193.501 49.6752L193.181 49.3152C192.915 49.0752 192.861 48.9418 193.021 48.9152C193.128 48.8618 192.981 48.8352 192.581 48.8352H192.461C192.195 48.8352 191.968 48.7818 191.781 48.6752C191.621 48.5685 191.541 48.4485 191.541 48.3152C191.541 48.1818 191.461 48.0618 191.301 47.9552C191.141 47.7952 190.995 47.4618 190.861 46.9552C190.781 46.6885 190.715 46.4618 190.661 46.2752C190.581 46.0618 190.528 45.8885 190.501 45.7552C190.421 45.5418 190.381 45.2085 190.381 44.7552L190.421 44.1552L191.741 43.6352L192.821 43.2352C193.968 42.8085 194.595 42.5685 194.701 42.5152L196.381 41.9152L196.341 40.2352C196.315 39.1685 196.355 38.0618 196.461 36.9152C196.568 35.7418 196.688 35.1552 196.821 35.1552C196.955 35.1552 197.048 35.2352 197.101 35.3952C197.101 35.4752 197.115 35.5152 197.141 35.5152C197.168 35.4885 197.181 35.4218 197.181 35.3152C197.181 35.1552 197.221 35.0618 197.301 35.0352C197.408 34.9818 197.475 35.0352 197.501 35.1952C197.501 35.3018 197.568 35.1952 197.701 34.8752C197.835 34.5818 198.021 34.3685 198.261 34.2352C198.448 34.1285 199.008 34.0752 199.941 34.0752C201.115 34.0752 201.875 34.1418 202.221 34.2752C202.435 34.3818 202.608 34.4352 202.741 34.4352C202.821 34.4352 202.861 35.2752 202.861 36.9552C202.861 38.6618 202.901 39.5152 202.981 39.5152C203.035 39.5152 203.555 39.3418 204.541 38.9952C205.528 38.6485 206.181 38.4752 206.501 38.4752L207.021 38.5152L206.461 38.7152C206.301 38.7418 206.075 38.8352 205.781 38.9952C205.755 39.0752 205.821 39.0885 205.981 39.0352C206.275 38.9018 206.568 38.8352 206.861 38.8352C207.101 38.8352 207.381 38.8885 207.701 38.9952C208.075 39.1018 208.301 39.1952 208.381 39.2752C208.461 39.3285 208.475 39.4485 208.421 39.6352V39.7952C208.421 39.9818 208.475 40.1285 208.581 40.2352C208.741 40.3418 208.821 40.4885 208.821 40.6752C208.821 40.8352 208.861 40.9018 208.941 40.8752C208.995 40.8218 209.021 40.8618 209.021 40.9952C209.021 41.1818 208.941 41.4085 208.781 41.6752C208.648 41.8085 208.675 41.9285 208.861 42.0352ZM197.581 34.7952C197.555 34.8218 197.528 34.8218 197.501 34.7952C197.501 34.7685 197.501 34.7152 197.501 34.6352C197.501 34.4485 197.528 34.4085 197.581 34.5152C197.635 34.6485 197.635 34.7418 197.581 34.7952ZM197.341 37.0352C197.421 36.6352 197.461 36.3952 197.461 36.3152C197.461 36.1552 197.448 36.0752 197.421 36.0752L197.341 36.3952C197.261 36.5818 197.221 36.8218 197.221 37.1152C197.221 37.3285 197.261 37.3018 197.341 37.0352ZM194.861 48.4352H194.821L194.501 48.4752C194.101 48.5285 193.835 48.5952 193.701 48.6752L193.661 48.7152L193.741 48.7552C193.875 48.7552 194.195 48.6618 194.701 48.4752L194.861 48.4352Z" fill="white"/>
</g>
<defs>
<filter id="filter0_d_30_629" x="-0.00012207" y="0" width="282" height="138" filterUnits="userSpaceOnUse" color-interpolation-filters="sRGB">
<feFlood flood-opacity="0" result="BackgroundImageFix"/>
<feColorMatrix in="SourceAlpha" type="matrix" values="0 0 0 0 0 0 0 0 0 0 0 0 0 0 0 0 0 0 127 0" result="hardAlpha"/>
<feOffset dy="4"/>
<feGaussianBlur stdDeviation="2"/>
<feComposite in2="hardAlpha" operator="out"/>
<feColorMatrix type="matrix" values="0 0 0 0 0 0 0 0 0 0 0 0 0 0 0 0 0 0 0.25 0"/>
<feBlend mode="normal" in2="BackgroundImageFix" result="effect1_dropShadow_30_629"/>
<feBlend mode="normal" in="SourceGraphic" in2="effect1_dropShadow_30_629" result="shape"/>
</filter>
</defs>
</svg>
