<svg width="282" height="138" viewBox="0 0 282 138" fill="none" xmlns="http://www.w3.org/2000/svg">
<g filter="url(#filter0_d_26_361)">
<path fill-rule="evenodd" clip-rule="evenodd" d="M19.2137 29.8837H262.788C271.073 29.8837 278 36.61 278 44.9771V114.76C278 123.127 271.073 130 262.788 130H19.2137C10.9274 130 4 123.127 4 114.76V44.9771C4 36.61 10.9274 29.8837 19.2137 29.8837Z" fill="#1C1C1C"/>
<path fill-rule="evenodd" clip-rule="evenodd" d="M18.61 28.9875H263.389C271.522 28.9875 277.998 35.4122 277.998 43.3319V110.126C277.998 118.194 271.522 124.619 263.389 124.619H18.61C10.6263 124.619 4 118.194 4 110.126V43.3319C4 35.4122 10.6263 28.9875 18.61 28.9875Z" fill="#353535"/>
<path fill-rule="evenodd" clip-rule="evenodd" d="M19.2137 21.5166H262.788C271.073 21.5166 278 28.3901 278 36.61V106.541C278 114.911 271.073 121.633 262.788 121.633H19.2137C10.9274 121.633 4 114.91 4 106.541V36.61C4 28.3901 10.9274 21.5166 19.2137 21.5166Z" fill="#1C1C1C"/>
<path fill-rule="evenodd" clip-rule="evenodd" d="M27.9496 12.1033H252.093C259.926 12.1033 266.252 18.3794 266.252 26.0004V90.5515C266.252 98.1726 259.925 104.449 252.093 104.449H27.9496C20.2701 104.449 13.9434 98.1726 13.9434 90.5515V26.0004C13.9434 18.3794 20.2701 12.1033 27.9496 12.1033Z" fill="#D30243"/>
<path fill-rule="evenodd" clip-rule="evenodd" d="M27.9496 2.68854H252.093C259.926 2.68854 266.252 8.96608 266.252 16.5871V81.1398C266.252 88.7578 259.925 95.0353 252.093 95.0353H27.9496C20.2701 95.0353 13.9434 88.7578 13.9434 81.1398V16.5871C13.9434 8.96608 20.2701 2.68854 27.9496 2.68854Z" fill="#FF1D63"/>
<path fill-rule="evenodd" clip-rule="evenodd" d="M27.9496 4.57764e-05H252.093C259.926 4.57764e-05 266.252 6.27608 266.252 13.8956V78.4498C266.252 86.0678 259.925 92.3468 252.093 92.3468H27.9496C20.2701 92.3468 13.9434 86.0678 13.9434 78.4498V13.8956C13.9434 6.27608 20.2701 4.57764e-05 27.9496 4.57764e-05Z" fill="#EA003D"/>
<path d="M129.737 59.5152C129.817 59.7552 129.857 59.9952 129.857 60.2352C129.857 60.4752 129.817 60.5952 129.737 60.5952C129.657 60.5952 129.537 60.7418 129.377 61.0352C129.217 61.3285 129.177 61.4752 129.257 61.4752C129.284 61.4752 129.284 61.5018 129.257 61.5552C129.231 61.5818 129.177 61.6085 129.097 61.6352C128.937 61.7418 128.884 61.8352 128.937 61.9152C128.964 61.9685 128.897 62.0352 128.737 62.1152C128.577 62.1952 128.404 62.2485 128.217 62.2752C128.111 62.2752 128.057 62.3685 128.057 62.5552C128.057 62.9018 127.884 63.0752 127.537 63.0752C127.217 63.0752 126.711 62.9152 126.017 62.5952C125.564 62.3552 125.271 62.2218 125.137 62.1952C125.004 62.1685 124.897 62.2085 124.817 62.3152C124.764 62.4218 124.724 62.4618 124.697 62.4352C124.671 62.4352 124.657 62.3952 124.657 62.3152C124.657 62.1285 124.551 62.0352 124.337 62.0352C124.231 62.0352 124.111 62.0618 123.977 62.1152C123.871 62.1952 123.804 62.2885 123.777 62.3952C123.751 62.4218 123.724 62.4618 123.697 62.5152C123.671 62.5952 123.644 62.6218 123.617 62.5952C123.617 62.5685 123.617 62.5285 123.617 62.4752C123.617 62.3152 123.577 62.2352 123.497 62.2352C123.364 62.2352 123.257 62.3418 123.177 62.5552C123.097 62.7952 123.057 62.8085 123.057 62.5952C123.057 62.5418 123.044 62.4885 123.017 62.4352C122.991 62.3818 122.964 62.3685 122.937 62.3952C122.777 62.4752 122.257 62.5818 121.377 62.7152C120.151 62.9018 118.857 62.9952 117.497 62.9952C116.991 62.9952 116.471 62.9685 115.937 62.9152C114.364 62.7285 112.911 62.2752 111.577 61.5552C110.271 60.8352 109.244 59.9285 108.497 58.8352C107.591 57.5285 106.964 55.7952 106.617 53.6352C106.297 51.4485 106.137 48.1018 106.137 43.5952C106.137 41.8885 106.151 40.6485 106.177 39.8752C106.204 39.0752 106.271 38.4085 106.377 37.8752C106.697 35.8752 107.017 34.8752 107.337 34.8752C107.497 34.8752 107.631 34.8218 107.737 34.7152C107.871 34.5818 107.937 34.5952 107.937 34.7552C107.937 34.7818 107.951 34.7952 107.977 34.7952C108.031 34.7952 108.124 34.7152 108.257 34.5552C108.524 34.2352 109.017 34.0752 109.737 34.0752C109.897 34.0752 110.217 34.1018 110.697 34.1552C111.017 34.2085 111.311 34.2352 111.577 34.2352C111.817 34.2352 112.257 34.2085 112.897 34.1552C113.911 34.0485 115.377 33.9952 117.297 33.9952C119.564 33.9952 121.311 34.1552 122.537 34.4752C123.764 34.7952 124.684 35.3418 125.297 36.1152C125.911 36.8885 126.364 38.0485 126.657 39.5952C126.764 40.1285 126.831 40.8352 126.857 41.7152C126.884 42.5952 126.897 44.1685 126.897 46.4352C126.897 49.9818 126.844 52.5018 126.737 53.9952L126.657 55.5952C126.657 55.9418 126.711 56.1552 126.817 56.2352C128.764 57.8085 129.751 58.6752 129.777 58.8352C129.777 58.8618 129.777 58.8752 129.777 58.8752C129.804 58.8752 129.817 58.8752 129.817 58.8752C129.817 58.9018 129.804 58.9152 129.777 58.9152C129.724 58.9152 129.631 58.8485 129.497 58.7152C129.231 58.5285 129.057 58.4352 128.977 58.4352C128.977 58.4352 128.964 58.4352 128.937 58.4352C128.937 58.4352 128.937 58.4485 128.937 58.4752C128.937 58.5018 128.964 58.5418 129.017 58.5952C129.071 58.6485 129.137 58.7152 129.217 58.7952C129.484 59.0618 129.657 59.3018 129.737 59.5152ZM107.777 35.6752C107.777 35.6218 107.751 35.6085 107.697 35.6352C107.671 35.6618 107.644 35.7018 107.617 35.7552C107.537 35.9952 107.497 36.1418 107.497 36.1952C107.497 36.2485 107.511 36.2752 107.537 36.2752C107.564 36.2485 107.604 36.1818 107.657 36.0752C107.711 35.9418 107.751 35.8085 107.777 35.6752ZM121.017 51.3152C121.124 51.3152 121.177 50.5285 121.177 48.9552C121.177 47.2485 121.124 45.4352 121.017 43.5152C120.911 41.5952 120.791 40.5685 120.657 40.4352C120.604 40.3818 120.257 40.3552 119.617 40.3552C118.471 40.3552 117.057 40.4085 115.377 40.5152C113.724 40.5952 112.844 40.6885 112.737 40.7952C112.684 40.8485 112.617 41.5152 112.537 42.7952C112.457 44.0485 112.404 45.4085 112.377 46.8752L112.337 48.5552C112.337 51.3552 112.497 53.3285 112.817 54.4752C113.217 55.8885 114.471 56.8218 116.577 57.2752C116.977 57.3552 117.271 57.3952 117.457 57.3952C117.671 57.3952 117.711 57.3152 117.577 57.1552C117.444 56.9952 117.044 56.5818 116.377 55.9152C115.364 54.9552 114.857 54.4352 114.857 54.3552C114.857 54.3018 114.951 54.2485 115.137 54.1952C115.217 54.1685 115.257 54.1418 115.257 54.1152C115.284 54.0885 115.271 54.0752 115.217 54.0752C115.111 54.0752 115.057 54.0085 115.057 53.8752C115.057 53.7152 115.137 53.6618 115.297 53.7152L115.377 53.7552C115.404 53.7552 115.391 53.7152 115.337 53.6352C115.311 53.5285 115.244 53.4085 115.137 53.2752C114.897 52.8752 114.791 52.6618 114.817 52.6352L115.137 51.9552C115.271 51.5818 115.417 51.3152 115.577 51.1552L116.417 50.2752C116.791 49.8752 117.177 49.5685 117.577 49.3552L118.097 49.1152L118.857 49.6752C119.071 49.8085 119.324 50.0085 119.617 50.2752C119.937 50.5152 120.151 50.6752 120.257 50.7552C120.684 51.1285 120.937 51.3152 121.017 51.3152ZM117.337 55.6752C117.417 55.6752 117.337 55.5685 117.097 55.3552C116.884 55.1152 116.737 54.9552 116.657 54.8752C116.177 54.3952 115.937 54.1952 115.937 54.2752C115.937 54.3552 116.151 54.6085 116.577 55.0352C117.031 55.4618 117.284 55.6752 117.337 55.6752Z" fill="white"/>
<path d="M148.867 52.0752C148.947 54.1552 148.987 56.1418 148.987 58.0352C148.987 58.9952 148.974 59.5552 148.947 59.7152L148.827 60.3552L148.787 59.4752C148.734 58.6752 148.667 58.2752 148.587 58.2752C148.56 58.2752 148.547 58.5152 148.547 58.9952C148.547 59.5018 148.467 60.0352 148.307 60.5952C148.147 61.1552 147.96 61.5685 147.747 61.8352C147.587 62.0752 147.48 62.1152 147.427 61.9552C147.4 61.8218 147.28 61.7552 147.067 61.7552C146.854 61.7552 146.707 61.8485 146.627 62.0352C146.6 62.1418 146.574 62.1952 146.547 62.1952C146.52 62.2218 146.454 62.1818 146.347 62.0752C146.24 61.9685 146.16 61.9285 146.107 61.9552C146.08 61.9552 146.04 62.0352 145.987 62.1952C145.96 62.4085 145.92 62.4485 145.867 62.3152C145.867 62.1285 145.734 61.9418 145.467 61.7552C145.227 61.5685 145.027 61.5152 144.867 61.5952C144.707 61.6218 144.454 61.6618 144.107 61.7152C143.76 61.7685 143.36 61.8218 142.907 61.8752C142.214 61.9285 141.694 61.9552 141.347 61.9552C138.68 61.9552 136.44 61.2752 134.627 59.9152C133.907 59.4085 133.294 58.8218 132.787 58.1552C132.307 57.4885 131.854 56.6218 131.427 55.5552C130.92 54.2752 130.52 52.8885 130.227 51.3952C129.96 49.9018 129.654 47.5552 129.307 44.3552C129.147 42.9152 129.067 41.4752 129.067 40.0352C129.067 38.2218 129.187 36.7418 129.427 35.5952C129.534 35.0352 129.614 34.7018 129.667 34.5952C129.72 34.4885 129.8 34.5018 129.907 34.6352C129.987 34.7152 130.054 34.7685 130.107 34.7952C130.16 34.7952 130.187 34.7418 130.187 34.6352C130.187 34.5018 130.227 34.4352 130.307 34.4352C130.414 34.4085 130.48 34.4618 130.507 34.5952L130.547 34.6352C130.6 34.6352 130.667 34.5285 130.747 34.3152C130.8 34.1818 130.867 34.0618 130.947 33.9552C131.054 33.8485 131.147 33.7818 131.227 33.7552C131.44 33.7018 131.787 33.6752 132.267 33.6752C133.067 33.6752 133.6 33.7152 133.867 33.7952C134.16 33.9018 134.374 33.9285 134.507 33.8752H134.547C134.68 33.8752 134.88 33.9418 135.147 34.0752C135.467 34.2352 135.667 34.3152 135.747 34.3152C135.827 34.3152 135.867 34.5018 135.867 34.8752C135.867 35.3818 135.814 36.2218 135.707 37.3952C135.6 38.8885 135.547 40.2618 135.547 41.5152C135.547 43.3018 135.614 45.1018 135.747 46.9152C135.88 48.7285 136.04 50.1285 136.227 51.1152C136.387 51.9418 136.6 52.7018 136.867 53.3952C137.134 54.0618 137.4 54.5552 137.667 54.8752C137.987 55.2218 138.427 55.5418 138.987 55.8352C139.414 56.0218 140.014 56.1818 140.787 56.3152C141.56 56.4485 142.2 56.5152 142.707 56.5152C143.08 56.5152 143.28 56.4752 143.307 56.3952C143.36 56.3418 143.334 55.8885 143.227 55.0352L142.987 51.2752C142.72 46.5285 142.494 43.5552 142.307 42.3552C142.174 41.5285 142.107 40.3018 142.107 38.6752C142.107 37.6885 142.134 36.8618 142.187 36.1952C142.267 35.5018 142.36 35.1552 142.467 35.1552C142.6 35.1552 142.667 35.2085 142.667 35.3152C142.694 35.3952 142.747 35.3418 142.827 35.1552C142.907 34.9685 142.96 34.8752 142.987 34.8752C143.014 34.8752 143.054 34.9418 143.107 35.0752L143.187 35.2352C143.24 35.2352 143.28 35.1285 143.307 34.9152C143.36 34.6485 143.44 34.4618 143.547 34.3552C143.68 34.2218 143.894 34.1152 144.187 34.0352C144.347 33.9818 144.787 33.9552 145.507 33.9552C146.494 33.9552 147.28 34.0085 147.867 34.1152C148.187 34.2218 148.374 34.3152 148.427 34.3952C148.48 34.4485 148.507 34.6218 148.507 34.9152L148.547 37.5552C148.6 39.3418 148.654 41.8352 148.707 45.0352C148.76 48.3685 148.814 50.7152 148.867 52.0752ZM130.387 35.4352C130.414 35.1152 130.4 35.0352 130.347 35.1952C130.32 35.2218 130.24 35.4885 130.107 35.9952C130.08 36.3152 130.094 36.3952 130.147 36.2352C130.174 36.2085 130.254 35.9418 130.387 35.4352ZM142.947 36.8752C143.054 36.7152 143.107 36.5285 143.107 36.3152C143.107 36.1285 143.094 36.0352 143.067 36.0352C143.04 36.0352 142.987 36.2218 142.907 36.5952C142.88 36.7285 142.867 36.8352 142.867 36.9152C142.867 36.9685 142.894 36.9552 142.947 36.8752ZM143.027 56.9552C143.134 56.9552 143.214 56.9418 143.267 56.9152C143.32 56.8885 143.36 56.8618 143.387 56.8352C143.387 56.7818 143.32 56.7552 143.187 56.7552C143.054 56.7552 142.934 56.7685 142.827 56.7952C142.747 56.8218 142.694 56.8485 142.667 56.8752C142.667 56.9285 142.787 56.9552 143.027 56.9552Z" fill="white"/>
<path d="M151.32 43.6352C151 43.2618 150.84 43.0085 150.84 42.8752C150.84 42.8218 150.813 42.7818 150.76 42.7552C150.733 42.7285 150.693 42.7285 150.64 42.7552C150.453 42.8085 150.32 40.6752 150.24 36.3552L150.2 34.1552L150.76 34.0752C151.24 34.0218 152.32 33.9685 154 33.9152L156.64 33.7952V37.3952C156.64 38.6218 156.626 39.5285 156.6 40.1152C156.6 40.6752 156.546 40.9552 156.44 40.9552C156.306 40.9552 156.213 40.7818 156.16 40.4352C156.16 40.3018 156.146 40.2085 156.12 40.1552C156.12 40.1018 156.12 40.0618 156.12 40.0352L156.08 40.5152C156.08 40.9418 156.026 41.2618 155.92 41.4752C155.893 41.5552 155.866 41.5952 155.84 41.5952C155.84 41.5952 155.813 41.4352 155.76 41.1152C155.76 40.8218 155.746 40.6752 155.72 40.6752C155.693 40.6752 155.626 41.2085 155.52 42.2752C155.466 42.7018 155.413 43.0485 155.36 43.3152C155.306 43.5818 155.226 43.7552 155.12 43.8352C155.066 43.8885 155 43.9285 154.92 43.9552C154.84 43.9552 154.786 43.9418 154.76 43.9152H154.72C154.693 43.9152 154.6 43.9952 154.44 44.1552C154.333 44.3418 154.173 44.4352 153.96 44.4352C153.853 44.4352 153.76 44.3818 153.68 44.2752C153.573 44.1685 153.413 44.1552 153.2 44.2352H153.04C152.853 44.2352 152.666 44.1818 152.48 44.0752C152.373 43.9952 152.266 43.9552 152.16 43.9552C152.08 43.9285 152.013 43.9418 151.96 43.9952C151.933 44.0218 151.893 44.0352 151.84 44.0352C151.76 44.0352 151.586 43.9018 151.32 43.6352ZM155.88 35.6352C155.88 35.6085 155.866 35.5818 155.84 35.5552C155.84 35.5285 155.84 35.5152 155.84 35.5152V35.9552C155.84 36.3285 155.853 36.4618 155.88 36.3552C155.906 36.2752 155.92 36.1552 155.92 35.9952C155.92 35.8085 155.906 35.6885 155.88 35.6352ZM155.76 38.0352C155.733 38.3552 155.72 38.5818 155.72 38.7152C155.72 38.8218 155.746 38.7685 155.8 38.5552C155.88 37.9152 155.92 37.5285 155.92 37.3952C155.92 37.0485 155.906 36.8752 155.88 36.8752C155.853 36.8752 155.813 37.2618 155.76 38.0352ZM155.76 42.7952C155.813 42.5285 155.853 42.3952 155.88 42.3952C155.906 42.3952 155.92 42.5285 155.92 42.7952C155.92 43.0352 155.88 43.1552 155.8 43.1552C155.72 43.1552 155.706 43.0352 155.76 42.7952ZM157.12 55.8752C157.226 56.5418 157.28 57.3952 157.28 58.4352C157.28 59.2085 157.24 59.8885 157.16 60.4752C157.08 61.0352 156.986 61.3152 156.88 61.3152C156.72 61.3152 156.64 61.2485 156.64 61.1152C156.64 61.0618 156.613 61.0618 156.56 61.1152C156.533 61.1685 156.506 61.2352 156.48 61.3152C156.426 61.4752 156.386 61.5685 156.36 61.5952C156.333 61.5952 156.293 61.5285 156.24 61.3952C156.213 61.2885 156.173 61.2352 156.12 61.2352C156.093 61.2352 156.04 61.3685 155.96 61.6352C155.8 62.0085 155.6 62.2085 155.36 62.2352C154.933 62.3418 154.266 62.3952 153.36 62.3952C152.986 62.3952 152.733 62.3818 152.6 62.3552C152.44 62.3552 152.053 62.2885 151.44 62.1552L150.8 61.9952L150.88 57.9152C150.96 54.7152 151.026 52.3952 151.08 50.9552C151.133 49.4885 151.2 48.6618 151.28 48.4752L151.36 48.3152C151.386 48.3152 151.413 48.4752 151.44 48.7952C151.44 49.1418 151.453 49.3152 151.48 49.3152C151.506 49.3152 151.56 49.0885 151.64 48.6352C151.666 48.4752 151.76 48.2485 151.92 47.9552C152.106 47.6618 152.28 47.4352 152.44 47.2752C152.626 47.0885 152.72 47.0618 152.72 47.1952C152.72 47.3018 152.96 47.3418 153.44 47.3152C153.626 47.3152 153.8 47.3018 153.96 47.2752C154.12 47.2485 154.2 47.2085 154.2 47.1552C154.2 47.1285 154.213 47.1152 154.24 47.1152C154.293 47.1152 154.4 47.1685 154.56 47.2752C154.72 47.3552 154.84 47.4485 154.92 47.5552C154.946 47.5818 155 47.5952 155.08 47.5952C155.24 47.5952 155.36 47.5685 155.44 47.5152C155.6 47.4085 155.706 47.3685 155.76 47.3952C155.84 47.3952 155.906 47.4618 155.96 47.5952C156.226 48.0485 156.426 48.6752 156.56 49.4752C156.72 50.2752 156.826 51.3818 156.88 52.7952C156.933 53.9152 157.013 54.9418 157.12 55.8752ZM156.44 59.7552C156.493 59.6218 156.493 59.5018 156.44 59.3952C156.413 59.3152 156.4 59.3685 156.4 59.5552C156.4 59.7418 156.413 59.8085 156.44 59.7552ZM156.32 60.6752C156.373 60.5152 156.373 60.3552 156.32 60.1952C156.293 60.1152 156.266 60.1152 156.24 60.1952C156.24 60.2485 156.24 60.3285 156.24 60.4352C156.24 60.5418 156.24 60.6352 156.24 60.7152C156.266 60.7685 156.293 60.7552 156.32 60.6752Z" fill="white"/>
<path d="M175.761 42.0352C175.948 42.1418 176.001 42.3285 175.921 42.5952C175.894 42.7018 175.774 42.8352 175.561 42.9952C175.348 43.1552 174.974 43.3952 174.441 43.7152C173.748 44.0885 172.841 44.5285 171.721 45.0352C170.628 45.5152 170.014 45.7552 169.881 45.7552C169.801 45.7552 169.748 46.3018 169.721 47.3952C169.721 48.4885 169.721 50.4618 169.721 53.3152C169.694 57.4485 169.628 59.6085 169.521 59.7952C169.494 59.8752 169.454 59.9152 169.401 59.9152C169.401 59.9152 169.388 59.9018 169.361 59.8752C169.361 59.8485 169.361 59.8218 169.361 59.7952L169.401 59.3552L169.441 58.8352C169.441 58.5952 169.414 58.3952 169.361 58.2352C169.308 58.1285 169.268 58.0752 169.241 58.0752C169.214 58.0752 169.201 58.3152 169.201 58.7952C169.174 59.2752 169.121 59.7018 169.041 60.0752C168.961 60.4218 168.801 60.8218 168.561 61.2752C168.428 61.5685 168.321 61.7418 168.241 61.7952C168.188 61.8218 168.108 61.7818 168.001 61.6752C167.868 61.5418 167.721 61.4752 167.561 61.4752C167.374 61.4752 167.241 61.5685 167.161 61.7552C167.134 61.8618 167.108 61.9285 167.081 61.9552C167.054 61.9818 167.014 61.9418 166.961 61.8352C166.908 61.6752 166.828 61.5952 166.721 61.5952C166.641 61.5952 166.574 61.6752 166.521 61.8352C166.521 61.9152 166.508 61.9552 166.481 61.9552C166.454 61.9552 166.441 61.9285 166.441 61.8752C166.441 61.7685 166.334 61.6352 166.121 61.4752C165.934 61.3685 165.841 61.2218 165.841 61.0352C165.841 60.9285 165.828 60.8752 165.801 60.8752C165.774 60.8752 165.694 60.9552 165.561 61.1152C165.401 61.3285 165.281 61.4352 165.201 61.4352C165.148 61.4352 165.041 61.2885 164.881 60.9952C164.401 60.1152 164.054 56.9552 163.841 51.5152C163.814 49.7018 163.734 48.7952 163.601 48.7952C163.494 48.7952 162.934 48.9418 161.921 49.2352L160.401 49.6752L160.081 49.3152C159.814 49.0752 159.761 48.9418 159.921 48.9152C160.028 48.8618 159.881 48.8352 159.481 48.8352H159.361C159.094 48.8352 158.868 48.7818 158.681 48.6752C158.521 48.5685 158.441 48.4485 158.441 48.3152C158.441 48.1818 158.361 48.0618 158.201 47.9552C158.041 47.7952 157.894 47.4618 157.761 46.9552C157.681 46.6885 157.614 46.4618 157.561 46.2752C157.481 46.0618 157.428 45.8885 157.401 45.7552C157.321 45.5418 157.281 45.2085 157.281 44.7552L157.321 44.1552L158.641 43.6352L159.721 43.2352C160.868 42.8085 161.494 42.5685 161.601 42.5152L163.281 41.9152L163.241 40.2352C163.214 39.1685 163.254 38.0618 163.361 36.9152C163.468 35.7418 163.588 35.1552 163.721 35.1552C163.854 35.1552 163.948 35.2352 164.001 35.3952C164.001 35.4752 164.014 35.5152 164.041 35.5152C164.068 35.4885 164.081 35.4218 164.081 35.3152C164.081 35.1552 164.121 35.0618 164.201 35.0352C164.308 34.9818 164.374 35.0352 164.401 35.1952C164.401 35.3018 164.468 35.1952 164.601 34.8752C164.734 34.5818 164.921 34.3685 165.161 34.2352C165.348 34.1285 165.908 34.0752 166.841 34.0752C168.014 34.0752 168.774 34.1418 169.121 34.2752C169.334 34.3818 169.508 34.4352 169.641 34.4352C169.721 34.4352 169.761 35.2752 169.761 36.9552C169.761 38.6618 169.801 39.5152 169.881 39.5152C169.934 39.5152 170.454 39.3418 171.441 38.9952C172.428 38.6485 173.081 38.4752 173.401 38.4752L173.921 38.5152L173.361 38.7152C173.201 38.7418 172.974 38.8352 172.681 38.9952C172.654 39.0752 172.721 39.0885 172.881 39.0352C173.174 38.9018 173.468 38.8352 173.761 38.8352C174.001 38.8352 174.281 38.8885 174.601 38.9952C174.974 39.1018 175.201 39.1952 175.281 39.2752C175.361 39.3285 175.374 39.4485 175.321 39.6352V39.7952C175.321 39.9818 175.374 40.1285 175.481 40.2352C175.641 40.3418 175.721 40.4885 175.721 40.6752C175.721 40.8352 175.761 40.9018 175.841 40.8752C175.894 40.8218 175.921 40.8618 175.921 40.9952C175.921 41.1818 175.841 41.4085 175.681 41.6752C175.548 41.8085 175.574 41.9285 175.761 42.0352ZM164.481 34.7952C164.454 34.8218 164.428 34.8218 164.401 34.7952C164.401 34.7685 164.401 34.7152 164.401 34.6352C164.401 34.4485 164.428 34.4085 164.481 34.5152C164.534 34.6485 164.534 34.7418 164.481 34.7952ZM164.241 37.0352C164.321 36.6352 164.361 36.3952 164.361 36.3152C164.361 36.1552 164.348 36.0752 164.321 36.0752L164.241 36.3952C164.161 36.5818 164.121 36.8218 164.121 37.1152C164.121 37.3285 164.161 37.3018 164.241 37.0352ZM161.761 48.4352H161.721L161.401 48.4752C161.001 48.5285 160.734 48.5952 160.601 48.6752L160.561 48.7152L160.641 48.7552C160.774 48.7552 161.094 48.6618 161.601 48.4752L161.761 48.4352Z" fill="white"/>
</g>
<defs>
<filter id="filter0_d_26_361" x="0" y="0" width="282" height="138" filterUnits="userSpaceOnUse" color-interpolation-filters="sRGB">
<feFlood flood-opacity="0" result="BackgroundImageFix"/>
<feColorMatrix in="SourceAlpha" type="matrix" values="0 0 0 0 0 0 0 0 0 0 0 0 0 0 0 0 0 0 127 0" result="hardAlpha"/>
<feOffset dy="4"/>
<feGaussianBlur stdDeviation="2"/>
<feComposite in2="hardAlpha" operator="out"/>
<feColorMatrix type="matrix" values="0 0 0 0 0 0 0 0 0 0 0 0 0 0 0 0 0 0 0.25 0"/>
<feBlend mode="normal" in2="BackgroundImageFix" result="effect1_dropShadow_26_361"/>
<feBlend mode="normal" in="SourceGraphic" in2="effect1_dropShadow_26_361" result="shape"/>
</filter>
</defs>
</svg>
