<svg width="600" height="59" viewBox="0 0 600 59" fill="none" xmlns="http://www.w3.org/2000/svg">
<g clip-path="url(#clip0_35_1259)">
<path fill-rule="evenodd" clip-rule="evenodd" d="M43.0229 51.0658L35.1143 29.1502L43.0229 7.23462H600L599.926 29.1502L600 51.0658H43.0229Z" fill="#6D6D6D"/>
<g style="mix-blend-mode:multiply">
<path fill-rule="evenodd" clip-rule="evenodd" d="M600 38.9399C405.908 50.7905 225.173 51.0093 37.0554 38.9222L37.0024 39.0034L44.8829 51.0658H600" fill="#C1C1C1"/>
</g>
<g style="mix-blend-mode:screen" opacity="0.51">
<path fill-rule="evenodd" clip-rule="evenodd" d="M48.9907 7.88403H600C600 7.88403 332.365 16.9326 48.9907 7.88403Z" fill="#D1D1D1"/>
</g>
</g>
<g clip-path="url(#clip1_35_1259)">
<path fill-rule="evenodd" clip-rule="evenodd" d="M34.9097 58.3498C34.7085 58.3498 34.5038 58.3075 34.3168 58.2192L33.5757 57.8769C21.7744 52.4174 10.0755 42.3807 4.46429 32.9016C1.16813 27.3292 -0.458778 20.5675 0.112933 14.808C0.977558 6.09119 7.70398 0 16.4737 0C18.8841 0 21.2839 0.476426 23.606 1.41163C27.6186 3.03148 31.4159 6.02414 34.9097 10.3226C38.407 6.02767 42.2007 3.03148 46.2133 1.41163C48.5319 0.476426 50.9317 0 53.3456 0C62.1153 0 68.8418 6.09119 69.7064 14.808C70.2781 20.5639 68.6512 27.3292 65.355 32.9016C59.7438 42.3807 48.0484 52.4174 36.2437 57.8769L35.5025 58.2192C35.3155 58.3075 35.1108 58.3498 34.9097 58.3498Z" fill="#D30243"/>
<path fill-rule="evenodd" clip-rule="evenodd" d="M34.1686 56.5958C22.6038 51.2458 11.1554 41.4349 5.68182 32.1817C2.53035 26.8598 0.974029 20.4192 1.51751 14.9492C2.30802 6.97698 8.45921 1.41162 16.4737 1.41162C18.7041 1.41162 20.9239 1.85276 23.0767 2.72091C28.1197 4.75719 32.1287 8.90033 34.9097 12.6164C37.6906 8.90033 41.6996 4.75719 46.7427 2.72091C48.8954 1.85276 51.1152 1.41162 53.3456 1.41162C61.3601 1.41162 67.5113 6.97698 68.3018 14.9492C68.8453 20.4192 67.289 26.8598 64.1375 32.1817C58.6604 41.4349 47.212 51.2458 35.6508 56.5958L34.9097 56.9382L34.1686 56.5958Z" fill="#EA003D"/>
<path d="M8.58264 17.4124C5.12767 17.4124 5.12062 22.7836 8.58264 22.7836C12.0447 22.7836 12.0447 17.4124 8.58264 17.4124Z" fill="#FF1D63"/>
<path d="M14.6703 13.1775C11.54 14.2044 9.23907 15.4431 7.97213 14.2997C6.7299 13.3186 7.71098 8.90022 12.1117 6.78277C16.5266 4.65121 21.1568 7.56623 21.0933 9.68015C21.1321 11.7658 17.7653 12.034 14.6739 13.181L14.6703 13.1775Z" fill="#FF1D63"/>
</g>
<defs>
<clipPath id="clip0_35_1259">
<rect width="564.886" height="43.8312" fill="white" transform="translate(35.1143 7.23462)"/>
</clipPath>
<clipPath id="clip1_35_1259">
<rect width="69.8158" height="58.3498" fill="white"/>
</clipPath>
</defs>
</svg>
