<svg width="600" height="67" viewBox="0 0 600 67" fill="none" xmlns="http://www.w3.org/2000/svg">
<g clip-path="url(#clip0_35_1256)">
<path fill-rule="evenodd" clip-rule="evenodd" d="M42.859 51.2573L34.948 29.3352L42.859 7.41321H600L599.926 29.3352L600 51.2573H42.859Z" fill="#D30243"/>
<g style="mix-blend-mode:multiply">
<path fill-rule="evenodd" clip-rule="evenodd" d="M600 39.1279C405.85 50.982 225.063 51.2009 36.8896 39.1102L36.8367 39.1914L44.7194 51.2574H600" fill="#C1C1C1"/>
</g>
<g style="mix-blend-mode:screen" opacity="0.51">
<path fill-rule="evenodd" clip-rule="evenodd" d="M48.8286 8.06287H600C600 8.06287 332.286 17.1141 48.8286 8.06287Z" fill="#D1D1D1"/>
</g>
</g>
<g filter="url(#filter0_d_35_1256)">
<path fill-rule="evenodd" clip-rule="evenodd" d="M34.9199 58.367C34.7187 58.367 34.514 58.3246 34.3269 58.2364L33.5855 57.8939C21.7808 52.4328 10.0785 42.3932 4.4656 32.9113C1.16847 27.3372 -0.458913 20.5735 0.112966 14.8124C0.977845 6.09298 7.70625 0 16.4786 0C18.8897 0 21.2901 0.476566 23.613 1.41205C27.6267 3.03237 31.4251 6.02591 34.9199 10.3256C38.4183 6.02944 42.2132 3.03237 46.2269 1.41205C48.5462 0.476566 50.9467 0 53.3613 0C62.1336 0 68.862 6.09298 69.7269 14.8124C70.2988 20.57 68.6714 27.3372 65.3743 32.9113C59.7614 42.3932 48.0626 52.4328 36.2543 57.8939L35.513 58.2364C35.3259 58.3246 35.1211 58.367 34.9199 58.367Z" fill="#84032B"/>
<path fill-rule="evenodd" clip-rule="evenodd" d="M34.1784 56.6124C22.6102 51.2608 11.1585 41.4471 5.68332 32.1911C2.53093 26.8677 0.974145 20.4252 1.51778 14.9535C2.30853 6.97898 8.46152 1.41199 16.4784 1.41199C18.7095 1.41199 20.9299 1.85325 23.0833 2.72166C28.1278 4.75854 32.138 8.9029 34.9198 12.6201C37.7015 8.9029 41.7117 4.75854 46.7562 2.72166C48.9096 1.85325 51.1301 1.41199 53.3611 1.41199C61.378 1.41199 67.531 6.97898 68.3217 14.9535C68.8654 20.4252 67.3086 26.8677 64.1562 32.1911C58.6775 41.4471 47.2257 51.2608 35.6611 56.6124L34.9198 56.9549L34.1784 56.6124Z" fill="#C60034"/>
<path d="M8.58512 17.4176C5.12913 17.4176 5.12207 22.7904 8.58512 22.7904C12.0482 22.7904 12.0482 17.4176 8.58512 17.4176Z" fill="#FF1D63"/>
<path d="M14.6746 13.1815C11.5434 14.2088 9.24179 15.4479 7.97448 14.3041C6.73188 13.3227 7.71325 8.90301 12.1153 6.78494C16.5315 4.65275 21.163 7.56863 21.0995 9.68317C21.1383 11.7695 17.7706 12.0378 14.6782 13.185L14.6746 13.1815Z" fill="#FF1D63"/>
</g>
<defs>
<filter id="filter0_d_35_1256" x="0" y="0" width="77.8396" height="66.3669" filterUnits="userSpaceOnUse" color-interpolation-filters="sRGB">
<feFlood flood-opacity="0" result="BackgroundImageFix"/>
<feColorMatrix in="SourceAlpha" type="matrix" values="0 0 0 0 0 0 0 0 0 0 0 0 0 0 0 0 0 0 127 0" result="hardAlpha"/>
<feOffset dx="4" dy="4"/>
<feGaussianBlur stdDeviation="2"/>
<feComposite in2="hardAlpha" operator="out"/>
<feColorMatrix type="matrix" values="0 0 0 0 0 0 0 0 0 0 0 0 0 0 0 0 0 0 0.25 0"/>
<feBlend mode="normal" in2="BackgroundImageFix" result="effect1_dropShadow_35_1256"/>
<feBlend mode="normal" in="SourceGraphic" in2="effect1_dropShadow_35_1256" result="shape"/>
</filter>
<clipPath id="clip0_35_1256">
<rect width="565.052" height="43.8441" fill="white" transform="translate(34.948 7.41321)"/>
</clipPath>
</defs>
</svg>
