<svg width="52" height="52" viewBox="0 0 52 52" fill="none" xmlns="http://www.w3.org/2000/svg">
<path d="M32.5 44.6874C32.5 45.1362 32.1362 45.4999 31.6875 45.4999H20.3125C19.8638 45.4999 19.5 45.1362 19.5 44.6874V33.3124C19.5 32.8637 19.1362 32.4999 18.6875 32.4999H7.3125C6.86377 32.4999 6.5 32.1362 6.5 31.6874V20.3124C6.5 19.8637 6.86377 19.4999 7.3125 19.4999H18.6875C19.1362 19.4999 19.5 19.1362 19.5 18.6874V7.31244C19.5 6.86371 19.8638 6.49994 20.3125 6.49994H31.6875C32.1362 6.49994 32.5 6.86371 32.5 7.31244V18.6874C32.5 19.1362 32.8638 19.4999 33.3125 19.4999H44.6875C45.1362 19.4999 45.5 19.8637 45.5 20.3124V31.6874C45.5 32.1362 45.1362 32.4999 44.6875 32.4999H33.3125C32.8638 32.4999 32.5 32.8637 32.5 33.3124V44.6874Z" fill="#D6E1F6"/>
</svg>
