<svg width="52" height="52" viewBox="0 0 52 52" fill="none" xmlns="http://www.w3.org/2000/svg">
<circle cx="26" cy="26" r="18.6875" stroke="#D6E1F6" stroke-width="1.625"/>
<mask id="path-2-outside-1_35_1373" maskUnits="userSpaceOnUse" x="15.7375" y="15.25" width="20" height="21" fill="black">
<rect fill="white" x="15.7375" y="15.25" width="20" height="21"/>
<path d="M34.7451 35.25H29.5789L26.2471 28.9507C26.1212 28.7169 25.9908 28.2853 25.856 27.6558H25.802C25.7391 27.9526 25.5907 28.4022 25.3569 29.0047L22.0117 35.25H16.8185L22.9828 25.5786L17.3445 15.9071H22.6456L25.4108 21.7073C25.6266 22.1659 25.82 22.7099 25.9908 23.3394H26.0448C26.1527 22.9617 26.355 22.3997 26.6518 21.6533L29.7272 15.9071H34.5832L28.783 25.4976L34.7451 35.25Z"/>
</mask>
<path d="M34.7451 35.25H29.5789L26.2471 28.9507C26.1212 28.7169 25.9908 28.2853 25.856 27.6558H25.802C25.7391 27.9526 25.5907 28.4022 25.3569 29.0047L22.0117 35.25H16.8185L22.9828 25.5786L17.3445 15.9071H22.6456L25.4108 21.7073C25.6266 22.1659 25.82 22.7099 25.9908 23.3394H26.0448C26.1527 22.9617 26.355 22.3997 26.6518 21.6533L29.7272 15.9071H34.5832L28.783 25.4976L34.7451 35.25Z" fill="#D6E1F6"/>
<path d="M34.7451 35.25V35.4125H35.0349L34.8837 35.1652L34.7451 35.25ZM29.5789 35.25L29.4352 35.326L29.481 35.4125H29.5789V35.25ZM26.2471 28.9507L26.3908 28.8748L26.3902 28.8737L26.2471 28.9507ZM25.856 27.6558L26.0148 27.6218L25.9873 27.4933H25.856V27.6558ZM25.802 27.6558V27.4933H25.6704L25.643 27.6221L25.802 27.6558ZM25.3569 29.0047L25.5001 29.0814L25.5048 29.0727L25.5084 29.0635L25.3569 29.0047ZM22.0117 35.25V35.4125H22.109L22.1549 35.3267L22.0117 35.25ZM16.8185 35.25L16.6814 35.1627L16.5222 35.4125H16.8185V35.25ZM22.9828 25.5786L23.1199 25.6659L23.1731 25.5823L23.1232 25.4967L22.9828 25.5786ZM17.3445 15.9071V15.7446H17.0617L17.2042 15.9889L17.3445 15.9071ZM22.6456 15.9071L22.7923 15.8372L22.7482 15.7446H22.6456V15.9071ZM25.4108 21.7073L25.5579 21.6381L25.5575 21.6373L25.4108 21.7073ZM25.9908 23.3394L25.834 23.382L25.8666 23.5019H25.9908V23.3394ZM26.0448 23.3394V23.5019H26.1674L26.201 23.3841L26.0448 23.3394ZM26.6518 21.6533L26.5085 21.5766L26.5042 21.5847L26.5008 21.5933L26.6518 21.6533ZM29.7272 15.9071V15.7446H29.6299L29.584 15.8304L29.7272 15.9071ZM34.5832 15.9071L34.7222 15.9912L34.8714 15.7446H34.5832V15.9071ZM28.783 25.4976L28.644 25.4135L28.5928 25.4981L28.6444 25.5824L28.783 25.4976ZM34.7451 35.25V35.0875H29.5789V35.25V35.4125H34.7451V35.25ZM29.5789 35.25L29.7225 35.174L26.3908 28.8748L26.2471 28.9507L26.1035 29.0267L29.4352 35.326L29.5789 35.25ZM26.2471 28.9507L26.3902 28.8737C26.2764 28.6624 26.1498 28.2515 26.0148 27.6218L25.856 27.6558L25.6971 27.6899C25.8319 28.3191 25.966 28.7714 26.1041 29.0278L26.2471 28.9507ZM25.856 27.6558V27.4933H25.802V27.6558V27.8183H25.856V27.6558ZM25.802 27.6558L25.643 27.6221C25.583 27.9052 25.4387 28.3446 25.2054 28.9459L25.3569 29.0047L25.5084 29.0635C25.7426 28.4598 25.8951 27.9999 25.961 27.6895L25.802 27.6558ZM25.3569 29.0047L25.2136 28.928L21.8684 35.1733L22.0117 35.25L22.1549 35.3267L25.5001 29.0814L25.3569 29.0047ZM22.0117 35.25V35.0875H16.8185V35.25V35.4125H22.0117V35.25ZM16.8185 35.25L16.9555 35.3373L23.1199 25.6659L22.9828 25.5786L22.8458 25.4912L16.6814 35.1627L16.8185 35.25ZM22.9828 25.5786L23.1232 25.4967L17.4849 15.8253L17.3445 15.9071L17.2042 15.9889L22.8425 25.6604L22.9828 25.5786ZM17.3445 15.9071V16.0696H22.6456V15.9071V15.7446H17.3445V15.9071ZM22.6456 15.9071L22.4989 15.977L25.2641 21.7772L25.4108 21.7073L25.5575 21.6373L22.7923 15.8372L22.6456 15.9071ZM25.4108 21.7073L25.2638 21.7765C25.4746 22.2245 25.665 22.7592 25.834 23.382L25.9908 23.3394L26.1477 23.2968C25.975 22.6607 25.7787 22.1073 25.5579 21.6381L25.4108 21.7073ZM25.9908 23.3394V23.5019H26.0448V23.3394V23.1769H25.9908V23.3394ZM26.0448 23.3394L26.201 23.3841C26.3066 23.0146 26.5064 22.4588 26.8028 21.7134L26.6518 21.6533L26.5008 21.5933C26.2036 22.3406 25.9988 22.9089 25.8886 23.2948L26.0448 23.3394ZM26.6518 21.6533L26.7951 21.73L29.8705 15.9838L29.7272 15.9071L29.584 15.8304L26.5085 21.5766L26.6518 21.6533ZM29.7272 15.9071V16.0696H34.5832V15.9071V15.7446H29.7272V15.9071ZM34.5832 15.9071L34.4441 15.823L28.644 25.4135L28.783 25.4976L28.9221 25.5817L34.7222 15.9912L34.5832 15.9071ZM28.783 25.4976L28.6444 25.5824L34.6064 35.3348L34.7451 35.25L34.8837 35.1652L28.9217 25.4129L28.783 25.4976Z" fill="#1C212A" mask="url(#path-2-outside-1_35_1373)"/>
</svg>
