<svg width="52" height="52" viewBox="0 0 52 52" fill="none" xmlns="http://www.w3.org/2000/svg">
<circle cx="26" cy="26" r="18.6875" stroke="#D6E1F6" stroke-width="1.625"/>
<mask id="path-2-outside-1_35_1372" maskUnits="userSpaceOnUse" x="15.3638" y="15.25" width="21" height="21" fill="black">
<rect fill="white" x="15.3638" y="15.25" width="21" height="21"/>
<path d="M35.5853 35.25H30.8372L29.4614 30.9471H22.5821L21.2197 35.25H16.4987L23.5398 15.9071H28.706L35.5853 35.25ZM28.4632 27.6019L26.3859 21.1003C26.2331 20.6147 26.1251 20.0347 26.0622 19.3602H25.9543C25.9093 19.9268 25.7969 20.4888 25.6171 21.0463L23.5128 27.6019H28.4632Z"/>
</mask>
<path d="M35.5853 35.25H30.8372L29.4614 30.9471H22.5821L21.2197 35.25H16.4987L23.5398 15.9071H28.706L35.5853 35.25ZM28.4632 27.6019L26.3859 21.1003C26.2331 20.6147 26.1251 20.0347 26.0622 19.3602H25.9543C25.9093 19.9268 25.7969 20.4888 25.6171 21.0463L23.5128 27.6019H28.4632Z" fill="#D6E1F6"/>
<path d="M35.5853 35.25V35.4125H35.8155L35.7384 35.1955L35.5853 35.25ZM30.8372 35.25L30.6824 35.2995L30.7186 35.4125H30.8372V35.25ZM29.4614 30.9471L29.6161 30.8976L29.58 30.7846H29.4614V30.9471ZM22.5821 30.9471V30.7846H22.4631L22.4272 30.898L22.5821 30.9471ZM21.2197 35.25V35.4125H21.3387L21.3746 35.2991L21.2197 35.25ZM16.4987 35.25L16.346 35.1944L16.2666 35.4125H16.4987V35.25ZM23.5398 15.9071V15.7446H23.426L23.3871 15.8515L23.5398 15.9071ZM28.706 15.9071L28.8591 15.8527L28.8207 15.7446H28.706V15.9071ZM28.4632 27.6019V27.7644H28.6857L28.618 27.5524L28.4632 27.6019ZM26.3859 21.1003L26.2309 21.1491L26.2311 21.1497L26.3859 21.1003ZM26.0622 19.3602L26.224 19.3451L26.2102 19.1977H26.0622V19.3602ZM25.9543 19.3602V19.1977H25.8042L25.7923 19.3474L25.9543 19.3602ZM25.6171 21.0463L25.4624 20.9964L25.4623 20.9967L25.6171 21.0463ZM23.5128 27.6019L23.3581 27.5522L23.29 27.7644H23.5128V27.6019ZM35.5853 35.25V35.0875H30.8372V35.25V35.4125H35.5853V35.25ZM30.8372 35.25L30.992 35.2005L29.6161 30.8976L29.4614 30.9471L29.3066 30.9966L30.6824 35.2995L30.8372 35.25ZM29.4614 30.9471V30.7846H22.5821V30.9471V31.1096H29.4614V30.9471ZM22.5821 30.9471L22.4272 30.898L21.0648 35.2009L21.2197 35.25L21.3746 35.2991L22.737 30.9961L22.5821 30.9471ZM21.2197 35.25V35.0875H16.4987V35.25V35.4125H21.2197V35.25ZM16.4987 35.25L16.6514 35.3056L23.6925 15.9627L23.5398 15.9071L23.3871 15.8515L16.346 35.1944L16.4987 35.25ZM23.5398 15.9071V16.0696H28.706V15.9071V15.7446H23.5398V15.9071ZM28.706 15.9071L28.5529 15.9616L35.4322 35.3045L35.5853 35.25L35.7384 35.1955L28.8591 15.8527L28.706 15.9071ZM28.4632 27.6019L28.618 27.5524L26.5407 21.0508L26.3859 21.1003L26.2311 21.1497L28.3084 27.6513L28.4632 27.6019ZM26.3859 21.1003L26.5409 21.0515C26.3924 20.5798 26.2862 20.0116 26.224 19.3451L26.0622 19.3602L25.9004 19.3753C25.9641 20.0577 26.0737 20.6496 26.2309 21.1491L26.3859 21.1003ZM26.0622 19.3602V19.1977H25.9543V19.3602V19.5227H26.0622V19.3602ZM25.9543 19.3602L25.7923 19.3474C25.7484 19.9009 25.6385 20.4505 25.4624 20.9964L25.6171 21.0463L25.7717 21.0962C25.9553 20.527 26.0703 19.9526 26.1163 19.3731L25.9543 19.3602ZM25.6171 21.0463L25.4623 20.9967L23.3581 27.5522L23.5128 27.6019L23.6675 27.6515L25.7718 21.096L25.6171 21.0463ZM23.5128 27.6019V27.7644H28.4632V27.6019V27.4394H23.5128V27.6019Z" fill="#1C212A" mask="url(#path-2-outside-1_35_1372)"/>
</svg>
