<svg width="52" height="52" viewBox="0 0 52 52" fill="none" xmlns="http://www.w3.org/2000/svg">
<rect width="13" height="13" rx="0.8125" transform="matrix(-1 0 0 1 45.5 19.5)" fill="#D6E1F6"/>
<path d="M20.3125 6.5C19.8638 6.5 19.5 6.86377 19.5 7.3125V18.6875C19.5 19.1362 19.1362 19.5 18.6875 19.5H7.3125C6.86377 19.5 6.5 19.8638 6.5 20.3125V31.6875C6.5 32.1082 6.81974 32.4545 7.22949 32.4961L7.3125 32.5H18.6875L18.7705 32.5039C19.1803 32.5455 19.5 32.8918 19.5 33.3125V44.6875L19.5039 44.7705C19.5455 45.1803 19.8918 45.5 20.3125 45.5H31.6875C32.1082 45.5 32.4545 45.1803 32.4961 44.7705L32.5 44.6875V34.45C32.5 34.2705 32.3545 34.125 32.175 34.125H31.2C31.0205 34.125 30.875 34.2705 30.875 34.45V43.55C30.875 43.7295 30.7295 43.875 30.55 43.875H21.45C21.2705 43.875 21.125 43.7295 21.125 43.55V33.3125C21.125 31.9663 20.0337 30.875 18.6875 30.875H8.45C8.27051 30.875 8.125 30.7295 8.125 30.55V21.45C8.125 21.2705 8.27051 21.125 8.45 21.125H18.6875C20.0337 21.125 21.125 20.0337 21.125 18.6875V8.45C21.125 8.27051 21.2705 8.125 21.45 8.125H30.55C30.7295 8.125 30.875 8.27051 30.875 8.45V17.55C30.875 17.7295 31.0205 17.875 31.2 17.875H32.175C32.3545 17.875 32.5 17.7295 32.5 17.55V7.3125C32.5 6.89178 32.1803 6.54547 31.7705 6.50391L31.6875 6.5H20.3125Z" fill="#D6E1F6"/>
</svg>
