<svg width="52" height="52" viewBox="0 0 52 52" fill="none" xmlns="http://www.w3.org/2000/svg">
<circle cx="26" cy="25.9999" r="19.5" fill="#D6E1F6"/>
<mask id="path-2-outside-1_35_1375" maskUnits="userSpaceOnUse" x="19.0627" y="15.6561" width="15" height="21" fill="black">
<rect fill="white" x="19.0627" y="15.6561" width="15" height="21"/>
<path d="M19.2749 35.6561V16.3132H26.316C28.4742 16.3132 30.1334 16.7089 31.2934 17.5002C32.4534 18.2916 33.0334 19.4067 33.0334 20.8455C33.0334 21.8886 32.6782 22.8013 31.9678 23.5837C31.2664 24.366 30.3672 24.9101 29.2701 25.2158V25.2698C30.6459 25.4406 31.743 25.9487 32.5613 26.794C33.3887 27.6393 33.8023 28.6689 33.8023 29.8829C33.8023 31.6545 33.1683 33.0618 31.9004 34.1049C30.6324 35.1391 28.9014 35.6561 26.7072 35.6561H19.2749ZM23.6318 19.5236V24.1097H25.5472C26.4464 24.1097 27.1523 23.8939 27.6649 23.4623C28.1865 23.0216 28.4473 22.4191 28.4473 21.6548C28.4473 20.234 27.3861 19.5236 25.2639 19.5236H23.6318ZM23.6318 27.347V32.4458H25.9923C26.9995 32.4458 27.7863 32.212 28.3528 31.7444C28.9284 31.2768 29.2161 30.6383 29.2161 29.829C29.2161 29.0556 28.9329 28.4486 28.3663 28.008C27.8088 27.5674 27.0264 27.347 26.0193 27.347H23.6318Z"/>
</mask>
<path d="M19.2749 35.6561V16.3132H26.316C28.4742 16.3132 30.1334 16.7089 31.2934 17.5002C32.4534 18.2916 33.0334 19.4067 33.0334 20.8455C33.0334 21.8886 32.6782 22.8013 31.9678 23.5837C31.2664 24.366 30.3672 24.9101 29.2701 25.2158V25.2698C30.6459 25.4406 31.743 25.9487 32.5613 26.794C33.3887 27.6393 33.8023 28.6689 33.8023 29.8829C33.8023 31.6545 33.1683 33.0618 31.9004 34.1049C30.6324 35.1391 28.9014 35.6561 26.7072 35.6561H19.2749ZM23.6318 19.5236V24.1097H25.5472C26.4464 24.1097 27.1523 23.8939 27.6649 23.4623C28.1865 23.0216 28.4473 22.4191 28.4473 21.6548C28.4473 20.234 27.3861 19.5236 25.2639 19.5236H23.6318ZM23.6318 27.347V32.4458H25.9923C26.9995 32.4458 27.7863 32.212 28.3528 31.7444C28.9284 31.2768 29.2161 30.6383 29.2161 29.829C29.2161 29.0556 28.9329 28.4486 28.3663 28.008C27.8088 27.5674 27.0264 27.347 26.0193 27.347H23.6318Z" fill="#1C212A"/>
<path d="M19.2749 35.6561H19.1124V35.8186H19.2749V35.6561ZM19.2749 16.3132V16.1507H19.1124V16.3132H19.2749ZM31.9678 23.5837L31.8475 23.4744L31.8468 23.4752L31.9678 23.5837ZM29.2701 25.2158L29.2265 25.0593L29.1076 25.0924V25.2158H29.2701ZM29.2701 25.2698H29.1076V25.4133L29.2501 25.431L29.2701 25.2698ZM32.5613 26.794L32.4446 26.907L32.4452 26.9077L32.5613 26.794ZM31.9004 34.1049L32.0031 34.2308L32.0036 34.2304L31.9004 34.1049ZM23.6318 19.5236V19.3611H23.4693V19.5236H23.6318ZM23.6318 24.1097H23.4693V24.2722H23.6318V24.1097ZM27.6649 23.4623L27.7696 23.5866L27.7698 23.5864L27.6649 23.4623ZM23.6318 27.347V27.1845H23.4693V27.347H23.6318ZM23.6318 32.4458H23.4693V32.6083H23.6318V32.4458ZM28.3528 31.7444L28.2504 31.6183L28.2494 31.6191L28.3528 31.7444ZM28.3663 28.008L28.2656 28.1355L28.2666 28.1363L28.3663 28.008ZM19.2749 35.6561H19.4374V16.3132H19.2749H19.1124V35.6561H19.2749ZM19.2749 16.3132V16.4757H26.316V16.3132V16.1507H19.2749V16.3132ZM26.316 16.3132V16.4757C28.4579 16.4757 30.0797 16.869 31.2018 17.6345L31.2934 17.5002L31.385 17.366C30.187 16.5488 28.4906 16.1507 26.316 16.1507V16.3132ZM31.2934 17.5002L31.2018 17.6345C32.3162 18.3947 32.8709 19.4588 32.8709 20.8455H33.0334H33.1959C33.1959 19.3545 32.5907 18.1885 31.385 17.366L31.2934 17.5002ZM33.0334 20.8455H32.8709C32.8709 21.8476 32.5312 22.7216 31.8475 23.4744L31.9678 23.5837L32.0881 23.6929C32.8253 22.8811 33.1959 21.9296 33.1959 20.8455H33.0334ZM31.9678 23.5837L31.8468 23.4752C31.1678 24.2325 30.2963 24.7611 29.2265 25.0593L29.2701 25.2158L29.3137 25.3724C30.438 25.059 31.365 24.4995 32.0888 23.6922L31.9678 23.5837ZM29.2701 25.2158H29.1076V25.2698H29.2701H29.4326V25.2158H29.2701ZM29.2701 25.2698L29.2501 25.431C30.596 25.5982 31.6565 26.093 32.4446 26.907L32.5613 26.794L32.6781 26.681C31.8296 25.8045 30.6959 25.2831 29.2901 25.1085L29.2701 25.2698ZM32.5613 26.794L32.4452 26.9077C33.2419 27.7217 33.6398 28.7102 33.6398 29.8829H33.8023H33.9648C33.9648 28.6277 33.5354 27.5569 32.6775 26.6803L32.5613 26.794ZM33.8023 29.8829H33.6398C33.6398 31.6103 33.0243 32.9698 31.7972 33.9794L31.9004 34.1049L32.0036 34.2304C33.3124 33.1537 33.9648 31.6987 33.9648 29.8829H33.8023ZM31.9004 34.1049L31.7977 33.979C30.5673 34.9825 28.8767 35.4936 26.7072 35.4936V35.6561V35.8186C28.926 35.8186 30.6976 35.2956 32.0031 34.2308L31.9004 34.1049ZM26.7072 35.6561V35.4936H19.2749V35.6561V35.8186H26.7072V35.6561ZM23.6318 19.5236H23.4693V24.1097H23.6318H23.7943V19.5236H23.6318ZM23.6318 24.1097V24.2722H25.5472V24.1097V23.9472H23.6318V24.1097ZM25.5472 24.1097V24.2722C26.4716 24.2722 27.219 24.0502 27.7696 23.5866L27.6649 23.4623L27.5602 23.338C27.0857 23.7376 26.4213 23.9472 25.5472 23.9472V24.1097ZM27.6649 23.4623L27.7698 23.5864C28.3325 23.111 28.6098 22.4606 28.6098 21.6548H28.4473H28.2848C28.2848 22.3777 28.0404 22.9323 27.56 23.3381L27.6649 23.4623ZM28.4473 21.6548H28.6098C28.6098 20.8973 28.3231 20.3105 27.7418 19.9213C27.1721 19.5399 26.338 19.3611 25.2639 19.3611V19.5236V19.6861C26.312 19.6861 27.0696 19.8624 27.561 20.1914C28.0409 20.5127 28.2848 20.9914 28.2848 21.6548H28.4473ZM25.2639 19.5236V19.3611H23.6318V19.5236V19.6861H25.2639V19.5236ZM23.6318 27.347H23.4693V32.4458H23.6318H23.7943V27.347H23.6318ZM23.6318 32.4458V32.6083H25.9923V32.4458V32.2833H23.6318V32.4458ZM25.9923 32.4458V32.6083C27.0233 32.6083 27.8515 32.3689 28.4563 31.8697L28.3528 31.7444L28.2494 31.6191C27.7212 32.0551 26.9757 32.2833 25.9923 32.2833V32.4458ZM28.3528 31.7444L28.4553 31.8705C29.0726 31.369 29.3786 30.6821 29.3786 29.829H29.2161H29.0536C29.0536 30.5945 28.7841 31.1846 28.2504 31.6183L28.3528 31.7444ZM29.2161 29.829H29.3786C29.3786 29.01 29.0756 28.3538 28.4661 27.8797L28.3663 28.008L28.2666 28.1363C28.7901 28.5435 29.0536 29.1013 29.0536 29.829H29.2161ZM28.3663 28.008L28.4671 27.8805C27.871 27.4094 27.0481 27.1845 26.0193 27.1845V27.347V27.5095C27.0048 27.5095 27.7466 27.7253 28.2656 28.1355L28.3663 28.008ZM26.0193 27.347V27.1845H23.6318V27.347V27.5095H26.0193V27.347Z" fill="#1C212A" mask="url(#path-2-outside-1_35_1375)"/>
</svg>
