<svg width="52" height="52" viewBox="0 0 52 52" fill="none" xmlns="http://www.w3.org/2000/svg">
<circle cx="21.125" cy="26" r="19.5" fill="#D6E1F6"/>
<circle cx="21.125" cy="26" r="18" fill="#1C212A"/>
<circle cx="21.125" cy="26.0001" r="16.5" fill="#D6E1F6"/>
<mask id="path-4-outside-1_35_1376" maskUnits="userSpaceOnUse" x="16.625" y="15.25" width="12" height="21" fill="black">
<rect fill="white" x="16.625" y="15.25" width="12" height="21"/>
<path d="M28.3566 35.25H16.8372V15.9071H21.194V31.7159H28.3566V35.25Z"/>
</mask>
<path d="M28.3566 35.25H16.8372V15.9071H21.194V31.7159H28.3566V35.25Z" fill="#1C212A"/>
<path d="M28.3566 35.25V35.4125H28.5191V35.25H28.3566ZM16.8372 35.25H16.6747V35.4125H16.8372V35.25ZM16.8372 15.9071V15.7446H16.6747V15.9071H16.8372ZM21.194 15.9071H21.3565V15.7446H21.194V15.9071ZM21.194 31.7159H21.0315V31.8784H21.194V31.7159ZM28.3566 31.7159H28.5191V31.5534H28.3566V31.7159ZM28.3566 35.25V35.0875H16.8372V35.25V35.4125H28.3566V35.25ZM16.8372 35.25H16.9997V15.9071H16.8372H16.6747V35.25H16.8372ZM16.8372 15.9071V16.0696H21.194V15.9071V15.7446H16.8372V15.9071ZM21.194 15.9071H21.0315V31.7159H21.194H21.3565V15.9071H21.194ZM21.194 31.7159V31.8784H28.3566V31.7159V31.5534H21.194V31.7159ZM28.3566 31.7159H28.1941V35.25H28.3566H28.5191V31.7159H28.3566Z" fill="#1C212A" mask="url(#path-4-outside-1_35_1376)"/>
<path d="M40.3132 15.5134C44.3706 23.4691 44.3875 28.9614 40.2807 37.9667C40.1977 38.1488 40.4675 38.309 40.5829 38.1455L49.0858 26.0998C49.1275 26.0407 49.1251 25.9611 49.0799 25.9046L40.6101 15.3174C40.4857 15.1618 40.2227 15.336 40.3132 15.5134Z" fill="#D6E1F6"/>
</svg>
