<svg width="52" height="52" viewBox="0 0 52 52" fill="none" xmlns="http://www.w3.org/2000/svg">
<circle cx="30.0625" cy="26" r="19.5" fill="#D6E1F6"/>
<circle cx="30.0625" cy="26" r="18" fill="#1C212A"/>
<circle cx="30.0625" cy="26.0001" r="16.5" fill="#D6E1F6"/>
<mask id="path-4-outside-1_35_1371" maskUnits="userSpaceOnUse" x="25.5625" y="15.25" width="12" height="21" fill="black">
<rect fill="white" x="25.5625" y="15.25" width="12" height="21"/>
<path d="M37.2941 35.25H25.7747V15.9071H30.1315V31.7159H37.2941V35.25Z"/>
</mask>
<path d="M37.2941 35.25H25.7747V15.9071H30.1315V31.7159H37.2941V35.25Z" fill="#1C212A"/>
<path d="M37.2941 35.25V35.4125H37.4566V35.25H37.2941ZM25.7747 35.25H25.6122V35.4125H25.7747V35.25ZM25.7747 15.9071V15.7446H25.6122V15.9071H25.7747ZM30.1315 15.9071H30.294V15.7446H30.1315V15.9071ZM30.1315 31.7159H29.969V31.8784H30.1315V31.7159ZM37.2941 31.7159H37.4566V31.5534H37.2941V31.7159ZM37.2941 35.25V35.0875H25.7747V35.25V35.4125H37.2941V35.25ZM25.7747 35.25H25.9372V15.9071H25.7747H25.6122V35.25H25.7747ZM25.7747 15.9071V16.0696H30.1315V15.9071V15.7446H25.7747V15.9071ZM30.1315 15.9071H29.969V31.7159H30.1315H30.294V15.9071H30.1315ZM30.1315 31.7159V31.8784H37.2941V31.7159V31.5534H30.1315V31.7159ZM37.2941 31.7159H37.1316V35.25H37.2941H37.4566V31.7159H37.2941Z" fill="#1C212A" mask="url(#path-4-outside-1_35_1371)"/>
<path d="M10.8743 15.5134C6.81687 23.4691 6.80002 28.9614 10.9068 37.9667C10.9898 38.1488 10.72 38.309 10.6046 38.1455L2.10171 26.0998C2.05998 26.0407 2.06237 25.9611 2.10758 25.9046L10.5774 15.3174C10.7018 15.1618 10.9648 15.336 10.8743 15.5134Z" fill="#D6E1F6"/>
</svg>
