<svg width="52" height="52" viewBox="0 0 52 52" fill="none" xmlns="http://www.w3.org/2000/svg">
<circle cx="26" cy="25.9999" r="19.5" fill="#D6E1F6"/>
<mask id="path-2-outside-1_35_1374" maskUnits="userSpaceOnUse" x="15.7375" y="15.2499" width="20" height="21" fill="black">
<rect fill="white" x="15.7375" y="15.2499" width="20" height="21"/>
<path d="M34.7451 35.2499H29.5789L26.2471 28.9506C26.1212 28.7168 25.9908 28.2852 25.856 27.6557H25.802C25.7391 27.9525 25.5907 28.4021 25.3569 29.0046L22.0117 35.2499H16.8185L22.9828 25.5784L17.3445 15.907H22.6456L25.4108 21.7072C25.6266 22.1658 25.82 22.7098 25.9908 23.3393H26.0448C26.1527 22.9616 26.355 22.3996 26.6518 21.6532L29.7272 15.907H34.5832L28.783 25.4975L34.7451 35.2499Z"/>
</mask>
<path d="M34.7451 35.2499H29.5789L26.2471 28.9506C26.1212 28.7168 25.9908 28.2852 25.856 27.6557H25.802C25.7391 27.9525 25.5907 28.4021 25.3569 29.0046L22.0117 35.2499H16.8185L22.9828 25.5784L17.3445 15.907H22.6456L25.4108 21.7072C25.6266 22.1658 25.82 22.7098 25.9908 23.3393H26.0448C26.1527 22.9616 26.355 22.3996 26.6518 21.6532L29.7272 15.907H34.5832L28.783 25.4975L34.7451 35.2499Z" fill="#1C212A"/>
<path d="M34.7451 35.2499V35.4124H35.0349L34.8837 35.1651L34.7451 35.2499ZM29.5789 35.2499L29.4352 35.3259L29.481 35.4124H29.5789V35.2499ZM26.2471 28.9506L26.3908 28.8746L26.3902 28.8736L26.2471 28.9506ZM25.856 27.6557L26.0148 27.6217L25.9873 27.4932H25.856V27.6557ZM25.802 27.6557V27.4932H25.6704L25.643 27.622L25.802 27.6557ZM25.3569 29.0046L25.5001 29.0813L25.5048 29.0726L25.5084 29.0634L25.3569 29.0046ZM22.0117 35.2499V35.4124H22.109L22.1549 35.3266L22.0117 35.2499ZM16.8185 35.2499L16.6814 35.1625L16.5222 35.4124H16.8185V35.2499ZM22.9828 25.5784L23.1199 25.6658L23.1731 25.5822L23.1232 25.4966L22.9828 25.5784ZM17.3445 15.907V15.7445H17.0617L17.2042 15.9888L17.3445 15.907ZM22.6456 15.907L22.7923 15.8371L22.7482 15.7445H22.6456V15.907ZM25.4108 21.7072L25.5579 21.638L25.5575 21.6372L25.4108 21.7072ZM25.9908 23.3393L25.834 23.3819L25.8666 23.5018H25.9908V23.3393ZM26.0448 23.3393V23.5018H26.1674L26.201 23.3839L26.0448 23.3393ZM26.6518 21.6532L26.5085 21.5765L26.5042 21.5846L26.5008 21.5932L26.6518 21.6532ZM29.7272 15.907V15.7445H29.6299L29.584 15.8303L29.7272 15.907ZM34.5832 15.907L34.7222 15.9911L34.8714 15.7445H34.5832V15.907ZM28.783 25.4975L28.644 25.4134L28.5928 25.498L28.6444 25.5823L28.783 25.4975ZM34.7451 35.2499V35.0874H29.5789V35.2499V35.4124H34.7451V35.2499ZM29.5789 35.2499L29.7225 35.1739L26.3908 28.8746L26.2471 28.9506L26.1035 29.0266L29.4352 35.3259L29.5789 35.2499ZM26.2471 28.9506L26.3902 28.8736C26.2764 28.6623 26.1498 28.2514 26.0148 27.6217L25.856 27.6557L25.6971 27.6897C25.8319 28.319 25.966 28.7713 26.1041 29.0277L26.2471 28.9506ZM25.856 27.6557V27.4932H25.802V27.6557V27.8182H25.856V27.6557ZM25.802 27.6557L25.643 27.622C25.583 27.9051 25.4387 28.3445 25.2054 28.9458L25.3569 29.0046L25.5084 29.0634C25.7426 28.4597 25.8951 27.9998 25.961 27.6894L25.802 27.6557ZM25.3569 29.0046L25.2136 28.9279L21.8684 35.1732L22.0117 35.2499L22.1549 35.3266L25.5001 29.0813L25.3569 29.0046ZM22.0117 35.2499V35.0874H16.8185V35.2499V35.4124H22.0117V35.2499ZM16.8185 35.2499L16.9555 35.3372L23.1199 25.6658L22.9828 25.5784L22.8458 25.4911L16.6814 35.1625L16.8185 35.2499ZM22.9828 25.5784L23.1232 25.4966L17.4849 15.8251L17.3445 15.907L17.2042 15.9888L22.8425 25.6603L22.9828 25.5784ZM17.3445 15.907V16.0695H22.6456V15.907V15.7445H17.3445V15.907ZM22.6456 15.907L22.4989 15.9769L25.2641 21.7771L25.4108 21.7072L25.5575 21.6372L22.7923 15.8371L22.6456 15.907ZM25.4108 21.7072L25.2638 21.7763C25.4746 22.2244 25.665 22.7591 25.834 23.3819L25.9908 23.3393L26.1477 23.2967C25.975 22.6606 25.7787 22.1072 25.5579 21.638L25.4108 21.7072ZM25.9908 23.3393V23.5018H26.0448V23.3393V23.1768H25.9908V23.3393ZM26.0448 23.3393L26.201 23.3839C26.3066 23.0144 26.5064 22.4586 26.8028 21.7132L26.6518 21.6532L26.5008 21.5932C26.2036 22.3405 25.9988 22.9088 25.8886 23.2947L26.0448 23.3393ZM26.6518 21.6532L26.7951 21.7299L29.8705 15.9837L29.7272 15.907L29.584 15.8303L26.5085 21.5765L26.6518 21.6532ZM29.7272 15.907V16.0695H34.5832V15.907V15.7445H29.7272V15.907ZM34.5832 15.907L34.4441 15.8229L28.644 25.4134L28.783 25.4975L28.9221 25.5816L34.7222 15.9911L34.5832 15.907ZM28.783 25.4975L28.6444 25.5823L34.6064 35.3346L34.7451 35.2499L34.8837 35.1651L28.9217 25.4127L28.783 25.4975Z" fill="#1C212A" mask="url(#path-2-outside-1_35_1374)"/>
</svg>
