<svg width="52" height="52" viewBox="0 0 52 52" fill="none" xmlns="http://www.w3.org/2000/svg">
<rect x="6.5" y="19.5" width="13" height="13" rx="0.8125" fill="#D6E1F6"/>
<path d="M31.6875 6.5C32.1362 6.5 32.5 6.86377 32.5 7.3125V18.6875C32.5 19.1362 32.8638 19.5 33.3125 19.5H44.6875C45.1362 19.5 45.5 19.8638 45.5 20.3125V31.6875C45.5 32.1082 45.1803 32.4545 44.7705 32.4961L44.6875 32.5H33.3125L33.2295 32.5039C32.8197 32.5455 32.5 32.8918 32.5 33.3125V44.6875L32.4961 44.7705C32.4545 45.1803 32.1082 45.5 31.6875 45.5H20.3125C19.8918 45.5 19.5455 45.1803 19.5039 44.7705L19.5 44.6875V34.45C19.5 34.2705 19.6455 34.125 19.825 34.125H20.8C20.9795 34.125 21.125 34.2705 21.125 34.45V43.55C21.125 43.7295 21.2705 43.875 21.45 43.875H30.55C30.7295 43.875 30.875 43.7295 30.875 43.55V33.3125C30.875 31.9663 31.9663 30.875 33.3125 30.875H43.55C43.7295 30.875 43.875 30.7295 43.875 30.55V21.45C43.875 21.2705 43.7295 21.125 43.55 21.125H33.3125C31.9663 21.125 30.875 20.0337 30.875 18.6875V8.45C30.875 8.27051 30.7295 8.125 30.55 8.125H21.45C21.2705 8.125 21.125 8.27051 21.125 8.45V17.55C21.125 17.7295 20.9795 17.875 20.8 17.875H19.825C19.6455 17.875 19.5 17.7295 19.5 17.55V7.3125C19.5 6.89178 19.8197 6.54547 20.2295 6.50391L20.3125 6.5H31.6875Z" fill="#D6E1F6"/>
</svg>
