<svg width="52" height="52" viewBox="0 0 52 52" fill="none" xmlns="http://www.w3.org/2000/svg">
<circle cx="26" cy="26" r="19.5" fill="#D6E1F6"/>
<circle cx="26" cy="26" r="18" fill="#1C212A"/>
<circle cx="26" cy="26.0001" r="16.5" fill="#D6E1F6"/>
<mask id="path-4-outside-1_35_1369" maskUnits="userSpaceOnUse" x="21.5" y="15.25" width="12" height="21" fill="black">
<rect fill="white" x="21.5" y="15.25" width="12" height="21"/>
<path d="M33.2316 35.25H21.7122V15.9071H26.069V31.7159H33.2316V35.25Z"/>
</mask>
<path d="M33.2316 35.25H21.7122V15.9071H26.069V31.7159H33.2316V35.25Z" fill="#1C212A"/>
<path d="M33.2316 35.25V35.4125H33.3941V35.25H33.2316ZM21.7122 35.25H21.5497V35.4125H21.7122V35.25ZM21.7122 15.9071V15.7446H21.5497V15.9071H21.7122ZM26.069 15.9071H26.2315V15.7446H26.069V15.9071ZM26.069 31.7159H25.9065V31.8784H26.069V31.7159ZM33.2316 31.7159H33.3941V31.5534H33.2316V31.7159ZM33.2316 35.25V35.0875H21.7122V35.25V35.4125H33.2316V35.25ZM21.7122 35.25H21.8747V15.9071H21.7122H21.5497V35.25H21.7122ZM21.7122 15.9071V16.0696H26.069V15.9071V15.7446H21.7122V15.9071ZM26.069 15.9071H25.9065V31.7159H26.069H26.2315V15.9071H26.069ZM26.069 31.7159V31.8784H33.2316V31.7159V31.5534H26.069V31.7159ZM33.2316 31.7159H33.0691V35.25H33.2316H33.3941V31.7159H33.2316Z" fill="#1C212A" mask="url(#path-4-outside-1_35_1369)"/>
</svg>
