<svg width="52" height="52" viewBox="0 0 52 52" fill="none" xmlns="http://www.w3.org/2000/svg">
<circle cx="26" cy="26" r="18.6875" stroke="#D6E1F6" stroke-width="1.625"/>
<mask id="path-2-outside-1_35_1367" maskUnits="userSpaceOnUse" x="19.0625" y="15.6562" width="15" height="21" fill="black">
<rect fill="white" x="19.0625" y="15.6562" width="15" height="21"/>
<path d="M19.2747 35.6562V16.3134H26.3158C28.474 16.3134 30.1331 16.709 31.2932 17.5004C32.4532 18.2917 33.0332 19.4068 33.0332 20.8456C33.0332 21.8887 32.678 22.8015 31.9676 23.5838C31.2662 24.3661 30.3669 24.9102 29.2698 25.2159V25.2699C30.6457 25.4408 31.7428 25.9488 32.5611 26.7941C33.3884 27.6394 33.8021 28.6691 33.8021 29.8831C33.8021 31.6546 33.1681 33.0619 31.9001 34.105C30.6322 35.1392 28.9011 35.6562 26.707 35.6562H19.2747ZM23.6315 19.5237V24.1099H25.5469C26.4462 24.1099 27.1521 23.894 27.6647 23.4624C28.1862 23.0218 28.447 22.4193 28.447 21.6549C28.447 20.2341 27.3859 19.5237 25.2637 19.5237H23.6315ZM23.6315 27.3472V32.4459H25.9921C26.9992 32.4459 27.7861 32.2121 28.3526 31.7445C28.9281 31.2769 29.2159 30.6384 29.2159 29.8291C29.2159 29.0557 28.9326 28.4488 28.3661 28.0081C27.8086 27.5675 27.0262 27.3472 26.019 27.3472H23.6315Z"/>
</mask>
<path d="M19.2747 35.6562V16.3134H26.3158C28.474 16.3134 30.1331 16.709 31.2932 17.5004C32.4532 18.2917 33.0332 19.4068 33.0332 20.8456C33.0332 21.8887 32.678 22.8015 31.9676 23.5838C31.2662 24.3661 30.3669 24.9102 29.2698 25.2159V25.2699C30.6457 25.4408 31.7428 25.9488 32.5611 26.7941C33.3884 27.6394 33.8021 28.6691 33.8021 29.8831C33.8021 31.6546 33.1681 33.0619 31.9001 34.105C30.6322 35.1392 28.9011 35.6562 26.707 35.6562H19.2747ZM23.6315 19.5237V24.1099H25.5469C26.4462 24.1099 27.1521 23.894 27.6647 23.4624C28.1862 23.0218 28.447 22.4193 28.447 21.6549C28.447 20.2341 27.3859 19.5237 25.2637 19.5237H23.6315ZM23.6315 27.3472V32.4459H25.9921C26.9992 32.4459 27.7861 32.2121 28.3526 31.7445C28.9281 31.2769 29.2159 30.6384 29.2159 29.8291C29.2159 29.0557 28.9326 28.4488 28.3661 28.0081C27.8086 27.5675 27.0262 27.3472 26.019 27.3472H23.6315Z" fill="#D6E1F6"/>
<path d="M19.2747 35.6562H19.1122V35.8188H19.2747V35.6562ZM19.2747 16.3134V16.1509H19.1122V16.3134H19.2747ZM31.9676 23.5838L31.8473 23.4746L31.8466 23.4753L31.9676 23.5838ZM29.2698 25.2159L29.2262 25.0594L29.1073 25.0925V25.2159H29.2698ZM29.2698 25.2699H29.1073V25.4135L29.2498 25.4312L29.2698 25.2699ZM32.5611 26.7941L32.4443 26.9072L32.445 26.9078L32.5611 26.7941ZM31.9001 34.105L32.0029 34.231L32.0034 34.2305L31.9001 34.105ZM23.6315 19.5237V19.3612H23.469V19.5237H23.6315ZM23.6315 24.1099H23.469V24.2724H23.6315V24.1099ZM27.6647 23.4624L27.7693 23.5867L27.7695 23.5865L27.6647 23.4624ZM23.6315 27.3472V27.1847H23.469V27.3472H23.6315ZM23.6315 32.4459H23.469V32.6084H23.6315V32.4459ZM28.3526 31.7445L28.2501 31.6184L28.2492 31.6192L28.3526 31.7445ZM28.3661 28.0081L28.2653 28.1356L28.2663 28.1364L28.3661 28.0081ZM19.2747 35.6562H19.4372V16.3134H19.2747H19.1122V35.6562H19.2747ZM19.2747 16.3134V16.4759H26.3158V16.3134V16.1509H19.2747V16.3134ZM26.3158 16.3134V16.4759C28.4577 16.4759 30.0795 16.8691 31.2016 17.6346L31.2932 17.5004L31.3847 17.3661C30.1868 16.5489 28.4903 16.1509 26.3158 16.1509V16.3134ZM31.2932 17.5004L31.2016 17.6346C32.3159 18.3948 32.8707 19.4589 32.8707 20.8456H33.0332H33.1957C33.1957 19.3546 32.5904 18.1886 31.3847 17.3661L31.2932 17.5004ZM33.0332 20.8456H32.8707C32.8707 21.8477 32.5309 22.7217 31.8473 23.4746L31.9676 23.5838L32.0879 23.693C32.8251 22.8812 33.1957 21.9297 33.1957 20.8456H33.0332ZM31.9676 23.5838L31.8466 23.4753C31.1676 24.2327 30.2961 24.7613 29.2262 25.0594L29.2698 25.2159L29.3135 25.3725C30.4378 25.0591 31.3648 24.4996 32.0886 23.6923L31.9676 23.5838ZM29.2698 25.2159H29.1073V25.2699H29.2698H29.4323V25.2159H29.2698ZM29.2698 25.2699L29.2498 25.4312C30.5957 25.5983 31.6562 26.0931 32.4443 26.9072L32.5611 26.7941L32.6778 26.6811C31.8293 25.8046 30.6957 25.2832 29.2899 25.1086L29.2698 25.2699ZM32.5611 26.7941L32.445 26.9078C33.2417 27.7218 33.6396 28.7103 33.6396 29.8831H33.8021H33.9646C33.9646 28.6278 33.5351 27.557 32.6772 26.6805L32.5611 26.7941ZM33.8021 29.8831H33.6396C33.6396 31.6104 33.0241 32.97 31.7969 33.9796L31.9001 34.105L32.0034 34.2305C33.3121 33.1539 33.9646 31.6988 33.9646 29.8831H33.8021ZM31.9001 34.105L31.7974 33.9791C30.5671 34.9826 28.8765 35.4937 26.707 35.4937V35.6562V35.8188C28.9258 35.8188 30.6973 35.2957 32.0029 34.231L31.9001 34.105ZM26.707 35.6562V35.4937H19.2747V35.6562V35.8188H26.707V35.6562ZM23.6315 19.5237H23.469V24.1099H23.6315H23.794V19.5237H23.6315ZM23.6315 24.1099V24.2724H25.5469V24.1099V23.9474H23.6315V24.1099ZM25.5469 24.1099V24.2724C26.4713 24.2724 27.2188 24.0503 27.7693 23.5867L27.6647 23.4624L27.56 23.3381C27.0854 23.7377 26.4211 23.9474 25.5469 23.9474V24.1099ZM27.6647 23.4624L27.7695 23.5865C28.3323 23.1111 28.6095 22.4607 28.6095 21.6549H28.447H28.2845C28.2845 22.3779 28.0402 22.9324 27.5598 23.3383L27.6647 23.4624ZM28.447 21.6549H28.6095C28.6095 20.8975 28.3229 20.3106 27.7416 19.9215C27.1719 19.54 26.3378 19.3612 25.2637 19.3612V19.5237V19.6862C26.3118 19.6862 27.0694 19.8625 27.5608 20.1915C28.0406 20.5128 28.2845 20.9915 28.2845 21.6549H28.447ZM25.2637 19.5237V19.3612H23.6315V19.5237V19.6862H25.2637V19.5237ZM23.6315 27.3472H23.469V32.4459H23.6315H23.794V27.3472H23.6315ZM23.6315 32.4459V32.6084H25.9921V32.4459V32.2834H23.6315V32.4459ZM25.9921 32.4459V32.6084C27.023 32.6084 27.8512 32.3691 28.456 31.8698L28.3526 31.7445L28.2492 31.6192C27.7209 32.0552 26.9754 32.2834 25.9921 32.2834V32.4459ZM28.3526 31.7445L28.4551 31.8706C29.0724 31.3691 29.3784 30.6823 29.3784 29.8291H29.2159H29.0534C29.0534 30.5946 28.7839 31.1847 28.2501 31.6184L28.3526 31.7445ZM29.2159 29.8291H29.3784C29.3784 29.0101 29.0754 28.3539 28.4659 27.8798L28.3661 28.0081L28.2663 28.1364C28.7899 28.5436 29.0534 29.1014 29.0534 29.8291H29.2159ZM28.3661 28.0081L28.4668 27.8806C27.8708 27.4095 27.0479 27.1847 26.019 27.1847V27.3472V27.5097C27.0046 27.5097 27.7463 27.7254 28.2653 28.1356L28.3661 28.0081ZM26.019 27.3472V27.1847H23.6315V27.3472V27.5097H26.019V27.3472Z" fill="#1C212A" mask="url(#path-2-outside-1_35_1367)"/>
</svg>
