<svg width="612" height="180" viewBox="0 0 612 180" fill="none" xmlns="http://www.w3.org/2000/svg">
<g filter="url(#filter0_d_35_1612)">
<path d="M18.4034 155.951C17.5436 155.46 16.7383 154.855 16.02 154.135C15.699 153.813 15.4106 153.486 15.1548 153.159C14.5454 152.7 13.9359 152.155 13.3537 151.506C13.3373 151.5 10.9104 150.682 10.9104 150.682L9.11471 148.904C6.91089 146.722 6.02392 144.153 5.49609 142.157C5.00635 140.335 4.75604 138.334 4.75604 136.245C4.75604 134.614 4.94649 132.863 5.34372 130.888L5.38726 130.692C9.70783 111.078 11.9008 93.9896 11.9008 79.8955C11.9008 75.0084 11.6341 69.8922 11.1118 64.6887C10.5132 58.7325 9.82755 55.3836 9.34325 53.5945C9.04397 52.6182 8.7338 51.2655 8.28759 48.5983C8.11891 48.3747 7.95022 48.1456 7.79786 47.9056C7.13399 46.8966 6.64425 45.8112 6.32864 44.6821C4.16291 42.9967 2.9168 41.0713 2.24205 39.7295C0.903431 37.0569 0.250447 33.6534 0.0599929 28.3517C-0.0923701 25.4391 0.0599929 22.2265 0.506199 18.5339C0.772834 16.3521 1.14286 13.3468 2.45971 10.5978C3.36845 7.01423 6.02936 4.09069 9.74593 2.80346C10.7254 2.46529 11.7539 2.24166 12.9782 2.09985C14.2352 1.95258 15.7969 1.88713 17.8919 1.88713C19.6114 1.88713 22.958 1.70713 29.1776 0.861707C33.2316 0.283544 36.7359 0.00537109 39.892 0.00537109C42.3516 0.00537109 45.1812 0.343542 47.7224 1.49987C49.4419 1.59259 52.9299 1.70168 59.8244 1.70168H73.9288C82.2435 1.70168 89.0291 1.73441 94.0897 1.7944C101.278 1.88713 103.585 2.09439 104.891 2.27984C106.926 2.56892 109.01 3.10345 111.095 3.85615L111.394 3.96524L111.688 4.09069C112.874 4.6034 113.968 5.13248 114.947 5.66155C115.818 6.14154 116.873 6.7797 117.902 7.69058C120.47 9.25052 122.402 11.825 123.207 15.0212L123.224 15.0867C123.518 16.2921 123.648 17.5521 123.626 19.1447C124.53 20.7429 125.041 22.5919 125.041 24.5664C125.041 25.4391 124.943 26.4263 124.666 27.4681C124.622 30.4953 123.376 32.8461 122.173 34.4552C122.043 36.1951 121.651 37.7769 120.998 39.195C120.737 40.0732 120.198 41.9604 119.066 46.0075C116.498 57.1726 112.945 67.2032 108.504 75.832C103.977 84.6244 98.1056 92.8824 91.0425 100.377C85.6445 106.076 79.9254 110.816 74.0268 114.493C68.4873 117.945 62.4526 120.705 56.0643 122.701L55.9826 123.067C55.0358 127.801 54.2577 130.839 52.9952 133.136C52.5436 135.356 51.5424 138.039 49.6487 142.092C48.876 143.739 48.272 144.977 47.7986 145.877C45.943 149.401 43.4671 151.593 40.4144 152.428C39.239 153.699 38.08 154.746 36.8992 155.608L19.9053 167.994L18.4034 155.946V155.951ZM61.0378 51.9691C61.1902 53.6164 61.3154 55.509 61.4133 57.669C61.4296 57.6417 61.446 57.609 61.4568 57.5817C62.4907 55.6072 63.3668 53.66 64.0797 51.7564L61.0378 51.9691Z" fill="#18EBFF"/>
<path d="M133.704 157.74C130.989 157.74 128.475 156.764 126.532 155.079C126.374 155.008 126.211 154.931 126.048 154.855C125.808 154.871 125.607 154.877 125.438 154.877C117.907 154.877 114.865 148.261 113.864 146.09L113.821 145.997C112.591 143.259 111.198 138.557 110.164 124.409C109.456 114.787 109.037 103.077 108.912 89.599V89.4954C108.912 80.7302 108.662 71.2941 108.178 61.4544C107.666 53.1474 107.41 45.7786 107.41 39.5497C107.41 33.3208 107.688 28.4119 108.254 24.0157V23.9557C108.646 21.0976 109.032 18.9977 109.478 17.3395C110.692 12.8397 112.993 10.3961 115.268 9.07071C115.616 8.59618 115.997 8.14346 116.422 7.71802C118.239 5.89627 120.552 4.78903 123.038 4.52176C124.704 3.84542 126.603 3.42544 128.758 3.24544C130.825 3.03818 136.294 2.77637 158.724 2.44911L177.416 2.07275H177.525C182.857 2.07275 188.331 2.07275 192.271 4.94175L202.267 6.76351L201.554 27.081L201.544 27.2283C201.184 33.0045 200.999 45.0804 200.999 63.1126C200.999 74.6977 201.935 92.0262 203.785 114.618C204.569 123.722 204.732 127.005 204.759 128.614C205.048 132.448 205.282 136.703 202.61 140.336C202.479 141.41 202.327 142.452 202.142 143.461C201.832 145.163 201.5 146.477 201.086 147.606C198.953 153.475 194.11 155.564 190.296 155.564C190.018 155.564 189.741 155.553 189.463 155.531C187.553 156.906 185.262 157.615 183.031 157.62C181.301 157.62 179.63 157.211 178.134 156.453C177.535 156.551 176.921 156.606 176.3 156.606C173.248 156.606 170.451 155.406 167.996 153.039L165.885 151.113L165.706 150.939C162.571 147.803 161.309 143.537 159.589 130.196C159.181 127.054 158.827 124.294 158.523 121.894H157.788L157.755 122.582C157.396 132.476 156.847 136.141 156.395 138.154L155.862 140.832L153.985 140.646C153.827 141.208 153.658 141.77 153.473 142.343C152.406 145.637 151.188 148.304 149.74 150.481C146.268 155.69 142.078 156.78 139.167 156.78C138.873 156.78 138.574 156.77 138.286 156.748C136.855 157.402 135.304 157.74 133.715 157.74H133.704Z" fill="#18EBFF"/>
<path d="M278.754 157.315C275.761 157.315 273.045 156.153 271.016 154.13C269.492 154.353 267.783 154.577 265.846 154.806L265.634 154.833L265.422 154.85C261.874 155.122 259.202 155.259 257.249 155.259C242.426 155.259 229.649 151.326 219.261 143.565C214.995 140.537 211.327 136.959 208.351 132.934C205.451 129.012 202.882 124.202 200.51 118.245C197.871 111.569 195.808 104.299 194.372 96.6079C192.984 89.2008 191.498 78.0794 189.828 62.5999C189.039 55.4819 188.636 48.2276 188.636 41.0715C188.636 31.7391 189.257 24.2011 190.535 18.0213C191.308 13.9578 191.814 12.1306 192.614 10.5379C194.312 7.12895 197.495 4.83812 201.135 4.3145C202.648 2.83636 204.346 1.76731 206.202 1.14551L206.615 1.0037L207.04 0.900063C208.977 0.414625 211.3 0.201904 214.56 0.201904C219.435 0.201904 222.564 0.485531 224.92 1.14551H225.274C227.663 1.14551 230.101 1.81094 232.952 3.23453C233.224 3.37089 233.436 3.47453 233.594 3.54543C237.73 4.58176 241.011 7.97438 241.98 12.5015C242.241 13.7233 242.361 15.076 242.361 16.7668C242.361 19.4722 242.105 23.6448 241.571 29.5191C241.098 36.2171 240.853 42.4514 240.853 48.0531C240.853 56.191 241.158 64.4816 241.762 72.6959C242.355 80.7956 243.062 87.0354 243.857 91.2571C244.472 94.4479 245.299 97.3824 246.306 99.9514C247.242 102.351 247.9 103.453 248.167 103.84C248.597 104.249 249.396 104.882 250.806 105.657C251.421 105.897 252.656 106.295 254.849 106.737L254.082 94.6497C252.558 67.4488 251.568 57.3746 251.002 53.7093C250.278 49.2149 249.93 42.9805 249.93 34.6681C249.93 29.6064 250.098 25.4011 250.452 21.823C250.664 19.6304 250.925 17.9613 251.279 16.5923C252.144 13.1942 254.533 9.35433 258.652 7.84347C258.772 7.7562 258.892 7.67439 259.006 7.59803C259.311 7.21622 259.637 6.85623 259.98 6.51261C261.89 4.59812 264.361 3.23453 267.538 2.34002C269.541 1.74004 272.055 1.52732 276.795 1.52732C282.122 1.52732 286.383 1.83276 289.827 2.45456L290.594 2.59637L291.334 2.84182C293.876 3.6927 296.776 4.82721 298.969 7.53803L299.04 7.6253C301.439 10.6525 301.771 14.1433 301.777 16.865L301.962 29.1482C302.212 37.6134 302.457 49.1603 302.713 64.4544C302.963 80.0484 303.213 91.1208 303.458 97.3769C303.839 107.277 304.029 116.865 304.029 125.892C304.029 132.972 303.877 134.467 303.697 135.574L303.654 135.819L303.088 138.836L300.993 138.688C300.824 139.441 300.628 140.194 300.411 140.952C299.306 144.835 297.891 147.879 296.096 150.252C292.738 155.002 288.499 155.728 286.236 155.728C286.089 155.728 285.936 155.728 285.789 155.717L284.195 156.497H282.873C281.518 157.059 280.103 157.331 278.748 157.331L278.754 157.315Z" fill="#18EBFF"/>
<path d="M316.85 155.444C312.061 155.444 308.138 154.904 304.862 153.791L295.437 150.955V147.513C295.269 147.366 295.105 147.219 294.942 147.066L292.782 145.261L292.444 144.923C291.917 144.399 291.525 144.001 291.258 143.734C288.053 140.494 287.085 135.737 288.788 131.603C288.815 131.543 288.837 131.483 288.864 131.423C288.614 130.496 288.478 129.519 288.478 128.516C288.478 124.796 290.29 122.091 291.677 120.482C292.45 116.064 295.546 112.42 300.068 110.696C301.363 110.135 303.066 109.676 306.146 109.142C301.096 107.953 297.799 105.417 296.324 101.582C294.561 100.349 293.359 98.915 292.553 97.655C290.964 95.1842 290.094 92.157 289.658 87.5426C289.321 84.1609 289.571 79.2411 290.436 72.074C291.285 65.0488 292.194 60.1453 293.299 56.6545C299.012 38.066 312.823 22.3466 334.361 9.93241L334.453 9.88333C339.22 7.19432 343.949 5.20348 348.503 3.96534C353.118 2.71083 358.282 2.07812 363.859 2.07812C370.514 2.07812 373.017 2.36721 374.459 2.61265C378.894 3.39263 381.92 5.62346 383.694 8.35065C384.167 8.847 384.597 9.39243 384.978 9.97605C386.915 11.0942 388.488 12.7251 389.505 14.7377C391.317 18.0867 392.041 22.652 392.041 30.5117C392.041 37.2861 391.469 41.1259 390.017 44.1204C389.913 44.6549 389.772 45.184 389.592 45.7131C388.885 47.7366 387.802 49.2257 386.55 50.3275L388.966 50.9711L391.061 62.7471C392.139 63.6961 392.895 64.7379 393.423 65.7033C396.013 67.5033 398.32 69.9086 399.474 73.2849C400.051 74.9703 400.263 76.7102 400.122 78.4229C401.743 82.3392 400.655 85.759 400.16 86.9645C400.138 87.0135 400.116 87.0626 400.1 87.1117C399.953 87.8699 399.735 88.6117 399.458 89.3535C399.534 89.8989 399.572 90.4553 399.572 91.0116C399.572 96.0951 396.323 99.3513 395.257 100.42L394.909 100.769L394.533 101.086C392.661 102.651 390.599 103.835 388.411 104.615C387.339 107.615 385.789 111.013 383.715 114.907C380.875 120.236 378.132 124.425 375.33 127.703C371.194 132.558 366.27 137.145 360.698 141.312C354.881 145.664 349.619 148.697 344.607 150.59C340.705 152.09 336.167 153.29 331.112 154.162C326.138 155.019 321.344 155.449 316.861 155.449L316.85 155.444Z" fill="#18EBFF"/>
<path d="M417.317 160.893C416.049 160.893 414.814 160.675 413.655 160.266C413.214 160.32 412.784 160.348 412.37 160.348C411.837 160.348 411.298 160.304 410.765 160.222C410.444 160.249 410.118 160.266 409.791 160.266H407.223L404.779 159.049C402.957 158.111 401.482 156.737 400.437 155.068C400.007 154.959 399.583 154.839 399.169 154.697L398.87 154.599L398.576 154.484C394.925 153.033 392.177 150.072 391.001 146.341C389.151 144.846 387.715 142.932 386.79 140.668C385.745 138.148 385.315 135.05 385.315 130.021C385.315 121.851 386.017 116.86 387.655 113.342L388.003 112.595L388.074 112.491C388.732 109.769 390.392 107.451 392.726 105.908L392.743 105.509L392.52 105.482L384.945 100.426V99.2368C384.727 99.095 384.521 98.9532 384.308 98.8059C379.264 95.2769 378.328 91.0116 378.432 88.0554C378.442 87.7717 378.464 87.4936 378.491 87.2154C378.127 86.1463 377.806 84.7118 377.882 83.0592C377.664 82.0828 377.61 81.2429 377.61 80.6483C377.61 78.5211 378.274 76.0339 379.89 73.9176C380.162 69.4232 383.024 66.5542 383.998 65.5834L384.423 65.1579L384.891 64.7816C386.768 63.2762 389.059 62.1035 391.932 61.1871C391.861 60.7453 391.785 60.2653 391.693 59.7417L391.676 59.6381C390.757 54.0965 390.474 51.6038 390.414 50.022C389.2 48.7675 388.253 47.2349 387.66 45.5004C386.833 44.9168 386.028 44.2077 385.293 43.3459C383.77 41.5678 382.747 39.3969 381.92 36.1352C381.397 34.2044 381.18 31.8917 381.18 28.2537C381.18 21.3484 381.887 16.2759 383.4 12.2996L387.345 2.41632L430.072 2.6454C462.574 2.6454 472.244 2.4545 474.632 2.29087L474.785 2.27996H474.937C479.377 2.09997 482.256 2.0127 483.725 2.0127C488.378 2.0127 491.191 3.889 492.872 5.89621C493.324 6.06529 493.776 6.25074 494.222 6.44164C501.693 9.65427 503.157 14.645 503.075 18.2722C503.064 18.7794 503.015 19.2812 502.939 19.7721C503.924 21.4302 504.485 23.3611 504.485 25.4283C504.485 26.8901 504.224 28.2046 503.864 29.3445C504.028 30.1191 504.109 30.8936 504.109 31.6517C504.109 35.8352 501.878 38.677 499.974 40.6787V62.938C499.974 75.0794 499.908 82.6446 499.778 86.07C499.587 90.8425 498.913 94.2133 497.59 96.8696C494.619 103.42 489.635 105.318 486.892 105.864C485.521 106.142 484.204 106.409 463.129 106.447L464.489 106.507C472.537 106.769 478.469 107.091 482.615 107.495C485.069 107.735 486.887 107.997 488.334 108.324C493.237 109.431 495.729 112.027 496.992 114.487C499.255 116.036 502.814 119.113 503.434 124.256C503.549 125.211 503.549 126.16 503.434 127.092C504.055 128.734 504.283 130.49 504.104 132.208C504.365 134.723 503.766 137.308 502.324 139.512L502.259 139.616C502.188 139.719 502.118 139.823 502.041 139.926C502.02 142.245 501.165 149.581 491.583 152.673C488.715 153.601 484.623 154.222 478.311 154.68C473.005 155.068 465.066 155.455 454.7 155.831H454.597C445.509 156.082 438.207 156.333 432.896 156.579C429.234 156.748 427.117 156.906 425.942 157.015C425.011 157.964 424.13 158.673 423.166 159.257C421.349 160.342 419.346 160.904 417.317 160.904V160.893ZM442.691 53.1583C442.712 54.0037 442.74 54.8655 442.772 55.7273C445.21 55.531 447.115 55.3619 448.606 55.2092L448.682 52.9456V52.7329C447.974 52.782 447.213 52.831 446.402 52.8856C445.014 52.9838 443.784 53.071 442.691 53.1529V53.1583Z" fill="#18EBFF"/>
<path d="M566.926 153.371C564.663 153.371 562.252 153.099 559.755 152.564C557.643 152.111 555.287 151.468 552.55 150.606L552.447 150.573C545.373 148.255 539.109 145.67 533.831 142.883C528.542 140.095 523.073 136.517 517.588 132.258C505.361 122.849 496.388 111.367 490.908 98.1187C488.329 92.2171 486.664 87.2481 485.82 82.9337C484.988 78.6957 484.585 73.694 484.585 67.6451C484.585 60.7781 485.086 56.2509 486.212 52.9783C487.627 48.8548 490.462 45.1895 494.652 42.0914L494.875 41.9332C497.193 40.3078 499.386 39.2333 501.579 38.6388C502.874 38.2952 504.664 37.9406 512.625 37.3516C517.768 36.9698 524.689 36.5334 533.782 36.0207L538.32 35.7862L538.375 34.1226C538.565 28.5373 538.87 24.3865 539.294 21.4139C539.594 19.3467 539.964 17.7431 540.464 16.3631C541.928 12.3324 544.633 10.0415 547.435 8.97793C547.729 8.79794 548.017 8.63976 548.306 8.49795C548.828 7.86524 549.383 7.28708 549.971 6.76891C551.685 5.26351 553.78 4.15082 556.207 3.4472L556.392 3.39266L556.577 3.34902C559.004 2.74359 562.111 2.45996 566.361 2.45996C573.712 2.45996 577.537 2.98358 580.46 4.53808C580.639 4.57626 580.813 4.61444 580.987 4.65807L581.064 4.67989C585.531 5.8144 588.938 9.34883 589.955 13.9087C590.233 15.1686 590.396 16.625 590.499 20.8303C590.565 23.6011 590.597 27.2392 590.597 31.6517V39.8606C592.338 41.2405 593.557 42.9914 594.287 44.8513C594.64 45.3858 594.94 45.9476 595.195 46.5313C596.322 47.573 597.214 48.7566 597.889 50.0984L597.922 50.1639C598.792 51.9202 599.282 53.8892 599.728 57.4236L599.75 57.6036C599.919 59.1581 600 61.2744 600 64.0671C600 69.7887 599.494 74.3431 598.455 77.9975L598.389 78.2266L594.896 88.7372H590.227V92.9807C589.846 108.842 589.465 111.624 588.459 113.887L587.882 115.485L586.113 115.033C586.026 115.262 585.934 115.485 585.841 115.714C585.172 117.345 584.47 118.807 583.725 120.116C586.364 122.625 590.951 127.43 588.252 134.243C587.98 134.936 587.637 135.59 587.245 136.201C587.452 137.559 587.398 138.966 587.071 140.368C586.211 144.012 583.61 146.848 580.258 148.103C580.204 148.184 580.149 148.272 580.095 148.353C578.109 151.271 574.855 153.061 571.318 153.191L567.199 153.388H566.937L566.926 153.371Z" fill="#18EBFF"/>
<path d="M112.373 26.4592C112.308 26.901 112.656 27.1192 113.407 27.1192C113.657 27.1192 113.783 27.1846 113.783 27.3101C113.783 27.561 113.407 28.0628 112.656 28.8155C111.399 30.0754 110.964 31.2645 111.339 32.399V33.1517C111.339 34.0298 111.214 34.5971 110.964 34.848C110.839 35.0989 110.022 37.9297 108.521 43.3295C106.137 53.7583 102.91 62.9325 98.8347 70.8468C94.759 78.7611 89.5297 86.1136 83.1358 92.8988C78.3691 97.9278 73.4227 102.04 68.2805 105.242C63.1382 108.444 57.5606 110.931 51.5477 112.687L46.8462 114.193L45.3444 120.787C44.4683 125.189 43.7772 127.638 43.2766 128.139C42.776 129.018 42.4604 129.961 42.3352 130.965C42.0849 132.225 41.236 134.39 39.7995 137.466C38.3575 140.548 37.5739 142.021 37.4487 141.895V141.705C37.4487 141.077 37.7589 139.948 38.3901 138.312C39.7668 134.794 40.4579 132.536 40.4579 131.527C40.4579 131.276 40.3926 131.15 40.2674 131.15C40.0171 131.15 39.5764 132.279 38.9506 134.543C38.3194 136.556 37.1005 138.846 35.283 141.421C33.4655 143.995 31.8657 145.784 30.489 146.793L28.4212 148.299L28.2308 146.793C28.1056 146.292 27.8553 145.85 27.4798 145.473C27.1044 145.097 26.6636 144.906 26.163 144.906C25.412 144.906 24.8461 145.217 24.4707 145.85C24.0952 146.352 23.8394 146.537 23.7197 146.417C23.6 146.297 23.4694 145.975 23.3443 145.473C22.9688 144.47 22.6532 144.094 22.4029 144.344C22.4029 144.47 22.2777 144.535 22.0274 144.535C21.6519 144.535 21.2112 144.066 20.7106 143.123C20.2099 142.179 19.9596 141.268 19.9596 140.39C19.9596 139.637 19.8943 139.196 19.7692 139.07C19.644 138.945 19.3284 139.07 18.8278 139.446C18.4523 139.697 18.1041 139.948 17.7939 140.199C17.4783 140.45 17.3259 140.701 17.3259 140.952C17.3259 141.203 17.1355 141.268 16.76 141.143C16.5097 140.892 16.2594 140.292 16.0091 139.354C15.7588 138.41 15.6336 137.374 15.6336 136.245C15.6336 135.367 15.7588 134.297 16.0091 133.043C20.5201 112.562 22.7783 94.846 22.7783 79.8956C22.7783 74.6158 22.4954 69.1832 21.9349 63.5925C21.369 58.0018 20.6507 53.6383 19.7746 50.4911C19.5243 49.7384 19.1434 47.7312 18.6482 44.4586C18.6482 43.7059 18.5829 43.1386 18.4578 42.7623C18.3326 42.3859 18.0823 42.195 17.7068 42.195C16.8307 42.195 16.5804 41.7587 16.9559 40.8751V40.4987C16.9559 39.8715 16.6403 39.3697 16.0145 38.9933C15.5139 38.7424 15.3234 38.5842 15.4486 38.5242C15.5737 38.4642 15.8839 38.3061 16.39 38.0552L17.1409 37.6788C17.1409 37.4279 16.575 37.2425 15.4486 37.1116C13.691 36.7352 12.5319 35.9825 11.9714 34.848C11.411 33.7135 11.0627 31.3954 10.9376 27.8719C10.8124 25.6083 10.9376 22.9411 11.313 19.8594C11.6885 16.7831 12.1293 15.1195 12.6299 14.8632C13.1305 14.3614 13.2557 13.9196 13.0053 13.5432V13.3523C13.0053 12.976 14.6324 12.7851 17.8918 12.7851C20.901 12.7851 25.1617 12.4087 30.6794 11.656C34.1892 11.1542 37.2583 10.9033 39.892 10.9033C42.1502 10.9033 43.4018 11.2197 43.6521 11.8469C43.7772 12.3487 49.1643 12.5996 59.8243 12.5996H73.9288C82.3251 12.5996 89.0018 12.6324 93.9536 12.6924C98.9054 12.7578 102.04 12.8833 103.357 13.0687C104.673 13.2596 106.017 13.6032 107.4 14.105C108.276 14.4814 109.059 14.8577 109.75 15.2341C110.436 15.6104 110.844 15.9268 110.975 16.1777C110.975 16.6795 111.285 16.9304 111.916 16.9304C112.292 16.9304 112.542 17.1813 112.667 17.6831C112.792 18.1849 112.792 19.1885 112.667 20.6994C112.542 21.4521 112.477 22.3357 112.477 23.3393C112.477 23.7156 112.536 23.9993 112.667 24.1902C112.792 24.3811 113.043 24.4738 113.418 24.4738C113.919 24.4738 114.169 24.5065 114.169 24.5665C114.169 24.6265 113.978 24.7847 113.603 25.0356C112.852 25.5374 112.444 26.0119 112.379 26.4483L112.373 26.4592ZM77.678 39.9315L71.2842 40.3078L57.9361 41.2514C53.1693 41.5023 50.6009 41.8187 50.2254 42.195C49.85 42.3205 49.6595 43.1386 49.6595 44.644L50.035 51.4293C50.5356 55.5746 50.7859 62.4253 50.7859 71.9704V84.03L52.8537 82.7101C53.6046 82.4592 55.7976 80.8883 59.4325 77.9975C63.8184 74.2285 67.7037 69.1123 71.0883 62.638C74.4729 56.1691 76.4754 49.9184 77.1066 43.8859L77.6725 39.926L77.678 39.9315Z" fill="white"/>
<path d="M193.692 133.981C193.441 133.981 193.251 133.294 193.126 131.908C193 130.779 192.81 129.836 192.56 129.083C192.309 128.33 192.119 127.889 191.994 127.763C191.869 127.638 191.869 128.014 191.994 128.892L192.184 132.285C192.184 135.677 191.934 138.759 191.433 141.519C190.933 144.284 190.427 145.223 189.931 144.344C189.806 144.094 189.523 143.843 189.088 143.592C188.647 143.341 188.179 143.215 187.679 143.215C187.047 143.215 186.612 143.281 186.362 143.406C186.111 143.532 185.921 143.848 185.796 144.35C185.671 144.977 185.513 145.321 185.328 145.386C185.137 145.446 184.795 145.353 184.294 145.103C183.793 144.977 183.451 144.944 183.26 145.01C183.07 145.07 183.042 145.419 183.168 146.046C183.168 146.799 183.042 146.924 182.792 146.423C182.292 145.67 181.666 145.294 180.909 145.294C180.033 145.043 179.342 144.415 178.842 143.406L178.091 141.71L177.149 143.974C176.774 144.977 176.518 145.544 176.398 145.67C176.273 145.795 175.958 145.604 175.457 145.103L173.389 143.215C172.513 142.337 171.506 137.532 170.38 128.799C169.254 120.067 168.497 114.133 168.122 110.991H147.438L146.873 122.112C146.622 129.149 146.241 133.736 145.746 135.868L145.18 138.694V135.492C145.431 131.598 145.371 129.65 144.99 129.65C144.739 129.65 144.549 130.659 144.424 132.667C144.299 134.554 143.858 136.659 143.107 138.983C142.356 141.312 141.54 143.128 140.664 144.448C139.788 145.768 139.162 146.172 138.781 145.675C138.28 144.797 137.524 144.355 136.523 144.355C135.772 144.355 135.081 144.857 134.455 145.861C134.205 146.363 133.987 146.679 133.797 146.804C133.606 146.93 133.514 146.739 133.514 146.237C133.514 145.484 133.138 145.168 132.387 145.294H131.821C130.564 145.294 129.378 144.23 128.246 142.092C127.871 141.465 127.615 141.148 127.495 141.148L126.554 142.654C126.178 143.532 125.803 143.974 125.427 143.974C125.052 143.974 124.486 143.155 123.735 141.525C122.609 139.01 121.695 133.043 121.009 123.618C120.318 114.193 119.91 102.826 119.785 89.5062C119.785 80.4574 119.534 70.9123 119.034 60.8599C118.533 52.6947 118.283 45.5931 118.283 39.5606C118.283 34.0353 118.533 29.3227 119.034 25.4229C119.659 20.7757 120.285 18.4467 120.916 18.4467C121.548 18.4467 121.858 18.8885 121.858 19.7667C121.983 20.3994 122.233 20.2085 122.609 19.1994C123.109 17.9449 123.55 17.694 123.926 18.4467C124.176 18.8231 124.394 18.9158 124.584 18.7303C124.774 18.5449 124.927 18.1958 125.052 17.694C125.302 16.4395 125.738 15.5614 126.369 15.0541C126.995 14.5523 128.121 14.236 129.753 14.1105C132.012 13.8596 141.725 13.6087 158.898 13.3578L177.514 12.9814C182.781 12.9814 185.6 13.2978 185.975 13.9251C186.726 14.6778 187.728 15.185 188.985 15.4305L191.052 15.8068L190.677 26.5519C190.301 32.5844 190.111 44.7695 190.111 63.118C190.111 75.0576 191.052 92.517 192.93 115.513C193.555 122.8 193.871 127.327 193.871 129.083C194.121 132.35 194.062 133.981 193.681 133.981H193.692ZM123.931 15.9977C123.931 15.7468 123.991 15.5614 124.121 15.4305C124.247 15.305 124.372 15.3705 124.497 15.6214C124.747 16.3741 124.687 16.8159 124.306 16.9413C124.056 17.1922 123.931 16.8813 123.931 15.9977ZM147.623 106.655C147.749 106.78 147.934 106.846 148.189 106.846C149.065 106.846 149.381 106.72 149.131 106.469C148.63 106.218 148.189 106.158 147.814 106.278C147.564 106.404 147.498 106.529 147.623 106.655ZM154.959 81.0192L162.103 80.6429L161.913 78.9466C161.663 77.1903 161.412 73.6722 161.162 68.3924C161.037 64.247 160.661 58.6563 160.036 51.6202L159.285 43.1386H154.208C150.948 43.1386 149.191 43.3295 148.94 43.7059C148.69 43.9568 148.44 50.3002 148.189 62.7416L147.623 81.2101L154.959 81.0192ZM150.072 108.629C150.322 108.569 150.322 108.471 150.072 108.346C149.572 108.095 148.88 108.095 148.004 108.346C147.754 108.471 147.721 108.564 147.912 108.629C148.102 108.695 148.445 108.722 148.946 108.722C149.446 108.722 149.822 108.695 150.072 108.629ZM151.574 39.3697C151.699 39.3697 152.042 39.4024 152.608 39.4624C153.174 39.5279 153.892 39.5551 154.768 39.5551C155.895 39.5551 156.771 39.5279 157.402 39.4624C158.028 39.4024 157.968 39.3042 157.211 39.1788C156.836 39.0533 156.02 38.9879 154.768 38.9879C153.517 38.9879 152.635 39.0533 152.135 39.1788C152.009 39.1788 151.819 39.2442 151.569 39.3697H151.574ZM159.002 106.557C159.192 106.497 159.16 106.398 158.909 106.273H157.217C156.967 106.398 156.967 106.491 157.217 106.557C157.467 106.622 157.783 106.649 158.158 106.649C158.534 106.649 158.817 106.622 159.007 106.557H159.002ZM165.298 107.315C165.673 107.255 165.608 107.157 165.107 107.031C164.857 106.906 164.356 106.84 163.605 106.84C162.854 106.84 162.348 106.906 162.103 107.031L161.728 107.222C161.728 107.347 162.354 107.413 163.611 107.413C164.362 107.413 164.928 107.386 165.303 107.32L165.298 107.315Z" fill="white"/>
<path d="M293.157 125.876C293.157 130.398 293.092 133.037 292.967 133.79L292.401 136.806L292.211 132.661C291.96 128.892 291.645 127.005 291.269 127.005C291.144 127.005 291.079 128.134 291.079 130.398C291.079 132.787 290.703 135.296 289.952 137.935C289.201 140.575 288.32 142.523 287.319 143.777C286.568 144.906 286.062 145.097 285.817 144.344C285.692 143.717 285.126 143.401 284.124 143.401C283.123 143.401 282.432 143.843 282.057 144.721C281.931 145.222 281.806 145.506 281.681 145.566C281.556 145.626 281.24 145.408 280.74 144.906C280.239 144.404 279.896 144.186 279.706 144.246C279.515 144.312 279.298 144.715 279.047 145.473C278.922 146.477 278.732 146.668 278.482 146.041C278.482 145.163 277.883 144.284 276.697 143.401C275.505 142.523 274.536 142.272 273.78 142.648C273.029 142.773 271.837 142.964 270.205 143.215C268.572 143.466 266.695 143.717 264.562 143.968C261.303 144.219 258.859 144.344 257.227 144.344C244.69 144.344 234.16 141.143 225.639 134.734C222.254 132.35 219.403 129.585 217.085 126.443C214.761 123.301 212.601 119.222 210.598 114.193C208.215 108.16 206.37 101.631 205.053 94.5896C203.737 87.5535 202.262 76.4975 200.635 61.4161C199.884 54.6309 199.509 47.8457 199.509 41.0604C199.509 32.5189 200.074 25.5428 201.201 20.143C201.701 17.503 202.077 15.9322 202.327 15.4304C202.578 14.9286 202.953 14.994 203.454 15.6213C203.829 15.9976 204.139 16.2213 204.395 16.2813C204.645 16.3467 204.771 16.1231 204.771 15.6213C204.771 14.994 204.988 14.6504 205.429 14.5849C205.864 14.525 206.147 14.8031 206.272 15.4304L206.463 15.6213C206.713 15.6213 207.029 15.1195 207.404 14.1159C207.655 13.4886 207.997 12.9214 208.438 12.4196C208.873 11.9178 209.287 11.6014 209.662 11.476C210.664 11.2251 212.296 11.0996 214.549 11.0996C218.309 11.0996 220.818 11.2905 222.069 11.6669C223.446 12.1687 224.447 12.2996 225.078 12.0432H225.269C225.895 12.0432 226.836 12.3596 228.087 12.9868C229.589 13.7395 230.531 14.1159 230.906 14.1159C231.282 14.1159 231.472 14.994 231.472 16.7558C231.472 19.1448 231.222 23.0992 230.721 28.6299C230.221 35.6661 229.97 42.1404 229.97 48.042C229.97 56.4636 230.28 64.9451 230.912 73.4867C231.537 82.0337 232.288 88.628 233.17 93.2751C233.921 97.1695 234.922 100.72 236.179 103.922C237.431 107.124 238.688 109.48 239.939 110.991C241.441 112.627 243.514 114.133 246.142 115.513C248.145 116.391 250.969 117.149 254.604 117.776C258.239 118.409 261.248 118.72 263.632 118.72C265.384 118.72 266.325 118.529 266.45 118.152C266.701 117.902 266.575 115.769 266.075 111.744L264.948 94.0278C263.691 71.6649 262.625 57.6526 261.754 51.9965C261.123 48.102 260.813 42.3204 260.813 34.657C260.813 30.0099 260.971 26.0828 261.281 22.8756C261.591 19.6739 261.999 18.0703 262.505 18.0703C263.131 18.0703 263.447 18.3212 263.447 18.823C263.572 19.1993 263.822 18.9484 264.198 18.0703C264.573 17.1921 264.823 16.7503 264.948 16.7503C265.074 16.7503 265.259 17.0667 265.514 17.6939L265.89 18.4466C266.14 18.4466 266.325 17.9448 266.456 16.9412C266.706 15.6867 267.114 14.7759 267.68 14.2086C268.246 13.6413 269.215 13.1723 270.597 12.7959C271.348 12.545 273.415 12.4196 276.8 12.4196C281.436 12.4196 285.137 12.6705 287.895 13.1723C289.397 13.6741 290.273 14.0831 290.529 14.3995C290.779 14.7159 290.905 15.5613 290.905 16.9412L291.095 29.3826C291.345 37.8042 291.596 49.5474 291.846 64.6288C292.096 80.3373 292.347 91.3933 292.597 97.8022C292.972 107.604 293.163 116.963 293.163 125.887L293.157 125.876ZM205.538 18.2612C205.413 18.3866 205.037 19.6466 204.411 22.0302C204.286 23.5356 204.346 23.9174 204.602 23.1592C204.727 23.0338 205.102 21.7793 205.728 19.3902C205.853 17.8848 205.788 17.503 205.538 18.2612ZM266.271 120.601C266.521 120.476 266.706 120.351 266.837 120.225C266.837 119.974 266.521 119.849 265.895 119.849C265.269 119.849 264.736 119.914 264.295 120.04C263.855 120.165 263.572 120.291 263.447 120.416C263.447 120.667 264.012 120.792 265.139 120.792C265.64 120.792 266.015 120.732 266.265 120.601H266.271ZM265.52 23.5356C265.52 22.6574 265.455 22.2156 265.329 22.2156C265.204 22.2156 264.954 23.0938 264.578 24.8555C264.453 25.4882 264.388 25.9573 264.388 26.2682C264.388 26.5791 264.513 26.5518 264.763 26.1755C265.264 25.4228 265.514 24.5446 265.514 23.5356H265.52Z" fill="white"/>
<path d="M389.804 82.9065C389.173 82.9065 388.988 83.3483 389.239 84.2265L389.429 84.7937C389.429 85.1701 389.113 85.9882 388.488 87.2428C387.987 87.8755 387.704 88.3118 387.644 88.5627C387.579 88.8136 387.737 89.2554 388.112 89.8827C388.488 90.259 388.678 90.6354 388.678 91.0117C388.678 91.3881 388.303 91.9553 387.552 92.708C386.05 93.968 384.417 94.6552 382.665 94.7807C381.163 95.0316 380.249 95.3479 379.939 95.7243C379.623 96.1006 379.281 97.0442 378.905 98.5496C378.154 101.44 376.554 105.177 374.111 109.764C371.668 114.351 369.317 117.962 367.059 120.602C363.424 124.872 359.131 128.865 354.179 132.569C349.227 136.278 344.743 138.885 340.733 140.39C337.473 141.65 333.648 142.654 329.262 143.406C324.871 144.159 320.735 144.535 316.85 144.535C313.215 144.535 310.331 144.159 308.203 143.406L306.32 142.839C306.32 142.714 306.631 142.648 307.262 142.648C310.396 142.648 312.774 142.714 314.407 142.839C313.15 142.839 310.929 142.337 307.73 141.334C304.536 140.33 302.745 139.577 302.37 139.07L300.112 137.183C299.611 136.681 299.236 136.305 298.985 136.054C298.735 135.803 298.795 135.678 299.176 135.678C299.801 135.678 300.269 135.208 300.585 134.265C300.895 133.321 300.803 132.541 300.302 131.909C299.801 131.156 299.671 130.463 299.927 129.836C300.177 129.585 300.237 129.334 300.117 129.083C299.992 128.832 299.801 128.707 299.551 128.707C299.426 128.707 299.361 128.647 299.361 128.516C299.361 128.265 299.736 127.763 300.487 127.011C301.864 125.881 302.745 125.314 303.121 125.314C303.496 125.314 303.687 125.096 303.687 124.654C303.687 124.212 303.436 123.869 302.936 123.618C302.56 123.367 302.37 123.051 302.37 122.674C302.37 121.796 302.996 121.169 304.253 120.787C304.878 120.411 307.888 119.843 313.28 119.091C319.418 118.464 324.593 117.334 328.794 115.698C332.995 114.067 336.657 111.738 339.791 108.722C341.544 107.091 343.268 105.144 344.961 102.88C346.653 100.617 347.502 99.1769 347.502 98.5442C347.502 98.1679 346.686 97.9769 345.059 97.9769C342.675 97.9769 339.291 98.3533 334.905 99.106C332.021 99.6078 329.262 99.8587 326.634 99.8587C325.883 99.8587 322.999 99.7333 317.982 99.4824C308.454 98.9806 304.819 98.037 307.077 96.657C307.452 96.4061 307.545 96.1879 307.36 95.997C307.169 95.8061 306.827 95.6534 306.326 95.5279C305.695 95.4025 305.352 95.2443 305.292 95.0589C305.227 94.8679 305.51 94.7152 306.135 94.5898C306.636 94.3389 306.886 94.1534 306.886 94.0225C306.886 93.8916 306.195 93.7116 304.819 93.4553C303.317 93.2044 302.283 92.6371 301.717 91.759C301.151 90.8808 300.743 89.1191 300.493 86.4791C300.242 83.9647 300.493 79.6012 301.243 73.3777C301.994 67.1598 302.811 62.6654 303.687 59.9C308.573 43.946 320.61 30.4355 339.786 19.3795C343.796 17.1159 347.649 15.4851 351.349 14.4815C355.044 13.4779 359.212 12.9761 363.854 12.9761C368.24 12.9761 371.156 13.1015 372.598 13.3524C374.04 13.6033 374.759 14.1051 374.759 14.8578C374.759 15.4905 375.009 15.8014 375.51 15.8014C376.01 15.8014 376.01 16.1178 375.51 16.745C375.134 17.1214 374.976 17.4377 375.042 17.6886C375.101 17.9395 375.45 18.1905 376.075 18.4414C377.077 18.9432 377.893 19.1941 378.519 19.1941C379.27 19.1941 379.71 19.385 379.836 19.7613C380.712 21.1467 381.152 24.7248 381.152 30.5064C381.152 35.1535 380.837 38.1098 380.211 39.3643C379.335 40.8697 379.019 41.7533 379.27 42.0042C379.52 42.2551 378.611 42.506 376.543 42.7569C374.476 43.0078 371.494 43.1987 367.614 43.3242C359.588 43.7005 352.383 45.7132 345.989 49.3567C339.595 53.0002 334.584 58.0292 330.949 64.4326C330.198 65.5616 329.632 66.5052 329.257 67.2579C328.881 68.0106 328.625 68.5779 328.506 68.9543L339.786 69.5215C342.294 69.647 344.923 69.7124 347.682 69.7124C349.183 69.7124 350.092 69.6524 350.408 69.5215C350.718 69.3961 350.876 69.0852 350.876 68.5779C350.876 67.6997 351.126 67.0725 351.627 66.6907C352.127 66.3143 352.568 66.4398 352.944 67.067C353.194 67.6997 353.509 67.4434 353.885 66.3143C354.01 65.5616 354.168 65.1853 354.353 65.1853C354.538 65.1853 354.761 65.5016 355.011 66.1289C355.136 66.2543 355.202 66.4125 355.202 66.598C355.202 66.7834 355.262 66.8816 355.392 66.8816C355.643 66.8816 355.828 66.1289 355.958 64.618C356.208 63.2381 356.551 62.3272 356.992 61.8854C357.427 61.449 358.527 60.9145 360.284 60.2818C362.787 59.2782 364.169 58.9019 364.42 59.1528H364.986C366.738 59.1528 368.18 59.0928 369.312 58.9618C371.064 58.7109 372.381 58.5855 373.262 58.5855C374.514 58.5855 375.64 58.7109 376.647 58.9618L379.466 59.7146L380.407 64.9944C380.782 67.2579 381.125 68.7034 381.441 69.3306C381.751 69.9633 382.284 70.3997 383.041 70.6506C383.666 70.776 383.949 70.9015 383.884 71.0269C383.819 71.1524 383.416 71.2178 382.66 71.2178C382.284 71.2178 381.969 71.2505 381.718 71.3105C381.468 71.376 381.278 71.4033 381.152 71.4033C381.152 71.5287 381.969 71.9705 383.596 72.7232C388.107 74.7359 389.924 76.5576 389.048 78.1885C388.673 78.9412 388.482 79.5085 388.482 79.8848C388.482 80.5175 388.792 81.1448 389.424 81.772C390.175 82.5247 390.3 82.9011 389.799 82.9011L389.804 82.9065ZM311.773 94.7807C311.022 94.5298 310.206 94.5298 309.33 94.7807C308.954 94.9061 309.33 94.9716 310.456 94.9716C311.708 94.9716 312.148 94.9116 311.773 94.7807ZM317.791 95.6261C318.167 95.5661 318.227 95.4679 317.982 95.3425C317.731 95.3425 317.291 95.3152 316.665 95.2498C316.034 95.1898 315.538 95.2225 315.163 95.3425L314.787 95.5334C314.787 95.6588 315.288 95.7243 316.289 95.7243C316.915 95.7243 317.416 95.697 317.791 95.6316V95.6261ZM354.832 62.9272C354.957 63.1781 354.99 63.429 354.924 63.6799C354.859 63.9308 354.766 64.1217 354.641 64.2471C354.391 64.498 354.266 64.1871 354.266 63.3035C354.266 62.4199 354.456 62.2999 354.832 62.9272ZM363.484 16.7505L366.868 17.1268C371.88 17.8796 373.387 17.8796 371.379 17.1268C370.373 16.7505 368.746 16.5596 366.493 16.5596L363.484 16.7505Z" fill="white"/>
<path d="M430.605 112.306L430.415 115.698L437.559 116.265L464.071 117.394C479.612 117.896 487.388 118.654 487.388 119.658C487.012 119.783 486.637 119.849 486.261 119.849L483.818 119.658C481.935 119.658 481.309 119.723 481.935 119.849C484.944 120.482 487.638 121.518 490.021 122.958C492.399 124.403 493.156 125.565 492.279 126.443C491.779 126.945 491.529 127.572 491.529 128.33C491.529 129.34 491.904 130.027 492.655 130.403C492.905 130.529 493.09 130.687 493.221 130.872C493.346 131.063 493.281 131.156 493.03 131.156C492.399 131.156 492.089 131.472 492.089 132.099C492.089 132.852 492.399 133.228 493.03 133.228C493.281 133.228 493.341 133.321 493.221 133.512C493.096 133.703 492.905 133.861 492.655 133.981C491.904 134.358 491.529 134.925 491.529 135.677C491.529 136.31 491.153 136.621 490.402 136.621C489.771 136.621 489.461 136.747 489.461 136.997C489.461 137.248 489.771 137.816 490.402 138.694C490.903 139.196 491.153 139.572 491.153 139.823C491.153 140.832 490.179 141.645 488.236 142.272C486.294 142.905 482.719 143.401 477.517 143.777C472.314 144.154 464.571 144.53 454.298 144.906C445.145 145.157 437.842 145.408 432.39 145.659C426.938 145.91 423.553 146.193 422.236 146.51C420.919 146.821 419.82 147.481 418.944 148.49C418.313 149.242 417.845 149.717 417.535 149.902C417.219 150.093 417.067 149.93 417.067 149.433C416.941 148.801 416.501 148.239 415.75 147.737C414.999 147.235 414.368 147.17 413.867 147.546C413.366 147.797 412.991 148.233 412.741 148.866C412.615 149.242 412.49 149.433 412.365 149.433C412.24 149.433 412.175 149.242 412.175 148.866C412.175 147.988 411.859 147.546 411.233 147.546C410.607 147.546 410.167 147.983 409.916 148.866C409.916 149.242 409.851 149.401 409.726 149.335C409.601 149.27 409.535 149.052 409.535 148.675C409.41 147.797 408.904 146.946 408.034 146.128C407.158 145.31 406.216 144.841 405.215 144.715C404.208 144.715 403.332 144.59 402.581 144.339C401.95 144.088 401.547 143.652 401.357 143.019C401.166 142.392 401.384 142.075 402.015 142.075C402.266 142.075 402.358 141.983 402.298 141.792C402.233 141.601 402.015 141.448 401.64 141.323C400.764 140.821 400.633 140.379 401.264 140.003L401.455 139.626C401.455 139.376 400.824 139.059 399.572 138.683C398.19 138.306 397.281 137.587 396.846 136.517C396.405 135.454 396.187 133.283 396.187 130.016C396.187 123.863 396.623 119.838 397.504 117.956C398.505 116.451 398.881 115.507 398.631 115.131C398.631 114.88 399.382 114.755 400.889 114.755H403.147L403.523 107.969L403.898 98.3587V95.5333H401.079L396.378 94.9661L395.812 94.5897C395.812 94.4643 396.688 94.3988 398.446 94.3988C400.954 94.1479 402.266 93.9625 402.396 93.8316C402.646 93.5807 401.896 93.4552 400.138 93.4552C398.881 93.4552 397.287 93.0789 395.344 92.3262C393.401 91.5735 391.802 90.7553 390.55 89.8772C389.293 88.999 388.983 88.3718 389.609 87.9899C389.984 87.6136 390.294 86.9863 390.55 86.1027C390.8 85.4755 390.86 85.0391 390.74 84.7828C390.615 84.5319 390.3 84.281 389.799 84.0301C389.168 83.9046 388.825 83.7792 388.765 83.6537C388.7 83.5283 388.923 83.2174 389.424 82.7101C389.924 82.0829 390.142 81.7065 390.082 81.5811C390.017 81.4556 389.734 81.3302 389.233 81.2047C388.732 80.9538 388.482 80.7684 388.482 80.6375C388.482 80.5066 388.732 80.3866 389.233 80.2611C389.483 80.1357 389.734 79.9502 389.984 79.6939C390.234 79.4375 390.36 79.1266 390.36 78.7502C390.36 78.123 390.67 77.8066 391.301 77.8066C391.932 77.8066 392.242 77.6157 392.242 77.2394C392.242 76.7376 391.927 76.2358 391.301 75.734C390.925 75.1067 390.735 74.7304 390.735 74.6049C390.735 74.354 391.045 73.9177 391.676 73.285C392.928 72.2814 395.061 71.4632 398.07 70.836L402.957 69.7069L403.147 66.8815C403.397 65.1252 403.147 62.109 402.396 57.8327C401.645 53.3111 401.27 50.4803 401.27 49.3512C401.27 44.955 400.579 42.7569 399.202 42.7569C398.451 42.7569 398.01 42.4132 397.885 41.7205C397.76 41.0333 398.01 40.6842 398.636 40.6842C398.886 40.6842 398.919 40.5915 398.729 40.4006C398.538 40.2097 398.261 40.057 397.88 39.9315C397.249 39.6806 396.873 39.4624 396.753 39.2715C396.628 39.0806 396.813 38.9279 397.319 38.8025L397.885 38.4261C397.885 38.1752 397.254 37.8588 396.002 37.4825C394.745 37.1061 393.935 36.6971 393.559 36.2553C393.184 35.8189 392.808 34.8426 392.433 33.3317C392.182 32.4536 392.057 30.7573 392.057 28.2428C392.057 22.843 392.558 18.8176 393.559 16.1832L394.686 13.3578L430.034 13.5487C456.48 13.5487 471.585 13.4233 475.351 13.1724C481.745 12.9215 484.814 12.8615 484.563 12.9815C483.687 13.2324 482.43 13.4833 480.803 13.7342C479.677 13.8596 479.111 14.0505 479.111 14.3014L482.871 14.6778C485.38 14.9287 487.725 15.5287 489.923 16.4668C492.116 17.4104 492.709 18.0704 491.708 18.4468C491.207 18.6977 490.957 19.1395 490.957 19.7667C490.957 20.1431 491.207 20.9612 491.708 22.2157C492.209 22.9684 492.459 23.6611 492.459 24.2884C492.459 24.9156 492.709 25.232 493.21 25.232H493.4C493.526 25.232 493.591 25.2974 493.591 25.4229C493.591 25.7992 493.4 26.3665 493.025 27.1192C492.149 28.3792 491.583 29.0064 491.333 29.0064C490.957 29.0064 490.767 29.1973 490.767 29.5737C490.767 30.2064 491.267 30.7027 492.269 31.0791C492.894 31.2045 493.21 31.3954 493.21 31.6463C493.21 31.8972 492.579 32.6554 491.327 33.9099L489.069 36.3589V62.9326C489.069 74.8722 489.004 82.4374 488.879 85.6446C488.753 88.8463 488.378 91.0171 487.752 92.1462C487.001 93.9079 485.995 94.9115 484.743 95.1624C483.486 95.4133 474.339 95.5388 457.29 95.5388L431.721 95.3479L431.155 102.133L430.589 112.311L430.605 112.306ZM431.737 47.8513C431.737 51.8766 431.862 56.1419 432.112 60.669C432.363 65.1907 432.613 67.4542 432.863 67.4542L442.451 66.7015C448.845 66.1997 453.106 65.7579 455.239 65.3816L459.189 64.6289L459.565 53.1311V41.4478C459.315 41.1969 454.678 41.3878 445.651 42.0151C436.623 42.6478 432.047 43.0841 431.927 43.335C431.802 43.4605 431.737 44.9713 431.737 47.8567V47.8513ZM461.257 42.5714C461.257 43.3241 461.317 43.9841 461.448 44.5514C461.573 45.1186 461.698 45.4622 461.823 45.5877C461.948 45.5877 462.014 44.9004 462.014 43.515C462.014 42.1296 461.823 41.4424 461.448 41.4424C461.323 41.4424 461.257 41.8187 461.257 42.5714ZM463.135 50.1094C463.135 50.2348 463.102 50.4857 463.042 50.8621C462.977 51.2384 462.95 51.7402 462.95 52.3675C462.95 53.2456 462.977 53.9056 463.042 54.3474C463.102 54.7892 463.2 54.7565 463.325 54.2547V50.4857L463.135 50.1094ZM463.135 58.9673C463.135 59.0927 463.102 59.3436 463.042 59.72C462.977 60.0963 462.95 60.5981 462.95 61.2254C462.95 62.1035 462.977 62.7635 463.042 63.2053C463.102 63.6471 463.2 63.6144 463.325 63.1126V59.3436L463.135 58.9673ZM463.608 41.9114C463.543 42.1023 463.516 42.3805 463.516 42.7569C463.516 43.1332 463.543 43.4496 463.608 43.7005C463.668 43.9514 463.766 43.9514 463.891 43.7005C464.141 43.0732 464.141 42.506 463.891 42.0042C463.766 41.7533 463.673 41.7205 463.608 41.9114Z" fill="white"/>
<path d="M589.117 64.0561C589.117 68.7087 588.742 72.3467 587.991 74.9867L587.049 77.812H579.339V92.7024C579.088 103.257 578.773 108.913 578.397 109.666L577.646 111.738L578.022 109.289C578.022 107.282 577.897 105.962 577.646 105.329L577.271 104.386C577.146 104.386 577.08 105.018 577.08 106.273C577.08 107.658 576.64 109.415 575.763 111.553C574.887 113.691 573.979 115.354 573.037 116.549C572.096 117.743 571.503 117.962 571.252 117.209C571.127 116.958 570.844 116.74 570.404 116.549C569.963 116.358 569.495 116.265 568.994 116.265C568.118 116.265 567.492 116.456 567.111 116.833C566.986 117.083 566.763 117.242 566.453 117.302C566.137 117.367 565.854 117.334 565.604 117.209C565.229 116.958 565.104 116.958 565.229 117.209C565.354 117.46 565.664 117.776 566.17 118.153C567.422 119.162 568.173 119.658 568.428 119.658C568.804 119.658 568.864 119.783 568.619 120.034C568.374 120.285 566.801 119.723 563.917 118.338C561.284 116.958 559.591 116.265 558.84 116.265H558.65C558.65 116.767 560.092 117.711 562.976 119.091L570.496 123.427C571.998 124.305 573.788 125.723 575.856 127.665C577.924 129.612 578.582 130.463 577.831 130.212H577.456C576.705 130.212 575.981 130.528 575.296 131.156C574.604 131.788 574.322 132.35 574.452 132.852C574.577 133.103 575.203 133.67 576.335 134.548L578.027 135.301H576.144C574.887 135.301 574.262 135.552 574.262 136.054C574.262 136.305 574.762 136.746 575.763 137.374C576.765 137.876 576.705 138.006 575.573 137.75C575.323 137.625 574.882 137.559 574.256 137.559C573.505 137.559 572.939 137.75 572.564 138.126C571.933 138.628 570.931 138.759 569.555 138.503L568.428 138.312C567.928 138.312 567.677 138.437 567.677 138.688C567.677 139.19 568.494 139.948 570.121 140.952C570.621 141.203 570.937 141.486 571.062 141.803C571.187 142.119 571.122 142.272 570.872 142.272L566.921 142.463C565.419 142.463 563.787 142.272 562.034 141.895C560.277 141.519 558.209 140.952 555.831 140.199C549.312 138.066 543.669 135.743 538.908 133.223C534.141 130.708 529.255 127.507 524.243 123.612C513.463 115.322 505.687 105.395 500.926 93.8315C498.668 88.6826 497.193 84.3464 496.508 80.8283C495.816 77.3102 495.474 72.914 495.474 67.6342C495.474 62.3543 495.816 58.5254 496.508 56.5127C497.193 54.5055 498.733 52.6183 501.117 50.8565C502.368 49.9784 503.467 49.4111 504.409 49.1602C505.35 48.9093 508.359 48.593 513.436 48.2166C518.513 47.8403 525.5 47.3985 534.402 46.8967L548.882 46.144L549.258 34.4607C549.633 23.5301 550.449 18.4412 551.701 19.1939C552.076 19.4448 552.387 19.3194 552.642 18.8176C552.893 18.4412 553.078 18.2503 553.208 18.2503C553.339 18.2503 553.518 18.4412 553.774 18.8176L554.15 19.1939C554.65 19.1939 555.151 18.5067 555.652 17.1213C556.152 16.1177 556.653 15.3977 557.153 14.9559C557.654 14.5195 558.345 14.1705 559.221 13.9195C560.723 13.5432 563.106 13.3523 566.366 13.3523C571.633 13.3523 574.702 13.6686 575.578 14.2959C575.829 14.5468 576.046 14.7377 576.237 14.8632C576.427 14.9886 576.58 15.0541 576.705 15.0541C577.331 15.0541 577.897 15.1195 578.397 15.245C578.898 15.3704 579.213 15.714 579.339 16.2813C579.464 16.8485 579.556 18.4467 579.622 21.0866C579.681 23.7265 579.714 27.2446 579.714 31.6408V47.6603L581.972 47.8512C583.474 47.9766 584.231 48.4184 584.231 49.1711C584.231 49.8038 584.481 50.3002 584.981 50.6765C585.232 50.802 585.292 50.9929 585.172 51.2438C585.047 51.4947 584.856 51.6856 584.606 51.811L584.416 52.1874C584.416 52.3128 584.981 52.7546 586.108 53.5073C587.234 54.0092 587.925 54.5164 588.176 55.0128C588.426 55.5146 588.676 56.7745 588.927 58.7817C589.052 59.9108 589.117 61.6725 589.117 64.0561ZM554.144 106.464C553.513 103.322 552.953 97.6714 552.452 89.5007L551.511 77.4411L537.597 76.8739L523.873 76.4975L524.624 79.1374C525.5 82.4046 527.318 86.1136 530.076 90.2589C532.83 94.4042 535.904 98.0532 539.289 101.189C541.667 103.453 544.866 105.967 548.877 108.727C552.887 111.493 554.955 112.622 555.08 112.12L554.139 106.464H554.144ZM553.203 26.6446C553.078 28.5918 553.138 29.4427 553.393 29.1863C553.518 29.0609 553.704 27.6809 553.959 25.041C554.21 22.7774 554.15 22.0247 553.769 22.7774C553.518 23.4101 553.328 24.6974 553.203 26.6391V26.6446ZM561.289 115.131C561.039 114.88 560.848 114.694 560.723 114.564C560.222 114.187 559.972 114.253 559.972 114.754C559.972 115.256 560.222 115.507 560.723 115.507C561.099 115.507 561.289 115.382 561.289 115.131Z" fill="white"/>
</g>
<defs>
<filter id="filter0_d_35_1612" x="0" y="0" width="612" height="180" filterUnits="userSpaceOnUse" color-interpolation-filters="sRGB">
<feFlood flood-opacity="0" result="BackgroundImageFix"/>
<feColorMatrix in="SourceAlpha" type="matrix" values="0 0 0 0 0 0 0 0 0 0 0 0 0 0 0 0 0 0 127 0" result="hardAlpha"/>
<feOffset dx="8" dy="8"/>
<feGaussianBlur stdDeviation="2"/>
<feComposite in2="hardAlpha" operator="out"/>
<feColorMatrix type="matrix" values="0 0 0 0 0 0 0 0 0 0 0 0 0 0 0 0 0 0 0.4 0"/>
<feBlend mode="normal" in2="BackgroundImageFix" result="effect1_dropShadow_35_1612"/>
<feBlend mode="normal" in="SourceGraphic" in2="effect1_dropShadow_35_1612" result="shape"/>
</filter>
</defs>
</svg>
