<svg width="962" height="180" viewBox="0 0 962 180" fill="none" xmlns="http://www.w3.org/2000/svg">
<g clip-path="url(#clip0_35_1611)" filter="url(#filter0_d_35_1611)">
<path d="M62.1393 161.795C57.8718 161.795 54.2967 161.452 51.2266 160.742C44.7346 159.352 39.0371 157.353 34.2759 154.786C29.3104 152.117 24.6344 148.378 20.3896 143.682C15.4014 138.249 11.3666 131.554 8.39301 123.785C5.60667 116.51 3.41619 107.682 1.70806 96.8149C0.993035 92.1585 0.527699 87.6936 0.312056 83.4933C0.102087 79.4451 0.00561523 73.3699 0.00561523 64.9243C0.00561523 53.1286 0.283682 44.7899 0.851164 39.4242C1.44702 33.805 2.7806 27.6622 4.81219 21.1704L9.18748 6.70025L17.6203 7.34211C18.2502 6.87479 18.9141 6.46377 19.6121 6.12031C21.621 5.12373 23.8569 4.63952 26.4503 4.63952C28.0449 4.63952 29.458 4.7296 30.7518 4.90978C36.0124 5.3771 41.2956 5.61358 46.4541 5.61358C50.6421 5.61358 55.8119 5.42214 61.8272 5.05054C72.2234 4.38052 80.4179 4.05396 86.8475 4.05396C92.8458 4.05396 97.5843 4.27354 101.335 4.71834C103.741 5.00549 105.58 5.36584 107.118 5.85568C111.675 7.3027 114.246 10.1911 115.426 13.209C115.562 13.3892 115.693 13.5693 115.817 13.7608C117.548 14.9488 119.319 16.6435 120.528 19.0365L120.823 19.622L121.05 20.2414C122.077 23.0509 122.514 26.5812 122.514 32.0483C122.514 35.573 122.275 38.9512 121.799 42.0873C121.526 43.8947 120.987 47.4419 118.978 50.4823C117.764 53.213 115.494 55.4595 112.537 56.6813C111.618 57.0642 110.653 57.3457 109.552 57.5597H124.948L125.834 76.9508C126.083 83.3976 126.395 88.3749 126.759 91.7475L126.787 92.0347L127.859 111.212H119.966C116.958 122.94 112.248 132.911 105.96 140.856C99.1392 149.476 90.6042 155.591 80.5825 159.025C75.3389 160.866 69.1307 161.795 62.1279 161.795H62.1393ZM62.0371 110.79C62.196 110.812 62.7522 110.868 63.9042 110.868C64.5 110.868 64.8575 110.773 65.1696 110.598C63.5239 109.99 61.8612 108.999 60.4482 107.366C60.2269 107.456 60.0055 107.535 59.7786 107.614C59.1316 107.828 58.462 107.997 57.781 108.109C58.0194 108.639 58.2123 108.971 58.3315 109.157C58.5982 109.579 59.0352 110.277 61.2143 110.626L61.6966 110.705L62.0371 110.79ZM54.257 56.839C54.1662 57.9594 54.081 59.1756 54.0129 60.4819C55.7721 59.8231 57.7299 59.5022 59.9772 59.5022C61.725 59.5022 66.6394 59.3389 80.0944 58.5506C84.2314 58.3085 87.9995 58.1115 91.4214 57.9594C90.7404 57.9369 90.0708 57.92 89.4182 57.8919L68.0979 57.3007C61.1405 56.991 58.5641 56.9235 57.6278 56.9235H57.4632L54.257 56.8334V56.839Z" fill="white"/>
<path d="M138.017 164.752C135.186 164.752 132.564 163.738 130.538 162.004C130.373 161.931 130.203 161.858 130.033 161.773C129.783 161.79 129.573 161.796 129.397 161.796C121.543 161.796 118.371 154.966 117.327 152.725L117.282 152.629C115.999 149.803 114.546 144.949 113.468 130.344C112.73 120.412 112.293 108.324 112.163 94.4109V94.3039C112.163 85.2559 111.902 75.5153 111.397 65.358C110.863 56.7829 110.597 49.1762 110.597 42.7463C110.597 36.3164 110.886 31.249 111.476 26.7109V26.649C111.885 23.6987 112.288 21.531 112.753 19.8193C114.019 15.1742 116.419 12.6518 118.791 11.2836C119.154 10.7938 119.552 10.3265 119.994 9.89291C121.89 8.01236 124.301 6.86939 126.9 6.58787C128.637 5.8897 130.617 5.45615 132.865 5.27035C135.021 5.0564 140.724 4.78614 164.116 4.44831L183.609 4.05981H183.722C189.284 4.05981 194.993 4.05981 199.101 7.02141L209.526 8.90196L208.783 29.8752L208.771 30.0272C208.397 35.9898 208.204 48.4555 208.204 67.0697C208.204 79.0286 209.18 96.9164 211.109 120.238C211.926 129.635 212.097 133.024 212.125 134.685C212.426 138.643 212.67 143.035 209.883 146.785C209.747 147.894 209.588 148.97 209.395 150.011C209.072 151.768 208.726 153.125 208.294 154.29C206.07 160.349 201.019 162.505 197.041 162.505C196.752 162.505 196.462 162.494 196.173 162.471C194.181 163.89 191.792 164.622 189.465 164.628C187.661 164.628 185.919 164.205 184.358 163.423C183.734 163.524 183.093 163.58 182.446 163.58C179.256 163.58 176.345 162.342 173.78 159.898L171.578 157.911L171.391 157.73C168.122 154.493 166.806 150.09 165.013 136.318C164.587 133.075 164.218 130.226 163.9 127.749H163.134L163.1 128.458C162.726 138.671 162.152 142.455 161.681 144.533L161.125 147.297L159.168 147.106C159.003 147.686 158.827 148.266 158.634 148.857C157.522 152.258 156.251 155.005 154.741 157.257C151.121 162.635 146.751 163.761 143.715 163.761C143.409 163.761 143.096 163.749 142.796 163.727C141.303 164.402 139.686 164.752 138.029 164.752H138.017Z" fill="white"/>
<path d="M224.178 162.944C220.779 162.944 217.715 161.519 215.553 159.065C215.462 159.065 215.371 159.065 215.274 159.065C215.036 159.065 214.803 159.059 214.571 159.048C215.019 159.284 215.49 159.487 215.978 159.65L214.934 159.301L214.474 159.042C207.823 158.637 204.328 153.254 202.813 149.994L202.75 149.853L202.688 149.712C200.855 145.478 198.749 136.335 196.877 81.106L195.923 58.0439C195.503 55.178 195.299 51.5633 195.299 47.0252C195.299 40.5952 195.617 34.1372 196.235 27.8367C196.57 24.4247 196.928 21.8404 197.319 19.9486C197.631 18.4396 197.995 17.2347 198.454 16.148C200.055 12.4038 203.147 9.81946 206.836 8.99742C209.151 6.45247 211.694 5.14059 213.748 4.46494C215.921 3.71047 218.464 3.46836 223.9 3.46836C226.545 3.46836 229.166 3.54155 231.692 3.68231C234.365 3.83434 237.832 4.0314 240.885 5.94574C243.036 6.70584 245.465 7.92764 247.411 10.2361C248.711 11.7901 249.482 13.4736 249.931 15.1627C250.146 15.0501 250.368 14.9375 250.589 14.8361C250.68 14.7517 250.77 14.6729 250.861 14.594C251.786 13.0907 252.95 11.8126 254.351 10.771C255.691 9.76878 257.342 8.9017 259.674 7.97268L259.845 7.90512L260.015 7.84318C264.18 6.33987 269.554 5.60791 276.443 5.60791C280.569 5.60791 283.486 5.96826 285.915 6.76778L286.113 6.83534L286.312 6.90854C289.2 7.98394 291.419 9.44785 293.088 11.3791C294.926 13.5186 296.027 16.1706 296.47 19.4925C296.561 19.9429 296.646 20.4046 296.72 20.8832C296.776 20.8494 296.827 20.8156 296.878 20.7875C297.559 20.3708 299.739 18.9013 305.328 14.1492L322.375 -0.0112305L329.038 7.54477C329.429 7.54477 329.866 7.54477 330.36 7.54477C333.458 7.54477 336.432 7.87697 339.19 8.53572C341.38 9.06498 347.14 10.4501 349.898 15.8609L350.279 16.6041L350.545 17.398C351.067 18.9632 351.431 20.4947 352.18 31.6767C352.639 38.6077 353.008 46.0567 353.275 53.8267V54.0181L353.281 60.6282C353.281 76.0217 352.265 92.806 350.267 110.519C347.504 134.989 344.785 143.328 342.941 147.393C342.351 148.8 341.466 150.557 339.86 152.156C339.008 153.001 338.049 153.699 337.022 154.239C336.364 155.196 335.677 156.097 334.974 156.942L334.639 157.336L334.27 157.702C332.42 159.538 331.098 160.692 329.401 161.542L329.265 161.61C327.67 162.381 325.888 162.792 324.118 162.792C322.818 162.792 320.832 162.567 318.738 161.514C317.932 161.688 317.098 161.784 316.241 161.784C312.564 161.784 309.908 160.196 308.075 158.462C304.891 157.86 301.299 155.793 298.882 150.214C297.605 147.612 297.049 144.487 297.049 140.017C297.049 135.817 297.469 129.263 298.331 120.018C297.764 123.48 297.593 124.899 297.542 125.457L297.503 125.885L297.429 126.307C296.788 130.107 295.959 133.052 294.847 135.445C294.353 136.847 293.695 138.086 292.849 139.201C291.555 140.923 290.108 142.05 288.707 142.781C288.139 143.564 287.532 144.335 286.891 145.079C285.546 146.869 283.65 148.93 280.734 150.084C279.326 150.641 277.839 150.929 276.313 150.929C275.541 150.929 274.65 150.855 273.68 150.641C272.602 150.946 271.535 151.081 270.542 151.081C270.088 151.081 269.492 151.053 268.805 150.946C268.431 150.979 268.045 150.996 267.653 150.996H264.861L262.336 149.696C261.445 149.228 259.901 148.243 258.568 146.548C255.208 145.63 250.407 142.855 249.045 134.589C248.784 132.996 248.603 131.121 248.506 128.857C248.387 134.437 248.274 138.288 248.149 140.602L248.081 141.892L247.723 143.131C246.719 146.599 245.073 148.817 243.302 150.23C242.247 152.775 241.118 154.847 239.881 156.514C236.305 161.334 231.862 162.049 229.535 162.049C229.223 162.049 228.911 162.037 228.605 162.015C227.146 162.634 225.608 162.933 224.144 162.933L224.178 162.944ZM299.767 86.6914C299.602 97.5074 299.438 104.528 299.262 109.185C300.272 96.3926 300.783 87.1362 300.794 81.6071L300.635 75.5995C300.374 75.6501 300.142 75.6896 299.932 75.7233L299.767 86.6914Z" fill="white"/>
<path d="M374.175 168C372.853 168 371.565 167.775 370.356 167.353C369.896 167.409 369.448 167.437 369.017 167.437C368.461 167.437 367.899 167.392 367.343 167.307C367.008 167.336 366.668 167.353 366.327 167.353H363.649L361.101 166.097C359.199 165.128 357.662 163.71 356.572 161.987C356.124 161.874 355.681 161.75 355.25 161.604L354.938 161.503L354.631 161.384C350.823 159.887 347.958 156.829 346.732 152.978C344.802 151.435 343.304 149.459 342.34 147.122C341.25 144.521 340.802 141.323 340.802 136.132C340.802 127.698 341.534 122.546 343.242 118.914L343.605 118.143L343.679 118.036C344.365 115.226 346.096 112.833 348.531 111.24L348.548 110.829L348.315 110.801L340.416 105.581V104.354C340.189 104.208 339.973 104.061 339.752 103.909C334.491 100.266 333.515 95.8633 333.623 92.8116C333.634 92.5188 333.657 92.2316 333.685 91.9445C333.305 90.8409 332.97 89.3601 333.05 87.6541C332.823 86.6463 332.766 85.7792 332.766 85.1655C332.766 82.9696 333.458 80.4022 335.144 78.2176C335.428 73.5781 338.413 70.6165 339.428 69.6143L339.871 69.1751L340.359 68.7866C342.317 67.2326 344.706 66.0221 347.702 65.0762C347.628 64.6201 347.549 64.1247 347.453 63.5841L347.436 63.4772C346.476 57.7567 346.181 55.1836 346.119 53.5508C344.853 52.2558 343.866 50.6736 343.248 48.8832C342.385 48.2807 341.545 47.5488 340.779 46.6591C339.19 44.8236 338.123 42.5827 337.261 39.2158C336.716 37.2226 336.489 34.8353 336.489 31.0798C336.489 23.9517 337.227 18.7155 338.804 14.6109L342.918 4.40859L387.477 4.64507C421.373 4.64507 431.457 4.44801 433.948 4.27909L434.107 4.26783H434.266C438.897 4.08203 441.899 3.99194 443.431 3.99194C448.283 3.99194 451.217 5.9288 452.97 8.00079C453.441 8.17533 453.912 8.36677 454.378 8.56383C462.169 11.8801 463.696 17.032 463.611 20.7762C463.599 21.2998 463.548 21.8178 463.469 22.3245C464.496 24.0362 465.08 26.0293 465.08 28.1633C465.08 29.6722 464.808 31.0291 464.433 32.2059C464.604 33.0054 464.689 33.8049 464.689 34.5876C464.689 38.9061 462.362 41.8395 460.376 43.9059V66.8836C460.376 79.4168 460.308 87.2262 460.172 90.7621C459.973 95.6887 459.269 99.1683 457.89 101.91C454.792 108.672 449.594 110.632 446.734 111.195C445.304 111.482 443.93 111.758 421.952 111.797L423.37 111.859C431.763 112.129 437.949 112.462 442.273 112.878C444.833 113.126 446.728 113.396 448.237 113.734C453.35 114.877 455.95 117.557 457.266 120.097C459.627 121.696 463.338 124.871 463.985 130.181C464.104 131.166 464.104 132.146 463.985 133.108C464.632 134.803 464.87 136.616 464.683 138.39C464.955 140.985 464.331 143.654 462.822 145.929L462.754 146.036C462.68 146.143 462.606 146.255 462.527 146.357C462.504 148.75 461.613 156.323 451.62 159.515C448.629 160.472 444.362 161.114 437.779 161.587C432.246 161.987 423.966 162.386 413.156 162.775H413.048C403.565 163.034 395.955 163.293 390.417 163.546C386.597 163.721 384.39 163.884 383.164 163.997C382.194 164.976 381.275 165.708 380.27 166.311C378.38 167.431 376.286 168.011 374.17 168.011L374.175 168ZM400.637 56.7882C400.66 57.661 400.688 58.5506 400.722 59.4402C403.264 59.2375 405.251 59.0629 406.806 58.9053L406.885 56.5687V56.3491C406.147 56.3998 405.353 56.4504 404.507 56.5067C403.06 56.6081 401.778 56.6982 400.637 56.7826V56.7882Z" fill="white"/>
<path d="M570.002 160.433C565.332 160.433 560.678 160.056 556.167 159.307L556.019 159.284L555.872 159.256C544.284 157.021 534.489 152.083 526.76 144.578C519.042 137.089 513.833 127.287 511.268 115.446C510.246 111.105 509.571 107.321 509.196 103.887C508.845 100.677 508.408 94.5684 507.874 85.2219C507.341 76.6693 507.074 67.7338 507.074 58.7083C507.074 40.8881 508.305 27.9213 510.836 19.059L510.904 18.8169L510.984 18.5804C511.92 15.7877 512.732 14.0479 513.787 12.5784C515.825 9.74068 518.821 7.92769 522.186 7.4491C523.832 6.15974 525.801 5.19131 528.008 4.61701C529.858 4.13842 531.992 3.90195 534.529 3.90195C535.868 3.90195 537.304 3.96388 538.927 4.09338L539.188 4.1159L539.449 4.14968C540.902 4.32986 542.445 4.4312 544.04 4.4481C548.818 4.0596 556.876 3.86816 568.623 3.86816C578.622 3.86816 581.959 4.12153 583.752 4.34112L584.098 4.38616L584.445 4.4481C589.461 5.38274 593.638 6.5595 597.224 8.04592C601.151 9.67874 604.664 11.8239 607.666 14.4308L607.774 14.5209C611.519 17.8541 614.379 21.846 616.275 26.3842C617.96 30.4437 619.089 35.5279 619.731 41.9353C620.281 47.5151 620.684 55.2569 620.956 65.6112V65.7576V75.2448C620.956 83.1161 620.82 90.4694 620.553 97.0964L620.542 97.3385L620.519 97.5806C620.145 102.068 619.759 109.044 619.373 118.312C619.243 121.634 619.135 124.342 618.902 126.622C619.521 128.621 619.538 130.625 619.186 132.337V132.636C619.186 134.51 618.755 136.104 618.096 137.523C618.17 138.035 618.204 138.547 618.204 139.06C618.204 145.152 613.817 148.541 610.288 151.261C610.186 151.34 610.083 151.419 609.998 151.486C608.256 155.309 604.596 158.299 599.5 158.299C599.239 158.299 598.876 158.288 598.439 158.243C596.509 159.127 594.699 159.29 593.626 159.29C592.52 159.29 591.447 159.132 590.426 158.834C589.887 158.811 589.348 158.755 588.814 158.665C588.099 158.749 586.828 158.924 584.711 159.295L584.445 159.341C579.604 160.072 574.741 160.438 569.996 160.438L570.002 160.433ZM566.563 110.007C566.779 110.041 567.551 110.142 569.401 110.215L569.639 93.8533V93.7576C569.769 89.8163 569.832 84.5012 569.832 77.9699C569.832 67.9872 569.599 61.6249 569.333 57.5991C568.674 57.6329 567.976 57.6667 567.233 57.7005C565.031 57.8187 563.011 57.9313 561.178 58.0495C561.059 61.5911 560.962 67.4692 560.962 77.1929C560.962 99.2866 561.342 104.664 561.49 105.925C561.836 107.186 562.358 107.805 562.789 108.2C563.624 108.977 564.889 109.585 566.563 110.013V110.007Z" fill="white"/>
<path d="M665.481 160.805C661.679 160.805 658.223 159.166 655.987 156.368C655.766 156.266 655.545 156.165 655.335 156.052H651.742L648.434 150.428C647.634 149.06 646.93 147.252 646.885 145.073C645.409 143.091 644.541 140.614 644.541 137.889H647.747C648.025 136.459 648.531 135.085 649.24 133.801L649.28 133.705H649.291C649.422 133.48 649.552 133.261 649.694 133.035L645.971 132.422C645.903 132.54 645.841 132.664 645.778 132.782C645.897 133.79 646.192 134.471 646.334 134.753C646.204 134.488 645.954 134.038 645.517 133.323C645.245 133.925 645.041 134.544 644.893 135.158C644.916 135.062 645.012 134.64 645.336 133.035C645.319 133.007 645.199 132.821 645.199 132.821L645.126 132.692C642.731 128.644 639.281 121.943 634.582 112.209C629.889 102.496 626.472 94.85 624.129 88.8311L624.032 88.589L623.947 88.3412C623.539 87.1194 623.011 85.7907 622.381 84.3831C621.569 82.5701 620.82 80.8584 620.162 79.2875L617.313 72.8858C613.477 64.716 611.956 61.1914 611.366 58.9111L611.054 58.3931L610.753 57.6949C610.305 56.6533 609.675 54.9923 607.944 48.4104C606.86 44.3002 605.788 39.9761 604.766 35.5506C603.654 32.0203 604.125 28.3774 606.117 25.3708C607.127 23.8506 608.466 22.6119 610.015 21.7223C610.146 21.4013 610.294 21.0804 610.452 20.7651C612.075 17.5501 614.788 15.6133 617.001 14.2845C619.402 12.7981 622.631 11.4975 627.449 10.073C632.102 8.69915 635.257 7.99535 637.686 7.79266L638.163 7.75324H638.639C642.26 7.75324 646.056 8.05166 649.348 10.225C652.889 12.5672 654.552 16.182 655.817 19.7404L655.879 19.9262L658.178 26.7615L658.286 27.1894C658.501 28.0227 659.772 32.2174 666.934 53.0217C669.902 61.6418 672.064 67.824 673.642 72.2552C675.367 64.7724 676.473 57.9652 676.939 52.0026C677.773 41.1078 678.953 32.7635 680.548 26.5194C682.091 19.6278 682.875 17.3475 683.482 15.9061C686.132 9.64506 690.853 7.93342 693.708 7.49425C694.474 6.82986 695.291 6.25556 696.165 5.77134C697.987 4.77476 700.098 4.116 703.043 3.62616L703.979 3.46851H706.692C709.643 3.46851 711.391 3.6149 712.928 3.9865L713.388 4.09911L713.564 4.15542C713.882 4.23424 714.773 4.44257 717.048 4.93804C720.17 5.27587 723.387 6.23303 726.843 7.85459L727.064 7.96157L737.699 13.2373L735.809 24.5037C735.503 27.9382 735.123 30.6408 734.635 32.7466C734.226 34.6215 733.483 38.6811 732.246 47.4194L732.217 47.6221C730.469 58.5508 728.455 68.5391 726.23 77.3056C723.983 86.151 721.055 95.413 717.531 104.838C715.289 110.812 712.928 116.2 710.511 120.857C708.094 125.508 705.171 130.389 701.823 135.372L701.766 135.462C699.695 138.486 698.787 139.972 698.424 140.597C698.35 143.373 697.89 146.256 695.864 148.93C694.729 150.445 693.311 151.616 691.625 152.426C690.632 153.823 689.389 154.876 688.067 155.641C685.95 157.618 683.113 158.761 680.168 158.761C679.362 158.761 678.38 158.676 677.302 158.4C675.611 159.183 673.778 159.594 671.877 159.594C670.708 160.022 669.476 160.343 668.171 160.557C667.223 160.714 666.349 160.788 665.504 160.788L665.481 160.805Z" fill="white"/>
<path d="M757.328 168C756.006 168 754.718 167.775 753.509 167.353C753.05 167.409 752.601 167.437 752.17 167.437C751.614 167.437 751.052 167.392 750.496 167.308C750.161 167.336 749.821 167.353 749.48 167.353H746.802L744.237 166.092C742.341 165.123 740.809 163.71 739.731 161.993C739.282 161.88 738.84 161.756 738.408 161.61L738.096 161.508L737.79 161.39C733.982 159.892 731.116 156.835 729.891 152.984C727.961 151.441 726.463 149.465 725.498 147.128C724.409 144.527 723.96 141.329 723.96 136.138C723.96 127.703 724.692 122.552 726.401 118.92L726.764 118.149L726.838 118.042C727.524 115.232 729.255 112.839 731.689 111.246L731.707 110.835L731.474 110.807L723.575 105.587V104.36C723.348 104.213 723.132 104.067 722.911 103.915C717.65 100.272 716.674 95.8691 716.782 92.8174C716.793 92.5247 716.816 92.2375 716.844 91.9503C716.464 90.8468 716.129 89.366 716.209 87.66C715.982 86.6521 715.925 85.7851 715.925 85.1713C715.925 82.9755 716.617 80.408 718.303 78.2234C718.586 73.584 721.571 70.6224 722.587 69.6202L723.03 69.181L723.518 68.7925C725.476 67.2385 727.865 66.028 730.861 65.0821C730.787 64.626 730.708 64.1305 730.611 63.59L730.594 63.483C729.635 57.7625 729.34 55.1894 729.278 53.5566C728.012 52.2616 727.025 50.6795 726.406 48.889C725.544 48.2866 724.704 47.5546 723.938 46.665C722.349 44.8295 721.282 42.5886 720.419 39.2216C719.875 37.2285 719.648 34.8412 719.648 31.0857C719.648 23.9576 720.385 18.7213 721.963 14.6167L726.077 4.41445L770.636 4.65093C804.532 4.65093 814.616 4.45387 817.101 4.28495L817.26 4.27369H817.419C822.055 4.08789 825.052 3.9978 826.584 3.9978C831.436 3.9978 834.37 5.93466 836.123 8.00665C836.594 8.18119 837.065 8.37263 837.531 8.56969C845.322 11.886 846.849 17.0378 846.764 20.7764C846.752 21.3 846.701 21.818 846.622 22.3248C847.649 24.0364 848.233 26.0296 848.233 28.1635C848.233 29.6724 847.961 31.0294 847.586 32.2061C847.757 33.0056 847.842 33.8052 847.842 34.5878C847.842 38.9063 845.515 41.8398 843.529 43.9061V66.8838C843.529 79.4114 843.461 87.2208 843.325 90.7623C843.126 95.6946 842.422 99.1685 841.043 101.911C837.945 108.673 832.747 110.632 829.887 111.195C828.457 111.482 827.083 111.758 805.105 111.798L806.523 111.859C814.916 112.13 821.102 112.462 825.426 112.879C827.986 113.126 829.881 113.397 831.391 113.734C836.504 114.877 839.103 117.557 840.419 120.097C842.78 121.696 846.491 124.871 847.138 130.181C847.257 131.166 847.257 132.146 847.138 133.109C847.785 134.803 848.023 136.611 847.83 138.39C848.103 140.986 847.479 143.654 845.969 145.929L845.912 146.013C845.833 146.132 845.753 146.244 845.674 146.357C845.651 148.75 844.76 156.323 834.767 159.515C831.776 160.472 827.509 161.114 820.926 161.587C815.393 161.987 807.114 162.387 796.303 162.775H796.195C786.718 163.034 779.103 163.293 773.564 163.547C769.745 163.721 767.543 163.884 766.312 163.997C765.341 164.977 764.422 165.709 763.417 166.311C761.528 167.432 759.434 168.011 757.317 168.011L757.328 168ZM783.79 56.7885C783.813 57.6612 783.841 58.5508 783.875 59.4404C786.417 59.2377 788.404 59.0632 789.959 58.9055L790.038 56.5689V56.3493C789.3 56.4 788.506 56.4507 787.66 56.507C786.213 56.6083 784.931 56.6984 783.79 56.7828V56.7885Z" fill="white"/>
<path d="M865.417 164.239C863.612 164.239 861.881 163.822 860.326 163.068C859.935 163.068 859.538 163.034 859.135 162.989C858.669 163.045 858.198 163.073 857.716 163.073H855.037L852.506 161.829C851.525 161.334 849.879 160.303 848.5 158.49C845.884 157.719 842.564 155.782 840.646 150.996L840.374 150.309L840.192 149.594C840.118 149.313 840.067 149.161 840.05 149.121C838.779 146.582 838.671 144.105 838.671 141.982C838.671 139.634 838.876 133.655 840.657 108.965C841.287 98.0029 841.611 88.3974 841.616 80.4079L841.571 78.0093C841.293 77.8066 841.026 77.5983 840.765 77.3731C839.375 76.1963 838.132 74.6705 836.515 72.1368L836.373 71.906C834.744 69.2146 833.632 67.1595 833.008 65.2283C831.969 63.3646 831.305 61.135 830.63 58.2353C829.83 54.7895 829.455 52.1038 829.455 49.7672V48.7932C829.455 44.6886 831.112 41.0232 834.126 38.4782C835.136 37.6168 836.356 36.8454 838.28 35.877V31.2376C838.098 24.0869 838.2 21.7109 838.325 20.3371C838.507 18.3552 838.932 16.6323 839.636 15.1008C841.066 11.9872 843.586 9.70688 846.622 8.63711C847.03 8.08533 847.484 7.5617 847.972 7.07748C849.709 5.35458 851.962 4.04832 854.862 3.09116L855.003 3.04611L855.151 3.00107C859.277 1.75675 864.333 1.1543 870.609 1.1543C874.383 1.1543 877.288 1.45271 879.729 2.1002L890.653 4.80843L891.515 15.067C893.087 14.4083 894.869 13.6482 896.878 12.7867L897.025 12.7248L897.173 12.6628C901.764 10.8386 903.954 9.87016 904.982 9.38032C905.521 9.12695 905.844 8.94678 906.026 8.84543C907.876 7.19009 910.134 6.06401 912.609 5.55727C916.008 3.72176 920.343 3.29948 926.092 3.29948C931.841 3.29948 935.609 3.86815 938.684 5.13499L939.059 5.28701L939.422 5.46719C941.698 6.5989 944.938 8.53013 946.805 12.1955L946.845 12.2687C947.69 13.9578 948.201 15.8384 949.024 20.3202L949.058 20.506L949.086 20.6974C949.688 24.7401 949.994 29.4809 949.994 34.7903C949.994 45.5557 948.814 55.4877 946.487 64.2993L946.442 64.4682L946.391 64.6315C945.642 67.1483 944.586 70.1605 943.156 73.8485C941.675 77.6715 940.262 80.7626 938.849 83.2906C937.47 85.9426 935.206 89.0449 931.744 93.02C927.624 97.7608 924.787 100.266 921.949 101.674C920.003 102.648 918.09 103.127 916.133 103.127C914.799 103.127 913.511 102.907 912.308 102.49C911.44 102.609 910.537 102.67 909.618 102.67C905.833 102.67 903.177 101.28 901.611 100.114C900.68 99.4218 899.863 98.611 899.148 97.6763C898.285 97.2372 897.468 96.7079 896.713 96.0942C895.317 95.3791 893.978 94.3544 892.826 92.9524C891.549 115.316 889.393 131.83 886.255 143.373C885.761 145.169 885.358 146.469 884.978 147.5C883.48 151.582 881.017 153.716 878.73 154.814C878.026 155.878 877.271 156.931 876.466 157.978L876.267 158.231L876.057 158.473C874.53 160.236 873.316 161.362 872.011 162.235L871.96 162.268C869.985 163.569 867.715 164.256 865.4 164.256L865.417 164.239Z" fill="white"/>
<path d="M115.863 99.9509H110.96L109.195 107.541C106.579 118.177 102.527 126.966 97.0394 133.902C91.5518 140.845 84.8158 145.675 76.8427 148.395C72.7908 149.825 67.8878 150.534 62.1335 150.534C58.7343 150.534 55.9252 150.275 53.7007 149.758C48.2075 148.592 43.5371 146.97 39.6782 144.893C35.8193 142.821 32.1931 139.899 28.7939 136.138C24.7421 131.729 21.4734 126.284 18.9878 119.792C16.5022 113.306 14.4763 105.075 12.9101 95.0863C12.2518 90.8072 11.8318 86.7533 11.6332 82.9246C11.4346 79.1015 11.3381 73.0995 11.3381 64.9298C11.3381 53.6465 11.5992 45.5387 12.1213 40.6121C12.6433 35.6855 13.818 30.3028 15.651 24.4641L17.4159 18.6254L19.9639 18.8224H20.9456C21.9898 18.8224 22.841 18.372 23.4936 17.4599C23.8852 16.8124 24.2767 16.3901 24.6683 16.193C25.0599 15.996 25.65 15.9003 26.4332 15.9003C27.6079 15.9003 28.5896 15.9678 29.3727 16.0973C35.1213 16.6153 40.8075 16.8743 46.4313 16.8743C50.8747 16.8743 56.2374 16.6773 62.508 16.2888C72.5752 15.6413 80.6788 15.3147 86.8247 15.3147C92.3179 15.3147 96.6932 15.5118 99.9619 15.9003C103.231 16.2888 104.865 16.8068 104.865 17.4543C104.865 17.7132 104.797 17.9722 104.666 18.2312C104.536 18.4902 104.337 18.6197 104.076 18.6197C103.815 18.6197 103.781 18.7155 103.98 18.9125C104.178 19.1096 104.468 19.2729 104.859 19.3967C105.773 19.6557 106.261 19.8528 106.329 19.9823C106.391 20.1118 106.096 20.3089 105.444 20.5679C105.052 20.6974 104.854 20.8269 104.854 20.9564C104.854 21.2154 105.569 21.5419 107.01 21.9304C108.837 22.5835 109.95 23.293 110.341 24.07C110.863 25.5001 111.124 28.1576 111.124 32.0483C111.124 35.0324 110.926 37.8194 110.534 40.415C110.143 43.0107 109.683 44.3732 109.161 44.5027C108.769 44.6322 108.571 45.0883 108.571 45.8653C108.571 46.5184 106.216 46.8393 101.511 46.8393C97.1983 46.8393 93.277 46.7774 89.7472 46.6423L68.5688 46.0567C62.8145 45.7977 59.1542 45.6682 57.588 45.6682L43.8606 45.2797L43.0774 54.035C42.5554 59.2262 42.2943 66.3599 42.2943 75.4362C42.2943 85.554 42.6178 92.6258 43.2761 96.6403C44.5813 105.334 46.3802 111.493 48.6671 115.125C50.9541 118.756 54.5179 120.964 59.3528 121.741C60.397 122 61.9008 122.129 63.8643 122.129C67.133 122.129 70.0102 121.155 72.4901 119.213C74.97 117.264 77.325 114.156 79.5495 109.872C81.9046 105.334 83.0793 102.608 83.0793 101.702C83.0793 101.184 82.7842 100.857 82.194 100.728C81.6038 100.598 80.5937 100.531 79.1523 100.531C72.6149 100.531 69.2157 100.334 68.9546 99.9453C68.6936 99.5568 68.8866 99.2359 69.5448 98.9712C69.9364 98.7122 69.1533 98.3857 67.1898 97.9972L63.8587 97.4116L67.587 97.0231L70.135 96.6346C70.135 96.3756 68.7617 96.1842 66.0151 96.0491L60.5275 95.6606C57.2588 95.5311 54.9719 95.3396 53.6667 95.075C52.3558 94.816 51.3797 94.4275 50.7271 93.9095C49.8135 93.003 49.4843 92.3555 49.7454 91.9614C49.8759 91.8319 49.8078 91.6067 49.5467 91.2801C49.2857 90.9592 48.8885 90.6664 48.372 90.4074C47.1974 89.6304 46.6072 88.9153 46.6072 88.2679C46.6072 87.8794 46.9306 87.3613 47.5889 86.7139C47.9805 86.1959 48.2075 85.8074 48.2756 85.5484C48.338 85.2894 48.1791 84.9628 47.7875 84.5743L47.396 83.7973C47.396 83.4088 47.7875 82.6318 48.5707 81.4607C49.6148 80.0362 49.8759 79.0002 49.3538 78.3471C49.2233 78.2176 49.1552 78.0261 49.1552 77.7615C49.1552 77.4969 49.8078 76.9845 51.1187 76.2075C52.6849 75.301 53.4056 74.6535 53.2751 74.2594C53.1446 74.0004 53.7291 73.6738 55.04 73.2853C55.5621 73.1558 56.0501 72.9644 56.5098 72.6998C56.9637 72.4408 57.1964 72.1818 57.1964 71.9228C57.1964 71.1458 58.1101 70.7573 59.943 70.7573C62.6896 70.7573 69.6186 70.4364 80.7299 69.7832C91.8412 69.1357 100.405 68.8092 106.42 68.8092H114.07L114.461 77.3674C114.722 84.1126 115.051 89.3038 115.443 92.9298L115.834 99.934L115.863 99.9509ZM56.1579 96.933C55.9593 97.0006 55.7323 97.0288 55.4713 97.0288C54.6881 97.0288 54.4895 96.8317 54.8811 96.4432C55.5337 96.1842 55.9877 96.2461 56.2544 96.6403C56.3849 96.7698 56.3509 96.8655 56.1579 96.933ZM78.0173 96.4488H76.2525C76.122 96.5783 76.156 96.6797 76.3489 96.7416C76.5476 96.8092 76.837 96.8373 77.2342 96.8373C78.1479 96.8373 78.4089 96.7078 78.0173 96.4488ZM93.5096 19.5994C94.0317 19.7289 94.5538 19.7965 95.0759 19.7965C95.598 19.7965 95.9895 19.7683 96.2506 19.7008C96.5116 19.6388 96.5116 19.5375 96.2506 19.408H93.7026C93.572 19.408 93.504 19.4756 93.504 19.6051L93.5096 19.5994ZM98.6113 20.3764C98.6113 20.5059 99.2015 20.5735 100.376 20.5735C101.029 20.5735 101.517 20.5453 101.846 20.4778C102.169 20.4158 102.203 20.3145 101.942 20.185C101.812 20.0555 101.352 19.9879 100.569 19.9879C99.9108 19.9879 99.3944 20.0555 99.0029 20.185L98.6113 20.3821V20.3764Z" fill="#EA003D"/>
<path d="M200.571 140.22C200.31 140.22 200.111 139.51 199.981 138.08C199.85 136.915 199.652 135.94 199.391 135.163C199.13 134.386 198.931 133.93 198.8 133.801C198.67 133.671 198.67 134.06 198.8 134.966L198.999 138.469C198.999 141.971 198.738 145.152 198.216 148.001C197.694 150.855 197.166 151.824 196.65 150.917C196.519 150.658 196.224 150.399 195.77 150.14C195.31 149.881 194.822 149.752 194.3 149.752C193.642 149.752 193.188 149.819 192.927 149.949C192.666 150.078 192.467 150.405 192.337 150.923C192.206 151.57 192.042 151.925 191.849 151.993C191.65 152.055 191.293 151.959 190.771 151.7C190.248 151.57 189.891 151.537 189.692 151.604C189.494 151.666 189.465 152.027 189.596 152.674C189.596 153.451 189.465 153.581 189.204 153.063C188.682 152.286 188.03 151.897 187.241 151.897C186.327 151.638 185.606 150.991 185.084 149.949L184.301 148.198L183.319 150.534C182.928 151.57 182.661 152.156 182.536 152.286C182.406 152.415 182.077 152.218 181.555 151.7L179.398 149.752C178.485 148.845 177.435 143.885 176.26 134.871C175.085 125.856 174.297 119.731 173.905 116.487H152.335L151.745 127.968C151.484 135.231 151.086 139.966 150.57 142.168L149.98 145.084V141.779C150.241 137.759 150.178 135.749 149.781 135.749C149.52 135.749 149.322 136.791 149.191 138.863C149.061 140.811 148.601 142.984 147.818 145.383C147.035 147.787 146.183 149.662 145.27 151.024C144.356 152.387 143.704 152.804 143.306 152.291C142.784 151.385 141.995 150.929 140.951 150.929C140.168 150.929 139.447 151.447 138.795 152.483C138.534 153.001 138.307 153.327 138.108 153.457C137.91 153.586 137.813 153.389 137.813 152.871C137.813 152.094 137.421 151.768 136.638 151.897H136.048C134.737 151.897 133.5 150.799 132.32 148.592C131.928 147.945 131.662 147.618 131.537 147.618L130.555 149.172C130.163 150.078 129.772 150.534 129.38 150.534C128.989 150.534 128.399 149.69 127.615 148.006C126.441 145.411 125.487 139.251 124.772 129.522C124.052 119.792 123.626 108.059 123.495 94.3093C123.495 84.9684 123.234 75.1152 122.712 64.7384C122.19 56.3097 121.929 48.9789 121.929 42.7517C121.929 37.0481 122.19 32.1834 122.712 28.1576C123.365 23.3605 124.018 20.9564 124.676 20.9564C125.334 20.9564 125.658 21.4124 125.658 22.3189C125.788 22.972 126.049 22.775 126.441 21.7334C126.963 20.4384 127.422 20.1794 127.814 20.9564C128.075 21.3449 128.302 21.4406 128.501 21.2491C128.699 21.0577 128.858 20.6974 128.989 20.1794C129.25 18.8844 129.704 17.9779 130.362 17.4543C131.015 16.9363 132.189 16.6097 133.892 16.4802C136.247 16.2212 146.376 15.9622 164.286 15.7032L183.7 15.3147C189.193 15.3147 192.132 15.6413 192.524 16.2888C193.307 17.0658 194.351 17.5894 195.662 17.8427L197.819 18.2312L197.427 29.3231C197.036 35.5504 196.837 48.1287 196.837 67.0694C196.837 79.3943 197.819 97.4173 199.776 121.155C200.429 128.677 200.758 133.35 200.758 135.163C201.019 138.536 200.957 140.22 200.56 140.22H200.571ZM127.825 18.4283C127.825 18.1693 127.888 17.9779 128.024 17.8427C128.154 17.7132 128.285 17.7808 128.416 18.0398C128.677 18.8168 128.614 19.2729 128.217 19.4024C127.956 19.6614 127.825 19.3404 127.825 18.4283ZM152.534 112.011C152.664 112.141 152.857 112.208 153.124 112.208C154.037 112.208 154.367 112.079 154.105 111.82C153.583 111.561 153.124 111.499 152.732 111.623C152.471 111.752 152.403 111.882 152.534 112.011ZM160.178 85.554L167.629 85.1655L167.43 83.4144C167.169 81.6014 166.908 77.9698 166.647 72.5196C166.516 68.2405 166.125 62.4693 165.472 55.2061L164.689 46.4508H159.394C155.995 46.4508 154.162 46.6479 153.901 47.0364C153.64 47.2954 153.379 53.8436 153.118 66.6865L152.528 85.7511L160.178 85.554ZM155.082 114.055C155.343 113.993 155.343 113.892 155.082 113.762C154.559 113.503 153.839 113.503 152.925 113.762C152.664 113.892 152.63 113.988 152.829 114.055C153.027 114.123 153.385 114.151 153.907 114.151C154.429 114.151 154.82 114.123 155.082 114.055ZM156.648 42.5546C156.778 42.5546 157.136 42.5884 157.726 42.6503C158.316 42.7179 159.065 42.746 159.979 42.746C161.154 42.746 162.067 42.7179 162.726 42.6503C163.378 42.5884 163.316 42.487 162.527 42.3575C162.135 42.228 161.284 42.1605 159.979 42.1605C158.674 42.1605 157.754 42.228 157.232 42.3575C157.102 42.3575 156.903 42.4251 156.642 42.5546H156.648ZM164.394 111.916C164.593 111.854 164.558 111.752 164.297 111.623H162.533C162.272 111.752 162.272 111.848 162.533 111.916C162.794 111.983 163.123 112.011 163.514 112.011C163.906 112.011 164.201 111.983 164.4 111.916H164.394ZM170.965 112.693C171.357 112.631 171.289 112.529 170.767 112.4C170.506 112.27 169.984 112.203 169.201 112.203C168.417 112.203 167.89 112.27 167.634 112.4L167.243 112.597C167.243 112.726 167.895 112.794 169.206 112.794C169.989 112.794 170.579 112.766 170.971 112.698L170.965 112.693Z" fill="#EA003D"/>
<path d="M341.954 60.6509C341.954 75.7009 340.972 91.9109 339.014 109.292C337.051 126.673 334.894 137.889 332.545 142.95C332.284 143.604 332.057 144.02 331.858 144.217C331.66 144.414 331.694 144.251 331.955 143.733C332.346 141.785 332.545 139.972 332.545 138.288L332.937 134.786L332.153 137.9C331.762 139.848 331.007 141.92 329.901 144.127C328.788 146.334 327.579 148.215 326.274 149.769C325.224 150.811 324.572 151.39 324.311 151.52C324.05 151.649 323.721 151.452 323.329 150.934C323.068 150.546 322.449 150.225 321.468 149.96C320.486 149.701 319.538 149.572 318.625 149.572C318.103 149.572 317.609 149.639 317.155 149.769C316.695 149.898 316.468 150.095 316.468 150.354C316.468 150.484 316.4 150.552 316.27 150.552C316.009 150.552 315.515 149.966 314.8 148.8C314.079 147.635 313.722 146.79 313.722 146.272C313.722 145.495 313.461 145.107 312.938 145.107C312.416 145.107 311.889 145.563 311.372 146.469C310.981 147.123 310.651 147.444 310.39 147.444C310.129 147.444 309.732 146.796 309.216 145.495C308.694 144.589 308.433 142.77 308.433 140.045C308.433 136.025 308.887 129.218 309.806 119.618C311.372 101.331 312.161 88.6227 312.161 81.4833L311.962 74.0906C311.701 65.6619 311.503 61.3828 311.372 61.2477H311.174C310.651 61.2477 308.887 61.7037 305.879 62.6102C301.958 63.7757 299.308 64.457 297.94 64.6541C296.572 64.8511 295.88 64.6879 295.88 64.1699C295.88 63.5224 296.203 63.0719 296.862 62.8073C297.123 62.6778 297.089 62.5821 296.765 62.5145C296.436 62.4526 296.01 62.4864 295.488 62.6102H294.507C293.593 62.6102 292.611 62.4807 291.567 62.2217L290.194 61.8332L291.959 61.6362C294.705 61.3772 296.079 61.1182 296.079 60.8592C296.079 60.7297 295.165 60.6621 293.332 60.6621H288.82L288.429 86.5394C288.168 104.05 287.839 114.038 287.447 116.499C286.789 120.389 286.397 123.047 286.272 124.477C285.75 127.591 285.098 129.86 284.309 131.284C284.178 131.802 284.014 132.191 283.821 132.45C283.622 132.709 283.492 132.838 283.429 132.838C283.367 132.838 283.395 132.776 283.526 132.641C283.656 132.253 283.849 130.502 284.116 127.388L284.508 123.497L283.526 127.388C282.612 131.408 280.779 134.978 278.033 138.086C277.374 138.992 276.886 139.516 276.563 139.64C276.234 139.769 275.808 139.578 275.286 139.054C274.628 138.407 273.845 138.08 272.931 138.08C272.148 138.08 271.489 138.407 270.967 139.054C270.837 139.572 270.706 139.831 270.576 139.831C270.445 139.831 270.247 139.572 269.986 139.054C269.725 138.407 269.327 138.08 268.811 138.08C268.419 138.08 268.09 138.469 267.829 139.246C267.829 139.634 267.761 139.797 267.631 139.73C267.5 139.668 267.432 139.375 267.432 138.857C267.432 138.08 267.103 137.365 266.45 136.718C265.792 136.459 265.338 135.811 265.077 134.769C264.946 134.122 264.782 133.829 264.589 133.891C264.39 133.959 264.101 134.184 263.704 134.572C262.921 135.349 262.262 135.738 261.74 135.738C260.429 135.738 259.777 131.785 259.777 123.869C259.777 119.201 259.839 115.378 259.975 112.389V103.633C259.975 94.681 259.811 86.1228 259.487 77.9531C259.158 69.7834 258.732 65.5043 258.21 65.1101C258.08 64.7216 255.594 65.2396 250.759 66.6641C246.055 68.0942 243.439 68.5447 242.917 68.0267C242.395 67.5087 242.718 67.0526 243.898 66.6641C244.421 66.5346 244.682 66.3432 244.682 66.0786L242.718 66.2756C241.668 66.5346 240.363 66.6641 238.797 66.6641C238.405 66.6641 238.11 67.3454 237.917 68.708C237.719 70.0705 237.588 73.6402 237.526 79.4057C237.458 85.1769 237.429 92.7329 237.429 102.074C237.429 111.415 237.361 119.455 237.231 126.2C237.1 132.945 236.97 137.551 236.839 140.011C236.578 140.918 236.379 141.374 236.249 141.374C236.118 141.374 236.05 140.011 236.05 137.286L235.852 132.033L235.261 136.509C235 139.105 234.41 141.667 233.497 144.195C232.583 146.723 231.664 148.603 230.75 149.836C229.836 151.07 229.184 151.103 228.786 149.932C228.525 149.414 227.873 149.155 226.823 149.155H226.233C225.45 149.155 224.859 149.673 224.468 150.709C224.337 151.745 224.139 151.942 223.878 151.295C223.878 150.777 223.747 150.388 223.486 150.129C223.225 149.87 222.964 149.741 222.703 149.741C222.181 149.741 221.789 150.129 221.528 150.906L221.137 152.46V150.906C221.137 150.518 220.972 150.129 220.649 149.741C220.32 149.352 219.962 149.093 219.571 148.964C218.657 148.446 218.197 147.798 218.197 147.016C218.197 146.233 217.936 145.816 217.414 145.749C216.892 145.687 216.5 146.042 216.239 146.819C215.978 147.472 215.649 147.793 215.258 147.793C214.599 147.793 213.884 146.948 213.101 145.265C211.138 140.726 209.503 119.196 208.198 80.6726L207.216 56.9348C206.825 54.5982 206.626 51.2931 206.626 47.014C206.626 40.9163 206.921 34.8861 207.512 28.9179C208.102 22.9553 208.72 19.9712 209.373 19.9712C209.895 19.9712 210.286 20.2302 210.548 20.7482C210.548 21.0072 210.61 21.0747 210.746 20.9452C210.882 20.8157 210.945 20.6243 210.945 20.3597C211.075 19.7122 211.336 19.3237 211.728 19.1942C212.119 19.0647 212.443 19.3237 212.71 19.9712V20.1682C213.232 20.1682 213.691 19.5208 214.083 18.2201C214.997 16.5366 216.109 15.495 217.414 15.1065C218.067 14.8475 220.223 14.718 223.883 14.718C226.363 14.718 228.752 14.7856 231.039 14.9151C233.326 15.0446 234.597 15.2416 234.864 15.5006C235.386 16.0186 235.846 16.2776 236.237 16.2776C237.543 16.6661 238.36 17.0546 238.689 17.4431C239.012 17.8316 239.177 18.9352 239.177 20.7482C239.177 23.2143 239.109 25.5509 238.978 27.7524L238.587 38.4502L240.352 37.8646C245.448 36.3106 249.238 34.6891 251.724 32.9999C252.768 32.3524 253.455 31.7331 253.784 31.1532C254.107 30.5676 254.34 29.5654 254.471 28.1353C254.601 26.7108 254.766 25.7987 254.959 25.4102C255.157 25.0217 255.515 24.8922 256.037 25.0217H256.627C257.149 25.0217 257.541 24.7007 257.802 24.0476C257.932 23.5296 258.097 23.203 258.29 23.0735C258.488 22.944 258.647 23.0735 258.778 23.462L259.169 23.6591C259.561 23.6591 259.822 23.0735 259.953 21.908C260.214 20.872 260.605 20.157 261.127 19.7685C261.649 19.38 262.563 18.9239 263.874 18.4059C266.745 17.3699 270.933 16.8519 276.421 16.8519C279.168 16.8519 281.125 17.049 282.306 17.4375C283.35 17.826 284.071 18.2483 284.462 18.7043C284.854 19.1604 285.115 20.0331 285.245 21.3281C285.637 23.0172 285.835 25.2187 285.835 27.9438C285.835 30.41 286.159 32.1948 286.817 33.2927C287.47 34.3963 288.582 34.9481 290.148 34.9481C291.062 34.9481 292.503 34.6271 294.461 33.974C297.991 32.8085 300.766 31.6092 302.798 30.3762C304.823 29.1431 308.121 26.5813 312.7 22.6907L321.133 15.6864L322.506 17.2404C323.289 18.0174 324.01 18.4735 324.663 18.603C325.315 18.7325 327.211 18.8001 330.349 18.8001C332.568 18.8001 334.628 19.0253 336.523 19.4813C338.418 19.9374 339.497 20.4216 339.758 20.9396C340.019 21.7166 340.376 25.5453 340.836 32.42C341.29 39.2947 341.653 46.558 341.914 54.2097V60.6283L341.954 60.6509ZM211.751 25.6297C211.359 27.5779 211.16 28.7434 211.16 29.1319C211.16 29.9088 211.223 30.2973 211.359 30.2973L211.751 28.7434C212.142 27.5779 212.341 26.4067 212.341 25.2412C212.341 24.0758 212.142 24.2052 211.751 25.6297ZM244.892 63.7645L242.145 64.153C239.92 64.412 238.547 64.671 238.025 64.93C237.503 65.189 237.565 65.5155 238.224 65.904C238.876 66.2925 239.33 66.2925 239.597 65.904L242.344 64.5415L244.892 63.7645ZM299.988 61.8163C299.858 61.6868 299.659 61.6193 299.398 61.6193C299.137 61.6193 298.876 61.6868 298.615 61.8163C298.354 61.8163 298.286 61.8839 298.417 62.0134C298.547 62.1429 298.74 62.2105 299.007 62.2105C299.92 62.4695 300.25 62.34 299.988 61.822V61.8163Z" fill="#EA003D"/>
<path d="M388.033 117.85L387.835 121.352L395.286 121.938L422.934 123.103C439.141 123.621 447.25 124.404 447.25 125.44C446.859 125.57 446.467 125.637 446.075 125.637L443.527 125.44C441.564 125.44 440.911 125.508 441.564 125.637C444.702 126.29 447.511 127.36 449.997 128.846C452.477 130.338 453.265 131.538 452.352 132.444C451.83 132.962 451.569 133.61 451.569 134.392C451.569 135.434 451.96 136.143 452.743 136.532C453.004 136.661 453.197 136.825 453.334 137.016C453.464 137.213 453.396 137.309 453.135 137.309C452.477 137.309 452.153 137.635 452.153 138.283C452.153 139.06 452.477 139.448 453.135 139.448C453.396 139.448 453.458 139.544 453.334 139.741C453.203 139.938 453.004 140.102 452.743 140.225C451.96 140.614 451.569 141.2 451.569 141.977C451.569 142.63 451.177 142.951 450.394 142.951C449.736 142.951 449.412 143.08 449.412 143.339C449.412 143.598 449.736 144.184 450.394 145.09C450.916 145.608 451.177 145.997 451.177 146.256C451.177 147.297 450.161 148.136 448.135 148.784C446.11 149.437 442.381 149.949 436.956 150.338C431.531 150.726 423.456 151.115 412.742 151.503C403.196 151.762 395.581 152.021 389.895 152.28C384.208 152.539 380.679 152.832 379.305 153.158C377.932 153.479 376.786 154.161 375.872 155.202C375.214 155.979 374.726 156.469 374.402 156.661C374.073 156.858 373.914 156.689 373.914 156.176C373.784 155.523 373.324 154.943 372.541 154.425C371.758 153.907 371.1 153.84 370.578 154.228C370.055 154.487 369.664 154.938 369.403 155.591C369.272 155.979 369.142 156.176 369.011 156.176C368.881 156.176 368.813 155.979 368.813 155.591C368.813 154.684 368.484 154.228 367.831 154.228C367.178 154.228 366.719 154.679 366.458 155.591C366.458 155.979 366.39 156.143 366.259 156.075C366.128 156.007 366.06 155.782 366.06 155.394C365.93 154.487 365.402 153.609 364.494 152.764C363.58 151.92 362.599 151.436 361.555 151.306C360.505 151.306 359.591 151.177 358.808 150.918C358.15 150.659 357.73 150.208 357.531 149.555C357.333 148.908 357.56 148.581 358.218 148.581C358.479 148.581 358.575 148.485 358.513 148.288C358.445 148.091 358.218 147.933 357.826 147.804C356.913 147.286 356.776 146.83 357.435 146.441L357.633 146.053C357.633 145.794 356.975 145.467 355.67 145.079C354.228 144.69 353.281 143.947 352.827 142.844C352.367 141.746 352.14 139.505 352.14 136.132C352.14 129.781 352.594 125.626 353.513 123.683C354.558 122.129 354.949 121.155 354.688 120.767C354.688 120.508 355.471 120.378 357.043 120.378H359.398L359.79 113.374L360.181 103.453V100.537H357.242L352.339 99.9512L351.749 99.5627C351.749 99.4332 352.662 99.3656 354.495 99.3656C357.111 99.1066 358.479 98.9152 358.615 98.7801C358.876 98.5211 358.093 98.3916 356.26 98.3916C354.949 98.3916 353.286 98.0031 351.26 97.2261C349.235 96.4491 347.566 95.6045 346.261 94.698C344.95 93.7915 344.627 93.144 345.279 92.7499C345.671 92.3614 345.994 91.7139 346.261 90.8018C346.522 90.1543 346.584 89.7038 346.46 89.4392C346.329 89.1802 346 88.9212 345.478 88.6622C344.82 88.5327 344.462 88.4032 344.4 88.2737C344.331 88.1442 344.564 87.8233 345.086 87.2997C345.608 86.6522 345.835 86.2637 345.773 86.1342C345.705 86.0047 345.41 85.8752 344.888 85.7457C344.366 85.4867 344.104 85.2952 344.104 85.1601C344.104 85.025 344.366 84.9011 344.888 84.7716C345.149 84.6421 345.41 84.4507 345.671 84.186C345.932 83.9214 346.062 83.6005 346.062 83.212C346.062 82.5645 346.386 82.2379 347.044 82.2379C347.702 82.2379 348.026 82.0409 348.026 81.6524C348.026 81.1344 347.697 80.6164 347.044 80.0984C346.652 79.4509 346.454 79.0624 346.454 78.9329C346.454 78.6739 346.777 78.2234 347.436 77.5703C348.741 76.5343 350.965 75.6898 354.104 75.0423L359.2 73.8768L359.398 70.9602C359.659 69.1472 359.398 66.0336 358.615 61.6194C357.832 56.9518 357.44 54.0296 357.44 52.8641C357.44 48.326 356.72 46.0569 355.284 46.0569C354.501 46.0569 354.041 45.7022 353.911 44.9872C353.78 44.2777 354.041 43.9174 354.694 43.9174C354.955 43.9174 354.989 43.8217 354.79 43.6246C354.592 43.4275 354.302 43.2699 353.905 43.1404C353.247 42.8814 352.855 42.6562 352.73 42.4591C352.6 42.262 352.793 42.1044 353.32 41.9749L353.911 41.5864C353.911 41.3274 353.252 41.0008 351.947 40.6123C350.636 40.2238 349.791 39.8016 349.399 39.3455C349.008 38.8951 348.616 37.8872 348.224 36.3276C347.963 35.4211 347.833 33.67 347.833 31.0744C347.833 25.5003 348.355 21.3451 349.399 18.6256L350.574 15.7091L387.437 15.9061C415.017 15.9061 430.77 15.7766 434.697 15.5176C441.365 15.2586 444.566 15.1967 444.305 15.3206C443.391 15.5796 442.08 15.8386 440.384 16.0976C439.209 16.2271 438.619 16.4241 438.619 16.6831L442.54 17.0716C445.156 17.3306 447.602 17.95 449.895 18.9184C452.182 19.8924 452.8 20.5737 451.756 20.9622C451.234 21.2212 450.973 21.6773 450.973 22.3248C450.973 22.7133 451.234 23.5578 451.756 24.8528C452.278 25.6298 452.539 26.3449 452.539 26.9924C452.539 27.6399 452.8 27.9664 453.322 27.9664H453.521C453.651 27.9664 453.719 28.034 453.719 28.1635C453.719 28.552 453.521 29.1376 453.129 29.9146C452.216 31.2152 451.625 31.8627 451.364 31.8627C450.973 31.8627 450.774 32.0598 450.774 32.4482C450.774 33.1014 451.296 33.6137 452.34 34.0022C452.993 34.1317 453.322 34.3288 453.322 34.5878C453.322 34.8468 452.664 35.6294 451.359 36.9244L449.004 39.4525V66.8838C449.004 79.2088 448.936 87.0181 448.805 90.3288C448.675 93.6339 448.283 95.8748 447.63 97.0403C446.847 98.8589 445.797 99.8949 444.492 100.154C443.181 100.413 433.642 100.542 415.863 100.542L389.197 100.345L388.606 107.35L388.016 117.856L388.033 117.85ZM389.208 51.3101C389.208 55.4653 389.339 59.8683 389.6 64.5416C389.861 69.2092 390.122 71.5458 390.383 71.5458L400.382 70.7688C407.05 70.2508 411.493 69.7947 413.718 69.4062L417.838 68.6292L418.229 56.7603V44.7C417.968 44.441 413.133 44.6381 403.719 45.2856C394.304 45.9387 389.531 46.3891 389.407 46.6481C389.276 46.7776 389.208 48.3373 389.208 51.3157V51.3101ZM419.994 45.8655C419.994 46.6425 420.056 47.3238 420.193 47.9093C420.323 48.4949 420.454 48.8496 420.584 48.9791C420.715 48.9791 420.783 48.2697 420.783 46.8396C420.783 45.4094 420.584 44.7 420.193 44.7C420.062 44.7 419.994 45.0885 419.994 45.8655ZM421.957 53.6467C421.957 53.7762 421.923 54.0352 421.861 54.4237C421.793 54.8122 421.764 55.3302 421.764 55.9777C421.764 56.8842 421.793 57.5655 421.861 58.0215C421.923 58.4776 422.026 58.4438 422.156 57.9258V54.0352L421.957 53.6467ZM421.957 62.7905C421.957 62.92 421.923 63.179 421.861 63.5675C421.793 63.956 421.764 64.474 421.764 65.1215C421.764 66.028 421.793 66.7093 421.861 67.1653C421.923 67.6214 422.026 67.5876 422.156 67.0696V63.179L421.957 62.7905ZM422.445 45.1842C422.377 45.3813 422.349 45.6684 422.349 46.0569C422.349 46.4454 422.377 46.772 422.445 47.031C422.508 47.29 422.61 47.29 422.741 47.031C423.002 46.3835 423.002 45.7979 422.741 45.2799C422.61 45.0209 422.514 44.9872 422.445 45.1842Z" fill="#EA003D"/>
<path d="M607.064 128.351C606.934 128.48 607.127 128.869 607.655 129.516C608.177 129.905 608.245 130.102 607.853 130.102C607.331 130.231 607.036 130.586 606.973 131.172C606.905 131.757 607.138 132.179 607.66 132.438L607.859 132.635C607.859 132.894 607.2 133.801 605.895 135.361C604.584 136.661 603.932 137.568 603.932 138.086C603.932 138.474 604.522 138.671 605.697 138.671C606.48 138.671 606.871 138.801 606.871 139.06C606.871 139.448 605.697 140.552 603.342 142.365C600.987 144.183 599.812 145.478 599.812 146.255C599.812 146.773 599.715 147.032 599.517 147.032C599.318 147.032 599.091 146.773 598.83 146.255C598.308 145.478 597.587 145.09 596.674 145.09C595.363 145.09 594.517 145.805 594.126 147.229C593.734 148.136 593.536 148.271 593.536 147.618C593.405 146.97 592.979 146.582 592.259 146.452C591.538 146.323 591.18 146.582 591.18 147.229C591.18 147.618 590.919 147.686 590.397 147.427C589.739 147.168 587.191 147.427 582.748 148.204C578.435 148.857 574.184 149.178 570.002 149.178C565.82 149.178 561.961 148.857 558.039 148.204C548.625 146.391 540.85 142.5 534.705 136.532C528.559 130.569 524.439 122.72 522.35 112.991C521.437 109.1 520.813 105.666 520.489 102.682C520.16 99.6976 519.734 93.6674 519.212 84.5856C518.69 76.1569 518.429 67.5311 518.429 58.7083C518.429 42.1098 519.536 29.9144 521.76 22.1332C522.282 20.5792 522.708 19.5713 523.037 19.1153C523.361 18.6648 523.786 18.5015 524.314 18.631C525.358 18.89 525.948 18.8281 526.079 18.434C526.47 17.916 526.794 17.916 527.061 18.434C527.452 19.211 527.844 19.0195 528.235 17.8484C528.496 16.6829 529.376 15.9003 530.88 15.5118C532.384 15.1233 534.767 15.0614 538.036 15.3147C540.124 15.5737 542.28 15.7032 544.505 15.7032C548.818 15.3147 556.859 15.1177 568.623 15.1177C575.683 15.1177 580.256 15.2472 582.35 15.5062C586.533 16.2832 590.028 17.2572 592.843 18.4227C595.652 19.5882 598.104 21.0803 600.198 22.8989C602.678 25.106 604.545 27.696 605.787 30.6801C607.03 33.6642 607.91 37.7801 608.432 43.0332C608.954 48.2864 609.346 55.91 609.607 65.8927V75.2335C609.607 83.0147 609.476 90.1484 609.215 96.6347C608.824 101.302 608.432 108.374 608.04 117.839C607.779 124.454 607.45 127.957 607.059 128.345L607.064 128.351ZM525.296 25.2411C525.426 25.1116 525.619 24.7231 525.886 24.0756C526.147 23.4282 526.277 22.8426 526.277 22.3246C526.277 21.9361 526.079 22.0656 525.687 22.7131C525.296 23.2311 525.097 23.9461 525.097 24.8526C525.097 25.1116 525.16 25.2411 525.296 25.2411ZM581.181 77.9642C581.181 57.7286 580.268 47.0984 578.435 46.0567C577.521 45.5387 576.732 45.4092 576.08 45.6682C575.558 45.9272 572.419 46.1862 566.665 46.4452C561.694 46.7042 557.642 46.9632 554.51 47.2222L550.781 47.6107L550.191 51.6984C549.8 54.812 549.601 63.3083 549.601 77.1872C549.601 95.8633 549.862 106.24 550.384 108.318C551.167 111.561 552.705 114.252 554.992 116.392C557.279 118.531 560.253 120.057 563.913 120.964C565.479 121.352 568.748 121.549 573.719 121.549L580.58 121.352L580.971 94.1122C581.102 90.0921 581.17 84.7095 581.17 77.9642H581.181ZM606.281 127.382C606.281 126.476 606.151 126.02 605.89 126.02C605.89 126.149 605.821 126.313 605.691 126.504C605.56 126.701 605.43 126.988 605.299 127.377C605.169 127.765 605.135 128.092 605.203 128.351C605.265 128.61 605.368 128.739 605.498 128.739C606.02 128.739 606.281 128.289 606.281 127.377V127.382Z" fill="#EA003D"/>
<path d="M725.107 19.5996L724.516 23.1017C724.255 26.2153 723.926 28.6139 723.535 30.303C722.876 33.2871 722.031 38.4727 720.987 45.8654C719.284 56.5012 717.361 66.0673 715.204 74.5636C713.048 83.0599 710.267 91.8489 706.868 100.925C704.774 106.505 702.617 111.431 700.398 115.711C698.174 119.99 695.495 124.466 692.357 129.133C690.133 132.377 688.697 134.646 688.044 135.941C687.386 137.241 687.063 138.469 687.063 139.634C687.063 141.064 686.966 141.903 686.767 142.162C686.569 142.421 685.95 142.551 684.906 142.551C683.862 142.551 683.204 142.646 682.943 142.843C682.682 143.041 682.551 143.592 682.551 144.499C682.551 145.799 682.352 146.25 681.961 145.861C681.303 145.214 680.815 144.983 680.491 145.18C680.162 145.377 680.066 145.861 680.196 146.638C680.457 147.545 680.258 147.742 679.606 147.224C678.948 146.576 678.164 146.379 677.251 146.638C676.859 146.768 676.496 146.802 676.173 146.734C675.843 146.672 675.616 146.509 675.486 146.25C675.486 146.12 675.355 146.053 675.094 146.053C674.833 146.053 674.374 146.379 673.721 147.027C672.938 148.192 672.087 148.581 671.173 148.192C670.515 147.933 669.862 147.995 669.21 148.389C668.426 148.907 667.445 149.262 666.27 149.459C665.095 149.656 664.636 149.493 664.897 148.975V148.389C664.897 147.742 664.698 147.156 664.307 146.638C664.045 145.991 663.75 145.636 663.427 145.569C663.098 145.507 662.61 145.602 661.957 145.861C661.174 146.12 660.714 146.188 660.584 146.058C660.453 145.929 660.453 145.608 660.584 145.084L660.782 144.499C660.782 143.981 660.584 143.722 660.192 143.722C659.801 143.722 659.279 143.981 658.626 144.499C658.104 145.017 658.104 144.825 658.626 143.913C659.148 142.877 659.279 142.033 659.018 141.385C658.887 141.256 658.819 140.997 658.819 140.608C658.819 139.961 659.018 139.375 659.409 138.857L659.801 137.883C659.801 137.495 659.602 137.298 659.211 137.298C658.949 137.298 658.297 137.557 657.247 138.075L656.265 138.463C656.004 138.463 655.874 138.266 655.874 137.877C655.874 138.007 656.135 136.78 656.657 134.184L657.048 131.847C657.048 131.2 656.85 130.485 656.458 129.708C656.067 128.931 655.545 128.024 654.892 126.983C652.667 123.222 649.302 116.673 644.791 107.333C640.279 97.9917 636.914 90.4751 634.69 84.7659C634.168 83.2119 633.515 81.5566 632.726 79.8055C631.943 78.0544 631.222 76.3991 630.57 74.8451L627.63 68.2294C624.1 60.7072 622.336 56.6251 622.336 55.972C622.336 55.454 621.944 54.5475 621.161 53.2469C620.769 52.3404 620.015 49.7785 618.908 45.5614C617.796 41.3498 616.717 36.9694 615.673 32.4313C615.282 31.5248 615.605 31.1982 616.655 31.4572C617.569 31.7162 618.028 31.5248 618.028 30.8716C618.028 30.2185 618.255 29.8976 618.715 29.8976C619.175 29.8976 619.532 30.1566 619.793 30.6746V30.8716C619.924 30.8716 620.02 30.6126 620.088 30.0947C620.151 29.5767 620.185 29.1206 620.185 28.7321C620.185 27.3076 620.315 26.3335 620.576 25.8155C620.837 25.2975 621.62 24.6501 622.931 23.8674C624.367 22.9609 626.949 21.9531 630.677 20.8495C634.4 19.7516 637.05 19.1323 638.617 19.0028C640.972 19.0028 642.441 19.1998 643.026 19.5883C643.616 19.9768 644.303 21.2774 645.086 23.4789L647.242 29.8976C647.764 31.9752 650.738 40.8881 656.163 56.6476C661.588 72.4071 665.084 82.2322 666.656 86.1228C668.092 90.0134 669.925 94.2306 672.149 98.7687L674.697 104.41L677.835 97.0176C680.315 91.055 682.54 83.8875 684.503 75.5208C686.467 67.154 687.704 59.598 688.232 52.8527C689.015 42.611 690.127 34.6947 691.563 29.115C692.607 24.4474 693.39 21.497 693.918 20.264C694.44 19.0309 695.024 18.4848 695.683 18.6086C696.074 18.7381 696.432 18.7719 696.761 18.7043C697.084 18.6424 697.379 18.4791 697.64 18.2201C698.293 17.9611 698.622 18.0906 698.622 18.6086C698.622 18.7381 698.685 18.8057 698.821 18.8057C698.957 18.8057 699.343 18.3553 699.996 17.4431C700.518 16.5366 701.074 15.9173 701.664 15.5964C702.254 15.2754 703.332 14.9826 704.899 14.718H706.663C708.491 14.718 709.671 14.7856 710.193 14.9151C710.585 15.0446 712.281 15.4331 715.289 16.0806C717.253 16.2101 719.471 16.8576 721.957 18.0287L725.095 19.5827L725.107 19.5996ZM621.376 39.0526C621.376 38.0166 621.308 37.1045 621.178 36.3275C620.917 34.5145 620.656 33.6024 620.395 33.6024L620.196 34.3794C620.196 34.7679 620.327 35.6125 620.588 36.9074C620.849 38.9851 621.11 39.8916 621.371 39.6326V39.047L621.376 39.0526ZM697.266 22.9046C697.135 23.1636 696.744 24.3347 696.091 26.4067V27.7693C696.483 27.7693 696.942 26.4743 697.465 23.8787C697.595 22.5837 697.527 22.2571 697.266 22.9046Z" fill="#EA003D"/>
<path d="M771.186 117.85L770.987 121.352L778.439 121.938L806.086 123.103C822.294 123.621 830.403 124.404 830.403 125.44C830.011 125.57 829.62 125.637 829.228 125.637L826.68 125.44C824.717 125.44 824.064 125.508 824.717 125.637C827.855 126.29 830.664 127.36 833.15 128.846C835.629 130.338 836.418 131.538 835.505 132.444C834.983 132.962 834.721 133.61 834.721 134.392C834.721 135.434 835.113 136.143 835.896 136.532C836.157 136.661 836.35 136.825 836.486 137.016C836.617 137.213 836.549 137.309 836.288 137.309C835.629 137.309 835.306 137.635 835.306 138.283C835.306 139.06 835.629 139.448 836.288 139.448C836.549 139.448 836.611 139.544 836.486 139.741C836.356 139.938 836.157 140.102 835.896 140.225C835.113 140.614 834.721 141.2 834.721 141.977C834.721 142.63 834.33 142.951 833.547 142.951C832.888 142.951 832.565 143.08 832.565 143.339C832.565 143.598 832.888 144.184 833.547 145.09C834.069 145.608 834.33 145.997 834.33 146.256C834.33 147.297 833.314 148.136 831.288 148.784C829.262 149.437 825.534 149.949 820.109 150.338C814.684 150.726 806.608 151.115 795.894 151.503C786.349 151.762 778.739 152.021 773.047 152.28C767.361 152.539 763.832 152.832 762.458 153.158C761.085 153.479 759.939 154.161 759.025 155.202C758.367 155.979 757.879 156.469 757.555 156.661C757.226 156.858 757.067 156.689 757.067 156.176C756.937 155.523 756.477 154.943 755.694 154.425C754.911 153.907 754.252 153.84 753.73 154.228C753.208 154.487 752.817 154.938 752.556 155.591C752.425 155.979 752.295 156.176 752.164 156.176C752.034 156.176 751.965 155.979 751.965 155.591C751.965 154.684 751.636 154.228 750.984 154.228C750.331 154.228 749.871 154.679 749.61 155.591C749.61 155.979 749.542 156.143 749.412 156.075C749.281 156.007 749.213 155.782 749.213 155.394C749.083 154.487 748.555 153.609 747.647 152.764C746.733 151.92 745.752 151.436 744.707 151.306C743.658 151.306 742.744 151.177 741.961 150.918C741.302 150.659 740.883 150.208 740.684 149.555C740.485 148.908 740.712 148.581 741.371 148.581C741.632 148.581 741.728 148.485 741.666 148.288C741.598 148.091 741.371 147.933 740.979 147.804C740.065 147.286 739.929 146.83 740.587 146.441L740.786 146.053C740.786 145.794 740.128 145.467 738.823 145.079C737.381 144.69 736.434 143.947 735.98 142.844C735.52 141.746 735.293 139.505 735.293 136.132C735.293 129.781 735.747 125.626 736.666 123.683C737.71 122.129 738.102 121.155 737.841 120.767C737.841 120.508 738.624 120.378 740.196 120.378H742.551L742.942 113.374L743.334 103.453V100.537H740.394L735.492 99.9512L734.901 99.5627C734.901 99.4332 735.815 99.3656 737.648 99.3656C740.264 99.1066 741.632 98.9152 741.768 98.7801C742.029 98.5211 741.246 98.3916 739.413 98.3916C738.102 98.3916 736.439 98.0031 734.413 97.2261C732.387 96.4491 730.719 95.6045 729.414 94.698C728.103 93.7915 727.779 93.144 728.432 92.7499C728.824 92.3614 729.147 91.7139 729.414 90.8018C729.675 90.1543 729.737 89.7038 729.612 89.4392C729.482 89.1802 729.153 88.9212 728.631 88.6622C727.972 88.5327 727.615 88.4032 727.552 88.2737C727.484 88.1442 727.717 87.8233 728.239 87.2997C728.761 86.6522 728.988 86.2637 728.926 86.1342C728.858 86.0047 728.563 85.8752 728.04 85.7457C727.518 85.4867 727.257 85.2952 727.257 85.1601C727.257 85.025 727.518 84.9011 728.04 84.7716C728.301 84.6421 728.563 84.4507 728.824 84.186C729.085 83.9214 729.215 83.6005 729.215 83.212C729.215 82.5645 729.539 82.2379 730.197 82.2379C730.855 82.2379 731.179 82.0409 731.179 81.6524C731.179 81.1344 730.849 80.6164 730.197 80.0984C729.805 79.4509 729.607 79.0624 729.607 78.9329C729.607 78.6739 729.93 78.2234 730.588 77.5703C731.894 76.5343 734.118 75.6898 737.256 75.0423L742.352 73.8768L742.551 70.9602C742.812 69.1472 742.551 66.0336 741.768 61.6194C740.985 56.9518 740.593 54.0296 740.593 52.8641C740.593 48.326 739.872 46.0569 738.437 46.0569C737.654 46.0569 737.194 45.7022 737.063 44.9872C736.933 44.2777 737.194 43.9174 737.846 43.9174C738.108 43.9174 738.142 43.8217 737.943 43.6246C737.744 43.4275 737.455 43.2699 737.058 43.1404C736.399 42.8814 736.008 42.6562 735.883 42.4591C735.753 42.262 735.945 42.1044 736.473 41.9749L737.063 41.5864C737.063 41.3274 736.405 41.0008 735.1 40.6123C733.789 40.2238 732.943 39.8016 732.552 39.3455C732.16 38.8951 731.769 37.8872 731.377 36.3276C731.116 35.4211 730.986 33.67 730.986 31.0744C730.986 25.5003 731.508 21.3451 732.552 18.6256L733.727 15.7091L770.59 15.9061C798.17 15.9061 813.923 15.7766 817.85 15.5176C824.518 15.2586 827.719 15.1967 827.458 15.3206C826.544 15.5796 825.233 15.8386 823.536 16.0976C822.362 16.2271 821.772 16.4241 821.772 16.6831L825.693 17.0716C828.309 17.3306 830.755 17.95 833.047 18.9184C835.334 19.8924 835.953 20.5737 834.909 20.9622C834.387 21.2212 834.126 21.6773 834.126 22.3248C834.126 22.7133 834.387 23.5578 834.909 24.8528C835.431 25.6298 835.692 26.3449 835.692 26.9924C835.692 27.6399 835.953 27.9664 836.475 27.9664H836.674C836.804 27.9664 836.872 28.034 836.872 28.1635C836.872 28.552 836.674 29.1376 836.282 29.9146C835.368 31.2152 834.778 31.8627 834.517 31.8627C834.126 31.8627 833.927 32.0598 833.927 32.4482C833.927 33.1014 834.449 33.6137 835.493 34.0022C836.146 34.1317 836.475 34.3288 836.475 34.5878C836.475 34.8468 835.817 35.6294 834.512 36.9244L832.156 39.4525V66.8838C832.156 79.2088 832.088 87.0181 831.958 90.3288C831.827 93.6339 831.436 95.8748 830.783 97.0403C830 98.8589 828.95 99.8949 827.645 100.154C826.334 100.413 816.795 100.542 799.015 100.542L772.349 100.345L771.759 107.35L771.169 117.856L771.186 117.85ZM772.367 51.3101C772.367 55.4653 772.497 59.8683 772.758 64.5416C773.019 69.2092 773.28 71.5458 773.541 71.5458L783.54 70.7688C790.208 70.2508 794.652 69.7947 796.876 69.4062L800.996 68.6292L801.388 56.7603V44.7C801.127 44.441 796.292 44.6381 786.877 45.2856C777.462 45.9387 772.69 46.3891 772.565 46.6481C772.435 46.7776 772.367 48.3373 772.367 51.3157V51.3101ZM803.152 45.8655C803.152 46.6425 803.215 47.3238 803.351 47.9093C803.482 48.4949 803.612 48.8496 803.743 48.9791C803.873 48.9791 803.941 48.2697 803.941 46.8396C803.941 45.4094 803.743 44.7 803.351 44.7C803.221 44.7 803.152 45.0885 803.152 45.8655ZM805.11 53.6467C805.11 53.7762 805.076 54.0352 805.014 54.4237C804.946 54.8122 804.917 55.3302 804.917 55.9777C804.917 56.8842 804.946 57.5655 805.014 58.0215C805.076 58.4776 805.178 58.4438 805.309 57.9258V54.0352L805.116 53.6467H805.11ZM805.11 62.7905C805.11 62.92 805.076 63.179 805.014 63.5675C804.946 63.956 804.917 64.474 804.917 65.1215C804.917 66.028 804.946 66.7093 805.014 67.1653C805.076 67.6214 805.178 67.5876 805.309 67.0696V63.179L805.116 62.7905H805.11ZM805.604 45.1842C805.536 45.3813 805.507 45.6684 805.507 46.0569C805.507 46.4454 805.536 46.772 805.604 47.031C805.666 47.29 805.769 47.29 805.899 47.031C806.16 46.3835 806.16 45.7979 805.899 45.2799C805.769 45.0209 805.666 44.9872 805.604 45.1842Z" fill="#EA003D"/>
<path d="M938.65 34.7735C938.65 44.6323 937.6 53.5171 935.512 61.4278C934.854 63.6349 933.878 66.422 932.573 69.7946C931.262 73.1672 930.025 75.8923 928.844 77.9643C927.931 79.7829 926.029 82.3391 923.158 85.6498C920.281 88.9548 918.187 90.9367 916.882 91.5842C916.36 91.8432 916.064 91.9108 916.002 91.7813C915.934 91.6518 916.099 91.3928 916.49 91.0043C917.665 89.5798 918.255 88.7353 918.255 88.4763C918.255 88.2173 917.733 88.4763 916.689 89.2533C914.986 90.2949 913.221 90.9424 911.394 91.2014C910.872 91.3309 910.282 91.3984 909.629 91.3984C909.107 91.3984 908.716 91.3027 908.455 91.1057C908.193 90.9086 907.932 90.4919 907.671 89.8388C907.149 88.8028 906.429 88.1553 905.515 87.8907C904.601 87.8907 903.881 87.5022 903.359 86.7252C903.228 86.4662 903.063 86.2748 902.87 86.1396C902.672 86.0101 902.507 86.0101 902.382 86.1396H902.19C901.798 86.1396 901.435 85.6892 901.111 84.7771C900.782 83.8706 900.686 83.0936 900.816 82.4405C900.816 81.793 900.357 81.4664 899.443 81.4664C897.877 81.4664 897.088 80.6894 897.088 79.1298C897.088 77.7053 897.678 75.9542 898.853 73.8766L903.364 65.3184C904.408 63.1169 905.39 60.4537 906.304 57.3401C907.217 54.2265 907.478 52.4755 907.087 52.087C906.826 51.828 903.688 53.0948 897.672 55.8819C891.657 58.6745 887.736 60.6508 885.908 61.8163C883.814 62.9818 882.77 64.0234 882.77 64.9299L881.789 87.1081C880.614 111.105 878.452 128.874 875.319 140.417C874.536 143.271 874.008 144.696 873.753 144.696C873.622 144.437 873.56 144.245 873.56 144.11C873.56 143.333 873.753 142.1 874.15 140.411C874.672 137.562 874.933 135.873 874.933 135.355V134.967C874.672 134.967 874.343 135.941 873.952 137.883C873.038 142.292 870.876 146.706 867.482 151.115C866.699 152.021 866.109 152.607 865.717 152.866C865.326 153.125 865.127 152.927 865.127 152.28C865.127 151.238 864.668 150.529 863.754 150.14L862.772 149.752C862.25 149.752 861.79 150.079 861.399 150.726C860.741 152.021 860.287 152.151 860.026 151.115C859.765 150.467 859.367 150.14 858.851 150.14C858.459 150.14 858.13 150.529 857.869 151.306C857.869 151.694 857.801 151.858 857.67 151.79C857.54 151.723 857.472 151.43 857.472 150.912C857.472 150.523 857.341 150.135 857.08 149.746C856.819 149.358 856.558 149.099 856.297 148.969C855.514 148.451 855.123 147.674 855.123 146.633V144.882L853.358 146.436C852.575 147.213 852.081 147.635 851.888 147.702C851.689 147.77 851.462 147.477 851.201 146.824C850.94 145.788 850.611 144.876 850.219 144.099C850.089 143.84 850.021 143.125 850.021 141.959C850.021 138.587 850.673 127.822 851.984 109.663C852.637 98.3801 852.966 88.5889 852.966 80.284L852.767 69.1921L850.611 69.3892H849.828C849.17 69.3892 848.619 69.1921 848.159 68.8036C847.7 68.4151 847.013 67.5086 846.1 66.0785C844.533 63.4829 843.744 61.9289 843.744 61.4109C843.744 60.6339 843.546 60.1779 843.154 60.0484C842.763 59.6599 842.275 58.2016 841.684 55.6735C841.094 53.1455 840.805 51.1692 840.805 49.7391V48.765C840.805 47.988 841.032 47.4025 841.492 47.014C841.946 46.6255 843.16 45.978 845.118 45.0658L849.629 42.9263V31.0574C849.499 26.0013 849.499 22.7582 849.629 21.3281C849.76 19.9036 850.083 19.1885 850.611 19.1885C851.139 19.1885 851.525 19.5151 851.786 20.1626C851.786 20.4216 851.882 20.4216 852.081 20.1626C852.274 19.9036 852.438 19.577 852.569 19.1885C852.83 18.4115 853.023 18.023 853.159 18.023C853.295 18.023 853.482 18.3496 853.749 18.9971C853.749 19.1266 853.812 19.3236 853.948 19.5826C854.078 19.5826 854.402 18.8732 854.93 17.4431C855.191 16.2776 855.548 15.4668 856.008 15.0107C856.467 14.5547 857.285 14.1324 858.459 13.7439C861.467 12.8374 865.519 12.3813 870.615 12.3813C873.361 12.3813 875.45 12.5784 876.891 12.9669L880.029 13.7439L880.421 18.4115L880.812 26.7783C880.812 29.3739 881.136 30.6689 881.794 30.6689C883.099 30.6689 889.637 28.1409 901.401 23.0791C905.322 21.5251 908.165 20.3258 909.93 19.4813C911.695 18.6367 912.904 17.8935 913.556 17.246C914.078 16.728 914.799 16.469 915.713 16.469C916.496 16.469 917.148 16.21 917.676 15.692C918.459 14.915 921.268 14.5265 926.109 14.5265C930.03 14.5265 932.777 14.8531 934.343 15.5006C935.648 16.1537 936.431 16.7336 936.698 17.2516C936.959 17.7696 937.351 19.4588 937.873 22.3078C938.395 25.8099 938.656 29.9595 938.656 34.7566L938.65 34.7735ZM853.545 24.8527L853.346 24.4642V26.4123C853.346 27.9663 853.409 28.4899 853.545 27.9663C853.806 26.8008 853.806 25.7648 853.545 24.8527Z" fill="#EA003D"/>
</g>
<defs>
<filter id="filter0_d_35_1611" x="0" y="0" width="962" height="180" filterUnits="userSpaceOnUse" color-interpolation-filters="sRGB">
<feFlood flood-opacity="0" result="BackgroundImageFix"/>
<feColorMatrix in="SourceAlpha" type="matrix" values="0 0 0 0 0 0 0 0 0 0 0 0 0 0 0 0 0 0 127 0" result="hardAlpha"/>
<feOffset dx="8" dy="8"/>
<feGaussianBlur stdDeviation="2"/>
<feComposite in2="hardAlpha" operator="out"/>
<feColorMatrix type="matrix" values="0 0 0 0 0 0 0 0 0 0 0 0 0 0 0 0 0 0 0.4 0"/>
<feBlend mode="normal" in2="BackgroundImageFix" result="effect1_dropShadow_35_1611"/>
<feBlend mode="normal" in="SourceGraphic" in2="effect1_dropShadow_35_1611" result="shape"/>
</filter>
<clipPath id="clip0_35_1611">
<rect width="950" height="168" fill="white"/>
</clipPath>
</defs>
</svg>
