<svg width="218" height="80" viewBox="0 0 218 80" fill="none" xmlns="http://www.w3.org/2000/svg">
<path fill-rule="evenodd" clip-rule="evenodd" d="M12.1032 18.3899H205.895C212.488 18.3899 217.999 22.5292 217.999 27.6781V70.6212C217.999 75.7702 212.488 80 205.895 80H12.1032C5.51105 80 -0.000244141 75.7702 -0.000244141 70.6212V27.6781C-0.000244141 22.5292 5.51105 18.3899 12.1032 18.3899Z" fill="#1C1C1C"/>
<path fill-rule="evenodd" clip-rule="evenodd" d="M11.6245 17.8384H206.375C212.847 17.8384 218 21.7921 218 26.6657V67.7696C218 72.7348 212.847 76.6884 206.375 76.6884H11.6245C5.27259 76.6893 -0.000244141 72.7357 -0.000244141 67.7705V26.6667C-0.000244141 21.793 5.27259 17.8384 11.6245 17.8384Z" fill="#353535"/>
<path fill-rule="evenodd" clip-rule="evenodd" d="M12.1032 13.241H205.895C212.488 13.241 217.999 17.4708 217.999 22.5292V65.5637C217.999 70.7145 212.488 74.8511 205.895 74.8511H12.1032C5.51105 74.8511 -0.000244141 70.7136 -0.000244141 65.5637V22.5292C-0.000244141 17.4708 5.51105 13.241 12.1032 13.241Z" fill="#1C1C1C"/>
<path fill-rule="evenodd" clip-rule="evenodd" d="M19.0545 7.44812H197.387C203.619 7.44812 208.653 11.3103 208.653 16.0002V55.724C208.653 60.4138 203.619 64.276 197.387 64.276H19.0545C12.9439 64.276 7.9104 60.4138 7.9104 55.724V16.0002C7.9104 11.3103 12.9439 7.44812 19.0545 7.44812Z" fill="#C1C1C1"/>
<path fill-rule="evenodd" clip-rule="evenodd" d="M19.0545 1.65442H197.387C203.619 1.65442 208.653 5.51752 208.653 10.2074V49.9321C208.653 54.6201 203.619 58.4832 197.387 58.4832H19.0545C12.9439 58.4832 7.9104 54.6201 7.9104 49.9321V10.2074C7.9104 5.51752 12.9439 1.65442 19.0545 1.65442Z" fill="white"/>
<path fill-rule="evenodd" clip-rule="evenodd" d="M19.0545 0H197.387C203.619 0 208.653 3.86218 208.653 8.55111V48.2768C208.653 52.9648 203.619 56.8288 197.387 56.8288H19.0545C12.9439 56.8288 7.9104 52.9648 7.9104 48.2768V8.55111C7.9104 3.86218 12.9439 0 19.0545 0Z" fill="#F2F2F2"/>
<mask id="mask0_30_1080" style="mask-type:alpha" maskUnits="userSpaceOnUse" x="68" y="18" width="25" height="24">
<rect x="68.7793" y="18" width="24" height="24" fill="#D9D9D9"/>
</mask>
<g mask="url(#mask0_30_1080)">
<path d="M74.7793 33C74.2293 33 73.7585 32.8042 73.3668 32.4125C72.9751 32.0208 72.7793 31.55 72.7793 31V28C72.7793 27.7167 72.8751 27.4792 73.0668 27.2875C73.2585 27.0958 73.496 27 73.7793 27C74.0626 27 74.3001 27.0958 74.4918 27.2875C74.6835 27.4792 74.7793 27.7167 74.7793 28V31H86.7793V28C86.7793 27.7167 86.8751 27.4792 87.0668 27.2875C87.2585 27.0958 87.496 27 87.7793 27C88.0626 27 88.3001 27.0958 88.4918 27.2875C88.6835 27.4792 88.7793 27.7167 88.7793 28V31C88.7793 31.55 88.5835 32.0208 88.1918 32.4125C87.8001 32.8042 87.3293 33 86.7793 33H74.7793Z" fill="#1C1B1F"/>
</g>
<path d="M112.935 24.12C112.961 24.12 112.981 24.2133 112.995 24.4C113.008 24.5867 113.015 24.8067 113.015 25.06C113.015 25.9667 112.968 26.9133 112.875 27.9C112.728 29.34 112.448 30.7067 112.035 32C111.635 33.28 111.141 34.38 110.555 35.3C110.301 35.6867 109.955 36.0933 109.515 36.52C109.088 36.9467 108.715 37.2533 108.395 37.44C107.568 37.92 106.808 38.1667 106.115 38.18L105.475 38.2L105.975 38.14C106.308 38.1133 106.561 38.0533 106.735 37.96C106.801 37.9333 106.848 37.9133 106.875 37.9C106.901 37.8733 106.901 37.8667 106.875 37.88C106.475 37.9867 106.148 38.04 105.895 38.04C105.788 38.04 105.575 38.0133 105.255 37.96C104.881 37.88 104.621 37.8067 104.475 37.74C104.368 37.7 104.315 37.6733 104.315 37.66C104.301 37.6467 104.328 37.6267 104.395 37.6C104.448 37.5867 104.495 37.5533 104.535 37.5C104.561 37.4467 104.575 37.3933 104.575 37.34C104.575 37.26 104.541 37.2067 104.475 37.18C104.408 37.1533 104.375 37.0933 104.375 37C104.375 36.8933 104.421 36.78 104.515 36.66C104.595 36.5267 104.675 36.46 104.755 36.46C104.808 36.46 104.835 36.44 104.835 36.4C104.835 36.3733 104.821 36.3467 104.795 36.32C104.755 36.2933 104.708 36.2733 104.655 36.26C104.601 36.2467 104.568 36.2333 104.555 36.22C104.528 36.1933 104.528 36.1667 104.555 36.14C104.595 36.0733 104.701 36 104.875 35.92C105.035 35.84 105.181 35.7933 105.315 35.78C105.488 35.7533 105.808 35.6267 106.275 35.4C107.021 35.04 107.621 34.4867 108.075 33.74C108.608 32.94 109.035 31.86 109.355 30.5C109.421 30.18 109.488 29.7533 109.555 29.22C109.621 28.6733 109.655 28.2467 109.655 27.94V27.3L108.355 27.34C108.021 27.3533 107.735 27.36 107.495 27.36C107.255 27.3467 107.148 27.3267 107.175 27.3C107.241 27.26 107.255 27.24 107.215 27.24C107.215 27.24 107.208 27.24 107.195 27.24C107.195 27.24 107.195 27.2333 107.195 27.22L107.355 27.16C107.461 27.1333 107.515 27.12 107.515 27.12L107.295 27.1C107.028 27.06 106.868 27.0333 106.815 27.02C106.801 27.0067 106.781 27 106.755 27C106.741 27 106.735 26.9933 106.735 26.98C106.735 26.98 106.848 26.9667 107.075 26.94C107.315 26.94 107.435 26.9333 107.435 26.92C107.435 26.8933 107.115 26.86 106.475 26.82C106.181 26.7933 105.948 26.7667 105.775 26.74C105.601 26.7133 105.488 26.6733 105.435 26.62C105.395 26.5933 105.361 26.56 105.335 26.52C105.321 26.48 105.321 26.4533 105.335 26.44C105.335 26.3867 105.281 26.3267 105.175 26.26C105.081 26.2067 105.021 26.14 104.995 26.06C104.981 25.98 105.008 25.94 105.075 25.94C105.128 25.94 105.141 25.8667 105.115 25.72V25.66C105.115 25.5533 105.148 25.4467 105.215 25.34C105.375 25.14 105.395 25.0133 105.275 24.96C105.261 24.96 105.255 24.96 105.255 24.96C105.255 24.9467 105.255 24.94 105.255 24.94C105.255 24.9133 105.321 24.8667 105.455 24.8C105.521 24.7733 105.575 24.74 105.615 24.7C105.668 24.66 105.688 24.6333 105.675 24.62C105.648 24.58 105.715 24.5467 105.875 24.52C106.021 24.4667 106.095 24.4133 106.095 24.36C106.095 24.32 106.128 24.2933 106.195 24.28C106.275 24.2667 106.375 24.26 106.495 24.26C106.908 24.26 107.575 24.2333 108.495 24.18C109.428 24.1267 110.241 24.0733 110.935 24.02C111.641 23.9667 111.828 23.94 111.495 23.94C112.135 23.94 112.535 23.98 112.695 24.06C112.841 24.1133 112.921 24.1333 112.935 24.12ZM105.995 26.9C106.021 26.9267 105.988 26.94 105.895 26.94C105.868 26.94 105.848 26.9333 105.835 26.92C105.821 26.9067 105.828 26.9 105.855 26.9C105.921 26.8733 105.968 26.8733 105.995 26.9ZM108.855 26.92C109.001 26.92 109.121 26.92 109.215 26.92C109.308 26.92 109.361 26.92 109.375 26.92C109.388 26.9067 109.361 26.9 109.295 26.9C109.215 26.8867 109.068 26.88 108.855 26.88C108.628 26.88 108.475 26.8867 108.395 26.9H108.295C108.321 26.9 108.381 26.9067 108.475 26.92C108.568 26.92 108.695 26.92 108.855 26.92ZM123.505 33.04C123.545 34.08 123.565 35.0733 123.565 36.02C123.565 36.5 123.559 36.78 123.545 36.86L123.485 37.18L123.465 36.74C123.439 36.34 123.405 36.14 123.365 36.14C123.352 36.14 123.345 36.26 123.345 36.5C123.345 36.7533 123.305 37.02 123.225 37.3C123.145 37.58 123.052 37.7867 122.945 37.92C122.865 38.04 122.812 38.06 122.785 37.98C122.772 37.9133 122.712 37.88 122.605 37.88C122.499 37.88 122.425 37.9267 122.385 38.02C122.372 38.0733 122.359 38.1 122.345 38.1C122.332 38.1133 122.299 38.0933 122.245 38.04C122.192 37.9867 122.152 37.9667 122.125 37.98C122.112 37.98 122.092 38.02 122.065 38.1C122.052 38.2067 122.032 38.2267 122.005 38.16C122.005 38.0667 121.939 37.9733 121.805 37.88C121.685 37.7867 121.585 37.76 121.505 37.8C121.425 37.8133 121.299 37.8333 121.125 37.86C120.952 37.8867 120.752 37.9133 120.525 37.94C120.179 37.9667 119.919 37.98 119.745 37.98C118.412 37.98 117.292 37.64 116.385 36.96C116.025 36.7067 115.719 36.4133 115.465 36.08C115.225 35.7467 114.999 35.3133 114.785 34.78C114.532 34.14 114.332 33.4467 114.185 32.7C114.052 31.9533 113.899 30.78 113.725 29.18C113.645 28.46 113.605 27.74 113.605 27.02C113.605 26.1133 113.665 25.3733 113.785 24.8C113.839 24.52 113.879 24.3533 113.905 24.3C113.932 24.2467 113.972 24.2533 114.025 24.32C114.065 24.36 114.099 24.3867 114.125 24.4C114.152 24.4 114.165 24.3733 114.165 24.32C114.165 24.2533 114.185 24.22 114.225 24.22C114.279 24.2067 114.312 24.2333 114.325 24.3L114.345 24.32C114.372 24.32 114.405 24.2667 114.445 24.16C114.472 24.0933 114.505 24.0333 114.545 23.98C114.599 23.9267 114.645 23.8933 114.685 23.88C114.792 23.8533 114.965 23.84 115.205 23.84C115.605 23.84 115.872 23.86 116.005 23.9C116.152 23.9533 116.259 23.9667 116.325 23.94H116.345C116.412 23.94 116.512 23.9733 116.645 24.04C116.805 24.12 116.905 24.16 116.945 24.16C116.985 24.16 117.005 24.2533 117.005 24.44C117.005 24.6933 116.979 25.1133 116.925 25.7C116.872 26.4467 116.845 27.1333 116.845 27.76C116.845 28.6533 116.879 29.5533 116.945 30.46C117.012 31.3667 117.092 32.0667 117.185 32.56C117.265 32.9733 117.372 33.3533 117.505 33.7C117.639 34.0333 117.772 34.28 117.905 34.44C118.065 34.6133 118.285 34.7733 118.565 34.92C118.779 35.0133 119.079 35.0933 119.465 35.16C119.852 35.2267 120.172 35.26 120.425 35.26C120.612 35.26 120.712 35.24 120.725 35.2C120.752 35.1733 120.739 34.9467 120.685 34.52L120.565 32.64C120.432 30.2667 120.319 28.78 120.225 28.18C120.159 27.7667 120.125 27.1533 120.125 26.34C120.125 25.8467 120.139 25.4333 120.165 25.1C120.205 24.7533 120.252 24.58 120.305 24.58C120.372 24.58 120.405 24.6067 120.405 24.66C120.419 24.7 120.445 24.6733 120.485 24.58C120.525 24.4867 120.552 24.44 120.565 24.44C120.579 24.44 120.599 24.4733 120.625 24.54L120.665 24.62C120.692 24.62 120.712 24.5667 120.725 24.46C120.752 24.3267 120.792 24.2333 120.845 24.18C120.912 24.1133 121.019 24.06 121.165 24.02C121.245 23.9933 121.465 23.98 121.825 23.98C122.319 23.98 122.712 24.0067 123.005 24.06C123.165 24.1133 123.259 24.16 123.285 24.2C123.312 24.2267 123.325 24.3133 123.325 24.46L123.345 25.78C123.372 26.6733 123.399 27.92 123.425 29.52C123.452 31.1867 123.479 32.36 123.505 33.04ZM114.265 24.72C114.279 24.56 114.272 24.52 114.245 24.6C114.232 24.6133 114.192 24.7467 114.125 25C114.112 25.16 114.119 25.2 114.145 25.12C114.159 25.1067 114.199 24.9733 114.265 24.72ZM120.545 25.44C120.599 25.36 120.625 25.2667 120.625 25.16C120.625 25.0667 120.619 25.02 120.605 25.02C120.592 25.02 120.565 25.1133 120.525 25.3C120.512 25.3667 120.505 25.42 120.505 25.46C120.505 25.4867 120.519 25.48 120.545 25.44ZM120.585 35.48C120.639 35.48 120.679 35.4733 120.705 35.46C120.732 35.4467 120.752 35.4333 120.765 35.42C120.765 35.3933 120.732 35.38 120.665 35.38C120.599 35.38 120.539 35.3867 120.485 35.4C120.445 35.4133 120.419 35.4267 120.405 35.44C120.405 35.4667 120.465 35.48 120.585 35.48ZM137.972 28.7C137.972 30.2467 137.872 31.9133 137.672 33.7C137.472 35.4867 137.252 36.64 137.012 37.16C136.985 37.2267 136.959 37.2733 136.932 37.3C136.919 37.3133 136.925 37.2933 136.952 37.24C136.992 37.04 137.012 36.8533 137.012 36.68L137.052 36.32L136.972 36.64C136.932 36.84 136.852 37.0533 136.732 37.28C136.625 37.5067 136.505 37.7 136.372 37.86C136.265 37.9667 136.199 38.0267 136.172 38.04C136.145 38.0533 136.112 38.0333 136.072 37.98C136.045 37.94 135.979 37.9067 135.872 37.88C135.779 37.8533 135.685 37.84 135.592 37.84C135.539 37.84 135.485 37.8467 135.432 37.86C135.392 37.8733 135.372 37.8933 135.372 37.92C135.372 37.9333 135.365 37.94 135.352 37.94C135.325 37.94 135.272 37.88 135.192 37.76C135.125 37.64 135.092 37.5533 135.092 37.5C135.092 37.42 135.065 37.38 135.012 37.38C134.959 37.38 134.905 37.4267 134.852 37.52C134.812 37.5867 134.779 37.62 134.752 37.62C134.725 37.62 134.685 37.5533 134.632 37.42C134.579 37.3267 134.552 37.14 134.552 36.86C134.552 36.4467 134.599 35.7467 134.692 34.76C134.852 32.88 134.932 31.5733 134.932 30.84L134.912 30.08C134.885 29.2133 134.865 28.7733 134.852 28.76H134.832C134.779 28.76 134.599 28.8067 134.292 28.9C133.892 29.02 133.619 29.0933 133.472 29.12C133.339 29.1333 133.272 29.1133 133.272 29.06C133.272 28.9933 133.305 28.9467 133.372 28.92C133.399 28.9067 133.392 28.9 133.352 28.9C133.325 28.8867 133.285 28.8867 133.232 28.9H133.132C133.039 28.9 132.939 28.8867 132.832 28.86C132.739 28.8333 132.692 28.82 132.692 28.82L132.872 28.8C133.152 28.7733 133.292 28.7467 133.292 28.72C133.292 28.7067 133.199 28.7 133.012 28.7H132.552L132.512 31.36C132.485 33.16 132.452 34.1867 132.412 34.44C132.345 34.84 132.305 35.1133 132.292 35.26C132.239 35.58 132.172 35.8133 132.092 35.96C132.079 36.0133 132.059 36.0533 132.032 36.08C132.019 36.1067 132.005 36.12 131.992 36.12C131.992 36.12 131.999 36.1133 132.012 36.1C132.025 36.06 132.045 35.88 132.072 35.56L132.112 35.16L132.012 35.56C131.919 35.9733 131.732 36.34 131.452 36.66C131.385 36.7533 131.332 36.8067 131.292 36.82C131.265 36.8333 131.225 36.8133 131.172 36.76C131.105 36.6933 131.025 36.66 130.932 36.66C130.852 36.66 130.785 36.6933 130.732 36.76C130.719 36.8133 130.705 36.84 130.692 36.84C130.679 36.84 130.659 36.8133 130.632 36.76C130.605 36.6933 130.565 36.66 130.512 36.66C130.472 36.66 130.439 36.7 130.412 36.78C130.412 36.82 130.405 36.84 130.392 36.84C130.379 36.8267 130.372 36.7933 130.372 36.74C130.372 36.66 130.339 36.5867 130.272 36.52C130.205 36.4933 130.159 36.4267 130.132 36.32C130.119 36.2533 130.099 36.2267 130.072 36.24C130.059 36.24 130.032 36.26 129.992 36.3C129.912 36.38 129.845 36.42 129.792 36.42C129.659 36.42 129.592 36.0133 129.592 35.2C129.592 34.72 129.599 34.3267 129.612 34.02V33.12C129.612 32.2 129.592 31.32 129.552 30.48C129.525 29.64 129.485 29.2 129.432 29.16C129.419 29.12 129.165 29.1733 128.672 29.32C128.192 29.4667 127.925 29.5133 127.872 29.46C127.819 29.4067 127.852 29.36 127.972 29.32C128.025 29.3067 128.052 29.2867 128.052 29.26L127.852 29.28C127.745 29.3067 127.612 29.32 127.452 29.32C127.412 29.32 127.379 29.3933 127.352 29.54C127.339 29.6733 127.325 30.04 127.312 30.64C127.312 31.2267 127.312 32 127.312 32.96C127.312 33.92 127.305 34.7467 127.292 35.44C127.279 36.1333 127.265 36.6067 127.252 36.86C127.225 36.9533 127.205 37 127.192 37C127.179 37 127.172 36.86 127.172 36.58L127.152 36.04L127.092 36.5C127.065 36.7667 127.005 37.0333 126.912 37.3C126.819 37.5533 126.725 37.7467 126.632 37.88C126.539 38 126.472 38 126.432 37.88C126.405 37.8267 126.339 37.8 126.232 37.8H126.172C126.092 37.8 126.032 37.8533 125.992 37.96C125.979 38.0667 125.959 38.0867 125.932 38.02C125.932 37.9667 125.919 37.9267 125.892 37.9C125.865 37.8733 125.839 37.86 125.812 37.86C125.759 37.86 125.719 37.9 125.692 37.98L125.652 38.14V37.98C125.652 37.94 125.632 37.9 125.592 37.86C125.565 37.82 125.532 37.7933 125.492 37.78C125.399 37.7267 125.352 37.66 125.352 37.58C125.352 37.5 125.325 37.46 125.272 37.46C125.219 37.4467 125.179 37.48 125.152 37.56C125.125 37.6267 125.092 37.66 125.052 37.66C124.985 37.66 124.912 37.5733 124.832 37.4C124.632 36.9333 124.465 34.72 124.332 30.76L124.232 28.32C124.192 28.08 124.172 27.74 124.172 27.3C124.172 26.6733 124.199 26.0533 124.252 25.44C124.319 24.8267 124.385 24.52 124.452 24.52C124.505 24.52 124.545 24.5467 124.572 24.6C124.572 24.6267 124.579 24.6333 124.592 24.62C124.605 24.6067 124.612 24.5867 124.612 24.56C124.625 24.4933 124.652 24.4533 124.692 24.44C124.732 24.4267 124.765 24.4533 124.792 24.52V24.54C124.845 24.54 124.892 24.4733 124.932 24.34C125.025 24.1667 125.139 24.06 125.272 24.02C125.339 23.9933 125.559 23.98 125.932 23.98C126.185 23.98 126.425 23.9867 126.652 24C126.892 24.0133 127.025 24.0333 127.052 24.06C127.105 24.1133 127.152 24.14 127.192 24.14C127.325 24.18 127.405 24.22 127.432 24.26C127.472 24.3 127.492 24.4133 127.492 24.6C127.492 24.8533 127.485 25.0933 127.472 25.32L127.432 26.42L127.612 26.36C128.132 26.2 128.519 26.0333 128.772 25.86C128.879 25.7933 128.945 25.7333 128.972 25.68C129.012 25.6133 129.039 25.5067 129.052 25.36C129.065 25.2133 129.079 25.12 129.092 25.08C129.119 25.04 129.159 25.0267 129.212 25.04H129.272C129.325 25.04 129.365 25.0067 129.392 24.94C129.405 24.8867 129.419 24.8533 129.432 24.84C129.459 24.8267 129.479 24.84 129.492 24.88L129.532 24.9C129.572 24.9 129.599 24.84 129.612 24.72C129.639 24.6133 129.679 24.54 129.732 24.5C129.785 24.46 129.879 24.4133 130.012 24.36C130.305 24.2533 130.732 24.2 131.292 24.2C131.572 24.2 131.772 24.22 131.892 24.26C131.999 24.3 132.072 24.3467 132.112 24.4C132.152 24.44 132.179 24.5267 132.192 24.66C132.232 24.8333 132.252 25.06 132.252 25.34C132.252 25.5933 132.285 25.78 132.352 25.9C132.419 26.0067 132.532 26.06 132.692 26.06C132.785 26.06 132.932 26.0267 133.132 25.96C133.492 25.84 133.772 25.72 133.972 25.6C134.185 25.4667 134.525 25.2 134.992 24.8L135.852 24.08L135.992 24.24C136.072 24.32 136.145 24.3667 136.212 24.38C136.279 24.3933 136.472 24.4 136.792 24.4C137.019 24.4 137.225 24.4267 137.412 24.48C137.612 24.52 137.725 24.5667 137.752 24.62C137.779 24.7 137.812 25.0933 137.852 25.8C137.905 26.5067 137.945 27.2533 137.972 28.04V28.7ZM124.752 25.06C124.752 24.94 124.732 24.9533 124.692 25.1C124.652 25.3 124.632 25.42 124.632 25.46C124.632 25.54 124.639 25.58 124.652 25.58L124.692 25.42C124.732 25.3 124.752 25.18 124.752 25.06ZM133.592 28.86C133.685 28.8867 133.719 28.8733 133.692 28.82C133.679 28.8067 133.659 28.8 133.632 28.8C133.605 28.8 133.579 28.8067 133.552 28.82C133.525 28.82 133.519 28.8267 133.532 28.84C133.545 28.8533 133.565 28.86 133.592 28.86ZM128.072 29.02L127.792 29.06C127.565 29.0867 127.425 29.1133 127.372 29.14C127.319 29.1667 127.325 29.2 127.392 29.24C127.459 29.28 127.505 29.28 127.532 29.24L127.812 29.1L128.072 29.02ZM147.526 24.36C147.886 24.64 148.066 25.0067 148.066 25.46C148.066 25.8067 147.98 26.2 147.806 26.64C147.153 28.4133 146.366 29.8933 145.446 31.08C144.526 32.2667 143.44 33.2067 142.186 33.9L141.586 34.22V35.98C141.586 36.42 141.553 36.72 141.486 36.88C141.42 37.04 141.38 37.1333 141.366 37.16L141.346 37.2C141.32 37.2 141.313 37.04 141.326 36.72L141.366 36.1L141.266 36.62L141.086 37.42C141.006 37.6067 140.9 37.8067 140.766 38.02C140.633 38.2333 140.566 38.3 140.566 38.22C140.566 38.1667 140.513 38.1067 140.406 38.04C140.313 37.9867 140.24 37.9733 140.186 38C140.133 38.0267 140.093 38.0933 140.066 38.2C140.013 38.32 139.986 38.3267 139.986 38.22C139.986 38.14 139.946 38.1067 139.866 38.12H139.846C139.753 38.12 139.666 38.08 139.586 38C139.506 37.9067 139.466 37.8133 139.466 37.72V37.56L139.126 37.9L139.026 37.7C138.946 37.5667 138.873 37.1467 138.806 36.44C138.713 35.8 138.633 35.3267 138.566 35.02C138.5 34.7133 138.406 34.5533 138.286 34.54C138.193 34.54 138.046 34.5133 137.846 34.46C137.646 34.4067 137.48 34.3533 137.346 34.3C137.213 34.2333 137.186 34.2 137.266 34.2C137.373 34.1867 137.46 34.1333 137.526 34.04C137.58 33.9333 137.573 33.86 137.506 33.82L137.326 33.72C137.286 33.72 137.3 33.6733 137.366 33.58L137.406 33.5C137.406 33.4733 137.34 33.46 137.206 33.46L136.966 33.44L137.206 33.38C137.366 33.34 137.46 33.2867 137.486 33.22C137.5 33.1667 137.593 33.1133 137.766 33.06C137.913 33.0333 137.986 33.0067 137.986 32.98C137.986 32.9267 137.9 32.88 137.726 32.84C137.66 32.8267 137.613 32.8133 137.586 32.8C137.56 32.7733 137.56 32.7467 137.586 32.72C137.626 32.6667 137.733 32.6067 137.906 32.54C138.08 32.4733 138.253 32.42 138.426 32.38L138.646 32.32L138.626 30.66C138.6 29.34 138.56 28.4333 138.506 27.94C138.453 27.3 138.426 26.56 138.426 25.72C138.426 25.0667 138.446 24.5267 138.486 24.1C138.526 23.66 138.58 23.44 138.646 23.44C138.713 23.44 138.746 23.4667 138.746 23.52C138.746 23.5467 138.76 23.5533 138.786 23.54C138.813 23.5133 138.84 23.48 138.866 23.44C138.893 23.3733 138.913 23.3333 138.926 23.32C138.953 23.3067 138.966 23.3333 138.966 23.4C138.966 23.4133 138.966 23.4267 138.966 23.44C138.98 23.4533 138.986 23.46 138.986 23.46C139.013 23.46 139.046 23.4133 139.086 23.32C139.14 23.1867 139.193 23.0933 139.246 23.04C139.313 22.9867 139.413 22.9533 139.546 22.94C139.613 22.9267 139.793 22.92 140.086 22.92C140.793 22.92 141.2 22.9467 141.306 23L141.546 23.04C141.573 23.04 141.613 23.22 141.666 23.58L141.686 24.12L142.606 24.1L144.066 24.06L145.066 24.04L145.926 24.02C146.406 24.02 146.746 24.0467 146.946 24.1C147.16 24.14 147.353 24.2267 147.526 24.36ZM138.946 24C138.973 23.9067 138.973 23.82 138.946 23.74C138.933 23.7133 138.92 23.7133 138.906 23.74C138.906 23.7667 138.906 23.8067 138.906 23.86C138.906 23.9133 138.906 23.96 138.906 24C138.92 24.0267 138.933 24.0267 138.946 24ZM138.866 24.4C138.893 24.3333 138.893 24.2733 138.866 24.22C138.853 24.1933 138.84 24.1933 138.826 24.22C138.826 24.2333 138.826 24.26 138.826 24.3C138.826 24.34 138.826 24.3733 138.826 24.4C138.84 24.4267 138.853 24.4267 138.866 24.4ZM144.346 27.3L143.666 27.32L142.326 27.4L141.666 27.44V28.04L141.626 29.04L141.606 29.74C141.593 29.9267 141.586 30.1533 141.586 30.42C141.586 30.7 141.606 30.84 141.646 30.84C141.673 30.84 141.746 30.7933 141.866 30.7C141.986 30.5933 142.113 30.4667 142.246 30.32C142.58 29.9867 142.9 29.6067 143.206 29.18C143.526 28.7533 143.793 28.34 144.006 27.94L144.346 27.3ZM144.286 33.42C144.286 33.3667 144.286 33.3333 144.286 33.32C144.3 33.2933 144.313 33.3 144.326 33.34C144.353 33.4067 144.353 33.48 144.326 33.56C144.313 33.5867 144.3 33.5867 144.286 33.56C144.286 33.52 144.286 33.4733 144.286 33.42Z" fill="#1C1B1F"/>
</svg>
