<svg width="122" height="80" viewBox="0 0 122 80" fill="none" xmlns="http://www.w3.org/2000/svg">
<g clip-path="url(#clip0_30_1076)">
<path fill-rule="evenodd" clip-rule="evenodd" d="M6.77364 18.6784H115.226C118.915 18.6784 122 22.7983 122 27.9232V70.6651C122 75.7899 118.915 79.9999 115.226 79.9999H6.77364C3.08477 79.9999 0 75.7899 0 70.6651V27.9232C0 22.7983 3.08477 18.6784 6.77364 18.6784Z" fill="#1C1C1C"/>
<path fill-rule="evenodd" clip-rule="evenodd" d="M6.50556 18.1304H115.494C119.116 18.1304 122 22.0655 122 26.9164V67.8277C122 72.7696 119.116 76.7047 115.494 76.7047H6.50556C2.95073 76.7047 0 72.7696 0 67.8277V26.9164C0 22.0655 2.95073 18.1304 6.50556 18.1304Z" fill="#353535"/>
<path fill-rule="evenodd" clip-rule="evenodd" d="M6.77364 13.5536H115.226C118.915 13.5536 122 17.7636 122 22.7983V65.6313C122 70.7579 118.915 74.8751 115.226 74.8751H6.77364C3.08477 74.8751 0 70.757 0 65.6313V22.7983C0 17.7636 3.08477 13.5536 6.77364 13.5536Z" fill="#1C1C1C"/>
<path fill-rule="evenodd" clip-rule="evenodd" d="M10.6636 11.4131H110.464C113.952 11.4131 116.769 15.0108 116.769 19.3799V56.3837C116.769 60.7528 113.952 64.3505 110.464 64.3505H10.6636C7.24369 64.3505 4.427 60.7528 4.427 56.3837V19.3799C4.427 15.0108 7.24369 11.4131 10.6636 11.4131Z" fill="#C1C1C1"/>
<path fill-rule="evenodd" clip-rule="evenodd" d="M10.6636 5.64655H110.464C113.952 5.64655 116.769 9.49155 116.769 14.1594V53.6981C116.769 58.3641 113.952 62.2091 110.464 62.2091H10.6636C7.24369 62.2091 4.427 58.3641 4.427 53.6981V14.1594C4.427 9.49155 7.24369 5.64655 10.6636 5.64655Z" fill="white"/>
<path fill-rule="evenodd" clip-rule="evenodd" d="M10.6636 3.99988H110.464C113.952 3.99988 116.769 7.84396 116.769 12.5109V52.0505C116.769 56.7165 113.952 60.5625 110.464 60.5625H10.6636C7.24369 60.5625 4.427 56.7165 4.427 52.0505V12.5109C4.427 7.84396 7.24369 3.99988 10.6636 3.99988Z" fill="#DEDEDE"/>
</g>
<path d="M60.1077 39.32C60.3211 39.4133 60.5544 39.5333 60.8077 39.68C61.0611 39.8267 61.2544 39.96 61.3877 40.08C61.5344 40.1867 61.5611 40.24 61.4677 40.24C61.4411 40.24 61.4077 40.26 61.3677 40.3C61.3277 40.3267 61.2944 40.36 61.2677 40.4C61.2277 40.4667 61.2077 40.52 61.2077 40.56C61.2211 40.5867 61.2477 40.6133 61.2877 40.64C61.3411 40.6667 61.3677 40.6933 61.3677 40.72C61.3677 40.7467 61.3411 40.78 61.2877 40.82C61.2344 40.8733 61.2077 40.9133 61.2077 40.94C61.2211 40.9533 61.2544 40.9667 61.3077 40.98C61.4277 41.02 61.4344 41.04 61.3277 41.04C61.2877 41.04 61.2477 41.0533 61.2077 41.08C61.1811 41.1067 61.1544 41.1333 61.1277 41.16C61.0611 41.2267 60.9677 41.26 60.8477 41.26H60.6677L60.8277 41.44C60.9077 41.5333 60.9477 41.5933 60.9477 41.62C60.9611 41.6333 60.9344 41.6467 60.8677 41.66C60.7877 41.7 60.6944 41.7333 60.5877 41.76C60.5477 41.7733 60.4744 41.78 60.3677 41.78C60.1277 41.78 59.8211 41.74 59.4477 41.66C59.0744 41.58 58.7744 41.48 58.5477 41.36C58.1344 41.16 57.7544 40.88 57.4077 40.52C57.0611 40.16 56.7744 39.7467 56.5477 39.28L56.2277 38.58H54.0277L53.9677 39.76C53.9411 40.5067 53.9011 40.9933 53.8477 41.22L53.7877 41.52V41.18C53.8144 40.7667 53.8077 40.56 53.7677 40.56C53.7411 40.56 53.7211 40.6667 53.7077 40.88C53.6944 41.08 53.6477 41.3067 53.5677 41.56C53.4877 41.8 53.4011 41.9867 53.3077 42.12C53.2144 42.2667 53.1477 42.3133 53.1077 42.26C53.0544 42.1667 52.9744 42.12 52.8677 42.12C52.7877 42.12 52.7144 42.1733 52.6477 42.28C52.6211 42.3333 52.5944 42.3667 52.5677 42.38C52.5544 42.3933 52.5477 42.3733 52.5477 42.32C52.5477 42.24 52.5077 42.2067 52.4277 42.22H52.3677C52.2344 42.22 52.1077 42.1067 51.9877 41.88C51.9477 41.8133 51.9211 41.78 51.9077 41.78C51.9077 41.78 51.8744 41.8333 51.8077 41.94C51.7677 42.0333 51.7277 42.08 51.6877 42.08C51.6477 42.08 51.5877 41.9933 51.5077 41.82C51.3877 41.5533 51.2877 40.92 51.2077 39.92C51.1411 38.92 51.1011 37.7133 51.0877 36.3C51.0877 35.34 51.0611 34.3267 51.0077 33.26C50.9411 32.1667 50.9077 31.4133 50.9077 31C50.9077 30.5067 50.9411 30.0067 51.0077 29.5C51.0744 29.0067 51.1411 28.76 51.2077 28.76C51.2744 28.76 51.3077 28.8067 51.3077 28.9C51.3211 28.9667 51.3477 28.9467 51.3877 28.84C51.4411 28.7067 51.4877 28.68 51.5277 28.76C51.5544 28.8 51.5744 28.8133 51.5877 28.8C51.6144 28.7733 51.6344 28.7333 51.6477 28.68C51.6744 28.5467 51.7211 28.4533 51.7877 28.4C51.8544 28.3467 51.9744 28.3133 52.1477 28.3C52.3877 28.2733 53.4211 28.2467 55.2477 28.22L57.2277 28.18C57.7877 28.18 58.0877 28.2133 58.1277 28.28C58.2077 28.36 58.3144 28.4133 58.4477 28.44L58.6677 28.48L58.6277 29.62C58.5877 30.2333 58.5677 31.46 58.5677 33.3V34.12C58.5677 35.1467 58.5944 35.8733 58.6477 36.3C58.7011 36.7133 58.8277 37.1933 59.0277 37.74C59.1744 38.1267 59.3344 38.4267 59.5077 38.64C59.6811 38.84 59.9144 39.0067 60.2077 39.14C60.5144 39.2867 60.6677 39.3733 60.6677 39.4C60.6677 39.4133 60.5944 39.4 60.4477 39.36C60.3277 39.32 60.2277 39.2933 60.1477 39.28C60.0677 39.2667 60.0144 39.2667 59.9877 39.28C59.9744 39.28 60.0144 39.2933 60.1077 39.32ZM51.5677 28.6C51.5411 28.6267 51.5277 28.5933 51.5277 28.5C51.5277 28.4733 51.5344 28.4533 51.5477 28.44C51.5611 28.4267 51.5744 28.4333 51.5877 28.46C51.6144 28.54 51.6077 28.5867 51.5677 28.6ZM54.5277 30.96C54.5144 30.96 54.5011 30.9667 54.4877 30.98C54.4744 30.98 54.4677 30.98 54.4677 30.98C54.4811 30.98 54.5144 30.9867 54.5677 31C54.6344 31 54.7144 31 54.8077 31C54.9277 31 55.0211 31 55.0877 31C55.1544 30.9867 55.1477 30.9733 55.0677 30.96C55.0277 30.9467 54.9411 30.94 54.8077 30.94C54.6744 30.94 54.5811 30.9467 54.5277 30.96ZM54.8277 35.4L55.5877 35.36L55.5677 35.18C55.5411 34.9933 55.5144 34.62 55.4877 34.06C55.4744 33.62 55.4344 33.0267 55.3677 32.28L55.2877 31.38H54.7477C54.4011 31.38 54.2144 31.4 54.1877 31.44C54.1611 31.4667 54.1344 32.14 54.1077 33.46L54.0477 35.42L54.8277 35.4ZM54.0677 38.08C54.0411 38.0933 54.0344 38.1067 54.0477 38.12C54.0611 38.1333 54.0811 38.14 54.1077 38.14C54.2011 38.14 54.2344 38.1267 54.2077 38.1C54.1544 38.0733 54.1077 38.0667 54.0677 38.08ZM55.1677 38.12C55.2077 38.12 55.2344 38.12 55.2477 38.12C55.2744 38.1067 55.2744 38.0933 55.2477 38.08H55.0677C55.0411 38.0933 55.0411 38.1067 55.0677 38.12C55.0944 38.12 55.1277 38.12 55.1677 38.12ZM55.7477 38.2C55.8277 38.2 55.8877 38.2 55.9277 38.2C55.9677 38.1867 55.9611 38.1733 55.9077 38.16C55.8811 38.1467 55.8277 38.14 55.7477 38.14C55.6677 38.14 55.6144 38.1467 55.5877 38.16L55.5477 38.18C55.5477 38.1933 55.6144 38.2 55.7477 38.2ZM54.1877 38.34C54.2411 38.34 54.2811 38.34 54.3077 38.34C54.3344 38.3267 54.3344 38.3133 54.3077 38.3C54.2544 38.2733 54.1811 38.2733 54.0877 38.3C54.0611 38.3133 54.0544 38.3267 54.0677 38.34C54.0944 38.34 54.1344 38.34 54.1877 38.34ZM67.7513 32.02C67.8447 32.0733 67.8713 32.1667 67.8313 32.3C67.818 32.3533 67.758 32.42 67.6513 32.5C67.5447 32.58 67.358 32.7 67.0913 32.86C66.7447 33.0467 66.2913 33.2667 65.7313 33.52C65.1847 33.76 64.878 33.88 64.8113 33.88C64.7713 33.88 64.7447 34.1533 64.7313 34.7C64.7313 35.2467 64.7313 36.2333 64.7313 37.66C64.718 39.7267 64.6847 40.8067 64.6313 40.9C64.618 40.94 64.598 40.96 64.5713 40.96C64.5713 40.96 64.5647 40.9533 64.5513 40.94C64.5513 40.9267 64.5513 40.9133 64.5513 40.9L64.5713 40.68L64.5913 40.42C64.5913 40.3 64.578 40.2 64.5513 40.12C64.5247 40.0667 64.5047 40.04 64.4913 40.04C64.478 40.04 64.4713 40.16 64.4713 40.4C64.458 40.64 64.4313 40.8533 64.3913 41.04C64.3513 41.2133 64.2713 41.4133 64.1513 41.64C64.0847 41.7867 64.0313 41.8733 63.9913 41.9C63.9647 41.9133 63.9247 41.8933 63.8713 41.84C63.8047 41.7733 63.7313 41.74 63.6513 41.74C63.558 41.74 63.4913 41.7867 63.4513 41.88C63.438 41.9333 63.4247 41.9667 63.4113 41.98C63.398 41.9933 63.378 41.9733 63.3513 41.92C63.3247 41.84 63.2847 41.8 63.2313 41.8C63.1913 41.8 63.158 41.84 63.1313 41.92C63.1313 41.96 63.1247 41.98 63.1113 41.98C63.098 41.98 63.0913 41.9667 63.0913 41.94C63.0913 41.8867 63.038 41.82 62.9313 41.74C62.838 41.6867 62.7913 41.6133 62.7913 41.52C62.7913 41.4667 62.7847 41.44 62.7713 41.44C62.758 41.44 62.718 41.48 62.6513 41.56C62.5713 41.6667 62.5113 41.72 62.4713 41.72C62.4447 41.72 62.3913 41.6467 62.3113 41.5C62.0713 41.06 61.898 39.48 61.7913 36.76C61.778 35.8533 61.738 35.4 61.6713 35.4C61.618 35.4 61.338 35.4733 60.8313 35.62L60.0713 35.84L59.9113 35.66C59.778 35.54 59.7513 35.4733 59.8313 35.46C59.8847 35.4333 59.8113 35.42 59.6113 35.42H59.5513C59.418 35.42 59.3047 35.3933 59.2113 35.34C59.1313 35.2867 59.0913 35.2267 59.0913 35.16C59.0913 35.0933 59.0513 35.0333 58.9713 34.98C58.8913 34.9 58.818 34.7333 58.7513 34.48C58.7113 34.3467 58.678 34.2333 58.6513 34.14C58.6113 34.0333 58.5847 33.9467 58.5713 33.88C58.5313 33.7733 58.5113 33.6067 58.5113 33.38L58.5313 33.08L59.1913 32.82L59.7313 32.62C60.3047 32.4067 60.618 32.2867 60.6713 32.26L61.5113 31.96L61.4913 31.12C61.478 30.5867 61.498 30.0333 61.5513 29.46C61.6047 28.8733 61.6647 28.58 61.7313 28.58C61.798 28.58 61.8447 28.62 61.8713 28.7C61.8713 28.74 61.878 28.76 61.8913 28.76C61.9047 28.7467 61.9113 28.7133 61.9113 28.66C61.9113 28.58 61.9313 28.5333 61.9713 28.52C62.0247 28.4933 62.058 28.52 62.0713 28.6C62.0713 28.6533 62.1047 28.6 62.1713 28.44C62.238 28.2933 62.3313 28.1867 62.4513 28.12C62.5447 28.0667 62.8247 28.04 63.2913 28.04C63.878 28.04 64.258 28.0733 64.4313 28.14C64.538 28.1933 64.6247 28.22 64.6913 28.22C64.7313 28.22 64.7513 28.64 64.7513 29.48C64.7513 30.3333 64.7713 30.76 64.8113 30.76C64.838 30.76 65.098 30.6733 65.5913 30.5C66.0847 30.3267 66.4113 30.24 66.5713 30.24L66.8313 30.26L66.5513 30.36C66.4713 30.3733 66.358 30.42 66.2113 30.5C66.198 30.54 66.2313 30.5467 66.3113 30.52C66.458 30.4533 66.6047 30.42 66.7513 30.42C66.8713 30.42 67.0113 30.4467 67.1713 30.5C67.358 30.5533 67.4713 30.6 67.5113 30.64C67.5513 30.6667 67.558 30.7267 67.5313 30.82V30.9C67.5313 30.9933 67.558 31.0667 67.6113 31.12C67.6913 31.1733 67.7313 31.2467 67.7313 31.34C67.7313 31.42 67.7513 31.4533 67.7913 31.44C67.818 31.4133 67.8313 31.4333 67.8313 31.5C67.8313 31.5933 67.7913 31.7067 67.7113 31.84C67.6447 31.9067 67.658 31.9667 67.7513 32.02ZM62.1113 28.4C62.098 28.4133 62.0847 28.4133 62.0713 28.4C62.0713 28.3867 62.0713 28.36 62.0713 28.32C62.0713 28.2267 62.0847 28.2067 62.1113 28.26C62.138 28.3267 62.138 28.3733 62.1113 28.4ZM61.9913 29.52C62.0313 29.32 62.0513 29.2 62.0513 29.16C62.0513 29.08 62.0447 29.04 62.0313 29.04L61.9913 29.2C61.9513 29.2933 61.9313 29.4133 61.9313 29.56C61.9313 29.6667 61.9513 29.6533 61.9913 29.52ZM60.7513 35.22H60.7313L60.5713 35.24C60.3713 35.2667 60.238 35.3 60.1713 35.34L60.1513 35.36L60.1913 35.38C60.258 35.38 60.418 35.3333 60.6713 35.24L60.7513 35.22ZM76.892 32.02C76.9853 32.0733 77.012 32.1667 76.972 32.3C76.9586 32.3533 76.8986 32.42 76.792 32.5C76.6853 32.58 76.4986 32.7 76.232 32.86C75.8853 33.0467 75.432 33.2667 74.872 33.52C74.3253 33.76 74.0186 33.88 73.952 33.88C73.912 33.88 73.8853 34.1533 73.872 34.7C73.872 35.2467 73.872 36.2333 73.872 37.66C73.8586 39.7267 73.8253 40.8067 73.772 40.9C73.7586 40.94 73.7386 40.96 73.712 40.96C73.712 40.96 73.7053 40.9533 73.692 40.94C73.692 40.9267 73.692 40.9133 73.692 40.9L73.712 40.68L73.732 40.42C73.732 40.3 73.7186 40.2 73.692 40.12C73.6653 40.0667 73.6453 40.04 73.632 40.04C73.6186 40.04 73.612 40.16 73.612 40.4C73.5986 40.64 73.572 40.8533 73.532 41.04C73.492 41.2133 73.412 41.4133 73.292 41.64C73.2253 41.7867 73.172 41.8733 73.132 41.9C73.1053 41.9133 73.0653 41.8933 73.012 41.84C72.9453 41.7733 72.872 41.74 72.792 41.74C72.6986 41.74 72.632 41.7867 72.592 41.88C72.5786 41.9333 72.5653 41.9667 72.552 41.98C72.5386 41.9933 72.5186 41.9733 72.492 41.92C72.4653 41.84 72.4253 41.8 72.372 41.8C72.332 41.8 72.2986 41.84 72.272 41.92C72.272 41.96 72.2653 41.98 72.252 41.98C72.2386 41.98 72.232 41.9667 72.232 41.94C72.232 41.8867 72.1786 41.82 72.072 41.74C71.9786 41.6867 71.932 41.6133 71.932 41.52C71.932 41.4667 71.9253 41.44 71.912 41.44C71.8986 41.44 71.8586 41.48 71.792 41.56C71.712 41.6667 71.652 41.72 71.612 41.72C71.5853 41.72 71.532 41.6467 71.452 41.5C71.212 41.06 71.0386 39.48 70.932 36.76C70.9186 35.8533 70.8786 35.4 70.812 35.4C70.7586 35.4 70.4786 35.4733 69.972 35.62L69.212 35.84L69.052 35.66C68.9186 35.54 68.892 35.4733 68.972 35.46C69.0253 35.4333 68.952 35.42 68.752 35.42H68.692C68.5586 35.42 68.4453 35.3933 68.352 35.34C68.272 35.2867 68.232 35.2267 68.232 35.16C68.232 35.0933 68.192 35.0333 68.112 34.98C68.032 34.9 67.9586 34.7333 67.892 34.48C67.852 34.3467 67.8186 34.2333 67.792 34.14C67.752 34.0333 67.7253 33.9467 67.712 33.88C67.672 33.7733 67.652 33.6067 67.652 33.38L67.672 33.08L68.332 32.82L68.872 32.62C69.4453 32.4067 69.7586 32.2867 69.812 32.26L70.652 31.96L70.632 31.12C70.6186 30.5867 70.6386 30.0333 70.692 29.46C70.7453 28.8733 70.8053 28.58 70.872 28.58C70.9386 28.58 70.9853 28.62 71.012 28.7C71.012 28.74 71.0186 28.76 71.032 28.76C71.0453 28.7467 71.052 28.7133 71.052 28.66C71.052 28.58 71.072 28.5333 71.112 28.52C71.1653 28.4933 71.1986 28.52 71.212 28.6C71.212 28.6533 71.2453 28.6 71.312 28.44C71.3786 28.2933 71.472 28.1867 71.592 28.12C71.6853 28.0667 71.9653 28.04 72.432 28.04C73.0186 28.04 73.3986 28.0733 73.572 28.14C73.6786 28.1933 73.7653 28.22 73.832 28.22C73.872 28.22 73.892 28.64 73.892 29.48C73.892 30.3333 73.912 30.76 73.952 30.76C73.9786 30.76 74.2386 30.6733 74.732 30.5C75.2253 30.3267 75.552 30.24 75.712 30.24L75.972 30.26L75.692 30.36C75.612 30.3733 75.4986 30.42 75.352 30.5C75.3386 30.54 75.372 30.5467 75.452 30.52C75.5986 30.4533 75.7453 30.42 75.892 30.42C76.012 30.42 76.152 30.4467 76.312 30.5C76.4986 30.5533 76.612 30.6 76.652 30.64C76.692 30.6667 76.6986 30.7267 76.672 30.82V30.9C76.672 30.9933 76.6986 31.0667 76.752 31.12C76.832 31.1733 76.872 31.2467 76.872 31.34C76.872 31.42 76.892 31.4533 76.932 31.44C76.9586 31.4133 76.972 31.4333 76.972 31.5C76.972 31.5933 76.932 31.7067 76.852 31.84C76.7853 31.9067 76.7986 31.9667 76.892 32.02ZM71.252 28.4C71.2386 28.4133 71.2253 28.4133 71.212 28.4C71.212 28.3867 71.212 28.36 71.212 28.32C71.212 28.2267 71.2253 28.2067 71.252 28.26C71.2786 28.3267 71.2786 28.3733 71.252 28.4ZM71.132 29.52C71.172 29.32 71.192 29.2 71.192 29.16C71.192 29.08 71.1853 29.04 71.172 29.04L71.132 29.2C71.092 29.2933 71.072 29.4133 71.072 29.56C71.072 29.6667 71.092 29.6533 71.132 29.52ZM69.892 35.22H69.872L69.712 35.24C69.512 35.2667 69.3786 35.3 69.312 35.34L69.292 35.36L69.332 35.38C69.3986 35.38 69.5586 35.3333 69.812 35.24L69.892 35.22ZM85.6479 40.36C85.6746 40.7067 85.6679 40.88 85.6279 40.88C85.6012 40.88 85.5812 40.8067 85.5679 40.66C85.5546 40.54 85.5346 40.44 85.5079 40.36C85.4812 40.28 85.4612 40.2333 85.4479 40.22C85.4346 40.2067 85.4346 40.2467 85.4479 40.34L85.4679 40.7C85.4679 41.06 85.4412 41.3867 85.3879 41.68C85.3346 41.9733 85.2812 42.0733 85.2279 41.98C85.2146 41.9533 85.1812 41.9267 85.1279 41.9C85.0879 41.8733 85.0412 41.86 84.9879 41.86C84.9212 41.86 84.8746 41.8667 84.8479 41.88C84.8212 41.8933 84.8012 41.9267 84.7879 41.98C84.7746 42.0467 84.7546 42.08 84.7279 42.08C84.7146 42.0933 84.6812 42.0867 84.6279 42.06C84.5746 42.0467 84.5346 42.04 84.5079 42.04C84.4946 42.0533 84.4946 42.0933 84.5079 42.16C84.5079 42.24 84.4946 42.2533 84.4679 42.2C84.4146 42.12 84.3479 42.08 84.2679 42.08C84.1746 42.0533 84.1012 41.9867 84.0479 41.88L83.9679 41.7L83.8679 41.94C83.8279 42.0467 83.8012 42.1067 83.7879 42.12C83.7746 42.1333 83.7412 42.1133 83.6879 42.06L83.4679 41.86C83.3746 41.7667 83.2679 41.26 83.1479 40.34C83.0279 39.4067 82.9479 38.7733 82.9079 38.44H80.7079L80.6479 39.62C80.6212 40.3667 80.5812 40.8533 80.5279 41.08L80.4679 41.38V41.04C80.4946 40.6267 80.4879 40.42 80.4479 40.42C80.4212 40.42 80.4012 40.5267 80.3879 40.74C80.3746 40.94 80.3279 41.1667 80.2479 41.42C80.1679 41.66 80.0812 41.8533 79.9879 42C79.8946 42.1333 79.8279 42.1733 79.7879 42.12C79.7346 42.0267 79.6546 41.98 79.5479 41.98C79.4679 41.98 79.3946 42.0333 79.3279 42.14C79.3012 42.1933 79.2746 42.2267 79.2479 42.24C79.2346 42.2533 79.2279 42.2333 79.2279 42.18C79.2279 42.1 79.1879 42.0667 79.1079 42.08H79.0479C78.9146 42.08 78.7879 41.9667 78.6679 41.74C78.6279 41.6733 78.6012 41.64 78.5879 41.64C78.5879 41.64 78.5546 41.6933 78.4879 41.8C78.4479 41.8933 78.4079 41.94 78.3679 41.94C78.3279 41.94 78.2679 41.8533 78.1879 41.68C78.0679 41.4133 77.9679 40.78 77.8879 39.78C77.8212 38.78 77.7812 37.5733 77.7679 36.16C77.7679 35.2 77.7412 34.1867 77.6879 33.12C77.6346 32.2533 77.6079 31.5 77.6079 30.86C77.6079 30.2733 77.6346 29.7733 77.6879 29.36C77.7546 28.8667 77.8212 28.62 77.8879 28.62C77.9546 28.62 77.9879 28.6667 77.9879 28.76C78.0012 28.8267 78.0279 28.8067 78.0679 28.7C78.1212 28.5667 78.1679 28.54 78.2079 28.62C78.2346 28.66 78.2546 28.6733 78.2679 28.66C78.2946 28.6333 78.3146 28.5933 78.3279 28.54C78.3546 28.4067 78.4012 28.3133 78.4679 28.26C78.5346 28.2067 78.6546 28.1733 78.8279 28.16C79.0679 28.1333 80.1012 28.1067 81.9279 28.08L83.9079 28.04C84.4679 28.04 84.7679 28.0733 84.8079 28.14C84.8879 28.22 84.9946 28.2733 85.1279 28.3L85.3479 28.34L85.3079 29.48C85.2679 30.12 85.2479 31.4133 85.2479 33.36C85.2479 34.6267 85.3479 36.48 85.5479 38.92C85.6146 39.6933 85.6479 40.1733 85.6479 40.36ZM78.2479 28.46C78.2212 28.4867 78.2079 28.4533 78.2079 28.36C78.2079 28.3333 78.2146 28.3133 78.2279 28.3C78.2412 28.2867 78.2546 28.2933 78.2679 28.32C78.2946 28.4 78.2879 28.4467 78.2479 28.46ZM81.2079 30.82C81.1946 30.82 81.1812 30.8267 81.1679 30.84C81.1546 30.84 81.1479 30.84 81.1479 30.84C81.1612 30.84 81.1946 30.8467 81.2479 30.86C81.3146 30.86 81.3946 30.86 81.4879 30.86C81.6079 30.86 81.7012 30.86 81.7679 30.86C81.8346 30.8467 81.8279 30.8333 81.7479 30.82C81.7079 30.8067 81.6212 30.8 81.4879 30.8C81.3546 30.8 81.2612 30.8067 81.2079 30.82ZM81.5079 35.26L82.2679 35.22L82.2479 35.04C82.2212 34.8533 82.1946 34.48 82.1679 33.92C82.1546 33.48 82.1146 32.8867 82.0479 32.14L81.9679 31.24H81.4279C81.0812 31.24 80.8946 31.26 80.8679 31.3C80.8412 31.3267 80.8146 32 80.7879 33.32L80.7279 35.28L81.5079 35.26ZM80.7479 37.94C80.7212 37.9533 80.7146 37.9667 80.7279 37.98C80.7412 37.9933 80.7612 38 80.7879 38C80.8812 38 80.9146 37.9867 80.8879 37.96C80.8346 37.9333 80.7879 37.9267 80.7479 37.94ZM81.8479 37.98C81.8879 37.98 81.9146 37.98 81.9279 37.98C81.9546 37.9667 81.9546 37.9533 81.9279 37.94H81.7479C81.7212 37.9533 81.7212 37.9667 81.7479 37.98C81.7746 37.98 81.8079 37.98 81.8479 37.98ZM82.4279 38.06C82.5079 38.06 82.5679 38.06 82.6079 38.06C82.6479 38.0467 82.6412 38.0333 82.5879 38.02C82.5612 38.0067 82.5079 38 82.4279 38C82.3479 38 82.2946 38.0067 82.2679 38.02L82.2279 38.04C82.2279 38.0533 82.2946 38.06 82.4279 38.06ZM80.8679 38.2C80.9212 38.2 80.9612 38.2 80.9879 38.2C81.0146 38.1867 81.0146 38.1733 80.9879 38.16C80.9346 38.1333 80.8612 38.1333 80.7679 38.16C80.7412 38.1733 80.7346 38.1867 80.7479 38.2C80.7746 38.2 80.8146 38.2 80.8679 38.2ZM95.3802 38.56C95.5136 38.4533 95.5936 38.4 95.6202 38.4C95.6602 38.4 95.6802 38.4333 95.6802 38.5C95.6802 38.5 95.6536 38.6467 95.6002 38.94C95.4669 39.4733 95.1136 40.0267 94.5402 40.6C94.1136 41.04 93.6469 41.36 93.1402 41.56C92.6336 41.76 92.0602 41.86 91.4202 41.86C91.1402 41.86 90.8269 41.8333 90.4802 41.78C89.9602 41.66 89.5069 41.4933 89.1202 41.28C88.7336 41.0667 88.3536 40.7733 87.9802 40.4C87.5536 39.9733 87.2202 39.4733 86.9802 38.9C86.7536 38.3133 86.5602 37.5067 86.4002 36.48C86.3336 35.9733 86.2869 35.5 86.2602 35.06C86.2469 34.62 86.2402 33.72 86.2402 32.36C86.2402 31.1467 86.2469 30.34 86.2602 29.94C86.2736 29.54 86.3069 29.2667 86.3602 29.12C86.4136 28.9733 86.5202 28.8 86.6802 28.6C86.8269 28.4267 86.9736 28.3067 87.1202 28.24C87.2802 28.16 87.5269 28.1067 87.8602 28.08C88.1936 28.0533 88.7669 28.0267 89.5802 28C89.9402 27.9867 90.4602 27.98 91.1402 27.98C92.7136 27.98 93.6469 28.0333 93.9402 28.14C94.0469 28.18 94.1069 28.2267 94.1202 28.28C94.1469 28.3333 94.1202 28.3667 94.0402 28.38C94.0002 28.38 94.0136 28.4067 94.0802 28.46C94.1202 28.4867 94.1402 28.5067 94.1402 28.52C94.1536 28.5333 94.1469 28.5533 94.1202 28.58L94.1002 28.62C94.1002 28.6467 94.1536 28.68 94.2602 28.72C94.3669 28.7467 94.4402 28.82 94.4802 28.94C94.5202 29.0467 94.5402 29.26 94.5402 29.58C94.5402 30.3 94.5002 30.7667 94.4202 30.98L94.3002 31.28L89.2802 31.2L89.2202 32.2C89.1936 32.7333 89.1802 33.1667 89.1802 33.5C89.1802 34.1667 89.2002 34.8 89.2402 35.4C89.2802 35.9867 89.3336 36.42 89.4002 36.7C89.5069 37.2467 89.6069 37.6333 89.7002 37.86C89.7936 38.0867 89.9269 38.2867 90.1002 38.46C90.3269 38.6733 90.5536 38.8267 90.7802 38.92C91.0069 39.0133 91.2736 39.06 91.5802 39.06C92.1002 39.0733 92.6002 38.8733 93.0802 38.46C93.1602 38.38 93.2202 38.3333 93.2602 38.32C93.3002 38.2933 93.3002 38.3133 93.2602 38.38C93.2336 38.42 93.1669 38.4867 93.0602 38.58C92.9669 38.6733 92.8602 38.76 92.7402 38.84C92.4602 39.0533 92.3269 39.1667 92.3402 39.18C92.3536 39.1933 92.4002 39.18 92.4802 39.14C92.5736 39.0867 92.6669 39.0267 92.7602 38.96C93.0802 38.72 93.5802 38.24 94.2602 37.52C94.4069 37.36 94.4936 37.28 94.5202 37.28C94.5469 37.2667 94.5469 37.3133 94.5202 37.42L94.5002 37.54C94.5002 37.6067 94.5136 37.6667 94.5402 37.72C94.5802 37.7733 94.6269 37.8 94.6802 37.8C94.7336 37.8 94.7869 37.7733 94.8402 37.72C94.9069 37.6667 94.9469 37.64 94.9602 37.64C94.9869 37.64 95.0136 37.68 95.0402 37.76L95.0802 37.86C95.1202 37.86 95.1669 37.7933 95.2202 37.66C95.2602 37.5933 95.2869 37.5533 95.3002 37.54C95.3269 37.5267 95.3336 37.5467 95.3202 37.6C95.2936 37.6533 95.2802 37.7467 95.2802 37.88C95.2802 38 95.2869 38.1067 95.3002 38.2L95.2202 38.54L95.1402 38.78L95.3802 38.56ZM93.3402 28.46C93.3536 28.4733 93.3736 28.4867 93.4002 28.5C93.4269 28.5 93.4602 28.5067 93.5002 28.52C93.6469 28.56 93.7536 28.58 93.8202 28.58C93.9002 28.58 93.8936 28.56 93.8002 28.52C93.7202 28.48 93.6069 28.46 93.4602 28.46H93.3402ZM105.974 40.7C106.014 40.82 106.034 40.9067 106.034 40.96C106.034 41.0267 105.98 41.1133 105.874 41.22C105.82 41.2733 105.774 41.3333 105.734 41.4C105.707 41.4533 105.7 41.4933 105.714 41.52C105.727 41.5467 105.72 41.5733 105.694 41.6C105.68 41.6267 105.66 41.6467 105.634 41.66C105.607 41.6733 105.58 41.6867 105.554 41.7C105.54 41.7133 105.54 41.7267 105.554 41.74C105.594 41.7533 105.534 41.8133 105.374 41.92C105.227 42 105.154 42.08 105.154 42.16V42.18C105.154 42.2467 105.094 42.3067 104.974 42.36C104.814 42.4267 104.514 42.36 104.074 42.16C103.634 41.96 102.994 41.5933 102.154 41.06C101.794 40.8467 101.38 40.62 100.914 40.38C100.514 40.18 100.08 39.8933 99.6138 39.52L98.8938 38.94L98.8538 40.2C98.8405 40.6 98.8205 40.9267 98.7938 41.18C98.7805 41.42 98.7605 41.54 98.7338 41.54C98.7072 41.54 98.6938 41.36 98.6938 41V40.42L98.6338 40.96C98.6072 41.2267 98.5472 41.4933 98.4538 41.76C98.3738 42.0267 98.2938 42.22 98.2138 42.34C98.1338 42.4733 98.0738 42.4867 98.0338 42.38C98.0205 42.3133 97.9605 42.28 97.8538 42.28C97.7205 42.28 97.6472 42.3267 97.6338 42.42C97.6205 42.4867 97.6072 42.52 97.5938 42.52C97.5805 42.5333 97.5405 42.5067 97.4738 42.44C97.4205 42.3867 97.3805 42.36 97.3538 42.36C97.3405 42.3733 97.3272 42.42 97.3138 42.5C97.3005 42.62 97.2805 42.64 97.2538 42.56C97.2538 42.4667 97.2072 42.3933 97.1138 42.34C97.0338 42.26 96.9738 42.18 96.9338 42.1C96.9072 42.0333 96.8872 42 96.8738 42C96.8605 42 96.8272 42.04 96.7738 42.12C96.6938 42.2267 96.6405 42.28 96.6138 42.28C96.5605 42.28 96.4938 42.18 96.4138 41.98C96.3338 41.78 96.2738 41.5667 96.2338 41.34C96.1805 40.9533 96.1138 40.1533 96.0338 38.94C95.9672 37.7133 95.9138 36.4733 95.8738 35.22C95.8338 33.7533 95.7805 32.76 95.7138 32.24C95.6872 31.9467 95.6738 31.5467 95.6738 31.04C95.6738 29.8933 95.7072 29.14 95.7738 28.78C95.8005 28.6733 95.8472 28.6 95.9138 28.56C95.9805 28.52 96.0138 28.5467 96.0138 28.64C96.0272 28.6667 96.0538 28.6333 96.0938 28.54C96.1205 28.4733 96.1405 28.4333 96.1538 28.42C96.1805 28.4067 96.2072 28.4333 96.2338 28.5C96.2472 28.5133 96.2538 28.5333 96.2538 28.56C96.2538 28.5733 96.2605 28.58 96.2738 28.58C96.3005 28.58 96.3338 28.5133 96.3738 28.38C96.4138 28.26 96.4538 28.18 96.4938 28.14C96.5472 28.1 96.6538 28.0667 96.8138 28.04C97.0005 28.0133 97.1872 28 97.3738 28C97.6405 28 97.9005 28.0133 98.1538 28.04C98.4205 28.0667 98.6005 28.1067 98.6938 28.16L98.9538 28.28L98.8538 34.44L99.0138 34.4C99.2805 34.2933 99.6005 34.1467 99.9738 33.96C100.854 33.5467 101.48 33.04 101.854 32.44C102.227 31.8267 102.42 31.0133 102.434 30C102.434 29.7467 102.44 29.52 102.454 29.32C102.48 29.12 102.5 28.9933 102.514 28.94C102.54 28.94 102.554 29.0267 102.554 29.2C102.554 29.2933 102.56 29.38 102.574 29.46C102.587 29.54 102.607 29.5933 102.634 29.62L102.654 29.66C102.667 29.66 102.674 29.64 102.674 29.6C102.674 29.5333 102.667 29.48 102.654 29.44V29.34C102.654 29.2067 102.68 29.02 102.734 28.78C102.787 28.58 102.86 28.4 102.954 28.24C103.06 28.08 103.127 28.0333 103.154 28.1C103.18 28.14 103.247 28.1733 103.354 28.2H103.414C103.467 28.2 103.5 28.1867 103.514 28.16C103.54 28.1333 103.56 28.0933 103.574 28.04C103.614 27.92 103.634 27.9 103.634 27.98C103.647 28.06 103.687 28.1067 103.754 28.12C103.834 28.12 103.874 28.08 103.874 28C103.874 27.9867 103.88 27.98 103.894 27.98C103.92 27.98 103.994 28.04 104.114 28.16C104.234 28.28 104.307 28.3467 104.334 28.36C104.374 28.36 104.414 28.3267 104.454 28.26C104.494 28.18 104.54 28.14 104.594 28.14C104.74 28.14 104.88 28.4067 105.014 28.94C105.16 29.4733 105.234 30.06 105.234 30.7C105.234 31.8067 104.967 32.8467 104.434 33.82C103.9 34.78 103.114 35.6467 102.074 36.42L101.454 36.86L101.654 37L102.874 37.92C103.247 38.2 103.834 38.62 104.634 39.18C105.527 39.7933 105.974 40.1533 105.974 40.26C105.974 40.2867 105.954 40.2933 105.914 40.28C105.887 40.2667 105.854 40.24 105.814 40.2C105.734 40.1333 105.66 40.1 105.594 40.1C105.58 40.1 105.574 40.1067 105.574 40.12C105.574 40.1333 105.614 40.1733 105.694 40.24C105.814 40.3333 105.907 40.4867 105.974 40.7ZM96.2138 29C96.2405 28.9333 96.2405 28.8733 96.2138 28.82C96.2005 28.7933 96.1872 28.7933 96.1738 28.82C96.1738 28.8333 96.1738 28.86 96.1738 28.9C96.1738 28.94 96.1738 28.9733 96.1738 29C96.1872 29.0267 96.2005 29.0267 96.2138 29ZM96.1338 29.5C96.1605 29.4467 96.1605 29.3733 96.1338 29.28C96.1205 29.24 96.1138 29.2733 96.1138 29.38C96.1138 29.5 96.1205 29.54 96.1338 29.5ZM99.9938 39.3C100.02 39.3 100.014 39.28 99.9738 39.24C99.7872 39.08 99.6005 38.9267 99.4138 38.78C99.2272 38.6333 99.1338 38.5733 99.1338 38.6C99.1338 38.6267 99.2672 38.7533 99.5338 38.98C99.8138 39.1933 99.9672 39.3 99.9938 39.3Z" fill="#1C1B1F"/>
<mask id="mask0_30_1076" style="mask-type:alpha" maskUnits="userSpaceOnUse" x="14" y="22" width="25" height="24">
<rect x="14.7793" y="22" width="24" height="24" fill="#D9D9D9"/>
</mask>
<g mask="url(#mask0_30_1076)">
<path d="M22.7793 39V35H19.8793C19.446 35 19.1418 34.8125 18.9668 34.4375C18.7918 34.0625 18.8376 33.7083 19.1043 33.375L26.0043 24.95C26.2043 24.7 26.4626 24.575 26.7793 24.575C27.096 24.575 27.3543 24.7 27.5543 24.95L34.4543 33.375C34.721 33.7083 34.7668 34.0625 34.5918 34.4375C34.4168 34.8125 34.1126 35 33.6793 35H30.7793V39C30.7793 39.2833 30.6835 39.5208 30.4918 39.7125C30.3001 39.9042 30.0626 40 29.7793 40H23.7793C23.496 40 23.2585 39.9042 23.0668 39.7125C22.8751 39.5208 22.7793 39.2833 22.7793 39ZM24.7793 38H28.7793V33H31.5543L26.7793 27.15L22.0043 33H24.7793V38ZM19.7793 44C19.496 44 19.2585 43.9042 19.0668 43.7125C18.8751 43.5208 18.7793 43.2833 18.7793 43C18.7793 42.7167 18.8751 42.4792 19.0668 42.2875C19.2585 42.0958 19.496 42 19.7793 42H33.7793C34.0626 42 34.3001 42.0958 34.4918 42.2875C34.6835 42.4792 34.7793 42.7167 34.7793 43C34.7793 43.2833 34.6835 43.5208 34.4918 43.7125C34.3001 43.9042 34.0626 44 33.7793 44H19.7793Z" fill="#1C1B1F"/>
</g>
<defs>
<clipPath id="clip0_30_1076">
<rect width="122" height="76" fill="white" transform="translate(0 4)"/>
</clipPath>
</defs>
</svg>
