<svg width="122" height="80" viewBox="0 0 122 80" fill="none" xmlns="http://www.w3.org/2000/svg">
<g clip-path="url(#clip0_30_1083)">
<path fill-rule="evenodd" clip-rule="evenodd" d="M6.77364 18.6783H115.226C118.915 18.6783 122 22.7983 122 27.9231V70.665C122 75.7898 118.915 79.9998 115.226 79.9998H6.77364C3.08477 79.9998 0 75.7898 0 70.665V27.9231C0 22.7983 3.08477 18.6783 6.77364 18.6783Z" fill="#1C1C1C"/>
<path fill-rule="evenodd" clip-rule="evenodd" d="M6.50556 18.1304H115.494C119.116 18.1304 122 22.0655 122 26.9163V67.8277C122 72.7695 119.116 76.7047 115.494 76.7047H6.50556C2.95073 76.7047 0 72.7695 0 67.8277V26.9163C0 22.0655 2.95073 18.1304 6.50556 18.1304Z" fill="#353535"/>
<path fill-rule="evenodd" clip-rule="evenodd" d="M6.77364 13.5536H115.226C118.915 13.5536 122 17.7636 122 22.7983V65.6313C122 70.7579 118.915 74.8751 115.226 74.8751H6.77364C3.08477 74.8751 0 70.757 0 65.6313V22.7983C0 17.7636 3.08477 13.5536 6.77364 13.5536Z" fill="#1C1C1C"/>
<path fill-rule="evenodd" clip-rule="evenodd" d="M10.6636 11.4131H110.464C113.952 11.4131 116.769 15.0108 116.769 19.3798V56.3837C116.769 60.7527 113.952 64.3504 110.464 64.3504H10.6636C7.24369 64.3504 4.427 60.7527 4.427 56.3837V19.3798C4.427 15.0108 7.24369 11.4131 10.6636 11.4131Z" fill="#C1C1C1"/>
<path fill-rule="evenodd" clip-rule="evenodd" d="M10.6636 5.64661H110.464C113.952 5.64661 116.769 9.49161 116.769 14.1595V53.6981C116.769 58.3642 113.952 62.2092 110.464 62.2092H10.6636C7.24369 62.2092 4.427 58.3642 4.427 53.6981V14.1595C4.427 9.49161 7.24369 5.64661 10.6636 5.64661Z" fill="white"/>
<path fill-rule="evenodd" clip-rule="evenodd" d="M10.6636 3.99988H110.464C113.952 3.99988 116.769 7.84396 116.769 12.5109V52.0505C116.769 56.7165 113.952 60.5625 110.464 60.5625H10.6636C7.24369 60.5625 4.427 56.7165 4.427 52.0505V12.5109C4.427 7.84396 7.24369 3.99988 10.6636 3.99988Z" fill="#DEDEDE"/>
</g>
<path d="M68.6071 28C68.7138 28.04 68.7871 28.08 68.8271 28.12C68.8804 28.16 68.9071 28.2067 68.9071 28.26C68.8938 28.9667 68.8471 30.0533 68.7671 31.52C68.7004 32.9733 68.6471 33.8867 68.6071 34.26C68.3804 37.1267 67.3338 39.2533 65.4671 40.64C64.8938 41.0667 64.1471 41.4333 63.2271 41.74C62.3204 42.0467 61.5271 42.2 60.8471 42.2C60.6871 42.2 60.5671 42.1933 60.4871 42.18C60.3671 42.1667 60.3071 42.1533 60.3071 42.14L60.7871 42.1C61.2004 42.0467 61.4538 42 61.5471 41.96C61.6271 41.9067 61.6204 41.8933 61.5271 41.92C61.3138 41.9733 61.0471 42 60.7271 42C60.2471 42 59.7271 41.92 59.1671 41.76C59.0204 41.72 58.9204 41.6867 58.8671 41.66C58.8271 41.6333 58.8404 41.6 58.9071 41.56C59.0271 41.4933 59.0871 41.4133 59.0871 41.32C59.0871 41.2133 59.0271 41.14 58.9071 41.1C58.8538 41.0867 58.8138 41.0733 58.7871 41.06C58.7738 41.0333 58.7871 41.02 58.8271 41.02C58.8938 41.02 58.9338 40.9867 58.9471 40.92C58.9604 40.84 58.9338 40.7867 58.8671 40.76C58.8404 40.7467 58.8471 40.7333 58.8871 40.72C58.9804 40.72 59.0404 40.6733 59.0671 40.58C59.0804 40.4867 59.1538 40.44 59.2871 40.44C59.4071 40.44 59.4671 40.42 59.4671 40.38C59.4671 40.3133 59.3871 40.26 59.2271 40.22L58.9871 40.16L59.2471 40C59.3804 39.92 59.5204 39.86 59.6671 39.82C59.8138 39.7667 60.1204 39.6933 60.5871 39.6C62.6271 39.1467 64.0204 38.3467 64.7671 37.2C65.3004 36.3333 65.5671 35.0533 65.5671 33.36C65.5671 33.1333 65.5538 32.74 65.5271 32.18L65.4671 31.4L64.5471 31.46C63.9738 31.4867 63.5604 31.5267 63.3071 31.58C63.1204 31.62 62.8738 31.6533 62.5671 31.68C62.3671 31.6933 62.2471 31.7133 62.2071 31.74C62.1804 31.7667 62.1538 31.8533 62.1271 32C62.1004 32.1067 62.0604 33.04 62.0071 34.8C61.9538 36.4667 61.9138 37.38 61.8871 37.54C61.8471 37.6867 61.8204 37.76 61.8071 37.76C61.7538 37.76 61.7404 37.6467 61.7671 37.42C61.7671 37.2333 61.7604 37.1733 61.7471 37.24C61.7204 37.3867 61.6604 37.5667 61.5671 37.78C61.4871 37.98 61.4204 38.1067 61.3671 38.16L61.2071 38.38C61.1671 38.46 61.1271 38.4733 61.0871 38.42C61.0338 38.3667 60.9604 38.3267 60.8671 38.3C60.8404 38.2867 60.8071 38.28 60.7671 38.28C60.7138 38.28 60.6671 38.32 60.6271 38.4C60.6138 38.4533 60.6004 38.4867 60.5871 38.5C60.5738 38.5133 60.5538 38.4933 60.5271 38.44C60.5138 38.36 60.4804 38.32 60.4271 38.32C60.3738 38.32 60.3338 38.3667 60.3071 38.46C60.2938 38.54 60.2804 38.54 60.2671 38.46C60.2671 38.3667 60.2404 38.32 60.1871 38.32C60.1604 38.32 60.1004 38.2867 60.0071 38.22C59.9671 38.1667 59.9338 38.14 59.9071 38.14C59.8804 38.14 59.8338 38.16 59.7671 38.2C59.7138 38.2267 59.6738 38.24 59.6471 38.24C59.6071 38.24 59.5471 38.1933 59.4671 38.1C59.3738 37.98 59.3138 37.7867 59.2871 37.52C59.2204 36.9067 59.1738 36.4067 59.1471 36.02C59.1204 35.62 59.1004 35.0933 59.0871 34.44C59.0871 33.5467 59.0604 32.6067 59.0071 31.62C58.9671 31.06 58.9471 30.64 58.9471 30.36C58.9471 30.0667 58.9671 29.7733 59.0071 29.48L59.0871 28.54C59.1004 28.4467 59.1404 28.3933 59.2071 28.38C59.2738 28.3533 59.3204 28.38 59.3471 28.46C59.3471 28.4867 59.3538 28.4933 59.3671 28.48C59.3804 28.4667 59.3871 28.4467 59.3871 28.42C59.3871 28.3533 59.4071 28.3133 59.4471 28.3C59.5004 28.2867 59.5271 28.3133 59.5271 28.38C59.5271 28.4067 59.5338 28.42 59.5471 28.42C59.5738 28.42 59.6138 28.3733 59.6671 28.28C59.7204 28.1867 59.7471 28.1133 59.7471 28.06C59.7471 27.8733 60.0138 27.78 60.5471 27.78C60.8138 27.78 61.0271 27.7867 61.1871 27.8C61.8804 27.8667 62.2271 28.02 62.2271 28.26C62.2271 28.3133 62.2338 28.36 62.2471 28.4C62.2604 28.4267 62.2804 28.44 62.3071 28.44L64.0271 28.48C64.4004 28.4933 64.7938 28.5 65.2071 28.5C65.5271 28.5 65.7138 28.4733 65.7671 28.42C65.8071 28.38 65.8404 28.3533 65.8671 28.34C65.9071 28.3267 65.9338 28.3267 65.9471 28.34C65.9604 28.3533 65.9738 28.36 65.9871 28.36C66.0004 28.3467 66.0071 28.3267 66.0071 28.3C66.0071 28.26 66.0138 28.24 66.0271 28.24C66.0538 28.24 66.0804 28.2533 66.1071 28.28L66.1871 28.32C66.2404 28.32 66.2804 28.3 66.3071 28.26C66.3471 28.22 66.3671 28.1667 66.3671 28.1C66.3671 27.9267 66.6604 27.84 67.2471 27.84C67.5804 27.8533 67.8471 27.8733 68.0471 27.9C68.2604 27.9133 68.4471 27.9467 68.6071 28ZM59.5071 29.04C59.5204 29.0133 59.5271 28.9867 59.5271 28.96C59.5271 28.92 59.5204 28.8867 59.5071 28.86C59.4938 28.8333 59.4804 28.8333 59.4671 28.86C59.4671 28.8733 59.4671 28.9 59.4671 28.94C59.4671 28.98 59.4671 29.0133 59.4671 29.04C59.4804 29.0667 59.4938 29.0667 59.5071 29.04ZM59.4471 29.48C59.4738 29.4 59.4738 29.3267 59.4471 29.26C59.4338 29.22 59.4204 29.2133 59.4071 29.24C59.4071 29.2533 59.4071 29.2867 59.4071 29.34C59.4071 29.3933 59.4071 29.44 59.4071 29.48C59.4204 29.5067 59.4338 29.5067 59.4471 29.48ZM77.5698 40.36C77.5964 40.7067 77.5898 40.88 77.5498 40.88C77.5231 40.88 77.5031 40.8067 77.4898 40.66C77.4764 40.54 77.4564 40.44 77.4298 40.36C77.4031 40.28 77.3831 40.2333 77.3698 40.22C77.3564 40.2067 77.3564 40.2467 77.3698 40.34L77.3898 40.7C77.3898 41.06 77.3631 41.3867 77.3098 41.68C77.2564 41.9733 77.2031 42.0733 77.1498 41.98C77.1364 41.9533 77.1031 41.9267 77.0498 41.9C77.0098 41.8733 76.9631 41.86 76.9098 41.86C76.8431 41.86 76.7964 41.8667 76.7698 41.88C76.7431 41.8933 76.7231 41.9267 76.7098 41.98C76.6964 42.0467 76.6764 42.08 76.6498 42.08C76.6364 42.0933 76.6031 42.0867 76.5498 42.06C76.4964 42.0467 76.4564 42.04 76.4298 42.04C76.4164 42.0533 76.4164 42.0933 76.4298 42.16C76.4298 42.24 76.4164 42.2533 76.3898 42.2C76.3364 42.12 76.2698 42.08 76.1898 42.08C76.0964 42.0533 76.0231 41.9867 75.9698 41.88L75.8898 41.7L75.7898 41.94C75.7498 42.0467 75.7231 42.1067 75.7098 42.12C75.6964 42.1333 75.6631 42.1133 75.6098 42.06L75.3898 41.86C75.2964 41.7667 75.1898 41.26 75.0698 40.34C74.9498 39.4067 74.8698 38.7733 74.8298 38.44H72.6298L72.5698 39.62C72.5431 40.3667 72.5031 40.8533 72.4498 41.08L72.3898 41.38V41.04C72.4164 40.6267 72.4098 40.42 72.3698 40.42C72.3431 40.42 72.3231 40.5267 72.3098 40.74C72.2964 40.94 72.2498 41.1667 72.1698 41.42C72.0898 41.66 72.0031 41.8533 71.9098 42C71.8164 42.1333 71.7498 42.1733 71.7098 42.12C71.6564 42.0267 71.5764 41.98 71.4698 41.98C71.3898 41.98 71.3164 42.0333 71.2498 42.14C71.2231 42.1933 71.1964 42.2267 71.1698 42.24C71.1564 42.2533 71.1498 42.2333 71.1498 42.18C71.1498 42.1 71.1098 42.0667 71.0298 42.08H70.9698C70.8364 42.08 70.7098 41.9667 70.5898 41.74C70.5498 41.6733 70.5231 41.64 70.5098 41.64C70.5098 41.64 70.4764 41.6933 70.4098 41.8C70.3698 41.8933 70.3298 41.94 70.2898 41.94C70.2498 41.94 70.1898 41.8533 70.1098 41.68C69.9898 41.4133 69.8898 40.78 69.8098 39.78C69.7431 38.78 69.7031 37.5733 69.6898 36.16C69.6898 35.2 69.6631 34.1867 69.6098 33.12C69.5564 32.2533 69.5298 31.5 69.5298 30.86C69.5298 30.2733 69.5564 29.7733 69.6098 29.36C69.6764 28.8667 69.7431 28.62 69.8098 28.62C69.8764 28.62 69.9098 28.6667 69.9098 28.76C69.9231 28.8267 69.9498 28.8067 69.9898 28.7C70.0431 28.5667 70.0898 28.54 70.1298 28.62C70.1564 28.66 70.1764 28.6733 70.1898 28.66C70.2164 28.6333 70.2364 28.5933 70.2498 28.54C70.2764 28.4067 70.3231 28.3133 70.3898 28.26C70.4564 28.2067 70.5764 28.1733 70.7498 28.16C70.9898 28.1333 72.0231 28.1067 73.8498 28.08L75.8298 28.04C76.3898 28.04 76.6898 28.0733 76.7298 28.14C76.8098 28.22 76.9164 28.2733 77.0498 28.3L77.2698 28.34L77.2298 29.48C77.1898 30.12 77.1698 31.4133 77.1698 33.36C77.1698 34.6267 77.2698 36.48 77.4698 38.92C77.5364 39.6933 77.5698 40.1733 77.5698 40.36ZM70.1698 28.46C70.1431 28.4867 70.1298 28.4533 70.1298 28.36C70.1298 28.3333 70.1364 28.3133 70.1498 28.3C70.1631 28.2867 70.1764 28.2933 70.1898 28.32C70.2164 28.4 70.2098 28.4467 70.1698 28.46ZM73.1298 30.82C73.1164 30.82 73.1031 30.8267 73.0898 30.84C73.0764 30.84 73.0698 30.84 73.0698 30.84C73.0831 30.84 73.1164 30.8467 73.1698 30.86C73.2364 30.86 73.3164 30.86 73.4098 30.86C73.5298 30.86 73.6231 30.86 73.6898 30.86C73.7564 30.8467 73.7498 30.8333 73.6698 30.82C73.6298 30.8067 73.5431 30.8 73.4098 30.8C73.2764 30.8 73.1831 30.8067 73.1298 30.82ZM73.4298 35.26L74.1898 35.22L74.1698 35.04C74.1431 34.8533 74.1164 34.48 74.0898 33.92C74.0764 33.48 74.0364 32.8867 73.9698 32.14L73.8898 31.24H73.3498C73.0031 31.24 72.8164 31.26 72.7898 31.3C72.7631 31.3267 72.7364 32 72.7098 33.32L72.6498 35.28L73.4298 35.26ZM72.6698 37.94C72.6431 37.9533 72.6364 37.9667 72.6498 37.98C72.6631 37.9933 72.6831 38 72.7098 38C72.8031 38 72.8364 37.9867 72.8098 37.96C72.7564 37.9333 72.7098 37.9267 72.6698 37.94ZM73.7698 37.98C73.8098 37.98 73.8364 37.98 73.8498 37.98C73.8764 37.9667 73.8764 37.9533 73.8498 37.94H73.6698C73.6431 37.9533 73.6431 37.9667 73.6698 37.98C73.6964 37.98 73.7298 37.98 73.7698 37.98ZM74.3498 38.06C74.4298 38.06 74.4898 38.06 74.5298 38.06C74.5698 38.0467 74.5631 38.0333 74.5098 38.02C74.4831 38.0067 74.4298 38 74.3498 38C74.2698 38 74.2164 38.0067 74.1898 38.02L74.1498 38.04C74.1498 38.0533 74.2164 38.06 74.3498 38.06ZM72.7898 38.2C72.8431 38.2 72.8831 38.2 72.9098 38.2C72.9364 38.1867 72.9364 38.1733 72.9098 38.16C72.8564 38.1333 72.7831 38.1333 72.6898 38.16C72.6631 38.1733 72.6564 38.1867 72.6698 38.2C72.6964 38.2 72.7364 38.2 72.7898 38.2ZM87.8021 35.34C87.8821 35.42 87.8954 35.46 87.8421 35.46C87.7754 35.46 87.7554 35.5067 87.7821 35.6L87.8021 35.66C87.8021 35.7 87.7688 35.7867 87.7021 35.92C87.6488 35.9867 87.6154 36.0333 87.6021 36.06C87.6021 36.0867 87.6221 36.1333 87.6621 36.2C87.7021 36.24 87.7221 36.28 87.7221 36.32C87.7221 36.36 87.6821 36.42 87.6021 36.5C87.4421 36.6333 87.2688 36.7067 87.0821 36.72C86.9221 36.7467 86.8221 36.78 86.7821 36.82C86.7554 36.86 86.7221 36.96 86.6821 37.12C86.6021 37.4267 86.4288 37.8267 86.1621 38.32C85.9088 38.8 85.6621 39.18 85.4221 39.46C85.0354 39.9133 84.5754 40.34 84.0421 40.74C83.5221 41.1267 83.0488 41.4 82.6221 41.56C82.2754 41.6933 81.8688 41.8 81.4021 41.88C80.9354 41.96 80.4954 42 80.0821 42C79.6954 42 79.3888 41.96 79.1621 41.88L78.9621 41.82C78.9621 41.8067 78.9954 41.8 79.0621 41.8C79.3954 41.8 79.6021 41.8067 79.6821 41.82C79.7754 41.82 79.8221 41.82 79.8221 41.82C79.6888 41.82 79.4488 41.7667 79.1021 41.66C78.7688 41.5533 78.5821 41.4733 78.5421 41.42L78.3021 41.22C78.2488 41.1667 78.2088 41.1267 78.1821 41.1C78.1554 41.0733 78.1621 41.06 78.2021 41.06C78.2688 41.06 78.3154 41.0133 78.3421 40.92C78.3821 40.8133 78.3754 40.7267 78.3221 40.66C78.2688 40.58 78.2554 40.5067 78.2821 40.44C78.3088 40.4133 78.3154 40.3867 78.3021 40.36C78.2888 40.3333 78.2688 40.32 78.2421 40.32C78.2288 40.32 78.2221 40.3133 78.2221 40.3C78.2221 40.2733 78.2621 40.22 78.3421 40.14C78.4888 40.02 78.5821 39.96 78.6221 39.96C78.6621 39.96 78.6821 39.94 78.6821 39.9C78.6821 39.8467 78.6554 39.8067 78.6021 39.78C78.5621 39.7533 78.5421 39.72 78.5421 39.68C78.5421 39.5867 78.6088 39.52 78.7421 39.48C78.8088 39.44 79.1288 39.38 79.7021 39.3C80.3554 39.2333 80.9021 39.1133 81.3421 38.94C81.7954 38.7667 82.1888 38.52 82.5221 38.2C82.7088 38.0267 82.8888 37.82 83.0621 37.58C83.2488 37.34 83.3421 37.1867 83.3421 37.12C83.3421 37.08 83.2554 37.06 83.0821 37.06C82.8288 37.06 82.4688 37.1 82.0021 37.18C81.6954 37.2333 81.4021 37.26 81.1221 37.26C81.0421 37.26 80.7354 37.2467 80.2021 37.22C79.1888 37.1667 78.8021 37.0667 79.0421 36.92C79.0821 36.8933 79.0888 36.8733 79.0621 36.86C79.0488 36.8333 79.0154 36.8133 78.9621 36.8C78.8954 36.7867 78.8554 36.7733 78.8421 36.76C78.8421 36.7333 78.8754 36.7133 78.9421 36.7C78.9954 36.6733 79.0221 36.6533 79.0221 36.64C79.0221 36.6267 78.9488 36.6067 78.8021 36.58C78.6421 36.5533 78.5288 36.4933 78.4621 36.4C78.4088 36.3067 78.3688 36.12 78.3421 35.84C78.3154 35.5733 78.3421 35.1133 78.4221 34.46C78.5021 33.7933 78.5888 33.3133 78.6821 33.02C79.2021 31.3267 80.4821 29.8933 82.5221 28.72C82.9488 28.48 83.3554 28.3067 83.7421 28.2C84.1421 28.0933 84.5888 28.04 85.0821 28.04C85.5488 28.04 85.8554 28.0533 86.0021 28.08C86.1621 28.1067 86.2421 28.16 86.2421 28.24C86.2421 28.3067 86.2688 28.34 86.3221 28.34C86.3754 28.34 86.3754 28.3733 86.3221 28.44C86.2821 28.48 86.2621 28.5133 86.2621 28.54C86.2754 28.5667 86.3154 28.5933 86.3821 28.62C86.4888 28.6733 86.5754 28.7 86.6421 28.7C86.7221 28.7 86.7688 28.72 86.7821 28.76C86.8754 28.9067 86.9221 29.2867 86.9221 29.9C86.9221 30.3933 86.8888 30.7067 86.8221 30.84C86.7288 31 86.6954 31.0933 86.7221 31.12C86.7488 31.1467 86.6488 31.1733 86.4221 31.2C86.2088 31.2267 85.8954 31.2467 85.4821 31.26C84.6288 31.3 83.8621 31.5133 83.1821 31.9C82.5021 32.2867 81.9688 32.82 81.5821 33.5C81.5021 33.62 81.4421 33.72 81.4021 33.8C81.3621 33.88 81.3354 33.94 81.3221 33.98L82.5221 34.04C82.7888 34.0533 83.0688 34.06 83.3621 34.06C83.5221 34.06 83.6154 34.0533 83.6421 34.04C83.6821 34.0267 83.7021 33.9933 83.7021 33.94C83.7021 33.8467 83.7288 33.78 83.7821 33.74C83.8354 33.7 83.8821 33.7133 83.9221 33.78C83.9488 33.8467 83.9821 33.82 84.0221 33.7C84.0354 33.62 84.0488 33.58 84.0621 33.58C84.0888 33.58 84.1154 33.6133 84.1421 33.68C84.1554 33.6933 84.1621 33.7133 84.1621 33.74C84.1621 33.7533 84.1688 33.76 84.1821 33.76C84.2088 33.76 84.2288 33.68 84.2421 33.52C84.2688 33.3733 84.3021 33.28 84.3421 33.24C84.3954 33.1867 84.5154 33.1267 84.7021 33.06C84.9688 32.9533 85.1154 32.9133 85.1421 32.94H85.2021C85.3888 32.94 85.5421 32.9333 85.6621 32.92C85.8488 32.8933 85.9888 32.88 86.0821 32.88C86.2154 32.88 86.3354 32.8933 86.4421 32.92L86.7421 33L86.8421 33.56C86.8821 33.8 86.9154 33.9533 86.9421 34.02C86.9821 34.0867 87.0421 34.1333 87.1221 34.16C87.1888 34.1733 87.2154 34.1867 87.2021 34.2C87.2021 34.2133 87.1621 34.22 87.0821 34.22C87.0421 34.22 87.0088 34.2267 86.9821 34.24C86.9554 34.24 86.9354 34.24 86.9221 34.24C86.9221 34.2533 87.0088 34.3 87.1821 34.38C87.6621 34.5933 87.8554 34.7867 87.7621 34.96C87.7221 35.04 87.7021 35.1 87.7021 35.14C87.7021 35.2067 87.7354 35.2733 87.8021 35.34ZM85.0421 28.44L85.4021 28.48C85.9354 28.56 86.0954 28.56 85.8821 28.48C85.7754 28.44 85.6021 28.42 85.3621 28.42L85.0421 28.44ZM84.0621 33.38C84.0621 33.2867 84.0821 33.2733 84.1221 33.34C84.1354 33.3667 84.1354 33.3933 84.1221 33.42C84.1221 33.4467 84.1154 33.4667 84.1021 33.48C84.0754 33.5067 84.0621 33.4733 84.0621 33.38ZM79.4021 36.74C79.5354 36.74 79.5821 36.7333 79.5421 36.72C79.4621 36.6933 79.3754 36.6933 79.2821 36.72C79.2421 36.7333 79.2821 36.74 79.4021 36.74ZM80.0221 36.82C80.0888 36.82 80.1421 36.82 80.1821 36.82C80.2221 36.8067 80.2288 36.7933 80.2021 36.78C80.1754 36.78 80.1288 36.78 80.0621 36.78C79.9954 36.7667 79.9421 36.7667 79.9021 36.78L79.8621 36.8C79.8621 36.8133 79.9154 36.82 80.0221 36.82ZM96.9546 31.26C97.1013 32.22 97.1746 33.3467 97.1746 34.64C97.1746 35.56 97.1346 36.46 97.0546 37.34C96.9879 38.22 96.8879 38.9533 96.7546 39.54C96.6613 39.9533 96.5546 40.3467 96.4346 40.72C96.3279 41.08 96.2346 41.32 96.1546 41.44C96.0879 41.5467 96.0413 41.6 96.0146 41.6C96.0013 41.6 96.0346 41.5 96.1146 41.3C96.1813 41.14 96.2146 41 96.2146 40.88C96.2146 40.8267 96.2079 40.8 96.1946 40.8L96.1346 40.96C96.0946 41.1067 96.0146 41.2733 95.8946 41.46C95.7746 41.6333 95.6346 41.7867 95.4746 41.92C95.3813 42.0133 95.3146 42.06 95.2746 42.06C95.2479 42.0733 95.2013 42.0467 95.1346 41.98C95.0413 41.8867 94.9546 41.84 94.8746 41.84C94.7946 41.84 94.7413 41.88 94.7146 41.96C94.7013 42 94.6879 42.02 94.6746 42.02C94.6613 42.02 94.6479 42 94.6346 41.96C94.6213 41.92 94.6013 41.8867 94.5746 41.86C94.5613 41.8333 94.5413 41.82 94.5146 41.82C94.4479 41.82 94.3746 41.78 94.2946 41.7C94.2279 41.6067 94.1946 41.5267 94.1946 41.46C94.1946 41.4067 94.1813 41.38 94.1546 41.38C94.1413 41.3667 94.1079 41.3733 94.0546 41.4C93.9746 41.44 93.9079 41.46 93.8546 41.46C93.7613 41.46 93.7146 41.3467 93.7146 41.12C93.7146 40.8933 93.7879 40.2467 93.9346 39.18C93.9879 38.7933 94.0413 38.2733 94.0946 37.62C94.1613 36.9667 94.1946 36.5067 94.1946 36.24C94.1946 35.9867 94.1879 35.8267 94.1746 35.76C94.1613 35.6933 94.1279 35.6667 94.0746 35.68C93.9679 35.72 93.6346 35.9133 93.0746 36.26L92.1546 36.78V37.22C92.1546 37.46 92.1213 37.9 92.0546 38.54C91.9879 39.1667 91.9213 39.66 91.8546 40.02C91.8013 40.3133 91.7279 40.6333 91.6346 40.98C91.5413 41.3133 91.4813 41.48 91.4546 41.48C91.4413 41.4667 91.4346 41.4467 91.4346 41.42C91.4479 41.3933 91.4613 41.36 91.4746 41.32C91.5146 41.1867 91.5479 41 91.5746 40.76C91.6013 40.52 91.6013 40.4067 91.5746 40.42C91.5346 40.4467 91.5013 40.5533 91.4746 40.74C91.4479 40.9667 91.3813 41.1733 91.2746 41.36C91.1813 41.56 91.0479 41.7667 90.8746 41.98C90.7146 42.1933 90.6346 42.26 90.6346 42.18C90.6346 42.1 90.5813 42.0333 90.4746 41.98C90.3813 41.9133 90.3079 41.9067 90.2546 41.96C90.2013 42.0133 90.1279 42.02 90.0346 41.98C89.9413 41.9267 89.8946 41.9267 89.8946 41.98C89.8946 41.9933 89.8879 42 89.8746 42C89.8613 42 89.8213 41.96 89.7546 41.88C89.6613 41.76 89.6146 41.66 89.6146 41.58C89.6146 41.5133 89.5946 41.48 89.5546 41.48C89.4879 41.48 89.4279 41.5267 89.3746 41.62C89.3346 41.6733 89.3079 41.7 89.2946 41.7C89.2813 41.7 89.2346 41.6267 89.1546 41.48C89.1013 41.2933 89.0746 41.1067 89.0746 40.92L89.1146 40.16L89.1346 39.48L89.1746 38.5V37.9L88.8946 37.92H88.5746C88.3879 37.92 88.2613 37.9133 88.1946 37.9C88.1146 37.8867 88.0746 37.8533 88.0746 37.8C88.0746 37.7333 88.0479 37.7 87.9946 37.7C87.9546 37.7 87.9613 37.66 88.0146 37.58L88.0546 37.5C88.0546 37.42 87.9546 37.3733 87.7546 37.36C87.5279 37.3333 87.4079 37.2333 87.3946 37.06C87.3946 36.9533 87.3746 36.88 87.3346 36.84C87.2946 36.7733 87.2746 36.5067 87.2746 36.04C87.2746 35.64 87.2946 35.38 87.3346 35.26C87.3613 35.14 87.3946 35.08 87.4346 35.08C87.4746 35.08 87.4946 35.04 87.4946 34.96C87.4946 34.9333 87.5013 34.9133 87.5146 34.9C87.5146 34.8733 87.5146 34.86 87.5146 34.86C87.5279 34.86 87.5946 34.8533 87.7146 34.84C87.8213 34.8267 88.0279 34.8133 88.3346 34.8C88.8679 34.7467 89.1546 34.7 89.1946 34.66C89.2079 34.6467 89.2146 34.5733 89.2146 34.44C89.2146 34.16 89.1946 33.7933 89.1546 33.34C89.1279 32.8867 89.0879 32.56 89.0346 32.36C88.9946 32.2 88.9413 31.82 88.8746 31.22C88.8079 30.62 88.7479 30.0733 88.6946 29.58C88.6813 29.4733 88.6746 29.3467 88.6746 29.2C88.6746 29.0533 88.6946 28.98 88.7346 28.98C88.8013 28.98 88.8679 28.9333 88.9346 28.84C88.9746 28.7733 89.0013 28.7467 89.0146 28.76C89.0279 28.76 89.0346 28.7933 89.0346 28.86C89.0346 28.8867 89.0413 28.9 89.0546 28.9C89.0546 28.8867 89.0613 28.8667 89.0746 28.84C89.1013 28.8133 89.1213 28.7733 89.1346 28.72C89.1879 28.5333 89.3013 28.3933 89.4746 28.3C89.6613 28.1933 89.9479 28.1067 90.3346 28.04C90.6946 27.9867 90.9479 27.96 91.0946 27.96C91.2146 27.96 91.3146 27.9667 91.3946 27.98C91.5013 27.9933 91.5679 28.0333 91.5946 28.1C91.6346 28.1533 91.6879 28.3067 91.7546 28.56C91.8879 29.1867 92.0013 29.9133 92.0946 30.74C92.1879 31.5533 92.2346 32.2467 92.2346 32.82C92.2346 33.1667 92.2479 33.34 92.2746 33.34L92.9546 33.04C93.3679 32.8533 93.6213 32.76 93.7146 32.76C93.7546 32.76 93.7813 32.7267 93.7946 32.66C93.8079 32.5933 93.8146 32.4933 93.8146 32.36V31.6C93.8146 31.4933 93.8213 31.42 93.8346 31.38C93.8479 31.3267 93.8746 31.3067 93.9146 31.32H93.9546C94.0213 31.32 94.0613 31.28 94.0746 31.2C94.0879 31.1333 94.1013 31.1 94.1146 31.1C94.1413 31.0867 94.1613 31.1133 94.1746 31.18C94.1879 31.1933 94.1946 31.2133 94.1946 31.24C94.1946 31.2533 94.2013 31.26 94.2146 31.26C94.2279 31.26 94.2546 31.1867 94.2946 31.04C94.3346 30.92 94.3813 30.8333 94.4346 30.78C94.4879 30.7133 94.5879 30.6467 94.7346 30.58C94.9079 30.5 95.0546 30.4533 95.1746 30.44C95.3079 30.4133 95.5279 30.4 95.8346 30.4C95.9279 30.4 96.1013 30.4 96.3546 30.4C96.6213 30.4 96.7679 30.4533 96.7946 30.56C96.8346 30.6533 96.8879 30.8867 96.9546 31.26ZM89.1546 29.8C89.1679 29.76 89.1746 29.7 89.1746 29.62C89.1746 29.5267 89.1679 29.46 89.1546 29.42L89.1346 29.38C89.1346 29.3933 89.1279 29.42 89.1146 29.46C89.1146 29.4867 89.1146 29.5333 89.1146 29.6C89.1146 29.68 89.1146 29.7467 89.1146 29.8C89.1279 29.84 89.1413 29.84 89.1546 29.8ZM94.2346 32.08C94.2479 32.04 94.2546 31.9733 94.2546 31.88C94.2546 31.76 94.2479 31.68 94.2346 31.64V31.58C94.2213 31.58 94.2146 31.6667 94.2146 31.84C94.2146 31.9467 94.2146 32.0333 94.2146 32.1C94.2279 32.1533 94.2346 32.1467 94.2346 32.08ZM93.7546 32.96C93.8079 32.96 93.8346 32.94 93.8346 32.9C93.8346 32.8467 93.8146 32.82 93.7746 32.82C93.7213 32.82 93.6546 32.86 93.5746 32.94C93.5213 32.98 93.4946 33.0067 93.4946 33.02C93.4946 33.0333 93.5146 33.0333 93.5546 33.02C93.6346 32.98 93.7013 32.96 93.7546 32.96ZM87.6346 37.5C87.7013 37.4733 87.7479 37.4733 87.7746 37.5C87.8013 37.5267 87.7679 37.54 87.6746 37.54C87.6479 37.54 87.6279 37.5333 87.6146 37.52C87.6013 37.5067 87.6079 37.5 87.6346 37.5ZM88.7746 37.52C88.8946 37.52 88.9813 37.52 89.0346 37.52C89.1013 37.5067 89.0946 37.5 89.0146 37.5C88.9613 37.4867 88.8746 37.48 88.7546 37.48C88.6346 37.48 88.5479 37.4867 88.4946 37.5C88.4679 37.5 88.4546 37.5067 88.4546 37.52H88.7746Z" fill="#1C1B1F"/>
<mask id="mask0_30_1083" style="mask-type:alpha" maskUnits="userSpaceOnUse" x="22" y="22" width="25" height="24">
<rect x="22.7793" y="22" width="24" height="24" fill="#D9D9D9"/>
</mask>
<g mask="url(#mask0_30_1083)">
<path d="M34.7793 32.8L30.1793 37.4L28.7793 36L34.7793 30L40.7793 36L39.3793 37.4L34.7793 32.8Z" fill="#1C1B1F"/>
</g>
<defs>
<clipPath id="clip0_30_1083">
<rect width="122" height="76" fill="white" transform="translate(0 4)"/>
</clipPath>
</defs>
</svg>
