<svg width="122" height="80" viewBox="0 0 122 80" fill="none" xmlns="http://www.w3.org/2000/svg">
<path fill-rule="evenodd" clip-rule="evenodd" d="M6.7734 18.3899H115.226C118.915 18.3899 122 22.5292 122 27.6781V70.6212C122 75.7702 118.915 80 115.226 80H6.7734C3.08452 80 -0.000244141 75.7702 -0.000244141 70.6212V27.6781C-0.000244141 22.5292 3.08452 18.3899 6.7734 18.3899Z" fill="#1C1C1C"/>
<path fill-rule="evenodd" clip-rule="evenodd" d="M6.50532 17.8384H115.494C119.116 17.8384 122 21.792 122 26.6657V67.7696C122 72.7347 119.116 76.6883 115.494 76.6883H6.50532C2.95048 76.6883 -0.000244141 72.7347 -0.000244141 67.7696V26.6657C-0.000244141 21.792 2.95048 17.8384 6.50532 17.8384Z" fill="#353535"/>
<path fill-rule="evenodd" clip-rule="evenodd" d="M6.7734 13.241H115.226C118.915 13.241 122 17.4708 122 22.5292V65.5637C122 70.7145 118.915 74.8511 115.226 74.8511H6.7734C3.08452 74.8511 -0.000244141 70.7136 -0.000244141 65.5637V22.5292C-0.000244141 17.4708 3.08452 13.241 6.7734 13.241Z" fill="#1C1C1C"/>
<path fill-rule="evenodd" clip-rule="evenodd" d="M10.6633 7.44812H110.464C113.952 7.44812 116.768 11.3103 116.768 16.0002V55.724C116.768 60.4138 113.952 64.276 110.464 64.276H10.6633C7.24345 64.276 4.42676 60.4138 4.42676 55.724V16.0002C4.42676 11.3103 7.24345 7.44812 10.6633 7.44812Z" fill="#C1C1C1"/>
<path fill-rule="evenodd" clip-rule="evenodd" d="M10.6633 1.65442H110.464C113.952 1.65442 116.768 5.51752 116.768 10.2074V49.9321C116.768 54.6201 113.952 58.4832 110.464 58.4832H10.6633C7.24345 58.4832 4.42676 54.6201 4.42676 49.9321V10.2074C4.42676 5.51752 7.24345 1.65442 10.6633 1.65442Z" fill="white"/>
<path fill-rule="evenodd" clip-rule="evenodd" d="M10.6633 0H110.464C113.952 0 116.768 3.86218 116.768 8.55111V48.2768C116.768 52.9648 113.952 56.8288 110.464 56.8288H10.6633C7.24345 56.8288 4.42676 52.9648 4.42676 48.2768V8.55111C4.42676 3.86218 7.24345 0 10.6633 0Z" fill="#F2F2F2"/>
<path d="M68.6071 24C68.7138 24.04 68.7871 24.08 68.8271 24.12C68.8804 24.16 68.9071 24.2067 68.9071 24.26C68.8938 24.9667 68.8471 26.0533 68.7671 27.52C68.7004 28.9733 68.6471 29.8867 68.6071 30.26C68.3804 33.1267 67.3338 35.2533 65.4671 36.64C64.8938 37.0667 64.1471 37.4333 63.2271 37.74C62.3204 38.0467 61.5271 38.2 60.8471 38.2C60.6871 38.2 60.5671 38.1933 60.4871 38.18C60.3671 38.1667 60.3071 38.1533 60.3071 38.14L60.7871 38.1C61.2004 38.0467 61.4538 38 61.5471 37.96C61.6271 37.9067 61.6204 37.8933 61.5271 37.92C61.3138 37.9733 61.0471 38 60.7271 38C60.2471 38 59.7271 37.92 59.1671 37.76C59.0204 37.72 58.9204 37.6867 58.8671 37.66C58.8271 37.6333 58.8404 37.6 58.9071 37.56C59.0271 37.4933 59.0871 37.4133 59.0871 37.32C59.0871 37.2133 59.0271 37.14 58.9071 37.1C58.8538 37.0867 58.8138 37.0733 58.7871 37.06C58.7738 37.0333 58.7871 37.02 58.8271 37.02C58.8938 37.02 58.9338 36.9867 58.9471 36.92C58.9604 36.84 58.9338 36.7867 58.8671 36.76C58.8404 36.7467 58.8471 36.7333 58.8871 36.72C58.9804 36.72 59.0404 36.6733 59.0671 36.58C59.0804 36.4867 59.1538 36.44 59.2871 36.44C59.4071 36.44 59.4671 36.42 59.4671 36.38C59.4671 36.3133 59.3871 36.26 59.2271 36.22L58.9871 36.16L59.2471 36C59.3804 35.92 59.5204 35.86 59.6671 35.82C59.8138 35.7667 60.1204 35.6933 60.5871 35.6C62.6271 35.1467 64.0204 34.3467 64.7671 33.2C65.3004 32.3333 65.5671 31.0533 65.5671 29.36C65.5671 29.1333 65.5538 28.74 65.5271 28.18L65.4671 27.4L64.5471 27.46C63.9738 27.4867 63.5604 27.5267 63.3071 27.58C63.1204 27.62 62.8738 27.6533 62.5671 27.68C62.3671 27.6933 62.2471 27.7133 62.2071 27.74C62.1804 27.7667 62.1538 27.8533 62.1271 28C62.1004 28.1067 62.0604 29.04 62.0071 30.8C61.9538 32.4667 61.9138 33.38 61.8871 33.54C61.8471 33.6867 61.8204 33.76 61.8071 33.76C61.7538 33.76 61.7404 33.6467 61.7671 33.42C61.7671 33.2333 61.7604 33.1733 61.7471 33.24C61.7204 33.3867 61.6604 33.5667 61.5671 33.78C61.4871 33.98 61.4204 34.1067 61.3671 34.16L61.2071 34.38C61.1671 34.46 61.1271 34.4733 61.0871 34.42C61.0338 34.3667 60.9604 34.3267 60.8671 34.3C60.8404 34.2867 60.8071 34.28 60.7671 34.28C60.7138 34.28 60.6671 34.32 60.6271 34.4C60.6138 34.4533 60.6004 34.4867 60.5871 34.5C60.5738 34.5133 60.5538 34.4933 60.5271 34.44C60.5138 34.36 60.4804 34.32 60.4271 34.32C60.3738 34.32 60.3338 34.3667 60.3071 34.46C60.2938 34.54 60.2804 34.54 60.2671 34.46C60.2671 34.3667 60.2404 34.32 60.1871 34.32C60.1604 34.32 60.1004 34.2867 60.0071 34.22C59.9671 34.1667 59.9338 34.14 59.9071 34.14C59.8804 34.14 59.8338 34.16 59.7671 34.2C59.7138 34.2267 59.6738 34.24 59.6471 34.24C59.6071 34.24 59.5471 34.1933 59.4671 34.1C59.3738 33.98 59.3138 33.7867 59.2871 33.52C59.2204 32.9067 59.1738 32.4067 59.1471 32.02C59.1204 31.62 59.1004 31.0933 59.0871 30.44C59.0871 29.5467 59.0604 28.6067 59.0071 27.62C58.9671 27.06 58.9471 26.64 58.9471 26.36C58.9471 26.0667 58.9671 25.7733 59.0071 25.48L59.0871 24.54C59.1004 24.4467 59.1404 24.3933 59.2071 24.38C59.2738 24.3533 59.3204 24.38 59.3471 24.46C59.3471 24.4867 59.3538 24.4933 59.3671 24.48C59.3804 24.4667 59.3871 24.4467 59.3871 24.42C59.3871 24.3533 59.4071 24.3133 59.4471 24.3C59.5004 24.2867 59.5271 24.3133 59.5271 24.38C59.5271 24.4067 59.5338 24.42 59.5471 24.42C59.5738 24.42 59.6138 24.3733 59.6671 24.28C59.7204 24.1867 59.7471 24.1133 59.7471 24.06C59.7471 23.8733 60.0138 23.78 60.5471 23.78C60.8138 23.78 61.0271 23.7867 61.1871 23.8C61.8804 23.8667 62.2271 24.02 62.2271 24.26C62.2271 24.3133 62.2338 24.36 62.2471 24.4C62.2604 24.4267 62.2804 24.44 62.3071 24.44L64.0271 24.48C64.4004 24.4933 64.7938 24.5 65.2071 24.5C65.5271 24.5 65.7138 24.4733 65.7671 24.42C65.8071 24.38 65.8404 24.3533 65.8671 24.34C65.9071 24.3267 65.9338 24.3267 65.9471 24.34C65.9604 24.3533 65.9738 24.36 65.9871 24.36C66.0004 24.3467 66.0071 24.3267 66.0071 24.3C66.0071 24.26 66.0138 24.24 66.0271 24.24C66.0538 24.24 66.0804 24.2533 66.1071 24.28L66.1871 24.32C66.2404 24.32 66.2804 24.3 66.3071 24.26C66.3471 24.22 66.3671 24.1667 66.3671 24.1C66.3671 23.9267 66.6604 23.84 67.2471 23.84C67.5804 23.8533 67.8471 23.8733 68.0471 23.9C68.2604 23.9133 68.4471 23.9467 68.6071 24ZM59.5071 25.04C59.5204 25.0133 59.5271 24.9867 59.5271 24.96C59.5271 24.92 59.5204 24.8867 59.5071 24.86C59.4938 24.8333 59.4804 24.8333 59.4671 24.86C59.4671 24.8733 59.4671 24.9 59.4671 24.94C59.4671 24.98 59.4671 25.0133 59.4671 25.04C59.4804 25.0667 59.4938 25.0667 59.5071 25.04ZM59.4471 25.48C59.4738 25.4 59.4738 25.3267 59.4471 25.26C59.4338 25.22 59.4204 25.2133 59.4071 25.24C59.4071 25.2533 59.4071 25.2867 59.4071 25.34C59.4071 25.3933 59.4071 25.44 59.4071 25.48C59.4204 25.5067 59.4338 25.5067 59.4471 25.48ZM77.5698 36.36C77.5964 36.7067 77.5898 36.88 77.5498 36.88C77.5231 36.88 77.5031 36.8067 77.4898 36.66C77.4764 36.54 77.4564 36.44 77.4298 36.36C77.4031 36.28 77.3831 36.2333 77.3698 36.22C77.3564 36.2067 77.3564 36.2467 77.3698 36.34L77.3898 36.7C77.3898 37.06 77.3631 37.3867 77.3098 37.68C77.2564 37.9733 77.2031 38.0733 77.1498 37.98C77.1364 37.9533 77.1031 37.9267 77.0498 37.9C77.0098 37.8733 76.9631 37.86 76.9098 37.86C76.8431 37.86 76.7964 37.8667 76.7698 37.88C76.7431 37.8933 76.7231 37.9267 76.7098 37.98C76.6964 38.0467 76.6764 38.08 76.6498 38.08C76.6364 38.0933 76.6031 38.0867 76.5498 38.06C76.4964 38.0467 76.4564 38.04 76.4298 38.04C76.4164 38.0533 76.4164 38.0933 76.4298 38.16C76.4298 38.24 76.4164 38.2533 76.3898 38.2C76.3364 38.12 76.2698 38.08 76.1898 38.08C76.0964 38.0533 76.0231 37.9867 75.9698 37.88L75.8898 37.7L75.7898 37.94C75.7498 38.0467 75.7231 38.1067 75.7098 38.12C75.6964 38.1333 75.6631 38.1133 75.6098 38.06L75.3898 37.86C75.2964 37.7667 75.1898 37.26 75.0698 36.34C74.9498 35.4067 74.8698 34.7733 74.8298 34.44H72.6298L72.5698 35.62C72.5431 36.3667 72.5031 36.8533 72.4498 37.08L72.3898 37.38V37.04C72.4164 36.6267 72.4098 36.42 72.3698 36.42C72.3431 36.42 72.3231 36.5267 72.3098 36.74C72.2964 36.94 72.2498 37.1667 72.1698 37.42C72.0898 37.66 72.0031 37.8533 71.9098 38C71.8164 38.1333 71.7498 38.1733 71.7098 38.12C71.6564 38.0267 71.5764 37.98 71.4698 37.98C71.3898 37.98 71.3164 38.0333 71.2498 38.14C71.2231 38.1933 71.1964 38.2267 71.1698 38.24C71.1564 38.2533 71.1498 38.2333 71.1498 38.18C71.1498 38.1 71.1098 38.0667 71.0298 38.08H70.9698C70.8364 38.08 70.7098 37.9667 70.5898 37.74C70.5498 37.6733 70.5231 37.64 70.5098 37.64C70.5098 37.64 70.4764 37.6933 70.4098 37.8C70.3698 37.8933 70.3298 37.94 70.2898 37.94C70.2498 37.94 70.1898 37.8533 70.1098 37.68C69.9898 37.4133 69.8898 36.78 69.8098 35.78C69.7431 34.78 69.7031 33.5733 69.6898 32.16C69.6898 31.2 69.6631 30.1867 69.6098 29.12C69.5564 28.2533 69.5298 27.5 69.5298 26.86C69.5298 26.2733 69.5564 25.7733 69.6098 25.36C69.6764 24.8667 69.7431 24.62 69.8098 24.62C69.8764 24.62 69.9098 24.6667 69.9098 24.76C69.9231 24.8267 69.9498 24.8067 69.9898 24.7C70.0431 24.5667 70.0898 24.54 70.1298 24.62C70.1564 24.66 70.1764 24.6733 70.1898 24.66C70.2164 24.6333 70.2364 24.5933 70.2498 24.54C70.2764 24.4067 70.3231 24.3133 70.3898 24.26C70.4564 24.2067 70.5764 24.1733 70.7498 24.16C70.9898 24.1333 72.0231 24.1067 73.8498 24.08L75.8298 24.04C76.3898 24.04 76.6898 24.0733 76.7298 24.14C76.8098 24.22 76.9164 24.2733 77.0498 24.3L77.2698 24.34L77.2298 25.48C77.1898 26.12 77.1698 27.4133 77.1698 29.36C77.1698 30.6267 77.2698 32.48 77.4698 34.92C77.5364 35.6933 77.5698 36.1733 77.5698 36.36ZM70.1698 24.46C70.1431 24.4867 70.1298 24.4533 70.1298 24.36C70.1298 24.3333 70.1364 24.3133 70.1498 24.3C70.1631 24.2867 70.1764 24.2933 70.1898 24.32C70.2164 24.4 70.2098 24.4467 70.1698 24.46ZM73.1298 26.82C73.1164 26.82 73.1031 26.8267 73.0898 26.84C73.0764 26.84 73.0698 26.84 73.0698 26.84C73.0831 26.84 73.1164 26.8467 73.1698 26.86C73.2364 26.86 73.3164 26.86 73.4098 26.86C73.5298 26.86 73.6231 26.86 73.6898 26.86C73.7564 26.8467 73.7498 26.8333 73.6698 26.82C73.6298 26.8067 73.5431 26.8 73.4098 26.8C73.2764 26.8 73.1831 26.8067 73.1298 26.82ZM73.4298 31.26L74.1898 31.22L74.1698 31.04C74.1431 30.8533 74.1164 30.48 74.0898 29.92C74.0764 29.48 74.0364 28.8867 73.9698 28.14L73.8898 27.24H73.3498C73.0031 27.24 72.8164 27.26 72.7898 27.3C72.7631 27.3267 72.7364 28 72.7098 29.32L72.6498 31.28L73.4298 31.26ZM72.6698 33.94C72.6431 33.9533 72.6364 33.9667 72.6498 33.98C72.6631 33.9933 72.6831 34 72.7098 34C72.8031 34 72.8364 33.9867 72.8098 33.96C72.7564 33.9333 72.7098 33.9267 72.6698 33.94ZM73.7698 33.98C73.8098 33.98 73.8364 33.98 73.8498 33.98C73.8764 33.9667 73.8764 33.9533 73.8498 33.94H73.6698C73.6431 33.9533 73.6431 33.9667 73.6698 33.98C73.6964 33.98 73.7298 33.98 73.7698 33.98ZM74.3498 34.06C74.4298 34.06 74.4898 34.06 74.5298 34.06C74.5698 34.0467 74.5631 34.0333 74.5098 34.02C74.4831 34.0067 74.4298 34 74.3498 34C74.2698 34 74.2164 34.0067 74.1898 34.02L74.1498 34.04C74.1498 34.0533 74.2164 34.06 74.3498 34.06ZM72.7898 34.2C72.8431 34.2 72.8831 34.2 72.9098 34.2C72.9364 34.1867 72.9364 34.1733 72.9098 34.16C72.8564 34.1333 72.7831 34.1333 72.6898 34.16C72.6631 34.1733 72.6564 34.1867 72.6698 34.2C72.6964 34.2 72.7364 34.2 72.7898 34.2ZM87.8021 31.34C87.8821 31.42 87.8954 31.46 87.8421 31.46C87.7754 31.46 87.7554 31.5067 87.7821 31.6L87.8021 31.66C87.8021 31.7 87.7688 31.7867 87.7021 31.92C87.6488 31.9867 87.6154 32.0333 87.6021 32.06C87.6021 32.0867 87.6221 32.1333 87.6621 32.2C87.7021 32.24 87.7221 32.28 87.7221 32.32C87.7221 32.36 87.6821 32.42 87.6021 32.5C87.4421 32.6333 87.2688 32.7067 87.0821 32.72C86.9221 32.7467 86.8221 32.78 86.7821 32.82C86.7554 32.86 86.7221 32.96 86.6821 33.12C86.6021 33.4267 86.4288 33.8267 86.1621 34.32C85.9088 34.8 85.6621 35.18 85.4221 35.46C85.0354 35.9133 84.5754 36.34 84.0421 36.74C83.5221 37.1267 83.0488 37.4 82.6221 37.56C82.2754 37.6933 81.8688 37.8 81.4021 37.88C80.9354 37.96 80.4954 38 80.0821 38C79.6954 38 79.3888 37.96 79.1621 37.88L78.9621 37.82C78.9621 37.8067 78.9954 37.8 79.0621 37.8C79.3954 37.8 79.6021 37.8067 79.6821 37.82C79.7754 37.82 79.8221 37.82 79.8221 37.82C79.6888 37.82 79.4488 37.7667 79.1021 37.66C78.7688 37.5533 78.5821 37.4733 78.5421 37.42L78.3021 37.22C78.2488 37.1667 78.2088 37.1267 78.1821 37.1C78.1554 37.0733 78.1621 37.06 78.2021 37.06C78.2688 37.06 78.3154 37.0133 78.3421 36.92C78.3821 36.8133 78.3754 36.7267 78.3221 36.66C78.2688 36.58 78.2554 36.5067 78.2821 36.44C78.3088 36.4133 78.3154 36.3867 78.3021 36.36C78.2888 36.3333 78.2688 36.32 78.2421 36.32C78.2288 36.32 78.2221 36.3133 78.2221 36.3C78.2221 36.2733 78.2621 36.22 78.3421 36.14C78.4888 36.02 78.5821 35.96 78.6221 35.96C78.6621 35.96 78.6821 35.94 78.6821 35.9C78.6821 35.8467 78.6554 35.8067 78.6021 35.78C78.5621 35.7533 78.5421 35.72 78.5421 35.68C78.5421 35.5867 78.6088 35.52 78.7421 35.48C78.8088 35.44 79.1288 35.38 79.7021 35.3C80.3554 35.2333 80.9021 35.1133 81.3421 34.94C81.7954 34.7667 82.1888 34.52 82.5221 34.2C82.7088 34.0267 82.8888 33.82 83.0621 33.58C83.2488 33.34 83.3421 33.1867 83.3421 33.12C83.3421 33.08 83.2554 33.06 83.0821 33.06C82.8288 33.06 82.4688 33.1 82.0021 33.18C81.6954 33.2333 81.4021 33.26 81.1221 33.26C81.0421 33.26 80.7354 33.2467 80.2021 33.22C79.1888 33.1667 78.8021 33.0667 79.0421 32.92C79.0821 32.8933 79.0888 32.8733 79.0621 32.86C79.0488 32.8333 79.0154 32.8133 78.9621 32.8C78.8954 32.7867 78.8554 32.7733 78.8421 32.76C78.8421 32.7333 78.8754 32.7133 78.9421 32.7C78.9954 32.6733 79.0221 32.6533 79.0221 32.64C79.0221 32.6267 78.9488 32.6067 78.8021 32.58C78.6421 32.5533 78.5288 32.4933 78.4621 32.4C78.4088 32.3067 78.3688 32.12 78.3421 31.84C78.3154 31.5733 78.3421 31.1133 78.4221 30.46C78.5021 29.7933 78.5888 29.3133 78.6821 29.02C79.2021 27.3267 80.4821 25.8933 82.5221 24.72C82.9488 24.48 83.3554 24.3067 83.7421 24.2C84.1421 24.0933 84.5888 24.04 85.0821 24.04C85.5488 24.04 85.8554 24.0533 86.0021 24.08C86.1621 24.1067 86.2421 24.16 86.2421 24.24C86.2421 24.3067 86.2688 24.34 86.3221 24.34C86.3754 24.34 86.3754 24.3733 86.3221 24.44C86.2821 24.48 86.2621 24.5133 86.2621 24.54C86.2754 24.5667 86.3154 24.5933 86.3821 24.62C86.4888 24.6733 86.5754 24.7 86.6421 24.7C86.7221 24.7 86.7688 24.72 86.7821 24.76C86.8754 24.9067 86.9221 25.2867 86.9221 25.9C86.9221 26.3933 86.8888 26.7067 86.8221 26.84C86.7288 27 86.6954 27.0933 86.7221 27.12C86.7488 27.1467 86.6488 27.1733 86.4221 27.2C86.2088 27.2267 85.8954 27.2467 85.4821 27.26C84.6288 27.3 83.8621 27.5133 83.1821 27.9C82.5021 28.2867 81.9688 28.82 81.5821 29.5C81.5021 29.62 81.4421 29.72 81.4021 29.8C81.3621 29.88 81.3354 29.94 81.3221 29.98L82.5221 30.04C82.7888 30.0533 83.0688 30.06 83.3621 30.06C83.5221 30.06 83.6154 30.0533 83.6421 30.04C83.6821 30.0267 83.7021 29.9933 83.7021 29.94C83.7021 29.8467 83.7288 29.78 83.7821 29.74C83.8354 29.7 83.8821 29.7133 83.9221 29.78C83.9488 29.8467 83.9821 29.82 84.0221 29.7C84.0354 29.62 84.0488 29.58 84.0621 29.58C84.0888 29.58 84.1154 29.6133 84.1421 29.68C84.1554 29.6933 84.1621 29.7133 84.1621 29.74C84.1621 29.7533 84.1688 29.76 84.1821 29.76C84.2088 29.76 84.2288 29.68 84.2421 29.52C84.2688 29.3733 84.3021 29.28 84.3421 29.24C84.3954 29.1867 84.5154 29.1267 84.7021 29.06C84.9688 28.9533 85.1154 28.9133 85.1421 28.94H85.2021C85.3888 28.94 85.5421 28.9333 85.6621 28.92C85.8488 28.8933 85.9888 28.88 86.0821 28.88C86.2154 28.88 86.3354 28.8933 86.4421 28.92L86.7421 29L86.8421 29.56C86.8821 29.8 86.9154 29.9533 86.9421 30.02C86.9821 30.0867 87.0421 30.1333 87.1221 30.16C87.1888 30.1733 87.2154 30.1867 87.2021 30.2C87.2021 30.2133 87.1621 30.22 87.0821 30.22C87.0421 30.22 87.0088 30.2267 86.9821 30.24C86.9554 30.24 86.9354 30.24 86.9221 30.24C86.9221 30.2533 87.0088 30.3 87.1821 30.38C87.6621 30.5933 87.8554 30.7867 87.7621 30.96C87.7221 31.04 87.7021 31.1 87.7021 31.14C87.7021 31.2067 87.7354 31.2733 87.8021 31.34ZM85.0421 24.44L85.4021 24.48C85.9354 24.56 86.0954 24.56 85.8821 24.48C85.7754 24.44 85.6021 24.42 85.3621 24.42L85.0421 24.44ZM84.0621 29.38C84.0621 29.2867 84.0821 29.2733 84.1221 29.34C84.1354 29.3667 84.1354 29.3933 84.1221 29.42C84.1221 29.4467 84.1154 29.4667 84.1021 29.48C84.0754 29.5067 84.0621 29.4733 84.0621 29.38ZM79.4021 32.74C79.5354 32.74 79.5821 32.7333 79.5421 32.72C79.4621 32.6933 79.3754 32.6933 79.2821 32.72C79.2421 32.7333 79.2821 32.74 79.4021 32.74ZM80.0221 32.82C80.0888 32.82 80.1421 32.82 80.1821 32.82C80.2221 32.8067 80.2288 32.7933 80.2021 32.78C80.1754 32.78 80.1288 32.78 80.0621 32.78C79.9954 32.7667 79.9421 32.7667 79.9021 32.78L79.8621 32.8C79.8621 32.8133 79.9154 32.82 80.0221 32.82ZM96.9546 27.26C97.1013 28.22 97.1746 29.3467 97.1746 30.64C97.1746 31.56 97.1346 32.46 97.0546 33.34C96.9879 34.22 96.8879 34.9533 96.7546 35.54C96.6613 35.9533 96.5546 36.3467 96.4346 36.72C96.3279 37.08 96.2346 37.32 96.1546 37.44C96.0879 37.5467 96.0413 37.6 96.0146 37.6C96.0013 37.6 96.0346 37.5 96.1146 37.3C96.1813 37.14 96.2146 37 96.2146 36.88C96.2146 36.8267 96.2079 36.8 96.1946 36.8L96.1346 36.96C96.0946 37.1067 96.0146 37.2733 95.8946 37.46C95.7746 37.6333 95.6346 37.7867 95.4746 37.92C95.3813 38.0133 95.3146 38.06 95.2746 38.06C95.2479 38.0733 95.2013 38.0467 95.1346 37.98C95.0413 37.8867 94.9546 37.84 94.8746 37.84C94.7946 37.84 94.7413 37.88 94.7146 37.96C94.7013 38 94.6879 38.02 94.6746 38.02C94.6613 38.02 94.6479 38 94.6346 37.96C94.6213 37.92 94.6013 37.8867 94.5746 37.86C94.5613 37.8333 94.5413 37.82 94.5146 37.82C94.4479 37.82 94.3746 37.78 94.2946 37.7C94.2279 37.6067 94.1946 37.5267 94.1946 37.46C94.1946 37.4067 94.1813 37.38 94.1546 37.38C94.1413 37.3667 94.1079 37.3733 94.0546 37.4C93.9746 37.44 93.9079 37.46 93.8546 37.46C93.7613 37.46 93.7146 37.3467 93.7146 37.12C93.7146 36.8933 93.7879 36.2467 93.9346 35.18C93.9879 34.7933 94.0413 34.2733 94.0946 33.62C94.1613 32.9667 94.1946 32.5067 94.1946 32.24C94.1946 31.9867 94.1879 31.8267 94.1746 31.76C94.1613 31.6933 94.1279 31.6667 94.0746 31.68C93.9679 31.72 93.6346 31.9133 93.0746 32.26L92.1546 32.78V33.22C92.1546 33.46 92.1213 33.9 92.0546 34.54C91.9879 35.1667 91.9213 35.66 91.8546 36.02C91.8013 36.3133 91.7279 36.6333 91.6346 36.98C91.5413 37.3133 91.4813 37.48 91.4546 37.48C91.4413 37.4667 91.4346 37.4467 91.4346 37.42C91.4479 37.3933 91.4613 37.36 91.4746 37.32C91.5146 37.1867 91.5479 37 91.5746 36.76C91.6013 36.52 91.6013 36.4067 91.5746 36.42C91.5346 36.4467 91.5013 36.5533 91.4746 36.74C91.4479 36.9667 91.3813 37.1733 91.2746 37.36C91.1813 37.56 91.0479 37.7667 90.8746 37.98C90.7146 38.1933 90.6346 38.26 90.6346 38.18C90.6346 38.1 90.5813 38.0333 90.4746 37.98C90.3813 37.9133 90.3079 37.9067 90.2546 37.96C90.2013 38.0133 90.1279 38.02 90.0346 37.98C89.9413 37.9267 89.8946 37.9267 89.8946 37.98C89.8946 37.9933 89.8879 38 89.8746 38C89.8613 38 89.8213 37.96 89.7546 37.88C89.6613 37.76 89.6146 37.66 89.6146 37.58C89.6146 37.5133 89.5946 37.48 89.5546 37.48C89.4879 37.48 89.4279 37.5267 89.3746 37.62C89.3346 37.6733 89.3079 37.7 89.2946 37.7C89.2813 37.7 89.2346 37.6267 89.1546 37.48C89.1013 37.2933 89.0746 37.1067 89.0746 36.92L89.1146 36.16L89.1346 35.48L89.1746 34.5V33.9L88.8946 33.92H88.5746C88.3879 33.92 88.2613 33.9133 88.1946 33.9C88.1146 33.8867 88.0746 33.8533 88.0746 33.8C88.0746 33.7333 88.0479 33.7 87.9946 33.7C87.9546 33.7 87.9613 33.66 88.0146 33.58L88.0546 33.5C88.0546 33.42 87.9546 33.3733 87.7546 33.36C87.5279 33.3333 87.4079 33.2333 87.3946 33.06C87.3946 32.9533 87.3746 32.88 87.3346 32.84C87.2946 32.7733 87.2746 32.5067 87.2746 32.04C87.2746 31.64 87.2946 31.38 87.3346 31.26C87.3613 31.14 87.3946 31.08 87.4346 31.08C87.4746 31.08 87.4946 31.04 87.4946 30.96C87.4946 30.9333 87.5013 30.9133 87.5146 30.9C87.5146 30.8733 87.5146 30.86 87.5146 30.86C87.5279 30.86 87.5946 30.8533 87.7146 30.84C87.8213 30.8267 88.0279 30.8133 88.3346 30.8C88.8679 30.7467 89.1546 30.7 89.1946 30.66C89.2079 30.6467 89.2146 30.5733 89.2146 30.44C89.2146 30.16 89.1946 29.7933 89.1546 29.34C89.1279 28.8867 89.0879 28.56 89.0346 28.36C88.9946 28.2 88.9413 27.82 88.8746 27.22C88.8079 26.62 88.7479 26.0733 88.6946 25.58C88.6813 25.4733 88.6746 25.3467 88.6746 25.2C88.6746 25.0533 88.6946 24.98 88.7346 24.98C88.8013 24.98 88.8679 24.9333 88.9346 24.84C88.9746 24.7733 89.0013 24.7467 89.0146 24.76C89.0279 24.76 89.0346 24.7933 89.0346 24.86C89.0346 24.8867 89.0413 24.9 89.0546 24.9C89.0546 24.8867 89.0613 24.8667 89.0746 24.84C89.1013 24.8133 89.1213 24.7733 89.1346 24.72C89.1879 24.5333 89.3013 24.3933 89.4746 24.3C89.6613 24.1933 89.9479 24.1067 90.3346 24.04C90.6946 23.9867 90.9479 23.96 91.0946 23.96C91.2146 23.96 91.3146 23.9667 91.3946 23.98C91.5013 23.9933 91.5679 24.0333 91.5946 24.1C91.6346 24.1533 91.6879 24.3067 91.7546 24.56C91.8879 25.1867 92.0013 25.9133 92.0946 26.74C92.1879 27.5533 92.2346 28.2467 92.2346 28.82C92.2346 29.1667 92.2479 29.34 92.2746 29.34L92.9546 29.04C93.3679 28.8533 93.6213 28.76 93.7146 28.76C93.7546 28.76 93.7813 28.7267 93.7946 28.66C93.8079 28.5933 93.8146 28.4933 93.8146 28.36V27.6C93.8146 27.4933 93.8213 27.42 93.8346 27.38C93.8479 27.3267 93.8746 27.3067 93.9146 27.32H93.9546C94.0213 27.32 94.0613 27.28 94.0746 27.2C94.0879 27.1333 94.1013 27.1 94.1146 27.1C94.1413 27.0867 94.1613 27.1133 94.1746 27.18C94.1879 27.1933 94.1946 27.2133 94.1946 27.24C94.1946 27.2533 94.2013 27.26 94.2146 27.26C94.2279 27.26 94.2546 27.1867 94.2946 27.04C94.3346 26.92 94.3813 26.8333 94.4346 26.78C94.4879 26.7133 94.5879 26.6467 94.7346 26.58C94.9079 26.5 95.0546 26.4533 95.1746 26.44C95.3079 26.4133 95.5279 26.4 95.8346 26.4C95.9279 26.4 96.1013 26.4 96.3546 26.4C96.6213 26.4 96.7679 26.4533 96.7946 26.56C96.8346 26.6533 96.8879 26.8867 96.9546 27.26ZM89.1546 25.8C89.1679 25.76 89.1746 25.7 89.1746 25.62C89.1746 25.5267 89.1679 25.46 89.1546 25.42L89.1346 25.38C89.1346 25.3933 89.1279 25.42 89.1146 25.46C89.1146 25.4867 89.1146 25.5333 89.1146 25.6C89.1146 25.68 89.1146 25.7467 89.1146 25.8C89.1279 25.84 89.1413 25.84 89.1546 25.8ZM94.2346 28.08C94.2479 28.04 94.2546 27.9733 94.2546 27.88C94.2546 27.76 94.2479 27.68 94.2346 27.64V27.58C94.2213 27.58 94.2146 27.6667 94.2146 27.84C94.2146 27.9467 94.2146 28.0333 94.2146 28.1C94.2279 28.1533 94.2346 28.1467 94.2346 28.08ZM93.7546 28.96C93.8079 28.96 93.8346 28.94 93.8346 28.9C93.8346 28.8467 93.8146 28.82 93.7746 28.82C93.7213 28.82 93.6546 28.86 93.5746 28.94C93.5213 28.98 93.4946 29.0067 93.4946 29.02C93.4946 29.0333 93.5146 29.0333 93.5546 29.02C93.6346 28.98 93.7013 28.96 93.7546 28.96ZM87.6346 33.5C87.7013 33.4733 87.7479 33.4733 87.7746 33.5C87.8013 33.5267 87.7679 33.54 87.6746 33.54C87.6479 33.54 87.6279 33.5333 87.6146 33.52C87.6013 33.5067 87.6079 33.5 87.6346 33.5ZM88.7746 33.52C88.8946 33.52 88.9813 33.52 89.0346 33.52C89.1013 33.5067 89.0946 33.5 89.0146 33.5C88.9613 33.4867 88.8746 33.48 88.7546 33.48C88.6346 33.48 88.5479 33.4867 88.4946 33.5C88.4679 33.5 88.4546 33.5067 88.4546 33.52H88.7746Z" fill="#1C1B1F"/>
<mask id="mask0_30_1078" style="mask-type:alpha" maskUnits="userSpaceOnUse" x="22" y="18" width="25" height="24">
<rect x="22.7793" y="18" width="24" height="24" fill="#D9D9D9"/>
</mask>
<g mask="url(#mask0_30_1078)">
<path d="M34.7793 28.8L30.1793 33.4L28.7793 32L34.7793 26L40.7793 32L39.3793 33.4L34.7793 28.8Z" fill="#1C1B1F"/>
</g>
</svg>
