<svg width="63" height="80" viewBox="0 0 63 80" fill="none" xmlns="http://www.w3.org/2000/svg">
<g clip-path="url(#clip0_30_1081)">
<path fill-rule="evenodd" clip-rule="evenodd" d="M3.4738 18.6786H59.0958C60.988 18.6786 62.5694 22.7986 62.5694 27.9234V70.6653C62.5694 75.7901 62.5694 80.0001 59.0958 80.0001H3.4738C0.000244141 80.0001 0.000244141 75.7901 0.000244141 70.6653V27.9234C0.000244141 22.7986 1.58256 18.6786 3.4738 18.6786Z" fill="#1C1C1C"/>
<path fill-rule="evenodd" clip-rule="evenodd" d="M3.33681 18.1307H59.2337C61.091 18.1307 62.5703 22.0658 62.5703 26.9166V67.828C62.5703 72.7698 62.5703 76.7049 59.2337 76.7049H3.33681C0.000244141 76.7049 0.000244141 72.7698 0.000244141 67.828V26.9166C0.000244141 22.0658 1.51361 18.1307 3.33681 18.1307Z" fill="#353535"/>
<path fill-rule="evenodd" clip-rule="evenodd" d="M3.4738 13.5538H59.0958C60.988 13.5538 62.5694 17.7638 62.5694 22.7986V65.6315C62.5694 70.7582 62.5694 74.8753 59.0958 74.8753H3.4738C0.000244141 74.8753 0.000244141 70.7573 0.000244141 65.6315V22.7986C0.000244141 17.7638 1.58256 13.5538 3.4738 13.5538Z" fill="#1C1C1C"/>
<path fill-rule="evenodd" clip-rule="evenodd" d="M5.46843 11.4135H56.6533C58.4425 11.4135 59.8869 15.0111 59.8869 19.3802V56.384C59.8869 60.7531 59.8869 64.3508 56.6533 64.3508H5.46843C2.26978 64.3508 2.26978 60.7531 2.26978 56.384V19.3802C2.26978 15.0111 3.71418 11.4135 5.46843 11.4135Z" fill="#C1C1C1"/>
<path fill-rule="evenodd" clip-rule="evenodd" d="M5.46843 5.64685H56.6533C58.4425 5.64685 59.8869 9.49186 59.8869 14.1597V53.6984C59.8869 58.3644 59.8869 62.2094 56.6533 62.2094H5.46843C2.26978 62.2094 2.26978 58.3644 2.26978 53.6984V14.1597C2.26978 9.49186 3.71418 5.64685 5.46843 5.64685Z" fill="white"/>
<path fill-rule="evenodd" clip-rule="evenodd" d="M5.46843 4H56.6533C59.8869 4 59.8869 7.84409 59.8869 12.5111V52.0506C59.8869 56.7167 59.8869 60.5626 56.6533 60.5626H5.46843C2.26978 60.5626 2.26978 56.7167 2.26978 52.0506V12.5111C2.27069 7.84409 2.2707 4 5.46843 4Z" fill="#DEDEDE"/>
</g>
<mask id="mask0_30_1081" style="mask-type:alpha" maskUnits="userSpaceOnUse" x="18" y="22" width="25" height="24">
<rect x="18.7793" y="22" width="24" height="24" fill="#D9D9D9"/>
</mask>
<g mask="url(#mask0_30_1081)">
<path d="M26.6292 35L29.4792 37.85C29.6792 38.05 29.775 38.2833 29.7667 38.55C29.7584 38.8167 29.6625 39.05 29.4792 39.25C29.2792 39.45 29.0417 39.5542 28.7667 39.5625C28.4917 39.5708 28.2542 39.475 28.0542 39.275L23.4792 34.7C23.2792 34.5 23.1792 34.2667 23.1792 34C23.1792 33.7333 23.2792 33.5 23.4792 33.3L28.0542 28.725C28.2542 28.525 28.4917 28.4292 28.7667 28.4375C29.0417 28.4458 29.2792 28.55 29.4792 28.75C29.6625 28.95 29.7584 29.1833 29.7667 29.45C29.775 29.7167 29.6792 29.95 29.4792 30.15L26.6292 33H37.7792C38.0625 33 38.3 33.0958 38.4917 33.2875C38.6834 33.4792 38.7792 33.7167 38.7792 34C38.7792 34.2833 38.6834 34.5208 38.4917 34.7125C38.3 34.9042 38.0625 35 37.7792 35H26.6292Z" fill="#1C1B1F"/>
</g>
<defs>
<clipPath id="clip0_30_1081">
<rect width="62.5701" height="76" fill="white" transform="translate(0 4)"/>
</clipPath>
</defs>
</svg>
