<svg width="63" height="80" viewBox="0 0 63 80" fill="none" xmlns="http://www.w3.org/2000/svg">
<g clip-path="url(#clip0_30_1077)">
<path fill-rule="evenodd" clip-rule="evenodd" d="M3.4738 18.6786H59.0958C60.988 18.6786 62.5694 22.7986 62.5694 27.9234V70.6653C62.5694 75.7901 62.5694 80.0001 59.0958 80.0001H3.4738C0.000244141 80.0001 0.000244141 75.7901 0.000244141 70.6653V27.9234C0.000244141 22.7986 1.58256 18.6786 3.4738 18.6786Z" fill="#1C1C1C"/>
<path fill-rule="evenodd" clip-rule="evenodd" d="M3.33681 18.1307H59.2337C61.091 18.1307 62.5703 22.0658 62.5703 26.9166V67.828C62.5703 72.7698 62.5703 76.7049 59.2337 76.7049H3.33681C0.000244141 76.7049 0.000244141 72.7698 0.000244141 67.828V26.9166C0.000244141 22.0658 1.51361 18.1307 3.33681 18.1307Z" fill="#353535"/>
<path fill-rule="evenodd" clip-rule="evenodd" d="M3.4738 13.5538H59.0958C60.988 13.5538 62.5694 17.7638 62.5694 22.7986V65.6315C62.5694 70.7582 62.5694 74.8753 59.0958 74.8753H3.4738C0.000244141 74.8753 0.000244141 70.7573 0.000244141 65.6315V22.7986C0.000244141 17.7638 1.58256 13.5538 3.4738 13.5538Z" fill="#1C1C1C"/>
<path fill-rule="evenodd" clip-rule="evenodd" d="M5.46843 11.4135H56.6533C58.4425 11.4135 59.8869 15.0111 59.8869 19.3802V56.384C59.8869 60.7531 59.8869 64.3508 56.6533 64.3508H5.46843C2.26978 64.3508 2.26978 60.7531 2.26978 56.384V19.3802C2.26978 15.0111 3.71418 11.4135 5.46843 11.4135Z" fill="#C1C1C1"/>
<path fill-rule="evenodd" clip-rule="evenodd" d="M5.46843 5.64685H56.6533C58.4425 5.64685 59.8869 9.49186 59.8869 14.1597V53.6984C59.8869 58.3644 59.8869 62.2094 56.6533 62.2094H5.46843C2.26978 62.2094 2.26978 58.3644 2.26978 53.6984V14.1597C2.26978 9.49186 3.71418 5.64685 5.46843 5.64685Z" fill="white"/>
<path fill-rule="evenodd" clip-rule="evenodd" d="M5.46843 4H56.6533C59.8869 4 59.8869 7.84409 59.8869 12.5111V52.0506C59.8869 56.7167 59.8869 60.5626 56.6533 60.5626H5.46843C2.26978 60.5626 2.26978 56.7167 2.26978 52.0506V12.5111C2.27069 7.84409 2.2707 4 5.46843 4Z" fill="#DEDEDE"/>
</g>
<mask id="mask0_30_1077" style="mask-type:alpha" maskUnits="userSpaceOnUse" x="18" y="22" width="25" height="24">
<rect x="42.7793" y="46" width="24" height="24" transform="rotate(-180 42.7793 46)" fill="#D9D9D9"/>
</mask>
<g mask="url(#mask0_30_1077)">
<path d="M34.9294 33L32.0794 30.15C31.8794 29.95 31.7836 29.7167 31.7919 29.45C31.8002 29.1833 31.8961 28.95 32.0794 28.75C32.2794 28.55 32.5169 28.4458 32.7919 28.4375C33.0669 28.4292 33.3044 28.525 33.5044 28.725L38.0794 33.3C38.2794 33.5 38.3794 33.7333 38.3794 34C38.3794 34.2667 38.2794 34.5 38.0794 34.7L33.5044 39.275C33.3044 39.475 33.0669 39.5708 32.7919 39.5625C32.5169 39.5542 32.2794 39.45 32.0794 39.25C31.8961 39.05 31.8002 38.8167 31.7919 38.55C31.7836 38.2833 31.8794 38.05 32.0794 37.85L34.9294 35L23.7794 35C23.4961 35 23.2586 34.9042 23.0669 34.7125C22.8752 34.5208 22.7794 34.2833 22.7794 34C22.7794 33.7167 22.8752 33.4792 23.0669 33.2875C23.2586 33.0958 23.4961 33 23.7794 33L34.9294 33Z" fill="#1C1B1F"/>
</g>
<defs>
<clipPath id="clip0_30_1077">
<rect width="62.5701" height="76" fill="white" transform="translate(0 4)"/>
</clipPath>
</defs>
</svg>
