<svg width="122" height="80" viewBox="0 0 122 80" fill="none" xmlns="http://www.w3.org/2000/svg">
<path fill-rule="evenodd" clip-rule="evenodd" d="M6.7734 18.3899H115.226C118.915 18.3899 122 22.5292 122 27.6781V70.6212C122 75.7702 118.915 80 115.226 80H6.7734C3.08452 80 -0.000244141 75.7702 -0.000244141 70.6212V27.6781C-0.000244141 22.5292 3.08452 18.3899 6.7734 18.3899Z" fill="#1C1C1C"/>
<path fill-rule="evenodd" clip-rule="evenodd" d="M6.50532 17.8384H115.494C119.116 17.8384 122 21.792 122 26.6657V67.7696C122 72.7347 119.116 76.6883 115.494 76.6883H6.50532C2.95048 76.6883 -0.000244141 72.7347 -0.000244141 67.7696V26.6657C-0.000244141 21.792 2.95048 17.8384 6.50532 17.8384Z" fill="#353535"/>
<path fill-rule="evenodd" clip-rule="evenodd" d="M6.7734 13.2409H115.226C118.915 13.2409 122 17.4707 122 22.5292V65.5637C122 70.7145 118.915 74.851 115.226 74.851H6.7734C3.08452 74.851 -0.000244141 70.7135 -0.000244141 65.5637V22.5292C-0.000244141 17.4707 3.08452 13.2409 6.7734 13.2409Z" fill="#1C1C1C"/>
<path fill-rule="evenodd" clip-rule="evenodd" d="M10.6633 7.44812H110.464C113.952 7.44812 116.768 11.3103 116.768 16.0002V55.724C116.768 60.4138 113.952 64.276 110.464 64.276H10.6633C7.24345 64.276 4.42676 60.4138 4.42676 55.724V16.0002C4.42676 11.3103 7.24345 7.44812 10.6633 7.44812Z" fill="#C1C1C1"/>
<path fill-rule="evenodd" clip-rule="evenodd" d="M10.6633 1.65442H110.464C113.952 1.65442 116.768 5.51752 116.768 10.2074V49.9321C116.768 54.6201 113.952 58.4832 110.464 58.4832H10.6633C7.24345 58.4832 4.42676 54.6201 4.42676 49.9321V10.2074C4.42676 5.51752 7.24345 1.65442 10.6633 1.65442Z" fill="white"/>
<path fill-rule="evenodd" clip-rule="evenodd" d="M10.6633 0H110.464C113.952 0 116.768 3.86218 116.768 8.55111V48.2768C116.768 52.9648 113.952 56.8288 110.464 56.8288H10.6633C7.24345 56.8288 4.42676 52.9648 4.42676 48.2768V8.55111C4.42676 3.86218 7.24345 0 10.6633 0Z" fill="#F2F2F2"/>
<path d="M60.1077 35.32C60.3211 35.4133 60.5544 35.5333 60.8077 35.68C61.0611 35.8267 61.2544 35.96 61.3877 36.08C61.5344 36.1867 61.5611 36.24 61.4677 36.24C61.4411 36.24 61.4077 36.26 61.3677 36.3C61.3277 36.3267 61.2944 36.36 61.2677 36.4C61.2277 36.4667 61.2077 36.52 61.2077 36.56C61.2211 36.5867 61.2477 36.6133 61.2877 36.64C61.3411 36.6667 61.3677 36.6933 61.3677 36.72C61.3677 36.7467 61.3411 36.78 61.2877 36.82C61.2344 36.8733 61.2077 36.9133 61.2077 36.94C61.2211 36.9533 61.2544 36.9667 61.3077 36.98C61.4277 37.02 61.4344 37.04 61.3277 37.04C61.2877 37.04 61.2477 37.0533 61.2077 37.08C61.1811 37.1067 61.1544 37.1333 61.1277 37.16C61.0611 37.2267 60.9677 37.26 60.8477 37.26H60.6677L60.8277 37.44C60.9077 37.5333 60.9477 37.5933 60.9477 37.62C60.9611 37.6333 60.9344 37.6467 60.8677 37.66C60.7877 37.7 60.6944 37.7333 60.5877 37.76C60.5477 37.7733 60.4744 37.78 60.3677 37.78C60.1277 37.78 59.8211 37.74 59.4477 37.66C59.0744 37.58 58.7744 37.48 58.5477 37.36C58.1344 37.16 57.7544 36.88 57.4077 36.52C57.0611 36.16 56.7744 35.7467 56.5477 35.28L56.2277 34.58H54.0277L53.9677 35.76C53.9411 36.5067 53.9011 36.9933 53.8477 37.22L53.7877 37.52V37.18C53.8144 36.7667 53.8077 36.56 53.7677 36.56C53.7411 36.56 53.7211 36.6667 53.7077 36.88C53.6944 37.08 53.6477 37.3067 53.5677 37.56C53.4877 37.8 53.4011 37.9867 53.3077 38.12C53.2144 38.2667 53.1477 38.3133 53.1077 38.26C53.0544 38.1667 52.9744 38.12 52.8677 38.12C52.7877 38.12 52.7144 38.1733 52.6477 38.28C52.6211 38.3333 52.5944 38.3667 52.5677 38.38C52.5544 38.3933 52.5477 38.3733 52.5477 38.32C52.5477 38.24 52.5077 38.2067 52.4277 38.22H52.3677C52.2344 38.22 52.1077 38.1067 51.9877 37.88C51.9477 37.8133 51.9211 37.78 51.9077 37.78C51.9077 37.78 51.8744 37.8333 51.8077 37.94C51.7677 38.0333 51.7277 38.08 51.6877 38.08C51.6477 38.08 51.5877 37.9933 51.5077 37.82C51.3877 37.5533 51.2877 36.92 51.2077 35.92C51.1411 34.92 51.1011 33.7133 51.0877 32.3C51.0877 31.34 51.0611 30.3267 51.0077 29.26C50.9411 28.1667 50.9077 27.4133 50.9077 27C50.9077 26.5067 50.9411 26.0067 51.0077 25.5C51.0744 25.0067 51.1411 24.76 51.2077 24.76C51.2744 24.76 51.3077 24.8067 51.3077 24.9C51.3211 24.9667 51.3477 24.9467 51.3877 24.84C51.4411 24.7067 51.4877 24.68 51.5277 24.76C51.5544 24.8 51.5744 24.8133 51.5877 24.8C51.6144 24.7733 51.6344 24.7333 51.6477 24.68C51.6744 24.5467 51.7211 24.4533 51.7877 24.4C51.8544 24.3467 51.9744 24.3133 52.1477 24.3C52.3877 24.2733 53.4211 24.2467 55.2477 24.22L57.2277 24.18C57.7877 24.18 58.0877 24.2133 58.1277 24.28C58.2077 24.36 58.3144 24.4133 58.4477 24.44L58.6677 24.48L58.6277 25.62C58.5877 26.2333 58.5677 27.46 58.5677 29.3V30.12C58.5677 31.1467 58.5944 31.8733 58.6477 32.3C58.7011 32.7133 58.8277 33.1933 59.0277 33.74C59.1744 34.1267 59.3344 34.4267 59.5077 34.64C59.6811 34.84 59.9144 35.0067 60.2077 35.14C60.5144 35.2867 60.6677 35.3733 60.6677 35.4C60.6677 35.4133 60.5944 35.4 60.4477 35.36C60.3277 35.32 60.2277 35.2933 60.1477 35.28C60.0677 35.2667 60.0144 35.2667 59.9877 35.28C59.9744 35.28 60.0144 35.2933 60.1077 35.32ZM51.5677 24.6C51.5411 24.6267 51.5277 24.5933 51.5277 24.5C51.5277 24.4733 51.5344 24.4533 51.5477 24.44C51.5611 24.4267 51.5744 24.4333 51.5877 24.46C51.6144 24.54 51.6077 24.5867 51.5677 24.6ZM54.5277 26.96C54.5144 26.96 54.5011 26.9667 54.4877 26.98C54.4744 26.98 54.4677 26.98 54.4677 26.98C54.4811 26.98 54.5144 26.9867 54.5677 27C54.6344 27 54.7144 27 54.8077 27C54.9277 27 55.0211 27 55.0877 27C55.1544 26.9867 55.1477 26.9733 55.0677 26.96C55.0277 26.9467 54.9411 26.94 54.8077 26.94C54.6744 26.94 54.5811 26.9467 54.5277 26.96ZM54.8277 31.4L55.5877 31.36L55.5677 31.18C55.5411 30.9933 55.5144 30.62 55.4877 30.06C55.4744 29.62 55.4344 29.0267 55.3677 28.28L55.2877 27.38H54.7477C54.4011 27.38 54.2144 27.4 54.1877 27.44C54.1611 27.4667 54.1344 28.14 54.1077 29.46L54.0477 31.42L54.8277 31.4ZM54.0677 34.08C54.0411 34.0933 54.0344 34.1067 54.0477 34.12C54.0611 34.1333 54.0811 34.14 54.1077 34.14C54.2011 34.14 54.2344 34.1267 54.2077 34.1C54.1544 34.0733 54.1077 34.0667 54.0677 34.08ZM55.1677 34.12C55.2077 34.12 55.2344 34.12 55.2477 34.12C55.2744 34.1067 55.2744 34.0933 55.2477 34.08H55.0677C55.0411 34.0933 55.0411 34.1067 55.0677 34.12C55.0944 34.12 55.1277 34.12 55.1677 34.12ZM55.7477 34.2C55.8277 34.2 55.8877 34.2 55.9277 34.2C55.9677 34.1867 55.9611 34.1733 55.9077 34.16C55.8811 34.1467 55.8277 34.14 55.7477 34.14C55.6677 34.14 55.6144 34.1467 55.5877 34.16L55.5477 34.18C55.5477 34.1933 55.6144 34.2 55.7477 34.2ZM54.1877 34.34C54.2411 34.34 54.2811 34.34 54.3077 34.34C54.3344 34.3267 54.3344 34.3133 54.3077 34.3C54.2544 34.2733 54.1811 34.2733 54.0877 34.3C54.0611 34.3133 54.0544 34.3267 54.0677 34.34C54.0944 34.34 54.1344 34.34 54.1877 34.34ZM67.7513 28.02C67.8447 28.0733 67.8713 28.1667 67.8313 28.3C67.818 28.3533 67.758 28.42 67.6513 28.5C67.5447 28.58 67.358 28.7 67.0913 28.86C66.7447 29.0467 66.2913 29.2667 65.7313 29.52C65.1847 29.76 64.878 29.88 64.8113 29.88C64.7713 29.88 64.7447 30.1533 64.7313 30.7C64.7313 31.2467 64.7313 32.2333 64.7313 33.66C64.718 35.7267 64.6847 36.8067 64.6313 36.9C64.618 36.94 64.598 36.96 64.5713 36.96C64.5713 36.96 64.5647 36.9533 64.5513 36.94C64.5513 36.9267 64.5513 36.9133 64.5513 36.9L64.5713 36.68L64.5913 36.42C64.5913 36.3 64.578 36.2 64.5513 36.12C64.5247 36.0667 64.5047 36.04 64.4913 36.04C64.478 36.04 64.4713 36.16 64.4713 36.4C64.458 36.64 64.4313 36.8533 64.3913 37.04C64.3513 37.2133 64.2713 37.4133 64.1513 37.64C64.0847 37.7867 64.0313 37.8733 63.9913 37.9C63.9647 37.9133 63.9247 37.8933 63.8713 37.84C63.8047 37.7733 63.7313 37.74 63.6513 37.74C63.558 37.74 63.4913 37.7867 63.4513 37.88C63.438 37.9333 63.4247 37.9667 63.4113 37.98C63.398 37.9933 63.378 37.9733 63.3513 37.92C63.3247 37.84 63.2847 37.8 63.2313 37.8C63.1913 37.8 63.158 37.84 63.1313 37.92C63.1313 37.96 63.1247 37.98 63.1113 37.98C63.098 37.98 63.0913 37.9667 63.0913 37.94C63.0913 37.8867 63.038 37.82 62.9313 37.74C62.838 37.6867 62.7913 37.6133 62.7913 37.52C62.7913 37.4667 62.7847 37.44 62.7713 37.44C62.758 37.44 62.718 37.48 62.6513 37.56C62.5713 37.6667 62.5113 37.72 62.4713 37.72C62.4447 37.72 62.3913 37.6467 62.3113 37.5C62.0713 37.06 61.898 35.48 61.7913 32.76C61.778 31.8533 61.738 31.4 61.6713 31.4C61.618 31.4 61.338 31.4733 60.8313 31.62L60.0713 31.84L59.9113 31.66C59.778 31.54 59.7513 31.4733 59.8313 31.46C59.8847 31.4333 59.8113 31.42 59.6113 31.42H59.5513C59.418 31.42 59.3047 31.3933 59.2113 31.34C59.1313 31.2867 59.0913 31.2267 59.0913 31.16C59.0913 31.0933 59.0513 31.0333 58.9713 30.98C58.8913 30.9 58.818 30.7333 58.7513 30.48C58.7113 30.3467 58.678 30.2333 58.6513 30.14C58.6113 30.0333 58.5847 29.9467 58.5713 29.88C58.5313 29.7733 58.5113 29.6067 58.5113 29.38L58.5313 29.08L59.1913 28.82L59.7313 28.62C60.3047 28.4067 60.618 28.2867 60.6713 28.26L61.5113 27.96L61.4913 27.12C61.478 26.5867 61.498 26.0333 61.5513 25.46C61.6047 24.8733 61.6647 24.58 61.7313 24.58C61.798 24.58 61.8447 24.62 61.8713 24.7C61.8713 24.74 61.878 24.76 61.8913 24.76C61.9047 24.7467 61.9113 24.7133 61.9113 24.66C61.9113 24.58 61.9313 24.5333 61.9713 24.52C62.0247 24.4933 62.058 24.52 62.0713 24.6C62.0713 24.6533 62.1047 24.6 62.1713 24.44C62.238 24.2933 62.3313 24.1867 62.4513 24.12C62.5447 24.0667 62.8247 24.04 63.2913 24.04C63.878 24.04 64.258 24.0733 64.4313 24.14C64.538 24.1933 64.6247 24.22 64.6913 24.22C64.7313 24.22 64.7513 24.64 64.7513 25.48C64.7513 26.3333 64.7713 26.76 64.8113 26.76C64.838 26.76 65.098 26.6733 65.5913 26.5C66.0847 26.3267 66.4113 26.24 66.5713 26.24L66.8313 26.26L66.5513 26.36C66.4713 26.3733 66.358 26.42 66.2113 26.5C66.198 26.54 66.2313 26.5467 66.3113 26.52C66.458 26.4533 66.6047 26.42 66.7513 26.42C66.8713 26.42 67.0113 26.4467 67.1713 26.5C67.358 26.5533 67.4713 26.6 67.5113 26.64C67.5513 26.6667 67.558 26.7267 67.5313 26.82V26.9C67.5313 26.9933 67.558 27.0667 67.6113 27.12C67.6913 27.1733 67.7313 27.2467 67.7313 27.34C67.7313 27.42 67.7513 27.4533 67.7913 27.44C67.818 27.4133 67.8313 27.4333 67.8313 27.5C67.8313 27.5933 67.7913 27.7067 67.7113 27.84C67.6447 27.9067 67.658 27.9667 67.7513 28.02ZM62.1113 24.4C62.098 24.4133 62.0847 24.4133 62.0713 24.4C62.0713 24.3867 62.0713 24.36 62.0713 24.32C62.0713 24.2267 62.0847 24.2067 62.1113 24.26C62.138 24.3267 62.138 24.3733 62.1113 24.4ZM61.9913 25.52C62.0313 25.32 62.0513 25.2 62.0513 25.16C62.0513 25.08 62.0447 25.04 62.0313 25.04L61.9913 25.2C61.9513 25.2933 61.9313 25.4133 61.9313 25.56C61.9313 25.6667 61.9513 25.6533 61.9913 25.52ZM60.7513 31.22H60.7313L60.5713 31.24C60.3713 31.2667 60.238 31.3 60.1713 31.34L60.1513 31.36L60.1913 31.38C60.258 31.38 60.418 31.3333 60.6713 31.24L60.7513 31.22ZM76.892 28.02C76.9853 28.0733 77.012 28.1667 76.972 28.3C76.9586 28.3533 76.8986 28.42 76.792 28.5C76.6853 28.58 76.4986 28.7 76.232 28.86C75.8853 29.0467 75.432 29.2667 74.872 29.52C74.3253 29.76 74.0186 29.88 73.952 29.88C73.912 29.88 73.8853 30.1533 73.872 30.7C73.872 31.2467 73.872 32.2333 73.872 33.66C73.8586 35.7267 73.8253 36.8067 73.772 36.9C73.7586 36.94 73.7386 36.96 73.712 36.96C73.712 36.96 73.7053 36.9533 73.692 36.94C73.692 36.9267 73.692 36.9133 73.692 36.9L73.712 36.68L73.732 36.42C73.732 36.3 73.7186 36.2 73.692 36.12C73.6653 36.0667 73.6453 36.04 73.632 36.04C73.6186 36.04 73.612 36.16 73.612 36.4C73.5986 36.64 73.572 36.8533 73.532 37.04C73.492 37.2133 73.412 37.4133 73.292 37.64C73.2253 37.7867 73.172 37.8733 73.132 37.9C73.1053 37.9133 73.0653 37.8933 73.012 37.84C72.9453 37.7733 72.872 37.74 72.792 37.74C72.6986 37.74 72.632 37.7867 72.592 37.88C72.5786 37.9333 72.5653 37.9667 72.552 37.98C72.5386 37.9933 72.5186 37.9733 72.492 37.92C72.4653 37.84 72.4253 37.8 72.372 37.8C72.332 37.8 72.2986 37.84 72.272 37.92C72.272 37.96 72.2653 37.98 72.252 37.98C72.2386 37.98 72.232 37.9667 72.232 37.94C72.232 37.8867 72.1786 37.82 72.072 37.74C71.9786 37.6867 71.932 37.6133 71.932 37.52C71.932 37.4667 71.9253 37.44 71.912 37.44C71.8986 37.44 71.8586 37.48 71.792 37.56C71.712 37.6667 71.652 37.72 71.612 37.72C71.5853 37.72 71.532 37.6467 71.452 37.5C71.212 37.06 71.0386 35.48 70.932 32.76C70.9186 31.8533 70.8786 31.4 70.812 31.4C70.7586 31.4 70.4786 31.4733 69.972 31.62L69.212 31.84L69.052 31.66C68.9186 31.54 68.892 31.4733 68.972 31.46C69.0253 31.4333 68.952 31.42 68.752 31.42H68.692C68.5586 31.42 68.4453 31.3933 68.352 31.34C68.272 31.2867 68.232 31.2267 68.232 31.16C68.232 31.0933 68.192 31.0333 68.112 30.98C68.032 30.9 67.9586 30.7333 67.892 30.48C67.852 30.3467 67.8186 30.2333 67.792 30.14C67.752 30.0333 67.7253 29.9467 67.712 29.88C67.672 29.7733 67.652 29.6067 67.652 29.38L67.672 29.08L68.332 28.82L68.872 28.62C69.4453 28.4067 69.7586 28.2867 69.812 28.26L70.652 27.96L70.632 27.12C70.6186 26.5867 70.6386 26.0333 70.692 25.46C70.7453 24.8733 70.8053 24.58 70.872 24.58C70.9386 24.58 70.9853 24.62 71.012 24.7C71.012 24.74 71.0186 24.76 71.032 24.76C71.0453 24.7467 71.052 24.7133 71.052 24.66C71.052 24.58 71.072 24.5333 71.112 24.52C71.1653 24.4933 71.1986 24.52 71.212 24.6C71.212 24.6533 71.2453 24.6 71.312 24.44C71.3786 24.2933 71.472 24.1867 71.592 24.12C71.6853 24.0667 71.9653 24.04 72.432 24.04C73.0186 24.04 73.3986 24.0733 73.572 24.14C73.6786 24.1933 73.7653 24.22 73.832 24.22C73.872 24.22 73.892 24.64 73.892 25.48C73.892 26.3333 73.912 26.76 73.952 26.76C73.9786 26.76 74.2386 26.6733 74.732 26.5C75.2253 26.3267 75.552 26.24 75.712 26.24L75.972 26.26L75.692 26.36C75.612 26.3733 75.4986 26.42 75.352 26.5C75.3386 26.54 75.372 26.5467 75.452 26.52C75.5986 26.4533 75.7453 26.42 75.892 26.42C76.012 26.42 76.152 26.4467 76.312 26.5C76.4986 26.5533 76.612 26.6 76.652 26.64C76.692 26.6667 76.6986 26.7267 76.672 26.82V26.9C76.672 26.9933 76.6986 27.0667 76.752 27.12C76.832 27.1733 76.872 27.2467 76.872 27.34C76.872 27.42 76.892 27.4533 76.932 27.44C76.9586 27.4133 76.972 27.4333 76.972 27.5C76.972 27.5933 76.932 27.7067 76.852 27.84C76.7853 27.9067 76.7986 27.9667 76.892 28.02ZM71.252 24.4C71.2386 24.4133 71.2253 24.4133 71.212 24.4C71.212 24.3867 71.212 24.36 71.212 24.32C71.212 24.2267 71.2253 24.2067 71.252 24.26C71.2786 24.3267 71.2786 24.3733 71.252 24.4ZM71.132 25.52C71.172 25.32 71.192 25.2 71.192 25.16C71.192 25.08 71.1853 25.04 71.172 25.04L71.132 25.2C71.092 25.2933 71.072 25.4133 71.072 25.56C71.072 25.6667 71.092 25.6533 71.132 25.52ZM69.892 31.22H69.872L69.712 31.24C69.512 31.2667 69.3786 31.3 69.312 31.34L69.292 31.36L69.332 31.38C69.3986 31.38 69.5586 31.3333 69.812 31.24L69.892 31.22ZM85.6479 36.36C85.6746 36.7067 85.6679 36.88 85.6279 36.88C85.6012 36.88 85.5812 36.8067 85.5679 36.66C85.5546 36.54 85.5346 36.44 85.5079 36.36C85.4812 36.28 85.4612 36.2333 85.4479 36.22C85.4346 36.2067 85.4346 36.2467 85.4479 36.34L85.4679 36.7C85.4679 37.06 85.4412 37.3867 85.3879 37.68C85.3346 37.9733 85.2812 38.0733 85.2279 37.98C85.2146 37.9533 85.1812 37.9267 85.1279 37.9C85.0879 37.8733 85.0412 37.86 84.9879 37.86C84.9212 37.86 84.8746 37.8667 84.8479 37.88C84.8212 37.8933 84.8012 37.9267 84.7879 37.98C84.7746 38.0467 84.7546 38.08 84.7279 38.08C84.7146 38.0933 84.6812 38.0867 84.6279 38.06C84.5746 38.0467 84.5346 38.04 84.5079 38.04C84.4946 38.0533 84.4946 38.0933 84.5079 38.16C84.5079 38.24 84.4946 38.2533 84.4679 38.2C84.4146 38.12 84.3479 38.08 84.2679 38.08C84.1746 38.0533 84.1012 37.9867 84.0479 37.88L83.9679 37.7L83.8679 37.94C83.8279 38.0467 83.8012 38.1067 83.7879 38.12C83.7746 38.1333 83.7412 38.1133 83.6879 38.06L83.4679 37.86C83.3746 37.7667 83.2679 37.26 83.1479 36.34C83.0279 35.4067 82.9479 34.7733 82.9079 34.44H80.7079L80.6479 35.62C80.6212 36.3667 80.5812 36.8533 80.5279 37.08L80.4679 37.38V37.04C80.4946 36.6267 80.4879 36.42 80.4479 36.42C80.4212 36.42 80.4012 36.5267 80.3879 36.74C80.3746 36.94 80.3279 37.1667 80.2479 37.42C80.1679 37.66 80.0812 37.8533 79.9879 38C79.8946 38.1333 79.8279 38.1733 79.7879 38.12C79.7346 38.0267 79.6546 37.98 79.5479 37.98C79.4679 37.98 79.3946 38.0333 79.3279 38.14C79.3012 38.1933 79.2746 38.2267 79.2479 38.24C79.2346 38.2533 79.2279 38.2333 79.2279 38.18C79.2279 38.1 79.1879 38.0667 79.1079 38.08H79.0479C78.9146 38.08 78.7879 37.9667 78.6679 37.74C78.6279 37.6733 78.6012 37.64 78.5879 37.64C78.5879 37.64 78.5546 37.6933 78.4879 37.8C78.4479 37.8933 78.4079 37.94 78.3679 37.94C78.3279 37.94 78.2679 37.8533 78.1879 37.68C78.0679 37.4133 77.9679 36.78 77.8879 35.78C77.8212 34.78 77.7812 33.5733 77.7679 32.16C77.7679 31.2 77.7412 30.1867 77.6879 29.12C77.6346 28.2533 77.6079 27.5 77.6079 26.86C77.6079 26.2733 77.6346 25.7733 77.6879 25.36C77.7546 24.8667 77.8212 24.62 77.8879 24.62C77.9546 24.62 77.9879 24.6667 77.9879 24.76C78.0012 24.8267 78.0279 24.8067 78.0679 24.7C78.1212 24.5667 78.1679 24.54 78.2079 24.62C78.2346 24.66 78.2546 24.6733 78.2679 24.66C78.2946 24.6333 78.3146 24.5933 78.3279 24.54C78.3546 24.4067 78.4012 24.3133 78.4679 24.26C78.5346 24.2067 78.6546 24.1733 78.8279 24.16C79.0679 24.1333 80.1012 24.1067 81.9279 24.08L83.9079 24.04C84.4679 24.04 84.7679 24.0733 84.8079 24.14C84.8879 24.22 84.9946 24.2733 85.1279 24.3L85.3479 24.34L85.3079 25.48C85.2679 26.12 85.2479 27.4133 85.2479 29.36C85.2479 30.6267 85.3479 32.48 85.5479 34.92C85.6146 35.6933 85.6479 36.1733 85.6479 36.36ZM78.2479 24.46C78.2212 24.4867 78.2079 24.4533 78.2079 24.36C78.2079 24.3333 78.2146 24.3133 78.2279 24.3C78.2412 24.2867 78.2546 24.2933 78.2679 24.32C78.2946 24.4 78.2879 24.4467 78.2479 24.46ZM81.2079 26.82C81.1946 26.82 81.1812 26.8267 81.1679 26.84C81.1546 26.84 81.1479 26.84 81.1479 26.84C81.1612 26.84 81.1946 26.8467 81.2479 26.86C81.3146 26.86 81.3946 26.86 81.4879 26.86C81.6079 26.86 81.7012 26.86 81.7679 26.86C81.8346 26.8467 81.8279 26.8333 81.7479 26.82C81.7079 26.8067 81.6212 26.8 81.4879 26.8C81.3546 26.8 81.2612 26.8067 81.2079 26.82ZM81.5079 31.26L82.2679 31.22L82.2479 31.04C82.2212 30.8533 82.1946 30.48 82.1679 29.92C82.1546 29.48 82.1146 28.8867 82.0479 28.14L81.9679 27.24H81.4279C81.0812 27.24 80.8946 27.26 80.8679 27.3C80.8412 27.3267 80.8146 28 80.7879 29.32L80.7279 31.28L81.5079 31.26ZM80.7479 33.94C80.7212 33.9533 80.7146 33.9667 80.7279 33.98C80.7412 33.9933 80.7612 34 80.7879 34C80.8812 34 80.9146 33.9867 80.8879 33.96C80.8346 33.9333 80.7879 33.9267 80.7479 33.94ZM81.8479 33.98C81.8879 33.98 81.9146 33.98 81.9279 33.98C81.9546 33.9667 81.9546 33.9533 81.9279 33.94H81.7479C81.7212 33.9533 81.7212 33.9667 81.7479 33.98C81.7746 33.98 81.8079 33.98 81.8479 33.98ZM82.4279 34.06C82.5079 34.06 82.5679 34.06 82.6079 34.06C82.6479 34.0467 82.6412 34.0333 82.5879 34.02C82.5612 34.0067 82.5079 34 82.4279 34C82.3479 34 82.2946 34.0067 82.2679 34.02L82.2279 34.04C82.2279 34.0533 82.2946 34.06 82.4279 34.06ZM80.8679 34.2C80.9212 34.2 80.9612 34.2 80.9879 34.2C81.0146 34.1867 81.0146 34.1733 80.9879 34.16C80.9346 34.1333 80.8612 34.1333 80.7679 34.16C80.7412 34.1733 80.7346 34.1867 80.7479 34.2C80.7746 34.2 80.8146 34.2 80.8679 34.2ZM95.3802 34.56C95.5136 34.4533 95.5936 34.4 95.6202 34.4C95.6602 34.4 95.6802 34.4333 95.6802 34.5C95.6802 34.5 95.6536 34.6467 95.6002 34.94C95.4669 35.4733 95.1136 36.0267 94.5402 36.6C94.1136 37.04 93.6469 37.36 93.1402 37.56C92.6336 37.76 92.0602 37.86 91.4202 37.86C91.1402 37.86 90.8269 37.8333 90.4802 37.78C89.9602 37.66 89.5069 37.4933 89.1202 37.28C88.7336 37.0667 88.3536 36.7733 87.9802 36.4C87.5536 35.9733 87.2202 35.4733 86.9802 34.9C86.7536 34.3133 86.5602 33.5067 86.4002 32.48C86.3336 31.9733 86.2869 31.5 86.2602 31.06C86.2469 30.62 86.2402 29.72 86.2402 28.36C86.2402 27.1467 86.2469 26.34 86.2602 25.94C86.2736 25.54 86.3069 25.2667 86.3602 25.12C86.4136 24.9733 86.5202 24.8 86.6802 24.6C86.8269 24.4267 86.9736 24.3067 87.1202 24.24C87.2802 24.16 87.5269 24.1067 87.8602 24.08C88.1936 24.0533 88.7669 24.0267 89.5802 24C89.9402 23.9867 90.4602 23.98 91.1402 23.98C92.7136 23.98 93.6469 24.0333 93.9402 24.14C94.0469 24.18 94.1069 24.2267 94.1202 24.28C94.1469 24.3333 94.1202 24.3667 94.0402 24.38C94.0002 24.38 94.0136 24.4067 94.0802 24.46C94.1202 24.4867 94.1402 24.5067 94.1402 24.52C94.1536 24.5333 94.1469 24.5533 94.1202 24.58L94.1002 24.62C94.1002 24.6467 94.1536 24.68 94.2602 24.72C94.3669 24.7467 94.4402 24.82 94.4802 24.94C94.5202 25.0467 94.5402 25.26 94.5402 25.58C94.5402 26.3 94.5002 26.7667 94.4202 26.98L94.3002 27.28L89.2802 27.2L89.2202 28.2C89.1936 28.7333 89.1802 29.1667 89.1802 29.5C89.1802 30.1667 89.2002 30.8 89.2402 31.4C89.2802 31.9867 89.3336 32.42 89.4002 32.7C89.5069 33.2467 89.6069 33.6333 89.7002 33.86C89.7936 34.0867 89.9269 34.2867 90.1002 34.46C90.3269 34.6733 90.5536 34.8267 90.7802 34.92C91.0069 35.0133 91.2736 35.06 91.5802 35.06C92.1002 35.0733 92.6002 34.8733 93.0802 34.46C93.1602 34.38 93.2202 34.3333 93.2602 34.32C93.3002 34.2933 93.3002 34.3133 93.2602 34.38C93.2336 34.42 93.1669 34.4867 93.0602 34.58C92.9669 34.6733 92.8602 34.76 92.7402 34.84C92.4602 35.0533 92.3269 35.1667 92.3402 35.18C92.3536 35.1933 92.4002 35.18 92.4802 35.14C92.5736 35.0867 92.6669 35.0267 92.7602 34.96C93.0802 34.72 93.5802 34.24 94.2602 33.52C94.4069 33.36 94.4936 33.28 94.5202 33.28C94.5469 33.2667 94.5469 33.3133 94.5202 33.42L94.5002 33.54C94.5002 33.6067 94.5136 33.6667 94.5402 33.72C94.5802 33.7733 94.6269 33.8 94.6802 33.8C94.7336 33.8 94.7869 33.7733 94.8402 33.72C94.9069 33.6667 94.9469 33.64 94.9602 33.64C94.9869 33.64 95.0136 33.68 95.0402 33.76L95.0802 33.86C95.1202 33.86 95.1669 33.7933 95.2202 33.66C95.2602 33.5933 95.2869 33.5533 95.3002 33.54C95.3269 33.5267 95.3336 33.5467 95.3202 33.6C95.2936 33.6533 95.2802 33.7467 95.2802 33.88C95.2802 34 95.2869 34.1067 95.3002 34.2L95.2202 34.54L95.1402 34.78L95.3802 34.56ZM93.3402 24.46C93.3536 24.4733 93.3736 24.4867 93.4002 24.5C93.4269 24.5 93.4602 24.5067 93.5002 24.52C93.6469 24.56 93.7536 24.58 93.8202 24.58C93.9002 24.58 93.8936 24.56 93.8002 24.52C93.7202 24.48 93.6069 24.46 93.4602 24.46H93.3402ZM105.974 36.7C106.014 36.82 106.034 36.9067 106.034 36.96C106.034 37.0267 105.98 37.1133 105.874 37.22C105.82 37.2733 105.774 37.3333 105.734 37.4C105.707 37.4533 105.7 37.4933 105.714 37.52C105.727 37.5467 105.72 37.5733 105.694 37.6C105.68 37.6267 105.66 37.6467 105.634 37.66C105.607 37.6733 105.58 37.6867 105.554 37.7C105.54 37.7133 105.54 37.7267 105.554 37.74C105.594 37.7533 105.534 37.8133 105.374 37.92C105.227 38 105.154 38.08 105.154 38.16V38.18C105.154 38.2467 105.094 38.3067 104.974 38.36C104.814 38.4267 104.514 38.36 104.074 38.16C103.634 37.96 102.994 37.5933 102.154 37.06C101.794 36.8467 101.38 36.62 100.914 36.38C100.514 36.18 100.08 35.8933 99.6138 35.52L98.8938 34.94L98.8538 36.2C98.8405 36.6 98.8205 36.9267 98.7938 37.18C98.7805 37.42 98.7605 37.54 98.7338 37.54C98.7072 37.54 98.6938 37.36 98.6938 37V36.42L98.6338 36.96C98.6072 37.2267 98.5472 37.4933 98.4538 37.76C98.3738 38.0267 98.2938 38.22 98.2138 38.34C98.1338 38.4733 98.0738 38.4867 98.0338 38.38C98.0205 38.3133 97.9605 38.28 97.8538 38.28C97.7205 38.28 97.6472 38.3267 97.6338 38.42C97.6205 38.4867 97.6072 38.52 97.5938 38.52C97.5805 38.5333 97.5405 38.5067 97.4738 38.44C97.4205 38.3867 97.3805 38.36 97.3538 38.36C97.3405 38.3733 97.3272 38.42 97.3138 38.5C97.3005 38.62 97.2805 38.64 97.2538 38.56C97.2538 38.4667 97.2072 38.3933 97.1138 38.34C97.0338 38.26 96.9738 38.18 96.9338 38.1C96.9072 38.0333 96.8872 38 96.8738 38C96.8605 38 96.8272 38.04 96.7738 38.12C96.6938 38.2267 96.6405 38.28 96.6138 38.28C96.5605 38.28 96.4938 38.18 96.4138 37.98C96.3338 37.78 96.2738 37.5667 96.2338 37.34C96.1805 36.9533 96.1138 36.1533 96.0338 34.94C95.9672 33.7133 95.9138 32.4733 95.8738 31.22C95.8338 29.7533 95.7805 28.76 95.7138 28.24C95.6872 27.9467 95.6738 27.5467 95.6738 27.04C95.6738 25.8933 95.7072 25.14 95.7738 24.78C95.8005 24.6733 95.8472 24.6 95.9138 24.56C95.9805 24.52 96.0138 24.5467 96.0138 24.64C96.0272 24.6667 96.0538 24.6333 96.0938 24.54C96.1205 24.4733 96.1405 24.4333 96.1538 24.42C96.1805 24.4067 96.2072 24.4333 96.2338 24.5C96.2472 24.5133 96.2538 24.5333 96.2538 24.56C96.2538 24.5733 96.2605 24.58 96.2738 24.58C96.3005 24.58 96.3338 24.5133 96.3738 24.38C96.4138 24.26 96.4538 24.18 96.4938 24.14C96.5472 24.1 96.6538 24.0667 96.8138 24.04C97.0005 24.0133 97.1872 24 97.3738 24C97.6405 24 97.9005 24.0133 98.1538 24.04C98.4205 24.0667 98.6005 24.1067 98.6938 24.16L98.9538 24.28L98.8538 30.44L99.0138 30.4C99.2805 30.2933 99.6005 30.1467 99.9738 29.96C100.854 29.5467 101.48 29.04 101.854 28.44C102.227 27.8267 102.42 27.0133 102.434 26C102.434 25.7467 102.44 25.52 102.454 25.32C102.48 25.12 102.5 24.9933 102.514 24.94C102.54 24.94 102.554 25.0267 102.554 25.2C102.554 25.2933 102.56 25.38 102.574 25.46C102.587 25.54 102.607 25.5933 102.634 25.62L102.654 25.66C102.667 25.66 102.674 25.64 102.674 25.6C102.674 25.5333 102.667 25.48 102.654 25.44V25.34C102.654 25.2067 102.68 25.02 102.734 24.78C102.787 24.58 102.86 24.4 102.954 24.24C103.06 24.08 103.127 24.0333 103.154 24.1C103.18 24.14 103.247 24.1733 103.354 24.2H103.414C103.467 24.2 103.5 24.1867 103.514 24.16C103.54 24.1333 103.56 24.0933 103.574 24.04C103.614 23.92 103.634 23.9 103.634 23.98C103.647 24.06 103.687 24.1067 103.754 24.12C103.834 24.12 103.874 24.08 103.874 24C103.874 23.9867 103.88 23.98 103.894 23.98C103.92 23.98 103.994 24.04 104.114 24.16C104.234 24.28 104.307 24.3467 104.334 24.36C104.374 24.36 104.414 24.3267 104.454 24.26C104.494 24.18 104.54 24.14 104.594 24.14C104.74 24.14 104.88 24.4067 105.014 24.94C105.16 25.4733 105.234 26.06 105.234 26.7C105.234 27.8067 104.967 28.8467 104.434 29.82C103.9 30.78 103.114 31.6467 102.074 32.42L101.454 32.86L101.654 33L102.874 33.92C103.247 34.2 103.834 34.62 104.634 35.18C105.527 35.7933 105.974 36.1533 105.974 36.26C105.974 36.2867 105.954 36.2933 105.914 36.28C105.887 36.2667 105.854 36.24 105.814 36.2C105.734 36.1333 105.66 36.1 105.594 36.1C105.58 36.1 105.574 36.1067 105.574 36.12C105.574 36.1333 105.614 36.1733 105.694 36.24C105.814 36.3333 105.907 36.4867 105.974 36.7ZM96.2138 25C96.2405 24.9333 96.2405 24.8733 96.2138 24.82C96.2005 24.7933 96.1872 24.7933 96.1738 24.82C96.1738 24.8333 96.1738 24.86 96.1738 24.9C96.1738 24.94 96.1738 24.9733 96.1738 25C96.1872 25.0267 96.2005 25.0267 96.2138 25ZM96.1338 25.5C96.1605 25.4467 96.1605 25.3733 96.1338 25.28C96.1205 25.24 96.1138 25.2733 96.1138 25.38C96.1138 25.5 96.1205 25.54 96.1338 25.5ZM99.9938 35.3C100.02 35.3 100.014 35.28 99.9738 35.24C99.7872 35.08 99.6005 34.9267 99.4138 34.78C99.2272 34.6333 99.1338 34.5733 99.1338 34.6C99.1338 34.6267 99.2672 34.7533 99.5338 34.98C99.8138 35.1933 99.9672 35.3 99.9938 35.3Z" fill="#1C1B1F"/>
<mask id="mask0_30_1082" style="mask-type:alpha" maskUnits="userSpaceOnUse" x="14" y="18" width="25" height="24">
<rect x="14.7793" y="18" width="24" height="24" fill="#D9D9D9"/>
</mask>
<g mask="url(#mask0_30_1082)">
<path d="M22.7793 35V31H19.8793C19.446 31 19.1418 30.8125 18.9668 30.4375C18.7918 30.0625 18.8376 29.7083 19.1043 29.375L26.0043 20.95C26.2043 20.7 26.4626 20.575 26.7793 20.575C27.096 20.575 27.3543 20.7 27.5543 20.95L34.4543 29.375C34.721 29.7083 34.7668 30.0625 34.5918 30.4375C34.4168 30.8125 34.1126 31 33.6793 31H30.7793V35C30.7793 35.2833 30.6835 35.5208 30.4918 35.7125C30.3001 35.9042 30.0626 36 29.7793 36H23.7793C23.496 36 23.2585 35.9042 23.0668 35.7125C22.8751 35.5208 22.7793 35.2833 22.7793 35ZM24.7793 34H28.7793V29H31.5543L26.7793 23.15L22.0043 29H24.7793V34ZM19.7793 40C19.496 40 19.2585 39.9042 19.0668 39.7125C18.8751 39.5208 18.7793 39.2833 18.7793 39C18.7793 38.7167 18.8751 38.4792 19.0668 38.2875C19.2585 38.0958 19.496 38 19.7793 38H33.7793C34.0626 38 34.3001 38.0958 34.4918 38.2875C34.6835 38.4792 34.7793 38.7167 34.7793 39C34.7793 39.2833 34.6835 39.5208 34.4918 39.7125C34.3001 39.9042 34.0626 40 33.7793 40H19.7793Z" fill="#1C1B1F"/>
</g>
</svg>
