<svg width="218" height="80" viewBox="0 0 218 80" fill="none" xmlns="http://www.w3.org/2000/svg">
<g clip-path="url(#clip0_30_1079)">
<path fill-rule="evenodd" clip-rule="evenodd" d="M12.1037 18.6784H205.896C212.488 18.6784 217.999 22.7983 217.999 27.9232V70.6651C217.999 75.7899 212.488 79.9999 205.896 79.9999H12.1037C5.51154 79.9999 0.000244141 75.7899 0.000244141 70.6651V27.9232C0.000244141 22.7983 5.51154 18.6784 12.1037 18.6784Z" fill="#1C1C1C"/>
<path fill-rule="evenodd" clip-rule="evenodd" d="M11.625 18.1304H206.376C212.847 18.1304 218 22.0655 218 26.9164V67.8277C218 72.7696 212.847 76.7047 206.376 76.7047H11.625C5.27308 76.7047 0.000244141 72.7696 0.000244141 67.8277V26.9164C0.000244141 22.0655 5.27308 18.1304 11.625 18.1304Z" fill="#353535"/>
<path fill-rule="evenodd" clip-rule="evenodd" d="M12.1037 13.5536H205.896C212.488 13.5536 217.999 17.7636 217.999 22.7983V65.6313C217.999 70.7579 212.488 74.8751 205.896 74.8751H12.1037C5.51154 74.8751 0.000244141 70.757 0.000244141 65.6313V22.7983C0.000244141 17.7636 5.51154 13.5536 12.1037 13.5536Z" fill="#1C1C1C"/>
<path fill-rule="evenodd" clip-rule="evenodd" d="M19.055 11.4131H197.388C203.62 11.4131 208.653 15.0108 208.653 19.3799V56.3837C208.653 60.7528 203.62 64.3505 197.388 64.3505H19.055C12.9443 64.3505 7.91089 60.7528 7.91089 56.3837V19.3799C7.91089 15.0108 12.9443 11.4131 19.055 11.4131Z" fill="#C1C1C1"/>
<path fill-rule="evenodd" clip-rule="evenodd" d="M19.055 5.64661H197.388C203.62 5.64661 208.653 9.49161 208.653 14.1595V53.6981C208.653 58.3642 203.62 62.2092 197.388 62.2092H19.055C12.9443 62.2092 7.91089 58.3642 7.91089 53.6981V14.1595C7.91089 9.49161 12.9443 5.64661 19.055 5.64661Z" fill="white"/>
<path fill-rule="evenodd" clip-rule="evenodd" d="M19.055 3.99988H197.388C203.62 3.99988 208.653 7.84396 208.653 12.5109V52.0505C208.653 56.7165 203.62 60.5625 197.388 60.5625H19.055C12.9443 60.5625 7.91089 56.7165 7.91089 52.0505V12.5109C7.91089 7.84396 12.9443 3.99988 19.055 3.99988Z" fill="#DEDEDE"/>
</g>
<mask id="mask0_30_1079" style="mask-type:alpha" maskUnits="userSpaceOnUse" x="68" y="22" width="25" height="24">
<rect x="68.7793" y="22" width="24" height="24" fill="#D9D9D9"/>
</mask>
<g mask="url(#mask0_30_1079)">
<path d="M74.7793 37C74.2293 37 73.7585 36.8042 73.3668 36.4125C72.9751 36.0208 72.7793 35.55 72.7793 35V32C72.7793 31.7167 72.8751 31.4792 73.0668 31.2875C73.2585 31.0958 73.496 31 73.7793 31C74.0626 31 74.3001 31.0958 74.4918 31.2875C74.6835 31.4792 74.7793 31.7167 74.7793 32V35H86.7793V32C86.7793 31.7167 86.8751 31.4792 87.0668 31.2875C87.2585 31.0958 87.496 31 87.7793 31C88.0626 31 88.3001 31.0958 88.4918 31.2875C88.6835 31.4792 88.7793 31.7167 88.7793 32V35C88.7793 35.55 88.5835 36.0208 88.1918 36.4125C87.8001 36.8042 87.3293 37 86.7793 37H74.7793Z" fill="#1C1B1F"/>
</g>
<path d="M112.935 28.12C112.961 28.12 112.981 28.2133 112.995 28.4C113.008 28.5867 113.015 28.8067 113.015 29.06C113.015 29.9667 112.968 30.9133 112.875 31.9C112.728 33.34 112.448 34.7067 112.035 36C111.635 37.28 111.141 38.38 110.555 39.3C110.301 39.6867 109.955 40.0933 109.515 40.52C109.088 40.9467 108.715 41.2533 108.395 41.44C107.568 41.92 106.808 42.1667 106.115 42.18L105.475 42.2L105.975 42.14C106.308 42.1133 106.561 42.0533 106.735 41.96C106.801 41.9333 106.848 41.9133 106.875 41.9C106.901 41.8733 106.901 41.8667 106.875 41.88C106.475 41.9867 106.148 42.04 105.895 42.04C105.788 42.04 105.575 42.0133 105.255 41.96C104.881 41.88 104.621 41.8067 104.475 41.74C104.368 41.7 104.315 41.6733 104.315 41.66C104.301 41.6467 104.328 41.6267 104.395 41.6C104.448 41.5867 104.495 41.5533 104.535 41.5C104.561 41.4467 104.575 41.3933 104.575 41.34C104.575 41.26 104.541 41.2067 104.475 41.18C104.408 41.1533 104.375 41.0933 104.375 41C104.375 40.8933 104.421 40.78 104.515 40.66C104.595 40.5267 104.675 40.46 104.755 40.46C104.808 40.46 104.835 40.44 104.835 40.4C104.835 40.3733 104.821 40.3467 104.795 40.32C104.755 40.2933 104.708 40.2733 104.655 40.26C104.601 40.2467 104.568 40.2333 104.555 40.22C104.528 40.1933 104.528 40.1667 104.555 40.14C104.595 40.0733 104.701 40 104.875 39.92C105.035 39.84 105.181 39.7933 105.315 39.78C105.488 39.7533 105.808 39.6267 106.275 39.4C107.021 39.04 107.621 38.4867 108.075 37.74C108.608 36.94 109.035 35.86 109.355 34.5C109.421 34.18 109.488 33.7533 109.555 33.22C109.621 32.6733 109.655 32.2467 109.655 31.94V31.3L108.355 31.34C108.021 31.3533 107.735 31.36 107.495 31.36C107.255 31.3467 107.148 31.3267 107.175 31.3C107.241 31.26 107.255 31.24 107.215 31.24C107.215 31.24 107.208 31.24 107.195 31.24C107.195 31.24 107.195 31.2333 107.195 31.22L107.355 31.16C107.461 31.1333 107.515 31.12 107.515 31.12L107.295 31.1C107.028 31.06 106.868 31.0333 106.815 31.02C106.801 31.0067 106.781 31 106.755 31C106.741 31 106.735 30.9933 106.735 30.98C106.735 30.98 106.848 30.9667 107.075 30.94C107.315 30.94 107.435 30.9333 107.435 30.92C107.435 30.8933 107.115 30.86 106.475 30.82C106.181 30.7933 105.948 30.7667 105.775 30.74C105.601 30.7133 105.488 30.6733 105.435 30.62C105.395 30.5933 105.361 30.56 105.335 30.52C105.321 30.48 105.321 30.4533 105.335 30.44C105.335 30.3867 105.281 30.3267 105.175 30.26C105.081 30.2067 105.021 30.14 104.995 30.06C104.981 29.98 105.008 29.94 105.075 29.94C105.128 29.94 105.141 29.8667 105.115 29.72V29.66C105.115 29.5533 105.148 29.4467 105.215 29.34C105.375 29.14 105.395 29.0133 105.275 28.96C105.261 28.96 105.255 28.96 105.255 28.96C105.255 28.9467 105.255 28.94 105.255 28.94C105.255 28.9133 105.321 28.8667 105.455 28.8C105.521 28.7733 105.575 28.74 105.615 28.7C105.668 28.66 105.688 28.6333 105.675 28.62C105.648 28.58 105.715 28.5467 105.875 28.52C106.021 28.4667 106.095 28.4133 106.095 28.36C106.095 28.32 106.128 28.2933 106.195 28.28C106.275 28.2667 106.375 28.26 106.495 28.26C106.908 28.26 107.575 28.2333 108.495 28.18C109.428 28.1267 110.241 28.0733 110.935 28.02C111.641 27.9667 111.828 27.94 111.495 27.94C112.135 27.94 112.535 27.98 112.695 28.06C112.841 28.1133 112.921 28.1333 112.935 28.12ZM105.995 30.9C106.021 30.9267 105.988 30.94 105.895 30.94C105.868 30.94 105.848 30.9333 105.835 30.92C105.821 30.9067 105.828 30.9 105.855 30.9C105.921 30.8733 105.968 30.8733 105.995 30.9ZM108.855 30.92C109.001 30.92 109.121 30.92 109.215 30.92C109.308 30.92 109.361 30.92 109.375 30.92C109.388 30.9067 109.361 30.9 109.295 30.9C109.215 30.8867 109.068 30.88 108.855 30.88C108.628 30.88 108.475 30.8867 108.395 30.9H108.295C108.321 30.9 108.381 30.9067 108.475 30.92C108.568 30.92 108.695 30.92 108.855 30.92ZM123.505 37.04C123.545 38.08 123.565 39.0733 123.565 40.02C123.565 40.5 123.559 40.78 123.545 40.86L123.485 41.18L123.465 40.74C123.439 40.34 123.405 40.14 123.365 40.14C123.352 40.14 123.345 40.26 123.345 40.5C123.345 40.7533 123.305 41.02 123.225 41.3C123.145 41.58 123.052 41.7867 122.945 41.92C122.865 42.04 122.812 42.06 122.785 41.98C122.772 41.9133 122.712 41.88 122.605 41.88C122.499 41.88 122.425 41.9267 122.385 42.02C122.372 42.0733 122.359 42.1 122.345 42.1C122.332 42.1133 122.299 42.0933 122.245 42.04C122.192 41.9867 122.152 41.9667 122.125 41.98C122.112 41.98 122.092 42.02 122.065 42.1C122.052 42.2067 122.032 42.2267 122.005 42.16C122.005 42.0667 121.939 41.9733 121.805 41.88C121.685 41.7867 121.585 41.76 121.505 41.8C121.425 41.8133 121.299 41.8333 121.125 41.86C120.952 41.8867 120.752 41.9133 120.525 41.94C120.179 41.9667 119.919 41.98 119.745 41.98C118.412 41.98 117.292 41.64 116.385 40.96C116.025 40.7067 115.719 40.4133 115.465 40.08C115.225 39.7467 114.999 39.3133 114.785 38.78C114.532 38.14 114.332 37.4467 114.185 36.7C114.052 35.9533 113.899 34.78 113.725 33.18C113.645 32.46 113.605 31.74 113.605 31.02C113.605 30.1133 113.665 29.3733 113.785 28.8C113.839 28.52 113.879 28.3533 113.905 28.3C113.932 28.2467 113.972 28.2533 114.025 28.32C114.065 28.36 114.099 28.3867 114.125 28.4C114.152 28.4 114.165 28.3733 114.165 28.32C114.165 28.2533 114.185 28.22 114.225 28.22C114.279 28.2067 114.312 28.2333 114.325 28.3L114.345 28.32C114.372 28.32 114.405 28.2667 114.445 28.16C114.472 28.0933 114.505 28.0333 114.545 27.98C114.599 27.9267 114.645 27.8933 114.685 27.88C114.792 27.8533 114.965 27.84 115.205 27.84C115.605 27.84 115.872 27.86 116.005 27.9C116.152 27.9533 116.259 27.9667 116.325 27.94H116.345C116.412 27.94 116.512 27.9733 116.645 28.04C116.805 28.12 116.905 28.16 116.945 28.16C116.985 28.16 117.005 28.2533 117.005 28.44C117.005 28.6933 116.979 29.1133 116.925 29.7C116.872 30.4467 116.845 31.1333 116.845 31.76C116.845 32.6533 116.879 33.5533 116.945 34.46C117.012 35.3667 117.092 36.0667 117.185 36.56C117.265 36.9733 117.372 37.3533 117.505 37.7C117.639 38.0333 117.772 38.28 117.905 38.44C118.065 38.6133 118.285 38.7733 118.565 38.92C118.779 39.0133 119.079 39.0933 119.465 39.16C119.852 39.2267 120.172 39.26 120.425 39.26C120.612 39.26 120.712 39.24 120.725 39.2C120.752 39.1733 120.739 38.9467 120.685 38.52L120.565 36.64C120.432 34.2667 120.319 32.78 120.225 32.18C120.159 31.7667 120.125 31.1533 120.125 30.34C120.125 29.8467 120.139 29.4333 120.165 29.1C120.205 28.7533 120.252 28.58 120.305 28.58C120.372 28.58 120.405 28.6067 120.405 28.66C120.419 28.7 120.445 28.6733 120.485 28.58C120.525 28.4867 120.552 28.44 120.565 28.44C120.579 28.44 120.599 28.4733 120.625 28.54L120.665 28.62C120.692 28.62 120.712 28.5667 120.725 28.46C120.752 28.3267 120.792 28.2333 120.845 28.18C120.912 28.1133 121.019 28.06 121.165 28.02C121.245 27.9933 121.465 27.98 121.825 27.98C122.319 27.98 122.712 28.0067 123.005 28.06C123.165 28.1133 123.259 28.16 123.285 28.2C123.312 28.2267 123.325 28.3133 123.325 28.46L123.345 29.78C123.372 30.6733 123.399 31.92 123.425 33.52C123.452 35.1867 123.479 36.36 123.505 37.04ZM114.265 28.72C114.279 28.56 114.272 28.52 114.245 28.6C114.232 28.6133 114.192 28.7467 114.125 29C114.112 29.16 114.119 29.2 114.145 29.12C114.159 29.1067 114.199 28.9733 114.265 28.72ZM120.545 29.44C120.599 29.36 120.625 29.2667 120.625 29.16C120.625 29.0667 120.619 29.02 120.605 29.02C120.592 29.02 120.565 29.1133 120.525 29.3C120.512 29.3667 120.505 29.42 120.505 29.46C120.505 29.4867 120.519 29.48 120.545 29.44ZM120.585 39.48C120.639 39.48 120.679 39.4733 120.705 39.46C120.732 39.4467 120.752 39.4333 120.765 39.42C120.765 39.3933 120.732 39.38 120.665 39.38C120.599 39.38 120.539 39.3867 120.485 39.4C120.445 39.4133 120.419 39.4267 120.405 39.44C120.405 39.4667 120.465 39.48 120.585 39.48ZM137.972 32.7C137.972 34.2467 137.872 35.9133 137.672 37.7C137.472 39.4867 137.252 40.64 137.012 41.16C136.985 41.2267 136.959 41.2733 136.932 41.3C136.919 41.3133 136.925 41.2933 136.952 41.24C136.992 41.04 137.012 40.8533 137.012 40.68L137.052 40.32L136.972 40.64C136.932 40.84 136.852 41.0533 136.732 41.28C136.625 41.5067 136.505 41.7 136.372 41.86C136.265 41.9667 136.199 42.0267 136.172 42.04C136.145 42.0533 136.112 42.0333 136.072 41.98C136.045 41.94 135.979 41.9067 135.872 41.88C135.779 41.8533 135.685 41.84 135.592 41.84C135.539 41.84 135.485 41.8467 135.432 41.86C135.392 41.8733 135.372 41.8933 135.372 41.92C135.372 41.9333 135.365 41.94 135.352 41.94C135.325 41.94 135.272 41.88 135.192 41.76C135.125 41.64 135.092 41.5533 135.092 41.5C135.092 41.42 135.065 41.38 135.012 41.38C134.959 41.38 134.905 41.4267 134.852 41.52C134.812 41.5867 134.779 41.62 134.752 41.62C134.725 41.62 134.685 41.5533 134.632 41.42C134.579 41.3267 134.552 41.14 134.552 40.86C134.552 40.4467 134.599 39.7467 134.692 38.76C134.852 36.88 134.932 35.5733 134.932 34.84L134.912 34.08C134.885 33.2133 134.865 32.7733 134.852 32.76H134.832C134.779 32.76 134.599 32.8067 134.292 32.9C133.892 33.02 133.619 33.0933 133.472 33.12C133.339 33.1333 133.272 33.1133 133.272 33.06C133.272 32.9933 133.305 32.9467 133.372 32.92C133.399 32.9067 133.392 32.9 133.352 32.9C133.325 32.8867 133.285 32.8867 133.232 32.9H133.132C133.039 32.9 132.939 32.8867 132.832 32.86C132.739 32.8333 132.692 32.82 132.692 32.82L132.872 32.8C133.152 32.7733 133.292 32.7467 133.292 32.72C133.292 32.7067 133.199 32.7 133.012 32.7H132.552L132.512 35.36C132.485 37.16 132.452 38.1867 132.412 38.44C132.345 38.84 132.305 39.1133 132.292 39.26C132.239 39.58 132.172 39.8133 132.092 39.96C132.079 40.0133 132.059 40.0533 132.032 40.08C132.019 40.1067 132.005 40.12 131.992 40.12C131.992 40.12 131.999 40.1133 132.012 40.1C132.025 40.06 132.045 39.88 132.072 39.56L132.112 39.16L132.012 39.56C131.919 39.9733 131.732 40.34 131.452 40.66C131.385 40.7533 131.332 40.8067 131.292 40.82C131.265 40.8333 131.225 40.8133 131.172 40.76C131.105 40.6933 131.025 40.66 130.932 40.66C130.852 40.66 130.785 40.6933 130.732 40.76C130.719 40.8133 130.705 40.84 130.692 40.84C130.679 40.84 130.659 40.8133 130.632 40.76C130.605 40.6933 130.565 40.66 130.512 40.66C130.472 40.66 130.439 40.7 130.412 40.78C130.412 40.82 130.405 40.84 130.392 40.84C130.379 40.8267 130.372 40.7933 130.372 40.74C130.372 40.66 130.339 40.5867 130.272 40.52C130.205 40.4933 130.159 40.4267 130.132 40.32C130.119 40.2533 130.099 40.2267 130.072 40.24C130.059 40.24 130.032 40.26 129.992 40.3C129.912 40.38 129.845 40.42 129.792 40.42C129.659 40.42 129.592 40.0133 129.592 39.2C129.592 38.72 129.599 38.3267 129.612 38.02V37.12C129.612 36.2 129.592 35.32 129.552 34.48C129.525 33.64 129.485 33.2 129.432 33.16C129.419 33.12 129.165 33.1733 128.672 33.32C128.192 33.4667 127.925 33.5133 127.872 33.46C127.819 33.4067 127.852 33.36 127.972 33.32C128.025 33.3067 128.052 33.2867 128.052 33.26L127.852 33.28C127.745 33.3067 127.612 33.32 127.452 33.32C127.412 33.32 127.379 33.3933 127.352 33.54C127.339 33.6733 127.325 34.04 127.312 34.64C127.312 35.2267 127.312 36 127.312 36.96C127.312 37.92 127.305 38.7467 127.292 39.44C127.279 40.1333 127.265 40.6067 127.252 40.86C127.225 40.9533 127.205 41 127.192 41C127.179 41 127.172 40.86 127.172 40.58L127.152 40.04L127.092 40.5C127.065 40.7667 127.005 41.0333 126.912 41.3C126.819 41.5533 126.725 41.7467 126.632 41.88C126.539 42 126.472 42 126.432 41.88C126.405 41.8267 126.339 41.8 126.232 41.8H126.172C126.092 41.8 126.032 41.8533 125.992 41.96C125.979 42.0667 125.959 42.0867 125.932 42.02C125.932 41.9667 125.919 41.9267 125.892 41.9C125.865 41.8733 125.839 41.86 125.812 41.86C125.759 41.86 125.719 41.9 125.692 41.98L125.652 42.14V41.98C125.652 41.94 125.632 41.9 125.592 41.86C125.565 41.82 125.532 41.7933 125.492 41.78C125.399 41.7267 125.352 41.66 125.352 41.58C125.352 41.5 125.325 41.46 125.272 41.46C125.219 41.4467 125.179 41.48 125.152 41.56C125.125 41.6267 125.092 41.66 125.052 41.66C124.985 41.66 124.912 41.5733 124.832 41.4C124.632 40.9333 124.465 38.72 124.332 34.76L124.232 32.32C124.192 32.08 124.172 31.74 124.172 31.3C124.172 30.6733 124.199 30.0533 124.252 29.44C124.319 28.8267 124.385 28.52 124.452 28.52C124.505 28.52 124.545 28.5467 124.572 28.6C124.572 28.6267 124.579 28.6333 124.592 28.62C124.605 28.6067 124.612 28.5867 124.612 28.56C124.625 28.4933 124.652 28.4533 124.692 28.44C124.732 28.4267 124.765 28.4533 124.792 28.52V28.54C124.845 28.54 124.892 28.4733 124.932 28.34C125.025 28.1667 125.139 28.06 125.272 28.02C125.339 27.9933 125.559 27.98 125.932 27.98C126.185 27.98 126.425 27.9867 126.652 28C126.892 28.0133 127.025 28.0333 127.052 28.06C127.105 28.1133 127.152 28.14 127.192 28.14C127.325 28.18 127.405 28.22 127.432 28.26C127.472 28.3 127.492 28.4133 127.492 28.6C127.492 28.8533 127.485 29.0933 127.472 29.32L127.432 30.42L127.612 30.36C128.132 30.2 128.519 30.0333 128.772 29.86C128.879 29.7933 128.945 29.7333 128.972 29.68C129.012 29.6133 129.039 29.5067 129.052 29.36C129.065 29.2133 129.079 29.12 129.092 29.08C129.119 29.04 129.159 29.0267 129.212 29.04H129.272C129.325 29.04 129.365 29.0067 129.392 28.94C129.405 28.8867 129.419 28.8533 129.432 28.84C129.459 28.8267 129.479 28.84 129.492 28.88L129.532 28.9C129.572 28.9 129.599 28.84 129.612 28.72C129.639 28.6133 129.679 28.54 129.732 28.5C129.785 28.46 129.879 28.4133 130.012 28.36C130.305 28.2533 130.732 28.2 131.292 28.2C131.572 28.2 131.772 28.22 131.892 28.26C131.999 28.3 132.072 28.3467 132.112 28.4C132.152 28.44 132.179 28.5267 132.192 28.66C132.232 28.8333 132.252 29.06 132.252 29.34C132.252 29.5933 132.285 29.78 132.352 29.9C132.419 30.0067 132.532 30.06 132.692 30.06C132.785 30.06 132.932 30.0267 133.132 29.96C133.492 29.84 133.772 29.72 133.972 29.6C134.185 29.4667 134.525 29.2 134.992 28.8L135.852 28.08L135.992 28.24C136.072 28.32 136.145 28.3667 136.212 28.38C136.279 28.3933 136.472 28.4 136.792 28.4C137.019 28.4 137.225 28.4267 137.412 28.48C137.612 28.52 137.725 28.5667 137.752 28.62C137.779 28.7 137.812 29.0933 137.852 29.8C137.905 30.5067 137.945 31.2533 137.972 32.04V32.7ZM124.752 29.06C124.752 28.94 124.732 28.9533 124.692 29.1C124.652 29.3 124.632 29.42 124.632 29.46C124.632 29.54 124.639 29.58 124.652 29.58L124.692 29.42C124.732 29.3 124.752 29.18 124.752 29.06ZM133.592 32.86C133.685 32.8867 133.719 32.8733 133.692 32.82C133.679 32.8067 133.659 32.8 133.632 32.8C133.605 32.8 133.579 32.8067 133.552 32.82C133.525 32.82 133.519 32.8267 133.532 32.84C133.545 32.8533 133.565 32.86 133.592 32.86ZM128.072 33.02L127.792 33.06C127.565 33.0867 127.425 33.1133 127.372 33.14C127.319 33.1667 127.325 33.2 127.392 33.24C127.459 33.28 127.505 33.28 127.532 33.24L127.812 33.1L128.072 33.02ZM147.526 28.36C147.886 28.64 148.066 29.0067 148.066 29.46C148.066 29.8067 147.98 30.2 147.806 30.64C147.153 32.4133 146.366 33.8933 145.446 35.08C144.526 36.2667 143.44 37.2067 142.186 37.9L141.586 38.22V39.98C141.586 40.42 141.553 40.72 141.486 40.88C141.42 41.04 141.38 41.1333 141.366 41.16L141.346 41.2C141.32 41.2 141.313 41.04 141.326 40.72L141.366 40.1L141.266 40.62L141.086 41.42C141.006 41.6067 140.9 41.8067 140.766 42.02C140.633 42.2333 140.566 42.3 140.566 42.22C140.566 42.1667 140.513 42.1067 140.406 42.04C140.313 41.9867 140.24 41.9733 140.186 42C140.133 42.0267 140.093 42.0933 140.066 42.2C140.013 42.32 139.986 42.3267 139.986 42.22C139.986 42.14 139.946 42.1067 139.866 42.12H139.846C139.753 42.12 139.666 42.08 139.586 42C139.506 41.9067 139.466 41.8133 139.466 41.72V41.56L139.126 41.9L139.026 41.7C138.946 41.5667 138.873 41.1467 138.806 40.44C138.713 39.8 138.633 39.3267 138.566 39.02C138.5 38.7133 138.406 38.5533 138.286 38.54C138.193 38.54 138.046 38.5133 137.846 38.46C137.646 38.4067 137.48 38.3533 137.346 38.3C137.213 38.2333 137.186 38.2 137.266 38.2C137.373 38.1867 137.46 38.1333 137.526 38.04C137.58 37.9333 137.573 37.86 137.506 37.82L137.326 37.72C137.286 37.72 137.3 37.6733 137.366 37.58L137.406 37.5C137.406 37.4733 137.34 37.46 137.206 37.46L136.966 37.44L137.206 37.38C137.366 37.34 137.46 37.2867 137.486 37.22C137.5 37.1667 137.593 37.1133 137.766 37.06C137.913 37.0333 137.986 37.0067 137.986 36.98C137.986 36.9267 137.9 36.88 137.726 36.84C137.66 36.8267 137.613 36.8133 137.586 36.8C137.56 36.7733 137.56 36.7467 137.586 36.72C137.626 36.6667 137.733 36.6067 137.906 36.54C138.08 36.4733 138.253 36.42 138.426 36.38L138.646 36.32L138.626 34.66C138.6 33.34 138.56 32.4333 138.506 31.94C138.453 31.3 138.426 30.56 138.426 29.72C138.426 29.0667 138.446 28.5267 138.486 28.1C138.526 27.66 138.58 27.44 138.646 27.44C138.713 27.44 138.746 27.4667 138.746 27.52C138.746 27.5467 138.76 27.5533 138.786 27.54C138.813 27.5133 138.84 27.48 138.866 27.44C138.893 27.3733 138.913 27.3333 138.926 27.32C138.953 27.3067 138.966 27.3333 138.966 27.4C138.966 27.4133 138.966 27.4267 138.966 27.44C138.98 27.4533 138.986 27.46 138.986 27.46C139.013 27.46 139.046 27.4133 139.086 27.32C139.14 27.1867 139.193 27.0933 139.246 27.04C139.313 26.9867 139.413 26.9533 139.546 26.94C139.613 26.9267 139.793 26.92 140.086 26.92C140.793 26.92 141.2 26.9467 141.306 27L141.546 27.04C141.573 27.04 141.613 27.22 141.666 27.58L141.686 28.12L142.606 28.1L144.066 28.06L145.066 28.04L145.926 28.02C146.406 28.02 146.746 28.0467 146.946 28.1C147.16 28.14 147.353 28.2267 147.526 28.36ZM138.946 28C138.973 27.9067 138.973 27.82 138.946 27.74C138.933 27.7133 138.92 27.7133 138.906 27.74C138.906 27.7667 138.906 27.8067 138.906 27.86C138.906 27.9133 138.906 27.96 138.906 28C138.92 28.0267 138.933 28.0267 138.946 28ZM138.866 28.4C138.893 28.3333 138.893 28.2733 138.866 28.22C138.853 28.1933 138.84 28.1933 138.826 28.22C138.826 28.2333 138.826 28.26 138.826 28.3C138.826 28.34 138.826 28.3733 138.826 28.4C138.84 28.4267 138.853 28.4267 138.866 28.4ZM144.346 31.3L143.666 31.32L142.326 31.4L141.666 31.44V32.04L141.626 33.04L141.606 33.74C141.593 33.9267 141.586 34.1533 141.586 34.42C141.586 34.7 141.606 34.84 141.646 34.84C141.673 34.84 141.746 34.7933 141.866 34.7C141.986 34.5933 142.113 34.4667 142.246 34.32C142.58 33.9867 142.9 33.6067 143.206 33.18C143.526 32.7533 143.793 32.34 144.006 31.94L144.346 31.3ZM144.286 37.42C144.286 37.3667 144.286 37.3333 144.286 37.32C144.3 37.2933 144.313 37.3 144.326 37.34C144.353 37.4067 144.353 37.48 144.326 37.56C144.313 37.5867 144.3 37.5867 144.286 37.56C144.286 37.52 144.286 37.4733 144.286 37.42Z" fill="#1C1B1F"/>
<defs>
<clipPath id="clip0_30_1079">
<rect width="218" height="76" fill="white" transform="translate(0 4)"/>
</clipPath>
</defs>
</svg>
