<svg width="62" height="80" viewBox="0 0 62 80" fill="none" xmlns="http://www.w3.org/2000/svg">
<path fill-rule="evenodd" clip-rule="evenodd" d="M3.44216 18.3898H58.5574C60.4323 18.3898 61.9993 22.5291 61.9993 27.6781V70.6211C61.9993 75.7701 61.9993 79.9999 58.5574 79.9999H3.44216C0.000244141 79.9999 0.000244141 75.7701 0.000244141 70.6211V27.6781C0.000244141 22.5291 1.56815 18.3898 3.44216 18.3898Z" fill="#1C1C1C"/>
<path fill-rule="evenodd" clip-rule="evenodd" d="M3.30641 17.8385H58.6941C60.5344 17.8385 62.0002 21.7921 62.0002 26.6658V67.7697C62.0002 72.7348 62.0002 76.6884 58.6941 76.6884H3.30641C0.000244141 76.6894 0.000244141 72.7357 0.000244141 67.7706V26.6667C0.000244141 21.7931 1.49982 17.8394 3.30641 17.8394V17.8385Z" fill="#353535"/>
<path fill-rule="evenodd" clip-rule="evenodd" d="M3.44216 13.241H58.5574C60.4323 13.241 61.9993 17.4709 61.9993 22.5293V65.5638C61.9993 70.7146 61.9993 74.8511 58.5574 74.8511H3.44216C0.376504 74.8511 0.000244141 70.7137 0.000244141 65.5638V22.5293C0.000244141 17.4709 1.56815 13.241 3.44216 13.241Z" fill="#1C1C1C"/>
<path fill-rule="evenodd" clip-rule="evenodd" d="M5.41907 7.44806H56.1376C57.9105 7.44806 59.3418 11.3102 59.3418 16.0001V55.7239C59.3418 60.4137 59.3928 64.2759 56.1376 64.2759H5.41907C1.9307 64.2759 2.24956 60.4137 2.24956 55.7239V16.0001C2.24956 11.3102 3.68081 7.44806 5.41907 7.44806Z" fill="#C1C1C1"/>
<path fill-rule="evenodd" clip-rule="evenodd" d="M5.41927 1.6543H56.1378C57.9107 1.6543 59.342 5.5174 59.342 10.2073V49.932C59.342 54.62 59.393 58.4831 56.1378 58.4831H5.41927C2.24247 58.4831 2.24976 54.62 2.24976 49.932V10.2073C2.24976 5.5174 3.681 1.6543 5.41927 1.6543Z" fill="white"/>
<path fill-rule="evenodd" clip-rule="evenodd" d="M5.41927 0H56.1378C60.0544 0 59.342 3.86218 59.342 8.55111V48.2768C59.342 52.9648 59.393 56.8288 56.1378 56.8288H5.41927C2.27709 56.8288 2.24976 52.9648 2.24976 48.2768V8.55111C2.25067 3.86218 2.58046 0 5.41927 0Z" fill="#F2F2F2"/>
<mask id="mask0_30_1085" style="mask-type:alpha" maskUnits="userSpaceOnUse" x="19" y="18" width="24" height="24">
<rect x="19" y="18" width="24" height="24" fill="#D9D9D9"/>
</mask>
<g mask="url(#mask0_30_1085)">
<path d="M26.8499 31L29.6999 33.85C29.8999 34.05 29.9957 34.2833 29.9874 34.55C29.9791 34.8167 29.8832 35.05 29.6999 35.25C29.4999 35.45 29.2624 35.5542 28.9874 35.5625C28.7124 35.5708 28.4749 35.475 28.2749 35.275L23.6999 30.7C23.4999 30.5 23.3999 30.2667 23.3999 30C23.3999 29.7333 23.4999 29.5 23.6999 29.3L28.2749 24.725C28.4749 24.525 28.7124 24.4292 28.9874 24.4375C29.2624 24.4458 29.4999 24.55 29.6999 24.75C29.8832 24.95 29.9791 25.1833 29.9874 25.45C29.9957 25.7167 29.8999 25.95 29.6999 26.15L26.8499 29H37.9999C38.2832 29 38.5207 29.0958 38.7124 29.2875C38.9041 29.4792 38.9999 29.7167 38.9999 30C38.9999 30.2833 38.9041 30.5208 38.7124 30.7125C38.5207 30.9042 38.2832 31 37.9999 31H26.8499Z" fill="#1C1B1F"/>
</g>
</svg>
